/* XPM */
static char *result[] = {
/* columns rows colors chars-per-pixel */
"64 64 131 2 ",
"   c #151A1D",
".  c #21272C",
"X  c #22292E",
"o  c #293036",
"O  c #2D363C",
"+  c #2F383F",
"@  c #3F3F3F",
"#  c #682E31",
"$  c #2F3941",
"%  c #323C44",
"&  c #354047",
"*  c #3E4343",
"=  c #374249",
"-  c #3B464E",
";  c #3B4750",
":  c #3D4A53",
">  c #404E57",
",  c #414F58",
"<  c #44535C",
"1  c #4E5459",
"2  c #535353",
"3  c #5A5A5A",
"4  c #665E50",
"5  c #475660",
"6  c #485761",
"7  c #4B5A64",
"8  c #4E5E69",
"9  c #545E64",
"0  c #595F63",
"q  c #505F69",
"w  c #4F606B",
"e  c #5F6566",
"r  c #52626C",
"t  c #566570",
"y  c #586772",
"u  c #566975",
"i  c #5B6A75",
"p  c #5C6E7A",
"a  c #5D717E",
"s  c #60676C",
"d  c #6D6D6D",
"f  c #666F75",
"g  c #6A7175",
"h  c #62727D",
"j  c #737373",
"k  c #737B7F",
"l  c #7C7C7C",
"z  c #B21F12",
"x  c #8F5654",
"c  c #A47779",
"v  c #627480",
"b  c #677885",
"n  c #697A86",
"m  c #6B7D89",
"M  c #727E87",
"N  c #A17C80",
"B  c #6E818D",
"V  c #79848C",
"C  c #738693",
"Z  c #768996",
"A  c #7C8B94",
"S  c #778B98",
"D  c #7D909D",
"F  c #838484",
"G  c #8A8A8A",
"H  c #838D95",
"J  c #888D91",
"K  c #8D9397",
"L  c #8A949A",
"P  c #939494",
"I  c #9D9D9D",
"U  c #A88285",
"Y  c #A49697",
"T  c #BB9297",
"R  c #BF969A",
"E  c #BE989C",
"W  c #8396A3",
"Q  c #8699A6",
"!  c #869BA9",
"~  c #8A9EAB",
"^  c #939CA2",
"/  c #8FA2AF",
"(  c #9DA1A4",
")  c #9CA4AA",
"_  c #8DA5B5",
"`  c #93A8B5",
"'  c #A4A4A4",
"]  c #ADA0A1",
"[  c #A3AAAE",
"{  c #ADADAD",
"}  c #B3AEAF",
"|  c #BBABAD",
" . c #A9AFB3",
".. c #ADB3B6",
"X. c #A6B4BD",
"o. c #B5B5B5",
"O. c #BCB2B4",
"+. c #B4B9BD",
"@. c #BBBCBC",
"#. c #C3959A",
"$. c #C3A4A7",
"%. c #C0AEAF",
"&. c #C2AEB0",
"*. c #CCAEB1",
"=. c #D9ADB1",
"-. c #C0BDBD",
";. c #AAB9C4",
":. c #B1BCC4",
">. c #BFC2C5",
",. c #BEC8CF",
"<. c #C4C4C5",
"1. c #CCC0C1",
"2. c #C5C7C9",
"3. c #C6C9CC",
"4. c #CBCCCD",
"5. c #CDCFD0",
"6. c #CFD1D2",
"7. c #D4D4D5",
"8. c #D6D9DC",
"9. c #DDDDDD",
"0. c #E6DDDE",
"q. c #F1D0D3",
"w. c #D5DCE0",
"e. c #DDE3E6",
"r. c #E4E4E4",
"t. c #E0E5E8",
"y. c #EBEBEB",
"u. c #F3F3F3",
"i. c #F7F8F9",
"p. c #FEFEFE",
"a. c #2A52A5",
/* pixels */
"a.a.a.a.a.a.a.a.a.a.a.a.a.a.a.a.a.a.a.a.a.a.a.a.a.a.a.a.a.a.a.a.a.a.a.a.a.a.a.a.a.a.a.a.a.a.a.a.a.a.a.a.a.a.a.a.a.a.a.a.a.a.a.a.",
"a.a.a.a.a.a.a.a.a.a.a.a.a.a.a.a.a.a.a.a.a.a.a.a.a.a.a.a.a.a.a.a.a.a.a.a.a.a.a.a.a.a.a.a.a.a.a.a.a.a.a.a.a.a.a.a.a.a.a.a.a.a.a.a.",
"a.a.a.a.a.a.a.a.a.a.a.a.a.a.a.a.a.a.a.a.a.a.a.a.a.a.a.a.a.a.a.a.a.a.a.a.a.a.a.a.a.a.a.a.a.a.a.a.a.a.a.a.a.a.a.a.a.a.a.a.a.a.a.a.",
"a.a.a.a.a.a.a.a.a.a.a.a.a.a.a.a.a.a.a.a.a.a.a.a.a.a.a.a.a.a.a.a.a.a.a.a.a.a.a.a.a.a.a.a.a.a.a.a.a.a.a.a.a.a.a.a.a.a.a.a.a.a.a.a.",
"a.a.a.a.a.a.a.a.a.a.a.a.a.a.a.a.a.a.a.a.a.a.a.a.a.a.a.a.a.a.a.a.a.a.a.a.a.a.a.a.a.a.a.a.a.a.a.a.a.a.a.a.a.a.a.a.a.a.a.a.a.a.a.a.",
"a.a.a.a.a.a.a.a.a.a.a.a.a.a.a.a.a.a.a.a.a.a.a.a.a.a.a.a.a.a.a.a.a.a.a.a.a.a.a.a.a.a.a.a.a.a.a.a.a.a.a.a.a.a.a.a.a.a.a.a.a.a.a.a.",
"a.a.a.a.a.a.a.a.a.a.a.a.a.a.a.a.a.a.a.a.a.a.a.a.a.a.a.a.a.a.a.a.a.a.a.a.a.a.a.a.a.a.a.a.a.a.a.a.a.a.a.a.a.a.a.a.a.a.a.a.a.a.a.a.",
"a.a.a.a.a.a.a.a.a.a.a.a.a.a.a.a.a.a.a.a.a.a.a.a.a.a.a.a.a.a.a.a.a.a.a.a.a.a.a.a.a.a.a.a.a.a.a.a.a.a.a.a.a.a.a.a.a.a.a.a.a.a.a.a.",
"a.a.a.a.a.a.a.a.a.a.a.a.a.a.a.a.a.a.a.a.a.a.a.a.a.a.a.a.a.a.a.a.a.a.a.a.a.a.a.a.a.a.a.a.a.a.a.a.a.a.a.a.a.a.a.a.a.a.a.a.a.a.a.a.",
"a.a.a.a.a.a.a.a.a.a.a.a.a.a.a.a.a.a.a.a.a.a.a.a.a.a.a.a.a.a.a.a.a.a.a.a.a.a.a.a.a.a.a.a.a.a.a.a.a.a.a.a.a.a.a.a.a.a.a.a.a.a.a.a.",
"a.a.a.a.a.a.a.a.a.a.a.a.a.a.a.a.a.a.a.a.a.a.a.a.a.a.a.a.a.a.a.a.a.a.a.a.a.a.a.a.a.a.a.a.a.a.a.a.a.a.a.a.a.a.a.a.a.a.a.a.a.a.a.a.",
"a.a.a.a.a.a.a.a.a.a.a.a.a.a.a.a.a.a.a.a.a.a.a.a.a.a.a.a.a.a.a.a.a.a.a.a.a.a.a.a.a.a.a.a.a.a.a.a.a.a.a.a.a.a.a.a.a.a.a.a.a.a.a.a.",
"a.a.a.a.a.a.a.a.a.a.a.a.a.a.a.a.a.a.a.a.a.a.a.a.a.a.a.a.a.a.a.a.o a.a.a.a.a.a.a.a.a.a.a.a.a.a.a.a.a.a.a.a.a.a.a.a.a.a.a.a.a.a.a.",
"a.a.a.a.a.a.a.a.a.a.a.a.a.a.a.a.a.a.a.a.a.a.a.a.a.a.a.a.a.a.- , + a.a.a.a.a.a.a.a.a.a.a.a.a.a.a.a.a.a.a.a.a.a.a.a.a.a.a.a.a.a.a.",
"a.a.a.a.a.a.a.a.a.a.a.a.a.a.a.a.a.a.a.a.a.a.a.a.a.a.a.a.+ < , : + a.a.a.a.a.a.a.a.a.a.a.a.a.a.a.a.a.a.a.a.a.a.a.a.a.a.a.a.a.a.a.",
"a.a.a.a.a.a.a.a.a.a.a.a.a.a.a.a.a.a.a.a.a.a.a.a.a.a.a.< 5 , : : + a.a.a.a.a.a.a.a.a.a.a.a.a.a.a.a.a.a.a.a.a.a.a.a.a.a.a.a.k a.a.",
"a.a.a.a.a.a.a.a.a.a.a.a.a.a.a.a.a.a.a.a.a.a.a.a.a.o 7 5 : : : : + a.a.a.a.a.a.a.a.a.a.a.a.a.a.a.a.a.a.a.a.a.a.a.a.a.a.a.y K a.a.",
"a.a.a.a.a.a.a.a.a.a.a.a.a.a.a.a.a.a.a.a.a.a.a.a.+ 7 6 : : : : : o a.a.a.a.a.a.a.a.a.a.a.a.a.a.a.a.a.a.a.a.a.a.a.a.a.a.a./ o.a.a.",
"a.a.a.a.a.a.a.a.a.a.a.a.a.a.a.a.a.a.a.a.a.a.a.a.7 5 : : : : : ;   a.a.a.a.a.a.a.a.a.a.a.a.a.a.a.a.a.a.a.a.a.a.a.a.a.a.! 6.I a.a.",
"a.a.a.a.a.a.a.a.a.a.a.a.a.a.a.a.a.a.a.a.a.a.a.8 5 : : : : : : : : a.a.a.a.a.a.a.a.a.a.a.a.a.a.a.a.a.a.a.a.a.a.a.a.a.h ! u.a.a.a.",
"a.a.a.a.a.a.a.a.a.a.a.a.a.a.a.a.a.a.a.a.a.a.+ 6 , : : : : : : : : a.a.a.a.a.a.a.a.a.a.a.a.a.a.a.a.a.a.a.a.a.a.a.a.a._ X.p.a.a.a.",
"a.a.a.a.a.a.a.a.a.a.a.a.a.a.a.a.a.a.a.a.a.a.7 < ; : : : : : : : : . a.a.a.a.a.a.a.a.a.a.a.a.a.a.a.a.a.a.a.a.a.a.a.p D w.p.a.a.a.",
"a.a.a.a.a.a.a.a.a.a.a.a.a.a.a.a.a.a.a.a.a.- 7 5 , , , , : : : : : - a.a.a.a.a.a.a.a.a.a.a.a.a.a.a.a.a.a.a.a.a.a.a.B ~ i.p.a.a.a.",
"a.a.a.a.a.a.a.a.a.a.a.a.a.a.a.a.a.o - - < t r 8 7 8 8 8 r 8 r 7 6 7 7 < . a.a.a.a.a.a.a.a.a.a.a.a.a.a.a.a.a.a.a.a._ >.p.9.a.a.a.",
"a.a.a.a.a.a.a.a.a.a.a.a.a.o < 7 < , , , , : , : < , , , : < : < , < > < < < < : & X a.a.a.a.a.a.a.a.a.a.a.a.a.a.a.W e.p.' a.a.a.",
"a.a.a.a.a.a.a.a.a.o < < < : : : > : : : : : : : : : : : : : : : : : : : : : : : : : : < > : & a.a.a.a.a.a.a.a.a.q ! p.p.F a.a.a.",
"a.a.a.a.a.a.; : < > : : : : : : : : : : : : : : : : : : : : : : : : : : : : : : : : : : : : 8 8 q > a.a.a.a.a.a.C ;.p.p.l a.a.a.",
"a.a.a.% < < : : : : : ; ; : : ; : > : : : : : : : : : : : : : ; : : : : : : : : : : : : : : 5 8 8 8 h q a.a.a.a.h 3.p.p.a.a.a.a.",
"a.= < > : : : : : : ; : - < < 7 7 q 7 5 , : : : : : : : : : : : : : : : : : : ; : : : : : : 5 8 8 8 t m n r a.a.h e.p.p.a.a.a.a.",
"a.= : : : : ; : : * # z 4 B H L ^ [ ) V r 5 : : : : : : : : : : : : : : : : : : : : : : : : < 8 8 8 r m m m m r n t.p.p.a.a.a.a.",
"a.+ : > , < < 5 8 e x c 2.5.7.7.5.6.6.5...i 6 5 : : : : : : : : : : : : : : : : : : : : : : 5 8 8 8 8 n m m m p D p.p.p.a.a.a.a.",
"a.a.p r r V A I  .6.<.4.7.6.5.5.7.5.6.7.5.) V q < : : : : : : : : : : : : : : : : : : : : : < 8 8 8 8 n m m m h ! p.p.p.a.a.a.a.",
"a.a.a.<.6.6.6.7.4.7.7.4.@.O.*.c Y o.' <.7.6.5.r < : : : : : : : : : : : : : : : : : : : : : < w 8 8 8 b m m m B ` p.p.y.a.a.a.a.",
"a.a.a.a.2.7.6.4.o.%.R R 1.O.#.0.p.0.^ ' 6.6.6.g : $ : : : : : : : : : : : ; : : : : : : : : < 8 8 8 w n m n B Z ;.p.p.r.a.a.a.a.",
"a.a.a.a.a.l <.7.<.] $.u.p.4.G u.p.9.' ' 6.6.6.P q & + : : : : : : : : : : : : : : : : : : : < 8 w 8 w n B B Z ! e.p.p.r.a.a.a.a.",
"a.a.a.a.a.a.a.p.u.o.' u.p.5.1.7.p.4.@.' 6.6.6.<.7 ; % : : : : : : : : : : : : : : : : : : : 7 t u u a B S Z W :.p.p.p.r.a.a.a.a.",
"a.a.a.a.a.a.a.I p.{ 7.2.i.6.<.7.i.o.p.' 6.6.6.5.1 7 - : : : : : : : : : : : > > > < , : < 5 r h v a b W W W 3.y.p.p.p.o.a.a.a.a.",
"a.a.a.a.a.a.a.a.0.{ p.y.o.-.u.y.<.o.p.' 6.6.6.6.M 8 : : : : : : : : : < < < 7 7 8 8 8 < r t v m n b H ;.8.r.y.y.p.p.9.d a.a.a.a.",
"a.a.a.a.a.a.a.a.a.<.p.i.2.P p.u.{ } &.o.7.4.6.2.n 7 < : : : : : : : : < r y t y y y y t p M ) +.3.+.9.y.y.y.y.7.p.p.p.j a.a.a.a.",
"a.a.a.a.a.a.a.a.a.I y.p.-.U =.q.R T @.7.5.2.7.7.5.3.f < ; : : : : : : < y H ) +.+.6.2.V 2.7.9.9.e.9.9.y.y.y.r.@.u.p.p.r.a.a.a.a.",
"a.a.a.a.a.a.a.a.a.8.4.3.<.3.3.3.3.7.6.4.<.4.6.6.6.6.o.7 : : : : : : : < G 6.6.6.6.6.6.4.6.5.9.9.0.9.9.r.8.<.G a.o.p.p.r.a.a.a.a.",
"a.a.a.a.a.a.a.a.a.G 5.6.7.7.6.6.7.5.4.4.6.7.6.6.6.6.6.J 5 : : : : : > 6 j <.6.6.6.7.6.6.7.7.9.8.7.4.<.' a.a.a.a.d r.p.r.a.a.a.a.",
"a.a.a.a.a.a.a.a.a.a.F 6.4.7.5.6.4.6.6.6.6.6.6.6.6.6.6.4.r < : : : : : 5 e +.4.6.6.6.4.2.@.<.3.o.G a.a.a.a.a.a.a.a.<.r.u.a.a.a.a.",
"a.a.a.a.a.a.a.a.a.a.a.3 @.<.<.4.6.6.6.6.6.6.6.6.6.6.6.7.@., < ; : : : < : ' o.-.@.{ ' ' d 2 a.a.a.a.a.a.a.a.a.a.a.d 7.9.a.a.a.a.",
"a.a.a.a.a.a.a.a.a.a.a.a.a.a.a.a.a.3 2 l l l F J I ' ' ' ' I 9 < : : : : < 1 d d 2 a.a.a.a.a.a.a.a.a.a.a.a.a.a.a.a.a.' 8.3 a.a.a.",
"a.a.a.a.a.a.a.a.a.a.a.a.a.a.a.a.a.a.a.a.a.a.a.a.a.a.a.a.2 l l 0 < < > : : < a.a.a.a.a.a.a.a.a.a.a.a.a.a.a.a.a.a.a.a.a.P { a.a.a.",
"a.a.a.a.a.a.a.a.a.a.a.a.a.a.a.a.a.a.a.a.a.a.a.a.a.a.a.a.a.a.3 F l 0 > < : : : a.a.a.a.a.a.a.a.a.a.a.a.a.a.a.a.a.a.a.a.a.a.a.a.a.",
"a.a.a.a.a.a.a.a.a.a.a.a.a.a.a.a.a.a.a.a.a.a.a.a.a.a.a.a.a.a.a.a.a.3 G d . & < = a.a.a.a.a.a.a.a.a.a.a.a.a.a.a.a.a.a.a.a.a.a.a.a.",
"a.a.a.a.a.a.a.a.a.a.a.a.a.a.a.a.a.a.a.a.a.a.a.a.a.a.a.a.a.a.a.a.a.a.a.a.@ a.a.a.. a.a.a.a.a.a.a.a.a.a.a.a.a.a.a.a.a.a.a.a.a.a.a.",
"a.a.a.a.a.a.a.a.a.a.a.a.a.a.a.a.a.a.a.a.a.a.a.a.a.a.a.a.a.a.a.a.a.a.a.a.a.a.a.a.a.a.a.a.a.a.a.a.a.a.a.a.a.a.a.a.a.a.a.a.a.a.a.a.",
"a.a.a.a.a.a.a.a.a.a.a.a.a.a.a.a.a.a.a.a.a.a.a.a.a.a.a.a.a.a.a.a.a.a.a.a.a.a.a.a.a.a.a.a.a.a.a.a.a.a.a.a.a.a.a.a.a.a.a.a.a.a.a.a.",
"a.a.a.a.a.a.a.a.a.a.a.a.a.a.a.a.a.a.a.a.a.a.a.a.a.a.a.a.a.a.a.a.a.a.a.a.a.a.a.a.a.a.a.a.a.a.a.a.a.a.a.a.a.a.a.a.a.a.a.a.a.a.a.a.",
"a.a.a.a.a.a.a.a.a.a.a.a.a.a.a.a.a.a.a.a.a.a.a.a.a.a.a.a.a.a.a.a.a.a.a.a.a.a.a.a.a.a.a.a.a.a.a.a.a.a.a.a.a.a.a.a.a.a.a.a.a.a.a.a.",
"a.a.a.a.a.a.a.a.a.a.a.a.a.a.a.a.a.a.a.a.a.a.a.a.a.a.a.a.a.a.a.a.a.a.a.a.a.a.a.a.a.a.a.a.a.a.a.a.a.a.a.a.a.a.a.a.a.a.a.a.a.a.a.a.",
"a.a.a.a.a.a.a.a.a.a.a.a.a.a.a.a.a.a.a.a.a.a.a.a.a.a.a.a.a.a.a.a.a.a.a.a.a.a.a.a.a.a.a.a.a.a.a.a.a.a.a.a.a.a.a.a.a.a.a.a.a.a.a.a.",
"a.a.a.a.a.a.a.a.a.a.a.a.a.a.a.a.a.a.a.a.a.a.a.a.a.a.a.a.a.a.a.a.a.a.a.a.a.a.a.a.a.a.a.a.a.a.a.a.a.a.a.a.a.a.a.a.a.a.a.a.a.a.a.a.",
"a.a.a.a.a.a.a.a.a.a.a.a.a.a.a.a.a.a.a.a.a.a.a.a.a.a.a.a.a.a.a.a.a.a.a.a.a.a.a.a.a.a.a.a.a.a.a.a.a.a.a.a.a.a.a.a.a.a.a.a.a.a.a.a.",
"a.a.a.a.a.a.a.a.a.a.a.a.a.a.a.a.a.a.a.a.a.a.a.a.a.a.a.a.a.a.a.a.a.a.a.a.a.a.a.a.a.a.a.a.a.a.a.a.a.a.a.a.a.a.a.a.a.a.a.a.a.a.a.a.",
"a.a.a.a.a.a.a.a.a.a.a.a.a.a.a.a.a.a.a.a.a.a.a.a.a.a.a.a.a.a.a.a.a.a.a.a.a.a.a.a.a.a.a.a.a.a.a.a.a.a.a.a.a.a.a.a.a.a.a.a.a.a.a.a.",
"a.a.a.a.a.a.a.a.a.a.a.a.a.a.a.a.a.a.a.a.a.a.a.a.a.a.a.a.a.a.a.a.a.a.a.a.a.a.a.a.a.a.a.a.a.a.a.a.a.a.a.a.a.a.a.a.a.a.a.a.a.a.a.a.",
"a.a.a.a.a.a.a.a.a.a.a.a.a.a.a.a.a.a.a.a.a.a.a.a.a.a.a.a.a.a.a.a.a.a.a.a.a.a.a.a.a.a.a.a.a.a.a.a.a.a.a.a.a.a.a.a.a.a.a.a.a.a.a.a.",
"a.a.a.a.a.a.a.a.a.a.a.a.a.a.a.a.a.a.a.a.a.a.a.a.a.a.a.a.a.a.a.a.a.a.a.a.a.a.a.a.a.a.a.a.a.a.a.a.a.a.a.a.a.a.a.a.a.a.a.a.a.a.a.a.",
"a.a.a.a.a.a.a.a.a.a.a.a.a.a.a.a.a.a.a.a.a.a.a.a.a.a.a.a.a.a.a.a.a.a.a.a.a.a.a.a.a.a.a.a.a.a.a.a.a.a.a.a.a.a.a.a.a.a.a.a.a.a.a.a.",
"a.a.a.a.a.a.a.a.a.a.a.a.a.a.a.a.a.a.a.a.a.a.a.a.a.a.a.a.a.a.a.a.a.a.a.a.a.a.a.a.a.a.a.a.a.a.a.a.a.a.a.a.a.a.a.a.a.a.a.a.a.a.a.a."
};
