/* XPM */
static char *result[] = {
/* columns rows colors chars-per-pixel */
"64 64 130 2 ",
"   c #0C0E10",
".  c #141414",
"X  c #121619",
"o  c #161A1E",
"O  c #1B1B1B",
"+  c #191D21",
"@  c #1C2126",
"#  c #1E2529",
"$  c #252525",
"%  c #21272D",
"&  c #25282C",
"*  c #2B2C2D",
"=  c #262D33",
"-  c #282F36",
";  c #2A3035",
":  c #2B333A",
">  c #2E383F",
",  c #333333",
"<  c #36393C",
"1  c #3E3E3E",
"2  c #645339",
"3  c #2F3941",
"4  c #333D44",
"5  c #3E3C43",
"6  c #3E4246",
"7  c #354048",
"8  c #39454D",
"9  c #3D4A53",
"0  c #454545",
"q  c #44494E",
"w  c gray29",
"e  c #404E57",
"r  c #414F58",
"t  c #465057",
"y  c #4F5153",
"u  c #45535D",
"i  c #48545D",
"p  c #535353",
"a  c #51575C",
"s  c #545A5E",
"d  c gray37",
"f  c #475660",
"g  c #495761",
"h  c #4B5A64",
"j  c #4F5E69",
"k  c #525D65",
"l  c #5B5D61",
"z  c #515F69",
"x  c #5E6164",
"c  c #54636D",
"v  c #576671",
"b  c #586772",
"n  c #596873",
"m  c #636363",
"M  c #60656A",
"N  c #64686A",
"B  c #6B6B6B",
"V  c #606E78",
"C  c #65737D",
"Z  c #6D7479",
"A  c #757575",
"S  c #727578",
"D  c #747A7E",
"F  c #7D7E7E",
"G  c #8F3123",
"H  c #A93230",
"J  c #A85A5E",
"K  c #6D7A82",
"L  c #717D86",
"P  c #7F8285",
"I  c #828383",
"U  c #84898D",
"Y  c #8B8B8B",
"T  c #828C94",
"R  c #8D9193",
"E  c #8B949A",
"W  c #939393",
"Q  c #989797",
"!  c #92969A",
"~  c #9C9C9C",
"^  c #A9888B",
"/  c #B49396",
"(  c #B19D9F",
")  c #BF989B",
"_  c #929BA1",
"`  c #B59EA0",
"'  c #9CA0A3",
"]  c #9DA5AA",
"[  c #A4A4A4",
"{  c #A2A7AA",
"}  c #A5AAAD",
"|  c #ABABAB",
" . c #B6A6A8",
".. c #BBA6A8",
"X. c #B4ACAE",
"o. c #A6ADB1",
"O. c #AAAFB3",
"+. c #B6AFB0",
"@. c #B9AFB0",
"#. c #ACB3B6",
"$. c #B3B4B4",
"%. c #B9B3B4",
"&. c #B6B9BB",
"*. c #BBBBBB",
"=. c #C29FA2",
"-. c #C6A2A5",
";. c #C3ACAF",
":. c #DDA2A7",
">. c #DFA4A9",
",. c #C4BDBE",
"<. c #E0ADB2",
"1. c #BDBFC0",
"2. c #DABFC2",
"3. c #BEC1C2",
"4. c #C3C4C4",
"5. c #C5C7C9",
"6. c #C6C9CA",
"7. c #CACCCC",
"8. c #D7C6C8",
"9. c #D0CECE",
"0. c #CDCFD0",
"q. c #CFD1D2",
"w. c #D2D3D3",
"e. c #DCDCDC",
"r. c #E0D6D7",
"t. c #E4E4E4",
"y. c #EBEBEB",
"u. c #F3F3F3",
"i. c #FEFEFE",
"p.  c #2A52A5",
/* pixels */
"p.p.p.p.p.p.p.p.p.p.p.p.p.p.p.p.p.p.p.p.p.p.p.p.p.p.p.p.p.p.p.p.p.p.p.p.p.p.p.p.p.p.p.p.p.p.p.p.p.p.p.p.p.p.p.p.p.p.p.p.p.p.p.p.",
"p.p.p.p.p.p.p.p.p.p.p.p.p.p.p.p.p.p.p.p.p.p.p.p.p.p.p.p.p.p.p.p.p.p.p.p.p.p.p.p.p.p.p.p.p.p.p.p.p.p.p.p.p.p.p.p.p.p.p.p.p.p.p.p.",
"p.p.p.p.p.p.p.p.p.p.p.p.p.p.p.p.p.p.p.p.p.p.p.p.p.p.p.p.p.p.p.p.p.p.p.p.p.p.p.p.p.p.p.p.p.p.p.p.p.p.p.p.p.p.p.p.p.p.p.p.p.p.p.p.",
"p.p.p.p.p.p.p.p.p.p.p.p.p.p.p.p.p.p.p.p.p.p.p.p.p.p.p.p.p.p.p.p.p.p.p.p.p.p.p.p.p.p.p.p.p.p.p.p.p.p.p.p.p.p.p.p.p.p.p.p.p.p.p.p.",
"p.p.p.p.p.p.p.p.p.p.p.p.p.p.p.p.p.p.p.p.p.p.p.p.p.p.p.p.p.p.p.p.p.p.p.p.p.p.p.p.p.p.p.p.p.p.p.p.p.p.p.p.p.p.p.p.p.p.p.p.p.p.p.p.",
"p.p.p.p.p.p.p.p.p.p.p.p.p.p.p.p.p.p.p.p.p.p.p.p.p.p.p.p.p.p.p.p.p.p.p.p.p.p.p.p.p.p.p.p.p.p.p.p.p.p.p.p.p.p.p.p.p.p.p.p.p.p.p.p.",
"p.p.p.p.p.p.p.p.p.p.p.p.p.p.p.p.p.p.p.p.p.p.p.p.p.p.p.p.p.p.p.p.p.p.p.p.p.p.p.p.p.p.p.p.p.p.p.p.p.p.p.p.p.p.p.p.p.p.p.p.p.p.p.p.",
"p.p.p.p.p.p.p.p.p.p.p.p.p.p.p.p.p.p.p.p.p.p.p.p.p.p.p.p.p.p.p.p.p.p.p.p.p.p.p.p.p.p.p.p.p.p.p.p.p.p.p.p.p.p.p.p.p.p.p.p.p.p.p.p.",
"p.p.p.p.p.p.p.p.p.p.p.p.p.p.p.p.p.p.p.p.p.p.p.p.p.p.p.p.p.p.p.p.p.p.p.p.p.p.p.p.p.p.p.p.p.p.p.p.p.p.p.p.p.p.p.p.p.p.p.p.p.p.p.p.",
"p.p.p.p.p.p.p.p.p.p.p.p.p.p.p.p.p.p.p.p.p.p.p.p.p.p.p.p.p.p.p.p.p.p.p.p.p.p.p.p.p.p.p.p.p.p.p.p.p.p.p.p.p.p.p.p.p.p.p.p.p.p.p.p.",
"p.p.p.p.p.p.p.p.p.p.p.p.p.p.p.p.p.p.p.p.p.p.p.p.p.p.p.p.p.p.p.p.p.p.p.p.p.p.p.p.p.p.p.p.p.p.p.p.p.p.p.p.p.p.p.p.p.p.p.p.p.p.p.p.",
"p.p.p.p.p.p.p.p.p.p.p.p.p.p.p.p.p.p.p.p.p.p.p.p.p.p.p.p.p.p.p.p.p.p.p.p.p.p.p.p.p.p.p.p.p.p.p.p.p.p.p.p.p.p.p.p.p.p.p.p.p.p.p.p.",
"p.p.p.p.p.p.p.p.p.p.p.p.p.p.p.p.p.p.p.p.p.p.p.p.p.p.p.p.p.p.p.p.p.p.p.p.p.p.p.p.p.p.p.p.p.p.p.p.p.p.p.p.p.p.p.p.p.p.p.p.p.p.p.p.",
"p.p.p.p.p.p.p.p.p.p.p.p.p.p.p.p.p.p.p.p.p.p.p.p.p.p.p.p.p.p.p.p.: 8 p.p.p.p.p.p.p.p.p.p.p.p.p.p.p.p.p.p.p.p.p.p.p.p.p.p.p.p.p.p.",
"p.p.p.p.p.p.p.p.p.p.p.p.p.p.p.p.p.p.p.p.p.p.p.p.p.p.p.p.p.p.4 f 9 8 p.p.p.p.p.p.p.p.p.p.p.p.p.p.p.p.p.p.p.p.p.p.p.p.p.p.p.p.p.p.",
"p.p.p.p.p.p.p.p.p.p.p.p.p.p.p.p.p.p.p.p.p.p.p.p.p.p.p.p.4 g u 9 9 8 p.p.p.p.p.p.p.p.p.p.p.p.p.p.p.p.p.p.p.p.p.p.p.p.p.p.p.p.p.p.",
"p.p.p.p.p.p.p.p.p.p.p.p.p.p.p.p.p.p.p.p.p.p.p.p.p.p.p.f f 9 9 9 9 8 p.p.p.p.p.p.p.p.p.p.p.p.p.p.p.p.p.p.p.p.p.p.p.p.p.p.& p.p.p.",
"p.p.p.p.p.p.p.p.p.p.p.p.p.p.p.p.p.p.p.p.p.p.p.p.p.- h f 9 9 9 9 9 8 p.p.p.p.p.p.p.p.p.p.p.p.p.p.p.p.p.p.p.p.p.p.p.p.p.X , p.p.p.",
"p.p.p.p.p.p.p.p.p.p.p.p.p.p.p.p.p.p.p.p.p.p.p.p.p.h f 9 9 9 9 9 9 7 p.p.p.p.p.p.p.p.p.p.p.p.p.p.p.p.p.p.p.p.p.p.p.p.p.# p.p.p.p.",
"p.p.p.p.p.p.p.p.p.p.p.p.p.p.p.p.p.p.p.p.p.p.p.p.h f 9 9 9 9 9 9 9 3 p.p.p.p.p.p.p.p.p.p.p.p.p.p.p.p.p.p.p.p.p.p.p.p.# & p.p.p.p.",
"p.p.p.p.p.p.p.p.p.p.p.p.p.p.p.p.p.p.p.p.p.p.p.g f 9 9 9 9 9 9 9 9 9 p.p.p.p.p.p.p.p.p.p.p.p.p.p.p.p.p.p.p.p.p.p.p.p.# 6 p.p.p.p.",
"p.p.p.p.p.p.p.p.p.p.p.p.p.p.p.p.p.p.p.p.p.p.p.g u 9 9 9 9 9 9 9 9 9 # p.p.p.p.p.p.p.p.p.p.p.p.p.p.p.p.p.p.p.p.p.p.p.+ y p.p.p.p.",
"p.p.p.p.p.p.p.p.p.p.p.p.p.p.p.p.p.p.p.p.p.p.j f 9 9 9 9 9 9 9 9 9 9 8 p.p.p.p.p.p.p.p.p.p.p.p.p.p.p.p.p.p.p.p.p.p.o + y p.p.p.p.",
"p.p.p.p.p.p.p.p.p.p.p.p.p.p.p.p.p.p.p.p.p.t n j h h g h j h h 9 9 9 9 8 p.p.p.p.p.p.p.p.p.p.p.p.p.p.p.p.p.p.p.p.p.o + p p.p.p.p.",
"p.p.p.p.p.p.p.p.p.p.p.p.p.p.p.p.= 9 h j g f f u u f f f f f f h h j j c i - p.p.p.p.p.p.p.p.p.p.p.p.p.p.p.p.p.p.p.o o m p.p.p.p.",
"p.p.p.p.p.p.p.p.p.p.p.p.: f f r 9 9 9 9 9 9 9 9 9 9 9 9 9 9 9 9 9 9 9 9 9 9 9 u 9 9 9 3 # p.p.p.p.p.p.p.p.p.p.p.p.+ + p p.p.p.p.",
"p.p.p.p.p.p.p.p.p.7 g u 9 9 9 9 9 9 9 9 9 9 9 9 9 9 9 9 9 9 9 9 9 9 9 9 9 9 9 9 9 9 9 9 9 9 9 4 p.p.p.p.p.p.p.p.p.@ + p p.p.p.p.",
"p.p.p.p.p.p.4 i i 9 9 9 9 9 9 9 9 9 9 9 9 9 9 9 9 9 9 9 9 9 9 9 9 9 9 9 9 9 9 9 9 9 9 9 9 9 9 8 7 4 = p.p.p.p.p.p.+ ; p p.p.p.p.",
"p.p.p.h i 9 9 9 9 9 9 9 9 8 9 9 9 u f g r 9 9 9 9 9 9 9 9 9 9 9 9 9 9 9 9 9 9 9 9 9 9 9 9 9 9 8 7 7 7 7 = p.p.p.p.o < d p.p.p.p.",
"p.p.4 v e 9 9 9 9 9 9 9 9 8 4 G t K _ _ V z g 9 9 9 9 9 9 9 9 9 9 9 9 9 9 9 9 9 9 9 9 9 9 9 9 8 7 7 7 4 ; = ; @   o < w p.p.p.p.",
"p.p.p.z e 9 e r 9 u u h j 2 H J 6.q.q.w.q.o.T c 9 9 9 9 9 9 9 9 9 9 9 9 9 9 9 9 9 9 9 9 9 9 9 8 4 7 7 7 4 = = = = o 6 1 p.p.p.p.",
"p.p.p.z c h z c b K P _ 1.3.&.7.q.q.q.q.q.q.q.K v f 9 9 9 9 9 9 9 9 9 9 9 9 9 9 9 9 9 9 9 9 9 8 7 7 7 7 4 = = = % = q p.p.p.p.p.",
"p.p.p.p.] ] 3.5.7.q.w.9.q.q.q.4.%.;. .4.*.q.q.7.] c u 9 9 9 9 9 9 9 9 9 9 9 9 9 9 9 9 9 9 9 9 8 4 7 7 7 4 = = = - : x p.p.p.p.p.",
"p.p.p.p.p.4.w.q.w.0.7.%...-.` ` >.<.y.y.{ ~ q.q.7.k 7 3 9 9 9 9 9 9 9 9 9 9 9 9 9 9 9 9 9 9 9 8 7 7 4 7 3 = = 4 3 : I p.p.p.p.p.",
"p.p.p.p.p.p.W e.q.3.X.=.:.e.i.e.Q 9.i.t.[ *.q.q.q.D 7 7 9 9 9 9 9 9 9 9 9 9 9 9 9 9 9 9 9 9 9 7 7 7 7 7 3 : 4 4 5 l Y p.p.p.p.p.",
"p.p.p.p.p.p.p.A 4.i.t.| [ i.i.e.| 7.i.t.*.| q.q.q.Y g 9 8 9 9 9 9 9 9 9 9 9 9 9 9 9 9 9 9 9 9 9 8 9 9 9 4 4 8 q S Y Y p.p.p.p.p.",
"p.p.p.p.p.p.p.p.~ u.t.W y.$.i.t.4.*.i.$.i.#.q.q.q.1.v 4 > 9 9 9 9 9 9 9 9 9 9 9 9 u 9 9 9 f i u 9 9 i i 6 8 M [ [ Y Y p.p.p.p.p.",
"p.p.p.p.p.p.p.p.p.%.u.$.i.5.*.y.4.t.5.w.i.5.q.q.q.6.v f 9 9 9 9 9 9 9 9 9 9 f f h h j f h c v h g h z Z I ~ | | [ Y Y p.p.p.p.p.",
"p.p.p.p.p.p.p.p.p.I e.$.i.t.$.*.e.y.*.$.&.3.q.q.q.#.v i u 9 9 9 9 9 9 9 8 u j v v v b c n K T R _ _ 4.%.| | | | _ Y I p.p.p.p.p.",
"p.p.p.p.p.p.p.p.p.p.| u.i.i.*.^ <.8./ ) 2.q.6.q.q.q.6.O.i 9 9 9 9 9 9 9 9 u U o.o.1.&.L O.0.w.4.4.4.4.$.O.| [ W B B B p.p.p.p.p.",
"p.p.p.p.p.p.p.p.p.p.$.$.$.} X.X.&.#.3.q.q.7.7.q.w.q.q.0.D u 9 9 9 9 9 9 9 f { q.q.q.q.3.7.w.q.4.4.4.,.~ Y B w p.. , 0 p.p.p.p.p.",
"p.p.p.p.p.p.p.p.p.p.W 4.$.&.q.q.q.q.q.q.7.7.q.q.q.q.q.q.&.i r 9 9 9 9 9 9 i U q.q.q.q.q.q.w.7.$.| ~ A 1 p.p.p.p.p., , p.p.p.p.p.",
"p.p.p.p.p.p.p.p.p.p.p.[ 7.q.q.q.q.q.q.q.q.q.q.q.q.q.q.w.q.U u 9 9 9 9 9 9 f F 7.0.q.7.4.4.&.Q A 1 p.p.p.p.p.p.p.p.$ , p.p.p.p.p.",
"p.p.p.p.p.p.p.p.p.p.p.p.Y 3.4.7.0.q.q.q.q.0.q.q.q.w.7.9.7.3.u r 9 9 9 9 9 i a O.$.| { W m 1 p.p.p.p.p.p.p.p.p.p.p.O , . p.p.p.p.",
"p.p.p.p.p.p.p.p.p.p.p.p.p.p.p.p.p.w s m I F I R Q | | [ { } F i 9 9 9 9 9 i u m 1 p.p.p.p.p.p.p.p.p.p.p.p.p.p.p.p.p., O p.p.p.p.",
"p.p.p.p.p.p.p.p.p.p.p.p.p.p.p.p.p.p.p.p.p.p.p.p.p.p.y F A A A s f 9 9 9 9 9 f p.p.p.p.p.p.p.p.p.p.p.p.p.p.p.p.p.p.p.p.$ p.p.p.p.",
"p.p.p.p.p.p.p.p.p.p.p.p.p.p.p.p.p.p.p.p.p.p.p.p.p.p.p.m Y I F F x u r 9 9 9 f 7 p.p.p.p.p.p.p.p.p.p.p.p.p.p.p.p.p.p.p.p.p.p.p.p.",
"p.p.p.p.p.p.p.p.p.p.p.p.p.p.p.p.p.p.p.p.p.p.p.p.p.p.p.p.p.I Y I L B t i 9 9 9 u p.p.p.p.p.p.p.p.p.p.p.p.p.p.p.p.p.p.p.p.p.p.p.p.",
"p.p.p.p.p.p.p.p.p.p.p.p.p.p.p.p.p.p.p.p.p.p.p.p.p.p.p.p.p.p.1 F Y I S s 9 i 9 9 9 p.p.p.p.p.p.p.p.p.p.p.p.p.p.p.p.p.p.p.p.p.p.p.",
"p.p.p.p.p.p.p.p.p.p.p.p.p.p.p.p.p.p.p.p.p.p.p.p.p.p.p.p.p.p.p.p.p.m Y Y p.p.4 i i 7 p.p.p.p.p.p.p.p.p.p.p.p.p.p.p.p.p.p.p.p.p.p.",
"p.p.p.p.p.p.p.p.p.p.p.p.p.p.p.p.p.p.p.p.p.p.p.p.p.p.p.p.p.p.p.p.p.p.p.p.m p.p.p.# 4 : p.p.p.p.p.p.p.p.p.p.p.p.p.p.p.p.p.p.p.p.p.",
"p.p.p.p.p.p.p.p.p.p.p.p.p.p.p.p.p.p.p.p.p.p.p.p.p.p.p.p.p.p.p.p.p.p.p.p.p.p.p.p.p.p.p.p.p.p.p.p.p.p.p.p.p.p.p.p.p.p.p.p.p.p.p.p.",
"p.p.p.p.p.p.p.p.p.p.p.p.p.p.p.p.p.p.p.p.p.p.p.p.p.p.p.p.p.p.p.p.p.p.p.p.p.p.p.p.p.p.p.p.p.p.p.p.p.p.p.p.p.p.p.p.p.p.p.p.p.p.p.p.",
"p.p.p.p.p.p.p.p.p.p.p.p.p.p.p.p.p.p.p.p.p.p.p.p.p.p.p.p.p.p.p.p.p.p.p.p.p.p.p.p.p.p.p.p.p.p.p.p.p.p.p.p.p.p.p.p.p.p.p.p.p.p.p.p.",
"p.p.p.p.p.p.p.p.p.p.p.p.p.p.p.p.p.p.p.p.p.p.p.p.p.p.p.p.p.p.p.p.p.p.p.p.p.p.p.p.p.p.p.p.p.p.p.p.p.p.p.p.p.p.p.p.p.p.p.p.p.p.p.p.",
"p.p.p.p.p.p.p.p.p.p.p.p.p.p.p.p.p.p.p.p.p.p.p.p.p.p.p.p.p.p.p.p.p.p.p.p.p.p.p.p.p.p.p.p.p.p.p.p.p.p.p.p.p.p.p.p.p.p.p.p.p.p.p.p.",
"p.p.p.p.p.p.p.p.p.p.p.p.p.p.p.p.p.p.p.p.p.p.p.p.p.p.p.p.p.p.p.p.p.p.p.p.p.p.p.p.p.p.p.p.p.p.p.p.p.p.p.p.p.p.p.p.p.p.p.p.p.p.p.p.",
"p.p.p.p.p.p.p.p.p.p.p.p.p.p.p.p.p.p.p.p.p.p.p.p.p.p.p.p.p.p.p.p.p.p.p.p.p.p.p.p.p.p.p.p.p.p.p.p.p.p.p.p.p.p.p.p.p.p.p.p.p.p.p.p.",
"p.p.p.p.p.p.p.p.p.p.p.p.p.p.p.p.p.p.p.p.p.p.p.p.p.p.p.p.p.p.p.p.p.p.p.p.p.p.p.p.p.p.p.p.p.p.p.p.p.p.p.p.p.p.p.p.p.p.p.p.p.p.p.p.",
"p.p.p.p.p.p.p.p.p.p.p.p.p.p.p.p.p.p.p.p.p.p.p.p.p.p.p.p.p.p.p.p.p.p.p.p.p.p.p.p.p.p.p.p.p.p.p.p.p.p.p.p.p.p.p.p.p.p.p.p.p.p.p.p.",
"p.p.p.p.p.p.p.p.p.p.p.p.p.p.p.p.p.p.p.p.p.p.p.p.p.p.p.p.p.p.p.p.p.p.p.p.p.p.p.p.p.p.p.p.p.p.p.p.p.p.p.p.p.p.p.p.p.p.p.p.p.p.p.p.",
"p.p.p.p.p.p.p.p.p.p.p.p.p.p.p.p.p.p.p.p.p.p.p.p.p.p.p.p.p.p.p.p.p.p.p.p.p.p.p.p.p.p.p.p.p.p.p.p.p.p.p.p.p.p.p.p.p.p.p.p.p.p.p.p.",
"p.p.p.p.p.p.p.p.p.p.p.p.p.p.p.p.p.p.p.p.p.p.p.p.p.p.p.p.p.p.p.p.p.p.p.p.p.p.p.p.p.p.p.p.p.p.p.p.p.p.p.p.p.p.p.p.p.p.p.p.p.p.p.p.",
"p.p.p.p.p.p.p.p.p.p.p.p.p.p.p.p.p.p.p.p.p.p.p.p.p.p.p.p.p.p.p.p.p.p.p.p.p.p.p.p.p.p.p.p.p.p.p.p.p.p.p.p.p.p.p.p.p.p.p.p.p.p.p.p."
};
