/* XPM */
static char *result[] = {
/* columns rows colors chars-per-pixel */
"64 64 113 2 ",
"   c #2D363D",
".  c #743932",
"X  c #614732",
"o  c #2F3940",
"O  c #333D45",
"+  c #443E45",
"@  c #364149",
"#  c #3A454D",
"$  c #3C484F",
"%  c #3B4750",
"&  c #3D4A53",
"*  c #43494E",
"=  c #4B4B4B",
"-  c #414D56",
";  c #414F58",
":  c #44525C",
">  c #4B565D",
",  c #4E585C",
"<  c #555555",
"1  c #5D5D5D",
"2  c #475660",
"3  c #485761",
"4  c #4C5A64",
"5  c #4F5E69",
"6  c #515A61",
"7  c #505F6A",
"8  c #556067",
"9  c #53626D",
"0  c #5C656B",
"q  c #576671",
"w  c #586772",
"e  c #5C6A75",
"r  c #646464",
"t  c #61666A",
"y  c #6D6D6D",
"u  c #646D74",
"i  c #6E6F70",
"p  c #606E78",
"a  c #687075",
"s  c #65727B",
"d  c #6B777F",
"f  c #747474",
"g  c #767778",
"h  c #777879",
"j  c #7B7C7C",
"k  c #B42426",
"l  c #A46862",
"z  c #6A7680",
"x  c #6F7B84",
"c  c #707C84",
"v  c #7F7F80",
"b  c #7C8286",
"n  c #758189",
"m  c #7B868E",
"M  c #838383",
"N  c #82878B",
"B  c #858B8F",
"V  c #8B8C8D",
"C  c #848C92",
"Z  c #8A8E92",
"A  c #869097",
"S  c #8B949A",
"D  c #949494",
"F  c #9A9A9A",
"G  c #AB9C9D",
"H  c #B8989B",
"J  c #959EA3",
"K  c #9B9EA0",
"L  c #BA9FA2",
"P  c #9CA1A3",
"I  c #9CA3A8",
"U  c #A2A3A4",
"Y  c #ABA2A3",
"T  c #A4A9AD",
"R  c #ABACAC",
"E  c #BCA2A5",
"W  c #BDA6A8",
"Q  c #B1AAAB",
"!  c #ADAFB0",
"~  c #AEB2B4",
"^  c #B4B5B5",
"/  c #BEB4B6",
"(  c #B4B6B8",
")  c #B6B8B9",
"_  c #BBBCBC",
"`  c #C0A2A5",
"'  c #CDA2A7",
"]  c #C5A7AA",
"[  c #C2AFB1",
"{  c #C4BCBD",
"}  c #CFB8BA",
"|  c #BABEC0",
" . c #BFC2C4",
".. c #C3C3C4",
"X. c #CAC2C3",
"o. c #C4C7C9",
"O. c #C8C6C8",
"+. c #C6C9CA",
"@. c #CBCCCD",
"#. c #D1C3C4",
"$. c #D0CDCD",
"%. c #CDCFD0",
"&. c #CFD1D2",
"*. c #D3D3D3",
"=. c #D8D7D7",
"-. c #DBDBDB",
";. c #E1DDDE",
":. c #EBDFE0",
">. c #E3E3E3",
",. c #EDEDED",
"<. c #F4F4F4",
"1. c #FBFBFB",
"2.  c #2A52A5",
/* pixels */
"2.2.2.2.2.2.2.2.2.2.2.2.2.2.2.2.2.2.2.2.2.2.2.2.2.2.2.2.2.2.2.2.2.2.2.2.2.2.2.2.2.2.2.2.2.2.2.2.2.2.2.2.2.2.2.2.2.2.2.2.2.2.2.2.",
"2.2.2.2.2.2.2.2.2.2.2.2.2.2.2.2.2.2.2.2.2.2.2.2.2.2.2.2.2.2.2.2.2.2.2.2.2.2.2.2.2.2.2.2.2.2.2.2.2.2.2.2.2.2.2.2.2.2.2.2.2.2.2.2.",
"2.2.2.2.2.2.2.2.2.2.2.2.2.2.2.2.2.2.2.2.2.2.2.2.2.2.2.2.2.2.2.2.2.2.2.2.2.2.2.2.2.2.2.2.2.2.2.2.2.2.2.2.2.2.2.2.2.2.2.2.2.2.2.2.",
"2.2.2.2.2.2.2.2.2.2.2.2.2.2.2.2.2.2.2.2.2.2.2.2.2.2.2.2.2.2.2.2.2.2.2.2.2.2.2.2.2.2.2.2.2.2.2.2.2.2.2.2.2.2.2.2.2.2.2.2.2.2.2.2.",
"2.2.2.2.2.2.2.2.2.2.2.2.2.2.2.2.2.2.2.2.2.2.2.2.2.2.2.2.2.2.2.2.2.2.2.2.2.2.2.2.2.2.2.2.2.2.2.2.2.2.2.2.2.2.2.2.2.2.2.2.2.2.2.2.",
"2.2.2.2.2.2.2.2.2.2.2.2.2.2.2.2.2.2.2.2.2.2.2.2.2.2.2.2.2.2.2.2.2.2.2.2.2.2.2.2.2.2.2.2.2.2.2.2.2.2.2.2.2.2.2.2.2.2.2.2.2.2.2.2.",
"2.2.2.2.2.2.2.2.2.2.2.2.2.2.2.2.2.2.2.2.2.2.2.2.2.2.2.2.2.2.2.2.2.2.2.2.2.2.2.2.2.2.2.2.2.2.2.2.2.2.2.2.2.2.2.2.2.2.2.2.2.2.2.2.",
"2.2.2.2.2.2.2.2.2.2.2.2.2.2.2.2.2.2.2.2.2.2.2.2.2.2.2.2.2.2.2.2.2.2.2.2.2.2.2.2.2.2.2.2.2.2.2.2.2.2.2.2.2.2.2.2.2.2.2.2.2.2.2.2.",
"2.2.2.2.2.2.2.2.2.2.2.2.2.2.2.2.2.2.2.2.2.2.2.2.2.2.2.2.2.2.2.2.2.2.2.2.2.2.2.2.2.2.2.2.2.2.2.2.2.2.2.2.2.2.2.2.2.2.2.2.2.2.2.2.",
"2.2.2.2.2.2.2.2.2.2.2.2.2.2.2.2.2.2.2.2.2.2.2.2.2.2.2.2.2.2.2.2.2.2.2.2.2.2.2.2.2.2.2.2.2.2.2.2.2.2.2.2.2.2.2.2.2.2.2.2.2.2.2.2.",
"2.2.2.2.2.2.2.2.2.2.2.2.2.2.2.2.2.2.2.2.2.2.2.2.2.2.2.2.2.2.2.2.2.2.2.2.2.2.2.2.2.2.2.2.2.2.2.2.2.2.2.2.2.2.2.2.2.2.2.2.2.2.2.2.",
"2.2.2.2.2.2.2.2.2.2.2.2.2.2.2.2.2.2.2.2.2.2.2.2.2.2.2.2.2.2.2.2.2.2.2.2.2.2.2.2.2.2.2.2.2.2.2.2.2.2.2.2.2.2.2.2.2.2.2.2.2.2.2.2.",
"2.2.2.2.2.2.2.2.2.2.2.2.2.2.2.2.2.2.2.2.2.2.2.2.2.2.2.2.2.2.2.2.2.2.2.2.2.2.2.2.2.2.2.2.2.2.2.2.2.2.2.2.2.2.2.2.2.2.2.2.2.2.2.2.",
"2.2.2.2.2.2.2.2.2.2.2.2.2.2.2.2.2.2.2.2.2.2.2.2.2.2.2.2.2.2.2.2.2.2.2.2.2.2.2.2.2.2.2.2.2.2.2.2.2.2.2.2.2.2.2.2.2.2.2.2.2.2.2.2.",
"2.2.2.2.2.2.2.2.2.2.2.2.2.2.2.2.2.2.2.2.2.2.2.2.2.2.2.2.2.2.2.2.2.2.2.2.2.2.2.2.2.2.2.2.2.2.2.2.2.2.2.2.2.2.2.2.2.2.2.2.2.2.2.2.",
"2.2.2.2.2.2.2.2.2.2.2.2.2.2.2.2.2.2.2.2.2.2.2.2.2.2.2.2.@ % 2.2.2.2.2.2.2.2.2.2.2.2.2.2.2.2.2.2.2.2.2.2.2.2.2.2.2.2.2.2.2.2.2.2.",
"2.2.2.2.2.2.2.2.2.2.2.2.2.2.2.2.2.2.2.2.2.2.2.2.2.2.$ : ; # 2.2.2.2.2.2.2.2.2.2.2.2.2.2.2.2.2.2.2.2.2.2.2.2.2.2.2.2.2.2.2.2.2.2.",
"2.2.2.2.2.2.2.2.2.2.2.2.2.2.2.2.2.2.2.2.2.2.2.2.2.: : & & # 2.2.2.2.2.2.2.2.2.2.2.2.2.2.2.2.2.2.2.2.2.2.2.2.2.2.2.2.2.2.2.* 2.2.",
"2.2.2.2.2.2.2.2.2.2.2.2.2.2.2.2.2.2.2.2.2.2.2.; 2 : & & & # 2.2.2.2.2.2.2.2.2.2.2.2.2.2.2.2.2.2.2.2.2.2.2.2.2.2.2.2.2.2.# V 2.2.",
"2.2.2.2.2.2.2.2.2.2.2.2.2.2.2.2.2.2.2.2.2.2.: 3 ; & & & & # 2.2.2.2.2.2.2.2.2.2.2.2.2.2.2.2.2.2.2.2.2.2.2.2.2.2.2.2.  # b U 2.2.",
"2.2.2.2.2.2.2.2.2.2.2.2.2.2.2.2.2.2.2.2.2.- 3 ; & & & & % O 2.2.2.2.2.2.2.2.2.2.2.2.2.2.2.2.2.2.2.2.2.2.2.2.2.2.2.O @ 0 _ D 2.2.",
"2.2.2.2.2.2.2.2.2.2.2.2.2.2.2.2.2.2.2.2.2.4 : & & & & & & % 2.2.2.2.2.2.2.2.2.2.2.2.2.2.2.2.2.2.2.2.2.2.2.2.2.2.@ @ $ U ..2.2.2.",
"2.2.2.2.2.2.2.2.2.2.2.2.2.2.2.2.2.2.2.2.: 2 & & & & & & & & O 2.2.2.2.2.2.2.2.2.2.2.2.2.2.2.2.2.2.2.2.2.2.2.2.O # O 0 ..) 2.2.2.",
"2.2.2.2.2.2.2.2.2.2.2.2.2.2.2.2.2.2.2.2.3 : & - & & & & & & # 2.2.2.2.2.2.2.2.2.2.2.2.2.2.2.2.2.2.2.2.2.2.2.2.@ O # K ..R 2.2.2.",
"2.2.2.2.2.2.2.2.2.2.2.2.2.2.2.2.2.& - 7 9 5 4 4 4 4 4 4 3 3 : : O 2.2.2.2.2.2.2.2.2.2.2.2.2.2.2.2.2.2.2.2.2.O @ @ 6 _ ..F 2.2.2.",
"2.2.2.2.2.2.2.2.2.2.2.2.% ; ; : : : - - ; & & : ; ; ; ; : : : 2 3 ; & # @ O 2.2.2.2.2.2.2.2.2.2.2.2.2.2.2.2.O @ @ Z .. .2.2.2.2.",
"2.2.2.2.2.2.2.2.2.- : ; & & & & & & & & & & & & & & & & & & & & & & & & & & & & & @ 2.2.2.2.2.2.2.2.2.2.2.2.@ O , _ ..{ 2.2.2.2.",
"2.2.2.2.2.% : : - & & & & & & & & & & & & & & & & & & & & & & & & & & & & & & & & & & & # 2.2.2.2.2.2.2.2.O @ @ N ....) 2.2.2.2.",
"2.O ; : : & & % & & % % % & & : : : - & & & & & & & & % & & & & & & & & & & & & & & & & & % & @ 2.2.2.2.2.O O - R ....R 2.2.2.2.",
"$ & & % & & & & & % & + X , q s n c w 4 ; & & & & & & & & & & & & & & & & & & & & & & & & & & & & & @ 2.2.O @ a ......D 2.2.2.2.",
"# % & & & & : : : > . k l ( +.&.*.%.o.J p 2 ; & & & & & & & & & & & & & & & & & & & & & & & & & & & & & & @ # B .... .2.2.2.2.2.",
"2.8 9 9 e s s x S ( ( ..&.&.&.&.%.*.&.%.T s 5 ; & & & & & & & & & & & & & & & & & & & & & & & & & & & & # # , T ....{ 2.2.2.2.2.",
"2.2.P _  .+.@.&.%.&.@.{ { [ ] ` _ _ ) @.%.| s : % & & & & & & & & & & & & & & & & & & & & & & & & & & & - : B ......_ 2.2.2.2.2.",
"2.2.2.^ &.*.&...Q ` ' } X.` ' ;.1.*.F ..&.@.b - O & % & & & & & & & & & & & & & & & & & & & & & & & & 2 5 u ) ......_ 2.2.2.2.2.",
"2.2.2.2.2.) @.>.$.G #.1.,.) R <.1.....( &.&.F > O # & & & & & & & & & & & & & & & & % & & & : : : 2 9 w x ! ......O.^ 2.2.2.2.2.",
"2.2.2.2.2.2.) 1.;.R O.<.<.) @.=.<._ >.! &.&.( 8 @ @ & & & & & & & & & & % & % & : & : 2 2 3 5 7 9 9 z I ............! 2.2.2.2.2.",
"2.2.2.2.2.2.2.;.>._ ,.{ <._ ,.X.>.*.,.) &.&.o.x : % & & & & & & & & : : : 2 : 2 5 5 7 9 5 w e c S I @.&.@........._ 2.2.2.2.2.2.",
"2.2.2.2.2.2.2.2.-.=.1.*._ @.<.@.) ;.O.@.&.&.| d 5 & & & & & & & & : 5 9 e w 9 9 e s n A m ( +.&.&.&.&.&.@.........^ 2.2.2.2.2.2.",
"2.2.2.2.2.2.2.2.2.-.<.=.Y L #./ H E O.@.@.&.%.| C : & & & & & & & 4 C P I T S m | %.%.&.%.&.&.&.&.@.o._ T R _ { ....U 2.2.2.2.2.",
"2.2.2.2.2.2.2.2.2.o.+._ / { ..{ ..@.@.@.%.&.&.&. .0 & & & & & & & e  .&.&.&.%.%.&.&.&.&.&.+..._ T F b 2.2.M F U R R D 2.2.2.2.2.",
"2.2.2.2.2.2.2.2.2.! @.&.&.&.*.&.*.@.@.%.%.&.&.&.%.S : & & & & & : w | *.&.*.&.&.%.@..._ R F M 2.2.2.2.2.2.< h V F F D 2.2.2.2.2.",
"2.2.2.2.2.2.2.2.2.2._ &.&.&.&.&.&.*.&.*.&.&.&.&.%...0 ; & & & & & 9 ! @.@.+...) R F v f 2.2.2.2.2.2.2.2.2.2.1 y h M f 2.2.2.2.2.",
"2.2.2.2.2.2.2.2.2.2.2.M P R R ^ ......o.o.+.........C > & & & & & > V R F V f r 2.2.2.2.2.2.2.2.2.2.2.2.2.2.2.< y i i < 2.2.2.2.",
"2.2.2.2.2.2.2.2.2.2.2.2.2.2.2.2.2.2.2.2.2.2.= < j M j , : & & & & : * 2.2.2.2.2.2.2.2.2.2.2.2.2.2.2.2.2.2.2.2.2.2.1 y y 2.2.2.2.",
"2.2.2.2.2.2.2.2.2.2.2.2.2.2.2.2.2.2.2.2.2.2.2.2.2.M M h 6 ; & & & : $ 2.2.2.2.2.2.2.2.2.2.2.2.2.2.2.2.2.2.2.2.2.2.2.2.2.2.2.2.2.",
"2.2.2.2.2.2.2.2.2.2.2.2.2.2.2.2.2.2.2.2.2.2.2.2.2.2.M M h 6 : & & & : 2.2.2.2.2.2.2.2.2.2.2.2.2.2.2.2.2.2.2.2.2.2.2.2.2.2.2.2.2.",
"2.2.2.2.2.2.2.2.2.2.2.2.2.2.2.2.2.2.2.2.2.2.2.2.2.2.2.f M j 0 > : & & & 2.2.2.2.2.2.2.2.2.2.2.2.2.2.2.2.2.2.2.2.2.2.2.2.2.2.2.2.",
"2.2.2.2.2.2.2.2.2.2.2.2.2.2.2.2.2.2.2.2.2.2.2.2.2.2.2.2.2.y j j 0 > : : # 2.2.2.2.2.2.2.2.2.2.2.2.2.2.2.2.2.2.2.2.2.2.2.2.2.2.2.",
"2.2.2.2.2.2.2.2.2.2.2.2.2.2.2.2.2.2.2.2.2.2.2.2.2.2.2.2.2.2.2.2.y f * O & 2.2.2.2.2.2.2.2.2.2.2.2.2.2.2.2.2.2.2.2.2.2.2.2.2.2.2.",
"2.2.2.2.2.2.2.2.2.2.2.2.2.2.2.2.2.2.2.2.2.2.2.2.2.2.2.2.2.2.2.2.2.2.2.2.2.2.2.2.2.2.2.2.2.2.2.2.2.2.2.2.2.2.2.2.2.2.2.2.2.2.2.2.",
"2.2.2.2.2.2.2.2.2.2.2.2.2.2.2.2.2.2.2.2.2.2.2.2.2.2.2.2.2.2.2.2.2.2.2.2.2.2.2.2.2.2.2.2.2.2.2.2.2.2.2.2.2.2.2.2.2.2.2.2.2.2.2.2.",
"2.2.2.2.2.2.2.2.2.2.2.2.2.2.2.2.2.2.2.2.2.2.2.2.2.2.2.2.2.2.2.2.2.2.2.2.2.2.2.2.2.2.2.2.2.2.2.2.2.2.2.2.2.2.2.2.2.2.2.2.2.2.2.2.",
"2.2.2.2.2.2.2.2.2.2.2.2.2.2.2.2.2.2.2.2.2.2.2.2.2.2.2.2.2.2.2.2.2.2.2.2.2.2.2.2.2.2.2.2.2.2.2.2.2.2.2.2.2.2.2.2.2.2.2.2.2.2.2.2.",
"2.2.2.2.2.2.2.2.2.2.2.2.2.2.2.2.2.2.2.2.2.2.2.2.2.2.2.2.2.2.2.2.2.2.2.2.2.2.2.2.2.2.2.2.2.2.2.2.2.2.2.2.2.2.2.2.2.2.2.2.2.2.2.2.",
"2.2.2.2.2.2.2.2.2.2.2.2.2.2.2.2.2.2.2.2.2.2.2.2.2.2.2.2.2.2.2.2.2.2.2.2.2.2.2.2.2.2.2.2.2.2.2.2.2.2.2.2.2.2.2.2.2.2.2.2.2.2.2.2.",
"2.2.2.2.2.2.2.2.2.2.2.2.2.2.2.2.2.2.2.2.2.2.2.2.2.2.2.2.2.2.2.2.2.2.2.2.2.2.2.2.2.2.2.2.2.2.2.2.2.2.2.2.2.2.2.2.2.2.2.2.2.2.2.2.",
"2.2.2.2.2.2.2.2.2.2.2.2.2.2.2.2.2.2.2.2.2.2.2.2.2.2.2.2.2.2.2.2.2.2.2.2.2.2.2.2.2.2.2.2.2.2.2.2.2.2.2.2.2.2.2.2.2.2.2.2.2.2.2.2.",
"2.2.2.2.2.2.2.2.2.2.2.2.2.2.2.2.2.2.2.2.2.2.2.2.2.2.2.2.2.2.2.2.2.2.2.2.2.2.2.2.2.2.2.2.2.2.2.2.2.2.2.2.2.2.2.2.2.2.2.2.2.2.2.2.",
"2.2.2.2.2.2.2.2.2.2.2.2.2.2.2.2.2.2.2.2.2.2.2.2.2.2.2.2.2.2.2.2.2.2.2.2.2.2.2.2.2.2.2.2.2.2.2.2.2.2.2.2.2.2.2.2.2.2.2.2.2.2.2.2.",
"2.2.2.2.2.2.2.2.2.2.2.2.2.2.2.2.2.2.2.2.2.2.2.2.2.2.2.2.2.2.2.2.2.2.2.2.2.2.2.2.2.2.2.2.2.2.2.2.2.2.2.2.2.2.2.2.2.2.2.2.2.2.2.2.",
"2.2.2.2.2.2.2.2.2.2.2.2.2.2.2.2.2.2.2.2.2.2.2.2.2.2.2.2.2.2.2.2.2.2.2.2.2.2.2.2.2.2.2.2.2.2.2.2.2.2.2.2.2.2.2.2.2.2.2.2.2.2.2.2.",
"2.2.2.2.2.2.2.2.2.2.2.2.2.2.2.2.2.2.2.2.2.2.2.2.2.2.2.2.2.2.2.2.2.2.2.2.2.2.2.2.2.2.2.2.2.2.2.2.2.2.2.2.2.2.2.2.2.2.2.2.2.2.2.2.",
"2.2.2.2.2.2.2.2.2.2.2.2.2.2.2.2.2.2.2.2.2.2.2.2.2.2.2.2.2.2.2.2.2.2.2.2.2.2.2.2.2.2.2.2.2.2.2.2.2.2.2.2.2.2.2.2.2.2.2.2.2.2.2.2.",
"2.2.2.2.2.2.2.2.2.2.2.2.2.2.2.2.2.2.2.2.2.2.2.2.2.2.2.2.2.2.2.2.2.2.2.2.2.2.2.2.2.2.2.2.2.2.2.2.2.2.2.2.2.2.2.2.2.2.2.2.2.2.2.2."
};
