/* XPM */
static char *result[] = {
/* columns rows colors chars-per-pixel */
"64 64 105 2 ",
"   c #2C353C",
".  c #5B4037",
"X  c #2F3941",
"o  c #323C44",
"O  c #354047",
"+  c #37434B",
"@  c #39454D",
"#  c #3B4750",
"$  c #3D4A53",
"%  c #40434B",
"&  c #5F4B47",
"*  c #51524C",
"=  c #414D56",
"-  c #414F58",
";  c #44525C",
":  c #49565F",
">  c #475660",
",  c #495761",
"<  c #4B5A64",
"1  c #535C62",
"2  c #585F63",
"3  c #505F6A",
"4  c #53626D",
"5  c #5C676E",
"6  c #5D686F",
"7  c #576670",
"8  c #586772",
"9  c #5B6974",
"0  c #646464",
"q  c #6F6F6F",
"w  c #626C72",
"e  c #616F79",
"r  c #6E7172",
"t  c #64727B",
"y  c #69737B",
"u  c #6E787E",
"i  c #727373",
"p  c #73787C",
"a  c #7B7B7B",
"s  c #A52829",
"d  c #AF4C49",
"f  c #6A7780",
"g  c #6D7982",
"h  c #737E86",
"j  c #77828A",
"k  c #7B848B",
"l  c #838383",
"z  c #828689",
"x  c #83888B",
"c  c #8B8C8C",
"v  c #828C93",
"b  c #8E8F90",
"n  c #8B9194",
"m  c #8C959C",
"M  c #939394",
"N  c #919599",
"B  c #94999D",
"V  c #9B9C9C",
"C  c #AF898C",
"Z  c #A79C9D",
"A  c #B79C9F",
"S  c #BA9A9D",
"D  c #939CA1",
"F  c #99A1A7",
"G  c #9EA5AA",
"H  c #A3A4A4",
"J  c #A2A7AA",
"K  c #A3A9AC",
"L  c #ABABAB",
"P  c #B4A4A6",
"I  c #BDA4A6",
"U  c #A7ADB1",
"Y  c #ADAFB1",
"T  c #BFAEB0",
"R  c #AEB1B3",
"E  c #B3B3B4",
"W  c #BEB4B6",
"Q  c #B3B6B9",
"!  c #B6BABC",
"~  c #BCBDBD",
"^  c #C39EA2",
"/  c #D19DA2",
"(  c #C8A6A9",
")  c #C1ADAF",
"_  c #C2B8B9",
"`  c #D5B3B7",
"'  c #BCBFC0",
"]  c #C2BFC0",
"[  c #BEC1C2",
"{  c #C2C3C4",
"}  c #C4C7C8",
"|  c #C7C9CA",
" . c #CACCCC",
".. c #D2C6C7",
"X. c #CDCFD0",
"o. c #CFD1D2",
"O. c #D2D2D2",
"+. c #D8D3D4",
"@. c #DBDBDB",
"#. c #E8DBDD",
"$. c gray89",
"%. c #EDEDED",
"&. c #F5F5F5",
"*. c #FBFBFB",
"=. c #2A52A5",
/* pixels */
"=.=.=.=.=.=.=.=.=.=.=.=.=.=.=.=.=.=.=.=.=.=.=.=.=.=.=.=.=.=.=.=.=.=.=.=.=.=.=.=.=.=.=.=.=.=.=.=.=.=.=.=.=.=.=.=.=.=.=.=.=.=.=.=.",
"=.=.=.=.=.=.=.=.=.=.=.=.=.=.=.=.=.=.=.=.=.=.=.=.=.=.=.=.=.=.=.=.=.$ - =.=.=.=.=.=.=.=.=.=.=.=.=.=.=.=.=.=.=.=.=.=.=.=.=.=.=.=.=.",
"=.=.=.=.=.=.=.=.=.=.=.=.=.=.=.=.=.=.=.=.=.=.=.=.=.=.=.=.=.=.=.=.9 $ $ + =.=.=.=.=.=.=.=.=.=.=.=.=.=.=.=.=.=.=.=.=.=.=.=.=.=.=.=.",
"=.=.=.=.=.=.=.=.=.=.=.=.=.=.=.=.=.=.=.=.=.=.=.=.=.=.=.=.=.=.=.Q 4 $ $ ; =.=.=.=.=.=.=.=.=.=.=.=.=.=.=.=.=.=.=.=.=.=.=.=.=.=.=.=.",
"=.=.=.=.=.=.=.=.=.=.=.=.=.=.=.=.=.=.=.=.=.=.=.=.=.=.=.=.=.=.Q } 9 $ $ ; =.=.=.=.=.=.=.=.=.=.=.=.=.=.=.=.=.=.=.=.=.=.=.=.=.=.=.=.",
"=.=.=.=.=.=.=.=.=.=.=.=.=.=.=.=.=.=.=.=.=.=.=.=.=.=.=.=.=.=.O.| y $ $ - =.=.=.=.=.=.=.=.=.=.=.=.=.=.=.=.=.=.=.=.=.=.=.=.=.=.=.=.",
"=.=.=.=.=.=.=.=.=.=.=.=.=.=.=.=.=.=.=.=.=.=.=.=.=.=.=.=.=.~ o. .u $ $ $ - =.=.=.=.=.=.=.=.=.=.=.=.=.=.=.=.=.=.=.=.=.=.=.=.=.=.=.",
"=.=.=.=.=.=.=.=.=.=.=.=.=.=.=.=.=.=.=.=.=.=.=.=.=.=.=.=.%.$. .X.j ; $ $ ; =.=.=.=.=.=.=.=.=.=.=.=.=.=.=.=.=.=.=.=.=.=.=.=.=.=.=.",
"=.=.=.=.=.=.=.=.=.=.=.=.=.=.=.=.=.=.=.=.=.=.=.=.=.=.W &.&.%.L o.k ; $ $ - =.=.=.=.=.=.=.=.=.=.=.=.=.=.=.=.=.=.=.=.=.=.=.=.=.=.=.",
"=.=.=.=.=.=.=.=.=.=.=.=.=.=.=.=.=.=.=.=.=.=.=.=. .E o.] E E A o.U 3 $ $ = =.=.=.=.=.=.=.=.=.=.=.=.=.=.=.=.=.=.=.=.=.=.=.=.=.=.=.",
"=.=.=.=.=.=.=.=.=.=.=.=.=.=.=.=.=.=.=.=.=.=.=.' o.@.*.%.| P /  .~ & @ $ $ - =.=.=.=.=.=.=.=.=.=.=.=.=.=.=.=.=.=.=.=.=.=.=.=.=.=.",
"=.=.=.=.=.=.=.=.=.=.=.=.=.=.=.=.=.=.=.=.=.=.' o.o.X.%. .@.&.` ] ~ s @ $ $ ; =.=.=.=.=.=.=.=.=.=.=.=.=.=.=.=.=.=.=.=.=.=.=.=.=.=.",
"=.=.=.=.=.=.=.=.=.=.=.=.=.=.=.=.=.=.=.=.=.=. .o.o.Z E +.*.*.+.W X.d . @ $ ; =.=.=.=.=.=.=.=.=.=.=.=.=.=.=.=.=.=.=.=.=.=.=.=.=.=.",
"=.=.=.=.=.=.=.=.=.=.=.=.=.=.=.=.=.=.=.=.=.b  .o.X.C ' O...} W ) o.L * $ $ $ @ =.=.=.=.=.=.=.=.=.=.=.=.=.=.=.=.=.=.=.=.=.=.=.=.=.",
"=.=.=.=.=.=.=.=.=.=.=.=.=.=.=.=.=.=.=.=.=.M X.o.o.( &.$.| L S ( o.} 4 $ $ $ $ =.=.=.=.=.=.=.=.=.=.=.=.=.=.=.=.=.=.=.=.=.=.=.=.=.",
"=.=.=.=.=.=.=.=.=.=.=.=.=.=.=.=.=.=.=.=.=.M o.o.X.P @.|  .$.#.( o.X.9 ; $ $ - =.=.=.=.=.=.=.=.=.=.=.=.=.=.=.=.=.=.=.=.=.=.=.=.=.",
"=.=.=.=.=.=.=.=.=.=.=.=.=.=.=.=.=.=.=.=.=.M o.o.o.S L @.*.*.*._ o.X.h - $ # > =.=.=.=.=.=.=.=.=.=.=.=.=.=.=.=.=.=.=.=.=.=.=.=.=.",
"=.=.=.=.=.=.=.=.=.=.=.=.=.=.=.=.=.=.=.=.=.M X.o.X.T .. .]  .@.{ o.X.j ; $ $ : =.=.=.=.=.=.=.=.=.=.=.=.=.=.=.=.=.=.=.=.=.=.=.=.=.",
"=.=.=.=.=.=.=.=.=.=.=.=.=.=.=.=.=.=.=.=.=.Z o. . . .] %.$._ V E O.X.e - $ $ ; =.=.=.=.=.=.=.=.=.=.=.=.=.=.=.=.=.=.=.=.=.=.=.=.=.",
"=.=.=.=.=.=.=.=.=.=.=.=.=.=.=.=.=.=.=.=.=.D o.o.| X. .[ ! ! ~  .o.G < $ $ $ - : =.=.=.=.=.=.=.=.=.=.=.=.=.=.=.=.=.=.=.=.=.=.=.=.",
"=.=.=.=.=.=.=.=.=.=.=.=.=.=.=.=.=.=.=.=.=.H O.O.o. .X.o.X.o.o.o.Q f $ $ $ $ - 4 > $ =.=.=.=.=.=.=.=.=.=.=.=.=.=.=.=.=.=.=.=.=.=.",
"=.=.=.=.=.=.=.=.=.=.=.=.=.=.=.=.=.=.=.=.=.J X.o.o.o.o.o.o.o.o.} g < $ $ $ $ - 3 ; > > =.=.=.=.=.=.=.=.=.=.=.=.=.=.=.=.=.=.=.=.=.",
"=.=.=.=.=.=.=.=.=.=.=.=.=.=.=.=.=.=.=.=.=.L o.o.o.o.} | [ L n u 7 $ $ $ $ $ ; < $ = ; < =.=.=.=.=.=.=.=.=.=.=.=.=.=.=.=.=.=.=.=.",
"=.=.=.=.=.=.=.=.=.=.=.=.=.=.=.=.=.=.=.=.=.Y o.o.o. .j j 5 < - ; ; $ $ $ $ $ ; < $ $ $ ; < =.=.=.=.=.=.=.=.=.=.=.=.=.=.=.=.=.=.=.",
"=.=.=.=.=.=.=.=.=.=.=.=.=.=.=.=.=.=.=.=.q Y O.O.] B < : @ O O $ $ $ $ $ $ $ $ 3 $ $ $ $ ; > =.=.=.=.=.=.=.=.=.=.=.=.=.=.=.=.=.=.",
"=.=.=.=.=.=.=.=.=.=.=.=.=.=.=.=.=.=.=.l a Y { B 5 ; $ $ O + @ $ $ $ $ $ $ $ $ < $ $ $ $ $ ; = =.=.=.=.=.=.=.=.=.=.=.=.=.=.=.=.=.",
"=.=.=.=.=.=.=.=.=.=.=.=.=.=.=.=.=.=.a l i l 6 ; - $ $ $ $ $ $ $ $ $ $ $ $ $ > < $ $ $ $ $ $ > =.=.=.=.=.=.=.=.=.=.=.=.=.=.=.=.=.",
"=.=.=.=.=.=.=.=.=.=.=.=.=.=.=.=.=.=.l a 1 ; - $ $ $ $ $ $ $ $ $ $ $ $ $ $ $ $ < $ $ $ $ $ $ - = =.=.=.=.=.=.=.=.=.=.=.=.=.=.=.=.",
"=.=.=.=.=.=.=.=.=.=.=.=.=.=.=.=.=.a a 1 = = $ $ $ $ $ $ $ $ $ $ $ $ $ $ $ $ > < $ $ $ # $ $ $ = =.=.=.=.=.=.=.=.=.=.=.=.=.=.=.=.",
"=.=.=.=.=.=.=.=.=.=.=.=.=.=.=.=.=.l 4 ; # = $ $ $ $ $ $ $ $ $ $ $ $ $ $ $ $ ; > $ $ @   + + + @ o =.=.=.=.=.=.=.=.=.=.=.=.=.=.=.",
"=.=.=.=.=.=.=.=.=.=.=.=.=.=.=.=.q i ; $ # $ $ # $ $ $ $ $ $ $ $ $ $ $ $ $ $ > $ @   =.=.=.=.=.=.=.=.=.=.=.=.=.=.=.=.=.=.=.=.=.=.",
"=.=.=.=.=.=.=.=.=.=.=.=.=.=.=.=.a 1 - $ = # $ = $ $ $ $ $ $ $ $ $ $ $ $ $ $ < $ =.=.=.=.=.=.=.=.=.=.=.=.=.=.=.=.=.=.=.=.=.=.=.=.",
"=.=.=.=.=.=.=.=.=.=.=.=.=.=.=.=.i ; $ $ - ; ; ; > $ $ $ $ $ $ $ $ $ $ # $ $ > =.=.=.=.=.=.=.=.=.=.=.=.=.=.=.=.=.=.=.=.=.=.=.=.=.",
"=.=.=.=.=.=.=.=.=.=.=.=.=.=.=.=.= - $ ; = 1 p x B j 3 $ $ $ $ $ $ $ $ $ $ $ # =.=.=.=.=.=.=.=.=.=.=.=.=.=.=.=.=.=.=.=.=.=.=.=.=.",
"=.=.=.=.=.=.=.=.=.=.=.=.=.=.=.=.$ $ - =.=.l ~ | o.R 7 > $ $ $ $ $ $ $ $ $ $ o =.=.=.=.=.=.=.=.=.=.=.=.=.=.=.=.=.=.=.=.=.=.=.=.=.",
"=.=.=.=.=.=.=.=.=.=.=.=.=.=.=.=.; @ =.=.=.l { o.o.' 9 , $ $ $ $ $ $ $ $ $ $ o =.=.=.=.=.=.=.=.=.=.=.=.=.=.=.=.=.=.=.=.=.=.=.=.=.",
"=.=.=.=.=.=.=.=.=.=.=.=.=.=.=.=.=.=.=.=.=.a [ X.o.[ 8 , $ $ $ $ $ $ $ $ $ $ =.=.=.=.=.=.=.=.=.=.=.=.=.=.=.=.=.=.=.=.=.=.=.=.=.=.",
"=.=.=.=.=.=.=.=.=.=.=.=.=.=.=.=.=.=.=.=.=.=.~ X.o.[ 8 < $ $ $ $ $ $ $ $ $ - =.=.=.=.=.=.=.=.=.=.=.=.=.=.=.=.=.=.=.=.=.=.=.=.=.=.",
"=.=.=.=.=.=.=.=.=.=.=.=.=.=.=.=.=.=.=.=.=.=.U X.X.m 4 > $ $ $ $ $ $ $ $ $ $ =.=.=.=.=.=.=.=.=.=.=.=.=.=.=.=.=.=.=.=.=.=.=.=.=.=.",
"=.=.=.=.=.=.=.=.=.=.=.=.=.=.=.=.=.=.=.=.=.=.V  .X.' e < $ $ $ $ $ $ $ $ $ $ =.=.=.=.=.=.=.=.=.=.=.=.=.=.=.=.=.=.=.=.=.=.=.=.=.=.",
"=.=.=.=.=.=.=.=.=.=.=.=.=.=.=.=.=.=.=.=.=.=.x | o.X.j 3 $ $ $ $ $ $ $ $ $ + =.=.=.=.=.=.=.=.=.=.=.=.=.=.=.=.=.=.=.=.=.=.=.=.=.=.",
"=.=.=.=.=.=.=.=.=.=.=.=.=.=.=.=.=.=.=.=.=.=.q ] o.o.m 7 > $ $ $ $ $ $ $ $ =.=.=.=.=.=.=.=.=.=.=.=.=.=.=.=.=.=.=.=.=.=.=.=.=.=.=.",
"=.=.=.=.=.=.=.=.=.=.=.=.=.=.=.=.=.=.=.=.=.=.=.E o.o.G 7 > $ $ $ $ $ $ $ $ =.=.=.=.=.=.=.=.=.=.=.=.=.=.=.=.=.=.=.=.=.=.=.=.=.=.=.",
"=.=.=.=.=.=.=.=.=.=.=.=.=.=.=.=.=.=.=.=.=.=.=.V o.o.F 4 > $ $ $ $ $ $ # # =.=.=.=.=.=.=.=.=.=.=.=.=.=.=.=.=.=.=.=.=.=.=.=.=.=.=.",
"=.=.=.=.=.=.=.=.=.=.=.=.=.=.=.=.=.=.=.=.=.=.=.x | o.R 9 < $ $ $ $ $ $ $ X =.=.=.=.=.=.=.=.=.=.=.=.=.=.=.=.=.=.=.=.=.=.=.=.=.=.=.",
"=.=.=.=.=.=.=.=.=.=.=.=.=.=.=.=.=.=.=.=.=.=.=.0 [ o.| g 3 > $ $ $ $ $ $ =.=.=.=.=.=.=.=.=.=.=.=.=.=.=.=.=.=.=.=.=.=.=.=.=.=.=.=.",
"=.=.=.=.=.=.=.=.=.=.=.=.=.=.=.=.=.=.=.=.=.=.=.=.R o.o.k 3 > $ $ $ $ $ @ =.=.=.=.=.=.=.=.=.=.=.=.=.=.=.=.=.=.=.=.=.=.=.=.=.=.=.=.",
"=.=.=.=.=.=.=.=.=.=.=.=.=.=.=.=.=.=.=.=.=.=.=.=.B o.O.F 7 > $ $ $ $ # =.=.=.=.=.=.=.=.=.=.=.=.=.=.=.=.=.=.=.=.=.=.=.=.=.=.=.=.=.",
"=.=.=.=.=.=.=.=.=.=.=.=.=.=.=.=.=.=.=.=.=.=.=.=.a | X.Y 7 > $ $ $ $ $ =.=.=.=.=.=.=.=.=.=.=.=.=.=.=.=.=.=.=.=.=.=.=.=.=.=.=.=.=.",
"=.=.=.=.=.=.=.=.=.=.=.=.=.=.=.=.=.=.=.=.=.=.=.=.=.{ X. .h 3 $ $ $ $ # =.=.=.=.=.=.=.=.=.=.=.=.=.=.=.=.=.=.=.=.=.=.=.=.=.=.=.=.=.",
"=.=.=.=.=.=.=.=.=.=.=.=.=.=.=.=.=.=.=.=.=.=.=.=.=.Y X.O.G 9 > $ $ $ =.=.=.=.=.=.=.=.=.=.=.=.=.=.=.=.=.=.=.=.=.=.=.=.=.=.=.=.=.=.",
"=.=.=.=.=.=.=.=.=.=.=.=.=.=.=.=.=.=.=.=.=.=.=.=.=.V X.o. .g 3 ; $ $ =.=.=.=.=.=.=.=.=.=.=.=.=.=.=.=.=.=.=.=.=.=.=.=.=.=.=.=.=.=.",
"=.=.=.=.=.=.=.=.=.=.=.=.=.=.=.=.=.=.=.=.=.=.=.=.x _ o.o.o.Q e < - $ @ @ =.=.=.=.=.=.=.=.=.=.=.=.=.=.=.=.=.=.=.=.=.=.=.=.=.=.=.=.",
"=.=.=.=.=.=.=.=.=.=.=.=.=.=.=.=.=.=.=.=.=.=.=.b ! o.o.O.o.o.[ D v y 1 = $ $ = =.=.=.=.=.=.=.=.=.=.=.=.=.=.=.=.=.=.=.=.=.=.=.=.=.",
"=.=.=.=.=.=.=.=.=.=.=.=.=.=.=.=.=.=.=.=.=.=.c Y | o.o.o.o.o.o.o.o.o.{ K u ; $ $ ; =.=.=.=.=.=.=.=.=.=.=.=.=.=.=.=.=.=.=.=.=.=.=.",
"=.=.=.=.=.=.=.=.=.=.=.=.=.=.=.=.=.=.=.=.=.a H { o.O.o.o.o.o.O.o.o.o.o.o. .R w $ $ ; =.=.=.=.=.=.=.=.=.=.=.=.=.=.=.=.=.=.=.=.=.=.",
"=.=.=.=.=.=.=.=.=.=.=.=.=.=.=.=.=.=.=.=.=.M E { o.O.} } o.o.o.o.o.o.o.o.o.o. .k = $ ; =.=.=.=.=.=.=.=.=.=.=.=.=.=.=.=.=.=.=.=.=.",
"=.=.=.=.=.=.=.=.=.=.=.=.=.=.=.=.=.=.=.=.0 V E ~ | | =.=. .o.o.o.o.o.o.O.o.o.o.o.J 1 $ = =.=.=.=.=.=.=.=.=.=.=.=.=.=.=.=.=.=.=.=.",
"=.=.=.=.=.=.=.=.=.=.=.=.=.=.=.=.=.=.=.=.l M c M =.=.=.=.=.b H R ! [ | X.o.O.o.o.o.! y = o =.=.=.=.=.=.=.=.=.=.=.=.=.=.=.=.=.=.=.",
"=.=.=.=.=.=.=.=.=.=.=.=.=.=.=.=.=.=.=.=.l =.=.=.=.=.=.=.=.=.=.=.=.=.=.=.H Q { o.X.o.} k = =.=.=.=.=.=.=.=.=.=.=.=.=.=.=.=.=.=.=.",
"=.=.=.=.=.=.=.=.=.=.=.=.=.=.=.=.=.=.=.=.=.=.=.=.=.=.=.=.=.=.=.=.=.=.=.=.=.=.=.=.c R | X.B = =.=.=.=.=.=.=.=.=.=.=.=.=.=.=.=.=.=.",
"=.=.=.=.=.=.=.=.=.=.=.=.=.=.=.=.=.=.=.=.=.=.=.=.=.=.=.=.=.=.=.=.=.=.=.=.=.=.=.=.=.=.=.=.V N =.=.=.=.=.=.=.=.=.=.=.=.=.=.=.=.=.=.",
"=.=.=.=.=.=.=.=.=.=.=.=.=.=.=.=.=.=.=.=.=.=.=.=.=.=.=.=.=.=.=.=.=.=.=.=.=.=.=.=.=.=.=.=.=.=.=.=.=.=.=.=.=.=.=.=.=.=.=.=.=.=.=.=.",
"=.=.=.=.=.=.=.=.=.=.=.=.=.=.=.=.=.=.=.=.=.=.=.=.=.=.=.=.=.=.=.=.=.=.=.=.=.=.=.=.=.=.=.=.=.=.=.=.=.=.=.=.=.=.=.=.=.=.=.=.=.=.=.=."
};
