/* XPM */
static char *result[] = {
/* columns rows colors chars-per-pixel */
"64 64 116 2 ",
"   c #693830",
".  c #584738",
"X  c #313C43",
"o  c #36424A",
"O  c #3A464E",
"+  c #3B4750",
"@  c #3D4A53",
"#  c #434248",
"$  c #404D57",
"%  c #414F58",
"&  c #44525B",
"*  c #4A565D",
"=  c #4F585F",
"-  c #475661",
";  c #495761",
":  c #4C5A64",
">  c #4E5E69",
",  c #515D65",
"<  c #525F69",
"1  c #4F606B",
"2  c #54626C",
"3  c #5C666D",
"4  c #556671",
"5  c #5C6A74",
"6  c #596D79",
"7  c #5E717D",
"8  c #626B73",
"9  c #6D7175",
"0  c #65727B",
"q  c #6B747B",
"w  c gray46",
"e  c #71777B",
"r  c #7E7E7E",
"t  c #AD191A",
"y  c #A66C67",
"u  c #627481",
"i  c #6B7781",
"p  c #667985",
"a  c #697985",
"s  c #6D7E8B",
"d  c #737D84",
"f  c #74828C",
"g  c #7B848A",
"h  c #748692",
"j  c #758995",
"k  c #7D8A95",
"l  c #7D8F9C",
"z  c #848484",
"x  c #848789",
"c  c #81898E",
"v  c #8D8D8D",
"b  c #868D92",
"n  c #84929C",
"m  c #8C959B",
"M  c #8F999F",
"N  c gray59",
"B  c #90979B",
"V  c #949B9F",
"C  c #9D9D9D",
"Z  c #B19093",
"A  c #8A98A1",
"S  c #949DA3",
"D  c #989FA5",
"F  c #919EA9",
"G  c #B99EA1",
"H  c #9BA2A6",
"J  c #94A1AA",
"K  c #9FA7AC",
"L  c #9DAAB3",
"P  c #A5A5A5",
"I  c #AAA3A4",
"U  c #A1A6AA",
"Y  c #A4A9AD",
"T  c #ACACAC",
"R  c #B5A2A4",
"E  c #B9A6A7",
"W  c #B0A9AA",
"Q  c #BEA9AB",
"!  c #AAAFB2",
"~  c #A2AFB8",
"^  c #ACB2B6",
"/  c #ACB4B9",
"(  c #B4B5B5",
")  c #BDB1B2",
"_  c #B4B6B8",
"`  c #BCB7B8",
"'  c #B6B8BA",
"]  c #BBBCBC",
"[  c #C69C9F",
"{  c #C4A3A6",
"}  c #D2A0A4",
"|  c #C1AFB1",
" . c #DDB0B4",
".. c #B5BEC4",
"X. c #BCBFC1",
"o. c #BEC2C4",
"O. c #B9C2C8",
"+. c #C3C3C3",
"@. c #C4C7C8",
"#. c #C6C9CB",
"$. c #CACCCC",
"%. c #CCCFD0",
"&. c #CFD1D2",
"*. c #D3D4D5",
"=. c #D2D6D8",
"-. c #D5D9DB",
";. c #DBDBDB",
":. c #E3CFD1",
">. c #E0DCDD",
",. c #DBDEE1",
"<. c #DFE1E2",
"1. c #E4E5E5",
"2. c #EAE6E7",
"3. c #EBEBEB",
"4. c #F4F4F4",
"5.  c #2A52A5",
/* pixels */
"5.5.5.5.5.5.5.5.5.5.5.5.5.5.5.5.5.5.5.5.5.5.5.5.5.5.5.5.5.5.5.5.5.5.5.5.5.5.5.5.5.5.5.5.5.5.5.5.5.5.5.5.5.5.5.5.5.5.5.5.5.5.5.5.",
"5.5.5.5.5.5.5.5.5.5.5.5.5.5.5.5.5.5.5.5.5.5.5.5.5.5.5.5.5.5.5.5.5.5.5.5.5.5.5.5.5.5.5.5.5.5.5.5.5.5.5.5.5.5.5.5.5.5.5.5.5.5.5.5.",
"5.5.5.5.5.5.5.5.5.5.5.5.5.5.5.5.5.5.5.5.5.5.5.5.5.5.5.5.5.5.5.5.5.5.5.5.5.5.5.5.5.5.5.5.5.5.5.5.5.5.5.5.5.5.5.5.5.5.5.5.5.5.5.5.",
"5.5.5.5.5.5.5.5.5.5.5.5.5.5.5.5.5.5.5.5.5.5.5.5.5.5.5.5.5.5.5.5.5.5.5.5.5.5.5.5.5.5.5.5.5.5.5.5.5.5.5.5.5.5.5.5.5.5.5.5.5.5.5.5.",
"5.5.5.5.5.5.5.5.5.5.5.5.5.5.5.5.5.5.5.5.5.5.5.5.5.5.5.5.5.5.5.5.5.5.5.5.5.5.5.5.5.5.5.5.5.5.5.5.5.5.5.5.5.5.5.5.5.5.5.5.5.5.5.5.",
"5.5.5.5.5.5.5.5.5.5.5.5.5.5.5.5.5.5.5.5.5.5.5.5.5.5.5.5.5.5.5.5.5.5.5.5.5.5.5.5.5.5.5.5.5.5.5.5.5.5.5.5.5.5.5.5.5.5.5.5.5.5.5.5.",
"5.5.5.5.5.5.5.5.5.5.5.5.5.5.5.5.5.5.5.5.5.5.5.5.5.5.5.5.5.5.5.5.5.5.5.5.5.5.5.5.5.5.5.5.5.5.5.5.5.5.5.5.5.5.5.5.5.5.5.5.5.5.5.5.",
"5.5.5.5.5.5.5.5.5.5.5.5.5.5.5.5.5.5.5.5.5.5.5.5.5.5.5.5.5.5.5.5.5.5.5.5.5.5.5.5.5.5.5.5.5.5.5.5.5.5.5.5.5.5.5.5.5.5.5.5.5.5.5.5.",
"5.5.5.5.5.5.5.5.5.5.5.5.5.5.5.5.5.5.5.5.5.5.5.5.5.5.5.5.5.5.5.5.5.5.5.5.5.5.5.5.5.5.5.5.5.5.5.5.5.5.5.5.5.5.5.5.5.5.5.5.5.5.5.5.",
"5.5.5.5.5.5.5.5.5.5.5.5.5.5.5.5.5.5.5.5.5.5.5.5.5.5.5.5.5.5.5.5.5.5.5.5.5.5.5.5.5.5.5.5.5.5.5.5.5.5.5.5.5.5.5.5.5.5.5.5.5.5.5.5.",
"5.5.5.5.5.5.5.5.5.5.5.5.5.5.5.5.5.5.5.5.5.5.5.5.5.5.5.5.5.5.5.5.5.5.5.5.5.5.5.5.5.5.5.5.5.5.5.5.5.5.5.5.5.5.5.5.5.5.5.5.5.5.5.5.",
"5.5.5.5.5.5.5.5.5.5.5.5.5.5.5.5.5.5.5.5.5.5.5.5.5.5.5.5.5.5.5.5.5.5.5.5.5.5.5.5.5.5.5.5.5.5.5.5.5.5.5.5.5.5.5.5.5.5.5.5.5.5.5.5.",
"5.5.5.5.5.5.5.5.5.5.5.5.5.5.5.5.5.5.5.5.5.5.5.5.5.5.5.5.5.5.5.5.5.5.5.5.5.5.5.5.5.5.5.5.5.5.5.5.5.5.5.5.5.5.5.5.5.5.5.5.5.5.5.5.",
"5.5.5.5.5.5.5.5.5.5.5.5.5.5.5.5.5.5.5.5.5.5.5.5.5.5.5.5.5.5.4.5.5.5.5.5.5.5.5.5.5.5.5.5.5.5.5.5.5.5.5.5.5.5.5.5.5.5.5.5.5.5.5.5.",
"5.5.5.5.5.5.5.5.5.5.5.5.5.5.5.5.5.5.5.5.5.5.5.5.5.5.5.5.4.^ 8 *.5.5.5.5.5.5.5.5.5.5.5.5.5.5.5.5.5.5.5.5.5.5.5.5.5.5.5.5.5.5.5.5.",
"5.5.5.5.5.5.5.5.5.5.5.5.5.5.5.5.5.5.5.5.5.5.5.5.5.5.4.$.d & % %.5.5.5.5.5.5.5.5.5.5.5.5.5.5.5.5.5.5.5.5.5.5.5.5.5.5.5.5.5.5.5.5.",
"5.5.5.5.5.5.5.5.5.5.5.5.5.5.5.5.5.5.5.5.5.5.5.5.5.1.M 2 & @ % *.5.5.5.5.5.5.5.5.5.5.5.5.5.5.5.5.5.5.5.5.5.5.5.5.5.5.5.5.&.3.5.5.",
"5.5.5.5.5.5.5.5.5.5.5.5.5.5.5.5.5.5.5.5.5.5.5.5.$.q - @ @ @ $ &.5.5.5.5.5.5.5.5.5.5.5.5.5.5.5.5.5.5.5.5.5.5.5.5.5.5.4.O./ 4.5.5.",
"5.5.5.5.5.5.5.5.5.5.5.5.5.5.5.5.5.5.5.5.5.5.4.o.3 & $ @ @ @ $ *.5.5.5.5.5.5.5.5.5.5.5.5.5.5.5.5.5.5.5.5.5.5.5.5.5.4./ A $.5.5.5.",
"5.5.5.5.5.5.5.5.5.5.5.5.5.5.5.5.5.5.5.5.5.5.%.8 & $ @ @ @ @ * >.5.5.5.5.5.5.5.5.5.5.5.5.5.5.5.5.5.5.5.5.5.5.5.5.4.~ j O.;.4.5.5.",
"5.5.5.5.5.5.5.5.5.5.5.5.5.5.5.5.5.5.5.5.5.1.d - $ + @ @ @ + @ X.5.5.5.5.5.5.5.5.5.5.5.5.5.5.5.5.5.5.5.5.5.5.5.4...h F ;.;.5.5.5.",
"5.5.5.5.5.5.5.5.5.5.5.5.5.5.5.5.5.5.5.5.4.Y > @ @ @ @ @ @ @ @ H 5.5.5.5.5.5.5.5.5.5.5.5.5.5.5.5.5.5.5.5.5.5.5.-.l h $.1.1.5.5.5.",
"5.5.5.5.5.5.5.5.5.5.5.5.5.5.5.5.5.5.5.5.-.5 & @ @ @ @ @ @ @ @ q 4.5.5.5.5.5.5.5.5.5.5.5.5.5.5.5.5.5.5.5.5.5.4.L s F 1.1.3.5.5.5.",
"5.5.5.5.5.5.5.5.5.5.5.5.5.5.5.5.5.5.5.4.M > : & & % $ @ @ @ @ & m 4.5.5.5.5.5.5.5.5.5.5.5.5.5.5.5.5.5.5.5.5.,.j h %.3.;.4.5.5.5.",
"5.5.5.5.5.5.5.5.5.5.5.5.5.5.1.@.U b 8 2 2 > : : : > > > > : : : : g ! *.1.5.5.5.5.5.5.5.5.5.5.5.5.5.5.5.5.5...s F 1.3.-.4.5.5.5.",
"5.5.5.5.5.5.5.5.5.5.3.o.m 5 : & & @ @ @ @ @ @ @ @ @ @ @ & @ & @ $ $ & & * & 2 d S X.;.4.5.5.5.5.5.5.5.5.5.4.J f #.3.3.;.5.5.5.5.",
"5.5.5.5.5.5.5.-.! d , & @ @ @ @ @ @ @ @ @ @ @ @ @ @ @ @ @ @ @ @ @ @ @ @ $ + + $ @ @ & : g ( 3.5.5.5.5.5.5.3.l A 1.3.3.;.5.5.5.5.",
"5.5.5.4.$.V 3 ; % @ @ @ @ @ @ @ @ @ @ @ @ @ @ @ @ @ @ @ @ @ @ @ @ @ @ @ + + $ + @ @ @ @ @ @ ; V -.5.5.5.5.<.h / 3.3.<.1.5.5.5.5.",
"5.o.g < & % @ @ @ @ O @ O @ @ & & & % @ @ @ @ @ @ @ @ @ @ @ @ @ + @ + $ $ + @ @ @ @ @ @ @ @ @ : 1 b #.4.5.%.h &.3.3.1.3.5.5.5.5.",
"5.q $ @ @ @ @ @ @ + @ # . : 2 2 0 f f 5 : % @ @ @ @ @ @ @ @ @ @ $ + $ + + $ $ + @ @ @ @ @ @ @ @ : > 1 0 ! K n <.3.3.;.4.5.5.5.5.",
"4.q @ @ @ @ $ % & &   t y ( o.$.*.&.%.#.V 5 & @ @ @ @ @ @ @ @ @ + $ + $ + $ + $ @ @ @ @ @ @ @ @ : > > > > 4 n 1.3.3.;.4.5.5.5.5.",
"5.#.5 : > 2 2 5 i D ! ] $.*.*.&.&.&.&.&.$.H 5 - @ @ @ @ @ @ @ @ $ + $ + @ + $ + @ @ @ @ @ @ @ @ : > > > > 0 J 3.3.3.;.4.5.5.5.5.",
"5.5.=.Y ^ X.@.%.&.&.&.&.$.+.) { E X.] %.&.$.! 3 @ @ @ @ @ @ @ @ + $ + @ @ @ @ @ @ @ @ @ @ @ @ % : > > > 1 p L 3.3.3.;.5.5.5.5.5.",
"5.5.5.2.*.*.&.%.#.` Q { Q E }  .2.4.] C %.&.o.8 @ o @ @ @ @ @ @ @ + $ + @ @ + @ @ @ @ @ @ @ @ @ : > > 4 6 j O.3.3.3.-.5.5.5.5.5.",
"5.5.5.5.4.*.*.$.+.E [ :.5.;.C $.5.4.T T #.&.$.c @ o @ @ @ @ @ @ @ $ + $ @ + $ + @ @ @ @ @ @ @ @ > 4 4 6 a F <.3.3.3.-.5.5.5.5.5.",
"5.5.5.5.5.5.*.4.4.+.C *.5.<.W ] 4.3.+.+.#.&.&.B % X @ @ @ @ @ @ @ + $ + @ $ + $ @ @ @ @ $ $ % - 6 u u s n =.3.3.3.3.;.5.5.5.5.5.",
"5.5.5.5.5.5.4.2.5.+.%.+.1.2.X.@.;.;.;.+.@.&.&.T 1 O O @ @ @ @ @ @ @ @ $ $ % % & % & - ; : : : 2 p h k / -.2.3.3.3.&.$.5.5.5.5.5.",
"5.5.5.5.5.5.5.4.2.@.3.1.( ;.*.1.( $.3.@.%.&.&._ 5 & @ @ @ @ @ @ @ @ & ; : , 1 : : < 4 4 5 5 5 g / #.;.;.>.1.3.3.;.C 3.5.5.5.5.5.",
"5.5.5.5.5.5.5.5.3.%.5.4.#.I ;.2.W R | $.%.%.&.' g 1 $ @ @ @ @ @ @ $ $ 2 7 0 0 0 5 a A H ! / ^ &.;.;.,.;.;.;.3.3.2.X.;.5.5.5.5.5.",
"5.5.5.5.5.5.5.5.4.+.$.$.I Z G E Z | $.%.$.&.&.&.%.P 1 @ @ @ @ @ @ % , H o.#.#.$.Y o.*.&.&.&.$.*.;.;.*.$.] +.2.3.3.1.1.5.5.5.5.5.",
"5.5.5.5.5.5.5.5.4.%.&.&.$.*.%.%.*.&.%.$.$.&.&.&.&.$.g & @ @ @ @ + & 1 ( &.&.&.&.&.&.&.&.$.$.$.#.@.X.] &.3.;.*.2.3.2.;.5.5.5.5.5.",
"5.5.5.5.5.5.5.5.4.1.#.&.*.&.*.%.&.&.%.%.&.&.&.&.&.&.' 3 @ @ @ @ @ % = P $.&.&.&.%.$.#.+._ T T _ *.3.5.5.5.4.$.;.1.<.;.5.5.5.5.5.",
"5.5.5.5.5.5.5.5.5.5.1.#.#.%.%.*.&.&.&.&.&.&.&.&.&.&.$.m = @ @ @ @ $ & x ] +.+.] ( T P T ] *.3.5.5.5.5.5.5.5.1.$.;.;.&.4.5.5.5.5.",
"5.5.5.5.5.5.5.5.5.5.5.3.@.` ( ( ] X.X.X.] ( ( ` ' ` ( ( e & @ @ @ @ & 3 C P P T ] *.3.5.5.5.5.5.5.5.5.5.5.5.5.;.$.&.$.2.5.5.5.5.",
"5.5.5.5.5.5.5.5.5.5.5.5.5.5.5.5.4.3.2.1.1.;.;.+.X.C r r w , & % @ @ @ * ! 3.4.5.5.5.5.5.5.5.5.5.5.5.5.5.5.5.5.5.1.$.+.+.4.5.5.5.",
"5.5.5.5.5.5.5.5.5.5.5.5.5.5.5.5.5.5.5.5.5.5.5.5.5.4.` v z g 6 > % % @ $ 9 1.5.5.5.5.5.5.5.5.5.5.5.5.5.5.5.5.5.5.5.4.2.1.5.5.5.5.",
"5.5.5.5.5.5.5.5.5.5.5.5.5.5.5.5.5.5.5.5.5.5.5.5.5.5.5.;.T v z y 9 9 3 & & b 4.5.5.5.5.5.5.5.5.5.5.5.5.5.5.5.5.5.5.5.5.5.5.5.5.5.",
"5.5.5.5.5.5.5.5.5.5.5.5.5.5.5.5.5.5.5.5.5.5.5.5.5.5.5.5.5.1.+.C v N *.X.b q H 4.5.5.5.5.5.5.5.5.5.5.5.5.5.5.5.5.5.5.5.5.5.5.5.5.",
"5.5.5.5.5.5.5.5.5.5.5.5.5.5.5.5.5.5.5.5.5.5.5.5.5.5.5.5.5.5.5.4.1.+.] 4.5.4.-.3.5.5.5.5.5.5.5.5.5.5.5.5.5.5.5.5.5.5.5.5.5.5.5.5.",
"5.5.5.5.5.5.5.5.5.5.5.5.5.5.5.5.5.5.5.5.5.5.5.5.5.5.5.5.5.5.5.5.5.5.4.5.5.5.5.5.5.5.5.5.5.5.5.5.5.5.5.5.5.5.5.5.5.5.5.5.5.5.5.5.",
"5.5.5.5.5.5.5.5.5.5.5.5.5.5.5.5.5.5.5.5.5.5.5.5.5.5.5.5.5.5.5.5.5.5.5.5.5.5.5.5.5.5.5.5.5.5.5.5.5.5.5.5.5.5.5.5.5.5.5.5.5.5.5.5.",
"5.5.5.5.5.5.5.5.5.5.5.5.5.5.5.5.5.5.5.5.5.5.5.5.5.5.5.5.5.5.5.5.5.5.5.5.5.5.5.5.5.5.5.5.5.5.5.5.5.5.5.5.5.5.5.5.5.5.5.5.5.5.5.5.",
"5.5.5.5.5.5.5.5.5.5.5.5.5.5.5.5.5.5.5.5.5.5.5.5.5.5.5.5.5.5.5.5.5.5.5.5.5.5.5.5.5.5.5.5.5.5.5.5.5.5.5.5.5.5.5.5.5.5.5.5.5.5.5.5.",
"5.5.5.5.5.5.5.5.5.5.5.5.5.5.5.5.5.5.5.5.5.5.5.5.5.5.5.5.5.5.5.5.5.5.5.5.5.5.5.5.5.5.5.5.5.5.5.5.5.5.5.5.5.5.5.5.5.5.5.5.5.5.5.5.",
"5.5.5.5.5.5.5.5.5.5.5.5.5.5.5.5.5.5.5.5.5.5.5.5.5.5.5.5.5.5.5.5.5.5.5.5.5.5.5.5.5.5.5.5.5.5.5.5.5.5.5.5.5.5.5.5.5.5.5.5.5.5.5.5.",
"5.5.5.5.5.5.5.5.5.5.5.5.5.5.5.5.5.5.5.5.5.5.5.5.5.5.5.5.5.5.5.5.5.5.5.5.5.5.5.5.5.5.5.5.5.5.5.5.5.5.5.5.5.5.5.5.5.5.5.5.5.5.5.5.",
"5.5.5.5.5.5.5.5.5.5.5.5.5.5.5.5.5.5.5.5.5.5.5.5.5.5.5.5.5.5.5.5.5.5.5.5.5.5.5.5.5.5.5.5.5.5.5.5.5.5.5.5.5.5.5.5.5.5.5.5.5.5.5.5.",
"5.5.5.5.5.5.5.5.5.5.5.5.5.5.5.5.5.5.5.5.5.5.5.5.5.5.5.5.5.5.5.5.5.5.5.5.5.5.5.5.5.5.5.5.5.5.5.5.5.5.5.5.5.5.5.5.5.5.5.5.5.5.5.5.",
"5.5.5.5.5.5.5.5.5.5.5.5.5.5.5.5.5.5.5.5.5.5.5.5.5.5.5.5.5.5.5.5.5.5.5.5.5.5.5.5.5.5.5.5.5.5.5.5.5.5.5.5.5.5.5.5.5.5.5.5.5.5.5.5.",
"5.5.5.5.5.5.5.5.5.5.5.5.5.5.5.5.5.5.5.5.5.5.5.5.5.5.5.5.5.5.5.5.5.5.5.5.5.5.5.5.5.5.5.5.5.5.5.5.5.5.5.5.5.5.5.5.5.5.5.5.5.5.5.5.",
"5.5.5.5.5.5.5.5.5.5.5.5.5.5.5.5.5.5.5.5.5.5.5.5.5.5.5.5.5.5.5.5.5.5.5.5.5.5.5.5.5.5.5.5.5.5.5.5.5.5.5.5.5.5.5.5.5.5.5.5.5.5.5.5.",
"5.5.5.5.5.5.5.5.5.5.5.5.5.5.5.5.5.5.5.5.5.5.5.5.5.5.5.5.5.5.5.5.5.5.5.5.5.5.5.5.5.5.5.5.5.5.5.5.5.5.5.5.5.5.5.5.5.5.5.5.5.5.5.5.",
"5.5.5.5.5.5.5.5.5.5.5.5.5.5.5.5.5.5.5.5.5.5.5.5.5.5.5.5.5.5.5.5.5.5.5.5.5.5.5.5.5.5.5.5.5.5.5.5.5.5.5.5.5.5.5.5.5.5.5.5.5.5.5.5.",
"5.5.5.5.5.5.5.5.5.5.5.5.5.5.5.5.5.5.5.5.5.5.5.5.5.5.5.5.5.5.5.5.5.5.5.5.5.5.5.5.5.5.5.5.5.5.5.5.5.5.5.5.5.5.5.5.5.5.5.5.5.5.5.5."
};
