/* XPM */
static char *result[] = {
/* columns rows colors chars-per-pixel */
"64 64 115 2 ",
"   c #20272D",
".  c #21282E",
"X  c #262D34",
"o  c #282F35",
"O  c #273137",
"+  c #293137",
"@  c #2B343B",
"#  c #3B3B3B",
"$  c #70372D",
"%  c #333D44",
"&  c #533A41",
"*  c #364147",
"=  c #364149",
"-  c #3A454E",
";  c #3C484F",
":  c #3A4750",
">  c #3D4A53",
",  c #444444",
"<  c #414549",
"1  c #43494D",
"2  c gray30",
"3  c #5E574F",
"4  c #414D56",
"5  c #414F58",
"6  c #495057",
"7  c #44525C",
"8  c #4A555D",
"9  c #545454",
"0  c #535A5F",
"q  c #5D5D5D",
"w  c #655046",
"e  c #475660",
"r  c #495761",
"t  c #4C5A64",
"y  c #4F5E69",
"u  c #565E63",
"i  c #525F69",
"p  c #5C6064",
"a  c #54636D",
"s  c #5B646B",
"d  c #576671",
"f  c #596771",
"g  c #5C6A74",
"h  c #656565",
"j  c #626669",
"k  c #6A6B6C",
"l  c #616C74",
"z  c #626F79",
"x  c #6F7274",
"c  c #65727C",
"v  c #6A747B",
"b  c #737374",
"n  c #71787D",
"m  c #7C7C7D",
"M  c #A13431",
"N  c #AA5959",
"B  c #6C7982",
"V  c #717D86",
"C  c #7A7D81",
"Z  c #78848C",
"A  c #7D8890",
"S  c #848484",
"D  c #8D8E8E",
"F  c #838C92",
"G  c #8F8F90",
"H  c #869197",
"J  c #8E9193",
"K  c #8A949A",
"L  c #939393",
"P  c #939699",
"I  c #9B9C9C",
"U  c #A99C9E",
"Y  c #B89B9D",
"T  c #9C9FA1",
"R  c #9DA3A6",
"E  c #A4A5A5",
"W  c #A4AAAE",
"Q  c #ABABAB",
"!  c #B4A2A4",
"~  c #BCA6A9",
"^  c #B2ACAD",
"/  c #BCA9AB",
"(  c #ADB1B4",
")  c #AFB4B8",
"_  c #B3B3B3",
"`  c #BDB2B3",
"'  c #B5B6B8",
"]  c #B9B7B8",
"[  c #B7BABC",
"{  c #BBBBBC",
"}  c #C0A1A4",
"|  c #C8A1A5",
" . c #C2A9AC",
".. c #CAACAF",
"X. c #D0A1A5",
"o. c #C6B9BB",
"O. c #BFBFC0",
"+. c #C4BFC1",
"@. c #BEC0C2",
"#. c #C3C3C4",
"$. c #C4C6C9",
"%. c #C6C9CA",
"&. c #CBCCCD",
"*. c #CDCFD0",
"=. c #CFD1D2",
"-. c #D2D2D3",
";. c gray86",
":. c #E4D0D1",
">. c #E3E2E2",
",. c #EBEBEB",
"<. c #F1ECED",
"1. c #F5F5F5",
"2. c #F9F7F7",
"3. c #FCFCFC",
"4.  c #2A52A5",
/* pixels */
"4.4.4.4.4.4.4.4.4.4.4.4.4.4.4.4.4.4.4.4.4.4.4.4.4.4.4.4.4.4.4.4.4.4.4.4.4.4.4.4.4.4.4.4.4.4.4.4.4.4.4.4.4.4.4.4.4.4.4.4.4.4.4.4.",
"4.4.4.4.4.4.4.4.4.4.4.4.4.4.4.4.4.4.4.4.4.4.4.4.4.4.4.4.4.4.4.4.4.4.4.4.4.4.4.4.4.4.4.4.4.4.4.4.4.4.4.4.4.4.4.4.4.4.4.4.4.4.4.4.",
"4.4.4.4.4.4.4.4.4.4.4.4.4.4.4.4.4.4.4.4.4.4.4.4.4.4.4.4.4.4.4.4.4.4.4.4.4.4.4.4.4.4.4.4.4.4.4.4.4.4.4.4.4.4.4.4.4.4.4.4.4.4.4.4.",
"4.4.4.4.4.4.4.4.4.4.4.4.4.4.4.4.4.4.4.4.4.4.4.4.4.4.4.4.4.4.4.4.4.4.4.4.4.4.4.4.4.4.4.4.4.4.4.4.4.4.4.4.4.4.4.4.4.4.4.4.4.4.4.4.",
"4.4.4.4.4.4.4.4.4.4.4.4.4.4.4.4.4.4.4.4.4.4.4.4.4.4.4.4.4.4.4.4.4.4.4.4.4.4.4.4.4.4.4.4.4.4.4.4.4.4.4.4.4.4.4.4.4.4.4.4.4.4.4.4.",
"4.4.4.4.4.4.4.4.4.4.4.4.4.4.4.4.4.4.4.4.4.4.4.4.4.4.4.4.4.4.4.4.4.4.4.4.4.4.4.4.4.4.4.4.4.4.4.4.4.4.4.4.4.4.4.4.4.4.4.4.4.4.4.4.",
"4.4.4.4.4.4.4.4.4.4.4.4.4.4.4.4.4.4.4.4.4.4.4.4.4.4.4.4.4.4.4.4.4.4.4.4.4.4.4.4.4.4.4.4.4.4.4.4.4.4.4.4.4.4.4.4.4.4.4.4.4.4.4.4.",
"4.4.4.4.4.4.4.4.4.4.4.4.4.4.4.4.4.4.4.4.4.4.4.4.4.4.4.4.4.4.4.4.4.4.4.4.4.4.4.4.4.4.4.4.4.4.4.4.4.4.4.4.4.4.4.4.4.4.4.4.4.4.4.4.",
"4.4.4.4.4.4.4.4.4.4.4.4.4.4.4.4.4.4.4.4.4.4.4.4.4.4.4.4.4.4.4.4.4.4.4.4.4.4.4.4.4.4.4.4.4.4.4.4.4.4.4.4.4.4.4.4.4.4.4.4.4.4.4.4.",
"4.4.4.4.4.4.4.4.4.4.4.4.4.4.4.4.4.4.4.4.4.4.4.4.4.4.4.4.4.4.4.4.4.4.4.4.4.4.4.4.4.4.4.4.4.4.4.4.4.4.4.4.4.4.4.4.4.4.4.4.4.4.4.4.",
"4.4.4.4.4.4.4.4.4.4.4.4.4.4.4.4.4.4.4.4.4.4.4.4.4.4.4.4.4.4.4.4.4.4.4.4.4.4.4.4.4.4.4.4.4.4.4.4.4.4.4.4.4.4.4.4.4.4.4.4.4.4.4.4.",
"4.4.4.4.4.4.4.4.4.4.4.4.4.4.4.4.4.4.4.4.4.4.4.4.4.4.4.4.4.4.4.4.4.4.4.4.4.4.4.4.4.4.4.4.4.4.4.4.4.4.4.4.4.4.4.4.4.4.4.4.4.4.4.4.",
"4.4.4.4.4.4.4.4.4.4.4.4.4.4.4.4.4.4.4.4.4.4.4.4.4.4.4.4.4.4.4.4.4.4.4.4.4.4.4.4.4.4.4.4.4.4.4.4.4.4.4.4.4.4.4.4.4.4.4.4.4.4.4.4.",
"4.4.4.4.4.4.4.4.4.4.4.4.4.4.4.4.4.4.4.4.4.4.4.4.4.4.4.4.4.4.4.4.4.4.4.4.4.4.4.4.4.4.4.4.4.4.4.4.4.4.4.4.4.4.4.4.4.4.4.4.4.4.4.4.",
"4.4.4.4.4.4.4.4.4.4.4.4.4.4.4.4.4.4.4.4.4.4.4.4.4.4.4.4.4.4.4.4.4.4.4.4.4.4.4.4.4.4.4.4.4.4.4.4.4.4.4.4.4.4.4.4.4.4.4.4.4.4.4.4.",
"4.4.4.4.4.4.4.4.4.4.4.4.4.4.4.4.4.4.4.4.4.4.4.4.4.4.4.4.4.4.* > 4.4.4.4.4.4.4.4.4.4.4.4.4.4.4.4.4.4.4.4.4.4.4.4.4.4.4.4.4.4.4.4.",
"4.4.4.4.4.4.4.4.4.4.4.4.4.4.4.4.4.4.4.4.4.4.4.4.4.4.4.4.> 8 > > 4.4.4.4.4.4.4.4.4.4.4.4.4.4.4.4.4.4.4.4.4.4.4.4.4.4.4.4.4.4.4.4.",
"4.4.4.4.4.4.4.4.4.4.4.4.4.4.4.4.4.4.4.4.4.4.4.4.4.4.% r 7 > > : 4.4.4.4.4.4.4.4.4.4.4.4.4.4.4.4.4.4.4.4.4.4.4.4.4.4.4.4.4.4.4.4.",
"4.4.4.4.4.4.4.4.4.4.4.4.4.4.4.4.4.4.4.4.4.4.4.4.4.7 e 7 > > > : 4.4.4.4.4.4.4.4.4.4.4.4.4.4.4.4.4.4.4.4.4.4.4.4.4.4.4.4.4.. k 4.",
"4.4.4.4.4.4.4.4.4.4.4.4.4.4.4.4.4.4.4.4.4.4.4.4.r e > > > > > : 4.4.4.4.4.4.4.4.4.4.4.4.4.4.4.4.4.4.4.4.4.4.4.4.4.4.4.4.o 4 S 4.",
"4.4.4.4.4.4.4.4.4.4.4.4.4.4.4.4.4.4.4.4.4.4.4.r e 5 > > > > : % 4.4.4.4.4.4.4.4.4.4.4.4.4.4.4.4.4.4.4.4.4.4.4.4.4.4.4.+ + b m 4.",
"4.4.4.4.4.4.4.4.4.4.4.4.4.4.4.4.4.4.4.4.4.4.7 r > > > > > > : : O 4.4.4.4.4.4.4.4.4.4.4.4.4.4.4.4.4.4.4.4.4.4.4.4.4.O O o S 4.4.",
"4.4.4.4.4.4.4.4.4.4.4.4.4.4.4.4.4.4.4.4.4.4.8 7 > > > > > > > > % 4.4.4.4.4.4.4.4.4.4.4.4.4.4.4.4.4.4.4.4.4.4.4.4.4.@ X # I 4.4.",
"4.4.4.4.4.4.4.4.4.4.4.4.4.4.4.4.4.4.4.4.4.7 e > > > > > > > > > - 4.4.4.4.4.4.4.4.4.4.4.4.4.4.4.4.4.4.4.4.4.4.4.4.O X X 6 I 4.4.",
"4.4.4.4.4.4.4.4.4.4.4.4.4.4.4.4.4.4.4.4.4.y t e 7 7 7 5 > > > > > = 4.4.4.4.4.4.4.4.4.4.4.4.4.4.4.4.4.4.4.4.4.4.4.O X o b G 4.4.",
"4.4.4.4.4.4.4.4.4.4.4.4.4.4.4.4.> > 7 7 y y r r t r r y t y y y t t 7 = 4.4.4.4.4.4.4.4.4.4.4.4.4.4.4.4.4.4.4.4.. X o @ G S 4.4.",
"4.4.4.4.4.4.4.4.4.4.4.4.> 4 7 7 7 > > 4 > > > > > > > > > 7 > > > > 5 7 7 > > : = % 4.4.4.4.4.4.4.4.4.4.4.4.4.4.X X X 1 E 4.4.4.",
"4.4.4.4.4.4.4.4.- > 7 7 > > : > : > > > > > > > > > > > > > > > > > > > > > > : > > > > : = 4.4.4.4.4.4.4.4.4.4.X X X u E 4.4.4.",
"4.4.4.4.4.> 7 7 4 > > > > > > > > > > > > > > > > > > > : > > > > > > > > > > > > > > : : > > : % 4.4.4.4.4.4.4.X X o m E 4.4.4.",
"4.4 4 7 7 > > > > > > - : - : 7 7 e 7 7 > > > > > > > > > > > > > > > > > > > > > > > > > > > > > > % @ 4.4.4.. X o % I T 4.4.4.",
"4.i 5 > : > > : > > : < & $ 3 g B A H B d r 7 > > > > > > > > > > > > > > > > > > > > > > > > > > > : = = % 4.. X X 0 E L 4.4.4.",
"4.t 5 > > 5 5 7 7 e y w M N ^ $.=.=.=.&.) H a 7 7 > > > > > > > > > > > > > > > > > > > > > > > > > : = = % = @ X % C Q D 4.4.4.",
"4.4.g a g c c v Z H ( [ [ *.*.-.=.=.=.=.=.%.F g r > > > > > > > : > > > > > > > > > > > > > > > > > : = = % = @ % 6 I Q C 4.4.4.",
"4.4.4.) @.$.&.&.*.*.*.*.#.o.o. .~ ` { [ &.=.&.R a 7 : > > > > > > > > > > > > > > > > > > > > > > > : = * = = = > C Q Q m 4.4.4.",
"4.4.4.4.$.-.-.=.%.' / | ..o. .X.:.2.;.I [ =.=.[ s = = > ; > > > > > > > > > > > > > > > > > > > > > : = = ; 4 4 m Q Q Q m 4.4.4.",
"4.4.4.4.4.4.*.-.-.%.! ..<.1.#.E ,.3.&._ [ =.=.&.n ; % ; > > > > > > > > > > > > > > > > > > > > > > > : > 7 0 n E Q Q Q 4.4.4.4.",
"4.4.4.4.4.4.4.E 1.,.Q o.,.1.#.#.=.2.#.;.' &.=.=.P 7 % - > > > > > > > > > > > > > > > > > 7 > 7 t e 7 7 r l L Q Q Q Q Q 4.4.4.4.",
"4.4.4.4.4.4.4.4.%.,._ >.O.,.&.>.&.>.&.,.{ *.=.=.W i > - > > > > > > > > > 5 5 5 e > e t y y y y a d s v F ' #._ Q Q Q E 4.4.4.4.",
"4.4.4.4.4.4.4.4.4.;.#.3.-.O.&.,.-.%.:.>.$.*.=.=.W f 7 > > > > > > > > 5 t y a a a t y d g B B v K W ) @.+.#.#._ Q Q Q L 4.4.4.4.",
"4.4.4.4.4.4.4.4.4.I ;.3.,.o.^ >.-.! ~ { *.&.*.=.[ K a 7 > > > > > > > 5 g V V Z Z z A W O.@.$.@.=.&.$.$.#.O._ E E Q Q I 4.4.4.4.",
"4.4.4.4.4.4.4.4.4.D @.&.{ U Y / / / #.&.*.&.*.=.=.=.R 8 > > > > > > > 7 E %.&.*.*.( $.=.-.=.=.=.&.#.] Q I m h h S G L D 4.4.4.4.",
"4.4.4.4.4.4.4.4.4._ %.*.=.-.=.=.=.-.*.*.&.&.*.=.=.=.%.v 7 > > > > > 4 r R &.*.=.=.=.=.=.=.&.%.$.' D b q 4.4.4.4.2 k S S 4.4.4.4.",
"4.4.4.4.4.4.4.4.4.4.D %.=.-.=.=.=.=.=.=.*.-.-.=.=.=.*.E r > > > > > > 8 L %.&.-.*.&.%.#.] Q P S 4.4.4.4.4.4.4.4., 2 9 9 # 4.4.4.",
"4.4.4.4.4.4.4.4.4.4.4.E #.%.&.=.=.=.=.=.=.=.*.*.=.=.*.$.v 5 > > > > > 7 C { #.{ _ E L S 4.4.4.4.4.4.4.4.4.4.4.4.4., 2 2 # 4.4.4.",
"4.4.4.4.4.4.4.4.4.4.4.4.4.4.G L L L I I E E E Q _ _ _ _ J r > > > > > e u S Z b 4.4.4.4.4.4.4.4.4.4.4.4.4.4.4.4.4.4., 2 , 4.4.4.",
"4.4.4.4.4.4.4.4.4.4.4.4.4.4.4.4.4.4.4.4.4.4.4.4.4.q b b b p 7 4 > > > 7 > 4.4.4.4.4.4.4.4.4.4.4.4.4.4.4.4.4.4.4.4.4.4.# , # 4.4.",
"4.4.4.4.4.4.4.4.4.4.4.4.4.4.4.4.4.4.4.4.4.4.4.4.4.4.b S S m p 7 > > > > 7 4.4.4.4.4.4.4.4.4.4.4.4.4.4.4.4.4.4.4.4.4.4.4.4.4.4.4.",
"4.4.4.4.4.4.4.4.4.4.4.4.4.4.4.4.4.4.4.4.4.4.4.4.4.4.4.b S S S j 7 7 > > > > 4.4.4.4.4.4.4.4.4.4.4.4.4.4.4.4.4.4.4.4.4.4.4.4.4.4.",
"4.4.4.4.4.4.4.4.4.4.4.4.4.4.4.4.4.4.4.4.4.4.4.4.4.4.4.4.4.b S S b 0 5 7 > 4 = 4.4.4.4.4.4.4.4.4.4.4.4.4.4.4.4.4.4.4.4.4.4.4.4.4.",
"4.4.4.4.4.4.4.4.4.4.4.4.4.4.4.4.4.4.4.4.4.4.4.4.4.4.4.4.4.4.4.h S S m 6 > 7 7 4.4.4.4.4.4.4.4.4.4.4.4.4.4.4.4.4.4.4.4.4.4.4.4.4.",
"4.4.4.4.4.4.4.4.4.4.4.4.4.4.4.4.4.4.4.4.4.4.4.4.4.4.4.4.4.4.4.4.4.4.h b 4.4.% = 4.4.4.4.4.4.4.4.4.4.4.4.4.4.4.4.4.4.4.4.4.4.4.4.",
"4.4.4.4.4.4.4.4.4.4.4.4.4.4.4.4.4.4.4.4.4.4.4.4.4.4.4.4.4.4.4.4.4.4.4.4.4.4.4.4.4.4.4.4.4.4.4.4.4.4.4.4.4.4.4.4.4.4.4.4.4.4.4.4.",
"4.4.4.4.4.4.4.4.4.4.4.4.4.4.4.4.4.4.4.4.4.4.4.4.4.4.4.4.4.4.4.4.4.4.4.4.4.4.4.4.4.4.4.4.4.4.4.4.4.4.4.4.4.4.4.4.4.4.4.4.4.4.4.4.",
"4.4.4.4.4.4.4.4.4.4.4.4.4.4.4.4.4.4.4.4.4.4.4.4.4.4.4.4.4.4.4.4.4.4.4.4.4.4.4.4.4.4.4.4.4.4.4.4.4.4.4.4.4.4.4.4.4.4.4.4.4.4.4.4.",
"4.4.4.4.4.4.4.4.4.4.4.4.4.4.4.4.4.4.4.4.4.4.4.4.4.4.4.4.4.4.4.4.4.4.4.4.4.4.4.4.4.4.4.4.4.4.4.4.4.4.4.4.4.4.4.4.4.4.4.4.4.4.4.4.",
"4.4.4.4.4.4.4.4.4.4.4.4.4.4.4.4.4.4.4.4.4.4.4.4.4.4.4.4.4.4.4.4.4.4.4.4.4.4.4.4.4.4.4.4.4.4.4.4.4.4.4.4.4.4.4.4.4.4.4.4.4.4.4.4.",
"4.4.4.4.4.4.4.4.4.4.4.4.4.4.4.4.4.4.4.4.4.4.4.4.4.4.4.4.4.4.4.4.4.4.4.4.4.4.4.4.4.4.4.4.4.4.4.4.4.4.4.4.4.4.4.4.4.4.4.4.4.4.4.4.",
"4.4.4.4.4.4.4.4.4.4.4.4.4.4.4.4.4.4.4.4.4.4.4.4.4.4.4.4.4.4.4.4.4.4.4.4.4.4.4.4.4.4.4.4.4.4.4.4.4.4.4.4.4.4.4.4.4.4.4.4.4.4.4.4.",
"4.4.4.4.4.4.4.4.4.4.4.4.4.4.4.4.4.4.4.4.4.4.4.4.4.4.4.4.4.4.4.4.4.4.4.4.4.4.4.4.4.4.4.4.4.4.4.4.4.4.4.4.4.4.4.4.4.4.4.4.4.4.4.4.",
"4.4.4.4.4.4.4.4.4.4.4.4.4.4.4.4.4.4.4.4.4.4.4.4.4.4.4.4.4.4.4.4.4.4.4.4.4.4.4.4.4.4.4.4.4.4.4.4.4.4.4.4.4.4.4.4.4.4.4.4.4.4.4.4.",
"4.4.4.4.4.4.4.4.4.4.4.4.4.4.4.4.4.4.4.4.4.4.4.4.4.4.4.4.4.4.4.4.4.4.4.4.4.4.4.4.4.4.4.4.4.4.4.4.4.4.4.4.4.4.4.4.4.4.4.4.4.4.4.4.",
"4.4.4.4.4.4.4.4.4.4.4.4.4.4.4.4.4.4.4.4.4.4.4.4.4.4.4.4.4.4.4.4.4.4.4.4.4.4.4.4.4.4.4.4.4.4.4.4.4.4.4.4.4.4.4.4.4.4.4.4.4.4.4.4.",
"4.4.4.4.4.4.4.4.4.4.4.4.4.4.4.4.4.4.4.4.4.4.4.4.4.4.4.4.4.4.4.4.4.4.4.4.4.4.4.4.4.4.4.4.4.4.4.4.4.4.4.4.4.4.4.4.4.4.4.4.4.4.4.4.",
"4.4.4.4.4.4.4.4.4.4.4.4.4.4.4.4.4.4.4.4.4.4.4.4.4.4.4.4.4.4.4.4.4.4.4.4.4.4.4.4.4.4.4.4.4.4.4.4.4.4.4.4.4.4.4.4.4.4.4.4.4.4.4.4."
};
