/* XPM */
static char *result[] = {
/* columns rows colors chars-per-pixel */
"64 64 132 2 ",
"   c #0E1214",
".  c #111417",
"X  c #111518",
"o  c #171B1F",
"O  c #1D1D1D",
"+  c #171C20",
"@  c #181D21",
"#  c #1B2125",
"$  c #1E2429",
"%  c #202020",
"&  c #22292E",
"*  c #282A2C",
"=  c #262D33",
"-  c #282D31",
";  c #273036",
":  c #293137",
">  c #2C353C",
",  c gray20",
"<  c #31363C",
"1  c #3B3C3C",
"2  c #78262B",
"3  c #2F3840",
"4  c #333D45",
"5  c #3D3F41",
"6  c #3E4145",
"7  c #354048",
"8  c #3A454D",
"9  c #3B4750",
"0  c #3D4A53",
"q  c #474747",
"w  c #434648",
"e  c #4D4E4F",
"r  c #414D55",
"t  c #4E4F50",
"y  c #414F58",
"u  c #4F5153",
"i  c #44535C",
"p  c #4A555D",
"a  c #545454",
"s  c #555A5F",
"d  c #5A5B5B",
"f  c #65605A",
"g  c #475660",
"h  c #495761",
"j  c #4C5A64",
"k  c #4F5E68",
"l  c #5E5E60",
"z  c #515F69",
"x  c #5D6367",
"c  c #53616C",
"v  c #5C666E",
"b  c #566570",
"n  c #596772",
"m  c #5A6974",
"M  c #5F6E79",
"N  c #656565",
"B  c #64686B",
"V  c #6A6A6A",
"C  c #70726C",
"Z  c #616F79",
"A  c #65737D",
"S  c #6B747A",
"D  c #757575",
"F  c #717579",
"G  c #7C7D7D",
"H  c #A8250C",
"J  c #98514F",
"K  c #7A8186",
"L  c #76828A",
"P  c #7C858C",
"I  c #848484",
"U  c #828588",
"Y  c #878889",
"T  c #8B8B8B",
"R  c #948386",
"E  c #878D91",
"W  c #879097",
"Q  c #889096",
"!  c #8D969C",
"~  c #959595",
"^  c #989797",
"/  c #979898",
"(  c #9A9B9B",
")  c #A68487",
"_  c #AE9D9F",
"`  c #B69295",
"'  c #BC9094",
"]  c #B39799",
"[  c #959DA2",
"{  c #9C9FA1",
"}  c #AC9EA0",
"|  c #99A0A6",
" . c #A2A2A2",
".. c #AFA3A5",
"X. c #A0A7AC",
"o. c #A4A9AD",
"O. c #ABACAC",
"+. c #B0A6A7",
"@. c #BAA4A7",
"#. c #BBA6A8",
"$. c #ACAFB2",
"%. c #B4B5B5",
"&. c #B2B7BA",
"*. c #B4B8BA",
"=. c #BCBCBC",
"-. c #C5ACAE",
";. c #CBAAAE",
":. c #D9A3A8",
">. c #DAABAF",
",. c #D1ACB0",
"<. c #C3BABB",
"1. c #D6BBBE",
"2. c #EBBBBF",
"3. c #BFBFC0",
"4. c #D6BEC0",
"5. c #BFC0C1",
"6. c #C3C4C4",
"7. c #CFC6C7",
"8. c #C5C7C8",
"9. c #C7C9CA",
"0. c #CBCCCD",
"q. c #D2C4C6",
"w. c #CDCFD0",
"e. c #CFD1D2",
"r. c #D5D5D5",
"t. c #D7D8D8",
"y. c gray86",
"u. c #E2E2E2",
"i. c #EBEBEB",
"p. c #F2F2F2",
"a. c #FEFEFE",
"s. c #2A52A5",
/* pixels */
"s.s.s.s.s.s.s.s.s.s.s.s.s.s.s.s.s.s.s.s.s.s.s.s.s.s.s.s.s.s.s.s.s.s.s.s.s.s.s.s.s.s.s.s.s.s.s.s.s.s.s.s.s.s.s.s.s.s.s.s.s.s.s.s.",
"s.s.s.s.s.s.s.s.s.s.s.s.s.s.s.s.s.s.s.s.s.s.s.s.s.s.s.s.s.s.s.s.s.s.s.s.s.s.s.s.s.s.s.s.s.s.s.s.s.s.s.s.s.s.s.s.s.s.s.s.s.s.s.s.",
"s.s.s.s.s.s.s.s.s.s.s.s.s.s.s.s.s.s.s.s.s.s.s.s.s.s.s.s.s.s.s.s.s.c A m s.s.s.s.s.s.s.s.s.s.s.s.s.s.s.s.s.s.s.s.s.s.s.s.s.s.s.s.",
"s.s.s.s.s.s.s.s.s.s.s.s.s.s.s.s.s.s.s.s.s.s.s.s.s.s.s.s.s.s.s.s.M g h b s.s.s.s.s.s.s.s.s.s.s.s.s.s.s.s.s.s.s.s.s.s.s.s.s.s.s.s.",
"s.s.s.s.s.s.s.s.s.s.s.s.s.s.s.s.s.s.s.s.s.s.s.s.s.s.s.s.s.s.s.&.n 0 0 0 $ s.s.s.s.s.s.s.s.s.s.s.s.s.s.s.s.s.s.s.s.s.s.s.s.s.s.s.",
"s.s.s.s.s.s.s.s.s.s.s.s.s.s.s.s.s.s.s.s.s.s.s.s.s.s.s.s.s.s.t.8.c 0 0 0 0 s.s.s.s.s.s.s.s.s.s.s.s.s.s.s.s.s.s.s.s.s.s.s.s.s.s.s.",
"s.s.s.s.s.s.s.s.s.s.s.s.s.s.s.s.s.s.s.s.s.s.s.s.s.s.s.s.s.9.r.e.M 0 0 9 g s.s.s.s.s.s.s.s.s.s.s.s.s.s.s.s.s.s.s.s.s.s.s.s.s.s.s.",
"s.s.s.s.s.s.s.s.s.s.s.s.s.s.s.s.s.s.s.s.s.s.s.s.s.s.s.s./ t.e.w.A i 0 0 i - s.s.s.s.s.s.s.s.s.s.s.s.s.s.s.s.s.s.s.s.s.s.s.s.s.s.",
"s.s.s.s.s.s.s.s.s.s.s.s.s.s.s.s.s.s.s.s.s.s.s.s.s.s.I %.y.8.r.w.L i 0 0 0 9 s.s.s.s.s.s.s.s.s.s.s.s.s.s.s.s.s.s.s.s.s.s.s.s.s.s.",
"s.s.s.s.s.s.s.s.s.s.s.s.s.s.s.s.s.s.s.s.s.s.s.G N ( 9.a.a.6.0.w.W i 0 0 0 i s.s.s.s.s.s.s.s.s.s.s.s.s.s.s.s.s.s.s.s.s.s.s.s.s.s.",
"s.s.s.s.s.s.s.s.s.s.s.s.s.s.s.s.s.s.s.s.s.s.$.O.^ y.u.t.r._ %.r.[ h 0 0 0 i s.s.s.s.s.s.s.s.s.s.s.s.s.s.s.s.s.s.s.s.s.s.s.s.s.s.",
"s.s.s.s.s.s.s.s.s.s.s.s.s.s.s.s.s.s.s.s.s.*.w.O.a.p.*. .T ` #.e.$.k 0 0 0 0 4 s.s.s.s.s.s.s.s.s.s.s.s.s.s.s.s.s.s.s.s.s.s.s.s.s.",
"s.s.s.s.s.s.s.s.s.s.s.s.s.s.s.s.s.s.s.s.O.0.O.$.a.a.a.u.%.>.;.e.9.m 0 0 0 0 h s.s.s.s.s.s.s.s.s.s.s.s.s.s.s.s.s.s.s.s.s.s.s.s.s.",
"s.s.s.s.s.s.s.s.s.s.s.s.s.s.s.s.s.s.s.s.9.w.5./ p.u.*.=.a.i.) r.w.f > 9 0 0 i s.s.s.s.s.s.s.s.s.s.s.s.s.s.s.s.s.s.s.s.s.s.s.s.s.",
"s.s.s.s.s.s.s.s.s.s.s.s.s.s.s.s.s.s.s.s.0.e.w...<.O.5.a.a.a.1.0.5.J 2 0 0 0 0 7 s.s.s.s.s.s.s.s.s.s.s.s.s.s.s.s.s.s.s.s.s.s.s.s.",
"s.s.s.s.s.s.s.s.s.s.s.s.s.s.s.s.s.s.s.e 0.e.r.+.) 6.i.u.y.r.-.%.e.R H 9 0 0 0 0 s.s.s.s.s.s.s.s.s.s.s.s.s.s.s.s.s.s.s.s.s.s.s.s.",
"s.s.s.s.s.s.s.s.s.s.s.s.s.s.s.s.s.s.s.e w.e.e.O.4.u.5.5.O.^ :._ e.e.C 0 0 0 0 i s.s.s.s.s.s.s.s.s.s.s.s.s.s.s.s.s.s.s.s.s.s.s.s.",
"s.s.s.s.s.s.s.s.s.s.s.s.s.s.s.s.s.s.s.a r.w.r.o.q.i.u.5.0.0.2.,.e.r.! h 0 0 0 j s.s.s.s.s.s.s.s.s.s.s.s.s.s.s.s.s.s.s.s.s.s.s.s.",
"s.s.s.s.s.s.s.s.s.s.s.s.s.s.s.s.s.s.s.N w.r.0.*.] =.=.a.a.a.a.@.e.e.[ k 0 0 0 i s.s.s.s.s.s.s.s.s.s.s.s.s.s.s.s.s.s.s.s.s.s.s.s.",
"s.s.s.s.s.s.s.s.s.s.s.s.s.s.s.s.s.s.s.N e.e.0.r.' <.8.9.i.i.p.e.e.e.[ c 0 0 0 y : s.s.s.s.s.s.s.s.s.s.s.s.s.s.s.s.s.s.s.s.s.s.s.",
"s.s.s.s.s.s.s.s.s.s.s.s.s.s.s.s.s.s.s.I e.e.0.e.<.7.a.u.%. .%.O.e.e.! g 0 0 0 i 0 s.s.s.s.s.s.s.s.s.s.s.s.s.s.s.s.s.s.s.s.s.s.s.",
"s.s.s.s.s.s.s.s.s.s.s.s.s.s.s.s.s.s.s.I e.e.9.e.e.5.=.t.9.{ ~ 0.e.9.n 0 0 0 0 0 j s.s.s.s.s.s.s.s.s.s.s.s.s.s.s.s.s.s.s.s.s.s.s.",
"s.s.s.s.s.s.s.s.s.s.s.s.s.s.s.s.s.s.s.O.e.e.e.9.0.e.0.8.8.w.w.w.e.X.k 0 0 0 0 i b k & s.s.s.s.s.s.s.s.s.s.s.s.s.s.s.s.s.s.s.s.s.",
"s.s.s.s.s.s.s.s.s.s.s.s.s.s.s.s.s.s.s.O.e.e.e.e.0.e.e.e.e.e.r.e.| A h 0 0 0 0 0 c i h p s.s.s.s.s.s.s.s.s.s.s.s.s.s.s.s.s.s.s.s.",
"s.s.s.s.s.s.s.s.s.s.s.s.s.s.s.s.s.s.s.O.e.e.e.e.e.e.e.e.e.e.e.0.A h 0 0 0 0 0 0 c r i p k 3 s.s.s.s.s.s.s.s.s.s.s.s.s.s.s.s.s.s.",
"s.s.s.s.s.s.s.s.s.s.s.s.s.s.s.s.s.s.s.O.e.e.e.e.e.e.e.e.e.| E n z g 0 0 0 0 0 0 c 0 9 0 i j 7 s.s.s.s.s.s.s.s.s.s.s.s.s.s.s.s.s.",
"s.s.s.s.s.s.s.s.s.s.s.s.s.s.s.s.s.s.% %.e.e.e.e.0.A P v c p i h i 0 0 0 0 0 0 g k 0 0 0 0 i j 3 s.s.s.s.s.s.s.s.s.s.s.s.s.s.s.s.",
"s.s.s.s.s.s.s.s.s.s.s.s.s.s.s.s.s.s.V O.e.e.e.e.*.c c 0 7 4 7 0 0 0 0 0 0 0 0 0 k 0 0 0 0 0 i k s.s.s.s.s.s.s.s.s.s.s.s.s.s.s.s.",
"s.s.s.s.s.s.s.s.s.s.s.s.s.s.s.s.s.T N O.w.e.e.&.S i 0 7 7 3 0 0 0 0 0 0 0 0 0 g k 0 0 0 0 0 0 i h s.s.s.s.s.s.s.s.s.s.s.s.s.s.s.",
"s.s.s.s.s.s.s.s.s.s.s.s.s.s.s.s.I I N O.0.6.S p i 0 0 0 0 0 0 0 0 0 0 0 0 0 0 0 k 0 0 0 0 0 0 0 h s.s.s.s.s.s.s.s.s.s.s.s.s.s.s.",
"s.s.s.s.s.s.s.s.s.s.s.s.s.s.s.s.T I N o.U p i 0 0 0 0 0 0 0 0 0 0 0 0 0 0 0 0 g k 0 0 0 0 0 0 0 i h s.s.s.s.s.s.s.s.s.s.s.s.s.s.",
"s.s.s.s.s.s.s.s.s.s.s.s.s.s.s.G I G d p i y 0 0 0 0 0 0 0 0 0 0 0 0 0 0 0 0 0 0 k 0 0 0 0 0 0 0 0 i s.s.s.s.s.s.s.s.s.s.s.s.s.s.",
"s.s.s.s.s.s.s.s.s.s.s.s.s.s.s.! G C y g 0 0 0 0 0 0 0 0 0 0 0 0 0 0 0 0 0 0 0 g k 0 0 0 0 0 0 0 0 0 i s.s.s.s.s.s.s.s.s.s.s.s.s.",
"s.s.s.s.s.s.s.s.s.s.s.s.s.s.Z P F p i 0 0 0 0 0 0 0 0 0 0 0 0 0 0 0 0 0 0 0 0 i k 0 0 0 0 0 0 0 0 0 0 s.s.s.s.s.s.s.s.s.s.s.s.s.",
"s.s.s.s.s.s.s.s.s.s.s.s.s.s.T J p h 0 0 0 0 0 0 0 0 0 0 0 0 0 0 0 0 0 0 0 0 0 0 h 0 0 8 4 s.> > > 3 > = s.s.s.s.s.s.s.s.s.s.s.s.",
"s.s.s.s.s.s.s.s.s.s.s.s.s.s.Y B i r 0 0 0 0 0 0 0 0 0 0 0 0 0 0 0 0 0 0 0 0 0 g h 0 # s.s.s.s.s.s.s.s.s.s.s.s.s.s.s.s.s.s.s.s.s.",
"s.s.s.s.s.s.s.s.s.s.s.s.s.V D r y 0 0 0 0 0 0 0 0 0 0 0 0 0 0 0 0 0 0 0 0 0 0 h i s.s.s.s.s.s.s.s.s.s.s.s.s.s.s.s.s.s.s.s.s.s.s.",
"s.s.s.s.s.s.s.s.s.s.s.s.s.a s.g 0 0 0 0 0 0 i 0 0 0 0 0 0 0 0 0 0 0 0 0 0 0 0 k s.s.s.s.s.s.s.s.s.s.s.s.s.s.s.s.s.s.s.s.s.s.s.s.",
"s.s.s.s.s.s.s.s.s.s.s.s.s.s.> i 0 0 i g g g g g g 0 i 0 0 0 0 0 0 0 0 0 0 0 0 7 s.s.s.s.s.s.s.s.s.s.s.s.s.s.s.s.s.s.s.s.s.s.s.s.",
"s.s.s.s.s.s.s.s.s.s.s.s.s.s.i 0 0 i i r x G E 5.[ b g 0 0 0 0 0 0 0 0 0 0 0 0 7 s.s.s.s.s.s.s.s.s.s.s.s.s.s.s.s.s.s.s.s.s.s.s.s.",
"s.s.s.s.s.s.s.s.s.s.s.s.s.# i 0 i > s.V %.0.r.0.X.m j 0 0 0 0 0 0 0 0 0 0 0 0 7 s.s.s.s.s.s.s.s.s.s.s.s.s.s.s.s.s.s.s.s.s.s.s.s.",
"s.s.s.s.s.s.s.s.s.s.s.s.s.7 i 8 s.s.s.q *.r.e.e.X.m j 0 0 0 0 0 0 0 0 0 0 0 0 > s.s.s.s.s.s.s.s.s.s.s.s.s.s.s.s.s.s.s.s.s.s.s.s.",
"s.s.s.s.s.s.s.s.s.s.s.s.s.i 3 s.s.s.s.s.&.w.e.e.&.m c 0 0 0 0 0 0 0 0 0 0 0 r # s.s.s.s.s.s.s.s.s.s.s.s.s.s.s.s.s.s.s.s.s.s.s.s.",
"s.s.s.s.s.s.s.s.s.s.s.s.s.: s.s.s.s.s.s.O.0.r.e.&.n k g 0 0 0 0 0 0 0 0 0 0 y s.s.s.s.s.s.s.s.s.s.s.s.s.s.s.s.s.s.s.s.s.s.s.s.s.",
"s.s.s.s.s.s.s.s.s.s.s.s.s.s.s.s.s.s.s.s.( 6.r.6.P b g 0 0 0 0 0 0 0 0 0 0 0 y s.s.s.s.s.s.s.s.s.s.s.s.s.s.s.s.s.s.s.s.s.s.s.s.s.",
"s.s.s.s.s.s.s.s.s.s.s.s.s.s.s.s.s.s.s.s.Y 6.e.e.[ n h 0 0 0 0 0 0 0 0 0 0 0 9 s.s.s.s.s.s.s.s.s.s.s.s.s.s.s.s.s.s.s.s.s.s.s.s.s.",
"s.s.s.s.s.s.s.s.s.s.s.s.s.s.s.s.s.s.s.s.a 5.e.e.e.M k g 9 0 0 0 0 0 0 0 0 0 = s.s.s.s.s.s.s.s.s.s.s.s.s.s.s.s.s.s.s.s.s.s.s.s.s.",
"s.s.s.s.s.s.s.s.s.s.s.s.s.s.s.s.s.s.s.s.s.O.e.e.e.P n g 0 0 0 0 0 0 0 0 0 0 s.s.s.s.s.s.s.s.s.s.s.s.s.s.s.s.s.s.s.s.s.s.s.s.s.s.",
"s.s.s.s.s.s.s.s.s.s.s.s.s.s.s.s.s.s.s.s.s.Y 5.6.0.Q c p 0 0 9 0 9 0 0 9 8 0 s.s.s.s.s.s.s.s.s.s.s.s.s.s.s.s.s.s.s.s.s.s.s.s.s.s.",
"s.s.s.s.s.s.s.s.s.s.s.s.s.s.s.s.s.s.s.s.s.N %.6.6.( h r 9 7 7 7 4 7 4 7 4 4 s.s.s.s.s.s.s.s.s.s.s.s.s.s.s.s.s.s.s.s.s.s.s.s.s.s.",
"s.s.s.s.s.s.s.s.s.s.s.s.s.s.s.s.s.s.s.s.s.1 O.6.5.L p r 9 7 7 7 7 7 7 7 7 # s.s.s.s.s.s.s.s.s.s.s.s.s.s.s.s.s.s.s.s.s.s.s.s.s.s.",
"s.s.s.s.s.s.s.s.s.s.s.s.s.s.s.s.s.s.s.s.s.s.T 6.6.4.h i 0 4 7 7 7 7 7 7 7 s.s.s.s.s.s.s.s.s.s.s.s.s.s.s.s.s.s.s.s.s.s.s.s.s.s.s.",
"s.s.s.s.s.s.s.s.s.s.s.s.s.s.s.s.s.s.s.s.s.s.N O.=.5.S h r 7 7 7 7 7 7 4 > s.s.s.s.s.s.s.s.s.s.s.s.s.s.s.s.s.s.s.s.s.s.s.s.s.s.s.",
"s.s.s.s.s.s.s.s.s.s.s.s.s.s.s.s.s.s.s.s.s.s., / O.O.F w 8 4 4 4 7 4 4 3 s.s.s.s.s.s.s.s.s.s.s.s.s.s.s.s.s.s.s.s.s.s.s.s.s.s.s.s.",
"s.s.s.s.s.s.s.s.s.s.s.s.s.s.s.s.s.s.s.s.s.s.s.I O.O.( 8 4 3 = > > = = = s.s.s.s.s.s.s.s.s.s.s.s.s.s.s.s.s.s.s.s.s.s.s.s.s.s.s.s.",
"s.s.s.s.s.s.s.s.s.s.s.s.s.s.s.s.s.s.s.s.s.s.s.N O.O.{ r 7 3 = = = = = # s.s.s.s.s.s.s.s.s.s.s.s.s.s.s.s.s.s.s.s.s.s.s.s.s.s.s.s.",
"s.s.s.s.s.s.s.s.s.s.s.s.s.s.s.s.s.s.s.s.s.s.s., } O.O.U 9 4 > = = = > s.s.s.s.s.s.s.s.s.s.s.s.s.s.s.s.s.s.s.s.s.s.s.s.s.s.s.s.s.",
"s.s.s.s.s.s.s.s.s.s.s.s.s.s.s.s.s.s.s.s.s.s.s.s.Y O.O.O.s 8 4 = = = @ s.s.s.s.s.s.s.s.s.s.s.s.s.s.s.s.s.s.s.s.s.s.s.s.s.s.s.s.s.",
"s.s.s.s.s.s.s.s.s.s.s.s.s.s.s.s.s.s.s.s.s.s.s.O B ~ ~ ^ Y 5 < > $ $ +     s.s.s.s.s.s.s.s.s.s.s.s.s.s.s.s.s.s.s.s.s.s.s.s.s.s.s.",
"s.s.s.s.s.s.s.s.s.s.s.s.s.s.s.s.s.s.s.s.* , , , V T T E T G 6 > > @ + + @ @ @ @ $ @ @ . s.s.s.s.s.s.s.s.s.s.s.s.s.s.s.s.s.s.s.s.",
"s.s.s.s.s.s.s.s.s.s.s.s.s.s.s.s.s.s.% , , , , 1 N d d I T T T G l s u a u e 6 * o O o @ $ # s.s.s.s.s.s.s.s.s.s.s.s.s.s.s.s.s.s.",
"s.s.s.s.s.s.s.s.s.s.s.s.s.s.s.s.s.s.% s.s.s.s.s.s.s.s.s.s.s.s.s.s.s.s.s.< q q a N x t 5 w 1 ; X s.s.s.s.s.s.s.s.s.s.s.s.s.s.s.s.",
"s.s.s.s.s.s.s.s.s.s.s.s.s.s.s.s.s.s.s.s.s.s.s.s.s.s.s.s.s.s.s.s.s.s.s.s.s.s.s.s.s.s.s.s.s.s.s.s.s.s.s.s.s.s.s.s.s.s.s.s.s.s.s.s.",
"s.s.s.s.s.s.s.s.s.s.s.s.s.s.s.s.s.s.s.s.s.s.s.s.s.s.s.s.s.s.s.s.s.s.s.s.s.s.s.s.s.s.s.s.s.s.s.s.s.s.s.s.s.s.s.s.s.s.s.s.s.s.s.s."
};
