/* XPM */
static char *result[] = {
/* columns rows colors chars-per-pixel */
"64 64 111 2 ",
"   c #7D342E",
".  c #5F4833",
"X  c #2F3940",
"o  c #333D44",
"O  c #473E43",
"+  c #36414A",
"@  c #3A454D",
"#  c #3C484F",
"$  c #3B4750",
"%  c #3D4A53",
"&  c #4B4B4B",
"*  c #414D56",
"=  c #414F58",
"-  c #44525B",
";  c #4B565D",
":  c #50585E",
">  c #5F5F5F",
",  c #475660",
"<  c #485761",
"1  c #4C5A64",
"2  c #4F5E69",
"3  c #525D65",
"4  c #505F6A",
"5  c #556067",
"6  c #5B6165",
"7  c #54626C",
"8  c #5B666D",
"9  c #576671",
"0  c #586772",
"q  c #5C6A75",
"w  c #636364",
"e  c #61696F",
"r  c #6A6A6A",
"t  c #606E78",
"y  c #6F7173",
"u  c #64727B",
"i  c #69747C",
"p  c #6F787E",
"a  c #737373",
"s  c #757778",
"d  c #777878",
"f  c #7B7B7C",
"g  c #B52728",
"h  c #A37670",
"j  c #6A7680",
"k  c #6C7982",
"l  c #737D83",
"z  c #7C8286",
"x  c #758189",
"c  c #7B848A",
"v  c #828383",
"b  c #80878B",
"n  c #8C8C8C",
"m  c #848D95",
"M  c #869097",
"N  c #8B9296",
"B  c #8D969C",
"V  c #949494",
"C  c #969798",
"Z  c #9B9B9B",
"A  c #A79C9D",
"S  c #AA989A",
"D  c #B8979A",
"F  c #959DA3",
"G  c #9B9FA1",
"H  c #9CA1A4",
"J  c #9DA4A9",
"K  c #A1A1A1",
"L  c #A6A7A8",
"P  c #A5A9AC",
"I  c #ABABAB",
"U  c #BEA4A6",
"Y  c #B8A6A8",
"T  c #B1A8A9",
"R  c #AFAFB0",
"E  c #BDAFB1",
"W  c #ADB2B5",
"Q  c #AFB5B8",
"!  c #B3B4B4",
"~  c #BFB5B6",
"^  c #B2B6B8",
"/  c #BFB7B9",
"(  c #B6B9BB",
")  c #BBBCBD",
"_  c #C3A1A5",
"`  c #CFA2A7",
"'  c #C5A6A9",
"]  c #CFA8AC",
"[  c #C1ADB0",
"{  c #C5BDBE",
"}  c #CFBABD",
"|  c #BBBEC1",
" . c #BEC2C4",
".. c #C3C4C5",
"X. c #CAC4C4",
"o. c #C4C7C8",
"O. c #C6C9C9",
"+. c #CBCDCD",
"@. c #D0C8C8",
"#. c #D9CACC",
"$. c #CDCFD0",
"%. c #CFD1D2",
"&. c #D2D3D3",
"*. c #DADADA",
"=. c #E2DFDF",
"-. c #E2E2E2",
";. c #EEE5E6",
":. c #E9E9E9",
">. c #F3F3F3",
",. c #FAFAFA",
"<. c #2A52A5",
/* pixels */
"<.<.<.<.<.<.<.<.<.<.<.<.<.<.<.<.<.<.<.<.<.<.<.<.<.<.<.<.<.<.<.<.<.<.<.<.<.<.<.<.<.<.<.<.<.<.<.<.<.<.<.<.<.<.<.<.<.<.<.<.<.<.<.<.",
"<.<.<.<.<.<.<.<.<.<.<.<.<.<.<.<.<.<.<.<.<.<.<.<.<.<.<.<.<.<.<.<.<.<.<.<.<.<.<.<.<.<.<.<.<.<.<.<.<.<.<.<.<.<.<.<.<.<.<.<.<.<.<.<.",
"<.<.<.<.<.<.<.<.<.<.<.<.<.<.<.<.<.<.<.<.<.<.<.<.<.<.<.<.<.<.<.<.<.<.<.<.<.<.<.<.<.<.<.<.<.<.<.<.<.<.<.<.<.<.<.<.<.<.<.<.<.<.<.<.",
"<.<.<.<.<.<.<.<.<.<.<.<.<.<.<.<.<.<.<.<.<.<.<.<.<.<.<.<.<.<.<.<.<.<.<.<.<.<.<.<.<.<.<.<.<.<.<.<.<.<.<.<.<.<.<.<.<.<.<.<.<.<.<.<.",
"<.<.<.<.<.<.<.<.<.<.<.<.<.<.<.<.<.<.<.<.<.<.<.<.<.<.<.<.<.<.<.<.<.<.<.<.<.<.<.<.<.<.<.<.<.<.<.<.<.<.<.<.<.<.<.<.<.<.<.<.<.<.<.<.",
"<.<.<.<.<.<.<.<.<.<.<.<.<.<.<.<.<.<.<.<.<.<.<.<.<.<.<.<.<.<.<.<.<.<.<.<.<.<.<.<.<.<.<.<.<.<.<.<.<.<.<.<.<.<.<.<.<.<.<.<.<.<.<.<.",
"<.<.<.<.<.<.<.<.<.<.<.<.<.<.<.<.<.<.<.<.<.<.<.<.<.<.<.<.<.<.<.<.<.<.<.<.<.<.<.<.<.<.<.<.<.<.<.<.<.<.<.<.<.<.<.<.<.<.<.<.<.<.<.<.",
"<.<.<.<.<.<.<.<.<.<.<.<.<.<.<.<.<.<.<.<.<.<.<.<.<.<.<.<.<.<.<.<.<.<.<.<.<.<.<.<.<.<.<.<.<.<.<.<.<.<.<.<.<.<.<.<.<.<.<.<.<.<.<.<.",
"<.<.<.<.<.<.<.<.<.<.<.<.<.<.<.<.<.<.<.<.<.<.<.<.<.<.<.<.<.<.<.<.<.<.<.<.<.<.<.<.<.<.<.<.<.<.<.<.<.<.<.<.<.<.<.<.<.<.<.<.<.<.<.<.",
"<.<.<.<.<.<.<.<.<.<.<.<.<.<.<.<.<.<.<.<.<.<.<.<.<.<.<.<.<.<.<.<.<.<.<.<.<.<.<.<.<.<.<.<.<.<.<.<.<.<.<.<.<.<.<.<.<.<.<.<.<.<.<.<.",
"<.<.<.<.<.<.<.<.<.<.<.<.<.<.<.<.<.<.<.<.<.<.<.<.<.<.<.<.<.<.<.<.<.<.<.<.<.<.<.<.<.<.<.<.<.<.<.<.<.<.<.<.<.<.<.<.<.<.<.<.<.<.<.<.",
"<.<.<.<.<.<.<.<.<.<.<.<.<.<.<.<.<.<.<.<.<.<.<.<.<.<.<.<.<.<.<.<.<.<.<.<.<.<.<.<.<.<.<.<.<.<.<.<.<.<.<.<.<.<.<.<.<.<.<.<.<.<.<.<.",
"<.<.<.<.<.<.<.<.<.<.<.<.<.<.<.<.<.<.<.<.<.<.<.<.<.<.<.<.<.<.<.<.<.<.<.<.<.<.<.<.<.<.<.<.<.<.<.<.<.<.<.<.<.<.<.<.<.<.<.<.<.<.<.<.",
"<.<.<.<.<.<.<.<.<.<.<.<.<.<.<.<.<.<.<.<.<.<.<.<.<.<.<.<.<.<.<.<.<.<.<.<.<.<.<.<.<.<.<.<.<.<.<.<.<.<.<.<.<.<.<.<.<.<.<.<.<.<.<.<.",
"<.<.<.<.<.<.<.<.<.<.<.<.<.<.<.<.<.<.<.<.<.<.<.<.<.<.<.<.<.<.<.<.<.<.<.<.<.<.<.<.<.<.<.<.<.<.<.<.<.<.<.<.<.<.<.<.<.<.<.<.<.<.<.<.",
"<.<.<.<.<.<.<.<.<.<.<.<.<.<.<.<.<.<.<.<.<.<.<.<.<.<.<.<.+ $ <.<.<.<.<.<.<.<.<.<.<.<.<.<.<.<.<.<.<.<.<.<.<.<.<.<.<.<.<.<.<.<.<.<.",
"<.<.<.<.<.<.<.<.<.<.<.<.<.<.<.<.<.<.<.<.<.<.<.<.<.<.# - = @ <.<.<.<.<.<.<.<.<.<.<.<.<.<.<.<.<.<.<.<.<.<.<.<.<.<.<.<.<.<.<.<.<.<.",
"<.<.<.<.<.<.<.<.<.<.<.<.<.<.<.<.<.<.<.<.<.<.<.<.<.- - % $ $ <.<.<.<.<.<.<.<.<.<.<.<.<.<.<.<.<.<.<.<.<.<.<.<.<.<.<.<.<.<.<.<.: <.",
"<.<.<.<.<.<.<.<.<.<.<.<.<.<.<.<.<.<.<.<.<.<.<.= , - % $ % $ <.<.<.<.<.<.<.<.<.<.<.<.<.<.<.<.<.<.<.<.<.<.<.<.<.<.<.<.<.<.<.1 G <.",
"<.<.<.<.<.<.<.<.<.<.<.<.<.<.<.<.<.<.<.<.<.<.- < - % % % % + <.<.<.<.<.<.<.<.<.<.<.<.<.<.<.<.<.<.<.<.<.<.<.<.<.<.<.<.<.% - J L <.",
"<.<.<.<.<.<.<.<.<.<.<.<.<.<.<.<.<.<.<.<.<.* < = % % % % $ o <.<.<.<.<.<.<.<.<.<.<.<.<.<.<.<.<.<.<.<.<.<.<.<.<.<.<.+ - * N +.<.<.",
"<.<.<.<.<.<.<.<.<.<.<.<.<.<.<.<.<.<.<.<.<.1 - % % % % % % $ <.<.<.<.<.<.<.<.<.<.<.<.<.<.<.<.<.<.<.<.<.<.<.<.<.<.% - % l +.O.<.<.",
"<.<.<.<.<.<.<.<.<.<.<.<.<.<.<.<.<.<.<.<.- - % % % % % % % % o <.<.<.<.<.<.<.<.<.<.<.<.<.<.<.<.<.<.<.<.<.<.<.<.<.- % 5 ..%.) <.<.",
"<.<.<.<.<.<.<.<.<.<.<.<.<.<.<.<.<.<.<.<.< - * * % % % % % % @ <.<.<.<.<.<.<.<.<.<.<.<.<.<.<.<.<.<.<.<.<.<.<.<.- % - W %.%.L <.<.",
"<.<.<.<.<.<.<.<.<.<.<.<.<.<.<.<.<.% * 3 9 2 1 2 2 2 1 1 2 , , - o <.<.<.<.<.<.<.<.<.<.<.<.<.<.<.<.<.<.<.<.<.% % % N %.%.$.<.<.<.",
"<.<.<.<.<.<.<.<.<.<.<.<.@ = - - - - = = - % % % % - % % % , - , < = % @ + o <.<.<.<.<.<.<.<.<.<.<.<.<.<.<.<.* % s +.%.%.o.<.<.<.",
"<.<.<.<.<.<.<.<.<.* - - % % % % % % % % % % % % % % % % % % % % % % % % % % % % % + <.<.<.<.<.<.<.<.<.<.<.<.% ; ( %.%.%.| <.<.<.",
"<.<.<.<.<.% - - * % % % % % % % % % % % % % % % % % % % % % % % % % % % % % % % % % % % @ <.<.<.<.<.<.<.<.@ % z $.%.%.%.! <.<.<.",
"<.o * - - % % % % % @ $ @ * % - - - % % % % % % % % % % % % % % % % % % % % % % % % % % % $ $ + <.<.<.<.<.% - W %.%.%.$.C <.<.<.",
"* % % $ % % $ $ $ # @ & . ; 9 u x l 0 1 - % % % % % % % % % % % % % % % % % % % % % % % % % % % % * + <.<.% 8 O.%.%.%.+.<.<.<.<.",
"% % % % % % - - < ;   g h ( O.%.%.$.o.F t , % % % % % % % % % % % % % % % % % % % % % % % % % % % % % % % % l $.%.%.%.o.<.<.<.<.",
"<.7 7 7 q u i x B ^ ^ o.&.%.%.%.%.%.&.$.P j 2 % % % % % % % % % % % % % % % % % % % % % % % % % % % % % % - B %.%.%.&.) <.<.<.<.",
"<.<.J )  .O.$.%.%.%.O...[ [ ' U { ) ( %.$.| u - $ % % % % % % % % % % % % % % % % % % % % % % % % % % % - 2 J %.%.%.%.^ <.<.<.<.",
"<.<.<.( &.&.%.{ T _ ` } X.U ] ;.,.+.C O.%.+.z % o # % $ % % % % % % % % % % % % % % % % % % % % % % - , 4 i  .%.%.%.%.L <.<.<.<.",
"<.<.<.<.<.) %.-.X.S #.,.:.R ! ,.>.) ) ) %.%.G ; o @ % % % % % % % % % % % % % % % % % % % % % - - , 4 9 k Q %.%.%.%.%.C <.<.<.<.",
"<.<.<.<.<.<.$.,.*.L +.>.>.! &.*.>.) =.! %.%.( 5 + + % % % % % % % % % $ $ % $ % % % - - 1 1 4 7 7 7 j J O.%.%.%.%.%.+.n <.<.<.<.",
"<.<.<.<.<.<.<.:.*...:...>.( :...*.*.-.| %.%.O.k - % % % % % % % % % - - - , , - 1 2 4 9 7 0 q l B J +.%.%.%.%.%.%.$.n <.<.<.<.<.",
"<.<.<.<.<.<.<.<.*.=.,.@...%.,...) =.X.+.%.%.| j 1 % % % % % % % % - 4 9 0 0 7 9 q j x M c W o.&.%.$.%.&.%.%.%.%.%.) <.<.<.<.<.<.",
"<.<.<.<.<.<.<.<.Z -.>.%.A U @.E D Y +.+.+.%.$.| c - % % % % % % - 2 c J J P B c | $.$.%.$.$.&.+.$.$.O.) ! o.%.%.%.%...<.<.<.<.<.",
"<.<.<.<.<.<.<.<.I ..O.( [ { { { ..$.$.O.+.%.%.%.( 3 % % % % % % % l +.%.%.%.+.$.%.%.%.$.$.+.O.( P B z <.<.K ..+.%.%.+.<.<.<.<.<.",
"<.<.<.<.<.<.<.<.<.! $.%.%.%.$.&.&.+.+.+.&.%.%.%.+.b - % % % % % , i ..%.%.%.%.$.$.+.O.) R Z v <.<.<.<.<.<.<.K ) O.+.{ V <.<.<.<.",
"<.<.<.<.<.<.<.<.<.<.) %.%.%.&.&.%.&.%.$.%.%.%.%.%.( 3 * % % % % - q ! +.+.O...( R C f a <.<.<.<.<.<.<.<.<.<.<.Z I ( ! C <.<.<.<.",
"<.<.<.<.<.<.<.<.<.<.<.v H L I ( ....O.O.O.O.........z - % % % % - 2 C L Z n s w <.<.<.<.<.<.<.<.<.<.<.<.<.<.<.<.n K K V <.<.<.<.",
"<.<.<.<.<.<.<.<.<.<.<.<.<.<.<.<.<.<.<.<.<.<.& 6 v f d 1 * % % % % % & <.<.<.<.<.<.<.<.<.<.<.<.<.<.<.<.<.<.<.<.<.<.r n C n <.<.<.",
"<.<.<.<.<.<.<.<.<.<.<.<.<.<.<.<.<.<.<.<.<.<.<.<.r v v a ; * % % % - @ <.<.<.<.<.<.<.<.<.<.<.<.<.<.<.<.<.<.<.<.<.<.<.<.<.<.<.<.<.",
"<.<.<.<.<.<.<.<.<.<.<.<.<.<.<.<.<.<.<.<.<.<.<.<.<.r v v a ; - % % % % <.<.<.<.<.<.<.<.<.<.<.<.<.<.<.<.<.<.<.<.<.<.<.<.<.<.<.<.<.",
"<.<.<.<.<.<.<.<.<.<.<.<.<.<.<.<.<.<.<.<.<.<.<.<.<.<.<.f v f 3 - - % - $ <.<.<.<.<.<.<.<.<.<.<.<.<.<.<.<.<.<.<.<.<.<.<.<.<.<.<.<.",
"<.<.<.<.<.<.<.<.<.<.<.<.<.<.<.<.<.<.<.<.<.<.<.<.<.<.<.<.<.a v d 6 % - % <.<.<.<.<.<.<.<.<.<.<.<.<.<.<.<.<.<.<.<.<.<.<.<.<.<.<.<.",
"<.<.<.<.<.<.<.<.<.<.<.<.<.<.<.<.<.<.<.<.<.<.<.<.<.<.<.<.<.<.<.w a w <.+ @ <.<.<.<.<.<.<.<.<.<.<.<.<.<.<.<.<.<.<.<.<.<.<.<.<.<.<.",
"<.<.<.<.<.<.<.<.<.<.<.<.<.<.<.<.<.<.<.<.<.<.<.<.<.<.<.<.<.<.<.<.<.<.<.<.<.<.<.<.<.<.<.<.<.<.<.<.<.<.<.<.<.<.<.<.<.<.<.<.<.<.<.<.",
"<.<.<.<.<.<.<.<.<.<.<.<.<.<.<.<.<.<.<.<.<.<.<.<.<.<.<.<.<.<.<.<.<.<.<.<.<.<.<.<.<.<.<.<.<.<.<.<.<.<.<.<.<.<.<.<.<.<.<.<.<.<.<.<.",
"<.<.<.<.<.<.<.<.<.<.<.<.<.<.<.<.<.<.<.<.<.<.<.<.<.<.<.<.<.<.<.<.<.<.<.<.<.<.<.<.<.<.<.<.<.<.<.<.<.<.<.<.<.<.<.<.<.<.<.<.<.<.<.<.",
"<.<.<.<.<.<.<.<.<.<.<.<.<.<.<.<.<.<.<.<.<.<.<.<.<.<.<.<.<.<.<.<.<.<.<.<.<.<.<.<.<.<.<.<.<.<.<.<.<.<.<.<.<.<.<.<.<.<.<.<.<.<.<.<.",
"<.<.<.<.<.<.<.<.<.<.<.<.<.<.<.<.<.<.<.<.<.<.<.<.<.<.<.<.<.<.<.<.<.<.<.<.<.<.<.<.<.<.<.<.<.<.<.<.<.<.<.<.<.<.<.<.<.<.<.<.<.<.<.<.",
"<.<.<.<.<.<.<.<.<.<.<.<.<.<.<.<.<.<.<.<.<.<.<.<.<.<.<.<.<.<.<.<.<.<.<.<.<.<.<.<.<.<.<.<.<.<.<.<.<.<.<.<.<.<.<.<.<.<.<.<.<.<.<.<.",
"<.<.<.<.<.<.<.<.<.<.<.<.<.<.<.<.<.<.<.<.<.<.<.<.<.<.<.<.<.<.<.<.<.<.<.<.<.<.<.<.<.<.<.<.<.<.<.<.<.<.<.<.<.<.<.<.<.<.<.<.<.<.<.<.",
"<.<.<.<.<.<.<.<.<.<.<.<.<.<.<.<.<.<.<.<.<.<.<.<.<.<.<.<.<.<.<.<.<.<.<.<.<.<.<.<.<.<.<.<.<.<.<.<.<.<.<.<.<.<.<.<.<.<.<.<.<.<.<.<.",
"<.<.<.<.<.<.<.<.<.<.<.<.<.<.<.<.<.<.<.<.<.<.<.<.<.<.<.<.<.<.<.<.<.<.<.<.<.<.<.<.<.<.<.<.<.<.<.<.<.<.<.<.<.<.<.<.<.<.<.<.<.<.<.<.",
"<.<.<.<.<.<.<.<.<.<.<.<.<.<.<.<.<.<.<.<.<.<.<.<.<.<.<.<.<.<.<.<.<.<.<.<.<.<.<.<.<.<.<.<.<.<.<.<.<.<.<.<.<.<.<.<.<.<.<.<.<.<.<.<.",
"<.<.<.<.<.<.<.<.<.<.<.<.<.<.<.<.<.<.<.<.<.<.<.<.<.<.<.<.<.<.<.<.<.<.<.<.<.<.<.<.<.<.<.<.<.<.<.<.<.<.<.<.<.<.<.<.<.<.<.<.<.<.<.<.",
"<.<.<.<.<.<.<.<.<.<.<.<.<.<.<.<.<.<.<.<.<.<.<.<.<.<.<.<.<.<.<.<.<.<.<.<.<.<.<.<.<.<.<.<.<.<.<.<.<.<.<.<.<.<.<.<.<.<.<.<.<.<.<.<.",
"<.<.<.<.<.<.<.<.<.<.<.<.<.<.<.<.<.<.<.<.<.<.<.<.<.<.<.<.<.<.<.<.<.<.<.<.<.<.<.<.<.<.<.<.<.<.<.<.<.<.<.<.<.<.<.<.<.<.<.<.<.<.<.<.",
"<.<.<.<.<.<.<.<.<.<.<.<.<.<.<.<.<.<.<.<.<.<.<.<.<.<.<.<.<.<.<.<.<.<.<.<.<.<.<.<.<.<.<.<.<.<.<.<.<.<.<.<.<.<.<.<.<.<.<.<.<.<.<.<.",
"<.<.<.<.<.<.<.<.<.<.<.<.<.<.<.<.<.<.<.<.<.<.<.<.<.<.<.<.<.<.<.<.<.<.<.<.<.<.<.<.<.<.<.<.<.<.<.<.<.<.<.<.<.<.<.<.<.<.<.<.<.<.<.<."
};
