/* XPM */
static char *result[] = {
/* columns rows colors chars-per-pixel */
"64 64 140 2 ",
"   c black",
".  c #010101",
"X  c #020202",
"o  c gray1",
"O  c #040404",
"+  c #070707",
"@  c gray3",
"#  c #0B0B0B",
"$  c #0C0C0C",
"%  c gray5",
"&  c gray6",
"*  c #101010",
"=  c #111111",
"-  c gray7",
";  c #131313",
":  c gray8",
">  c gray9",
",  c #181818",
"<  c #191919",
"1  c #1B1B1B",
"2  c gray11",
"3  c #1D1D1D",
"4  c #1E1E1E",
"5  c gray12",
"6  c #202020",
"7  c #232323",
"8  c gray14",
"9  c #252525",
"0  c gray15",
"q  c #272727",
"w  c #282828",
"e  c gray17",
"r  c #2C2C2C",
"t  c #2D2D2D",
"y  c #2F2F2F",
"u  c gray19",
"i  c gray20",
"p  c #353535",
"a  c gray21",
"s  c #373737",
"d  c #3A3A3A",
"f  c gray23",
"g  c #3C3C3C",
"h  c #3F3F3F",
"j  c gray25",
"k  c #434343",
"l  c #444444",
"z  c gray28",
"x  c #484848",
"c  c #494949",
"v  c gray29",
"b  c #4B4B4B",
"n  c #4C4C4C",
"m  c #505050",
"M  c #535353",
"N  c #555555",
"B  c #565656",
"V  c #585858",
"C  c #5B5B5B",
"Z  c gray36",
"A  c #5F5F5F",
"S  c #606060",
"D  c gray39",
"F  c gray40",
"G  c #676767",
"H  c DimGray",
"J  c gray42",
"K  c #6F6F6F",
"L  c gray45",
"P  c #767676",
"I  c #777777",
"U  c gray47",
"Y  c #797979",
"T  c gray48",
"R  c #7B7B7B",
"E  c gray50",
"W  c #808080",
"Q  c #818181",
"!  c #838383",
"~  c #848484",
"^  c gray52",
"/  c #868686",
"(  c gray53",
")  c #888888",
"_  c gray54",
"`  c #8B8B8B",
"'  c gray55",
"]  c #8D8D8D",
"[  c #8E8E8E",
"{  c gray56",
"}  c #909090",
"|  c gray57",
" . c #929292",
".. c #939393",
"X. c gray59",
"o. c #979797",
"O. c #989898",
"+. c #9B9B9B",
"@. c #9F9F9F",
"#. c #A0A0A0",
"$. c #A2A2A2",
"%. c gray64",
"&. c gray65",
"*. c #A7A7A7",
"=. c #A9A9A9",
"-. c gray67",
";. c gray68",
":. c #AFAFAF",
">. c gray70",
",. c #B4B4B4",
"<. c gray71",
"1. c #B7B7B7",
"2. c #BBBBBB",
"3. c gray75",
"4. c #C3C3C3",
"5. c gray78",
"6. c #CBCBCB",
"7. c gray80",
"8. c #CDCDCD",
"9. c gray81",
"0. c #D2D2D2",
"q. c LightGray",
"w. c gray83",
"e. c #D5D5D5",
"r. c gray84",
"t. c #D7D7D7",
"y. c #DADADA",
"u. c gray86",
"i. c gray87",
"p. c #DFDFDF",
"a. c gray89",
"s. c #E6E6E6",
"d. c #E7E7E7",
"f. c gray92",
"g. c #EFEFEF",
"h. c #F3F3F3",
"j. c gray97",
"k. c #FBFBFB",
"l. c white",
"z. c #11498E",
/* pixels */
"z.z.z.z.z.z.z.z.z.z.z.z.z.z.z.z.z.z.z.z.z.z.z.z.z.z.z.z.z.z.z.z.z.z.z.z.z.z.z.z.z.z.z.z.z.z.z.z.z.z.z.z.z.z.z.z.z.z.z.z.z.z.z.z.",
"z.z.z.z.z.z.z.z.z.z.z.z.z.z.z.z.z.z.z.z.z.z.z.z.z.z.z.z.z.z.z.z.z.z.z.z.z.z.z.z.z.z.z.z.z.z.z.z.z.z.z.z.z.z.z.z.z.z.z.z.z.z.z.z.",
"z.z.z.z.z.z.z.z.z.z.z.z.z.z.z.z.z.z.z.z.z.z.z.z.z.z.z.z.z.z.z.z.z.z.z.z.z.z.z.z.z.z.z.z.z.z.z.z.z.z.z.z.z.z.z.z.z.z.z.z.z.z.z.z.",
"z.z.z.z.z.z.z.z.z.z.z.z.z.z.z.z.z.z.z.z.z.z.z.z.z.z.z.z.z.z.z.z.z.z.z.z.z.z.z.z.z.z.z.z.z.z.z.z.z.z.z.z.z.z.z.z.z.z.z.z.z.z.z.z.",
"z.z.z.z.z.z.z.z.z.z.z.z.z.z.z.z.z.z.z.z.z.z.z.z.z.z.z.z.z.z.z.z.z.z.z.z.z.z.z.z.z.z.z.z.z.z.z.z.z.z.z.z.z.z.z.z.z.z.z.z.z.z.z.z.",
"z.z.z.z.z.z.z.z.z.z.z.z.z.z.z.z.z.z.z.z.z.z.z.z.z.z.z.z.z.a Z L P U v q z.z.z.z.z.z.z.z.z.z.z.z.z.z.z.z.z.z.z.z.z.z.z.z.z.z.z.z.",
"z.z.z.z.z.z.z.z.z.z.z.z.z.z.z.z.z.z.z.z.z.z.z.z.i ^ <.g.l.l.l.d.5.>.@.@.@.I z S z.z.z.z.z.z.z.z.z.z.z.z.z.z.z.z.z.z.z.z.z.z.z.z.",
"z.z.z.z.z.z.z.z.z.z.z.z.z.z.z.z.z.z.z.z.z.< p R @.2.9.d.-.M *                 h 9.=.c z.z.z.z.z.z.z.z.z.z.z.z.z.z.z.z.z.z.z.z.z.",
"z.z.z.z.z.z.z.z.z.z.z.z.z.z.z.z.z.z.z.e $.k.l.l.l.f.t.%.                        @ o.l.8.V z.z.z.z.z.z.z.z.z.z.z.z.z.z.z.z.z.z.z.",
"z.z.z.z.z.z.z.z.z.z.z.z.z.z.z.z.z.z.[ j.l.l.l.l.l.l.l.p.                            A k.l.4.s z.z.z.z.z.z.z.z.z.z.z.z.z.z.z.z.z.",
"z.z.z.z.z.z.z.z.z.z.z.z.z.z.z.z.l r.l.l.l.l.l.l.l.l.l.p.                              M k.l.j.E z.z.z.z.z.z.z.z.z.z.z.z.z.z.z.z.",
"z.z.z.z.z.z.z.z.z.z.z.z.z.z.z.J j.l.l.l.l.l.l.l.l.l.l.d.                                C l.l.l.,.z.z.z.z.z.z.z.z.z.z.z.z.z.z.z.",
"z.z.z.z.z.z.z.z.z.z.z.z.z.z.' l.l.l.l.l.l.l.l.l.l.l.l.l.                                f @.9.l.l.w.7 z.z.z.z.z.z.z.z.z.z.z.z.z.",
"z.z.z.z.z.z.z.z.z.z.z.z.z. .l.l.l.l.l.l.l.l.l.l.l.l.l.l.+                             L k.l.9...f.l.e.t z.z.z.z.z.z.z.z.z.z.z.z.",
"z.z.z.z.z.z.z.z.z.z.z.z./ l.l.l.l.l.l.l.l.l.l.l.l.l.j...1.+.L k #                 o @.l.l.l.l.l.*.>.l.w.z.z.z.z.z.z.z.z.z.z.z.z.",
"z.z.z.z.z.z.z.z.z.z.z.H l.l.l.l.l.l.l.l.l.l.l.l.l.a...h.l.l.l.l.k.5.! y         & 4.l.l.l.l.l.l.l.p...j.4.z.z.z.z.z.z.z.z.z.z.z.",
"z.z.z.z.z.z.z.z.z.z.d h.l.l.l.l.l.l.l.l.l.l.l.l.6.@.l.l.l.l.l.l.l.l.l.l.u.L & > t.l.l.l.l.l.l.l.l.l.j...d.[ z.z.z.z.z.z.z.z.z.z.",
"z.z.z.z.z.z.z.z.z.z.E l.l.l.l.l.l.l.l.l.l.l.l.2.1.l.l.l.l.l.l.l.l.l.l.l.l.l.d.+.l.l.l.l.l.l.l.l.l.l.l.l.@.q.0 z.z.z.z.z.z.z.z.z.",
"z.z.z.z.z.z.z.z.z.E :.j.l.l.l.l.l.l.l.l.l.l.1.5.l.l.l.l.l.l.l.l.l.l.l.l.l.l.l.@.l.l.l.l.l.l.l.l.l.l.l.l.l.R   z.z.z.z.z.z.z.z.z.",
"z.z.z.z.z.z.z.z.4 j.h.:.l.l.l.l.l.l.l.l.l.1.5.l.l.l.l.l.l.l.l.l.l.l.l.l.l.l.l.>.g.l.l.l.l.l.l.l.l.l.l.l.l.a.  # z.z.z.z.z.z.z.z.",
"z.z.z.z.z.z.z.z.O.l.l.@.l.l.l.l.l.l.l.l.1.5.l.l.l.l.l.l.l.l.l.l.l.l.l.l.l.l.l.h.:.l.l.l.l.l.l.l.l.l.l.l.l.l.k   z.z.z.z.z.z.z.z.",
"z.z.z.z.z.z.z.z.h.l.l.%.r 2         @ 6 +.l.l.l.l.l.l.l.l.l.l.l.l.l.l.l.l.l.l.l.%.l.l.l.l.l.l.l.l.l.l.l.l.l.+.  - z.z.z.z.z.z.z.",
"z.z.z.z.z.z.z.T l.l.l.b                 R l.l.l.l.l.l.l.l.l.l.l.l.l.l.l.l.l.l.l.@.l.l.l.l.l.l.l.l.l.l.l.l.l.a.    z.z.z.z.z.z.z.",
"z.z.z.z.z.z.z.7.l.l.f.O                 b l.l.l.l.l.l.l.l.l.l.l.l.l.l.l.l.l.l.l.5.p.l.l.l.l.l.l.l.l.l.l.l.l.l.i   @ z.z.z.z.z.z.",
"z.z.z.z.z.z.3 l.l.l...                  & l.l.l.l.l.l.l.l.l.l.l.l.l.l.l.l.l.l.l.k.-.l.l.l.l.l.l.l.l.l.l.l.l.l.I   % z.z.z.z.z.z.",
"z.z.z.z.z.z.Y l.l.l.k                     t.l.l.l.l.l.l.l.l.l.l.l.l.l.l.l.l.l.l.l.*.l.l.l.l.l.l.l.l.l.l.l.l.l.>.    z.z.z.z.z.z.",
"z.z.z.z.z.z.#.l.l.h.O                     @.l.l.l.l.l.l.l.l.l.l.l.l.l.l.l.l.l.l.l.%.l.l.l.l.l.l.l.l.l.l.l.l.l.f.    z.z.z.z.z.z.",
"z.z.z.z.z.z.0.l.l.>.                      G l.l.l.l.l.l.l.l.l.l.l.l.l.l.l.l.l.l.l.o.u.l.l.l.l.l.l.l.l.l.l.l.l.l.;   . z.z.z.z.z.",
"z.z.z.z.z.z.k.l.l.K                       y l.l.l.l.l.l.l.l.l.l.l.l.l.l.l.l.l.l.@.@ O D f.l.l.l.l.l.l.l.l.l.l.k.5   - z.z.z.z.z.",
"z.z.z.z.z.z.l.l.l.i                         h.l.l.l.l.l.l.l.l.l.l.l.l.l.l.l.k.J         * o.l.l.l.l.l.l.l.l.h...{   = z.z.z.z.z.",
"z.z.z.z.z.z.l.l.k.@                         1.l.l.l.l.l.l.l.l.l.l.l.l.l.l.a.s               f t.l.l.l.l.l.p...k.l.s   z.z.z.z.z.",
"z.z.z.z.z.f l.l.t.                          D f.l.l.l.l.l.l.l.l.l.l.l.l.2.,                   $ o.l.l.l.>.:.l.l.l.3.  z.z.z.z.z.",
"z.z.z.z.z.g l.l.3.                        C f.>.%.%.u.l.l.l.l.l.l.l.l.( O                         M t...p.l.l.l.l.l.y z.z.z.z.z.",
"z.z.z.z.z.u l.k.{ f                     E l.l.l.l.l.4.%.%.1.j.l.l.h.M                               L l.l.l.l.l.l.l.! z.z.z.z.z.",
"z.z.z.z.z.z.l...j.h.b               o +.l.l.l.l.l.l.l.l.l.f.:.*.*.s                                 >.l.l.l.l.l.l.l.| z.z.z.z.z.",
"z.z.z.z.z.z.%.f.l.l.k.A           + -.l.l.l.l.l.l.l.l.l.l.l.l.l.l.1                                 f.l.l.l.l.l.l.l.W z.z.z.z.z.",
"z.z.z.z.z.z.3.l.l.l.l.l.E       # 4.l.l.l.l.l.l.l.l.l.l.l.l.l.l.l.K                               5 l.l.l.l.l.l.l.l.v z.z.z.z.z.",
"z.z.z.z.z.z.&.l.l.l.l.l.l.%.+ # 4.l.l.l.l.l.l.l.l.l.l.l.l.l.l.l.l.4.                              A l.l.l.l.l.l.l.l.z.z.z.z.z.z.",
"z.z.z.z.z.z.Q l.l.l.l.l.l.l.9.` l.l.l.l.l.l.l.l.l.l.l.l.l.l.l.l.l.l.1                             %.l.l.l.l.l.l.l.r.z.z.z.z.z.z.",
"z.z.z.z.z.z.8 l.l.l.l.l.l.l.l.-.l.l.l.l.l.l.l.l.l.l.l.l.l.l.l.l.l.l.R                           o f.l.l.l.l.l.l.l.O.z.z.z.z.z.z.",
"z.z.z.z.z.z.z.y.l.l.l.l.l.l.l.*.l.l.l.l.l.l.l.l.l.l.l.l.l.l.l.l.l.l.9.                          k l.l.l.l.l.l.l.l.n z.z.z.z.z.z.",
"z.z.z.z.z.z.z.~ l.l.l.l.l.l.l.*.l.l.l.l.l.l.l.l.l.l.l.l.l.l.l.l.l.l.l.e                         %.l.l.l.l.l.l.l.a.z.z.z.z.z.z.z.",
"z.z.z.z.z.z.z.q k.l.l.l.l.l.l.%.l.l.l.l.l.l.l.l.l.l.l.l.l.l.l.l.l.l.l.!                       ; j.l.l.l.l.l.l.l._ z.z.z.z.z.z.z.",
"z.z.z.z.z.z.z.z.$.l.l.l.l.l.l.u.4.l.l.l.l.l.l.l.l.l.l.l.l.l.l.l.l.l.l.a.                      ! l.l.l.l.l.l.l.j.z.z.z.z.z.z.z.z.",
"z.z.z.z.z.z.z.z.u k.l.l.l.l.l.l.@.l.l.l.l.l.l.l.l.l.l.l.l.l.l.l.l.l.l.l.k         & q k D ( :.%.l.l.l.l.l.l.l.X.z.z.z.z.z.z.z.z.",
"z.z.z.z.z.z.z.z.z...l.l.l.l.l.l.*.g.l.l.l.l.l.l.l.l.l.l.l.l.l.l.l.l.l.u.%.p.p.a.l.l.l.l.l.l.l.-.g.l.l.l.l.l.s.z.z.z.z.z.z.z.z.z.",
"z.z.z.z.z.z.z.z.z.z.i.l.l.l.l.l.j.o.l.l.l.l.l.l.l.l.l.l.l.l.l.l.l.l.d.+.l.l.l.l.l.l.l.l.l.l.l.k.+.l.l.l.l.l.D z.z.z.z.z.z.z.z.z.",
"z.z.z.z.z.z.z.z.z.z.x k.l.l.l.l.l.:.f.l.l.l.l.l.l.l.l.l.l.l.l.l.l.d.o.l.l.l.l.l.l.l.l.l.l.l.l.l.1.d.l.l.l.&.z.z.z.z.z.z.z.z.z.z.",
"z.z.z.z.z.z.z.z.z.z.z.) l.l.l.l.l.h.z 9.l.l.l.l.l.l.l.l.l.l.l.l.d.o.l.l.l.l.l.l.l.l.l.l.l.l.l.l.l.@.l.a.C z.z.z.z.z.z.z.z.z.z.z.",
"z.z.z.z.z.z.z.z.z.z.z.z.;.l.l.l.l.A     j %.j.l.l.l.l.l.l.l.l.q.%.l.l.l.l.l.l.l.l.l.l.l.l.l.l.l.l.-.A @ : z.z.z.z.z.z.z.z.z.z.z.",
"z.z.z.z.z.z.z.z.z.z.z.z.z.[ j.l.%.          $ C %.d.l.l.l.l.>.2.l.l.l.l.l.l.l.l.l.l.l.l.l.l.l.l.k.k   % z.z.z.z.z.z.z.z.z.z.z.z.",
"z.z.z.z.z.z.z.z.z.z.z.z.z.z.B +.$                   w A { ..u.l.l.l.l.l.l.l.l.l.l.l.l.l.l.l.l.l.G   % z.z.z.z.z.z.z.z.z.z.z.z.z.",
"z.z.z.z.z.z.z.z.z.z.z.z.z.z.z. .h                         M l.l.l.l.l.l.l.l.l.l.l.l.l.l.l.l.k.J   < z.z.z.z.z.z.z.z.z.z.z.z.z.z.",
"z.z.z.z.z.z.z.z.z.z.z.z.z.z.z.z.V z                       O u.l.l.l.l.l.l.l.l.l.l.l.l.l.l.h.b + z.z.z.z.z.z.z.z.z.z.z.z.z.z.z.z.",
"z.z.z.z.z.z.z.z.z.z.z.z.z.z.z.z.z.i s o                     A l.l.l.l.l.l.l.l.l.l.l.l.l.9.8 * z.z.z.z.z.z.z.z.z.z.z.z.z.z.z.z.z.",
"z.z.z.z.z.z.z.z.z.z.z.z.z.z.z.z.z.z.z.r o                   O 6.l.l.l.l.l.l.l.l.l.l.k.( > z.z.z.z.z.z.z.z.z.z.z.z.z.z.z.z.z.z.z.",
"z.z.z.z.z.z.z.z.z.z.z.z.z.z.z.z.z.z.z.z.z., o                 e q.l.l.l.l.l.l.d.>.I p z.z.z.z.z.z.z.z.z.z.z.z.z.z.z.z.z.z.z.z.z.",
"z.z.z.z.z.z.z.z.z.z.z.z.z.z.z.z.z.z.z.z.z.z.z.z.2 X + 5 q z I 3.9.%.@.>.>...F m 9 z.z.z.z.z.z.z.z.z.z.z.z.z.z.z.z.z.z.z.z.z.z.z.",
"z.z.z.z.z.z.z.z.z.z.z.z.z.z.z.z.z.z.z.z.z.z.z.z.z.z.z.z.h U Q { } ] E N 0 z.z.z.z.z.z.z.z.z.z.z.z.z.z.z.z.z.z.z.z.z.z.z.z.z.z.z.",
"z.z.z.z.z.z.z.z.z.z.z.z.z.z.z.z.z.z.z.z.z.z.z.z.z.z.z.z.z.z.z.z.z.z.z.z.z.z.z.z.z.z.z.z.z.z.z.z.z.z.z.z.z.z.z.z.z.z.z.z.z.z.z.z.",
"z.z.z.z.z.z.z.z.z.z.z.z.z.z.z.z.z.z.z.z.z.z.z.z.z.z.z.z.z.z.z.z.z.z.z.z.z.z.z.z.z.z.z.z.z.z.z.z.z.z.z.z.z.z.z.z.z.z.z.z.z.z.z.z.",
"z.z.z.z.z.z.z.z.z.z.z.z.z.z.z.z.z.z.z.z.z.z.z.z.z.z.z.z.z.z.z.z.z.z.z.z.z.z.z.z.z.z.z.z.z.z.z.z.z.z.z.z.z.z.z.z.z.z.z.z.z.z.z.z.",
"z.z.z.z.z.z.z.z.z.z.z.z.z.z.z.z.z.z.z.z.z.z.z.z.z.z.z.z.z.z.z.z.z.z.z.z.z.z.z.z.z.z.z.z.z.z.z.z.z.z.z.z.z.z.z.z.z.z.z.z.z.z.z.z.",
"z.z.z.z.z.z.z.z.z.z.z.z.z.z.z.z.z.z.z.z.z.z.z.z.z.z.z.z.z.z.z.z.z.z.z.z.z.z.z.z.z.z.z.z.z.z.z.z.z.z.z.z.z.z.z.z.z.z.z.z.z.z.z.z."
};
