/* XPM */
static char *result[] = {
/* columns rows colors chars-per-pixel */
"64 64 243 2 ",
"   c #07052D",
".  c #0A0933",
"X  c #070B38",
"o  c #140E37",
"O  c #15153C",
"+  c #1B1336",
"@  c #0D1037",
"#  c #231434",
"$  c #231439",
"%  c #2A1939",
"&  c #331B38",
"*  c #2F172F",
"=  c #392439",
"-  c #2C293C",
";  c #4B2437",
":  c #5A2D34",
">  c #582E34",
",  c #66363A",
"<  c #763A34",
"1  c #783B37",
"2  c #602E33",
"3  c #7E483D",
"4  c #524533",
"5  c #041444",
"6  c #0A1B4E",
"7  c #251C43",
"8  c #331D41",
"9  c #3A1F43",
"0  c #0E2751",
"q  c #252345",
"w  c #2A2846",
"e  c #3B2648",
"r  c #36324B",
"t  c #363657",
"y  c #342D53",
"u  c #083769",
"i  c #053E77",
"p  c #363962",
"a  c #233F6B",
"s  c #42244B",
"d  c #462947",
"f  c #4B2B53",
"g  c #452750",
"h  c #542E57",
"j  c #54315B",
"k  c #5B345E",
"l  c #5B3457",
"z  c #523349",
"x  c #6C3C5D",
"c  c #63375B",
"v  c #6F3A4F",
"b  c #5D3561",
"n  c #623660",
"m  c #673961",
"M  c #703F65",
"N  c #0B4878",
"B  c #2D4971",
"V  c #514555",
"C  c #664348",
"Z  c #794644",
"A  c #69455B",
"S  c #7C435A",
"D  c #784557",
"F  c #745759",
"G  c #7E504E",
"H  c #4C516B",
"J  c #505770",
"K  c #734666",
"L  c #785A67",
"P  c #655062",
"I  c #686677",
"U  c #7E6941",
"Y  c #803B36",
"T  c #88453C",
"R  c #934B3D",
"E  c #994E3C",
"W  c #95553F",
"Q  c #94683E",
"!  c #96663C",
"~  c #A7763D",
"^  c #843B41",
"/  c #844641",
"(  c #874A45",
")  c #944D49",
"_  c #8A5348",
"`  c #9D5342",
"'  c #9B534C",
"]  c #965848",
"[  c #864855",
"{  c #8A4A53",
"}  c #864756",
"|  c #8F5653",
" . c #AA5A44",
".. c #A55847",
"X. c #B15D48",
"o. c #966559",
"O. c #906550",
"+. c #AB6548",
"@. c #B3654D",
"#. c #BB7749",
"$. c #A66956",
"%. c #B66B52",
"&. c #B97358",
"*. c #A47D43",
"=. c #8B5970",
"-. c #85757A",
";. c #967779",
":. c #92696D",
">. c #AC746D",
",. c #C47A50",
"<. c #C37C6E",
"1. c #B28B39",
"2. c #B58A52",
"3. c #9B8E7F",
"4. c #B38977",
"5. c #BBAD7C",
"6. c #D9984B",
"7. c #CA904A",
"8. c #DCA84F",
"9. c #E5B34D",
"0. c #E9B74C",
"q. c #E5AB49",
"w. c #CA9679",
"e. c #C58669",
"r. c #D4AA6D",
"t. c #BDCC7B",
"y. c #EBC950",
"u. c #C7CB75",
"i. c #EBD66C",
"p. c #EBE171",
"a. c #DDE077",
"s. c #105686",
"d. c #0B6699",
"f. c #166F9A",
"g. c #0C75A6",
"h. c #1378AA",
"j. c #1378AD",
"k. c #267BA8",
"l. c #206F99",
"z. c #546989",
"x. c #767686",
"c. c #837D85",
"v. c #B77A88",
"b. c #A87783",
"n. c #C07C8B",
"m. c #1887B8",
"M. c #1589B4",
"N. c #238CBB",
"B. c #3497B9",
"V. c #798699",
"C. c #798698",
"Z. c #6F8D9E",
"A. c #558BB8",
"S. c #538FB1",
"D. c #6B95B2",
"F. c #6890AC",
"G. c #79ADB6",
"H. c #5A819B",
"J. c #3698CA",
"K. c #3090C7",
"L. c #36A5D1",
"P. c #1695C2",
"I. c #4A9CD4",
"U. c #509DCE",
"Y. c #48A6D7",
"T. c #57A7D8",
"R. c #50AED2",
"E. c #78A9C6",
"W. c #68B6DB",
"Q. c #77B6D4",
"!. c #50B1E2",
"~. c #74BBE1",
"^. c #7DC0E3",
"/. c #74C2E4",
"(. c #67C4E4",
"). c #6EC4D5",
"_. c #978987",
"`. c #938C8E",
"'. c #BE828B",
"]. c #A4948B",
"[. c #A79994",
"{. c #B59D94",
"}. c #95BA9B",
"|. c #B9A596",
" X c #AFA59B",
".X c #BEB2A3",
"XX c #C5848D",
"oX c #C69B85",
"OX c #C98893",
"+X c #D28D94",
"@X c #D48F98",
"#X c #D69698",
"$X c #CE9894",
"%X c #C8A88F",
"&X c #C9AA91",
"*X c #C6A793",
"=X c #D8A999",
"-X c #C4B29C",
";X c #CFB795",
":X c #E4A799",
">X c #E4B79E",
",X c #C5B6A5",
"<X c #D6BBA5",
"1X c #D5AAA7",
"2X c #E2B3A7",
"3X c #A8C5A2",
"4X c #BBD7B5",
"5X c #D9C2A5",
"6X c #D8C8B5",
"7X c #D0D5B1",
"8X c #E7C4A6",
"9X c #F3C8AB",
"0X c #EBC5B3",
"qX c #E6CCB4",
"wX c #E9D8BD",
"eX c #F5D8B9",
"rX c #F4CEB2",
"tX c #DDDF86",
"yX c #88B0CD",
"uX c #9EBBD8",
"iX c #90C8D7",
"pX c #89CAE5",
"aX c #92CDE5",
"sX c #94D1E9",
"dX c #98D2E6",
"fX c #A6D4E9",
"gX c #B8DBEB",
"hX c #ABC7E6",
"jX c #BBE2ED",
"kX c #C7D7CE",
"lX c #EEDDC1",
"zX c #E8D4C6",
"xX c #F0DEC7",
"cX c #FDE9C6",
"vX c #FDEACA",
"bX c #F6E4C7",
"nX c #F7EECF",
"mX c #C6DEEA",
"MX c #D2DBE0",
"NX c #CEE9F1",
"BX c #E8F5F7",
"VX c #EDF2F3",
"CX c #11498E",
/* pixels */
"CXCXCXCXCXCXCXB.CXCXCXCXCXCXCXCXCXCXCXCXCXCXCXCXCXCXCXCXCXCXCXCXCXCXCXCXCXCXCXCXCXCXCXCXCXCXCXCXCXCXCXCXCXCXCXCXCXCXCXCXCXCXCXCX",
"CXCXCXCXCXCXB.jXS.CXCXCXCXCXCXCXCXCXCXCXCXCXCXCXCXCXCXCXCXCXCXCXCXCXCXCXCXCXCXCXCXCXCXCXCXCXCXCXCXCXCXCXCXCXCXCXCXCXCXCXCXCXCXCX",
"CXCXCXCXCXCXm.(.N.CXCXCXCXCXCXCXCXCXCXCXCXCXCXCXCXCXCXCXCXCXCXCXCXCXCXCXCXCXCXCXCXCXCXCXCXCXCXCXCXCXCXCXCXCXCXCXCXCXCXCXCXCXCXCX",
"CXCXCXCXCXCXCXh.CXCXCXCXCXCXCXCXCXCXCXCXCXCXCXCXCXCXCXCXCXCXCXCXCXCXCXCXCXCXCXCXCXCXCXCXCXCXCXCXCXCXCXCXCXCXCXCXCXCXCXCXCXCXCXCX",
"CXCXCXCXCXCXCXCXCXCXCXCXCXCXCXCXCXCXCXCXCXCXCXCXCXCXCXCXCXCXCXCXCXCXCXCXCXCXCXCXCXCXCXCXCXCXCXCXCXCXCXCXCXCXCXCXCXCXCXCXCXCXCXCX",
"CXCXCXCXCXCXCXCXCXCXCXCXCXCXCXCXCXCXCXCXCXCXCXCXCXCXCXCXCXCXCXCXCXCXCXCXCXCXCXCXCXCXCXCXCXCXCXCXCXCXCXCXCXCXCXCXCXCXCXCXCXCXCXCX",
"CXCXCXCXCXCXCXCXCXCXCXCXCXCXCXCXCXCXCXCXCXCXCXCXCXCXCXCXCXCXCXCXCXCXCXCXCXCXCXCXCXCXCXCXCXCXCXCXCXCXCXCXCXCXCXCXCXCXCXCXCXCXCXCX",
"CXCXCXCXCXCXCXg.N.CXCXCXCXCXCXCXCXCXCXCXCXCXCXCXCXCXCXCXCXCXCXCXCXCXCXCXCXCXCXCXCXCXCXCXCXCXCXCXCXCXCXCXCXCXCXCXCXCXCXCXCXCXCXCX",
"CXCXCXCXCXCXm.CX!.M.CXCXCXCXCXCXCXCXCXCXCXCXCXCXCXCXCXCXCXCXCXCXCXCXCXCXCXCXCXCXCXCXCXCXCXCXCXCXCXCXCXCXCXCXCXCXCXCXCXCXCXCXCXCX",
"CXCXCXCXCXCXj.m.m.h.CXCXCXCXCXCXCXCXCXCXCXCXCXCXCXCXCXCXCXCXCXCXCXCXCXCXCXCXCXCXCXCXCXCXCXCXCXCXCXCXCXCXCXCXCXCXCXCXCXCXCXCXCXCX",
"CXCXCXCXCXCXCXd.d.CXCXCXCXCXCXCXCXCXCXCXCXCXCXCXCXo.o.T / / T 3 T T 1 CXCXCXCXCXCXCXCXCXCXCXCXCXCXCXCXCXCXCXCXCXCXCXCXCXCXCXCXCX",
"CXCXCXCXCXCXCXCXCXCXW.CXCXCXCXCXCXCXCXCXCXCX-.4...&.@. . . . . . . .] ( h h e CXCXCXCXCXCXCXCXCXCXCXCXCXCXCXCXCXCXCXCXCXCXCXCXCX",
"CXCXCXCXCXCXCXCXCXL.jX!.CXCXCXCXCXCXCXCXC <X>.&.%. . . . . . . . . . . ...) l e CXCXCXCXCXCXCXCXCXCXCXCXCXCXCXCXCXCXCXCXCXCXCXCX",
"CXCXCXCXCXCXCXCXCXL.M.CXCXCXCXCXCXCXCXo.6Xe.@. .+... . . ...........`  . . .{ k 9 CXCXCXCXCXCXCXCXCXCXCXCXCXCXCXCXCXCXCXCXCXCXCX",
"CXCXCXCXCXCXCXCXCXCXCXCXCXCXCXCXCXCX=.zX>. . . . . . . . . . . ..... . . . . .[ c % CXCXCXCXCXCXCXCXCXCXCXCXCXCXCXCXCXCXCXCXCXCX",
"CXCXCXCXCX).R.CXCXCXCXCXCXCXCXCXCX-.<X%.` E E E E  . . . .E E E E E E  ... . . .{ k 8 CXCXCXCXCXCXCXCXCXCXCXCXCXCXCXCXCXCXCXCXCX",
"CXCXCXCXQ.BXmXU.CXCXCXCXCXCXCXCXC =X%.` 4.&X&X%X&X]  . .w.%X&X&X&X&X&X] `  . . . .} h e CXCXCXCXCXCXCXCXCXCXCXCXCXCXCXCXCXCXCXCX",
"CXCXCXB.NXBX/.N.k.CXCXCXCXCXCXCX] @.T 4.eXvXcXcXcX5X8X8XeXcXvXvXvXvXvX5XT  . ... ...b s % CXCXCXCXCXCXCXCXCXCXCXCXCXCXCXCXCXCXCX",
"CXCXCXK./.(.!.N.d.CXCXCXCXCXCX, +.@.<XqXlXlXbXwXwXlXlXlXlXlXlXnXvXbXlXlX5X` T  . ...{ j 9 CXCXCXCXCXCXCXCXCXCXCXCXCXCXCXCXCXCXCX",
"CXCXCXg.J.Y.Y.N.f.CXCXCXCXCX; +.! ! ! Q ! Q Q Q O.Q ! ! Q O.2.nXnX5.Q Q Q ! W R  . .' x e CXCXCXCXCXCXCXCXCXCXCXCXCX:.| CXCXCXCX",
"CXCXCXCXg.K.m.k.CXCXCXCXCXCX2 2.q.9.9.9.0.0.9.9.9.9.9.9.9.9.9.9.9.9.9.9.9.y.! T Y ....{ f # CXCXCXCXCXCXCXCXCXCXCX|.VXeXo.CXCXCX",
"CXCXCXCXCXCXCXCXCXCXCXCXCXC 4.8.&.Z.V.V.C.C.C.C.V.V.V.V.V.V.V.V.V.V.V.V.&.6.q.7.T ,  .{ b % CXCXCXCXCXCXCXCXCX, E 8X8XrX>.CXCXCX",
"CXCXCXCXCXCXCXCXCXCXCXCX& *.r.&.D.!.gXmX~.Y.pXW.fXmX^.^./.gXNXjXfX~.~.T.F.F.3.y.q.> 2 { b f + + CXCXCXCXCXCXCX3  .&.<.>X+Xz CXCX",
"CXCXCXCXCXCXCXCXCXCXCX;.;.7.e.A.Y.BXBXfXsXyXpXaXBXfXsXsXsXdXfXdXyXaXsXpXT.W.U._.0.@.z c b Z ,X5X;.CXCXCXCXCXCX..%. .{ K h CXCXCX",
"CXCXCXCXCXCXCXCXCXCXCX$.&.@.A.I.gXBXsXaXD.  J pXsXsXsXsXsXsXaXz.. z.aXdXaXW.W.K.;.9.y q g *X#X#X+XA CXCXCXCXCX+.@.' b g CXCXCXCX",
"CXCXCXCXCXCXCXCXCXCXC oX1.6.A.T.mXBXsXE.. . @ D.sXsXsXsXsXsXG.  . . D.sXsXsXW.I.K.i./ 7 7 :.s r =.OXd CXCXCX] @...c f CXCXCXCXCX",
"CXCXCXCXCXCXCXCXCXCXC {.1.6.S.!.sXsXsXQ..     Z.dXdXdXdXsXsXE.  . . D.sXsXsX~.I.J.y.] q q l =XcXqX+X; CXCXCXR  .M f CXCXCXCXCXCX",
"CXCXCXCXCXCXJ.CXCXCXC w.1.6.A.T.dXdXdXE.. . . G.a.p.y.p.4XdXE.  . . D.dXsXsXpXI.J.y.| 7 5 ; :XvXcX1Xd CXCXCXR  .x $ CXCXCXCXCXCX",
"CXCXCXN.Y.!.J.CXCXCXC %X~ q.S.W.sXsXsXyXB @ - |.i.! ! 2.i.kXE.  X t E.sXsXpX~.I.K.y._ 6 X ; :XcXcX1X; CXCXCX.. .c CXCXCXCXCXCXCX",
"CXCXCXk.j.j.g.CXCXCXV 8XO.~ 5.R.pXsXsXsXpXZ.r.*.> `.].L +.i.4XH.H.yXsXsXsXpXT.I.}.6._ 5 X z :XcXeX#Xd CXCXY  .{ = CXCXCXCXCXCXCX",
"CXCXCXCXCXCXCXCXCXCXz 9XI R y.u.W.sX~.~.iXa.2._.r P 6Xw * 7.i.a.4XsXdXQ.aXT.G.u.0.,.7 5 X 9 9XcXrX=.& CXCXT  .S 9 CXCXCXCXCXCXCX",
"CXCXCXCXCXCXCXCXCXCXCX:.9XL ` 0.3X3X3X3Xi.7.>.xXqX6XbX6X6XF ~ 0.a.4XiXY.U.}.u.y.7.l 5 O ;.>XeX9X:.CXCXCXCXT { m 9 CXCXCXCXCXCXCX",
"CXCXCXCXCXCXCXCXCXCXCXCX_.XXD > 6.6.6.6.7.C 6XvXvXvXvXvXnXbXb.( 8.6.u.u.u.y.6.7., $ @ A #X:X:XOXf CXCXCX1 @.} f CXCXCXCXCXCXCXCX",
"CXCXCXCXCXCXf.g.CXCXCXCXCXd O g = & & = d 6XbXbXvXvXvXvXvXxXxX`.= = ] &.#.#.v * . f s $ =.OXd s CXCXCXCX< ,.} s CXCXCXCXCXCXCXCX",
"CXCXCXCXCXCXCXCXCXCXCXCXCXCXCXf n OXbXbXbXvX[.`.lXvXnXvX6XP nXvXcXeX:.b l h f h j n f + CX$ CXCXCXCXCXCX< @.} s CXCXCXCXCXCXCXCX",
"CXCXCXCXCXCXCXCXCXL.CXCXCXCXCXCXf b.eXvXvXcXnX[.`.].].[.-.6XvXnXcXvX0X2X@Xv.c d h l e CXCXCXCXCXCXCXCXCX< X.} 9 CXCXCXCXCXCXCXCX",
"CXCXCXCXCXCXCXCXh.L.g.CXCXCXCXCXCXh '.wXvXvXvXvX[._._._.6XvXvXvXvXvXcX0X+X=.n h d e CXCXCXCXCXCXCXCXCXCX1  .} s CXCXCXCXCXCXCXCX",
"CXCXCXCXCXCXCXCXCXCXCXCXCXCXCXCXCXCXd ;.2XvXvXvXvXvXvXvXvXvXvXvXvXvX0X@X=.h 7 CXCXCXCX>.$XG 3 CXCXCXCXCX< +.{ s CXCXCXCXCXCXCXCX",
"CXCXCXCXCXCXCXCXCXCXCXCXCXCXCXCXCXCXCXCXg XX+X@XzXvXvXbXnXnXxXn.$X+XOXK h 7 y 5 N M.CX>X>.&X'.CXCXCXCXCX<  .} s CXCXCXCXCXCXCXCX",
"CXCXCXCXCXCXCXCX( ] CXCXCXCXCXCXCXCXCXCXCX$ A n.XXXX'.n.n.n.n.v.v.A + . . 5 s.m.M.F 4.=X%XeX_ / CXCXCXCX<  .} s CXCXCXCXCXCXCXCX",
"CXCXCXCXCXCXCXCXw.xX>.CXCXCXCXCXCXCXCXCXCXCXq $ p p $ 5 $ y p p p 6 w w O l.N j.P xXwX9XeX:XxX5XCXCXCXCX1 ..} e CXCXCXCXCXCXCXCX",
"CXCXCXCXCXCXCX$X<.+XqX:.CX:.' CXCXCXCX^ 1 o q O  XhX6 6 6 hXhXuXE.p w % g f C J Z =X>XcX0X#X:X>.1 CXCXCX) ' j s CXCXCXCXCXCXCXCX",
"CXCXCXCXCXCX[ $.:X+X#X8Xw.=X2.E E R R +._ + r + yXVXd.u i NXVXE.I 0 O d f ) X. ...<.+XqX0X@XA CXCXCXCX< %.' f CXCXCXCXCXCXCXCXCX",
"CXCXCXCXCXCX( =X#X:X+X9XeXe...K  .X...x v o U 4 uXdXj.N i VXMXJ `.t 1.= j S  . .} } +X+X#XK CXCXCXCXCX/  .c 8 CXCXCXCXCXCXCXCXCX",
"CXCXCXCXCXCXCX:.n.@X:X:X#X=.c b x x x b % e r c.t mXN.d.N MXV -X.XH V - + k x A n b =.+Xv.9 CXCXCXCX| +.E h % CXCXCXCXCXCXCXCXCX",
"CXCXCXCXCXCXCXCX* v.OXn.:.b b k j k j CXCXCX7 ].;XH d.N i r <X5X.XV w t r @ @ t j b h % % CXCXCXCXCX< $.v j % CXCXCXCXCXCXCXCXCX",
"CXCXCXCXCXCXCXCXCXCX+ + $ $ # # # # # CXCXCXq ].*X.XB u a .X-X5X,X`.t r @   N g.u CXCXCXCXCXCXCXCX1 ..x h CXCXCXCXCXCXCXCXCXCXCX",
"CXCXCXCXCXCXCXCXCXCXCXCXCXCXCXCXCXCXCXCXCXCXq ].-. X XV {.;X_.5X.XI t w + O N g.6 CXCXCXCXCXCXCX:...| c CXCXCXCXCXCXCXCXCXCXCXCX",
"CXCXCXCXCXCXCXCXCXCXCXCXCXCXCXCXCXCXCXCXCXCXw ].5X{.*XL {.5X|.5X[.J H q r + N m.0 CXCXCXCX2 , ( ` ) m s CXCXCXCXCXCXCXCXCXCXCXCX",
"CXCXCXCXCXCXCXCXCXCXCXCXCXCXCXCXCXCXCXCX: ; r I c.z.`.q 3. XI x.x.H t r r . N P.u CXCX, o...` ..M x s CXCXCXCXCXCXCXCXCXCXCXCXCX",
"CXCXCXCXCXCXCXCXCXCXCXCXCXCXCXCXCXCXCX| e.&.4 % e H - w w H J j + + o o . 0 M.N f., / %.[ m n b s % CXCXCXCXCXCXCXCXCXCXCXCXCXCX",
"CXCXCXCXCXCXCXCXCXCXCXCXCXCXCXCXCXCXCX$.%. .X.X.X.s 8 O g $ $ z @.X.[ c o 0 u h.t ] ' S n j h # CXCXCXCXCXCXCXCXCXCXCXCXCXCXCXCX",
"CXCXCXCXCXCXCXCXCXCXCXCXCXCXCXCXCX> CX . ...) ) ..M K S } n K ,.%. . .x O s.& e b [ j f f 8 CXCXCXCXCXCXCXCXCXCXCXCXCXCXCXCXCXCX",
"CXCXCXCXCXCXCXCXCXCXCXCXCXCXCXCXCX: $. ...S n n S m } } } n K ,.@. .X.x o f c m f d CXCXCXCXCXCXCXCXCXCXCXCXCXCXCXCXCXCXCXCXCXCX",
"CXCXCXCXCXCXCXCXCXCXCXCXCXCXCXCXCX2 %. . .{ f 8 8 8 8 8 8 8 d %.%. . .x o k f 8 CXCXCXCXCXCXCXCXCXCXCXCXCXCXCXCXCXCXCXCXCXCXCXCX",
"CXCXCXCXCXCXCXCXCXCXCXCXCXCXCXCXCX2 X. ...' s CXCXCXCXCXCXCX; X.+. . .x o 8 CXCXCXCXCXCXCXCXCXCXCXCXCXCXCXCXCXCXCXCXCXCXCXCXCXCX",
"CXCXCXCXCXCXCXCXCXCXCXCXCXCXCXCXCX;  . . .' d CXCXCXCXCXCXCXCXY  .{ n & CXCXCXCXCXCXCXCXCXCXCXCXCXCXCXCXCXCXCXCXCXCXCXCXCXCXCXCX",
"CXCXCXCXCXCXCXCXCXCXCXCXCXCXCXCXCXCX,  . . ./ d CXCXCXCXCXCXCX, ` [ b $ CXCXCXCXCXCXCXCXCXCXCXCXCXCXCXCXCXCXCXCXCXCXCXCXCXCXCXCX",
"CXCXCXCXCXCXCXCXCXCXCXCXCXCXCXCXCXCX3 w.w.w.w.XXd CXCXCXCXCXCXe k b b % CXCXCXCXCXCXCXCXCXCXCXCXCXCXCXCXCXCXCXCXCXCXCXCXCXCXCXCX",
"CXCXCXCXCXCXCXCXCXCXCXCXCXCXCXCXCXCXF cXcXeX0X1Xd CXCXCXCXCX> D b k M & CXCXCXCXCXCXCXCXCXCXCXCXCXCXCXCXCXCXCXCXCXCXCXCXCXCXCXCX",
"CXCXCXCXCXCXCXCXCXCXCXCXCXCXCXCXCXCXF nXbX1Xv.=.CXCXCXCXCXCXZ >X$Xv.b.8 CXCXCXCXCXCXCXCXCXCXCXCXCXCXCXCXCXCXCXCXCXCXCXCXCXCXCXCX",
"CXCXCXCXCXCXCXCXCXCXCXCXCXCXCXCXCXCXCXb.#XK e CXCXCXCXCXCXCXG eX:X+XM CXCXCXCXCXCXCXCXCXCXCXCXCXCXCXCXCXCXCXCXCXCXCXCXCXCXCXCXCX",
"CXCXCXCXCXCXCXCXCXCXCXCXCXCXCXCXCXCXCXCX& CXCXCXCXCXCXCXCXCXz v.v.K CXCXCXCXCXCXCXCXCXCXCXCXCXCXCXCXCXCXCXCXCXCXCXCXCXCXCXCXCXCX",
"CXCXCXCXCXCXCXCXCXCXCXCXCXCXCXCXCXCXCXCXCXCXCXCXCXCXCXCXCXCXCX$ $ CXCXCXCXCXCXCXCXCXCXCXCXCXCXCXCXCXCXCXCXCXCXCXCXCXCXCXCXCXCXCX"
};
