/* XPM */
static char *result[] = {
/* columns rows colors chars-per-pixel */
"64 64 115 2 ",
"   c #010100",
".  c #0A0602",
"X  c #0C0805",
"o  c #0F0C08",
"O  c #100700",
"+  c #140A00",
"@  c #1B0D00",
"#  c #110D09",
"$  c #1C150E",
"%  c #1E1711",
"&  c #1E1811",
"*  c #241200",
"=  c #2C1600",
"-  c #2F1800",
";  c #301700",
":  c #341A00",
">  c #3B1D00",
",  c #251E15",
"<  c #2A2219",
"1  c #31271D",
"2  c #32291E",
"3  c #372D21",
"4  c #382D21",
"5  c #3C3023",
"6  c #432100",
"7  c #4A2500",
"8  c #542A00",
"9  c #5C2D00",
"0  c #4E3113",
"q  c #503113",
"w  c #663200",
"e  c #6D3600",
"r  c #703700",
"t  c #703800",
"y  c #743D09",
"u  c #4C3A27",
"i  c #453729",
"p  c #4D3E2E",
"a  c #6E471F",
"s  c #7D4715",
"d  c #4F402F",
"f  c #55422D",
"g  c #534331",
"h  c #594734",
"j  c #5E4B38",
"k  c #61482D",
"l  c #624931",
"z  c #604D39",
"x  c #6E5031",
"c  c #65533D",
"v  c #6D533A",
"b  c #6F5A42",
"n  c #735C44",
"m  c #786047",
"M  c #776248",
"N  c #7B654B",
"B  c #854F1B",
"V  c #87511D",
"C  c #88521E",
"Z  c #955F2D",
"A  c #A5723E",
"S  c #886846",
"D  c #856B4F",
"F  c #8A6E4A",
"G  c #96754F",
"H  c #9C754F",
"J  c #876E51",
"K  c #8B7355",
"L  c #907455",
"P  c #977855",
"I  c #9C7B53",
"U  c #937758",
"Y  c #977A5A",
"T  c #9C7E5D",
"R  c #AB7640",
"E  c #AD7842",
"W  c #B37D47",
"Q  c #A37F59",
"!  c #9F815F",
"~  c #B6824E",
"^  c #A78459",
"/  c #A98559",
"(  c #B58655",
")  c #BA8955",
"_  c #B78E5F",
"`  c #AA8A66",
"'  c #BF9B73",
"]  c #C08C56",
"[  c #C59767",
"{  c #CD9F6C",
"}  c #C69E75",
"|  c #CDA06C",
" . c #C7A379",
".. c #CDAB7E",
"X. c #DEAB74",
"o. c #D1AA7E",
"O. c #E2AE76",
"+. c #EBB379",
"@. c #FABC7F",
"#. c #D2AE80",
"$. c #DDB686",
"%. c #DEB788",
"&. c #E2B586",
"*. c #EBBA85",
"=. c #E4BC8B",
"-. c #EABD8C",
";. c #FCBE80",
":. c #EEC18E",
">. c #FDC182",
",. c #EEC591",
"<. c #F5C693",
"1. c #FECB97",
"2. c #FDCD98",
"3. c #FDD09A",
"4. c #2A52A5",
/* pixels */
"4.4.4.4.4.4.4.4.4.4.4.4.4.4.4.4.4.4.4.4.4.4.4.4.4.4.4.4.4.4.4.4.4.4.4.4.4.4.4.4.4.4.4.4.4.4.4.4.4.4.4.4.4.4.4.4.4.4.4.4.4.4.4.4.",
"4.4.4.4.4.4.4.4.4.4.4.4.4.4.4.4.4.4.4.4.4.4.4.4.4.4.4.4.4.4.4.4.4.4.4.4.4.4.4.4.4.4.4.4.4.4.4.4.4.4.4.4.4.4.4.4.4.4.4.4.4.4.4.4.",
"4.4.4.4.4.4.4.4.4.4.4.4.4.4.4.4.4.4.4.4.4.4.4.4.4.4.4.4.4.4.4.4.4.4.4.4.4.4.4.4.4.4.4.4.4.4.4.4.4.4.4.4.4.4.4.4.4.4.4.4.4.4.4.4.",
"4.4.4.4.4.4.4.4.4.4.4.4.4.4.4.4.4.4.4.4.4.4.4.4.4.4.4.4.4.4.4.4.4.4.4.4.4.4.4.4.4.4.4.4.4.4.4.4.4.4.4.4.4.4.4.4.4.4.4.4.4.4.4.4.",
"4.4.4.4.4.4.4.4.4.4.4.4.4.4.4.4.4.4.4.4.4.4.4.4.4.4.4.4.4.4.4.4.4.4.4.4.4.4.4.4.4.4.4.4.4.4.4.4.4.4.4.4.4.4.4.4.4.4.4.4.4.4.4.4.",
"4.4.4.4.4.4.4.4.4.4.4.4.4.4.4.4.4.4.4.4.4.4.4.4.4.4.4.4.4.4.4.4.4.4.4.4.4.4.4.4.4.4.4.4.4.4.4.4.4.4.4.4.4.4.4.4.4.4.4.4.4.4.4.4.",
"4.4.4.4.4.4.4.4.4.4.4.4.4.4.4.4.4.4.4.4.4.4.4.4.4.4.4.4.4.4.4.4.4.4.4.4.4.4.4.4.4.4.4.4.4.4.4.4.4.4.4.4.4.4.4.4.4.4.4.4.4.4.4.4.",
"4.4.4.4.4.4.4.4.4.4.4.4.4.4.4.4.4.4.4.4.4.4.4.4.4.4.4.4.4.4.4.4.4.4.4.4.4.4.4.4.4.4.4.4.4.4.4.4.4.4.4.4.4.4.4.4.4.4.4.4.4.4.4.4.",
"4.4.4.4.4.4.4.4.4.4.4.4.4.4.4.4.4.4.4.4.4.4.4.4.4.4.4.4.4.4.4.4.4.4.4.4.4.4.4.4.4.4.4.4.4.4.4.4.4.4.4.4.4.4.4.4.4.4.4.4.4.4.4.4.",
"4.4.4.4.4.4.4.4.4.4.4.4.4.4.4.4.4.4.4.4.4.4.4.4.4.4.4.4.4.4.4.4.4.4.4.4.4.4.4.4.4.4.4.4.4.4.4.4.4.4.4.4.4.4.4.4.4.4.4.4.4.4.4.4.",
"4.4.4.4.4.4.4.4.4.4.4.4.4.4.4.4.4.4.4.4.4.4.4.4.4.4.4.4.4.4.4.4.4.4.4.4.4.4.4.4.4.4.4.4.4.4.4.4.4.4.4.4.4.4.4.4.4.4.4.4.4.4.4.4.",
"4.4.4.4.4.4.4.4.4.4.4.4.4.4.4.4.4.4.4.4.4.4.4.4.4.4.4.4.4.4.                              4.4.4.4.4.4.4.4.4.4.4.4.4.4.4.4.4.4.4.",
"4.4.4.4.4.4.4.4.4.4.4.4.4.4.4.4.4.4.4.4.4.4.4.4.4.4.4.4.4.4.                              4.4.4.4.4.4.4.4.4.4.4.4.4.4.4.4.4.4.4.",
"4.4.4.4.4.4.4.4.4.4.4.4.4.4.4.4.4.4.4.4.4.4.4.4.4.4.4.4.  . 6 7 6 7 7 7 6 7 7 7 6 7 7 7 7 *         4.4.4.4.4.4.4.4.4.4.4.4.4.4.",
"4.4.4.4.4.4.4.4.4.4.4.4.4.4.4.4.4.4.4.4.4.4.4.4.4.4.4.4.  + w e t e t e e e e e e e e t e >         4.4.4.4.4.4.4.4.4.4.4.4.4.4.",
"4.4.4.4.4.4.4.4.4.4.4.4.4.4.4.4.4.4.4.4.4.4.4.4.4.4.4.    + e e e t e e V E E E R y t e e a b h     4.4.4.4.4.4.4.4.4.4.4.4.4.4.",
"4.4.4.4.4.4.4.4.4.4.4.4.4.4.4.4.4.4.4.4.4.4.4.4.4.        + e e e r e e A 2.2.2.<.s e e e W 2. .    4.4.4.4.4.4.4.4.4.4.4.4.4.4.",
"4.4.4.4.4.4.4.4.4.4.4.4.4.4.4.4.4.4.4.4.4.4.4.4.4.+ + + + * e e B C C B ~ 1.1.1.<.Z C C C ) 1.o.2 2 4.4.4.4.4.4.4.4.4.4.4.4.4.4.",
"4.4.4.4.4.4.4.4.4.4.4.4.4.4.4.4.4.4.4.4.4.4.4.    6 e e e e e e *.1.1.1.1.1.1.1.1.1.1.1.2.1.1.1.1.=.&   4.4.4.4.4.4.4.4.4.4.4.4.",
"4.4.4.4.4.4.4.4.4.4.4.4.4.4.4.4.4.4.4.4.4.4.4.    6 e e e e e e *.1.1.1.1.1.1.=.-.1.1.1.1.<.=.-.1.=.&   4.4.4.4.4.4.4.4.4.4.4.4.",
"4.4.4.4.4.4.4.4.4.4.4.4.4.4.4.4.4.4.4.4.4.4.4.    6 e e t e t e *.1.1.1.1.1.#.& < $.2.1.1.L % p 1.%.&   4.4.4.4.4.4.4.4.4.4.4.4.",
"4.4.4.4.4.4.4.4.4.4.4.4.4.4.4.4.4.4.4.4.4.4.4.    6 e e t t e e *.1.1.1.1.1...  o $.1.1.1.D   4 2.=.&   4.4.4.4.4.4.4.4.4.4.4.4.",
"4.4.4.4.4.4.4.4.4.4.4.4.4.4.4.4.4.4.4.4.4.4.4.    6 e 8 @ * w e *.1.2.1.1.1.#.  o $.1.1.1.D   4 2.%.&   4.4.4.4.4.4.4.4.4.4.4.4.",
"4.4.4.4.4.4.4.4.4.4.4.4.4.4.4.4.4.4.4.4.4.4.4.    6 e 7   + e e *.1.1.1.1.1.... o $.1.1.1.J   4 2.=.&   4.4.4.4.4.4.4.4.4.4.4.4.",
"4.4.4.4.4.4.4.4.4.4.4.4.4.4.4.4.4.4.4.4.4.4.4.    6 e 7   + w e *.1.` M ` 1.=.J K -.1.1.2.} J ! 1.<.U K <   4.4.4.4.4.4.4.4.4.4.",
"4.4.4.4.4.4.4.4.4.4.4.4.4.4.4.4.4.4.4.4.4.4.4.    6 t 7   + w e *.1.j   c 2.1.2.2.1.2.1.1.1.2.1.1.1.2.3.5   4.4.4.4.4.4.4.4.4.4.",
"4.4.4.4.4.4.4.4.4.4.4.4.4.4.4.4.4.4.4.4.4.4.4.4.  ; 7 > * - e e Q ` n f Y 1.2.1.1.1.1.1.1.1.1.1.1.1.1.2.M g 2 4.4.4.4.4.4.4.4.4.",
"4.4.4.4.4.4.4.4.4.4.4.4.4.4.4.4.4.4.4.4.4.4.4.4.4.    * e e e t . . T 1.1.1.2.1.1.1.1.1.1.1.1.1.1.1.1.1.1.1.N     4.4.4.4.4.4.4.",
"4.4.4.4.4.4.4.4.4.4.4.4.4.4.4.4.4.4.4.4.4.4.4.4.4.4.  * w w e e .   T 1.1.1.1.1.1.1.1.,.=.-.-.:.1.1.1.1.1.1.N     4.4.4.4.4.4.4.",
"4.4.4.4.4.4.4.4.4.4.4.4.              4.4.4.4.4.4.4.4.4.  + w e O   T 1.1.1.1.1.1.1.1.f       4 1.1.1.1.1.1.N     4.4.4.4.4.4.4.",
"4.4.4.4.4.4.4.4.4.4.4.4.. . . . . .   4.4.4.4.4.4.4.4.4.4.+ w e @ # T ,.,.,.,.,.,.,.<.g o # # 5 ,.,.:.,.,.,.N   4.4.4.4.4.4.4.4.",
"4.4.4.4.4.4.4.4.4.4.  X 8 9 8 9 9 9 6     4.4.4.4.4.4.4.4.4.+ + _ | v 1 1 1 1 1 2 2 < I | { | / 1 1 1 2 2 < , 4.4.4.4.4.4.4.4.4.",
"4.4.4.4.4.4.4.4.4.4.  . w e e e e e 7     4.4.4.4.4.4.4.4.4.    X.>.l               . / ;.;.;.[ .           4.4.4.4.4.4.4.4.4.4.",
"4.4.4.4.4.4.4.4.  + 7 7 e e e e t e w 7 7     4.4.4.4.4.4.4.    u g S ^ / / / / ^ ^ ^ O.>.;.>.+.^ P #   4.4.4.4.4.4.4.4.4.4.4.4.",
"4.4.4.4.4.4.4.4.  + e e e e e e e e e e w .   4.4.4.4.4.4.4.        H @.;.;.;.;.;.;.;.;.;.;.;.;.;.O.$   4.4.4.4.4.4.4.4.4.4.4.4.",
"4.4.4.4.4.4.4.4.  @ e e t e 7 6 9 r e e w     4.4.4.4.4.4.4.- - - - x P G G G G G G G G G G G G G F $ 4.4.4.4.4.4.4.4.4.4.4.4.4.",
"4.4.4.4.4.4.4.4.  @ e e e t *   : e e e w     4.4.4.4.4.  + e e t t =                               4.4.4.4.4.4.4.4.4.4.4.4.4.4.",
"4.4.4.4.4.4.4.4.  + e e r r - @ > 8 8 8 8     4.4.4.4.4.@ * w e e e : + + @ +     + @ + @ .       4.4.4.4.4.4.4.4.4.4.4.4.4.4.4.",
"4.4.4.4.4.4.4.4.  @ e e e e e e :   .           .     * e e e t t e e e e e 9   . 9 e e e :     4.4.4.4.4.4.4.4.4.4.4.4.4.4.4.4.",
"4.4.4.4.4.4.4.4.  @ w w e e e e > .   . .   .         * e t e e e e e w w e 9 . . 9 w e e >   . 4.4.4.4.4.4.4.4.4.4.4.4.4.4.4.4.",
"4.4.4.4.4.4.4.4.4.4.. . w e t e e w e w e w w +   > e w e r e t t e - . ; e e e w +   7 e e w 8     4.4.4.4.4.4.4.4.4.4.4.4.4.4.",
"4.4.4.4.4.4.4.4.4.4.  . w e e e e e e t e e t +   6 e e e e t e e e *   - e e e w + . 7 e e r 9   . 4.4.4.4.4.4.4.4.4.4.4.4.4.4.",
"4.4.4.4.4.4.4.4.4.4.4.4.@ @ @ @ @ @ @ @ @ @ @ .   6 e e t e t t e e 9 8 > @ = t e 8 8 = @ 6 e w 8 7 .   4.4.4.4.4.4.4.4.4.4.4.4.",
"4.4.4.4.4.4.4.4.4.4.4.4.                          6 e r e t r e t r e e 6   + e e e e @   : r e w w .   4.4.4.4.4.4.4.4.4.4.4.4.",
"4.4.4.4.4.4.4.4.4.4.4.4.4.4.4.4.4.4.4.4.4.4.4.    * ; : : : : : : : 9 e 6   , ) ) ) ) P K l : 0 ) ( K K <   4.4.4.4.4.4.4.4.4.4.",
"4.4.4.4.4.4.4.4.4.4.4.4.4.4.4.4.4.4.4.4.4.4.4.                      6 e 6   < 2.1.1.1.1.1.J   4 2.1.2.3.5   4.4.4.4.4.4.4.4.4.4.",
"4.4.4.4.4.4.4.4.4.4.4.4.4.4.4.4.4.4.4.4.4.4.4.i g g g g g g g g g g 0 7 0 g b 2.1.1.1.1.1.D   3 1.1.2.3.5   4.4.4.4.4.4.4.4.4.4.",
"4.4.4.4.4.4.4.4.4.4.4.4.4.4.4.4.4.4.4.4.4.  X  .3.3.2.3.3.3.2.2.3.3.z   b 2.2.2.1.1.1.1.1.J   3 1.1.1.3.5   4.4.4.4.4.4.4.4.4.4.",
"4.4.4.4.4.4.4.4.4.4.4.4.4.4.4.4.4.4.4.4.4.  X } 1.1.1.1.2.2.2.2.2.1.j   b 2.1.2.1.1.1.-.$.D & d 1.1.$.$.3   4.4.4.4.4.4.4.4.4.4.",
"4.4.4.4.4.4.4.4.4.4.4.4.4.4.4.4.4.4.4.4.4.  X } 1.1.1.1.2.2.1.1.1.2.z   z 1.1.1.1.1.1.g X M <.<.1.=., X 4.4.4.4.4.4.4.4.4.4.4.4.",
"4.4.4.4.4.4.4.4.4.4.4.4.4.4.4.4.4.4.4.4.4.  . ' <.<.<.<.<.<.<.<.<.<.j   c <.<.<.<.<.<.d   n <.<.<.%.%   4.4.4.4.4.4.4.4.4.4.4.4.",
"4.4.4.4.4.4.4.4.4.4.4.4.4.4.4.4.4.4.4.4.4.    % , , , , , , , , , , o   o , , , , , , X   # , , , , 4.4.4.4.4.4.4.4.4.4.4.4.4.4.",
"4.4.4.4.4.4.4.4.4.4.4.4.4.4.4.4.4.4.4.4.4.                                                          4.4.4.4.4.4.4.4.4.4.4.4.4.4.",
"4.4.4.4.4.4.4.4.4.4.4.4.4.4.4.4.4.4.4.4.4.4.4.4.4.4.4.4.4.4.4.4.4.4.4.4.4.4.4.4.4.4.4.4.4.4.4.4.4.4.4.4.4.4.4.4.4.4.4.4.4.4.4.4.",
"4.4.4.4.4.4.4.4.4.4.4.4.4.4.4.4.4.4.4.4.4.4.4.4.4.4.4.4.4.4.4.4.4.4.4.4.4.4.4.4.4.4.4.4.4.4.4.4.4.4.4.4.4.4.4.4.4.4.4.4.4.4.4.4.",
"4.4.4.4.4.4.4.4.4.4.4.4.4.4.4.4.4.4.4.4.4.4.4.4.4.4.4.4.4.4.4.4.4.4.4.4.4.4.4.4.4.4.4.4.4.4.4.4.4.4.4.4.4.4.4.4.4.4.4.4.4.4.4.4.",
"4.4.4.4.4.4.4.4.4.4.4.4.4.4.4.4.4.4.4.4.4.4.4.4.4.4.4.4.4.4.4.4.4.4.4.4.4.4.4.4.4.4.4.4.4.4.4.4.4.4.4.4.4.4.4.4.4.4.4.4.4.4.4.4.",
"4.4.4.4.4.4.4.4.4.4.4.4.4.4.4.4.4.4.4.4.4.4.4.4.4.4.4.4.4.4.4.4.4.4.4.4.4.4.4.4.4.4.4.4.4.4.4.4.4.4.4.4.4.4.4.4.4.4.4.4.4.4.4.4.",
"4.4.4.4.4.4.4.4.4.4.4.4.4.4.4.4.4.4.4.4.4.4.4.4.4.4.4.4.4.4.4.4.4.4.4.4.4.4.4.4.4.4.4.4.4.4.4.4.4.4.4.4.4.4.4.4.4.4.4.4.4.4.4.4.",
"4.4.4.4.4.4.4.4.4.4.4.4.4.4.4.4.4.4.4.4.4.4.4.4.4.4.4.4.4.4.4.4.4.4.4.4.4.4.4.4.4.4.4.4.4.4.4.4.4.4.4.4.4.4.4.4.4.4.4.4.4.4.4.4.",
"4.4.4.4.4.4.4.4.4.4.4.4.4.4.4.4.4.4.4.4.4.4.4.4.4.4.4.4.4.4.4.4.4.4.4.4.4.4.4.4.4.4.4.4.4.4.4.4.4.4.4.4.4.4.4.4.4.4.4.4.4.4.4.4.",
"4.4.4.4.4.4.4.4.4.4.4.4.4.4.4.4.4.4.4.4.4.4.4.4.4.4.4.4.4.4.4.4.4.4.4.4.4.4.4.4.4.4.4.4.4.4.4.4.4.4.4.4.4.4.4.4.4.4.4.4.4.4.4.4.",
"4.4.4.4.4.4.4.4.4.4.4.4.4.4.4.4.4.4.4.4.4.4.4.4.4.4.4.4.4.4.4.4.4.4.4.4.4.4.4.4.4.4.4.4.4.4.4.4.4.4.4.4.4.4.4.4.4.4.4.4.4.4.4.4.",
"4.4.4.4.4.4.4.4.4.4.4.4.4.4.4.4.4.4.4.4.4.4.4.4.4.4.4.4.4.4.4.4.4.4.4.4.4.4.4.4.4.4.4.4.4.4.4.4.4.4.4.4.4.4.4.4.4.4.4.4.4.4.4.4."
};
