/* XPM */
static char *result[] = {
/* columns rows colors chars-per-pixel */
"64 64 175 2 ",
"   c #28346C",
".  c #35366D",
"X  c #39366B",
"o  c #37396F",
"O  c #2C3771",
"+  c #2F3A73",
"@  c #313A74",
"#  c #3D3C73",
"$  c #333D79",
"%  c #473767",
"&  c #483767",
"*  c #443769",
"=  c #4A3A6A",
"-  c #523A67",
";  c #543B69",
":  c #5B3E68",
">  c #493E74",
",  c #6E3F67",
"<  c #6D3F68",
"1  c #39417F",
"2  c #594478",
"3  c #5D487F",
"4  c #794467",
"5  c #75476A",
"6  c #794468",
"7  c #604679",
"8  c #65497D",
"9  c #694A7D",
"0  c #764673",
"q  c #794774",
"w  c #7C4974",
"e  c #824A68",
"r  c #955269",
"t  c #9D566B",
"y  c #985B6A",
"u  c #844C72",
"i  c #884F74",
"p  c #814F79",
"a  c #835275",
"s  c #8A5174",
"d  c #84527D",
"f  c #8D557A",
"g  c #8F587B",
"h  c #975971",
"j  c #9C5D71",
"k  c #965D7B",
"l  c #A15769",
"z  c #A25B6C",
"x  c #A85E69",
"c  c #9F6175",
"v  c #A2606F",
"b  c #BC6A6A",
"n  c #BC726D",
"m  c #A56472",
"M  c #A86773",
"N  c #AA6973",
"B  c #B06E73",
"V  c #BC7672",
"C  c #BD7C74",
"Z  c #C6736A",
"A  c #C5786E",
"S  c #CB786B",
"D  c #C57E72",
"F  c #C97E70",
"G  c #BE8076",
"H  c #D7836B",
"J  c #D9896C",
"K  c #C68575",
"L  c #C58A79",
"P  c #C88C78",
"I  c #CA917B",
"U  c #DD9472",
"Y  c #D99977",
"T  c #D99C7A",
"R  c #E7936D",
"E  c #EA966D",
"W  c #EE9A6D",
"Q  c #E79C72",
"!  c #DBA17C",
"~  c #F8A56E",
"^  c #E7A477",
"/  c #EFAA76",
"(  c #E7A578",
")  c #EFAE79",
"_  c #F1AD77",
"`  c #F9AE72",
"'  c #E7B17F",
"]  c #EDB27C",
"[  c #FEB475",
"{  c #F0B079",
"}  c #FEB778",
"|  c #FFB879",
" . c #FFC57D",
".. c #FFC87F",
"X. c #3C4482",
"o. c #424686",
"O. c #4B4681",
"+. c #414887",
"@. c #4D4987",
"#. c #464B8C",
"$. c #4B4C8B",
"%. c #514986",
"&. c #5D4981",
"*. c #544E8B",
"=. c #59518D",
"-. c #474F90",
";. c #494F90",
":. c #4B5293",
">. c #4F5798",
",. c #525695",
"<. c #5D5591",
"1. c #5A5896",
"2. c #505798",
"3. c #535B9C",
"4. c #5B5D9C",
"5. c #634D85",
"6. c #6D4E82",
"7. c #665187",
"8. c #6F5083",
"9. c #6A568C",
"0. c #745689",
"q. c #76598B",
"w. c #795B8D",
"e. c #695B94",
"r. c #665F9A",
"t. c #725F94",
"y. c #7C5F91",
"u. c #65629E",
"i. c #68629D",
"p. c #7D6192",
"a. c #75659B",
"s. c #77659B",
"d. c #78659B",
"f. c #5760A0",
"g. c #5B64A4",
"h. c #5E68A8",
"j. c #6666A2",
"k. c #6169A7",
"l. c #6D6AA5",
"z. c #6169A8",
"x. c #6C6DA9",
"c. c #6671AF",
"v. c #875680",
"b. c #885780",
"n. c #83618D",
"m. c #936484",
"M. c #816492",
"N. c #E7B281",
"B. c #E6BB86",
"V. c #E9BE86",
"C. c #FFBE8F",
"Z. c #EBC187",
"A. c #F0C587",
"S. c #FBC481",
"D. c #FDCD83",
"F. c #F8CC88",
"G. c #FBD187",
"H. c #FED58B",
"J. c #FEDA8D",
"K. c #FFC593",
"L. c #FFCA97",
"P. c #FFCC98",
"I. c #FFDF91",
"U. c #FFD29D",
"Y. c #FFD89F",
"T. c #FFE18F",
"R. c #FFE292",
"E. c #FFDDA3",
"W. c #FFD6BB",
"Q. c #FFDBBE",
"!. c #FFE5A6",
"~. c #FFDEC0",
"^. c #FFE4C4",
"/. c #FFE9C7",
"(. c #FFEBC8",
/* pixels */
"!.!.!.!.!.!.!.!.!.!.!.!.!.!.!.!.!.!.!.!.!.!.!.!.!.!.!.!.!.!.!.!.!.!.!.!.!.!.!.!.!.!.!.!.!.!.!.!.!.!.!.!.!.!.!.!.!.!.!.!.!.!.!.!.",
"R.R.R.R.R.R.R.R.R.R.T.T.J.J.J.T.R.J.J.H.H.H.J.T.T.I.J.H.H.G.G.H.H.H.H.H.H.H.H.H.H.G.H.H.H.H.H.G.H.H.H.H.H.H.H.H.H.H.H.G.H.H.H.H.",
"T.T.R.T.R.R.T.R.R.R.J.J.....G.J.J.G. .C. . ...G.J.J.G... . . . . . . . . . . . . . . .S.S. . . . . . . . . . .S. . . . . . .S.D.",
"J.J.J.J.J.G.J.J.R.J.F.A. .{  .F.F. .[ ` ` ` } ..G.F. .[ ` ` ` ` ` ` ` ` ` ` ` ` ` ` ` ` ` ` ` ` ` ` ` ` ` ` ` ` ` ` ` ` ` [ } | ",
"J.G.F.Z.V.B.B.B.B.B.' ( Q Q ^ ' N.N.E R R R Q N.' ' ( Q R R R R R R R R R R R R R R R R R R R R R R R R R R R R R R R E W ~ ~ [ ",
"D.S.] T I L L L P L L K A A K K K F A Z Z Z A F K K A A Z Z Z Z Z Z Z Z Z Z Z Z Z Z Z Z Z Z Z Z Z Z Z Z Z Z Z Z Z Z Z S H E ~ [ ",
" ./ U V N m v v v m v v z z t v c z z z l l l x y v z l l l l l l l l l l l l l l l l l l l l l l l l l l l l l t t l x n J W ~ ",
") U Z j s e w u u u u w u u u u u u u u , e 6 , 6 6 6 6 6 6 6 6 6 4 6 6 6 4 4 4 6 6 6 6 6 6 6 , 4 4 4 4 6 6 4 6 4 4 4 e y n J W ",
"Y V v p 9 7 5.5.8 8 8 8 5.8 8 8 5.5.< : 2 ; - - - - - - - - - - - - - - - - - - - - - - - - - - - - - - - - - - - - - : 5 y n H ",
"L m i 9 &.%.%.$.@.@.@.@.%.%.@.%.@.$.$.@.1 > X X X X X X X X X X X X X X X X X X X X X X X X X X X X X X X X X X X X X * ; 5 x Z ",
"C y q &.@.#.-.X.#.#.#.#.#.#.#.#.#.#.#.o.1 $ @ @ + + @ @ + + O + + @ @ @ @ @ + + @ @ + @ @ @ @ @ + + @ @ @ + @ +   .     * < r b ",
"C j q &.#.#.-.X.#.#.#.#.#.-.#.#.#.#.#.o.o.1 1 1 1 $ 1 1 X.$ X.X.$ 1 1 1 1 1 1 1 1 1 1 $ 1 1 1 1 X.$ 1 1 X.$ 1 X.$ $ O . * < r b ",
"G j q &.$.#.#.#.#.#.#.#.#.#.#.#.#.#.#.#.#.o.o.o.#.+.+.+.+.+.+.+.#.o.+.+.+.+.+.+.o.+.+.+.+.+.o.o.#.+.+.+.+.+.+.+.X.1 + . % , r b ",
"K j w &.$.#.#.#.#.#.#.#.#.#.#.#.#.#.#.#.#.#.;.#.$.$.#.-.-.#.#.#.#.$.#.#.#.;.-.$.$.;.#.#.#.;.;.#.$.#.#.$.#.#.;.#.+.X.$ . % , r b ",
"D j w &.$.-.#.#.#.#.#.#.#.#.#.#.#.#.#.#.#.#.#.#.#.#.#.#.#.#.#.#.#.#.-.#.#.#.-.#.#.#.#.#.#.#.#.#.#.#.-.#.-.#.#.-.#.X.+ . % , r b ",
"C j q 5.$.-.X.#.#.#.#.#.#.#.#.#.#.#.#.#.#.#.#.#.#.#.#.#.#.-.$.#.#.#.#.#.#.#.#.#.#.#.#.#.#.#.#.#.#.#.#.#.#.#.#.$.+.X.. . % , r b ",
"G j w &.@.#.-.#.#.#.#.#.#.$.#.#.#.#.#.#.#.#.#.#.#.#.#.#.#.#.#.#.#.#.#.#.#.#.#.#.#.#.#.#.#.#.#.#.#.#.#.#.#.#.#.;.#.X.@ . & < r b ",
"G j q 8 @.#.#.#.#.#.#.#.#.#.#.#.#.#.#.$.#.#.#.#.#.$.#.#.#.#.#.#.#.#.#.#.#.#.#.#.#.#.$.#.#.#.#.#.#.#.#.#.#.#.#.#.#.X.@ . & < r b ",
"G j w &.$.-.#.#.#.#.#.#.#.#.#.#.#.#.#.#.#.#.#.#.#.#.#.#.#.#.#.#.#.$.#.#.#.#.#.#.#.#.#.#.#.#.#.#.#.#.#.#.#.#.#.#.o.X.@ . & , r b ",
"G j w &.$.X.#.#.#.#.#.#.#.#.#.#.#.#.#.#.#.#.#.#.#.#.#.#.#.#.#.#.#.#.#.#.#.#.#.#.#.#.#.#.#.#.#.#.#.#.#.#.#.#.#.#.#.X.@ @ & , r b ",
"D j q 3 @.#.#.#.#.#.#.#.#.#.#.#.#.#.#.#.#.#.#.#.#.#.#.#.#.#.#.#.#.#.#.#.#.#.#.#.#.#.#.#.#.#.$.#.#.#.#.#.#.#.#.#.#.X.$ . & , r b ",
"G j w 5.*.-.-.#.#.#.#.#.#.#.#.#.#.#.#.#.#.#.$.#.#.#.#.#.#.-.$.#.#.#.#.#.#.#.#.#.#.#.#.#.#.#.#.#.#.#.#.#.#.#.#.#.o.X.@ . & , r b ",
"G j p 9.1.>.-.-.#.#.#.$.#.#.#.#.#.#.#.#.#.#.#.#.#.#.#.#.#.#.#.#.#.$.#.#.#.#.-.$.#.#.#.#.#.#.#.#.$.#.#.#.#.#.#.#.#.X.@ . & , r b ",
"G c d e.j.f.:.#.#.#.#.#.#.#.#.#.#.#.#.#.#.#.#.#.#.#.#.#.#.#.#.#.#.#.#.#.#.#.#.#.#.#.#.#.#.#.#.#.#.#.#.#.#.#.#.#.#.1 @ . & , r b ",
"G m v.t.u.f.:.;.#.#.#.#.#.#.#.#.#.#.#.#.#.#.#.#.#.#.#.#.#.#.#.#.#.#.#.#.#.#.#.#.#.#.#.#.#.$.#.#.#.#.-.#.#.#.#.#.o.X.@ . * , r b ",
"G j p e.4.2.:.$.#.#.#.#.#.#.#.#.$.#.#.#.#.#.#.#.#.#.#.#.#.#.#.#.#.#.#.#.#.#.#.#.#.#.#.#.#.#.#.#.#.#.#.#.#.#.#.#.#.X.@ . & < r b ",
"G j w 7.,.:.-.#.#.#.#.#.$.#.#.#.#.#.#.#.#.$.#.#.#.#.#.#.#.#.#.#.#.#.#.#.#.#.$.#.#.#.#.#.#.#.#.#.#.#.#.#.#.#.#.#.o.X.$ . & , r b ",
"G j w &.:.X.#.#.#.#.#.#.#.#.#.#.#.#.#.#.#.#.#.#.#.#.#.#.#.#.#.#.#.#.#.#.#.#.#.#.#.$.#.#.#.#.#.#.#.#.#.-.#.#.#.#.#.1 $ . & , r b ",
"K j q 8 @.#.#.#.#.#.#.#.#.#.#.#.#.#.#.#.#.#.#.#.#.$.#.#.#.#.#.#.#.#.#.#.#.#.#.#.#.#.#.#.#.#.#.#.#.#.#.#.#.#.#.#.#.1 $ . & , r b ",
"C j q &.$.#.#.#.#.#.#.$.#.#.#.#.#.#.#.$.#.#.#.#.#.#.#.#.#.#.#.$.#.#.#.#.#.#.#.#.#.#.#.#.#.#.#.#.#.#.#.#.#.#.#.#.o.X.@ . & , r b ",
"G j w 5.*.-.-.#.#.#.#.#.#.#.#.#.#.#.#.#.#.#.#.#.#.#.#.#.#.#.#.#.#.#.$.#.#.#.#.#.#.#.#.#.#.#.#.#.#.#.#.#.#.#.#.#.#.1 $ . & , r b ",
"G j v.e.4.>.:.#.#.#.#.#.#.#.#.#.#.#.#.#.#.#.#.#.#.#.#.#.#.#.#.#.#.#.#.#.#.#.#.#.#.#.#.#.#.#.#.#.#.#.#.#.#.#.#.#.#.X.$ . & , h b ",
"C m v.t.j.f.:.#.#.#.#.#.#.#.#.#.#.#.#.#.#.#.#.#.#.#.#.#.#.#.#.#.#.#.-.#.#.#.#.#.#.#.#.#.$.#.#.#.#.#.#.#.#.#.#.#.#.X.@ . * < r Z ",
"C c d t.r.f.>.-.#.#.#.#.#.#.#.#.#.#.#.#.#.#.#.#.#.#.#.#.#.#.#.#.#.#.$.#.#.#.#.#.#.#.#.#.#.#.#.#.#.#.#.#.#.#.#.;.o.X.@ . * < z m.",
"G c w e.1.>.;.#.#.#.#.#.#.#.#.#.#.$.#.#.#.#.$.#.#.#.#.#.#.$.#.#.#.#.#.#.#.#.#.#.#.#.#.#.#.#.#.#.#.#.#.#.#.#.;.#.#.X.$ . & , l Z ",
"G j w 5.*.-.-.#.#.#.#.#.#.#.#.#.#.-.#.#.#.#.#.#.#.#.#.#.#.#.#.#.#.#.#.#.#.#.#.#.#.#.#.#.#.#.#.#.#.#.#.$.#.#.#.#.o.X.$ . & , h b ",
"G j w &.%.#.+.#.#.#.#.#.#.#.#.#.#.#.#.#.#.#.#.#.#.#.#.#.#.#.#.#.#.#.$.#.#.#.#.#.#.#.#.#.#.#.#.#.#.#.#.#.#.#.#.#.o.X.@ . & < r b ",
"G j q &.#.#.#.#.#.#.#.#.#.#.#.#.#.#.#.#.#.#.#.#.#.#.#.#.#.#.#.#.#.#.#.#.#.#.#.#.#.#.#.#.#.#.#.#.#.#.#.#.#.#.#.#.#.X.$ . & , r b ",
"G j w 5.%.-.#.#.#.#.@.#.#.#.#.#.#.#.#.#.#.#.#.#.#.#.$.#.#.#.$.#.#.#.#.#.#.#.#.#.#.#.#.#.#.#.#.#.#.#.#.#.#.#.#.#.o.X.$ . & , r b ",
"G c w 7.,.;.-.$.#.#.#.#.#.#.#.#.#.#.#.#.#.#.#.#.#.#.#.#.#.#.#.#.#.#.#.#.#.#.#.#.$.#.#.#.#.#.#.#.#.#.#.#.$.-.#.#.o.X.$ . & , r b ",
"G c d e.r.3.:.#.#.#.#.#.#.#.#.#.#.#.$.#.#.#.#.#.#.#.#.#.#.#.#.#.#.#.#.#.#.#.#.#.#.#.#.#.#.#.#.$.#.#.#.#.#.#.#.#.#.X.@ . & , r V ",
"G c d a.j.f.:.;.#.o.#.#.#.#.#.#.#.#.#.#.#.#.#.#.#.$.#.#.#.#.#.#.#.#.#.#.#.#.#.$.#.#.#.#.#.#.#.#.#.#.#.#.#.#.#.#.o.X.@ . & < r V ",
"G m v.d.j.h.2.:.#.#.#.#.#.#.#.#.#.#.#.#.#.#.#.#.#.#.#.#.#.#.#.#.#.#.#.$.#.#.#.#.#.#.#.#.#.#.#.#.#.#.#.#.#.#.#.#.#.X.@ . & < r V ",
"G c v.d.l.h.2.;.#.#.#.#.#.#.#.#.#.#.#.#.#.#.#.#.#.#.#.#.#.#.#.#.#.#.#.#.#.#.#.#.#.#.#.#.#.#.#.#.#.#.#.#.#.#.#.#.o.X.@ @ & < r V ",
"G c v.d.l.g.>.-.#.#.#.#.#.#.#.#.#.#.#.#.#.#.#.#.#.#.#.#.#.#.#.#.#.#.#.#.#.#.#.#.#.#.#.#.#.#.#.#.#.#.#.#.#.#.$.#.#.o.$ o = , t Z ",
"G c v.d.x.g.>.-.+.#.#.#.#.#.#.#.#.#.#.#.#.#.#.#.#.#.#.#.#.#.#.#.#.#.#.#.#.#.#.#.#.#.#.#.#.#.#.#.#.#.#.#.#.#.#.#.#.o.$ # > , r b ",
"G c v.d.l.h.>.-.#.#.#.#.#.#.#.#.#.#.#.#.#.#.#.$.#.#.#.#.#.#.#.#.#.#.#.#.$.#.#.#.#.#.#.#.#.#.#.#.#.#.#.#.#.#.#.#.#.o.X.o.> 0 h V ",
"G c v.d.x.g.>.$.#.#.+.#.#.#.#.#.#.#.#.+.#.#.#.#.#.#.#.#.#.#.#.#.#.#.#.#.#.#.#.#.#.#.$.-.#.#.#.#.#.#.#.#.#.#.#.#.#.+.#.O.5.w k V ",
"G m v.s.l.g.>.-.+.#.#.+.#.#.#.+.#.+.#.#.+.#.#.#.#.+.#.#.#.#.#.#.#.#.#.#.#.#.#.#.#.#.#.#.#.#.#.#.#.#.#.#.#.#.#.#.#.#.#.$.&.v.f A ",
"G c v.d.x.g.>.-.#.#.#.#.#.#.#.#.#.#.#.#.#.#.+.#.#.#.#.#.-.-.#.#.+.#.#.#.#.#.#.#.#.#.#.#.#.#.#.#.#.#.#.#.#.#.#.#.#.#.#.$.&.< k V ",
"G c v.d.x.h.f.:.;.;.:.:.:.;.;.;.:.:.;.:.$.:.:.:.:.-.$.#.#.X.#.-.;.;.-.-.#.#.#.#.#.;.;.-.#.#.#.#.#.#.#.;.#.#.#.#.#.#.#.#.&.v.h V ",
"G c v.d.x.h.g.3.3.3.3.3.3.3.3.3.3.3.3.3.3.3.3.3.3.>.:.-.#.#.#.$.>.,.>.-.#.#.#.;.:.>.>.>.;.#.+.#.#.#.#.#.#.#.#.#.#.#.X.-.&., k C ",
"G c b.d.x.c.z.z.z.z.z.z.z.z.z.z.k.k.k.k.k.k.k.k.h.4.2.;.#.#.$.,.f.f.f.:.#.+.#.$.,.f.f.4.:.$.#.#.#.#.#.#.#.#.#.#.#.#.$.$.&., c D ",
"P N k M.d.l.l.l.l.l.l.l.l.l.l.l.l.l.l.l.l.l.l.l.l.u.<.*.%.%.*.=.i.i.i.<.*.%.%.*.<.i.i.u.=.*.%.%.%.%.%.%.%.%.%.%.@.@.@.&.5.u c D ",
"Y K M m.M.p.p.p.n.y.y.y.M.y.M.y.p.p.p.p.p.p.p.p.y.w.8.6.8 8 9 8.w.w.q.9 9 8 9 9 8.w.w.0.9 9 8 8 5.9 < 6.9 9 9 9 8 8 8 9 p c D Y ",
"] U F M k g g g g g g g g g g g g g g g g k g g g s s i u u u s g s g s i u u a s f f s s u u u u u p u u u u u u u u s v Z R N.",
" .) U K B m M M M M N N N M M N m N M N N N m N M M m m m M m m M M M m M M m m M M M M m m m m m M m m M M m M M m m N D U _ | ",
"G. .{ ! I I I I I I I I I I I I I I I I I I I P I I I I I I I I I I I I I I I I I I I I I I I I I I I I I I I I I P I I T N.S.G.",
"H.H.F.A.Z.Z.V.B.V.V.V.V.V.V.Z.V.V.V.B.Z.Z.V.V.V.Z.V.V.V.Z.Z.Z.V.V.V.V.V.V.Z.Z.Z.V.V.V.V.Z.Z.V.Z.Z.Z.Z.Z.V.V.V.Z.V.V.V.V.A.F.G.J.",
"G.G.G.G.G.G.G.G.D.G.F.G.G.F.G.G.G.G.G.G.G.G.G.G.G.G.G.G.G.G.G.G.G.G.G.F.G.G.G.G.G.F.G.G.G.G.G.G.G.J.J.J.H.G.G.G.D.H.J.J.H.H.H.H.",
".. . . ... . ..... . . . ... ... . . ... ... . . . ... . . . ... . . . . . . ... ... ..... . . .D.G.J.J.G.D. . ...G.H.H.J.D.D.D.",
"} } } } | } } | } } } } } | } } } } } } } } } } } | } } } } } } | } } } | | | } | | | | | | | |  .D.I.J.D. .} } |  .H.J.H.D.|  .",
"C.C.K.C.C.C.C.C.C.C.C.C.C.C.K.C.C.C.C.C.K.C.C.C.C.C.K.C.C.C.C.C.K.C.C.C.C.C.C.K.C.C.C.C.C.C.C.C.K.U.E.E.U.K.C.C.K.L.Y.E.E.P.L.L.",
"W.W.W.W.W.W.W.W.W.W.W.W.W.W.W.W.W.W.W.W.W.W.W.W.W.W.W.W.W.W.W.W.W.W.W.W.W.W.W.W.W.W.W.W.W.W.W.W.~.^.(.(.^.Q.W.W.Q.Q./././.^.Q.Q."
};
