/* XPM */
static char *result[] = {
/* columns rows colors chars-per-pixel */
"64 64 112 2 ",
"   c #2D363D",
".  c #6A3E3B",
"X  c #624633",
"o  c #2F3940",
"O  c #333D45",
"+  c #364149",
"@  c #3A454D",
"#  c #3C484F",
"$  c #3B4750",
"%  c #3D4A53",
"&  c #424048",
"*  c #424A4E",
"=  c #4B4B4B",
"-  c #414D56",
";  c #414F58",
":  c #4D5455",
">  c #44525C",
",  c #4A555D",
"<  c #555555",
"1  c gray36",
"2  c #475660",
"3  c #485761",
"4  c #4C5A64",
"5  c #4F5E69",
"6  c #525B62",
"7  c #505F6A",
"8  c #556067",
"9  c #5E6367",
"0  c #53626D",
"q  c #5B656B",
"w  c #576671",
"e  c #586772",
"r  c #5C6A75",
"t  c #646464",
"y  c #61666A",
"u  c #6D6D6D",
"i  c #636D73",
"p  c #606E78",
"a  c #687075",
"s  c #65727B",
"d  c #6B777F",
"f  c #757575",
"g  c #767778",
"h  c #7D7D7D",
"j  c #B02425",
"k  c #A75B55",
"l  c #6A7680",
"z  c #6F7B84",
"x  c #707C84",
"c  c #7C8286",
"v  c #758189",
"b  c #7B868E",
"n  c #838383",
"m  c #82878B",
"M  c #858B8F",
"N  c #8A8C8D",
"B  c #848C92",
"V  c #8A8E92",
"C  c #869097",
"Z  c #879198",
"A  c #8C949A",
"S  c #939393",
"D  c #9A9A9A",
"F  c #AB9B9D",
"G  c #B89699",
"H  c #959EA3",
"J  c #9B9EA0",
"K  c #9CA1A3",
"L  c #9CA3A8",
"P  c #A3A4A4",
"I  c #ADA3A4",
"U  c #A4A9AD",
"Y  c #ABACAC",
"T  c #BCA3A5",
"R  c #B1AAAB",
"E  c #ABAFB1",
"W  c #BDAFB1",
"Q  c #ADB2B6",
"!  c #B3B3B4",
"~  c #BDB4B5",
"^  c #B4B7B9",
"/  c #BFB7B9",
"(  c #B7B9BA",
")  c #BCBCBC",
"_  c #C0A2A5",
"`  c #CEA1A6",
"'  c #C3A6A9",
"]  c #CFA8AC",
"[  c #C1ADB0",
"{  c #C5BDBE",
"}  c #CFB8BA",
"|  c #BABEC0",
" . c #D0BEC0",
".. c #BFC1C3",
"X. c #C3C4C4",
"o. c #CBC3C3",
"O. c #C4C7C9",
"+. c #C8C6C8",
"@. c #C6C9CA",
"#. c #CBCDCD",
"$. c #D0CBCB",
"%. c #CDCFD0",
"&. c #CFD1D2",
"*. c #D2D2D3",
"=. c #D8D7D7",
"-. c #DCDCDC",
";. c #E3E3E3",
":. c #EEE5E6",
">. c #EDEDED",
",. c #F4F4F4",
"<. c #FAFAFA",
"1. c None",
/* pixels */
"1.1.1.1.1.1.1.1.1.1.1.1.1.1.1.1.1.1.1.1.1.1.1.1.1.1.1.1.1.1.1.1.1.1.1.1.1.1.1.1.1.1.1.1.1.1.1.1.1.1.1.1.1.1.1.1.1.1.1.1.1.1.1.1.",
"1.1.1.1.1.1.1.1.1.1.1.1.1.1.1.1.1.1.1.1.1.1.1.1.1.1.1.1.1.1.1.1.1.1.1.1.1.1.1.1.1.1.1.1.1.1.1.1.1.1.1.1.1.1.1.1.1.1.1.1.1.1.1.1.",
"1.1.1.1.1.1.1.1.1.1.1.1.1.1.1.1.1.1.1.1.1.1.1.1.1.1.1.1.1.1.1.1.1.1.1.1.1.1.1.1.1.1.1.1.1.1.1.1.1.1.1.1.1.1.1.1.1.1.1.1.1.1.1.1.",
"1.1.1.1.1.1.1.1.1.1.1.1.1.1.1.1.1.1.1.1.1.1.1.1.1.1.1.1.1.1.1.1.1.1.1.1.1.1.1.1.1.1.1.1.1.1.1.1.1.1.1.1.1.1.1.1.1.1.1.1.1.1.1.1.",
"1.1.1.1.1.1.1.1.1.1.1.1.1.1.1.1.1.1.1.1.1.1.1.1.1.1.1.1.1.1.1.1.1.1.1.1.1.1.1.1.1.1.1.1.1.1.1.1.1.1.1.1.1.1.1.1.1.1.1.1.1.1.1.1.",
"1.1.1.1.1.1.1.1.1.1.1.1.1.1.1.1.1.1.1.1.1.1.1.1.1.1.1.1.1.1.1.1.1.1.1.1.1.1.1.1.1.1.1.1.1.1.1.1.1.1.1.1.1.1.1.1.1.1.1.1.1.1.1.1.",
"1.1.1.1.1.1.1.1.1.1.1.1.1.1.1.1.1.1.1.1.1.1.1.1.1.1.1.1.1.1.1.1.1.1.1.1.1.1.1.1.1.1.1.1.1.1.1.1.1.1.1.1.1.1.1.1.1.1.1.1.1.1.1.1.",
"1.1.1.1.1.1.1.1.1.1.1.1.1.1.1.1.1.1.1.1.1.1.1.1.1.1.1.1.1.1.1.1.1.1.1.1.1.1.1.1.1.1.1.1.1.1.1.1.1.1.1.1.1.1.1.1.1.1.1.1.1.1.1.1.",
"1.1.1.1.1.1.1.1.1.1.1.1.1.1.1.1.1.1.1.1.1.1.1.1.1.1.1.1.1.1.1.1.1.1.1.1.1.1.1.1.1.1.1.1.1.1.1.1.1.1.1.1.1.1.1.1.1.1.1.1.1.1.1.1.",
"1.1.1.1.1.1.1.1.1.1.1.1.1.1.1.1.1.1.1.1.1.1.1.1.1.1.1.1.1.1.1.1.1.1.1.1.1.1.1.1.1.1.1.1.1.1.1.1.1.1.1.1.1.1.1.1.1.1.1.1.1.1.1.1.",
"1.1.1.1.1.1.1.1.1.1.1.1.1.1.1.1.1.1.1.1.1.1.1.1.1.1.1.1.1.1.1.1.1.1.1.1.1.1.1.1.1.1.1.1.1.1.1.1.1.1.1.1.1.1.1.1.1.1.1.1.1.1.1.1.",
"1.1.1.1.1.1.1.1.1.1.1.1.1.1.1.1.1.1.1.1.1.1.1.1.1.1.1.1.1.1.1.1.1.1.1.1.1.1.1.1.1.1.1.1.1.1.1.1.1.1.1.1.1.1.1.1.1.1.1.1.1.1.1.1.",
"1.1.1.1.1.1.1.1.1.1.1.1.1.1.1.1.1.1.1.1.1.1.1.1.1.1.1.1.1.1.1.1.1.1.1.1.1.1.1.1.1.1.1.1.1.1.1.1.1.1.1.1.1.1.1.1.1.1.1.1.1.1.1.1.",
"1.1.1.1.1.1.1.1.1.1.1.1.1.1.1.1.1.1.1.1.1.1.1.1.1.1.1.1.1.1.1.1.1.1.1.1.1.1.1.1.1.1.1.1.1.1.1.1.1.1.1.1.1.1.1.1.1.1.1.1.1.1.1.1.",
"1.1.1.1.1.1.1.1.1.1.1.1.1.1.1.1.1.1.1.1.1.1.1.1.1.1.1.1.1.1.1.1.1.1.1.1.1.1.1.1.1.1.1.1.1.1.1.1.1.1.1.1.1.1.1.1.1.1.1.1.1.1.1.1.",
"1.1.1.1.1.1.1.1.1.1.1.1.1.1.1.1.1.1.1.1.1.1.1.1.1.1.1.1.+ $ 1.1.1.1.1.1.1.1.1.1.1.1.1.1.1.1.1.1.1.1.1.1.1.1.1.1.1.1.1.1.1.1.1.1.",
"1.1.1.1.1.1.1.1.1.1.1.1.1.1.1.1.1.1.1.1.1.1.1.1.1.1.# > ; @ 1.1.1.1.1.1.1.1.1.1.1.1.1.1.1.1.1.1.1.1.1.1.1.1.1.1.1.1.1.1.1.1.1.1.",
"1.1.1.1.1.1.1.1.1.1.1.1.1.1.1.1.1.1.1.1.1.1.1.1.1.> > % % @ 1.1.1.1.1.1.1.1.1.1.1.1.1.1.1.1.1.1.1.1.1.1.1.1.1.1.1.1.1.1.1.* 1.1.",
"1.1.1.1.1.1.1.1.1.1.1.1.1.1.1.1.1.1.1.1.1.1.1.; 3 > % % % $ 1.1.1.1.1.1.1.1.1.1.1.1.1.1.1.1.1.1.1.1.1.1.1.1.1.1.1.1.1.1.@ N 1.1.",
"1.1.1.1.1.1.1.1.1.1.1.1.1.1.1.1.1.1.1.1.1.1.> 3 ; % % % % + 1.1.1.1.1.1.1.1.1.1.1.1.1.1.1.1.1.1.1.1.1.1.1.1.1.1.1.1.  @ c P 1.1.",
"1.1.1.1.1.1.1.1.1.1.1.1.1.1.1.1.1.1.1.1.1.- 3 ; % % % % $ O 1.1.1.1.1.1.1.1.1.1.1.1.1.1.1.1.1.1.1.1.1.1.1.1.1.1.1.O @ q ) S 1.1.",
"1.1.1.1.1.1.1.1.1.1.1.1.1.1.1.1.1.1.1.1.1.4 > % % % % % % $ 1.1.1.1.1.1.1.1.1.1.1.1.1.1.1.1.1.1.1.1.1.1.1.1.1.1.+ + # P X.1.1.1.",
"1.1.1.1.1.1.1.1.1.1.1.1.1.1.1.1.1.1.1.1.> > % % % % % % % % O 1.1.1.1.1.1.1.1.1.1.1.1.1.1.1.1.1.1.1.1.1.1.1.1.O @ O q X.( 1.1.1.",
"1.1.1.1.1.1.1.1.1.1.1.1.1.1.1.1.1.1.1.1.4 > % - % % % % % % $ 1.1.1.1.1.1.1.1.1.1.1.1.1.1.1.1.1.1.1.1.1.1.1.1.+ O @ D X.Y 1.1.1.",
"1.1.1.1.1.1.1.1.1.1.1.1.1.1.1.1.1.% - 6 w 5 4 5 4 4 4 4 3 3 3 > O 1.1.1.1.1.1.1.1.1.1.1.1.1.1.1.1.1.1.1.1.1.O + O 6 ) X.D 1.1.1.",
"1.1.1.1.1.1.1.1.1.1.1.1.@ > > ; > > ; ; % % % > % > > % > > > > 3 ; % @ + O 1.1.1.1.1.1.1.1.1.1.1.1.1.1.1.1.O + @ V X.X.1.1.1.1.",
"1.1.1.1.1.1.1.1.1.- > ; % % % % % % % % % % % % % % % % % % % % % % % % % % % % % + 1.1.1.1.1.1.1.1.1.1.1.1.+ O , ( X.) 1.1.1.1.",
"1.1.1.1.1.$ > > - % % % % % % % % % % % % % % % % % % % % % % % % % % % % % % % % % % % @ 1.1.1.1.1.1.1.1.O + + m X.X./ 1.1.1.1.",
"1.O ; > > % % $ % % # $ $ % % > > > % % % % % % % % % % % % % % % % % % % % % % % % % % % % % + 1.1.1.1.1.O O - Y X.X.Y 1.1.1.1.",
"# % % $ % % % % % % # & X : 0 s v x e 4 > % % % % % % % % % % % % % % % % % % % % % % % % % % % % % + 1.1.O + a X.X.X.S 1.1.1.1.",
"@ $ % % % % > > > 4 . j k Q @.&.*.&.O.H r 3 % % % % % % % % % % % % % % % % % % % % % % % % % % % % % % % + @ m X.X.X.1.1.1.1.1.",
"1.8 0 0 r s s z Z E ^ ..%.&.*.&.&.&.&.&.U s 7 > % % % % % % % % % % % % % % % % % % % % % % % % % % % % # @ , U X.X.) 1.1.1.1.1.",
"1.1.K ) ..@.#.&.%.*.#.X.{ [ ' _ X.) ) #.%.| s > % % % % % % % % % % % % % % % % % % % % % % % % % % % % ; , M ) +.X.) 1.1.1.1.1.",
"1.1.1.! *.*.&.) R _ ` } o._ ] :.<.=.S @.&.#.c - O @ % % % % % % % % % % % % % % % % % % % % % % % % % 3 4 a ( X.X.X.) 1.1.1.1.1.",
"1.1.1.1.1.( #.>.$.F } <.>.! ! ,.<.) ^ ) &.&.D , O @ % % % % % % % % % % % % % % % % % % % % > > 2 2 0 e d E X.X.X.X.! 1.1.1.1.1.",
"1.1.1.1.1.1.( <.-.Y ..>.,.! *.-.,./ -.Q &.&.^ 8 @ O % % % % % % % % % % % % $ % % > > > 2 3 5 7 0 0 l L X.+.X.X.X.X.! 1.1.1.1.1.",
"1.1.1.1.1.1.1.-.;.) >.) >.) >.X.-.&.;.) &.&.O.z > % % % % % % % % % % > > 3 > 3 5 5 7 0 5 r r x Z L #.&.#.X.X.X.X.) 1.1.1.1.1.1.",
"1.1.1.1.1.1.1.1.*.-.<.*./ #.<.X.) ;.+.#.&.&.| l 4 % % % % % % % % 2 0 w e e 0 0 r s v Z b Q @.&.&.&.&.&.#.X.X.X.X.! 1.1.1.1.1.1.",
"1.1.1.1.1.1.1.1.n -.,.=.I _ $.W G T +.%.#.&.&.| B > % % % % % % % 4 B H L U A b | %.&.%.%.%.*.&.&.#.O.) U Y / ) X.X.K 1.1.1.1.1.",
"1.1.1.1.1.1.1.1.P X.+.) ~ { { { X.%.%.@.%.&.&.&...q % % % % % % ; r ..&.&.&.%.#.&.&.&.&.%.#.X.( U D c 1.1.n D P Y R S 1.1.1.1.1.",
"1.1.1.1.1.1.1.1.1.E #.&.&.*.&.&.&.%.#.%.&.&.&.&.%.A > % % % % % > 8 ) &.*.&.&.&.&.@.X.) Y D n 1.1.1.1.1.1.< g N D D S 1.1.1.1.1.",
"1.1.1.1.1.1.1.1.1.1.( &.%.&.&.*.*.&.*.&.&.&.&.&.&.X.q ; % % % % % 8 Y #.#.@.X.( Y D n f 1.1.1.1.1.1.1.1.1.1.1 u g n f 1.1.1.1.1.",
"1.1.1.1.1.1.1.1.1.1.1.n K Y Y ^ X.X.X.O.X.O.X.X.X.X.B 2 % % % % - , M Y D N f t 1.1.1.1.1.1.1.1.1.1.1.1.1.1.1.< u u u < 1.1.1.1.",
"1.1.1.1.1.1.1.1.1.1.1.1.1.1.1.1.1.1.1.1.1.1.= 1 h h h 1 > % % % % > # 1.1.1.1.1.1.1.1.1.1.1.1.1.1.1.1.1.1.1.1.1.1.1 u u 1.1.1.1.",
"1.1.1.1.1.1.1.1.1.1.1.1.1.1.1.1.1.1.1.1.1.1.1.1.1.n n g , > % % % ; % 1.1.1.1.1.1.1.1.1.1.1.1.1.1.1.1.1.1.1.1.1.1.1.1.1.1.1.1.1.",
"1.1.1.1.1.1.1.1.1.1.1.1.1.1.1.1.1.1.1.1.1.1.1.1.1.1.n n g , > - % % - 1.1.1.1.1.1.1.1.1.1.1.1.1.1.1.1.1.1.1.1.1.1.1.1.1.1.1.1.1.",
"1.1.1.1.1.1.1.1.1.1.1.1.1.1.1.1.1.1.1.1.1.1.1.1.1.1.1.g n n y > > - % % 1.1.1.1.1.1.1.1.1.1.1.1.1.1.1.1.1.1.1.1.1.1.1.1.1.1.1.1.",
"1.1.1.1.1.1.1.1.1.1.1.1.1.1.1.1.1.1.1.1.1.1.1.1.1.1.1.1.1.u h h y > > > @ 1.1.1.1.1.1.1.1.1.1.1.1.1.1.1.1.1.1.1.1.1.1.1.1.1.1.1.",
"1.1.1.1.1.1.1.1.1.1.1.1.1.1.1.1.1.1.1.1.1.1.1.1.1.1.1.1.1.1.1.1.u u 1.+ % 1.1.1.1.1.1.1.1.1.1.1.1.1.1.1.1.1.1.1.1.1.1.1.1.1.1.1.",
"1.1.1.1.1.1.1.1.1.1.1.1.1.1.1.1.1.1.1.1.1.1.1.1.1.1.1.1.1.1.1.1.1.1.1.1.1.1.1.1.1.1.1.1.1.1.1.1.1.1.1.1.1.1.1.1.1.1.1.1.1.1.1.1.",
"1.1.1.1.1.1.1.1.1.1.1.1.1.1.1.1.1.1.1.1.1.1.1.1.1.1.1.1.1.1.1.1.1.1.1.1.1.1.1.1.1.1.1.1.1.1.1.1.1.1.1.1.1.1.1.1.1.1.1.1.1.1.1.1.",
"1.1.1.1.1.1.1.1.1.1.1.1.1.1.1.1.1.1.1.1.1.1.1.1.1.1.1.1.1.1.1.1.1.1.1.1.1.1.1.1.1.1.1.1.1.1.1.1.1.1.1.1.1.1.1.1.1.1.1.1.1.1.1.1.",
"1.1.1.1.1.1.1.1.1.1.1.1.1.1.1.1.1.1.1.1.1.1.1.1.1.1.1.1.1.1.1.1.1.1.1.1.1.1.1.1.1.1.1.1.1.1.1.1.1.1.1.1.1.1.1.1.1.1.1.1.1.1.1.1.",
"1.1.1.1.1.1.1.1.1.1.1.1.1.1.1.1.1.1.1.1.1.1.1.1.1.1.1.1.1.1.1.1.1.1.1.1.1.1.1.1.1.1.1.1.1.1.1.1.1.1.1.1.1.1.1.1.1.1.1.1.1.1.1.1.",
"1.1.1.1.1.1.1.1.1.1.1.1.1.1.1.1.1.1.1.1.1.1.1.1.1.1.1.1.1.1.1.1.1.1.1.1.1.1.1.1.1.1.1.1.1.1.1.1.1.1.1.1.1.1.1.1.1.1.1.1.1.1.1.1.",
"1.1.1.1.1.1.1.1.1.1.1.1.1.1.1.1.1.1.1.1.1.1.1.1.1.1.1.1.1.1.1.1.1.1.1.1.1.1.1.1.1.1.1.1.1.1.1.1.1.1.1.1.1.1.1.1.1.1.1.1.1.1.1.1.",
"1.1.1.1.1.1.1.1.1.1.1.1.1.1.1.1.1.1.1.1.1.1.1.1.1.1.1.1.1.1.1.1.1.1.1.1.1.1.1.1.1.1.1.1.1.1.1.1.1.1.1.1.1.1.1.1.1.1.1.1.1.1.1.1.",
"1.1.1.1.1.1.1.1.1.1.1.1.1.1.1.1.1.1.1.1.1.1.1.1.1.1.1.1.1.1.1.1.1.1.1.1.1.1.1.1.1.1.1.1.1.1.1.1.1.1.1.1.1.1.1.1.1.1.1.1.1.1.1.1.",
"1.1.1.1.1.1.1.1.1.1.1.1.1.1.1.1.1.1.1.1.1.1.1.1.1.1.1.1.1.1.1.1.1.1.1.1.1.1.1.1.1.1.1.1.1.1.1.1.1.1.1.1.1.1.1.1.1.1.1.1.1.1.1.1.",
"1.1.1.1.1.1.1.1.1.1.1.1.1.1.1.1.1.1.1.1.1.1.1.1.1.1.1.1.1.1.1.1.1.1.1.1.1.1.1.1.1.1.1.1.1.1.1.1.1.1.1.1.1.1.1.1.1.1.1.1.1.1.1.1.",
"1.1.1.1.1.1.1.1.1.1.1.1.1.1.1.1.1.1.1.1.1.1.1.1.1.1.1.1.1.1.1.1.1.1.1.1.1.1.1.1.1.1.1.1.1.1.1.1.1.1.1.1.1.1.1.1.1.1.1.1.1.1.1.1.",
"1.1.1.1.1.1.1.1.1.1.1.1.1.1.1.1.1.1.1.1.1.1.1.1.1.1.1.1.1.1.1.1.1.1.1.1.1.1.1.1.1.1.1.1.1.1.1.1.1.1.1.1.1.1.1.1.1.1.1.1.1.1.1.1.",
"1.1.1.1.1.1.1.1.1.1.1.1.1.1.1.1.1.1.1.1.1.1.1.1.1.1.1.1.1.1.1.1.1.1.1.1.1.1.1.1.1.1.1.1.1.1.1.1.1.1.1.1.1.1.1.1.1.1.1.1.1.1.1.1.",
"1.1.1.1.1.1.1.1.1.1.1.1.1.1.1.1.1.1.1.1.1.1.1.1.1.1.1.1.1.1.1.1.1.1.1.1.1.1.1.1.1.1.1.1.1.1.1.1.1.1.1.1.1.1.1.1.1.1.1.1.1.1.1.1."
};
