/* XPM */
static char *result[] = {
/* columns rows colors chars-per-pixel */
"64 64 119 2 ",
"   c #273035",
".  c #693D2F",
"X  c #333E45",
"o  c #344047",
"O  c #36424A",
"+  c #39454D",
"@  c #3A4750",
"#  c #3D4A53",
"$  c #494048",
"%  c #564A44",
"&  c #414D56",
"*  c #414F58",
"=  c #44525B",
"-  c #49565F",
";  c #555857",
":  c #475660",
">  c #485761",
",  c #4B5A64",
"<  c #4E5E69",
"1  c #525A60",
"2  c #515F6A",
"3  c #556067",
"4  c #53626C",
"5  c #5A656D",
"6  c #556671",
"7  c #586772",
"8  c #566A77",
"9  c #5B6A74",
"0  c #5F6F7A",
"q  c #5E717D",
"w  c #656566",
"e  c #6A6B6C",
"r  c #646D73",
"t  c #616F79",
"y  c #6F7172",
"u  c #61727F",
"i  c #6A757C",
"p  c gray45",
"a  c #7A7B7B",
"s  c #9C2524",
"d  c #AA4A47",
"f  c #5F7481",
"g  c #617481",
"h  c #677B87",
"j  c #6C7E8A",
"k  c #7F7F80",
"l  c #6D808D",
"z  c #72828D",
"x  c #7B858C",
"c  c #6C8391",
"v  c #728693",
"b  c #788A95",
"n  c #738A99",
"m  c #848484",
"M  c #848A8F",
"N  c #8A8A8A",
"B  c #818B93",
"V  c #84919B",
"C  c #8D969D",
"Z  c #8E989D",
"A  c #959494",
"S  c #9A9797",
"D  c #9C9C9C",
"F  c #B5888C",
"G  c #A39192",
"H  c #B19D9F",
"J  c #BD999C",
"K  c #8A97A0",
"L  c #8698A3",
"P  c #8B99A1",
"I  c #969EA3",
"U  c #9C9FA1",
"Y  c #97A1A8",
"T  c #9CA3A8",
"R  c #9FA8AF",
"E  c #A4A4A4",
"W  c #A0A7AC",
"Q  c #ABACAC",
"!  c #B6A3A5",
"~  c #BFA4A7",
"^  c #B7A9AA",
"/  c #BCADAF",
"(  c #A4AEB4",
")  c #AAAFB2",
"_  c #B0AFB0",
"`  c #BFAEB0",
"'  c #AEB1B3",
"]  c #AEB6BB",
"[  c #B1B3B4",
"{  c #B9B0B2",
"}  c #BCB6B8",
"|  c #B4B9BC",
" . c #BBBCBC",
".. c #C3A3A6",
"X. c #DCA2A7",
"o. c #C0BFBF",
"O. c #D8B0B3",
"+. c #DDBCBF",
"@. c #AEB8C0",
"#. c #B5BDC1",
"$. c #BABEC1",
"%. c #BFC2C5",
"&. c #C3C4C4",
"*. c #C4C7C9",
"=. c #C6C9CB",
"-. c #CBCCCD",
";. c #CDCFD0",
":. c #CFD1D2",
">. c #D5D6D6",
",. c #D6D7D8",
"<. c #D7D8D9",
"1. c #DCDCDD",
"2. c #DFE0E1",
"3. c #E4E5E5",
"4. c #EBEBEB",
"5. c #F1ECED",
"6. c #F3F3F3",
"7. c #FBFBFB",
"8. c #2A52A5",
/* pixels */
"8.8.8.8.8.8.8.8.8.8.8.8.8.8.8.8.8.8.8.8.8.8.8.8.8.8.8.8.8.8.8.8.8.8.8.8.8.8.8.8.8.8.8.8.8.8.8.8.8.8.8.8.8.8.8.8.8.8.8.8.8.8.8.8.",
"8.8.8.8.8.8.8.8.8.8.8.8.8.8.8.8.8.8.8.8.8.8.8.8.8.8.8.8.8.8.8.8.8.8.8.8.8.8.8.8.8.8.8.8.8.8.8.8.8.8.8.8.8.8.8.8.8.8.8.8.8.8.8.8.",
"8.8.8.8.8.8.8.8.8.8.8.8.8.8.8.8.8.8.8.8.8.8.8.8.8.8.8.8.8.8.8.8.8.8.8.8.8.8.8.8.8.8.8.8.8.8.8.8.8.8.8.8.8.8.8.8.8.8.8.8.8.8.8.8.",
"8.8.8.8.8.8.8.8.8.8.8.8.8.8.8.8.8.8.8.8.8.8.8.8.8.8.8.8.8.8.8.8.8.8.8.8.8.8.8.8.8.8.8.8.8.8.8.8.8.8.8.8.8.8.8.8.8.8.8.8.8.8.8.8.",
"8.8.8.8.8.8.8.8.8.8.8.8.8.8.8.8.8.8.8.8.8.8.8.8.8.8.8.8.8.8.8.8.8.8.8.8.8.8.8.8.8.8.8.8.8.8.8.8.8.8.8.8.8.8.8.8.8.8.8.8.8.8.8.8.",
"8.8.8.8.8.8.8.8.8.8.8.8.8.8.8.8.8.8.8.8.8.8.8.8.8.8.8.8.8.8.8.8.8.8.8.8.8.8.8.8.8.8.8.8.8.8.8.8.8.8.8.8.8.8.8.8.8.8.8.8.8.8.8.8.",
"8.8.8.8.8.8.8.8.8.8.8.8.8.8.8.8.8.8.8.8.8.8.8.8.8.8.8.8.8.8.8.8.8.8.8.8.8.8.8.8.8.8.8.8.8.8.8.8.8.8.8.8.8.8.8.8.8.8.8.8.8.8.8.8.",
"8.8.8.8.8.8.8.8.8.8.8.8.8.8.8.8.8.8.8.8.8.8.8.8.8.8.8.8.8.8.8.8.8.8.8.8.8.8.8.8.8.8.8.8.8.8.8.8.8.8.8.8.8.8.8.8.8.8.8.8.8.8.8.8.",
"8.8.8.8.8.8.8.8.8.8.8.8.8.8.8.8.8.8.8.8.8.8.8.8.8.8.8.8.8.8.8.8.8.8.8.8.8.8.8.8.8.8.8.8.8.8.8.8.8.8.8.8.8.8.8.8.8.8.8.8.8.8.8.8.",
"8.8.8.8.8.8.8.8.8.8.8.8.8.8.8.8.8.8.8.8.8.8.8.8.8.8.8.8.8.8.8.8.8.8.8.8.8.8.8.8.8.8.8.8.8.8.8.8.8.8.8.8.8.8.8.8.8.8.8.8.8.8.8.8.",
"8.8.8.8.8.8.8.8.8.8.8.8.8.8.8.8.8.8.8.8.8.8.8.8.8.8.8.8.8.8.8.8.8.8.8.8.8.8.8.8.8.8.8.8.8.8.8.8.8.8.8.8.8.8.8.8.8.8.8.8.8.8.8.8.",
"8.8.8.8.8.8.8.8.8.8.8.8.8.8.8.8.8.8.8.8.8.8.8.8.8.8.8.8.8.8.8.8.8.8.8.8.8.8.8.8.8.8.8.8.8.8.8.8.8.8.8.8.8.8.8.8.8.8.8.8.8.8.8.8.",
"8.8.8.8.8.8.8.8.8.8.8.8.8.8.8.8.8.8.8.8.8.8.8.8.8.8.8.8.8.8.8.8.8.8.8.8.8.8.8.8.8.8.8.8.8.8.8.8.8.8.8.8.8.8.8.8.8.8.8.8.8.8.8.8.",
"8.8.8.8.8.8.8.8.8.8.8.8.8.8.8.8.8.8.8.8.8.8.8.8.8.8.8.8.8.8.8.8.8.8.8.8.8.8.8.8.8.8.8.8.8.8.8.8.8.8.8.8.8.8.8.8.8.8.8.8.8.8.8.8.",
"8.8.8.8.8.8.8.8.8.8.8.8.8.8.8.8.8.8.8.8.8.8.8.8.8.8.8.8.8.8.# + 8.8.8.8.8.8.8.8.8.8.8.8.8.8.8.8.8.8.8.8.8.8.8.8.8.8.8.8.8.8.8.8.",
"8.8.8.8.8.8.8.8.8.8.8.8.8.8.8.8.8.8.8.8.8.8.8.8.8.8.8.8.= : # O 8.8.8.8.8.8.8.8.8.8.8.8.8.8.8.8.8.8.8.8.8.8.8.8.8.8.8.8.8.8.8.8.",
"8.8.8.8.8.8.8.8.8.8.8.8.8.8.8.8.8.8.8.8.8.8.8.8.8.8.& - = # # + 8.8.8.8.8.8.8.8.8.8.8.8.8.8.8.8.8.8.8.8.8.8.8.8.8.8.8.8.8.8.x 8.",
"8.8.8.8.8.8.8.8.8.8.8.8.8.8.8.8.8.8.8.8.8.8.8.8.8.= - * # # # O 8.8.8.8.8.8.8.8.8.8.8.8.8.8.8.8.8.8.8.8.8.8.8.8.8.8.8.8.8.b D 8.",
"8.8.8.8.8.8.8.8.8.8.8.8.8.8.8.8.8.8.8.8.8.8.8.8.- - * # # # # X 8.8.8.8.8.8.8.8.8.8.8.8.8.8.8.8.8.8.8.8.8.8.8.8.8.8.8.8.l ] A 8.",
"8.8.8.8.8.8.8.8.8.8.8.8.8.8.8.8.8.8.8.8.8.8.8.- > * # # # # @   8.8.8.8.8.8.8.8.8.8.8.8.8.8.8.8.8.8.8.8.8.8.8.8.8.8.8.c V 2.8.8.",
"8.8.8.8.8.8.8.8.8.8.8.8.8.8.8.8.8.8.8.8.8.8.8., * # # # # # # + 8.8.8.8.8.8.8.8.8.8.8.8.8.8.8.8.8.8.8.8.8.8.8.8.8.8.n l *.2.8.8.",
"8.8.8.8.8.8.8.8.8.8.8.8.8.8.8.8.8.8.8.8.8.8.: - # # # # # # # # 8.8.8.8.8.8.8.8.8.8.8.8.8.8.8.8.8.8.8.8.8.8.8.8.8.j l P 3.<.8.8.",
"8.8.8.8.8.8.8.8.8.8.8.8.8.8.8.8.8.8.8.8.8.# : # # # # # # # # # O 8.8.8.8.8.8.8.8.8.8.8.8.8.8.8.8.8.8.8.8.8.8.8.8.v j =.4.&.8.8.",
"8.8.8.8.8.8.8.8.8.8.8.8.8.8.8.8.8.8.8.8.8.4 < , > = - = * * * * # o 8.8.8.8.8.8.8.8.8.8.8.8.8.8.8.8.8.8.8.8.8.8.f j P 4.4.E 8.8.",
"8.8.8.8.8.8.8.8.8.8.8.8.8.8.8.8.& = = = > , - : > > > , , , , , , , , & 8.8.8.8.8.8.8.8.8.8.8.8.8.8.8.8.8.8.8.8.h j *.4.4.8.8.8.",
"8.8.8.8.8.8.8.8.8.8.8.8.# # = = # & & # # # # # # # # # # # # * # # # * * = # # @ O X 8.8.8.8.8.8.8.8.8.8.8.8.8.l K 4.4.3.8.8.8.",
"8.8.8.8.8.8.8.8.+ & = * # # # # # # # # # # # # # # # # @ # # # # # # # # # # # # # # # # + O 8.8.8.8.8.8.8.8.8.l #.4.4.3.8.8.8.",
"8.8.8.8.8.# = = & # # # # # # # # # # # # # # # # # # # # # # # # # # # # # # # # # # # # # # # * 8.8.8.8.8.8.9 v <.4.4.<.8.8.8.",
"8.8.& & = # # # # # # + @ # # = = - : = # # # # # # # # # # # # # # # # # @ # # # # # # # # # # # < > # 8.8.8.u K 4.4.4.&.8.8.8.",
"8.X & # # # # # # # + $ . ; 9 0 i b C x 9 , * & # # # # # # # # # # # # # # # # # # # # # # # # # , < < < = 8.q ( 4.4.4.Q 8.8.8.",
"8.X # # # # & * = , % s d ^ %.=.-.;.>.:.$.B 4 = # # # # # # # # @ # # # # # # # # # # # # # # # # : < < < < < q ] 4.4.4.E 8.8.8.",
"8.8.4 2 4 6 9 9 i Z ] [ -.:.:.:.>.;.-.:.:.-.z 4 - # # # # # # # # # # # # # # # # # # # # # # # # = < < < < 4 j *.4.4.3.8.8.8.8.",
"8.8.8.Y ' #.&.-.:.:.;.;.-.-. ...^ !  . .-.:.=.Z < # @ # # # # # # # # # # # # # # # # # # # # # # : < < < < 6 v :.4.4.3.8.8.8.8.",
"8.8.8.8.*.>.:.>.-.o./ ....^ ..X.+.5.6.E Q :.:.) , o + # # # # # # # # # # # # # # # # # # # # # # > < < < 6 f L 1.4.4.4.8.8.8.8.",
"8.8.8.8.8.N >.*.-.{ J O.5.6.*.A 4.7.4.Q Q -.:.*.r + o # # # # # # # # # # # # # # # # # # # # # # : 6 6 8 u z ] 4.4.4.3.8.8.8.8.",
"8.8.8.8.8.8.8.3.7.1.D  .7.6.o.Q &.7.1.=. .-.:.:.i + X # # # # # # # # # # # + # # # # # # # = # : < q f g z R 4.4.4.4.3.8.8.8.8.",
"8.8.8.8.8.8.8.8.7.3.Q 1.&.7.o.<._ 5.&.4.o.-.;.;.N = o @ # # # # # # # # # # * * # # = = : > , > < q l l V &.1.4.4.4.4. .8.8.8.8.",
"8.8.8.8.8.8.8.8.Q 4.o.7.o.>.&.5.o.-.&.6.%.;.:.;.T 4 # # # # # # # # # = : > , < < > < 6 7 7 9 7 q V | >.1.1.1.4.4.4.=.e 8.8.8.8.",
"8.8.8.8.8.8.8.8.8. .4.7.1.Q  .7.1.S ..} =.;.:.:.U 6 = # # # # # # # & = 7 7 6 7 9 5 9 x C R | ' %.,.1.1.1.1.<.3.4.4.3.m 8.8.8.8.",
"8.8.8.8.8.8.8.8.8.8.-.1.o.G F ! H J ` -.-.-.:.:.:.-.i # # # # # # # = 2 I | %.*.;.T ( :.:.:.:.:.;.,.1.1.,.-._ >.4.4.4.1.8.8.8.8.",
"8.8.8.8.8.8.8.8.8.[ ;.;.-.;.;.:.;.;.:.-.*.;.:.:.:.:.) 1 # # # # # # = r &.:.:.>.;.:.;.:.>.:.-.:.-.>.=.[ m 8.8.[ 3.4.4.2.8.8.8.8.",
"8.8.8.8.8.8.8.8.8.8.[ ;.;.>.:.:.:.:.;.;.;.:.:.:.:.:.;.x = # # # # # = 5  .:.:.:.:.:.:.:.=.&. .Q D m 8.8.8.8.8.8.-.3.4.2.8.8.8.8.",
"8.8.8.8.8.8.8.8.8.8.8. .;.-.:.:.:.:.:.:.:.:.:.:.:.:.:.%.5 # # # # # = - E =.-.=.&.&.| Q S m w 8.8.8.8.8.8.8.8.8.U <.1.1.8.8.8.8.",
"8.8.8.8.8.8.8.8.8.8.8.8.N E Q Q [ o.&.*.=.=.=.*.*.*.%.%.U , # # # # & - a E Q T N a e 8.8.8.8.8.8.8.8.8.8.8.8.8.8.Q >.>.H 8.8.8.",
"8.8.8.8.8.8.8.8.8.8.8.8.8.8.8.8.8.8.8.8.8.8.a a p p d V m e = = # # # # = 8.8.8.8.8.8.8.8.8.8.8.8.8.8.8.8.8.8.8.8.8.E -.*.8.8.8.",
"8.8.8.8.8.8.8.8.8.8.8.8.8.8.8.8.8.8.8.8.8.8.8.8.8.8.8.n m k p - = & # # # X 8.8.8.8.8.8.8.8.8.8.8.8.8.8.8.8.8.8.8.8.8.8.D 8.8.8.",
"8.8.8.8.8.8.8.8.8.8.8.8.8.8.8.8.8.8.8.8.8.8.8.8.8.8.8.8.e m N a e ; = = # # 8.8.8.8.8.8.8.8.8.8.8.8.8.8.8.8.8.8.8.8.8.8.8.8.8.8.",
"8.8.8.8.8.8.8.8.8.8.8.8.8.8.8.8.8.8.8.8.8.8.8.8.8.8.8.8.8.8.w p m m w 8.@ # # 8.8.8.8.8.8.8.8.8.8.8.8.8.8.8.8.8.8.8.8.8.8.8.8.8.",
"8.8.8.8.8.8.8.8.8.8.8.8.8.8.8.8.8.8.8.8.8.8.8.8.8.8.8.8.8.8.8.8.8.w p 8.8.8.8.8.8.8.8.8.8.8.8.8.8.8.8.8.8.8.8.8.8.8.8.8.8.8.8.8.",
"8.8.8.8.8.8.8.8.8.8.8.8.8.8.8.8.8.8.8.8.8.8.8.8.8.8.8.8.8.8.8.8.8.8.8.8.8.8.8.8.8.8.8.8.8.8.8.8.8.8.8.8.8.8.8.8.8.8.8.8.8.8.8.8.",
"8.8.8.8.8.8.8.8.8.8.8.8.8.8.8.8.8.8.8.8.8.8.8.8.8.8.8.8.8.8.8.8.8.8.8.8.8.8.8.8.8.8.8.8.8.8.8.8.8.8.8.8.8.8.8.8.8.8.8.8.8.8.8.8.",
"8.8.8.8.8.8.8.8.8.8.8.8.8.8.8.8.8.8.8.8.8.8.8.8.8.8.8.8.8.8.8.8.8.8.8.8.8.8.8.8.8.8.8.8.8.8.8.8.8.8.8.8.8.8.8.8.8.8.8.8.8.8.8.8.",
"8.8.8.8.8.8.8.8.8.8.8.8.8.8.8.8.8.8.8.8.8.8.8.8.8.8.8.8.8.8.8.8.8.8.8.8.8.8.8.8.8.8.8.8.8.8.8.8.8.8.8.8.8.8.8.8.8.8.8.8.8.8.8.8.",
"8.8.8.8.8.8.8.8.8.8.8.8.8.8.8.8.8.8.8.8.8.8.8.8.8.8.8.8.8.8.8.8.8.8.8.8.8.8.8.8.8.8.8.8.8.8.8.8.8.8.8.8.8.8.8.8.8.8.8.8.8.8.8.8.",
"8.8.8.8.8.8.8.8.8.8.8.8.8.8.8.8.8.8.8.8.8.8.8.8.8.8.8.8.8.8.8.8.8.8.8.8.8.8.8.8.8.8.8.8.8.8.8.8.8.8.8.8.8.8.8.8.8.8.8.8.8.8.8.8.",
"8.8.8.8.8.8.8.8.8.8.8.8.8.8.8.8.8.8.8.8.8.8.8.8.8.8.8.8.8.8.8.8.8.8.8.8.8.8.8.8.8.8.8.8.8.8.8.8.8.8.8.8.8.8.8.8.8.8.8.8.8.8.8.8.",
"8.8.8.8.8.8.8.8.8.8.8.8.8.8.8.8.8.8.8.8.8.8.8.8.8.8.8.8.8.8.8.8.8.8.8.8.8.8.8.8.8.8.8.8.8.8.8.8.8.8.8.8.8.8.8.8.8.8.8.8.8.8.8.8.",
"8.8.8.8.8.8.8.8.8.8.8.8.8.8.8.8.8.8.8.8.8.8.8.8.8.8.8.8.8.8.8.8.8.8.8.8.8.8.8.8.8.8.8.8.8.8.8.8.8.8.8.8.8.8.8.8.8.8.8.8.8.8.8.8.",
"8.8.8.8.8.8.8.8.8.8.8.8.8.8.8.8.8.8.8.8.8.8.8.8.8.8.8.8.8.8.8.8.8.8.8.8.8.8.8.8.8.8.8.8.8.8.8.8.8.8.8.8.8.8.8.8.8.8.8.8.8.8.8.8.",
"8.8.8.8.8.8.8.8.8.8.8.8.8.8.8.8.8.8.8.8.8.8.8.8.8.8.8.8.8.8.8.8.8.8.8.8.8.8.8.8.8.8.8.8.8.8.8.8.8.8.8.8.8.8.8.8.8.8.8.8.8.8.8.8.",
"8.8.8.8.8.8.8.8.8.8.8.8.8.8.8.8.8.8.8.8.8.8.8.8.8.8.8.8.8.8.8.8.8.8.8.8.8.8.8.8.8.8.8.8.8.8.8.8.8.8.8.8.8.8.8.8.8.8.8.8.8.8.8.8.",
"8.8.8.8.8.8.8.8.8.8.8.8.8.8.8.8.8.8.8.8.8.8.8.8.8.8.8.8.8.8.8.8.8.8.8.8.8.8.8.8.8.8.8.8.8.8.8.8.8.8.8.8.8.8.8.8.8.8.8.8.8.8.8.8.",
"8.8.8.8.8.8.8.8.8.8.8.8.8.8.8.8.8.8.8.8.8.8.8.8.8.8.8.8.8.8.8.8.8.8.8.8.8.8.8.8.8.8.8.8.8.8.8.8.8.8.8.8.8.8.8.8.8.8.8.8.8.8.8.8.",
"8.8.8.8.8.8.8.8.8.8.8.8.8.8.8.8.8.8.8.8.8.8.8.8.8.8.8.8.8.8.8.8.8.8.8.8.8.8.8.8.8.8.8.8.8.8.8.8.8.8.8.8.8.8.8.8.8.8.8.8.8.8.8.8."
};
