/* XPM */
static char *result[] = {
/* columns rows colors chars-per-pixel */
"64 64 111 2 ",
"   c #7D342E",
".  c #5F4833",
"X  c #2F3940",
"o  c #323D44",
"O  c #473E43",
"+  c #36414A",
"@  c #3A454E",
"#  c #3C484F",
"$  c #3B4750",
"%  c #3D4A53",
"&  c #404750",
"*  c #404E57",
"=  c #414F58",
"-  c #44525C",
";  c #4B555C",
":  c gray32",
">  c #53595E",
",  c #465661",
"<  c #485761",
"1  c #4C5A64",
"2  c #4F5F6A",
"3  c #545F67",
"4  c #595F64",
"5  c #505F6A",
"6  c #4F616D",
"7  c #556067",
"8  c #53626D",
"9  c #59656D",
"0  c #556671",
"q  c #586772",
"w  c #5A6974",
"e  c #576B78",
"r  c #5F6E79",
"t  c #646464",
"y  c #64696D",
"u  c #6E6E6E",
"i  c #606E78",
"p  c #6C7377",
"a  c #64727C",
"s  c #6A767E",
"d  c #737373",
"f  c #7C7C7C",
"g  c #B52728",
"h  c #A37670",
"j  c #6A7680",
"k  c #6F7B84",
"l  c #707C84",
"z  c #7C8286",
"x  c #738089",
"c  c #79858D",
"v  c #7B888F",
"b  c #7E8A92",
"n  c #838383",
"m  c #83888B",
"M  c gray54",
"N  c #848E95",
"B  c #8E9295",
"V  c #8B949B",
"C  c #979797",
"Z  c #9A9A9A",
"A  c #AB9C9D",
"S  c #B8989B",
"D  c #949DA3",
"F  c #9A9EA0",
"G  c #BA9FA2",
"H  c #97A0A5",
"J  c #9CA1A3",
"K  c #9DA4A9",
"L  c #A3A3A3",
"P  c #ABA2A3",
"I  c #A3AAAE",
"U  c #ABABAC",
"Y  c #BCA2A5",
"T  c #BDA6A8",
"R  c #B1AAAB",
"E  c #ABAEB1",
"W  c #ADB3B6",
"Q  c #B5B5B5",
"!  c #BEB4B6",
"~  c #B2B6B8",
"^  c #B6B9BA",
"/  c #BBBBBC",
"(  c #C0A2A5",
")  c #CDA2A7",
"_  c #C5A7AA",
"`  c #C2AFB1",
"'  c #C4BCBD",
"]  c #CFB8BA",
"[  c #B9BDC0",
"{  c #BFC1C3",
"}  c #C3C4C4",
"|  c #CAC2C3",
" . c #C4C7C8",
".. c #C8C6C8",
"X. c #C6C9CA",
"o. c #CBCCCD",
"O. c #D1C3C4",
"+. c #D0CDCD",
"@. c #CDCFD0",
"#. c #CFD1D2",
"$. c #D3D3D3",
"%. c #D8D7D7",
"&. c #D6D7D8",
"*. c #DDDDDD",
"=. c #E1DDDE",
"-. c #EBDFE0",
";. c #E3E3E3",
":. c #EDEDED",
">. c #F4F4F4",
",. c #FBFBFB",
"<. c None",
/* pixels */
"<.<.<.<.<.<.<.<.<.<.<.<.<.<.<.<.<.<.<.<.<.<.<.<.<.<.<.<.<.<.<.<.<.<.<.<.<.<.<.<.<.<.<.<.<.<.<.<.<.<.<.<.<.<.<.<.<.<.<.<.<.<.<.<.",
"<.<.<.<.<.<.<.<.<.<.<.<.<.<.<.<.<.<.<.<.<.<.<.<.<.<.<.<.<.<.<.<.<.<.<.<.<.<.<.<.<.<.<.<.<.<.<.<.<.<.<.<.<.<.<.<.<.<.<.<.<.<.<.<.",
"<.<.<.<.<.<.<.<.<.<.<.<.<.<.<.<.<.<.<.<.<.<.<.<.<.<.<.<.<.<.<.<.<.<.<.<.<.<.<.<.<.<.<.<.<.<.<.<.<.<.<.<.<.<.<.<.<.<.<.<.<.<.<.<.",
"<.<.<.<.<.<.<.<.<.<.<.<.<.<.<.<.<.<.<.<.<.<.<.<.<.<.<.<.<.<.<.<.<.<.<.<.<.<.<.<.<.<.<.<.<.<.<.<.<.<.<.<.<.<.<.<.<.<.<.<.<.<.<.<.",
"<.<.<.<.<.<.<.<.<.<.<.<.<.<.<.<.<.<.<.<.<.<.<.<.<.<.<.<.<.<.<.<.<.<.<.<.<.<.<.<.<.<.<.<.<.<.<.<.<.<.<.<.<.<.<.<.<.<.<.<.<.<.<.<.",
"<.<.<.<.<.<.<.<.<.<.<.<.<.<.<.<.<.<.<.<.<.<.<.<.<.<.<.<.<.<.<.<.<.<.<.<.<.<.<.<.<.<.<.<.<.<.<.<.<.<.<.<.<.<.<.<.<.<.<.<.<.<.<.<.",
"<.<.<.<.<.<.<.<.<.<.<.<.<.<.<.<.<.<.<.<.<.<.<.<.<.<.<.<.<.<.<.<.<.<.<.<.<.<.<.<.<.<.<.<.<.<.<.<.<.<.<.<.<.<.<.<.<.<.<.<.<.<.<.<.",
"<.<.<.<.<.<.<.<.<.<.<.<.<.<.<.<.<.<.<.<.<.<.<.<.<.<.<.<.<.<.<.<.<.<.<.<.<.<.<.<.<.<.<.<.<.<.<.<.<.<.<.<.<.<.<.<.<.<.<.<.<.<.<.<.",
"<.<.<.<.<.<.<.<.<.<.<.<.<.<.<.<.<.<.<.<.<.<.<.<.<.<.<.<.<.<.<.<.<.<.<.<.<.<.<.<.<.<.<.<.<.<.<.<.<.<.<.<.<.<.<.<.<.<.<.<.<.<.<.<.",
"<.<.<.<.<.<.<.<.<.<.<.<.<.<.<.<.<.<.<.<.<.<.<.<.<.<.<.<.<.<.<.<.<.<.<.<.<.<.<.<.<.<.<.<.<.<.<.<.<.<.<.<.<.<.<.<.<.<.<.<.<.<.<.<.",
"<.<.<.<.<.<.<.<.<.<.<.<.<.<.<.<.<.<.<.<.<.<.<.<.<.<.<.<.<.<.<.<.<.<.<.<.<.<.<.<.<.<.<.<.<.<.<.<.<.<.<.<.<.<.<.<.<.<.<.<.<.<.<.<.",
"<.<.<.<.<.<.<.<.<.<.<.<.<.<.<.<.<.<.<.<.<.<.<.<.<.<.<.<.<.<.<.<.<.<.<.<.<.<.<.<.<.<.<.<.<.<.<.<.<.<.<.<.<.<.<.<.<.<.<.<.<.<.<.<.",
"<.<.<.<.<.<.<.<.<.<.<.<.<.<.<.<.<.<.<.<.<.<.<.<.<.<.<.<.<.<.<.<.<.<.<.<.<.<.<.<.<.<.<.<.<.<.<.<.<.<.<.<.<.<.<.<.<.<.<.<.<.<.<.<.",
"<.<.<.<.<.<.<.<.<.<.<.<.<.<.<.<.<.<.<.<.<.<.<.<.<.<.<.<.<.<.<.<.<.<.<.<.<.<.<.<.<.<.<.<.<.<.<.<.<.<.<.<.<.<.<.<.<.<.<.<.<.<.<.<.",
"<.<.<.<.<.<.<.<.<.<.<.<.<.<.<.<.<.<.<.<.<.<.<.<.<.<.<.<.<.<.<.<.<.<.<.<.<.<.<.<.<.<.<.<.<.<.<.<.<.<.<.<.<.<.<.<.<.<.<.<.<.<.<.<.",
"<.<.<.<.<.<.<.<.<.<.<.<.<.<.<.<.<.<.<.<.<.<.<.<.<.<.<.<.+ $ <.<.<.<.<.<.<.<.<.<.<.<.<.<.<.<.<.<.<.<.<.<.<.<.<.<.<.<.<.<.<.<.<.<.",
"<.<.<.<.<.<.<.<.<.<.<.<.<.<.<.<.<.<.<.<.<.<.<.<.<.<.# - = @ <.<.<.<.<.<.<.<.<.<.<.<.<.<.<.<.<.<.<.<.<.<.<.<.<.<.<.<.<.<.<.<.<.<.",
"<.<.<.<.<.<.<.<.<.<.<.<.<.<.<.<.<.<.<.<.<.<.<.<.<.- - % % @ <.<.<.<.<.<.<.<.<.<.<.<.<.<.<.<.<.<.<.<.<.<.<.<.<.<.<.<.<.<.<.y <.<.",
"<.<.<.<.<.<.<.<.<.<.<.<.<.<.<.<.<.<.<.<.<.<.<.= , - % % % @ <.<.<.<.<.<.<.<.<.<.<.<.<.<.<.<.<.<.<.<.<.<.<.<.<.<.<.<.<., b <.<.<.",
"<.<.<.<.<.<.<.<.<.<.<.<.<.<.<.<.<.<.<.<.<.<.- < = % % % $ @ <.<.<.<.<.<.<.<.<.<.<.<.<.<.<.<.<.<.<.<.<.<.<.<.<.<.<.<.6 a { <.<.<.",
"<.<.<.<.<.<.<.<.<.<.<.<.<.<.<.<.<.<.<.<.<.* < = % % % % $ o <.<.<.<.<.<.<.<.<.<.<.<.<.<.<.<.<.<.<.<.<.<.<.<.<.<.<.0 q W #.<.<.<.",
"<.<.<.<.<.<.<.<.<.<.<.<.<.<.<.<.<.<.<.<.<.1 - % % % % % % $ <.<.<.<.<.<.<.<.<.<.<.<.<.<.<.<.<.<.<.<.<.<.<.<.<.<.e q V *.{ <.<.<.",
"<.<.<.<.<.<.<.<.<.<.<.<.<.<.<.<.<.<.<.<.= - % % % % % % % % o <.<.<.<.<.<.<.<.<.<.<.<.<.<.<.<.<.<.<.<.<.<.<.<.0 0 a $.*.U <.<.<.",
"<.<.<.<.<.<.<.<.<.<.<.<.<.<.<.<.<.<.<.<.1 - * * % % % % % % @ <.<.<.<.<.<.<.<.<.<.<.<.<.<.<.<.<.<.<.<.<.<.<.1 0 q ~ *.*.<.<.<.<.",
"<.<.<.<.<.<.<.<.<.<.<.<.<.<.<.<.<.% * 3 8 1 1 1 1 1 1 < < < ; - + <.<.<.<.<.<.<.<.<.<.<.<.<.<.<.<.<.<.<.<.<.6 0 b *.=.$.<.<.<.<.",
"<.<.<.<.<.<.<.<.<.<.<.<.@ - - = - - - % * = = - = = = - = - - , < * % @ + X <.<.<.<.<.<.<.<.<.<.<.<.<.<.<.<.0 a X.*.*.X.<.<.<.<.",
"<.<.<.<.<.<.<.<.<.* - = % % % $ % % % % % % % % % % % % % % % % % % % % % % % % % + <.<.<.<.<.<.<.<.<.<.<., 0 H *.*.*.{ <.<.<.<.",
"<.<.<.<.<.$ - = * * % % % % % % % % % % % % % % % % % % % % % % % % % % % % % % % % % % @ <.<.<.<.<.<.<.<.6 i  .*.*.*.U <.<.<.<.",
"<.o = - - % % % % % # % @ % % - - = % % % % % % % % % % % % % % % % % % % % % % % % % % % $ % + <.<.<.<.<.6 N &.*.*.*.<.<.<.<.<.",
"# % % $ % % % % % @ & O . 1 9 a c l q 1 - % % % % % % % % % % % % % % % % % % % % % % % % % % % % % + <.<.6 K ;.*.*.&.<.<.<.<.<.",
"@ $ % % % * = - - ;   g h ^ X.#.#.@. .D i < = % % % % % % % % % % % % % % % % % % % % % % % % % % % % % , e ^ =.=.=.o.<.<.<.<.<.",
"<.7 8 8 w a a l V W ~  .#.$.#.#.@.$.#.#.I a 1 = % % % % % % $ % % % % % % % % % % % % % % % % % % % % % , j { *.*.=...<.<.<.<.<.",
"<.<.D / { X.@.#.@.@.X.| ' ` ) ( ' / ^ o.@.[ a - $ % % % % % % % % % % % % % % % % % % % % % % % % % % % 2 x @.*.*.*.^ <.<.<.<.<.",
"<.<.<.Q $.$.@.} R ( ) ] | T ) =.,.&.C } #.o.z % o # % % % % % % % % % % % % % % % % % % % % $ $ % % - 1 e D *.*.*.*.L <.<.<.<.<.",
"<.<.<.<.<.^ o.;.+.A O.,.:.^ U >.,.{ } ^ #.#.J ; + + % % % % % % % % % % % % % % % % % % % = = - - , 2 q b #.*.*.*.*.Z <.<.<.<.<.",
"<.<.<.<.<.<.^ ,.=.U ..>.>.Q #.$.>./ ;.U #.#.~ 7 + + % % % % % # % % % % % % $ % % - - - - 1 1 8 q 8 j H #.*.;.*.*.*.m <.<.<.<.<.",
"<.<.<.<.<.<.<.=.;.{ :.{ >./ :...=.$.:.^ #.#.} k - % % % % % % % % = - - - - - , 1 2 6 8 8 q r l V H o.#.&.*.*.*.*.L <.<.<.<.<.<.",
"<.<.<.<.<.<.<.<.%.%.,.$.^ o.>.o./ =...o.#.#.{ a < % % % % % % % % , 6 q q q 8 9 a a c N b ~  .#.#.#.#.#.&.*.;.*.+.d <.<.<.<.<.<.",
"<.<.<.<.<.<.<.<.<.*.>.%.P G O.! S Y  .+.o.#.o./ p - % % % % % % = 9 N D H I N V { @.#.#.o.#.$.o.@.o.X./ { %.*.*.*.$.<.<.<.<.<.<.",
"<.<.<.<.<.<.<.<.<.} ../ ! ' | ' } @.@.X.#.#.#.#.W 1 % % % % % % - B #.#.#.#.o.X.#.#.#.#.o.o. ./ U C n <.<.} %.*.*.*.<.<.<.<.<.<.",
"<.<.<.<.<.<.<.<.<.Q o.#.#.#.#.$.@.@.o.@.#.#.#.#.@.z - % % % % % - m X.#.$.#.#.#.#.o.} / U Z n <.<.<.<.<.<.C ..&.%.*.L <.<.<.<.<.",
"<.<.<.<.<.<.<.<.<.<./ #.#.#.#.#.@.$.#.#.#.#.#.#.#.^ 1 * % % % % - p / o.o.X.} / U Z z d <.<.<.<.<.<.<.<.<.<.L  .#.$.^ <.<.<.<.<.",
"<.<.<.<.<.<.<.<.<.<.<.n J U U Q } } .... . .} } } { m - % % % % - 4 Z U Z M d t <.<.<.<.<.<.<.<.<.<.<.<.<.<.<.Z ^ } ^ <.<.<.<.<.",
"<.<.<.<.<.<.<.<.<.<.<.<.<.<.<.<.<.<.<.<.<.<.: f n n f > - % % % % = @ <.<.<.<.<.<.<.<.<.<.<.<.<.<.<.<.<.<.<.<.<.d U Q Z <.<.<.<.",
"<.<.<.<.<.<.<.<.<.<.<.<.<.<.<.<.<.<.<.<.<.<.<.<.n n n f 7 - % $ % = @ <.<.<.<.<.<.<.<.<.<.<.<.<.<.<.<.<.<.<.<.<.<.<.<.<.<.<.<.<.",
"<.<.<.<.<.<.<.<.<.<.<.<.<.<.<.<.<.<.<.<.<.<.<.<.<.u n n h y ; - % % = <.<.<.<.<.<.<.<.<.<.<.<.<.<.<.<.<.<.<.<.<.<.<.<.<.<.<.<.<.",
"<.<.<.<.<.<.<.<.<.<.<.<.<.<.<.<.<.<.<.<.<.<.<.<.<.<.<.u x z f > @ = - % <.<.<.<.<.<.<.<.<.<.<.<.<.<.<.<.<.<.<.<.<.<.<.<.<.<.<.<.",
"<.<.<.<.<.<.<.<.<.<.<.<.<.<.<.<.<.<.<.<.<.<.<.<.<.<.<.<.<.<.u f <.<.o @ + <.<.<.<.<.<.<.<.<.<.<.<.<.<.<.<.<.<.<.<.<.<.<.<.<.<.<.",
"<.<.<.<.<.<.<.<.<.<.<.<.<.<.<.<.<.<.<.<.<.<.<.<.<.<.<.<.<.<.<.<.<.<.<.<.<.<.<.<.<.<.<.<.<.<.<.<.<.<.<.<.<.<.<.<.<.<.<.<.<.<.<.<.",
"<.<.<.<.<.<.<.<.<.<.<.<.<.<.<.<.<.<.<.<.<.<.<.<.<.<.<.<.<.<.<.<.<.<.<.<.<.<.<.<.<.<.<.<.<.<.<.<.<.<.<.<.<.<.<.<.<.<.<.<.<.<.<.<.",
"<.<.<.<.<.<.<.<.<.<.<.<.<.<.<.<.<.<.<.<.<.<.<.<.<.<.<.<.<.<.<.<.<.<.<.<.<.<.<.<.<.<.<.<.<.<.<.<.<.<.<.<.<.<.<.<.<.<.<.<.<.<.<.<.",
"<.<.<.<.<.<.<.<.<.<.<.<.<.<.<.<.<.<.<.<.<.<.<.<.<.<.<.<.<.<.<.<.<.<.<.<.<.<.<.<.<.<.<.<.<.<.<.<.<.<.<.<.<.<.<.<.<.<.<.<.<.<.<.<.",
"<.<.<.<.<.<.<.<.<.<.<.<.<.<.<.<.<.<.<.<.<.<.<.<.<.<.<.<.<.<.<.<.<.<.<.<.<.<.<.<.<.<.<.<.<.<.<.<.<.<.<.<.<.<.<.<.<.<.<.<.<.<.<.<.",
"<.<.<.<.<.<.<.<.<.<.<.<.<.<.<.<.<.<.<.<.<.<.<.<.<.<.<.<.<.<.<.<.<.<.<.<.<.<.<.<.<.<.<.<.<.<.<.<.<.<.<.<.<.<.<.<.<.<.<.<.<.<.<.<.",
"<.<.<.<.<.<.<.<.<.<.<.<.<.<.<.<.<.<.<.<.<.<.<.<.<.<.<.<.<.<.<.<.<.<.<.<.<.<.<.<.<.<.<.<.<.<.<.<.<.<.<.<.<.<.<.<.<.<.<.<.<.<.<.<.",
"<.<.<.<.<.<.<.<.<.<.<.<.<.<.<.<.<.<.<.<.<.<.<.<.<.<.<.<.<.<.<.<.<.<.<.<.<.<.<.<.<.<.<.<.<.<.<.<.<.<.<.<.<.<.<.<.<.<.<.<.<.<.<.<.",
"<.<.<.<.<.<.<.<.<.<.<.<.<.<.<.<.<.<.<.<.<.<.<.<.<.<.<.<.<.<.<.<.<.<.<.<.<.<.<.<.<.<.<.<.<.<.<.<.<.<.<.<.<.<.<.<.<.<.<.<.<.<.<.<.",
"<.<.<.<.<.<.<.<.<.<.<.<.<.<.<.<.<.<.<.<.<.<.<.<.<.<.<.<.<.<.<.<.<.<.<.<.<.<.<.<.<.<.<.<.<.<.<.<.<.<.<.<.<.<.<.<.<.<.<.<.<.<.<.<.",
"<.<.<.<.<.<.<.<.<.<.<.<.<.<.<.<.<.<.<.<.<.<.<.<.<.<.<.<.<.<.<.<.<.<.<.<.<.<.<.<.<.<.<.<.<.<.<.<.<.<.<.<.<.<.<.<.<.<.<.<.<.<.<.<.",
"<.<.<.<.<.<.<.<.<.<.<.<.<.<.<.<.<.<.<.<.<.<.<.<.<.<.<.<.<.<.<.<.<.<.<.<.<.<.<.<.<.<.<.<.<.<.<.<.<.<.<.<.<.<.<.<.<.<.<.<.<.<.<.<.",
"<.<.<.<.<.<.<.<.<.<.<.<.<.<.<.<.<.<.<.<.<.<.<.<.<.<.<.<.<.<.<.<.<.<.<.<.<.<.<.<.<.<.<.<.<.<.<.<.<.<.<.<.<.<.<.<.<.<.<.<.<.<.<.<.",
"<.<.<.<.<.<.<.<.<.<.<.<.<.<.<.<.<.<.<.<.<.<.<.<.<.<.<.<.<.<.<.<.<.<.<.<.<.<.<.<.<.<.<.<.<.<.<.<.<.<.<.<.<.<.<.<.<.<.<.<.<.<.<.<.",
"<.<.<.<.<.<.<.<.<.<.<.<.<.<.<.<.<.<.<.<.<.<.<.<.<.<.<.<.<.<.<.<.<.<.<.<.<.<.<.<.<.<.<.<.<.<.<.<.<.<.<.<.<.<.<.<.<.<.<.<.<.<.<.<.",
"<.<.<.<.<.<.<.<.<.<.<.<.<.<.<.<.<.<.<.<.<.<.<.<.<.<.<.<.<.<.<.<.<.<.<.<.<.<.<.<.<.<.<.<.<.<.<.<.<.<.<.<.<.<.<.<.<.<.<.<.<.<.<.<."
};
