/* XPM */
static char *result[] = {
/* columns rows colors chars-per-pixel */
"64 64 108 2 ",
"   c #2C363C",
".  c #5A423B",
"X  c #2F3940",
"o  c #323D44",
"O  c #344047",
"+  c #354149",
"@  c #3A454D",
"#  c #3B4750",
"$  c #3D4A53",
"%  c #545044",
"&  c #404E57",
"*  c #414F58",
"=  c #44525B",
"-  c #49555D",
";  c #4E585E",
":  c #585859",
">  c #475660",
",  c #495761",
"<  c #4C5A65",
"1  c #4E5E69",
"2  c #515E66",
"3  c #505F6A",
"4  c #4C606C",
"5  c #52626C",
"6  c #5A656C",
"7  c #556671",
"8  c #596772",
"9  c #566975",
"0  c #5B6A74",
"q  c #626262",
"w  c #606569",
"e  c #64686A",
"r  c #6C6D6D",
"t  c #606A71",
"y  c #6C6F70",
"u  c #616F7A",
"i  c #64727B",
"p  c #69767F",
"a  c #767676",
"s  c #707579",
"d  c #7A7A7A",
"f  c #A61D1E",
"g  c #AF3C39",
"h  c #677783",
"j  c #6A7780",
"k  c #6D7983",
"l  c #727D85",
"z  c #7E8387",
"x  c #76828B",
"c  c #7B868E",
"v  c #7E8991",
"b  c #828384",
"n  c #848B8F",
"m  c #8C8C8C",
"M  c #858D92",
"N  c #859098",
"B  c #8B9399",
"V  c #959595",
"C  c #959A9D",
"Z  c #9F9E9E",
"A  c #A69E9C",
"S  c #B99B9F",
"D  c #939CA2",
"F  c #9E9FA0",
"G  c #AB9FA0",
"H  c #9FA6AA",
"J  c #A3A3A4",
"K  c #A0A6AB",
"L  c #A3A9AE",
"P  c #ABACAC",
"I  c #B6A4A5",
"U  c #BDA3A6",
"Y  c #BCAAAC",
"T  c #A6ADB1",
"R  c #A9AFB3",
"E  c #BDAFB1",
"W  c #AEB2B4",
"Q  c #AFB4B8",
"!  c #B3B3B3",
"~  c #BDB4B6",
"^  c #B2B7BA",
"/  c #BFB7B9",
"(  c #B6B9BA",
")  c #BBBCBC",
"_  c #CE9FA3",
"`  c #C4A3A6",
"'  c #C0ABAE",
"]  c #CAA8AC",
"[  c #C4B6B7",
"{  c #C0BFBF",
"}  c #BABEC1",
"|  c #BDC1C4",
" . c #C2C3C4",
".. c #CAC7C7",
"X. c #C5C7C9",
"o. c #C6C9CA",
"O. c #CBCCCD",
"+. c #CDCFD0",
"@. c #CFD1D2",
"#. c #D3D4D4",
"$. c #DDDDDD",
"%. c #E0C2C5",
"&. c #E0D8D9",
"*. c #E4E4E4",
"=. c #ECEBEB",
"-. c #F4F3F3",
";. c #FBFBFB",
":. c None",
/* pixels */
":.:.:.:.:.:.:.:.:.:.:.:.:.:.:.:.:.:.:.:.:.:.:.:.:.:.:.:.:.:.:.:.:.:.:.:.:.:.:.:.:.:.:.:.:.:.:.:.:.:.:.:.:.:.:.:.:.:.:.:.:.:.:.:.",
":.:.:.:.:.:.:.:.:.:.:.:.:.:.:.:.:.:.:.:.:.:.:.:.:.:.:.:.:.:.:.:.:.:.:.:.:.:.:.:.:.:.:.:.:.:.:.:.:.:.:.:.:.:.:.:.:.:.:.:.:.:.:.:.",
":.:.:.:.:.:.:.:.:.:.:.:.:.:.:.:.:.:.:.:.:.:.:.:.:.:.:.:.:.:.:.:.:.:.:.:.:.:.:.:.:.:.:.:.:.:.:.:.:.:.:.:.:.:.:.:.:.:.:.:.:.:.:.:.",
":.:.:.:.:.:.:.:.:.:.:.:.:.:.:.:.:.:.:.:.:.:.:.:.:.:.:.:.:.:.:.:.:.:.:.:.:.:.:.:.:.:.:.:.:.:.:.:.:.:.:.:.:.:.:.:.:.:.:.:.:.:.:.:.",
":.:.:.:.:.:.:.:.:.:.:.:.:.:.:.:.:.:.:.:.:.:.:.:.:.:.:.:.:.:.:.:.:.:.:.:.:.:.:.:.:.:.:.:.:.:.:.:.:.:.:.:.:.:.:.:.:.:.:.:.:.:.:.:.",
":.:.:.:.:.:.:.:.:.:.:.:.:.:.:.:.:.:.:.:.:.:.:.:.:.:.:.:.:.:.:.:.:.:.:.:.:.:.:.:.:.:.:.:.:.:.:.:.:.:.:.:.:.:.:.:.:.:.:.:.:.:.:.:.",
":.:.:.:.:.:.:.:.:.:.:.:.:.:.:.:.:.:.:.:.:.:.:.:.:.:.:.:.:.:.:.:.:.:.:.:.:.:.:.:.:.:.:.:.:.:.:.:.:.:.:.:.:.:.:.:.:.:.:.:.:.:.:.:.",
":.:.:.:.:.:.:.:.:.:.:.:.:.:.:.:.:.:.:.:.:.:.:.:.:.:.:.:.:.:.:.:.:.:.:.:.:.:.:.:.:.:.:.:.:.:.:.:.:.:.:.:.:.:.:.:.:.:.:.:.:.:.:.:.",
":.:.:.:.:.:.:.:.:.:.:.:.:.:.:.:.:.:.:.:.:.:.:.:.:.:.:.:.:.:.:.:.:.:.:.:.:.:.:.:.:.:.:.:.:.:.:.:.:.:.:.:.:.:.:.:.:.:.:.:.:.:.:.:.",
":.:.:.:.:.:.:.:.:.:.:.:.:.:.:.:.:.:.:.:.:.:.:.:.:.:.:.:.:.:.:.:.:.:.:.:.:.:.:.:.:.:.:.:.:.:.:.:.:.:.:.:.:.:.:.:.:.:.:.:.:.:.:.:.",
":.:.:.:.:.:.:.:.:.:.:.:.:.:.:.:.:.:.:.:.:.:.:.:.:.:.:.:.:.:.:.:.:.:.:.:.:.:.:.:.:.:.:.:.:.:.:.:.:.:.:.:.:.:.:.:.:.:.:.:.:.:.:.:.",
":.:.:.:.:.:.:.:.:.:.:.:.:.:.:.:.:.:.:.:.:.:.:.:.:.:.:.:.:.:.:.:.:.:.:.:.:.:.:.:.:.:.:.:.:.:.:.:.:.:.:.:.:.:.:.:.:.:.:.:.:.:.:.:.",
":.:.:.:.:.:.:.:.:.:.:.:.:.:.:.:.:.:.:.:.:.:.:.:.:.:.:.:.:.:.:.:.:.:.:.:.:.:.:.:.:.:.:.:.:.:.:.:.:.:.:.:.:.:.:.:.:.:.:.:.:.:.:.:.",
":.:.:.:.:.:.:.:.:.:.:.:.:.:.:.:.:.:.:.:.:.:.:.:.:.:.:.:.:.:.:.:.:.:.:.:.:.:.:.:.:.:.:.:.:.:.:.:.:.:.:.:.:.:.:.:.:.:.:.:.:.:.:.:.",
":.:.:.:.:.:.:.:.:.:.:.:.:.:.:.:.:.:.:.:.:.:.:.:.:.:.:.:.:.:.  :.:.:.:.:.:.:.:.:.:.:.:.:.:.:.:.:.:.:.:.:.:.:.:.:.:.:.:.:.:.:.:.:.",
":.:.:.:.:.:.:.:.:.:.:.:.:.:.:.:.:.:.:.:.:.:.:.:.:.:.:.:.@ * @ :.:.:.:.:.:.:.:.:.:.:.:.:.:.:.:.:.:.:.:.:.:.:.:.:.:.:.:.:.:.:.:.:.",
":.:.:.:.:.:.:.:.:.:.:.:.:.:.:.:.:.:.:.:.:.:.:.:.:.:.:.> = $ @ :.:.:.:.:.:.:.:.:.:.:.:.:.:.:.:.:.:.:.:.:.:.:.:.:.:.:.:.:.:.:.:.:.",
":.:.:.:.:.:.:.:.:.:.:.:.:.:.:.:.:.:.:.:.:.:.:.:.:.- - $ $ $ # :.:.:.:.:.:.:.:.:.:.:.:.:.:.:.:.:.:.:.:.:.:.:.:.:.:.:.:.:.:.:.< b ",
":.:.:.:.:.:.:.:.:.:.:.:.:.:.:.:.:.:.:.:.:.:.:.:.> = & $ $ $ @ :.:.:.:.:.:.:.:.:.:.:.:.:.:.:.:.:.:.:.:.:.:.:.:.:.:.:.:.:.:.7 H :.",
":.:.:.:.:.:.:.:.:.:.:.:.:.:.:.:.:.:.:.:.:.:.:., - $ $ $ $ # o :.:.:.:.:.:.:.:.:.:.:.:.:.:.:.:.:.:.:.:.:.:.:.:.:.:.:.:.> 9 M O.:.",
":.:.:.:.:.:.:.:.:.:.:.:.:.:.:.:.:.:.:.:.:.:., - $ $ $ $ $ $ o :.:.:.:.:.:.:.:.:.:.:.:.:.:.:.:.:.:.:.:.:.:.:.:.:.:.:.1 9 j O. .:.",
":.:.:.:.:.:.:.:.:.:.:.:.:.:.:.:.:.:.:.:.:.= , $ # $ $ $ $ $ $ :.:.:.:.:.:.:.:.:.:.:.:.:.:.:.:.:.:.:.:.:.:.:.:.:.:.1 9 0 ^ $.! :.",
":.:.:.:.:.:.:.:.:.:.:.:.:.:.:.:.:.:.:.:.:., = $ $ $ $ $ $ $ $ o :.:.:.:.:.:.:.:.:.:.:.:.:.:.:.:.:.:.:.:.:.:.:.:.:.9 7 B $.$.:.:.",
":.:.:.:.:.:.:.:.:.:.:.:.:.:.:.:.:.:.:.:., , = * & & $ $ $ $ $ @   :.:.:.:.:.:.:.:.:.:.:.:.:.:.:.:.:.:.:.:.:.:.:.4 7 p o.$.#.:.:.",
":.:.:.:.:.:.:.:.:.:.:.:.:.:.:.:.:.@ & - 5 1 < 1 < 1 < 1 < < < , - # :.:.:.:.:.:.:.:.:.:.:.:.:.:.:.:.:.:.:.:.:.:.7 8 T $.$.o.:.:.",
":.:.:.:.:.:.:.:.:.:.:.:.o & = = = = * $ = $ $ $ * $ & & & & & = = - = * $ @ o :.:.:.:.:.:.:.:.:.:.:.:.:.:.:.:.1 7 v #.*.$.) :.:.",
":.:.:.:.:.:.:.:.:.$ - * $ $ $ $ $ $ $ $ $ $ $ $ $ $ $ $ $ $ $ $ # $ $ $ $ $ $ $ $ $ @ o :.:.:.:.:.:.:.:.:.:.:.1 8 } $.$.$.! :.:.",
":.:.:.:.:.+ - - * $ $ # $ $ $ $ $ $ $ $ $ $ $ $ $ $ $ $ $ $ $ $ $ $ $ $ $ $ $ $ $ $ # $ $ $ o :.:.:.:.:.:.:.:.7 x #.$.$.$.:.:.:.",
":.  $ - * $ $ $ $ $ @ $ # # $ = = = = $ # $ $ $ $ $ $ $ $ $ $ $ $ $ $ $ $ $ $ $ $ $ $ $ $ $ # $ @   :.:.:.:.:.7 T $.$.$.#.:.:.:.",
"+ & $ $ $ $ $ $ $ # $ @ . % 5 8 k x j 5 > * $ $ $ $ $ $ $ $ $ $ $ $ $ $ $ $ $ $ $ $ $ $ $ $ $ $ $ $ $ $ o :.$ 8 X.&.$.$...:.:.:.",
"o # $ $ $ $ * = = < . f g A | O.@.@.O.^ c 5 = $ $ $ $ $ $ $ $ $ $ $ $ $ $ $ $ $ $ $ $ $ $ $ $ $ $ $ $ $ $ & 4 i @.$.*.$.) :.:.:.",
":.2 5 1 6 0 0 i c H ^ ( O.@.#.@.#.@.@.@.O.c 8 , $ $ $ $ $ $ $ $ $ $ $ $ $ $ $ $ $ $ $ $ $ $ $ $ $ $ $ $ $ $ 4 x $.$.$.$.) :.:.:.",
":.:.N Q }  .o.#.+.@.@... .[ Y ` Y { ( o.@.O.H 5 $ $ $ $ $ $ $ $ $ $ $ $ $ $ $ $ $ $ $ $ $ $ $ $ $ $ $ $ $ $ 9 N $.$.$.$.T :.:.:.",
":.:.:.:.@.#.@.O.) Y ` ] [ ' _ %.-.=.P P +.@. .6 # O $ $ # $ $ $ $ $ # $ $ $ $ $ $ $ $ $ $ $ $ $ $ $ $ & > < h Q $.$.$.$.:.:.:.:.",
":.:.:.:.:.) O.#...I ` =.-.O.A $.;.*.! P O.@.O.l $ O # # $ $ $ $ $ $ $ $ $ $ $ $ $ $ $ $ $ $ $ $ $ - = , 1 0 D #.$.$.*.$.:.:.:.:.",
":.:.:.:.:.:.{ ;.=.P ! *.;.O.) O.;.#.+.( o.@.@.C - + @ $ $ $ $ $ $ $ $ $ $ # $ $ $ $ & = = = > , < 1 3 7 l H #.$.$.$.$.#.:.:.:.:.",
":.:.:.:.:.:.:.&.-.P =.{ *.#.#.#.$...=.{ o.@.@.W 8 $ # $ $ $ $ $ $ $ & * * = = = = , < < 5 < 5 7 0 l c K o.@.$.$.$.&.$.J :.:.:.:.",
":.:.:.:.:.:.:.:.*. .;.$.( O.=.$.{ #.$. .@.@.@.W 8 - $ $ $ $ $ $ $ & - < 5 5 5 3 1 7 9 u l j B T | O.+.@.+.#.$.$.$.$.) q :.:.:.:.",
":.:.:.:.:.:.:.:.:.#.;.-.{ G &.#.I S / +.O.@.@. .C 1 $ $ $ $ $ $ $ & < k x M N x k H } X.o.X.O.@.@.@.@.+.o. .#.$.*.$.$.! :.:.:.:.",
":.:.:.:.:.:.:.:.:.)  .( G U ' E Y  .+.+.o.@.@.@.+.M = $ # $ $ $ $ * M o.O.+.+.o.} @.@.@.@.@.#.O.o. .( K m r P #.$.$.$.#.:.:.:.:.",
":.:.:.:.:.:.:.:.:.( @.@.@.#.@.@.@.@.O.o.+.@.@.@.@.) 6 $ $ $ $ $ $ = z o.#.@.@.#.@.@.@.@.O. .( P m q :.:.:.:.:.( #.$.$.#.:.:.:.:.",
":.:.:.:.:.:.:.:.:.:.! +.@.@.@.#.@.@.#.@.@.@.@.#.@.+.B - $ $ $ $ $ - p  .O.#.O.O.o. .( P V a :.:.:.:.:.:.:.:.:.:.| @.#.#.J :.:.:.",
":.:.:.:.:.:.:.:.:.:.:.J |  .o.o.+.O.+.@.O.O.+.O.O.@.) t $ $ $ $ $ = 6 J ) ( P J V d :.:.:.:.:.:.:.:.:.:.:.:.:.:.b ( X.O.! :.:.:.",
":.:.:.:.:.:.:.:.:.:.:.:.:.:.:.:.:.: a d m V V H Z Z J b , = $ $ $ & - r r :.:.:.:.:.:.:.:.:.:.:.:.:.:.:.:.:.:.:.:.:.P ! ! :.:.:.",
":.:.:.:.:.:.:.:.:.:.:.:.:.:.:.:.:.:.:.:.:.:.:.:.: d a a e - & $ $ $ = o :.:.:.:.:.:.:.:.:.:.:.:.:.:.:.:.:.:.:.:.:.:.:.d V m :.:.",
":.:.:.:.:.:.:.:.:.:.:.:.:.:.:.:.:.:.:.:.:.:.:.:.:.:.b b b r ; = & # $ & :.:.:.:.:.:.:.:.:.:.:.:.:.:.:.:.:.:.:.:.:.:.:.:.:.:.:.:.",
":.:.:.:.:.:.:.:.:.:.:.:.:.:.:.:.:.:.:.:.:.:.:.:.:.:.:.r b b d w - & & & # :.:.:.:.:.:.:.:.:.:.:.:.:.:.:.:.:.:.:.:.:.:.:.:.:.:.:.",
":.:.:.:.:.:.:.:.:.:.:.:.:.:.:.:.:.:.:.:.:.:.:.:.:.:.:.:.:.:.a b d :.+ $ = @ :.:.:.:.:.:.:.:.:.:.:.:.:.:.:.:.:.:.:.:.:.:.:.:.:.:.",
":.:.:.:.:.:.:.:.:.:.:.:.:.:.:.:.:.:.:.:.:.:.:.:.:.:.:.:.:.:.:.:.:.q :.:.:.X :.:.:.:.:.:.:.:.:.:.:.:.:.:.:.:.:.:.:.:.:.:.:.:.:.:.",
":.:.:.:.:.:.:.:.:.:.:.:.:.:.:.:.:.:.:.:.:.:.:.:.:.:.:.:.:.:.:.:.:.:.:.:.:.:.:.:.:.:.:.:.:.:.:.:.:.:.:.:.:.:.:.:.:.:.:.:.:.:.:.:.",
":.:.:.:.:.:.:.:.:.:.:.:.:.:.:.:.:.:.:.:.:.:.:.:.:.:.:.:.:.:.:.:.:.:.:.:.:.:.:.:.:.:.:.:.:.:.:.:.:.:.:.:.:.:.:.:.:.:.:.:.:.:.:.:.",
":.:.:.:.:.:.:.:.:.:.:.:.:.:.:.:.:.:.:.:.:.:.:.:.:.:.:.:.:.:.:.:.:.:.:.:.:.:.:.:.:.:.:.:.:.:.:.:.:.:.:.:.:.:.:.:.:.:.:.:.:.:.:.:.",
":.:.:.:.:.:.:.:.:.:.:.:.:.:.:.:.:.:.:.:.:.:.:.:.:.:.:.:.:.:.:.:.:.:.:.:.:.:.:.:.:.:.:.:.:.:.:.:.:.:.:.:.:.:.:.:.:.:.:.:.:.:.:.:.",
":.:.:.:.:.:.:.:.:.:.:.:.:.:.:.:.:.:.:.:.:.:.:.:.:.:.:.:.:.:.:.:.:.:.:.:.:.:.:.:.:.:.:.:.:.:.:.:.:.:.:.:.:.:.:.:.:.:.:.:.:.:.:.:.",
":.:.:.:.:.:.:.:.:.:.:.:.:.:.:.:.:.:.:.:.:.:.:.:.:.:.:.:.:.:.:.:.:.:.:.:.:.:.:.:.:.:.:.:.:.:.:.:.:.:.:.:.:.:.:.:.:.:.:.:.:.:.:.:.",
":.:.:.:.:.:.:.:.:.:.:.:.:.:.:.:.:.:.:.:.:.:.:.:.:.:.:.:.:.:.:.:.:.:.:.:.:.:.:.:.:.:.:.:.:.:.:.:.:.:.:.:.:.:.:.:.:.:.:.:.:.:.:.:.",
":.:.:.:.:.:.:.:.:.:.:.:.:.:.:.:.:.:.:.:.:.:.:.:.:.:.:.:.:.:.:.:.:.:.:.:.:.:.:.:.:.:.:.:.:.:.:.:.:.:.:.:.:.:.:.:.:.:.:.:.:.:.:.:.",
":.:.:.:.:.:.:.:.:.:.:.:.:.:.:.:.:.:.:.:.:.:.:.:.:.:.:.:.:.:.:.:.:.:.:.:.:.:.:.:.:.:.:.:.:.:.:.:.:.:.:.:.:.:.:.:.:.:.:.:.:.:.:.:.",
":.:.:.:.:.:.:.:.:.:.:.:.:.:.:.:.:.:.:.:.:.:.:.:.:.:.:.:.:.:.:.:.:.:.:.:.:.:.:.:.:.:.:.:.:.:.:.:.:.:.:.:.:.:.:.:.:.:.:.:.:.:.:.:.",
":.:.:.:.:.:.:.:.:.:.:.:.:.:.:.:.:.:.:.:.:.:.:.:.:.:.:.:.:.:.:.:.:.:.:.:.:.:.:.:.:.:.:.:.:.:.:.:.:.:.:.:.:.:.:.:.:.:.:.:.:.:.:.:.",
":.:.:.:.:.:.:.:.:.:.:.:.:.:.:.:.:.:.:.:.:.:.:.:.:.:.:.:.:.:.:.:.:.:.:.:.:.:.:.:.:.:.:.:.:.:.:.:.:.:.:.:.:.:.:.:.:.:.:.:.:.:.:.:.",
":.:.:.:.:.:.:.:.:.:.:.:.:.:.:.:.:.:.:.:.:.:.:.:.:.:.:.:.:.:.:.:.:.:.:.:.:.:.:.:.:.:.:.:.:.:.:.:.:.:.:.:.:.:.:.:.:.:.:.:.:.:.:.:.",
":.:.:.:.:.:.:.:.:.:.:.:.:.:.:.:.:.:.:.:.:.:.:.:.:.:.:.:.:.:.:.:.:.:.:.:.:.:.:.:.:.:.:.:.:.:.:.:.:.:.:.:.:.:.:.:.:.:.:.:.:.:.:.:.",
":.:.:.:.:.:.:.:.:.:.:.:.:.:.:.:.:.:.:.:.:.:.:.:.:.:.:.:.:.:.:.:.:.:.:.:.:.:.:.:.:.:.:.:.:.:.:.:.:.:.:.:.:.:.:.:.:.:.:.:.:.:.:.:."
};
