/* XPM */
static char *result[] = {
/* columns rows colors chars-per-pixel */
"64 64 121 2 ",
"   c #090804",
".  c #141624",
"X  c #161824",
"o  c #191922",
"O  c #1B1E2B",
"+  c #1C1E39",
"@  c #1E212F",
"#  c #2B2A26",
"$  c #2D2C29",
"%  c #333334",
"&  c #252842",
"*  c #323751",
"=  c #373C56",
"-  c #3A3F74",
";  c #3D4276",
":  c #474856",
">  c #404579",
",  c #585A7E",
"<  c #3C4286",
"1  c #3F4488",
"2  c #414688",
"3  c #454A8C",
"4  c #494E8F",
"5  c #4E5584",
"6  c #545B8D",
"7  c #595F8E",
"8  c #474D90",
"9  c #494E90",
"0  c #4D5393",
"q  c #4F5698",
"w  c #545B97",
"e  c #545B9C",
"r  c #5A619F",
"t  c #5F689B",
"y  c #62669D",
"u  c #636A9E",
"i  c #565EA0",
"p  c #585FA0",
"a  c #5E66A6",
"s  c #5F68A8",
"d  c #656BA4",
"f  c #696DA2",
"g  c #636BAA",
"h  c #686FAB",
"j  c #6C72A5",
"k  c #6770AF",
"l  c #6D73AB",
"z  c #7276A7",
"x  c #7277A9",
"c  c #747AAD",
"v  c #7B7FAF",
"b  c #666FB0",
"n  c #6770B0",
"m  c #6B74B2",
"M  c #6F79B8",
"N  c #747FB3",
"B  c #727CBB",
"V  c #7C82B4",
"C  c #7680BE",
"Z  c #7982BE",
"A  c #7682C2",
"S  c #7A85C5",
"D  c #7A86C8",
"F  c #7D89C9",
"G  c #959590",
"H  c #8287B8",
"J  c #838ABE",
"K  c #888EBD",
"L  c #8E91BA",
"P  c #9093BA",
"I  c #A5A6AF",
"U  c #ABACBA",
"Y  c #818BC6",
"T  c #818ECB",
"R  c #8D94C4",
"E  c #8390CF",
"W  c #8E97CB",
"Q  c #9097C5",
"!  c #9198C6",
"~  c #9B9EC1",
"^  c #939BCD",
"/  c #828FD1",
"(  c #8592D2",
")  c #8996D5",
"_  c #8E9CDA",
"`  c #919FDE",
"'  c #92A0DF",
"]  c #9BA6DA",
"[  c #9EA8DC",
"{  c #ADAFCC",
"}  c #B1B4CF",
"|  c #A5ABD0",
" . c #AAAFD3",
".. c #A1AADA",
"X. c #B3B5D0",
"o. c #B7B9D5",
"O. c #BABDD8",
"+. c #93A1E1",
"@. c #A5B1E4",
"#. c #ACB7E7",
"$. c #ADB8E7",
"%. c #AEB9E8",
"&. c #BEC1DC",
"*. c #BDC6EC",
"=. c #BFC8ED",
"-. c #C8CDE7",
";. c #C0C8ED",
":. c #CACFEA",
">. c #CED4EE",
",. c #D4D6E4",
"<. c #D7D8E6",
"1. c #D9DAE7",
"2. c #DBDDEC",
"3. c #DEE0EE",
"4. c #E2E4EF",
"5. c #E4E5F2",
"6. c #E7EAF8",
"7. c #E9ECF9",
"8. c #F6F7FB",
"9. c #FFFFFF",
"0. c #2A52A5",
/* pixels */
"0.0.0.0.0.0.0.0.0.0.0.0.0.0.0.0.0.0.0.0.0.0.0.0.0.0.0.0.0.0.0.0.0.0.0.0.0.0.0.0.0.0.0.0.0.0.0.0.0.0.0.0.0.0.0.0.0.0.0.0.0.0.0.0.",
"0.0.0.0.0.0.0.0.0.0.0.0.0.0.0.0.0.0.0.0.0.0.0.0.0.0.0.0.0.0.0.0.0.0.0.0.0.0.0.0.0.0.0.0.0.0.0.0.0.0.0.0.0.0.0.0.0.0.0.0.0.0.0.0.",
"0.0.0.0.0.0.0.0.0.0.0.0.0.0.0.0.0.0.0.0.0.0.0.0.0.0.0.0.0.0.0.0.0.0.0.0.0.0.0.0.0.0.0.0.0.0.0.0.0.0.0.0.0.0.0.0.0.0.0.0.0.0.0.0.",
"0.0.0.0.0.0.0.0.0.0.0.0.0.0.0.0.0.0.0.0.0.0.0.0.0.0.0.0.0.0.0.0.0.0.0.0.0.0.0.0.0.0.0.0.0.0.0.0.0.0.0.0.0.0.0.0.0.0.0.0.0.0.0.0.",
"0.0.0.0.0.0.0.0.0.0.0.0.0.0.0.0.0.0.0.0.0.0.0.0.0.0.0.0.0.0.0.0.0.0.0.0.0.0.0.0.0.0.0.0.0.0.0.0.0.0.0.0.0.0.0.0.0.0.0.0.0.0.0.0.",
"0.0.0.0.0.0.0.0.0.0.0.0.0.0.0.0.0.0.0.0.0.0.0.0.0.0.0.0.0.0.0.0.0.0.0.0.0.0.0.0.0.0.0.0.0.0.0.0.0.0.0.0.0.0.0.0.0.0.0.0.0.0.0.0.",
"0.0.0.0.0.0.0.0.0.0.0.0.0.0.0.0.0.0.0.0.0.0.0.0.0.0.0.0.0.0.0.0.0.0.0.0.0.0.0.0.0.0.0.0.0.0.0.0.0.0.0.0.0.0.0.0.0.0.0.0.0.0.0.0.",
"0.0.0.0.0.0.0.0.0.0.0.0.0.0.0.0.0.0.0.0.0.0.0.0.0.0.0.0.0.0.0.0.0.0.0.0.0.0.0.0.0.0.0.0.0.0.0.0.0.0.0.0.0.0.0.0.0.0.0.0.0.0.0.0.",
"0.0.0.0.0.0.0.0.0.0.0.0.0.0.0.0.0.0.0.0.0.0.0.0.0.0.0.0.0.0.0.0.0.0.0.0.0.0.0.0.0.0.0.0.0.0.0.0.0.0.0.0.0.0.0.0.0.0.0.0.0.0.0.0.",
"0.0.0.0.0.0.0.0.0.0.0.0.0.0.0.0.0.0.0.0.0.0.0.0.0.0.0.0.0.0.0.0.0.0.0.0.0.0.0.0.0.0.0.0.0.0.0.0.0.0.0.0.0.0.0.0.0.0.0.0.0.0.0.0.",
"0.0.0.0.0.0.0.0.0.0.0.0.0.0.0.0.0.0.0.0.0.0.0.0.0.0.0.0.0.0.0.0.9.9.0.0.0.0.0.0.0.0.0.0.0.0.0.0.0.0.0.0.0.0.0.0.0.0.0.0.0.0.0.0.",
"0.0.0.0.0.0.0.0.0.0.0.0.0.0.0.0.0.0.0.0.0.0.0.0.0.0.0.0.0.0.0.0.9.9.0.0.0.0.0.0.0.0.0.0.0.0.0.0.0.0.0.0.0.0.0.0.0.0.0.0.0.0.0.0.",
"0.0.0.0.0.0.0.0.0.0.0.0.0.0.0.0.0.0.0.0.0.0.0.0.0.0.0.0.0.0.0.0.9.9.9.9.0.0.0.0.0.0.0.0.0.0.0.0.0.0.0.0.0.0.0.0.0.0.0.0.0.0.0.0.",
"0.0.0.0.0.0.0.0.0.0.0.0.0.0.0.0.0.0.0.0.0.0.0.0.0.0.0.0.0.0.0.0.9.8.7.6.0.0.0.0.0.0.0.0.0.0.0.0.0.0.0.0.0.0.0.0.0.0.0.0.0.0.0.0.",
"0.0.0.0.0.0.0.0.0.0.0.0.0.0.0.0.0.0.0.0.0.0.0.0.0.0.0.0.0.0.0.0.9.7.=.*.6.9.0.0.0.0.0.0.0.0.0.0.0.0.0.0.0.0.0.0.0.0.0.0.0.0.0.0.",
"0.0.0.0.0.0.0.0.0.0.0.0.0.0.0.0.0.0.0.0.0.0.0.0.0.0.0.0.0.0.0.0.9.5...] >.7.0.0.0.0.0.0.0.0.0.0.0.0.0.0.0.0.0.0.0.0.0.0.0.0.0.0.",
"0.0.0.0.0.0.0.0.0.0.0.0.0.0.0.0.0.0.0.0.0.0.0.0.0.0.0.0.0.0.0.0.9.3.^ S ] ;.7.9.0.0.0.0.0.0.0.0.0.0.0.0.0.0.0.0.0.0.0.0.0.0.0.0.",
"0.0.0.0.0.0.0.0.0.0.0.0.0.0.0.0.0.0.0.0.0.0.0.0.0.0.0.0.0.0.0.0.9.2.Q M D [ >.7.0.0.0.0.0.0.0.0.0.0.0.0.0.0.0.0.0.0.0.0.0.0.0.0.",
"0.0.0.0.0.0.0.0.0.0.0.0.0.0.0.0.0.0.0.0.0.0.0.0.0.0.0.0.0.0.0.0.9.2.Q n M Y [ ;.7.9.0.0.0.0.0.0.0.0.0.0.0.0.0.0.0.0.0.0.0.0.0.0.",
"0.0.0.0.0.0.0.0.0.0.0.0.0.0.0.0.0.0.0.0.0.0.0.0.0.0.0.0.0.0.0.0.9.3.! n k M D [ >.7.0.0.0.0.0.0.0.0.0.0.0.0.0.0.0.0.0.0.0.0.0.0.",
"0.0.0.0.0.0.0.0.0.0.0.0.0.0.0.0.0.0.0.0.0.0.0.0.0.0.0.0.0.0.0.0.9.4.! n n m M Y [ =.7.9.9.9.9.9.0.0.0.0.0.0.0.0.0.0.0.0.0.0.0.0.",
"0.0.0.0.0.0.0.0.0.0.0.0.0.0.0.0.0.0.0.0.0.0.0.0.0.0.0.0.0.0.0.0.1.o.V g k m m M F [ >.6.6.6.6.6.0.0.0.0.0.0.0.0.0.0.0.0.0.0.0.0.",
"0.0.0.0.0.0.0.0.0.0.9.9.9.9.0.0.0.0.0.0.0.0.0.0.0.0.0.0.9.9.9.2.L d e e g m m m M T ..%.#.#.#.*.7.9.9.9.0.0.0.0.0.0.0.0.0.0.0.0.",
"0.0.0.0.0.0.0.0.0.0.9.8.5.3.0.0.0.0.0.0.0.0.0.0.0.0.0.0.<.,.,.X.j 8 0 w h m m m k B F ( ( ( / [ >.6.6.6.0.0.0.0.0.0.0.0.0.0.0.0.",
"0.0.0.0.0.0.0.0.0.0.9.5. .| 2.9.0.0.0.0.0.0.0.0.9.9.9.2.P z z z d a g h k m m m n M B B C B M Y [ $.$.*.7.9.9.9.0.0.0.0.0.0.0.0.",
"0.0.0.0.0.0.0.0.0.0.9.2.Y R 2.9.0.0.0.0.0.0.0.0.<.,.,.} j 3 8 e g m m m m m m m m m k k l k m B F ( E ] >.6.6.6.0.0.0.0.0.0.0.0.",
"0.0.0.0.0.0.0.0.0.0.9.2.R R 2.9.0.0.0.0.9.9.9.2.L z z z d g g g n B m m m m m m m m m m m m m m B B B Y [ $.#.*.7.9.0.0.0.0.0.0.",
"0.0.0.0.0.0.0.0.0.0.9.2.R R 2.9.0.0.0.0.,.,.,.X.j 8 8 w g m m m m m m k g h k m m m m m m m h g n n k B F ( E ] >.7.0.0.0.0.0.0.",
"0.0.0.0.0.0.0.0.0.0.9.2.R R 2.9.0.0.9.2.P z z z g g g g n m m M M m m g e e h m m m m m m h e e g M m M B B B Y [ ;.7.9.0.0.0.0.",
"0.0.0.0.0.0.0.0.0.0.9.2.R R 2.9.0.0.1.} j 4 8 e g m m m m m m n g g n d 0 0 g m m m m m m a > ; w g k k m k k B F [ >.7.0.0.0.0.",
"0.0.0.0.0.0.0.0.0.0.9.2.R R 3.9.9.1.P j d s s g h m m m m m m g e e g g 0 0 g m M m m m m 6 & + ; w k m m m m m M Y [ ;.7.9.0.0.",
"0.0.0.0.0.0.0.0.0.0.9.2.R Z o.2.3.O.l q g m m m m m m m m m m g 0 0 g g 0 0 g m m m m m M 5 X o , x k h k m m m n M F ] -.4.0.0.",
"0.0.0.0.0.0.0.0.0.0.9.2.R h j V R K m g k m m m m m m m m m m g 0 q h g 0 q g m m m m M m , . % I O.m w g m m m m m M C R  .3.9.",
"0.0.0.0.0.0.0.0.0.0.9.3.! a 0 8 e g m m m m m k m m m m m m m g e e g g e w g m m m m M m 5 . $ G U j w s m m m m m m k g R 2.9.",
"0.0.0.0.0.0.0.0.0.0.9.2.! a 0 2 8 e g m m m m m m l m m m m m m h g l n h g n m m m k m m 5 .   # : 7 g k m m m k m k k n R 2.9.",
"0.0.0.0.0.0.0.0.0.0.9.2.! a 0 2 2 9 p h k m m m m m m m m m m m m m m m m m m m m k m M C t = @ O * t A C C C C C C C M s K 2.9.",
"0.0.0.0.0.0.0.0.0.0.9.2.! d 8 2 2 3 4 e g b n m m n m m m m m m m m m m m m m m k k m B F F V j j c F ) ) ) ) ) ) ) ) A i v ,.9.",
"0.0.0.0.0.0.0.0.0.0.9.2.! k l x x x z v R K m g g g n m m m m m m m m m n m B B C M C S _ +.+.+.+.+.' _ E F D D F F F Z c L ,.9.",
"0.0.0.0.0.0.0.0.0.0.9.2.R Z o.,.,.,.,.<.2.O.z 8 8 e g m m m m m m m m m l B T ) ) ) E ) _ ' ' ' +.+.+.( k e r r e e w N o.1.0.0.",
"0.0.0.0.0.0.0.0.0.0.9.2.R R 3.9.9.9.9.9.9.1.K j z z h h m m m n g g g g m S ) ' ' ' ' ' ' ' ` ' ' _ F A s e e e e a f P 2.9.0.0.",
"0.0.0.0.0.0.0.0.0.0.9.2.R R 2.9.0.0.0.0.0.0.,.,.1.o.z w g m m g w 8 8 a A ) ` ' ' ` ' ` ' ' ` ' +.T g s B F D S D ^ &.1.0.0.0.0.",
"0.0.0.0.0.0.0.0.0.0.9.5.| | 2.9.0.0.0.0.0.0.9.9.5.o.u 4 e g s d l z z H ..@._ ( ( ( ( ( ( ( ( ( ( A i i A ` @.#.#.=.7.9.0.0.0.0.",
"0.0.0.0.0.0.0.0.0.0.9.8.5.2.0.0.0.0.0.0.0.0.9.4.P f 0 3 9 9 9 z } ,.,.2.5.-.W M M B B M B M B B B m g g m ^ >.6.6.6.0.0.0.0.0.0.",
"0.0.0.0.0.0.0.0.0.0.9.9.9.9.0.0.0.0.0.0.0.0.1.{ u < 2 0 f x z P 2.9.9.9.9.3.| R R ! R R ! R R Q R ! ! Q R | 4.9.9.9.0.0.0.0.0.0.",
"0.0.0.0.0.0.0.0.0.0.0.0.0.0.0.0.0.0.0.0.9.1.L y 4 < < u } ,.,.<.0.0.0.0.0.0.3.2.2.2.2.2.2.3.2.2.2.2.3.2.2.3.0.0.0.0.0.0.0.0.0.0.",
"0.0.0.0.0.0.0.0.0.0.0.0.0.0.0.0.0.0.0.0.9.,.L j z z z L 2.9.9.9.0.0.0.0.0.0.9.9.9.9.9.9.9.9.9.9.9.9.9.9.9.9.0.0.0.0.0.0.0.0.0.0.",
"0.0.0.0.0.0.0.0.0.0.0.0.0.0.0.0.0.0.0.0.0.0.,.,.,.,.,.<.0.0.0.0.0.0.0.0.0.0.0.0.0.0.0.0.0.0.0.0.0.0.0.0.0.0.0.0.0.0.0.0.0.0.0.0.",
"0.0.0.0.0.0.0.0.0.0.0.0.0.0.0.0.0.0.0.0.0.0.9.9.9.9.9.9.0.0.0.0.0.0.0.0.0.0.0.0.0.0.0.0.0.0.0.0.0.0.0.0.0.0.0.0.0.0.0.0.0.0.0.0.",
"0.0.0.0.0.0.0.0.0.0.0.0.0.0.0.0.0.0.0.0.0.0.0.0.0.0.0.0.0.0.0.0.0.0.0.0.0.0.0.0.0.0.0.0.0.0.0.0.0.0.0.0.0.0.0.0.0.0.0.0.0.0.0.0.",
"0.0.0.0.0.0.0.0.0.0.0.0.0.0.0.0.0.0.0.0.0.0.0.0.0.0.0.0.0.0.0.0.0.0.0.0.0.0.0.0.0.0.0.0.0.0.0.0.0.0.0.0.0.0.0.0.0.0.0.0.0.0.0.0.",
"0.0.0.0.0.0.0.0.0.0.0.0.0.0.0.0.0.0.0.0.0.0.0.0.0.0.0.0.0.0.0.0.0.0.0.0.0.0.0.0.0.0.0.0.0.0.0.0.0.0.0.0.0.0.0.0.0.0.0.0.0.0.0.0.",
"0.0.0.0.0.0.0.0.0.0.0.0.0.0.0.0.0.0.0.0.0.0.0.0.0.0.0.0.0.0.0.0.0.0.0.0.0.0.0.0.0.0.0.0.0.0.0.0.0.0.0.0.0.0.0.0.0.0.0.0.0.0.0.0.",
"0.0.0.0.0.0.0.0.0.0.0.0.0.0.0.0.0.0.0.0.0.0.0.0.0.0.0.0.0.0.0.0.0.0.0.0.0.0.0.0.0.0.0.0.0.0.0.0.0.0.0.0.0.0.0.0.0.0.0.0.0.0.0.0.",
"0.0.0.0.0.0.0.0.0.0.0.0.0.0.0.0.0.0.0.0.0.0.0.0.0.0.0.0.0.0.0.0.0.0.0.0.0.0.0.0.0.0.0.0.0.0.0.0.0.0.0.0.0.0.0.0.0.0.0.0.0.0.0.0.",
"0.0.0.0.0.0.0.0.0.0.0.0.0.0.0.0.0.0.0.0.0.0.0.0.0.0.0.0.0.0.0.0.0.0.0.0.0.0.0.0.0.0.0.0.0.0.0.0.0.0.0.0.0.0.0.0.0.0.0.0.0.0.0.0.",
"0.0.0.0.0.0.0.0.0.0.0.0.0.0.0.0.0.0.0.0.0.0.0.0.0.0.0.0.0.0.0.0.0.0.0.0.0.0.0.0.0.0.0.0.0.0.0.0.0.0.0.0.0.0.0.0.0.0.0.0.0.0.0.0.",
"0.0.0.0.0.0.0.0.0.0.0.0.0.0.0.0.0.0.0.0.0.0.0.0.0.0.0.0.0.0.0.0.0.0.0.0.0.0.0.0.0.0.0.0.0.0.0.0.0.0.0.0.0.0.0.0.0.0.0.0.0.0.0.0.",
"0.0.0.0.0.0.0.0.0.0.0.0.0.0.0.0.0.0.0.0.0.0.0.0.0.0.0.0.0.0.0.0.0.0.0.0.0.0.0.0.0.0.0.0.0.0.0.0.0.0.0.0.0.0.0.0.0.0.0.0.0.0.0.0.",
"0.0.0.0.0.0.0.0.0.0.0.0.0.0.0.0.0.0.0.0.0.0.0.0.0.0.0.0.0.0.0.0.0.0.0.0.0.0.0.0.0.0.0.0.0.0.0.0.0.0.0.0.0.0.0.0.0.0.0.0.0.0.0.0.",
"0.0.0.0.0.0.0.0.0.0.0.0.0.0.0.0.0.0.0.0.0.0.0.0.0.0.0.0.0.0.0.0.0.0.0.0.0.0.0.0.0.0.0.0.0.0.0.0.0.0.0.0.0.0.0.0.0.0.0.0.0.0.0.0.",
"0.0.0.0.0.0.0.0.0.0.0.0.0.0.0.0.0.0.0.0.0.0.0.0.0.0.0.0.0.0.0.0.0.0.0.0.0.0.0.0.0.0.0.0.0.0.0.0.0.0.0.0.0.0.0.0.0.0.0.0.0.0.0.0.",
"0.0.0.0.0.0.0.0.0.0.0.0.0.0.0.0.0.0.0.0.0.0.0.0.0.0.0.0.0.0.0.0.0.0.0.0.0.0.0.0.0.0.0.0.0.0.0.0.0.0.0.0.0.0.0.0.0.0.0.0.0.0.0.0.",
"0.0.0.0.0.0.0.0.0.0.0.0.0.0.0.0.0.0.0.0.0.0.0.0.0.0.0.0.0.0.0.0.0.0.0.0.0.0.0.0.0.0.0.0.0.0.0.0.0.0.0.0.0.0.0.0.0.0.0.0.0.0.0.0.",
"0.0.0.0.0.0.0.0.0.0.0.0.0.0.0.0.0.0.0.0.0.0.0.0.0.0.0.0.0.0.0.0.0.0.0.0.0.0.0.0.0.0.0.0.0.0.0.0.0.0.0.0.0.0.0.0.0.0.0.0.0.0.0.0."
};
