/* XPM */
static char *result[] = {
/* columns rows colors chars-per-pixel */
"64 64 127 2 ",
"   c #090804",
".  c #141624",
"X  c #161824",
"o  c #191922",
"O  c #1B1E2B",
"+  c #1C1E39",
"@  c #1E212F",
"#  c #2B2A26",
"$  c #2D2C29",
"%  c #333334",
"&  c #252842",
"*  c #323751",
"=  c #373C56",
"-  c #3A3F74",
";  c #3D4276",
":  c #474856",
">  c #404579",
",  c #585A7E",
"<  c #3C4286",
"1  c #3F4488",
"2  c #464B8C",
"3  c #494E8E",
"4  c #4E5584",
"5  c #545B8D",
"6  c #595F8E",
"7  c #474D90",
"8  c #484E90",
"9  c #4D5293",
"0  c #4F5698",
"q  c #515696",
"w  c #545B97",
"e  c #545B9C",
"r  c #5A619F",
"t  c #5F689B",
"y  c #62669D",
"u  c #636A9E",
"i  c #565EA0",
"p  c #585FA0",
"a  c #5E66A6",
"s  c #5F67A8",
"d  c #5F68A8",
"f  c #646BA5",
"g  c #696DA2",
"h  c #636BAA",
"j  c #686FAB",
"k  c #6C72A6",
"l  c #6770AF",
"z  c #6D73AA",
"x  c #7276A7",
"c  c #7377A9",
"v  c #747AAC",
"b  c #797DAE",
"n  c #666FB0",
"m  c #6770B0",
"M  c #6B74B2",
"N  c #6F78B5",
"B  c #6F79B8",
"V  c #737CB6",
"C  c #727CBB",
"Z  c #7B81B3",
"A  c #7680BE",
"S  c #7C85BD",
"D  c #7682C2",
"F  c #7A85C5",
"G  c #7A86C8",
"H  c #7D89C9",
"J  c #959590",
"K  c #8287B8",
"L  c #848CBF",
"P  c #898FBE",
"I  c #8E91BA",
"U  c #9194BA",
"Y  c #A5A6AF",
"T  c #ABACBA",
"R  c #838CC3",
"E  c #818ECB",
"W  c #8E95C4",
"Q  c #8390CF",
"!  c #8E97CB",
"~  c #9097C5",
"^  c #9198C6",
"/  c #9B9EC1",
"(  c #939BCD",
")  c #828FD1",
"_  c #8592D2",
"`  c #8996D5",
"'  c #8E9CDA",
"]  c #919FDE",
"[  c #92A0DF",
"{  c #9BA6DA",
"}  c #9EA8DC",
"|  c #A4A9CF",
" . c #ADAFCC",
".. c #B1B4CF",
"X. c #A6ACD1",
"o. c #A9AED2",
"O. c #A1AADA",
"+. c #B3B5D0",
"@. c #B6B8D4",
"#. c #B9BCD7",
"$. c #BBBDD9",
"%. c #93A1E1",
"&. c #A5B1E4",
"*. c #ACB7E7",
"=. c #ADB8E7",
"-. c #AEB9E8",
";. c #BEC2DD",
":. c #BDC6EC",
">. c #BFC8ED",
",. c #C1C5DF",
"<. c #C8CDE7",
"1. c #C0C8ED",
"2. c #CACFEA",
"3. c #CED4EE",
"4. c #D5D6E4",
"5. c #D6D8E6",
"6. c #D9DAE6",
"7. c #DBDDEB",
"8. c #DEE0EE",
"9. c #DFE1F0",
"0. c #E2E3EF",
"q. c #E3E5F1",
"w. c #E7EAF8",
"e. c #EAECF9",
"r. c #F5F6F9",
"t. c #FFFFFF",
"y. c #11498E",
/* pixels */
"y.y.y.y.y.y.y.y.y.y.y.y.y.y.y.y.y.y.y.y.y.y.y.y.y.y.y.y.y.y.y.y.y.y.y.y.y.y.y.y.y.y.y.y.y.y.y.y.y.y.y.y.y.y.y.y.y.y.y.y.y.y.y.y.",
"y.y.y.y.y.y.y.y.y.y.y.y.y.y.y.y.y.y.y.y.y.y.y.y.y.y.y.y.y.y.y.y.y.y.y.y.y.y.y.y.y.y.y.y.y.y.y.y.y.y.y.y.y.y.y.y.y.y.y.y.y.y.y.y.",
"y.y.y.y.y.y.y.y.y.y.y.y.y.y.y.y.y.y.y.y.y.y.y.y.y.y.y.y.y.y.y.y.y.y.y.y.y.y.y.y.y.y.y.y.y.y.y.y.y.y.y.y.y.y.y.y.y.y.y.y.y.y.y.y.",
"y.y.y.y.y.y.y.y.y.y.y.y.y.y.y.y.y.y.y.y.y.y.y.y.y.y.y.y.y.y.y.y.y.y.y.y.y.y.y.y.y.y.y.y.y.y.y.y.y.y.y.y.y.y.y.y.y.y.y.y.y.y.y.y.",
"y.y.y.y.y.y.y.y.y.y.y.y.y.y.y.y.y.y.y.y.y.y.y.y.y.y.y.y.y.y.y.y.y.y.y.y.y.y.y.y.y.y.y.y.y.y.y.y.y.y.y.y.y.y.y.y.y.y.y.y.y.y.y.y.",
"y.y.y.y.y.y.y.y.y.y.y.y.y.y.y.y.y.y.y.y.y.y.y.y.y.y.y.y.y.y.y.y.y.y.y.y.y.y.y.y.y.y.y.y.y.y.y.y.y.y.y.y.y.y.y.y.y.y.y.y.y.y.y.y.",
"y.y.y.y.y.y.y.y.y.y.y.y.y.y.y.y.y.y.y.y.y.y.y.y.y.y.y.y.y.y.y.y.y.y.y.y.y.y.y.y.y.y.y.y.y.y.y.y.y.y.y.y.y.y.y.y.y.y.y.y.y.y.y.y.",
"y.y.y.y.y.y.y.y.y.y.y.y.y.y.y.y.y.y.y.y.y.y.y.y.y.y.y.y.y.y.y.y.y.y.y.y.y.y.y.y.y.y.y.y.y.y.y.y.y.y.y.y.y.y.y.y.y.y.y.y.y.y.y.y.",
"y.y.y.y.y.y.y.y.y.y.y.y.y.y.y.y.y.y.y.y.y.y.y.y.y.y.y.y.y.y.y.y.y.y.y.y.y.y.y.y.y.y.y.y.y.y.y.y.y.y.y.y.y.y.y.y.y.y.y.y.y.y.y.y.",
"y.y.y.y.y.y.y.y.y.y.y.y.y.y.y.y.y.y.y.y.y.y.y.y.y.y.y.y.y.y.y.y.y.y.y.y.y.y.y.y.y.y.y.y.y.y.y.y.y.y.y.y.y.y.y.y.y.y.y.y.y.y.y.y.",
"y.y.y.y.y.y.y.y.y.y.y.y.y.y.y.y.y.y.y.y.y.y.y.y.y.y.y.y.y.y.t.t.y.y.y.y.y.y.y.y.y.y.y.y.y.y.y.y.y.y.y.y.y.y.y.y.y.y.y.y.y.y.y.y.",
"y.y.y.y.y.y.y.y.y.y.y.y.y.y.y.y.y.y.y.y.y.y.y.y.y.y.y.y.y.y.t.t.y.y.y.y.y.y.y.y.y.y.y.y.y.y.y.y.y.y.y.y.y.y.y.y.y.y.y.y.y.y.y.y.",
"y.y.y.y.y.y.y.y.y.y.y.y.y.y.y.y.y.y.y.y.y.y.y.y.y.y.y.y.t.t.t.t.y.y.y.y.y.y.y.y.y.y.y.y.y.y.y.y.y.y.y.y.y.y.y.y.y.y.y.y.y.y.y.y.",
"y.y.y.y.y.y.y.y.y.y.y.y.y.y.y.y.y.y.y.y.y.y.y.y.y.y.y.y.w.e.r.t.y.y.y.y.y.y.y.y.y.y.y.y.y.y.y.y.y.y.y.y.y.y.y.y.y.y.y.y.y.y.y.y.",
"y.y.y.y.y.y.y.y.y.y.y.y.y.y.y.y.y.y.y.y.y.y.y.y.y.y.t.e.:.>.e.t.y.y.y.y.y.y.y.y.y.y.y.y.y.y.y.y.y.y.y.y.y.y.y.y.y.y.y.y.y.y.y.y.",
"y.y.y.y.y.y.y.y.y.y.y.y.y.y.y.y.y.y.y.y.y.y.y.y.y.y.e.3.{ } q.t.y.y.y.y.y.y.y.y.y.y.y.y.y.y.y.y.y.y.y.y.y.y.y.y.y.y.y.y.y.y.y.y.",
"y.y.y.y.y.y.y.y.y.y.y.y.y.y.y.y.y.y.y.y.y.y.y.y.t.e.1.{ H ( 8.t.y.y.y.y.y.y.y.y.y.y.y.y.y.y.y.y.y.y.y.y.y.y.y.y.y.y.y.y.y.y.y.y.",
"y.y.y.y.y.y.y.y.y.y.y.y.y.y.y.y.y.y.y.y.y.y.y.y.e.3.} G M ~ 7.t.y.y.y.y.y.y.y.y.y.y.y.y.y.y.y.y.y.y.y.y.y.y.y.y.y.y.y.y.y.y.y.y.",
"y.y.y.y.y.y.y.y.y.y.y.y.y.y.y.y.y.y.y.y.y.y.t.e.1.} H B M W 8.t.y.y.y.y.y.y.y.y.y.y.y.y.y.y.y.y.y.y.y.y.y.y.y.y.y.y.y.y.y.y.y.y.",
"y.y.y.y.y.y.y.y.y.y.y.y.y.y.y.y.y.y.y.y.y.y.e.3.} H N m j ^ 8.t.y.y.y.y.y.y.y.y.y.y.y.y.y.y.y.y.y.y.y.y.y.y.y.y.y.y.y.y.y.y.y.y.",
"y.y.y.y.y.y.y.y.y.y.y.y.y.y.y.y.t.t.t.t.t.e.>.} H V M m M ^ 0.t.y.y.y.y.y.y.y.y.y.y.y.y.y.y.y.y.y.y.y.y.y.y.y.y.y.y.y.y.y.y.y.y.",
"y.y.y.y.y.y.y.y.y.y.y.y.y.y.y.y.w.w.w.w.e.3.} H B M M j h Z @.6.y.y.y.y.y.y.y.y.y.y.y.y.y.y.y.y.y.y.y.y.y.y.y.y.y.y.y.y.y.y.y.y.",
"y.y.y.y.y.y.y.y.y.y.y.y.t.t.t.w.:.*.*.-.-.} R B M M M h e q f U 6.t.t.t.y.y.y.y.y.y.y.y.y.y.y.y.y.y.y.y.y.y.y.y.y.y.t.t.t.t.t.t.",
"y.y.y.y.y.y.y.y.y.y.y.y.e.w.w.3.} H _ _ _ H B M M M M j e 8 8 k ..5.5.5.y.y.y.y.y.y.y.y.y.y.y.y.y.y.y.y.y.y.y.y.y.y.9.7.7.q.r.t.",
"y.y.y.y.y.y.y.y.t.t.t.e.:.*.-.} E C B C C C M M M M M l j h s h z x c U 6.t.t.t.y.y.y.y.y.y.y.y.y.y.y.y.y.y.y.y.t.q.o.W W o.q.t.",
"y.y.y.y.y.y.y.y.e.w.w.3.{ _ _ H B M M M M M M M M M M M M M M h w 3 8 g +.5.5.5.y.y.y.y.y.y.y.y.y.y.y.y.y.y.y.y.q.;.L M S | 8.t.",
"y.y.y.y.y.y.t.e.:.*.=.} R B C B N M M M M M M M M M M M M M M M h h a h x x x P 6.t.t.t.y.y.y.y.y.y.y.y.y.y.t.0.o.L V L ;.8.y.y.",
"y.y.y.y.y.y.e.3.{ _ _ H B M M M j h l M M M M M M M j h M M M M M M M j 0 3 3 k ..5.5.5.y.y.y.y.y.y.y.y.y.y.q.,.R h a L 7.t.y.y.",
"y.y.y.y.t.e.1.} R C C B M M M j e i h M M M M M M h e e j M M M M M M M h h a f k c x U 6.t.y.y.y.y.y.y.t.0.o.R V s 9 b 5.t.y.y.",
"y.y.y.y.e.3.} G B m M M M M h w ; ; t M M M M M M h 9 9 h M j j M M M M M M M h e 7 7 k @.6.y.y.y.y.y.y.0.,.R h h h k U 5.t.y.y.",
"y.y.t.e.1.} R B M M M M M h e - + & w N M M M M M f 9 9 h h w e h M M M M M M M h h s f k U 6.t.t.t.t.q.X.R V h 0 x ..6.y.y.y.y.",
"y.y.0.<.{ H B M M M M n h l v , o X 4 N B M M M M h 9 9 h h 9 9 h N M M M M M M M M M h 0 k #.8.8.7.0.,.R n m s 7 c 5.t.y.y.y.y.",
"t.8.X.R A V M M M M M d w z #.Y % . 4 N N M M M M h 9 9 d h 9 9 f M M M M M M M M M M M h l L ~ ^ ! ^ L C n M s 7 c 5.t.y.y.y.y.",
"t.7.^ n l M M l M M M h e k T J $ . 4 B N M M M M j e e h j e e h M M M M M M M M M M M M M l M M j M M M j h f k U 5.t.y.y.y.y.",
"t.7.~ m m M M M M l M l h 6 : #   . 4 M M M M M M M j h M m j j m M M M M M M M M M M M M M M M M M M M M h e k +.6.y.y.y.y.y.y.",
"t.7.P h M A A A A A A D A t * @ @ = u C N M l M M M M M M M M M M M M M M M M M M M M m h d d d a a a h M h 0 b 6.t.y.y.y.y.y.y.",
"t.4.v i F ` ` ` ` ` ` ` ` E v k k Z H H N M l M m M M M M M M M M M M M M M M M M M M d 0 9 8 9 8 9 8 w j m h W 8.t.y.y.y.y.y.y.",
"t.5.U v D G H H H H H E ' %.%.%.%.%.%.' F C A C C C M M M M M M M M M M N j h h s z R I Z x x x c x x z h h j R ,.q.y.y.y.y.y.y.",
"y.y.6.@.v e e i e e e l ) %.%.%.[ [ [ ' ` ` ` ` ` E C M M M M M M M M M M h q 8 2 z #.7.5.4.4.4.4.5.4.+.g 0 h C R o.q.t.y.y.y.y.",
"y.y.t.7.U g a e i e e h A E ' [ [ ] [ [ [ [ ' [ [ ` F M h a h h M M M M j h x c x I 6.t.t.t.t.t.t.t.t.6.U k f a a Z @.5.y.y.y.y.",
"y.y.y.y.6.;.( G G G H C f h E %.[ [ [ [ [ [ [ [ [ ' ` D p 8 8 w h M M h w c @.6.4.5.y.y.y.y.y.y.y.y.y.y.6.+.k 2 2 9 u U 5.t.y.y.",
"y.y.y.y.t.e.:.-.*.&.] D i i D _ ` H _ _ _ _ _ Q E ' &.O.K c x z f h h p 3 u ..q.t.t.y.y.y.y.y.y.y.y.y.y.t.6.U x c c x U 7.t.y.y.",
"y.y.y.y.y.y.e.w.w.3.! M h h M C B B B B B A B B B ! 3.q.6.5.5.+.j 8 7 7 2 9 f / 0.t.y.y.y.y.y.y.y.y.y.y.y.y.5.4.4.4.<.6.r.t.t.t.",
"y.y.y.y.y.y.t.t.t.q.X.W W ^ ! ~ ^ ^ ! ^ W W ^ W W X.8.t.t.t.t.6.U x c g 3 2 < y  .6.y.y.y.y.y.y.y.y.y.y.y.y.t.t.t.t.t.t.t.t.t.t.",
"y.y.y.y.y.y.y.y.y.y.8.7.8.7.7.7.7.7.7.7.8.7.7.7.7.8.y.y.y.y.y.y.5.4.5...u < < 2 y I 5.t.y.y.y.y.y.y.y.y.y.y.y.y.y.y.y.y.y.y.y.y.",
"y.y.y.y.y.y.y.y.y.y.t.t.t.t.t.t.t.t.t.t.t.t.t.t.t.t.y.y.y.y.y.y.t.t.t.6.U x x x x I 5.t.y.y.y.y.y.y.y.y.y.y.y.y.y.y.y.y.y.y.y.y.",
"y.y.y.y.y.y.y.y.y.y.y.y.y.y.y.y.y.y.y.y.y.y.y.y.y.y.y.y.y.y.y.y.y.y.y.y.5.4.4.4.4.4.y.y.y.y.y.y.y.y.y.y.y.y.y.y.y.y.y.y.y.y.y.y.",
"y.y.y.y.y.y.y.y.y.y.y.y.y.y.y.y.y.y.y.y.y.y.y.y.y.y.y.y.y.y.y.y.y.y.y.y.t.t.t.t.t.t.y.y.y.y.y.y.y.y.y.y.y.y.y.y.y.y.y.y.y.y.y.y.",
"y.y.y.y.y.y.y.y.y.y.y.y.y.y.y.y.y.y.y.y.y.y.y.y.y.y.y.y.y.y.y.y.y.y.y.y.y.y.y.y.y.y.y.y.y.y.y.y.y.y.y.y.y.y.y.y.y.y.y.y.y.y.y.y.",
"y.y.y.y.y.y.y.y.y.y.y.y.y.y.y.y.y.y.y.y.y.y.y.y.y.y.y.y.y.y.y.y.y.y.y.y.y.y.y.y.y.y.y.y.y.y.y.y.y.y.y.y.y.y.y.y.y.y.y.y.y.y.y.y.",
"y.y.y.y.y.y.y.y.y.y.y.y.y.y.y.y.y.y.y.y.y.y.y.y.y.y.y.y.y.y.y.y.y.y.y.y.y.y.y.y.y.y.y.y.y.y.y.y.y.y.y.y.y.y.y.y.y.y.y.y.y.y.y.y.",
"y.y.y.y.y.y.y.y.y.y.y.y.y.y.y.y.y.y.y.y.y.y.y.y.y.y.y.y.y.y.y.y.y.y.y.y.y.y.y.y.y.y.y.y.y.y.y.y.y.y.y.y.y.y.y.y.y.y.y.y.y.y.y.y.",
"y.y.y.y.y.y.y.y.y.y.y.y.y.y.y.y.y.y.y.y.y.y.y.y.y.y.y.y.y.y.y.y.y.y.y.y.y.y.y.y.y.y.y.y.y.y.y.y.y.y.y.y.y.y.y.y.y.y.y.y.y.y.y.y.",
"y.y.y.y.y.y.y.y.y.y.y.y.y.y.y.y.y.y.y.y.y.y.y.y.y.y.y.y.y.y.y.y.y.y.y.y.y.y.y.y.y.y.y.y.y.y.y.y.y.y.y.y.y.y.y.y.y.y.y.y.y.y.y.y.",
"y.y.y.y.y.y.y.y.y.y.y.y.y.y.y.y.y.y.y.y.y.y.y.y.y.y.y.y.y.y.y.y.y.y.y.y.y.y.y.y.y.y.y.y.y.y.y.y.y.y.y.y.y.y.y.y.y.y.y.y.y.y.y.y.",
"y.y.y.y.y.y.y.y.y.y.y.y.y.y.y.y.y.y.y.y.y.y.y.y.y.y.y.y.y.y.y.y.y.y.y.y.y.y.y.y.y.y.y.y.y.y.y.y.y.y.y.y.y.y.y.y.y.y.y.y.y.y.y.y.",
"y.y.y.y.y.y.y.y.y.y.y.y.y.y.y.y.y.y.y.y.y.y.y.y.y.y.y.y.y.y.y.y.y.y.y.y.y.y.y.y.y.y.y.y.y.y.y.y.y.y.y.y.y.y.y.y.y.y.y.y.y.y.y.y.",
"y.y.y.y.y.y.y.y.y.y.y.y.y.y.y.y.y.y.y.y.y.y.y.y.y.y.y.y.y.y.y.y.y.y.y.y.y.y.y.y.y.y.y.y.y.y.y.y.y.y.y.y.y.y.y.y.y.y.y.y.y.y.y.y.",
"y.y.y.y.y.y.y.y.y.y.y.y.y.y.y.y.y.y.y.y.y.y.y.y.y.y.y.y.y.y.y.y.y.y.y.y.y.y.y.y.y.y.y.y.y.y.y.y.y.y.y.y.y.y.y.y.y.y.y.y.y.y.y.y.",
"y.y.y.y.y.y.y.y.y.y.y.y.y.y.y.y.y.y.y.y.y.y.y.y.y.y.y.y.y.y.y.y.y.y.y.y.y.y.y.y.y.y.y.y.y.y.y.y.y.y.y.y.y.y.y.y.y.y.y.y.y.y.y.y.",
"y.y.y.y.y.y.y.y.y.y.y.y.y.y.y.y.y.y.y.y.y.y.y.y.y.y.y.y.y.y.y.y.y.y.y.y.y.y.y.y.y.y.y.y.y.y.y.y.y.y.y.y.y.y.y.y.y.y.y.y.y.y.y.y.",
"y.y.y.y.y.y.y.y.y.y.y.y.y.y.y.y.y.y.y.y.y.y.y.y.y.y.y.y.y.y.y.y.y.y.y.y.y.y.y.y.y.y.y.y.y.y.y.y.y.y.y.y.y.y.y.y.y.y.y.y.y.y.y.y.",
"y.y.y.y.y.y.y.y.y.y.y.y.y.y.y.y.y.y.y.y.y.y.y.y.y.y.y.y.y.y.y.y.y.y.y.y.y.y.y.y.y.y.y.y.y.y.y.y.y.y.y.y.y.y.y.y.y.y.y.y.y.y.y.y.",
"y.y.y.y.y.y.y.y.y.y.y.y.y.y.y.y.y.y.y.y.y.y.y.y.y.y.y.y.y.y.y.y.y.y.y.y.y.y.y.y.y.y.y.y.y.y.y.y.y.y.y.y.y.y.y.y.y.y.y.y.y.y.y.y."
};
