/* XPM */
static char *result[] = {
/* columns rows colors chars-per-pixel */
"64 64 126 2 ",
"   c #090804",
".  c #141624",
"X  c #161824",
"o  c #191922",
"O  c #1B1E2B",
"+  c #1C1E39",
"@  c #1E212F",
"#  c #2B2A26",
"$  c #2D2C29",
"%  c #333334",
"&  c #252842",
"*  c #323751",
"=  c #373C56",
"-  c #3A3F74",
";  c #3D4276",
":  c #474856",
">  c #404579",
",  c #585A7E",
"<  c #3C4286",
"1  c #3F4488",
"2  c #464B8C",
"3  c #494E8E",
"4  c #4E5584",
"5  c #545B8D",
"6  c #595F8E",
"7  c #474D90",
"8  c #484E90",
"9  c #4D5293",
"0  c #4F5698",
"q  c #515696",
"w  c #545B97",
"e  c #545B9C",
"r  c #5A619F",
"t  c #5F689B",
"y  c #62669D",
"u  c #636A9E",
"i  c #565EA0",
"p  c #585FA0",
"a  c #5E66A6",
"s  c #5F67A8",
"d  c #5F68A8",
"f  c #646BA5",
"g  c #696DA2",
"h  c #636BAA",
"j  c #686FAB",
"k  c #6C72A6",
"l  c #6770AF",
"z  c #6D73AA",
"x  c #7276A7",
"c  c #7377A9",
"v  c #747AAC",
"b  c #797DAE",
"n  c #666FB0",
"m  c #6770B0",
"M  c #6B74B2",
"N  c #6F78B5",
"B  c #6F79B8",
"V  c #737CB6",
"C  c #727CBB",
"Z  c #7B81B3",
"A  c #7680BE",
"S  c #7C85BD",
"D  c #7682C2",
"F  c #7A85C5",
"G  c #7A86C8",
"H  c #7D89C9",
"J  c #959590",
"K  c #8287B8",
"L  c #848CBF",
"P  c #898FBE",
"I  c #8E91BA",
"U  c #9194BA",
"Y  c #A5A6AF",
"T  c #ABACBA",
"R  c #838CC3",
"E  c #818ECB",
"W  c #8E95C4",
"Q  c #8390CF",
"!  c #8E97CB",
"~  c #9097C5",
"^  c #9198C6",
"/  c #9B9EC1",
"(  c #939BCD",
")  c #828FD1",
"_  c #8592D2",
"`  c #8996D5",
"'  c #8E9CDA",
"]  c #919FDE",
"[  c #92A0DF",
"{  c #9BA6DA",
"}  c #9EA8DC",
"|  c #A4A9CF",
" . c #ADAFCC",
".. c #B1B4CF",
"X. c #A7ACD1",
"o. c #A9AED2",
"O. c #A1AADA",
"+. c #B3B5D0",
"@. c #B6B8D4",
"#. c #B9BCD7",
"$. c #BBBDD9",
"%. c #93A1E1",
"&. c #A5B1E4",
"*. c #ACB7E7",
"=. c #ADB8E7",
"-. c #AEB9E8",
";. c #BEC2DD",
":. c #BDC6EC",
">. c #BFC8ED",
",. c #C1C5DF",
"<. c #C8CDE7",
"1. c #C0C8ED",
"2. c #CACFEA",
"3. c #CED4EE",
"4. c #D4D5E4",
"5. c #D7D8E6",
"6. c #D9DAE7",
"7. c #DBDDEB",
"8. c #DEE0EE",
"9. c #E2E4EF",
"0. c #E3E4F1",
"q. c #E7EAF8",
"w. c #E9ECF9",
"e. c #F5F6F9",
"r. c #FFFFFF",
"t.  c #2A52A5",
/* pixels */
"t.t.t.t.t.t.t.t.t.t.t.t.t.t.t.t.t.t.t.t.t.t.t.t.t.t.t.t.t.t.t.t.t.t.t.t.t.t.t.t.t.t.t.t.t.t.t.t.t.t.t.t.t.t.t.t.t.t.t.t.t.t.t.t.",
"t.t.t.t.t.t.t.t.t.t.t.t.t.t.t.t.t.t.t.t.t.t.t.t.t.t.t.t.t.t.t.t.t.t.t.t.t.t.t.t.t.t.t.t.t.t.t.t.t.t.t.t.t.t.t.t.t.t.t.t.t.t.t.t.",
"t.t.t.t.t.t.t.t.t.t.t.t.t.t.t.t.t.t.t.t.t.t.t.t.t.t.t.t.t.t.t.t.t.t.t.t.t.t.t.t.t.t.t.t.t.t.t.t.t.t.t.t.t.t.t.t.t.t.t.t.t.t.t.t.",
"t.t.t.t.t.t.t.t.t.t.t.t.t.t.t.t.t.t.t.t.t.t.t.t.t.t.t.t.t.t.t.t.t.t.t.t.t.t.t.t.t.t.t.t.t.t.t.t.t.t.t.t.t.t.t.t.t.t.t.t.t.t.t.t.",
"t.t.t.t.t.t.t.t.t.t.t.t.t.t.t.t.t.t.t.t.t.t.t.t.t.t.t.t.t.t.t.t.t.t.t.t.t.t.t.t.t.t.t.t.t.t.t.t.t.t.t.t.t.t.t.t.t.t.t.t.t.t.t.t.",
"t.t.t.t.t.t.t.t.t.t.t.t.t.t.t.t.t.t.t.t.t.t.t.t.t.t.t.t.t.t.t.t.t.t.t.t.t.t.t.t.t.t.t.t.t.t.t.t.t.t.t.t.t.t.t.t.t.t.t.t.t.t.t.t.",
"t.t.t.t.t.t.t.t.t.t.t.t.t.t.t.t.t.t.t.t.t.t.t.t.t.t.t.t.t.t.t.t.t.t.t.t.t.t.t.t.t.t.t.t.t.t.t.t.t.t.t.t.t.t.t.t.t.t.t.t.t.t.t.t.",
"t.t.t.t.t.t.t.t.t.t.t.t.t.t.t.t.t.t.t.t.t.t.t.t.t.t.t.t.t.t.t.t.t.t.t.t.t.t.t.t.t.t.t.t.t.t.t.t.t.t.t.t.t.t.t.t.t.t.t.t.t.t.t.t.",
"t.t.t.t.t.t.t.t.t.t.t.t.t.t.t.t.t.t.t.t.t.t.t.t.t.t.t.t.t.t.t.t.t.t.t.t.t.t.t.t.t.t.t.t.t.t.t.t.t.t.t.t.t.t.t.t.t.t.t.t.t.t.t.t.",
"t.t.t.t.t.t.t.t.t.t.t.t.t.t.t.t.t.t.t.t.t.t.t.t.t.t.t.t.t.t.t.t.t.t.t.t.t.t.t.t.t.t.t.t.t.t.t.t.t.t.t.t.t.t.t.t.t.t.t.t.t.t.t.t.",
"t.t.t.t.t.t.t.t.t.t.t.t.t.t.t.t.t.t.t.t.t.t.t.t.t.t.t.t.t.t.t.t.r.r.t.t.t.t.t.t.t.t.t.t.t.t.t.t.t.t.t.t.t.t.t.t.t.t.t.t.t.t.t.t.",
"t.t.t.t.t.t.t.t.t.t.t.t.t.t.t.t.t.t.t.t.t.t.t.t.t.t.t.t.t.t.t.t.r.r.t.t.t.t.t.t.t.t.t.t.t.t.t.t.t.t.t.t.t.t.t.t.t.t.t.t.t.t.t.t.",
"t.t.t.t.t.t.t.t.t.t.t.t.t.t.t.t.t.t.t.t.t.t.t.t.t.t.t.t.t.t.t.t.r.r.r.r.t.t.t.t.t.t.t.t.t.t.t.t.t.t.t.t.t.t.t.t.t.t.t.t.t.t.t.t.",
"t.t.t.t.t.t.t.t.t.t.t.t.t.t.t.t.t.t.t.t.t.t.t.t.t.t.t.t.t.t.t.t.r.e.w.q.t.t.t.t.t.t.t.t.t.t.t.t.t.t.t.t.t.t.t.t.t.t.t.t.t.t.t.t.",
"t.t.t.t.t.t.t.t.t.t.t.t.t.t.t.t.t.t.t.t.t.t.t.t.t.t.t.t.t.t.t.t.r.w.1.:.q.r.t.t.t.t.t.t.t.t.t.t.t.t.t.t.t.t.t.t.t.t.t.t.t.t.t.t.",
"t.t.t.t.t.t.t.t.t.t.t.t.t.t.t.t.t.t.t.t.t.t.t.t.t.t.t.t.t.t.t.t.r.0.O.{ 3.w.t.t.t.t.t.t.t.t.t.t.t.t.t.t.t.t.t.t.t.t.t.t.t.t.t.t.",
"t.t.t.t.t.t.t.t.t.t.t.t.t.t.t.t.t.t.t.t.t.t.t.t.t.t.t.t.t.t.t.t.r.7.( G { 1.w.r.t.t.t.t.t.t.t.t.t.t.t.t.t.t.t.t.t.t.t.t.t.t.t.t.",
"t.t.t.t.t.t.t.t.t.t.t.t.t.t.t.t.t.t.t.t.t.t.t.t.t.t.t.t.t.t.t.t.r.7.~ B G } 3.w.t.t.t.t.t.t.t.t.t.t.t.t.t.t.t.t.t.t.t.t.t.t.t.t.",
"t.t.t.t.t.t.t.t.t.t.t.t.t.t.t.t.t.t.t.t.t.t.t.t.t.t.t.t.t.t.t.t.r.7.W m B R } 1.w.r.t.t.t.t.t.t.t.t.t.t.t.t.t.t.t.t.t.t.t.t.t.t.",
"t.t.t.t.t.t.t.t.t.t.t.t.t.t.t.t.t.t.t.t.t.t.t.t.t.t.t.t.t.t.t.t.r.8.^ m m B H } 3.w.t.t.t.t.t.t.t.t.t.t.t.t.t.t.t.t.t.t.t.t.t.t.",
"t.t.t.t.t.t.t.t.t.t.t.t.t.t.t.t.t.t.t.t.t.t.t.t.t.t.t.t.t.t.t.t.r.0.^ m m N V H } :.w.r.r.r.r.r.t.t.t.t.t.t.t.t.t.t.t.t.t.t.t.t.",
"t.t.t.t.t.t.t.t.t.t.t.t.t.t.t.t.t.t.t.t.t.t.t.t.t.t.t.t.t.t.t.t.6.@.Z h l M m V H } 3.q.q.q.q.q.t.t.t.t.t.t.t.t.t.t.t.t.t.t.t.t.",
"r.r.r.r.r.r.t.t.t.t.t.t.t.t.t.t.t.t.t.t.t.t.t.t.t.t.t.t.r.r.r.6.I f e e h M M M B E O.-.=.*.*.:.w.r.r.r.t.t.t.t.t.t.t.t.t.t.t.t.",
"r.e.0.7.7.8.t.t.t.t.t.t.t.t.t.t.t.t.t.t.t.t.t.t.t.t.t.t.5.5.5.+.k 3 9 e h M M M l B H ` _ ) ) { 3.q.q.q.t.t.t.t.t.t.t.t.t.t.t.t.",
"r.0.o.W W o.9.r.t.t.t.t.t.t.t.t.t.t.t.t.t.t.t.t.r.r.r.6.U x x c f a f h n M M M M M C C C C C E } *.*.:.w.r.r.r.t.t.t.t.t.t.t.t.",
"r.8.| S M R ,.9.t.t.t.t.t.t.t.t.t.t.t.t.t.t.t.t.5.5.5.+.k 7 8 0 h M V M M M M M M M z m M M m V H _ _ { 3.q.q.q.t.t.t.t.t.t.t.t.",
"t.t.9.;.R N L o.0.r.t.t.t.t.t.t.t.t.t.t.r.r.r.6.I x x k h a h f m M M M N M M M M M M m M M M N V C C E } =.*.:.w.r.t.t.t.t.t.t.",
"t.t.r.7.P a h R ,.0.t.t.t.t.t.t.t.t.t.t.5.5.5...k 7 3 e h N M M N M M M h h m M M M M M M m h l m M m V H _ _ { 3.w.t.t.t.t.t.t.",
"t.t.r.5.b 9 s V L o.0.r.t.t.t.t.t.t.r.6.U c x z f s f h n N N M M N N f e e h M M M M M M h p e h M M N B C C R } 1.w.r.t.t.t.t.",
"t.t.r.5.I k f h h R ,.0.t.t.t.t.t.t.6.+.k 8 7 e h N M N M m M m h h m h q 9 f M M M M N M a > ; e h m M M M l B H } 3.w.t.t.t.t.",
"t.t.t.t.6.+.z 0 h V R X.0.r.r.r.r.6.U k f s a h m N m M M m N h e e h f 9 9 h M N m m N N 5 & + - e h N M M M M B R } 1.w.r.t.t.",
"t.t.t.t.r.5.x 8 f m n L ,.8.8.8.8.#.z q h N M M M M M M M N m h 9 q h h 9 9 h N M M M N N 4 X o , v l h m M M M m B H { <.9.t.t.",
"t.t.t.t.r.5.c 7 s N M V R ^ ^ ^ ^ L l h l N N M M M M M M M N h 9 9 h h 9 9 h N M M M M B 4 . % Y $.v 0 d M M M M M B S R X.8.r.",
"t.t.t.t.r.5.U k h h m m M m M m m m M N M M m M M M M M M M M f e e h h e e h M M M M M B 4 . $ J T k e d M M M M M M m l ~ 7.r.",
"t.t.t.t.t.t.6.+.k 0 h N M m m m M M N m M M M M M M M M M M M m h f M m h h m M M M M M M 4 X   # : 5 h l M l M M M l m h ^ 7.r.",
"t.t.t.t.t.t.r.6.b e h m f h f a s f h f h M M m M M M M M M M M N N M M N M M M M M z N A t = @ @ * t D D A A A A A A M h L 7.r.",
"t.t.t.t.t.t.r.8.W h l f e 8 9 9 9 8 8 e h m M N M M M M M M M M M m M M M M M M l l l C H H Z k k v H ` ` ` ` ` ` ` ` D i b 4.r.",
"t.t.t.t.t.t.0.,.R j h f z x x x c c c b I L M a f h m M M M M M M N M M m N C C A A A F ' [ %.%.%.%.%.' Q H H H H E H D v U 5.r.",
"t.t.t.t.r.0.X.R V h 0 j +.5.5.4.4.4.4.5.7.$.z 7 8 e h N M M M M N M N m m V E ` _ ` _ ` ' [ %.[ [ [ %._ l r e r e e e v @.6.t.t.",
"t.t.t.t.6.@.V a s f k U 6.r.r.r.r.r.r.r.r.6.P x c c f h m N M m h f s h V F ` ] [ [ [ [ [ [ ] [ [ ' H D d e e e e a g U 7.r.t.t.",
"t.t.r.5.I u q 7 2 z +.6.t.t.t.t.t.t.t.t.t.t.5.4.6.@.x e f N N h 0 8 8 a D ` ' %.] ] %.' [ ] ] [ [ ) h s C H G F F ( ;.6.t.t.t.t.",
"t.t.r.7.U x x x x U 6.r.t.t.t.t.t.t.t.t.t.t.r.r.0.+.u 9 e h h f z c x K O.&.' _ _ _ _ _ _ _ _ _ _ D i i D ] &.*.-.:.w.r.t.t.t.t.",
"r.r.r.e.6.<.4.4.4.5.t.t.t.t.t.t.t.t.t.t.t.t.r.9.U u 9 2 8 8 8 g ..5.4.5.0.2.! B B B C B C C C C C N h h N ! 3.q.q.w.t.t.t.t.t.t.",
"r.r.r.r.r.r.r.r.r.r.t.t.t.t.t.t.t.t.t.t.t.t.6. .y < 2 q g c x U 6.r.r.r.r.8.X.W ! W ~ ~ W W W ~ W W ~ ~ W X.9.r.r.r.t.t.t.t.t.t.",
"t.t.t.t.t.t.t.t.t.t.t.t.t.t.t.t.t.t.t.t.r.5.I y 3 < < u  .5.5.5.t.t.t.t.t.t.8.7.7.8.7.7.7.8.7.7.7.7.8.7.7.8.t.t.t.t.t.t.t.t.t.t.",
"t.t.t.t.t.t.t.t.t.t.t.t.t.t.t.t.t.t.t.t.r.5.I k x x x I 7.r.r.r.t.t.t.t.t.t.r.r.r.r.r.r.r.r.r.r.r.r.r.r.r.r.t.t.t.t.t.t.t.t.t.t.",
"t.t.t.t.t.t.t.t.t.t.t.t.t.t.t.t.t.t.t.t.t.t.4.4.4.4.4.5.t.t.t.t.t.t.t.t.t.t.t.t.t.t.t.t.t.t.t.t.t.t.t.t.t.t.t.t.t.t.t.t.t.t.t.t.",
"t.t.t.t.t.t.t.t.t.t.t.t.t.t.t.t.t.t.t.t.t.t.r.r.r.r.r.r.t.t.t.t.t.t.t.t.t.t.t.t.t.t.t.t.t.t.t.t.t.t.t.t.t.t.t.t.t.t.t.t.t.t.t.t.",
"t.t.t.t.t.t.t.t.t.t.t.t.t.t.t.t.t.t.t.t.t.t.t.t.t.t.t.t.t.t.t.t.t.t.t.t.t.t.t.t.t.t.t.t.t.t.t.t.t.t.t.t.t.t.t.t.t.t.t.t.t.t.t.t.",
"t.t.t.t.t.t.t.t.t.t.t.t.t.t.t.t.t.t.t.t.t.t.t.t.t.t.t.t.t.t.t.t.t.t.t.t.t.t.t.t.t.t.t.t.t.t.t.t.t.t.t.t.t.t.t.t.t.t.t.t.t.t.t.t.",
"t.t.t.t.t.t.t.t.t.t.t.t.t.t.t.t.t.t.t.t.t.t.t.t.t.t.t.t.t.t.t.t.t.t.t.t.t.t.t.t.t.t.t.t.t.t.t.t.t.t.t.t.t.t.t.t.t.t.t.t.t.t.t.t.",
"t.t.t.t.t.t.t.t.t.t.t.t.t.t.t.t.t.t.t.t.t.t.t.t.t.t.t.t.t.t.t.t.t.t.t.t.t.t.t.t.t.t.t.t.t.t.t.t.t.t.t.t.t.t.t.t.t.t.t.t.t.t.t.t.",
"t.t.t.t.t.t.t.t.t.t.t.t.t.t.t.t.t.t.t.t.t.t.t.t.t.t.t.t.t.t.t.t.t.t.t.t.t.t.t.t.t.t.t.t.t.t.t.t.t.t.t.t.t.t.t.t.t.t.t.t.t.t.t.t.",
"t.t.t.t.t.t.t.t.t.t.t.t.t.t.t.t.t.t.t.t.t.t.t.t.t.t.t.t.t.t.t.t.t.t.t.t.t.t.t.t.t.t.t.t.t.t.t.t.t.t.t.t.t.t.t.t.t.t.t.t.t.t.t.t.",
"t.t.t.t.t.t.t.t.t.t.t.t.t.t.t.t.t.t.t.t.t.t.t.t.t.t.t.t.t.t.t.t.t.t.t.t.t.t.t.t.t.t.t.t.t.t.t.t.t.t.t.t.t.t.t.t.t.t.t.t.t.t.t.t.",
"t.t.t.t.t.t.t.t.t.t.t.t.t.t.t.t.t.t.t.t.t.t.t.t.t.t.t.t.t.t.t.t.t.t.t.t.t.t.t.t.t.t.t.t.t.t.t.t.t.t.t.t.t.t.t.t.t.t.t.t.t.t.t.t.",
"t.t.t.t.t.t.t.t.t.t.t.t.t.t.t.t.t.t.t.t.t.t.t.t.t.t.t.t.t.t.t.t.t.t.t.t.t.t.t.t.t.t.t.t.t.t.t.t.t.t.t.t.t.t.t.t.t.t.t.t.t.t.t.t.",
"t.t.t.t.t.t.t.t.t.t.t.t.t.t.t.t.t.t.t.t.t.t.t.t.t.t.t.t.t.t.t.t.t.t.t.t.t.t.t.t.t.t.t.t.t.t.t.t.t.t.t.t.t.t.t.t.t.t.t.t.t.t.t.t.",
"t.t.t.t.t.t.t.t.t.t.t.t.t.t.t.t.t.t.t.t.t.t.t.t.t.t.t.t.t.t.t.t.t.t.t.t.t.t.t.t.t.t.t.t.t.t.t.t.t.t.t.t.t.t.t.t.t.t.t.t.t.t.t.t.",
"t.t.t.t.t.t.t.t.t.t.t.t.t.t.t.t.t.t.t.t.t.t.t.t.t.t.t.t.t.t.t.t.t.t.t.t.t.t.t.t.t.t.t.t.t.t.t.t.t.t.t.t.t.t.t.t.t.t.t.t.t.t.t.t.",
"t.t.t.t.t.t.t.t.t.t.t.t.t.t.t.t.t.t.t.t.t.t.t.t.t.t.t.t.t.t.t.t.t.t.t.t.t.t.t.t.t.t.t.t.t.t.t.t.t.t.t.t.t.t.t.t.t.t.t.t.t.t.t.t.",
"t.t.t.t.t.t.t.t.t.t.t.t.t.t.t.t.t.t.t.t.t.t.t.t.t.t.t.t.t.t.t.t.t.t.t.t.t.t.t.t.t.t.t.t.t.t.t.t.t.t.t.t.t.t.t.t.t.t.t.t.t.t.t.t.",
"t.t.t.t.t.t.t.t.t.t.t.t.t.t.t.t.t.t.t.t.t.t.t.t.t.t.t.t.t.t.t.t.t.t.t.t.t.t.t.t.t.t.t.t.t.t.t.t.t.t.t.t.t.t.t.t.t.t.t.t.t.t.t.t.",
"t.t.t.t.t.t.t.t.t.t.t.t.t.t.t.t.t.t.t.t.t.t.t.t.t.t.t.t.t.t.t.t.t.t.t.t.t.t.t.t.t.t.t.t.t.t.t.t.t.t.t.t.t.t.t.t.t.t.t.t.t.t.t.t."
};
