/* XPM */
static char *result[] = {
/* columns rows colors chars-per-pixel */
"64 64 125 2 ",
"   c #090804",
".  c #141624",
"X  c #161824",
"o  c #191922",
"O  c #1B1E2B",
"+  c #1C1E39",
"@  c #1E212F",
"#  c #2B2A26",
"$  c #2D2C29",
"%  c #333334",
"&  c #252842",
"*  c #323751",
"=  c #373C56",
"-  c #3A3F74",
";  c #3D4276",
":  c #474856",
">  c #404579",
",  c #585A7E",
"<  c #3D4286",
"1  c #3F4589",
"2  c #404587",
"3  c #404588",
"4  c #454B8D",
"5  c #494E8E",
"6  c #4E5584",
"7  c #545B8D",
"8  c #595F8E",
"9  c #474D90",
"0  c #484E90",
"q  c #4D5393",
"w  c #4F5698",
"e  c #535A97",
"r  c #545B9C",
"t  c #5A619F",
"y  c #5F689B",
"u  c #62669D",
"i  c #64699E",
"p  c #565EA0",
"a  c #585FA0",
"s  c #5E66A6",
"d  c #5F68A7",
"f  c #5F68A8",
"g  c #656BA4",
"h  c #686DA2",
"j  c #636BAA",
"k  c #686FAB",
"l  c #6D72A5",
"z  c #6770AF",
"x  c #6D73AB",
"c  c #7276A7",
"v  c #7377A9",
"b  c #747AAC",
"n  c #666FB0",
"m  c #6771B0",
"M  c #6B74B2",
"N  c #6F79B8",
"B  c #747FB3",
"V  c #7A7FB2",
"C  c #727CBB",
"Z  c #7D83B7",
"A  c #7680BE",
"S  c #7982BE",
"D  c #7682C2",
"F  c #7A85C5",
"G  c #7A86C8",
"H  c #7D89C9",
"J  c #959590",
"K  c #8187B9",
"L  c #858CBE",
"P  c #888EBD",
"I  c #8E91B9",
"U  c #9093BA",
"Y  c #9598BD",
"T  c #A5A6AF",
"R  c #ABACBA",
"E  c #818BC6",
"W  c #818ECB",
"Q  c #8F96C4",
"!  c #8390CF",
"~  c #8E97CB",
"^  c #9097C5",
"/  c #9198C6",
"(  c #9B9EC1",
")  c #939BCD",
"_  c #828FD1",
"`  c #8592D2",
"'  c #8996D5",
"]  c #8E9CDA",
"[  c #919FDE",
"{  c #92A0DF",
"}  c #9BA6DA",
"|  c #9EA8DC",
" . c #ADAFCC",
".. c #AEB0CC",
"X. c #B1B3CE",
"o. c #A7ACD1",
"O. c #A1AADA",
"+. c #B3B5D0",
"@. c #B6B8D4",
"#. c #BABDD7",
"$. c #BBBDD9",
"%. c #93A1E1",
"&. c #A5B1E4",
"*. c #ACB7E7",
"=. c #ADB8E7",
"-. c #AEB9E8",
";. c #BFC2DD",
":. c #BDC6EC",
">. c #BFC8ED",
",. c #C8CDE7",
"<. c #C0C8ED",
"1. c #CACFEA",
"2. c #CED4EE",
"3. c #D4D5E4",
"4. c #D7D8E6",
"5. c #D9DAE7",
"6. c #DBDDEB",
"7. c #DEE0EE",
"8. c #E2E3EF",
"9. c #E2E4F2",
"0. c #E7EAF8",
"q. c #E9ECF9",
"w. c #F4F4F8",
"e. c #FFFFFF",
"r. c #2A52A5",
/* pixels */
"r.r.r.r.r.r.r.r.r.r.r.r.r.r.r.r.r.r.r.r.r.r.r.r.r.r.r.r.r.r.r.r.r.r.r.r.r.r.r.r.r.r.r.r.r.r.r.r.r.r.r.r.r.r.r.r.r.r.r.r.r.r.r.r.",
"r.r.r.r.r.r.r.r.r.r.r.r.r.r.r.r.r.r.r.r.r.r.r.r.r.r.r.r.r.r.r.r.r.r.r.r.r.r.r.r.r.r.r.r.r.r.r.r.r.r.r.r.r.r.r.r.r.r.r.r.r.r.r.r.",
"r.r.r.r.r.r.r.r.r.r.r.r.r.r.r.r.r.r.r.r.r.r.r.r.r.r.r.r.r.r.r.r.r.r.r.r.r.r.r.r.r.r.r.r.r.r.r.r.r.r.r.r.r.r.r.r.r.r.r.r.r.r.r.r.",
"r.r.r.r.r.r.r.r.r.r.r.r.r.r.r.r.r.r.r.r.r.r.r.r.r.r.r.r.r.r.r.r.r.r.r.r.r.r.r.r.r.r.r.r.r.r.r.r.r.r.r.r.r.r.r.r.r.r.r.r.r.r.r.r.",
"r.r.r.r.r.r.r.r.r.r.r.r.r.r.r.r.r.r.r.r.r.r.r.r.r.r.r.r.r.r.r.r.r.r.r.r.r.r.r.r.r.r.r.r.r.r.r.r.r.r.r.r.r.r.r.r.r.r.r.r.r.r.r.r.",
"r.r.r.r.r.r.r.r.r.r.r.r.r.r.r.r.r.r.r.r.r.r.r.r.r.r.r.r.r.r.r.r.r.r.r.r.r.r.r.r.r.r.r.r.r.r.r.r.r.r.r.r.r.r.r.r.r.r.r.r.r.r.r.r.",
"r.r.r.r.r.r.r.r.r.r.r.r.r.r.r.r.r.r.r.r.r.r.r.r.r.r.r.r.r.r.r.r.r.r.r.r.r.r.r.r.r.r.r.r.r.r.r.r.r.r.r.r.r.r.r.r.r.r.r.r.r.r.r.r.",
"r.r.r.r.r.r.r.r.r.r.r.r.r.r.r.r.r.r.r.r.r.r.r.r.r.r.r.r.r.r.r.r.r.r.r.r.r.r.r.r.r.r.r.r.r.r.r.r.r.r.r.r.r.r.r.r.r.r.r.r.r.r.r.r.",
"r.r.r.r.r.r.r.r.r.r.r.r.r.r.r.r.r.r.r.r.r.r.r.r.r.r.r.r.r.r.r.r.r.r.r.r.r.r.r.r.r.r.r.r.r.r.r.r.r.r.r.r.r.r.r.r.r.r.r.r.r.r.r.r.",
"r.r.r.r.r.r.r.r.r.r.r.r.r.r.r.r.r.r.r.r.r.r.r.r.r.r.r.r.r.r.r.r.r.r.r.r.r.r.r.r.r.r.r.r.r.r.r.r.r.r.r.r.r.r.r.r.r.r.r.r.r.r.r.r.",
"r.r.r.r.r.r.r.r.r.r.r.r.r.r.r.r.r.r.r.r.r.r.r.r.r.r.r.r.r.r.r.r.e.e.r.r.r.r.r.r.r.r.r.r.r.r.r.r.r.r.r.r.r.r.r.r.r.r.r.r.r.r.r.r.",
"r.r.r.r.r.r.r.r.r.r.r.r.r.r.r.r.r.r.r.r.r.r.r.r.r.r.r.r.r.r.r.r.e.e.r.r.r.r.r.r.r.r.r.r.r.r.r.r.r.r.r.r.r.r.r.r.r.r.r.r.r.r.r.r.",
"r.r.r.r.r.r.r.r.r.r.r.r.r.r.r.r.r.r.r.r.r.r.r.r.r.r.r.r.r.r.r.r.e.e.e.e.r.r.r.r.r.r.r.r.r.r.r.r.r.r.r.r.r.r.r.r.r.r.r.r.r.r.r.r.",
"r.r.r.r.r.r.r.r.r.r.r.r.r.r.r.r.r.r.r.r.r.r.r.r.r.r.r.r.r.r.r.r.e.e.q.0.r.r.r.r.r.r.r.r.r.r.r.r.r.r.r.r.r.r.r.r.r.r.r.r.r.r.r.r.",
"r.r.r.r.r.r.r.r.r.r.r.r.r.r.r.r.r.r.r.r.r.r.r.r.r.r.r.r.r.r.r.r.e.q.>.:.0.e.r.r.r.r.r.r.r.r.r.r.r.r.r.r.r.r.r.r.r.r.r.r.r.r.r.r.",
"r.r.r.r.r.r.r.r.r.r.r.r.r.r.r.r.r.r.r.r.r.r.r.r.r.r.r.r.r.r.r.r.e.7.O.} 2.q.r.r.r.r.r.r.r.r.r.r.r.r.r.r.r.r.r.r.r.r.r.r.r.r.r.r.",
"r.r.r.r.r.r.r.r.r.r.r.r.r.r.r.r.r.r.r.r.r.r.r.r.r.r.r.r.r.r.r.r.e.6.) H } <.q.e.r.r.r.r.r.r.r.r.r.r.r.r.r.r.r.r.r.r.r.r.r.r.r.r.",
"r.r.r.r.r.r.r.r.r.r.r.r.r.r.r.r.r.r.r.r.r.r.r.r.r.r.r.r.r.r.r.r.e.6.^ M G | 2.q.r.r.r.r.r.r.r.r.r.r.r.r.r.r.r.r.r.r.r.r.r.r.r.r.",
"r.r.r.r.r.r.r.r.r.r.r.r.r.r.r.r.r.r.r.r.r.r.r.r.r.r.r.r.r.r.r.r.e.6.^ M N E | <.q.e.r.r.r.r.r.r.r.r.r.r.r.r.r.r.r.r.r.r.r.r.r.r.",
"r.r.r.r.r.r.r.r.r.r.r.r.r.r.r.r.r.r.r.r.r.r.r.r.r.r.r.r.r.r.r.r.e.7.^ z z N F | 2.q.r.r.r.r.r.r.r.r.r.r.r.r.r.r.r.r.r.r.r.r.r.r.",
"r.r.r.r.r.r.r.r.r.r.r.r.r.r.r.r.r.r.r.r.r.r.r.r.r.r.r.r.r.r.r.r.e.9.^ M M M N H | >.q.e.e.e.e.e.r.r.r.r.r.r.r.r.r.r.r.r.r.r.r.r.",
"r.r.r.r.r.r.r.r.r.r.r.r.r.r.r.r.r.r.r.r.r.r.r.r.r.r.r.r.r.r.r.r.5.@.Z j z M M N H | 2.0.0.0.0.0.r.r.r.r.r.r.r.r.r.r.r.r.r.r.r.r.",
"r.r.r.r.r.r.r.r.e.e.e.e.r.r.r.r.r.r.r.r.r.r.r.r.r.r.r.r.e.e.e.6.I g e e j M M M N W O.-.-.=.*.>.q.e.e.e.r.r.r.r.r.r.r.r.r.r.r.r.",
"r.r.r.r.r.r.r.r.e.w.6.3.r.r.r.r.r.r.r.r.r.r.r.r.r.r.r.r.4.3.3.+.l 9 q r k M M M z C H ` ` ` H } 2.0.0.0.r.r.r.r.r.r.r.r.r.r.r.r.",
"r.r.r.r.r.r.r.r.e.6.Y I 3.e.r.r.r.r.r.r.r.r.r.r.e.e.e.6.U c c c g f j j M M M M M M C C A C C E | =.*.:.q.e.e.e.r.r.r.r.r.r.r.r.",
"r.r.r.r.r.r.r.r.e.3.h l 3.e.r.r.r.r.r.r.r.r.r.r.4.3.3.X.k 9 5 w j M M M M M M M M M M z z M M N H ` ! | 2.0.0.q.r.r.r.r.r.r.r.r.",
"r.r.r.r.r.r.r.r.e.,.c c 3.e.r.r.r.r.r.r.e.e.e.6.U v v c k g j j M M M M M M M M M M M M M M M M C C C E | =.=.:.q.e.r.r.r.r.r.r.",
"r.r.r.r.r.r.r.r.e.3.c i @.9.r.r.r.r.r.r.3.3.3.+.l 9 9 e j M M M M M M M j j k M M M M M M z k k z z z C H ! ! } 2.q.r.r.r.r.r.r.",
"r.r.r.r.r.r.r.r.e.3.v e V o.8.e.r.r.e.6.U c v c j s j j z M M M M M M j r r j M M M M M M k p r k M M M N C C H | <.q.e.r.r.r.r.",
"r.r.r.r.r.r.r.r.e.3.v 5 s ^ 7.e.r.r.6.+.l 4 9 r j M M M M M M z j j M j w q g N M M M M M s ; ; e k M M M z z C H | 2.q.r.r.r.r.",
"r.r.r.r.r.r.r.r.e.3.c 4 s ~ 7.e.e.5.I l g f f j M M M M M M M k r r j j q q j M M M M M M 7 & + ; r j M M M M M N E | <.q.e.r.r.",
"r.r.r.r.r.r.r.r.e.3.c 4 r Z ;.9.9.#.l w j M M M M M M M M M M j q q j j q q j M M M M N N 6 X o , b z j z M M M M N H } ,.8.r.r.",
"r.r.r.r.r.r.r.r.e.3.v 3 4 g K / ^ L z f M M M M M M M M M M M j q q j j q q g M M M M M N 6 . % T #.v e j M M M M M N S E o.7.e.",
"r.r.r.r.r.r.r.r.e.5.U i q 0 a j j M M M M M M M M M M M M M M j r r k k r r j M M M M N M 6 . $ J R l w f M M M M M M z z ^ 6.e.",
"r.r.r.r.r.r.r.r.r.r.5.X.h 4 5 r k M M M M M M M M M M M M M M z k j z z j j M M M M M M M 6 X   # : e k m M m m m M z z j ~ 6.e.",
"r.r.r.r.r.r.r.r.r.r.e.4.v 2 2 q s M M M z M M M M M M M M M M M N M M M M M M M z M M N A i = @ @ * y A D A A A A A A N j P 6.e.",
"r.r.r.r.r.r.r.r.r.r.e.3.b 2 2 0 f M m m z M M M M M M M M M M M M M M M M M M M z z M B ! H Z l l b H ' ' ' ' ' ' ' ] D r b 4.e.",
"r.r.r.r.r.r.r.r.r.r.e.3.v 5 i V P ^ / / ^ L z g g j M M M M M M M M M M M M C C A A A F ' { { %.{ { { { ` H H G H H H D b U 3.e.",
"r.r.r.r.r.r.r.r.r.r.e.3.c u  .6.6.6.6.7.7.#.x 9 9 w j M M M M M M M M M M C W ' ` ` ' ` ] { { { { { %.H z r t t r r r b @.5.r.r.",
"r.r.r.r.r.r.r.r.r.r.e.3.l l 3.e.e.e.e.e.e.5.I c v c k j M M M z j j j j M F ' [ { { { { { { { { { ] ` A d r r r r s h U 6.e.r.r.",
"r.r.r.r.r.r.r.r.r.r.e.3.h c 3.e.r.r.r.r.r.r.4.3.5.+.c r k M M k w 9 9 s D ' ] [ [ { { [ { { [ { { W j s C H G F F ) ;.5.r.r.r.r.",
"r.r.r.r.r.r.r.r.r.r.e.6.Y I 3.e.r.r.r.r.r.r.e.e.0.X.i 5 r g j j c v c K O.&.[ ` ` ` ` ` ` ! ! ` ` A s r D [ &.*.*.>.q.e.r.r.r.r.",
"r.r.r.r.r.r.r.r.r.r.e.w.6.3.r.r.r.r.r.r.r.r.e.8.Y h q 5 9 9 9 l +.3.3.5.9.,.~ N N C N C C N C C C M j j M ) 2.0.0.q.r.r.r.r.r.r.",
"r.r.r.r.r.r.r.r.r.r.e.e.e.e.r.r.r.r.r.r.r.r.5...u < 2 q h v v U 6.e.e.e.e.7.o.Q Q Q Q ~ Q Q ~ ^ ^ ~ ^ Q ~ o.8.e.e.e.r.r.r.r.r.r.",
"r.r.r.r.r.r.r.r.r.r.r.r.r.r.r.r.r.r.r.r.e.5.I u 5 < < i X.3.3.4.r.r.r.r.r.r.7.6.6.6.6.6.6.7.6.6.6.6.6.7.6.7.r.r.r.r.r.r.r.r.r.r.",
"r.r.r.r.r.r.r.r.r.r.r.r.r.r.r.r.r.r.r.r.e.3.I l c v c I 6.e.e.e.r.r.r.r.r.r.e.e.e.e.e.e.e.e.e.e.e.e.e.e.e.e.r.r.r.r.r.r.r.r.r.r.",
"r.r.r.r.r.r.r.r.r.r.r.r.r.r.r.r.r.r.r.r.r.r.3.3.3.3.3.4.r.r.r.r.r.r.r.r.r.r.r.r.r.r.r.r.r.r.r.r.r.r.r.r.r.r.r.r.r.r.r.r.r.r.r.r.",
"r.r.r.r.r.r.r.r.r.r.r.r.r.r.r.r.r.r.r.r.r.r.e.e.e.e.e.e.r.r.r.r.r.r.r.r.r.r.r.r.r.r.r.r.r.r.r.r.r.r.r.r.r.r.r.r.r.r.r.r.r.r.r.r.",
"r.r.r.r.r.r.r.r.r.r.r.r.r.r.r.r.r.r.r.r.r.r.r.r.r.r.r.r.r.r.r.r.r.r.r.r.r.r.r.r.r.r.r.r.r.r.r.r.r.r.r.r.r.r.r.r.r.r.r.r.r.r.r.r.",
"r.r.r.r.r.r.r.r.r.r.r.r.r.r.r.r.r.r.r.r.r.r.r.r.r.r.r.r.r.r.r.r.r.r.r.r.r.r.r.r.r.r.r.r.r.r.r.r.r.r.r.r.r.r.r.r.r.r.r.r.r.r.r.r.",
"r.r.r.r.r.r.r.r.r.r.r.r.r.r.r.r.r.r.r.r.r.r.r.r.r.r.r.r.r.r.r.r.r.r.r.r.r.r.r.r.r.r.r.r.r.r.r.r.r.r.r.r.r.r.r.r.r.r.r.r.r.r.r.r.",
"r.r.r.r.r.r.r.r.r.r.r.r.r.r.r.r.r.r.r.r.r.r.r.r.r.r.r.r.r.r.r.r.r.r.r.r.r.r.r.r.r.r.r.r.r.r.r.r.r.r.r.r.r.r.r.r.r.r.r.r.r.r.r.r.",
"r.r.r.r.r.r.r.r.r.r.r.r.r.r.r.r.r.r.r.r.r.r.r.r.r.r.r.r.r.r.r.r.r.r.r.r.r.r.r.r.r.r.r.r.r.r.r.r.r.r.r.r.r.r.r.r.r.r.r.r.r.r.r.r.",
"r.r.r.r.r.r.r.r.r.r.r.r.r.r.r.r.r.r.r.r.r.r.r.r.r.r.r.r.r.r.r.r.r.r.r.r.r.r.r.r.r.r.r.r.r.r.r.r.r.r.r.r.r.r.r.r.r.r.r.r.r.r.r.r.",
"r.r.r.r.r.r.r.r.r.r.r.r.r.r.r.r.r.r.r.r.r.r.r.r.r.r.r.r.r.r.r.r.r.r.r.r.r.r.r.r.r.r.r.r.r.r.r.r.r.r.r.r.r.r.r.r.r.r.r.r.r.r.r.r.",
"r.r.r.r.r.r.r.r.r.r.r.r.r.r.r.r.r.r.r.r.r.r.r.r.r.r.r.r.r.r.r.r.r.r.r.r.r.r.r.r.r.r.r.r.r.r.r.r.r.r.r.r.r.r.r.r.r.r.r.r.r.r.r.r.",
"r.r.r.r.r.r.r.r.r.r.r.r.r.r.r.r.r.r.r.r.r.r.r.r.r.r.r.r.r.r.r.r.r.r.r.r.r.r.r.r.r.r.r.r.r.r.r.r.r.r.r.r.r.r.r.r.r.r.r.r.r.r.r.r.",
"r.r.r.r.r.r.r.r.r.r.r.r.r.r.r.r.r.r.r.r.r.r.r.r.r.r.r.r.r.r.r.r.r.r.r.r.r.r.r.r.r.r.r.r.r.r.r.r.r.r.r.r.r.r.r.r.r.r.r.r.r.r.r.r.",
"r.r.r.r.r.r.r.r.r.r.r.r.r.r.r.r.r.r.r.r.r.r.r.r.r.r.r.r.r.r.r.r.r.r.r.r.r.r.r.r.r.r.r.r.r.r.r.r.r.r.r.r.r.r.r.r.r.r.r.r.r.r.r.r.",
"r.r.r.r.r.r.r.r.r.r.r.r.r.r.r.r.r.r.r.r.r.r.r.r.r.r.r.r.r.r.r.r.r.r.r.r.r.r.r.r.r.r.r.r.r.r.r.r.r.r.r.r.r.r.r.r.r.r.r.r.r.r.r.r.",
"r.r.r.r.r.r.r.r.r.r.r.r.r.r.r.r.r.r.r.r.r.r.r.r.r.r.r.r.r.r.r.r.r.r.r.r.r.r.r.r.r.r.r.r.r.r.r.r.r.r.r.r.r.r.r.r.r.r.r.r.r.r.r.r.",
"r.r.r.r.r.r.r.r.r.r.r.r.r.r.r.r.r.r.r.r.r.r.r.r.r.r.r.r.r.r.r.r.r.r.r.r.r.r.r.r.r.r.r.r.r.r.r.r.r.r.r.r.r.r.r.r.r.r.r.r.r.r.r.r.",
"r.r.r.r.r.r.r.r.r.r.r.r.r.r.r.r.r.r.r.r.r.r.r.r.r.r.r.r.r.r.r.r.r.r.r.r.r.r.r.r.r.r.r.r.r.r.r.r.r.r.r.r.r.r.r.r.r.r.r.r.r.r.r.r.",
"r.r.r.r.r.r.r.r.r.r.r.r.r.r.r.r.r.r.r.r.r.r.r.r.r.r.r.r.r.r.r.r.r.r.r.r.r.r.r.r.r.r.r.r.r.r.r.r.r.r.r.r.r.r.r.r.r.r.r.r.r.r.r.r."
};
