/* XPM */
static char *result[] = {
/* columns rows colors chars-per-pixel */
"64 64 123 2 ",
"   c #090804",
".  c #141624",
"X  c #161824",
"o  c #191922",
"O  c #1B1E2B",
"+  c #1C1E39",
"@  c #1E212F",
"#  c #2B2A26",
"$  c #2D2C29",
"%  c #333334",
"&  c #252842",
"*  c #323751",
"=  c #373C56",
"-  c #3A3F74",
";  c #3D4276",
":  c #474856",
">  c #404579",
",  c #585A7E",
"<  c #3C4286",
"1  c #3F4488",
"2  c #464B8C",
"3  c #494E8E",
"4  c #4E5584",
"5  c #545B8D",
"6  c #595F8E",
"7  c #474D90",
"8  c #484E90",
"9  c #4D5293",
"0  c #4F5698",
"q  c #545B97",
"w  c #545B9C",
"e  c #5A619F",
"r  c #5F689B",
"t  c #62669D",
"y  c #63699E",
"u  c #565EA0",
"i  c #585FA0",
"p  c #5E66A6",
"a  c #5F67A8",
"s  c #5F68A8",
"d  c #656BA4",
"f  c #686DA1",
"g  c #636BAA",
"h  c #686FAB",
"j  c #6C72A5",
"k  c #6770AF",
"l  c #6C73AB",
"z  c #7276A7",
"x  c #7276A9",
"c  c #747AAD",
"v  c #666FB0",
"b  c #6770B0",
"n  c #6B74B2",
"m  c #6F79B8",
"M  c #747EB5",
"N  c #727CBB",
"B  c #7C82B4",
"V  c #7680BE",
"C  c #7C85BD",
"Z  c #7682C2",
"A  c #7A85C5",
"S  c #7A86C8",
"D  c #7D89C9",
"F  c #959590",
"G  c #8287B8",
"H  c #838BBE",
"J  c #888EBD",
"K  c #8E91BA",
"L  c #9093BA",
"P  c #A5A6AF",
"I  c #ABACBA",
"U  c #828CC5",
"Y  c #888FC1",
"T  c #818ECB",
"R  c #8E95C4",
"E  c #8390CF",
"W  c #8E97CB",
"Q  c #9097C5",
"!  c #9298C6",
"~  c #9B9EC1",
"^  c #939BCD",
"/  c #828FD1",
"(  c #8592D2",
")  c #8996D5",
"_  c #8E9CDA",
"`  c #919FDE",
"'  c #92A0DF",
"]  c #9BA6DA",
"[  c #9EA8DC",
"{  c #ADAFCC",
"}  c #B1B3CE",
"|  c #A6ABD0",
" . c #A9AED3",
".. c #A1AADA",
"X. c #B3B5D0",
"o. c #B6B9D4",
"O. c #B9BCD7",
"+. c #BBBDD9",
"@. c #93A1E1",
"#. c #A5B1E4",
"$. c #ACB7E7",
"%. c #ADB8E7",
"&. c #AEB9E8",
"*. c #BEC2DD",
"=. c #BDC6EC",
"-. c #BFC8ED",
";. c #C1C5DF",
":. c #C8CDE7",
">. c #C0C8ED",
",. c #CACFEA",
"<. c #CED4EE",
"1. c #D5D6E4",
"2. c #D7D8E6",
"3. c #D9DAE7",
"4. c #DBDDEB",
"5. c #DEE0EE",
"6. c #E2E3EF",
"7. c #E3E5F1",
"8. c #E7EAF8",
"9. c #E9ECF9",
"0. c #F6F7FB",
"q. c #FFFFFF",
"w. c #11498E",
/* pixels */
"w.w.w.w.w.w.w.w.w.w.w.w.w.w.w.w.w.w.w.w.w.w.w.w.w.w.w.w.w.w.w.w.w.w.w.w.w.w.w.w.w.w.w.w.w.w.w.w.w.w.w.w.w.w.w.w.w.w.w.w.w.w.w.w.",
"w.w.w.w.w.w.w.w.w.w.w.w.w.w.w.w.w.w.w.w.w.w.w.w.w.w.w.w.w.w.w.w.w.w.w.w.w.w.w.w.w.w.w.w.w.w.w.w.w.w.w.w.w.w.w.w.w.w.w.w.w.w.w.w.",
"w.w.w.w.w.w.w.w.w.w.w.w.w.w.w.w.w.w.w.w.w.w.w.w.w.w.w.w.w.w.w.w.w.w.w.w.w.w.w.w.w.w.w.w.w.w.w.w.w.w.w.w.w.w.w.w.w.w.w.w.w.w.w.w.",
"w.w.w.w.w.w.w.w.w.w.w.w.w.w.w.w.w.w.w.w.w.w.w.w.w.w.w.w.w.w.w.w.w.w.w.w.w.w.w.w.w.w.w.w.w.w.w.w.w.w.w.w.w.w.w.w.w.w.w.w.w.w.w.w.",
"w.w.w.w.w.w.w.w.w.w.w.w.w.w.w.w.w.w.w.w.w.w.w.w.w.w.w.w.w.w.w.w.w.w.w.w.w.w.w.w.w.w.w.w.w.w.w.w.w.w.w.w.w.w.w.w.w.w.w.w.w.w.w.w.",
"w.w.w.w.w.w.w.w.w.w.w.w.w.w.w.w.w.w.w.w.w.w.w.w.w.w.w.w.w.w.w.w.w.w.w.w.w.w.w.w.w.w.w.w.w.w.w.w.w.w.w.w.w.w.w.w.w.w.w.w.w.w.w.w.",
"w.w.w.w.w.w.w.w.w.w.w.w.w.w.w.w.w.w.w.w.w.w.w.w.w.w.w.w.w.w.w.w.w.w.w.w.w.w.w.w.w.w.w.w.w.w.w.w.w.w.w.w.w.w.w.w.w.w.w.w.w.w.w.w.",
"w.w.w.w.w.w.w.w.w.w.w.w.w.w.w.w.w.w.w.w.w.w.w.w.w.w.w.w.w.w.w.w.w.w.w.w.w.w.w.w.w.w.w.w.w.w.w.w.w.w.w.w.w.w.w.w.w.w.w.w.w.w.w.w.",
"w.w.w.w.w.w.w.w.w.w.w.w.w.w.w.w.w.w.w.w.w.w.w.w.w.w.w.w.w.w.w.w.w.w.w.w.w.w.w.w.w.w.w.w.w.w.w.w.w.w.w.w.w.w.w.w.w.w.w.w.w.w.w.w.",
"w.w.w.w.w.w.w.w.w.w.w.w.w.w.w.w.w.w.w.w.w.w.w.w.w.w.w.w.w.w.w.w.w.w.w.w.w.w.w.w.w.w.w.w.w.w.w.w.w.w.w.w.w.w.w.w.w.w.w.w.w.w.w.w.",
"w.w.w.w.w.w.w.w.w.w.w.w.w.w.w.w.w.w.w.w.w.w.w.w.w.w.w.w.w.w.w.w.q.q.w.w.w.w.w.w.w.w.w.w.w.w.w.w.w.w.w.w.w.w.w.w.w.w.w.w.w.w.w.w.",
"w.w.w.w.w.w.w.w.w.w.w.w.w.w.w.w.w.w.w.w.w.w.w.w.w.w.w.w.w.w.w.w.q.q.w.w.w.w.w.w.w.w.w.w.w.w.w.w.w.w.w.w.w.w.w.w.w.w.w.w.w.w.w.w.",
"w.w.w.w.w.w.w.w.w.w.w.w.w.w.w.w.w.w.w.w.w.w.w.w.w.w.w.w.w.w.w.w.q.q.q.q.w.w.w.w.w.w.w.w.w.w.w.w.w.w.w.w.w.w.w.w.w.w.w.w.w.w.w.w.",
"w.w.w.w.w.w.w.w.w.w.w.w.w.w.w.w.w.w.w.w.w.w.w.w.w.w.w.w.w.w.w.w.q.0.9.8.w.w.w.w.w.w.w.w.w.w.w.w.w.w.w.w.w.w.w.w.w.w.w.w.w.w.w.w.",
"w.w.w.w.w.w.w.w.w.w.w.w.w.w.w.w.w.w.w.w.w.w.w.w.w.w.w.w.w.w.w.w.q.9.-.=.8.q.w.w.w.w.w.w.w.w.w.w.w.w.w.w.w.w.w.w.w.w.w.w.w.w.w.w.",
"w.w.w.w.w.w.w.w.w.w.w.w.w.w.w.w.w.w.w.w.w.w.w.w.w.w.w.w.w.w.w.w.q.7...] <.9.w.w.w.w.w.w.w.w.w.w.w.w.w.w.w.w.w.w.w.w.w.w.w.w.w.w.",
"w.w.w.w.w.w.w.w.w.w.w.w.w.w.w.w.w.w.w.w.w.w.w.w.w.w.w.w.w.w.w.w.q.4.^ S ] >.9.q.w.w.w.w.w.w.w.w.w.w.w.w.w.w.w.w.w.w.w.w.w.w.w.w.",
"w.w.w.w.w.w.w.w.w.w.w.w.w.w.w.w.w.w.w.w.w.w.w.w.w.w.w.w.w.w.w.w.q.4.Q n S [ <.9.w.w.w.w.w.w.w.w.w.w.w.w.w.w.w.w.w.w.w.w.w.w.w.w.",
"w.w.w.w.w.w.w.w.w.w.w.w.w.w.w.w.w.w.w.w.w.w.w.w.w.w.w.w.w.w.w.w.q.4.Q n n T [ >.9.q.w.w.w.w.w.w.w.w.w.w.w.w.w.w.w.w.w.w.w.w.w.w.",
"w.w.w.w.w.w.w.w.w.w.w.w.w.w.w.w.w.w.w.w.w.w.w.w.w.w.w.w.w.w.w.w.q.5.! h k N D ] <.9.w.w.w.w.w.w.w.w.w.w.w.w.w.w.w.w.w.w.w.w.w.w.",
"w.w.w.w.w.w.w.w.w.w.w.w.w.w.w.w.w.w.w.w.w.w.w.w.w.w.w.w.w.w.w.w.q.6.! n n n N D [ =.9.q.q.q.q.q.w.w.w.w.w.w.w.w.w.w.w.w.w.w.w.w.",
"w.w.w.w.w.w.w.w.w.w.w.w.w.w.w.w.w.w.w.w.w.w.w.w.w.w.w.w.w.w.w.w.3.o.B s k n k M D [ <.8.8.8.8.8.w.w.w.w.w.w.w.w.w.w.w.w.w.w.w.w.",
"w.w.w.w.w.w.q.q.q.q.w.w.w.w.w.w.w.w.w.w.w.w.w.w.w.w.w.w.q.q.q.4.K d q w g n n n m T ..&.$.$.$.=.9.q.q.q.w.w.w.w.w.w.w.w.w.w.w.w.",
"w.w.w.w.w.w.q.0.7.5.w.w.w.w.w.w.w.w.w.w.w.w.w.w.w.w.w.w.2.1.2.} j 7 9 w g n n n k m D ) ( ( / ] <.8.8.8.w.w.w.w.w.w.w.w.w.w.w.w.",
"w.w.w.w.w.w.q.7. .| 4.q.w.w.w.w.w.w.w.w.w.w.w.w.q.q.q.4.L z z l d g g g k n n n n n N N N N N U [ $.$.=.9.q.q.q.w.w.w.w.w.w.w.w.",
"w.w.w.w.w.w.q.4.R R 4.q.w.w.w.w.w.w.w.w.w.w.w.w.2.1.1.} j 7 7 w g n n n n n n n n n n n n n n N D ( ( ] <.8.8.8.w.w.w.w.w.w.w.w.",
"w.w.w.w.w.w.q.4.R R 4.q.w.w.w.w.w.w.w.w.q.q.q.2.K z z z g a a h n n n n n n n n n n n n k n n n N N N U [ %.$.=.9.q.w.w.w.w.w.w.",
"w.w.w.w.w.w.q.4.R H o.2.w.w.w.w.w.w.w.w.2.1.1.X.j 7 3 w h n n n n n n n h g k n n n n n n k g h k n k N D ( ( [ <.9.w.w.w.w.w.w.",
"w.w.w.w.w.w.q.4.R h j L 4.q.w.w.w.w.q.3.L z z z g p g g k n n n n n n g w w g n n n n n n g w w h n n n m N N U [ >.9.q.w.w.w.w.",
"w.w.w.w.w.w.q.5.W p 9 h X.3.w.w.w.w.4.X.j 7 7 w g n n n n n n l h g b g 9 0 d n n n n n n p > ; q g n n n k k m D [ <.9.w.w.w.w.",
"w.w.w.w.w.w.q.4.R g a d h L 3.q.q.3.L j d g p g n n n n n n n g w w h g 0 9 g n n n n n m 5 & + ; w g n n n n n m U [ >.9.q.w.w.",
"w.w.w.w.w.w.q.5.| U M g 0 j O.6.7.O.j 0 g n n n n n n n n n n g 9 9 d g 9 9 g n n n n n M 4 X X , c k g k n n n n m D ] :.6.w.w.",
"w.w.w.w.w.w.w.w.6.>.Y h g n H ! ! U l g k n n n n n n n n n n g 9 9 g d 9 9 g n n n n m m 4 . % P +.l w g n n n n n m V Y | 5.q.",
"w.w.w.w.w.w.w.w.q.5.! g g g v h n n n n n n n n n n n n n n n g w w h g w w h n n n n n b , . $ F I j 0 s n n n n n n k k Q 4.q.",
"w.w.w.w.w.w.w.w.q.4.Q g q w g n n n n n n n n n n n n n n n n h h g n k g g b n n n n n n 4 .   # : 6 g b n n k k n k k b R 4.q.",
"w.w.w.w.w.w.w.w.q.4.Q g 9 7 p d p p p g h n n n n n n n n n n n n m n n n n n n n k n m Z r = @ @ * r Z V V V V V V V m g J 4.q.",
"w.w.w.w.w.w.w.w.q.4.! p 9 2 8 9 9 9 7 w p n n n n n n n n n n n n n n n n n n n k k k M D D B j j c D ) ) ) ) ) ) ) ) Z u c 1.q.",
"w.w.w.w.w.w.w.w.q.5.! p 7 9 y c z z z M R J k g g d b n n n n n n n n n n n N N V V V A _ ' @.@.@.@.@._ E D D S D T D Z c K 1.q.",
"w.w.w.w.w.w.w.w.q.5.! p 7 y } 1.1.1.1.3.4.O.l 7 7 w g n n n n n n n n n n M T ) ( ) ( ) _ @.' ' @.' @.( k w e e w w w c o.3.w.w.",
"w.w.w.w.w.w.w.w.5.*.J k j L 4.q.q.q.q.q.q.2.K z z z g h n n n n g g g g n S ) ` ' ' ' ' ' ' ` ' ' _ D Z s w w w q p f L 4.q.w.w.",
"w.w.w.w.w.w.q.5.| C n H O.4.w.w.w.w.w.w.w.w.1.1.3.o.z q h n n g 0 7 7 p Z ) ` ` @.` ' ` ' ` ` ' ' / g a N D S A S ^ *.3.w.w.w.w.",
"w.w.w.w.w.w.q.7.| R R | 6.q.w.w.w.w.w.w.w.w.q.q.7.} y 3 u g g d z z z G ..#._ ( ( ( ( ( ( ( ( ( ( Z i u Z ` #.$.&.=.9.q.w.w.w.w.",
"w.w.w.w.q.q.q.0.7.4.4.6.w.w.w.w.w.w.w.w.w.w.q.6.L f 9 3 7 7 7 l } 1.1.4.7.:.W m m m m N N N N N N n g g n ^ <.8.8.9.w.w.w.w.w.w.",
"w.w.w.w.q.q.q.q.q.q.q.q.w.w.w.w.w.w.w.w.w.w.3.{ t < 2 9 f z z L 4.q.q.q.q.5.| R Q Q R R R R R Q Q Q Q Q R | 6.q.q.q.w.w.w.w.w.w.",
"w.w.w.w.w.w.w.w.w.w.w.w.w.w.w.w.w.w.w.w.q.3.K t 3 < < y } 1.1.2.w.w.w.w.w.w.5.4.4.5.4.4.4.5.4.4.4.4.5.4.4.5.w.w.w.w.w.w.w.w.w.w.",
"w.w.w.w.w.w.w.w.w.w.w.w.w.w.w.w.w.w.w.w.q.1.K j z z z K 4.q.q.q.w.w.w.w.w.w.q.q.q.q.q.q.q.q.q.q.q.q.q.q.q.q.w.w.w.w.w.w.w.w.w.w.",
"w.w.w.w.w.w.w.w.w.w.w.w.w.w.w.w.w.w.w.w.w.w.1.1.1.1.1.2.w.w.w.w.w.w.w.w.w.w.w.w.w.w.w.w.w.w.w.w.w.w.w.w.w.w.w.w.w.w.w.w.w.w.w.w.",
"w.w.w.w.w.w.w.w.w.w.w.w.w.w.w.w.w.w.w.w.w.w.q.q.q.q.q.q.w.w.w.w.w.w.w.w.w.w.w.w.w.w.w.w.w.w.w.w.w.w.w.w.w.w.w.w.w.w.w.w.w.w.w.w.",
"w.w.w.w.w.w.w.w.w.w.w.w.w.w.w.w.w.w.w.w.w.w.w.w.w.w.w.w.w.w.w.w.w.w.w.w.w.w.w.w.w.w.w.w.w.w.w.w.w.w.w.w.w.w.w.w.w.w.w.w.w.w.w.w.",
"w.w.w.w.w.w.w.w.w.w.w.w.w.w.w.w.w.w.w.w.w.w.w.w.w.w.w.w.w.w.w.w.w.w.w.w.w.w.w.w.w.w.w.w.w.w.w.w.w.w.w.w.w.w.w.w.w.w.w.w.w.w.w.w.",
"w.w.w.w.w.w.w.w.w.w.w.w.w.w.w.w.w.w.w.w.w.w.w.w.w.w.w.w.w.w.w.w.w.w.w.w.w.w.w.w.w.w.w.w.w.w.w.w.w.w.w.w.w.w.w.w.w.w.w.w.w.w.w.w.",
"w.w.w.w.w.w.w.w.w.w.w.w.w.w.w.w.w.w.w.w.w.w.w.w.w.w.w.w.w.w.w.w.w.w.w.w.w.w.w.w.w.w.w.w.w.w.w.w.w.w.w.w.w.w.w.w.w.w.w.w.w.w.w.w.",
"w.w.w.w.w.w.w.w.w.w.w.w.w.w.w.w.w.w.w.w.w.w.w.w.w.w.w.w.w.w.w.w.w.w.w.w.w.w.w.w.w.w.w.w.w.w.w.w.w.w.w.w.w.w.w.w.w.w.w.w.w.w.w.w.",
"w.w.w.w.w.w.w.w.w.w.w.w.w.w.w.w.w.w.w.w.w.w.w.w.w.w.w.w.w.w.w.w.w.w.w.w.w.w.w.w.w.w.w.w.w.w.w.w.w.w.w.w.w.w.w.w.w.w.w.w.w.w.w.w.",
"w.w.w.w.w.w.w.w.w.w.w.w.w.w.w.w.w.w.w.w.w.w.w.w.w.w.w.w.w.w.w.w.w.w.w.w.w.w.w.w.w.w.w.w.w.w.w.w.w.w.w.w.w.w.w.w.w.w.w.w.w.w.w.w.",
"w.w.w.w.w.w.w.w.w.w.w.w.w.w.w.w.w.w.w.w.w.w.w.w.w.w.w.w.w.w.w.w.w.w.w.w.w.w.w.w.w.w.w.w.w.w.w.w.w.w.w.w.w.w.w.w.w.w.w.w.w.w.w.w.",
"w.w.w.w.w.w.w.w.w.w.w.w.w.w.w.w.w.w.w.w.w.w.w.w.w.w.w.w.w.w.w.w.w.w.w.w.w.w.w.w.w.w.w.w.w.w.w.w.w.w.w.w.w.w.w.w.w.w.w.w.w.w.w.w.",
"w.w.w.w.w.w.w.w.w.w.w.w.w.w.w.w.w.w.w.w.w.w.w.w.w.w.w.w.w.w.w.w.w.w.w.w.w.w.w.w.w.w.w.w.w.w.w.w.w.w.w.w.w.w.w.w.w.w.w.w.w.w.w.w.",
"w.w.w.w.w.w.w.w.w.w.w.w.w.w.w.w.w.w.w.w.w.w.w.w.w.w.w.w.w.w.w.w.w.w.w.w.w.w.w.w.w.w.w.w.w.w.w.w.w.w.w.w.w.w.w.w.w.w.w.w.w.w.w.w.",
"w.w.w.w.w.w.w.w.w.w.w.w.w.w.w.w.w.w.w.w.w.w.w.w.w.w.w.w.w.w.w.w.w.w.w.w.w.w.w.w.w.w.w.w.w.w.w.w.w.w.w.w.w.w.w.w.w.w.w.w.w.w.w.w.",
"w.w.w.w.w.w.w.w.w.w.w.w.w.w.w.w.w.w.w.w.w.w.w.w.w.w.w.w.w.w.w.w.w.w.w.w.w.w.w.w.w.w.w.w.w.w.w.w.w.w.w.w.w.w.w.w.w.w.w.w.w.w.w.w.",
"w.w.w.w.w.w.w.w.w.w.w.w.w.w.w.w.w.w.w.w.w.w.w.w.w.w.w.w.w.w.w.w.w.w.w.w.w.w.w.w.w.w.w.w.w.w.w.w.w.w.w.w.w.w.w.w.w.w.w.w.w.w.w.w.",
"w.w.w.w.w.w.w.w.w.w.w.w.w.w.w.w.w.w.w.w.w.w.w.w.w.w.w.w.w.w.w.w.w.w.w.w.w.w.w.w.w.w.w.w.w.w.w.w.w.w.w.w.w.w.w.w.w.w.w.w.w.w.w.w.",
"w.w.w.w.w.w.w.w.w.w.w.w.w.w.w.w.w.w.w.w.w.w.w.w.w.w.w.w.w.w.w.w.w.w.w.w.w.w.w.w.w.w.w.w.w.w.w.w.w.w.w.w.w.w.w.w.w.w.w.w.w.w.w.w."
};
