/* XPM */
static char *result[] = {
/* columns rows colors chars-per-pixel */
"64 64 123 2 ",
"   c #090804",
".  c #141624",
"X  c #161824",
"o  c #191922",
"O  c #1B1E2B",
"+  c #1C1E39",
"@  c #1E212F",
"#  c #2B2A26",
"$  c #2D2C29",
"%  c #333334",
"&  c #252842",
"*  c #323751",
"=  c #373C56",
"-  c #3A3F74",
";  c #3D4276",
":  c #474856",
">  c #404579",
",  c #585A7E",
"<  c #3C4286",
"1  c #3F4488",
"2  c #464B8C",
"3  c #494E8E",
"4  c #4E5584",
"5  c #545B8D",
"6  c #595F8E",
"7  c #474D90",
"8  c #484E90",
"9  c #4D5293",
"0  c #4F5698",
"q  c #545B97",
"w  c #545B9C",
"e  c #5A619F",
"r  c #5F689B",
"t  c #62669D",
"y  c #63699E",
"u  c #565EA0",
"i  c #585FA0",
"p  c #5E66A6",
"a  c #5F67A8",
"s  c #5F68A8",
"d  c #656BA4",
"f  c #686DA1",
"g  c #636BAA",
"h  c #686FAB",
"j  c #6C72A5",
"k  c #6770AF",
"l  c #6C73AB",
"z  c #7276A7",
"x  c #7276A9",
"c  c #747AAD",
"v  c #666FB0",
"b  c #6770B0",
"n  c #6B74B2",
"m  c #6F79B8",
"M  c #747EB5",
"N  c #727CBB",
"B  c #7C82B4",
"V  c #7680BE",
"C  c #7C85BD",
"Z  c #7682C2",
"A  c #7A85C5",
"S  c #7A86C8",
"D  c #7D89C9",
"F  c #959590",
"G  c #8287B8",
"H  c #838BBE",
"J  c #888EBD",
"K  c #8E91BA",
"L  c #9093BA",
"P  c #A5A6AF",
"I  c #ABACBA",
"U  c #828CC5",
"Y  c #888FC1",
"T  c #818ECB",
"R  c #8E95C4",
"E  c #8390CF",
"W  c #8E97CB",
"Q  c #9097C5",
"!  c #9298C6",
"~  c #9B9EC1",
"^  c #939BCD",
"/  c #828FD1",
"(  c #8592D2",
")  c #8996D5",
"_  c #8E9CDA",
"`  c #919FDE",
"'  c #92A0DF",
"]  c #9BA6DA",
"[  c #9EA8DC",
"{  c #ADAFCC",
"}  c #B1B3CE",
"|  c #A5ABD0",
" . c #A9AED3",
".. c #A1AADA",
"X. c #B3B5D0",
"o. c #B6B9D4",
"O. c #B9BCD7",
"+. c #BBBDD9",
"@. c #93A1E1",
"#. c #A5B1E4",
"$. c #ACB7E7",
"%. c #ADB8E7",
"&. c #AEB9E8",
"*. c #BEC2DD",
"=. c #BDC6EC",
"-. c #BFC8ED",
";. c #C1C5DF",
":. c #C8CDE7",
">. c #C0C8ED",
",. c #CACFEA",
"<. c #CED4EE",
"1. c #D5D6E5",
"2. c #D7D8E6",
"3. c #D9DAE6",
"4. c #DBDDEB",
"5. c #DEE0EE",
"6. c #E2E3EF",
"7. c #E3E5F1",
"8. c #E7EAF8",
"9. c #EAECF9",
"0. c #F6F7FB",
"q. c #FFFFFF",
"w. c #11498E",
/* pixels */
"w.w.w.w.w.w.w.w.w.w.w.w.w.w.w.w.w.w.w.w.w.w.w.w.w.w.w.w.w.w.w.w.w.w.w.w.w.w.w.w.w.w.w.w.w.w.w.w.w.w.w.w.w.w.w.w.w.w.w.w.w.w.w.w.",
"w.w.w.w.w.w.w.w.w.w.w.w.w.w.w.w.w.w.w.w.w.w.w.w.w.w.w.w.w.w.w.w.w.w.w.w.w.w.w.w.w.w.w.w.w.w.w.w.w.w.w.w.w.w.w.w.w.w.w.w.w.w.w.w.",
"w.w.w.w.w.w.w.w.w.w.w.w.w.w.w.w.w.w.w.w.w.w.w.w.w.w.w.w.w.w.w.w.w.w.w.w.w.w.w.w.w.w.w.w.w.w.w.w.w.w.w.w.w.w.w.w.w.w.w.w.w.w.w.w.",
"w.w.w.w.w.w.w.w.w.w.w.w.w.w.w.w.w.w.w.w.w.w.w.w.w.w.w.w.w.w.w.w.w.w.w.w.w.w.w.w.w.w.w.w.w.w.w.w.w.w.w.w.w.w.w.w.w.w.w.w.w.w.w.w.",
"w.w.w.w.w.w.w.w.w.w.w.w.w.w.w.w.w.w.w.w.w.w.w.w.w.w.w.w.w.w.w.w.w.w.w.w.w.w.w.w.w.w.w.w.w.w.w.w.w.w.w.w.w.w.w.w.w.w.w.w.w.w.w.w.",
"w.w.w.w.w.w.w.w.w.w.w.w.w.w.w.w.w.w.w.w.w.w.w.w.w.w.w.w.w.w.w.w.w.w.w.w.w.w.w.w.w.w.w.w.w.w.w.w.w.w.w.w.w.w.w.w.w.w.w.w.w.w.w.w.",
"w.w.w.w.w.w.w.w.w.w.w.w.w.w.w.w.w.w.w.w.w.w.w.w.w.w.w.w.w.w.w.w.w.w.w.w.w.w.w.w.w.w.w.w.w.w.w.w.w.w.w.w.w.w.w.w.w.w.w.w.w.w.w.w.",
"w.w.w.w.w.w.w.w.w.w.w.w.w.w.w.w.w.w.w.w.w.w.w.w.w.w.w.w.w.w.w.w.w.w.w.w.w.w.w.w.w.w.w.w.w.w.w.w.w.w.w.w.w.w.w.w.w.w.w.w.w.w.w.w.",
"w.w.w.w.w.w.w.w.w.w.w.w.w.w.w.w.w.w.w.w.w.w.w.w.w.w.w.w.w.w.w.w.w.w.w.w.w.w.w.w.w.w.w.w.w.w.w.w.w.w.w.w.w.w.w.w.w.w.w.w.w.w.w.w.",
"w.w.w.w.w.w.w.w.w.w.w.w.w.w.w.w.w.w.w.w.w.w.w.w.w.w.w.w.w.w.w.w.w.w.w.w.w.w.w.w.w.w.w.w.w.w.w.w.w.w.w.w.w.w.w.w.w.w.w.w.w.w.w.w.",
"w.w.w.w.w.w.w.w.w.w.w.w.w.w.w.w.w.w.w.w.w.w.w.w.w.w.w.w.w.w.q.q.w.w.w.w.w.w.w.w.w.w.w.w.w.w.w.w.w.w.w.w.w.w.w.w.w.w.w.w.w.w.w.w.",
"w.w.w.w.w.w.w.w.w.w.w.w.w.w.w.w.w.w.w.w.w.w.w.w.w.w.w.w.w.w.q.q.w.w.w.w.w.w.w.w.w.w.w.w.w.w.w.w.w.w.w.w.w.w.w.w.w.w.w.w.w.w.w.w.",
"w.w.w.w.w.w.w.w.w.w.w.w.w.w.w.w.w.w.w.w.w.w.w.w.w.w.w.w.q.q.q.q.w.w.w.w.w.w.w.w.w.w.w.w.w.w.w.w.w.w.w.w.w.w.w.w.w.w.w.w.w.w.w.w.",
"w.w.w.w.w.w.w.w.w.w.w.w.w.w.w.w.w.w.w.w.w.w.w.w.w.w.w.w.8.9.0.q.w.w.w.w.w.w.w.w.w.w.w.w.w.w.w.w.w.w.w.w.w.w.w.w.w.w.w.w.w.w.w.w.",
"w.w.w.w.w.w.w.w.w.w.w.w.w.w.w.w.w.w.w.w.w.w.w.w.w.w.q.9.=.-.9.q.w.w.w.w.w.w.w.w.w.w.w.w.w.w.w.w.w.w.w.w.w.w.w.w.w.w.w.w.w.w.w.w.",
"w.w.w.w.w.w.w.w.w.w.w.w.w.w.w.w.w.w.w.w.w.w.w.w.w.w.9.<.] ..7.q.w.w.w.w.w.w.w.w.w.w.w.w.w.w.w.w.w.w.w.w.w.w.w.w.w.w.w.w.w.w.w.w.",
"w.w.w.w.w.w.w.w.w.w.w.w.w.w.w.w.w.w.w.w.w.w.w.w.q.9.>.] D ^ 4.q.w.w.w.w.w.w.w.w.w.w.w.w.w.w.w.w.w.w.w.w.w.w.w.w.w.w.w.w.w.w.w.w.",
"w.w.w.w.w.w.w.w.w.w.w.w.w.w.w.w.w.w.w.w.w.w.w.w.9.<.[ S m Q 4.q.w.w.w.w.w.w.w.w.w.w.w.w.w.w.w.w.w.w.w.w.w.w.w.w.w.w.w.w.w.w.w.w.",
"w.w.w.w.w.w.w.w.w.w.w.w.w.w.w.w.w.w.w.w.w.w.q.9.>.[ D m h Q 4.q.w.w.w.w.w.w.w.w.w.w.w.w.w.w.w.w.w.w.w.w.w.w.w.w.w.w.w.w.w.w.w.w.",
"w.w.w.w.w.w.w.w.w.w.w.w.w.w.w.w.w.w.w.w.w.w.9.<.] S m h v ! 5.q.w.w.w.w.w.w.w.w.w.w.w.w.w.w.w.w.w.w.w.w.w.w.w.w.w.w.w.w.w.w.w.w.",
"w.w.w.w.w.w.w.w.w.w.w.w.w.w.w.w.q.q.q.q.q.9.-.[ D m n n b ! 6.q.w.w.w.w.w.w.w.w.w.w.w.w.w.w.w.w.w.w.w.w.w.w.w.w.w.w.w.w.w.w.w.w.",
"w.w.w.w.w.w.w.w.w.w.w.w.w.w.w.w.8.8.8.8.9.<.[ D M n n h g B o.3.w.w.w.w.w.w.w.w.w.w.w.w.w.w.w.w.w.w.w.w.w.w.w.w.w.w.w.w.w.w.w.w.",
"w.w.w.w.w.w.w.w.w.w.w.w.q.q.q.9.=.$.$.&.&.[ U m n n n g w w d L 3.q.q.q.w.w.w.w.w.w.w.w.w.w.w.w.w.w.w.w.w.w.q.q.q.q.w.w.w.w.w.w.",
"w.w.w.w.w.w.w.w.w.w.w.w.9.8.9.<.] / ( ( ( D m n n n n g w 8 8 f } 2.2.2.w.w.w.w.w.w.w.w.w.w.w.w.w.w.w.w.w.w.5.7.0.q.w.w.w.w.w.w.",
"w.w.w.w.w.w.w.w.q.q.q.9.=.$.%.[ D m N N N N m k n n n k h g p d l z z L 4.q.q.q.w.w.w.w.w.w.w.w.w.w.w.w.q.4.|  .7.q.w.w.w.w.w.w.",
"w.w.w.w.w.w.w.w.9.8.8.<.] / ( D M n n n l n n n n n n n n n m g w 3 7 j } 2.1.2.w.w.w.w.w.w.w.w.w.w.w.w.q.4.R U 4.q.w.w.w.w.w.w.",
"w.w.w.w.w.w.q.9.-.$.$.[ U N N N m n n n n n n n n n n n m n n k g d a g z z z K 3.q.q.q.w.w.w.w.w.w.w.w.q.4.R R 4.q.w.w.w.w.w.w.",
"w.w.w.w.w.w.9.<.] ( ( D N k k n g g h n n n n n n n g g l n n n n n n g 0 8 2 j } 2.2.2.w.w.w.w.w.w.w.w.4.O.H R 4.q.w.w.w.w.w.w.",
"w.w.w.w.q.9.-.[ U N N m n n n g w u g n n n n n n g e w h m n m n n m b g p d g l z z L 3.q.w.w.w.w.q.4.K l h Q 4.q.w.w.w.w.w.w.",
"w.w.w.w.9.<.[ D m n n n n n g q ; > e n n n n n n g 9 9 d k g g h n n n m n m g q 7 7 j } 4.w.w.w.w.3.} j 9 p R 5.q.w.w.w.w.w.w.",
"w.w.q.9.>.[ U m n b n n n g w - + & 5 m m n n n n d 9 9 g g w w g m n n n n n h g p a d j L 3.q.q.3.L j d a g Q 4.q.w.w.w.w.w.w.",
"w.w.6.:.] D m n n n n h g h M , o X 4 m n n n n n g 9 9 g g 9 9 d n n n n n n n m n n g 0 z O.7.6.O.l 0 g M U | 5.q.w.w.w.w.w.w.",
"q.6. .U C N n k n n n g q l O.P % . 4 m n n n n n g 9 9 g g 9 9 g n n n n n n n n n n b g k Y ! ! H n g g Y >.6.w.w.w.w.w.w.w.w.",
"q.4.R v h n n n n n n g q j I F # . 4 m m n n n n g w w g g w w g n n n n n n n n n n n n n b b b b g g h ! 5.q.w.w.w.w.w.w.w.w.",
"q.4.R v v n n n b n n n g 6 : #   . 4 n n n n n n k g g l n g g b n n n n n n n n n n n n n n n n g w q g ! 5.q.w.w.w.w.w.w.w.w.",
"q.4.J g m N V N N N N Z Z r * @ @ = y N m n n n n n m n n n n n n n n n n n n n n n n h g d a s s w 9 9 p ! 4.q.w.w.w.w.w.w.w.w.",
"q.1.c w Z ) _ ) ) ) ) ) ) T c j j B D D N k l n n n n n n n n n n n n n n n m n m n n g 0 9 8 9 9 7 2 9 d R 4.q.w.w.w.w.w.w.w.w.",
"q.2.L c Z D D D D T D T _ @.@.@.@.@.' _ A N V N V M n n n n m n n n n n n h g p a l H J B z z z c f 9 8 a ! 5.q.w.w.w.w.w.w.w.w.",
"w.w.4.o.c q w u w w w v ( @.@.@.' ' ' _ ) ( ( ) ( T N n n n n n n n n n m g q 7 3 j +.4.2.1.1.2.2.} y 7 p ! 5.q.w.w.w.w.w.w.w.w.",
"w.w.q.3.L d p u w w w g N T _ ` ' ' ' ' ' ' ' ' ' ) Z m g p d g h n m h g g z z z J 3.q.q.q.q.q.q.3.L j h U *.5.w.w.w.w.w.w.w.w.",
"w.w.w.w.3.*.^ S A S D N g g T @.' ' ' ' ' ' ' ' @._ ) Z p 2 8 w g m n g w z o.3.1.1.w.w.w.w.w.w.w.w.4.O.G n C | 5.q.w.w.w.w.w.w.",
"w.w.w.w.q.9.-.&.$.#.` Z u u Z ( ( E ( ( ( ( ( ( T _ #...G z z l g d g w 9 y } 6.q.q.w.w.w.w.w.w.w.w.q.7.| R R  .7.q.w.w.w.w.w.w.",
"w.w.w.w.w.w.9.8.9.<.W n g g m N M m m m m m m m m W <.7.4.1.1.X.h 8 8 7 2 9 f ~ 6.q.w.w.w.w.w.w.w.w.w.w.6.4.4.7.0.q.q.q.w.w.w.w.",
"w.w.w.w.w.w.q.q.q.7.| R R ! R R R R ! ! ! R ! R R | 5.q.q.q.q.2.L z z f 9 < < t { 3.w.w.w.w.w.w.w.w.w.w.q.q.q.q.q.q.q.q.w.w.w.w.",
"w.w.w.w.w.w.w.w.w.w.5.4.4.4.4.4.4.4.4.4.5.4.4.4.4.5.w.w.w.w.w.w.2.1.1.} y < < 3 t L 2.q.w.w.w.w.w.w.w.w.w.w.w.w.w.w.w.w.w.w.w.w.",
"w.w.w.w.w.w.w.w.w.w.q.q.q.q.q.q.q.q.q.q.q.q.q.q.q.q.w.w.w.w.w.w.q.q.q.4.L z z j z K 2.q.w.w.w.w.w.w.w.w.w.w.w.w.w.w.w.w.w.w.w.w.",
"w.w.w.w.w.w.w.w.w.w.w.w.w.w.w.w.w.w.w.w.w.w.w.w.w.w.w.w.w.w.w.w.w.w.w.w.2.1.1.1.1.1.w.w.w.w.w.w.w.w.w.w.w.w.w.w.w.w.w.w.w.w.w.w.",
"w.w.w.w.w.w.w.w.w.w.w.w.w.w.w.w.w.w.w.w.w.w.w.w.w.w.w.w.w.w.w.w.w.w.w.w.q.q.q.q.0.q.w.w.w.w.w.w.w.w.w.w.w.w.w.w.w.w.w.w.w.w.w.w.",
"w.w.w.w.w.w.w.w.w.w.w.w.w.w.w.w.w.w.w.w.w.w.w.w.w.w.w.w.w.w.w.w.w.w.w.w.w.w.w.w.w.w.w.w.w.w.w.w.w.w.w.w.w.w.w.w.w.w.w.w.w.w.w.w.",
"w.w.w.w.w.w.w.w.w.w.w.w.w.w.w.w.w.w.w.w.w.w.w.w.w.w.w.w.w.w.w.w.w.w.w.w.w.w.w.w.w.w.w.w.w.w.w.w.w.w.w.w.w.w.w.w.w.w.w.w.w.w.w.w.",
"w.w.w.w.w.w.w.w.w.w.w.w.w.w.w.w.w.w.w.w.w.w.w.w.w.w.w.w.w.w.w.w.w.w.w.w.w.w.w.w.w.w.w.w.w.w.w.w.w.w.w.w.w.w.w.w.w.w.w.w.w.w.w.w.",
"w.w.w.w.w.w.w.w.w.w.w.w.w.w.w.w.w.w.w.w.w.w.w.w.w.w.w.w.w.w.w.w.w.w.w.w.w.w.w.w.w.w.w.w.w.w.w.w.w.w.w.w.w.w.w.w.w.w.w.w.w.w.w.w.",
"w.w.w.w.w.w.w.w.w.w.w.w.w.w.w.w.w.w.w.w.w.w.w.w.w.w.w.w.w.w.w.w.w.w.w.w.w.w.w.w.w.w.w.w.w.w.w.w.w.w.w.w.w.w.w.w.w.w.w.w.w.w.w.w.",
"w.w.w.w.w.w.w.w.w.w.w.w.w.w.w.w.w.w.w.w.w.w.w.w.w.w.w.w.w.w.w.w.w.w.w.w.w.w.w.w.w.w.w.w.w.w.w.w.w.w.w.w.w.w.w.w.w.w.w.w.w.w.w.w.",
"w.w.w.w.w.w.w.w.w.w.w.w.w.w.w.w.w.w.w.w.w.w.w.w.w.w.w.w.w.w.w.w.w.w.w.w.w.w.w.w.w.w.w.w.w.w.w.w.w.w.w.w.w.w.w.w.w.w.w.w.w.w.w.w.",
"w.w.w.w.w.w.w.w.w.w.w.w.w.w.w.w.w.w.w.w.w.w.w.w.w.w.w.w.w.w.w.w.w.w.w.w.w.w.w.w.w.w.w.w.w.w.w.w.w.w.w.w.w.w.w.w.w.w.w.w.w.w.w.w.",
"w.w.w.w.w.w.w.w.w.w.w.w.w.w.w.w.w.w.w.w.w.w.w.w.w.w.w.w.w.w.w.w.w.w.w.w.w.w.w.w.w.w.w.w.w.w.w.w.w.w.w.w.w.w.w.w.w.w.w.w.w.w.w.w.",
"w.w.w.w.w.w.w.w.w.w.w.w.w.w.w.w.w.w.w.w.w.w.w.w.w.w.w.w.w.w.w.w.w.w.w.w.w.w.w.w.w.w.w.w.w.w.w.w.w.w.w.w.w.w.w.w.w.w.w.w.w.w.w.w.",
"w.w.w.w.w.w.w.w.w.w.w.w.w.w.w.w.w.w.w.w.w.w.w.w.w.w.w.w.w.w.w.w.w.w.w.w.w.w.w.w.w.w.w.w.w.w.w.w.w.w.w.w.w.w.w.w.w.w.w.w.w.w.w.w.",
"w.w.w.w.w.w.w.w.w.w.w.w.w.w.w.w.w.w.w.w.w.w.w.w.w.w.w.w.w.w.w.w.w.w.w.w.w.w.w.w.w.w.w.w.w.w.w.w.w.w.w.w.w.w.w.w.w.w.w.w.w.w.w.w.",
"w.w.w.w.w.w.w.w.w.w.w.w.w.w.w.w.w.w.w.w.w.w.w.w.w.w.w.w.w.w.w.w.w.w.w.w.w.w.w.w.w.w.w.w.w.w.w.w.w.w.w.w.w.w.w.w.w.w.w.w.w.w.w.w.",
"w.w.w.w.w.w.w.w.w.w.w.w.w.w.w.w.w.w.w.w.w.w.w.w.w.w.w.w.w.w.w.w.w.w.w.w.w.w.w.w.w.w.w.w.w.w.w.w.w.w.w.w.w.w.w.w.w.w.w.w.w.w.w.w.",
"w.w.w.w.w.w.w.w.w.w.w.w.w.w.w.w.w.w.w.w.w.w.w.w.w.w.w.w.w.w.w.w.w.w.w.w.w.w.w.w.w.w.w.w.w.w.w.w.w.w.w.w.w.w.w.w.w.w.w.w.w.w.w.w.",
"w.w.w.w.w.w.w.w.w.w.w.w.w.w.w.w.w.w.w.w.w.w.w.w.w.w.w.w.w.w.w.w.w.w.w.w.w.w.w.w.w.w.w.w.w.w.w.w.w.w.w.w.w.w.w.w.w.w.w.w.w.w.w.w."
};
