/* XPM */
static char *result[] = {
/* columns rows colors chars-per-pixel */
"64 64 125 2 ",
"   c #090804",
".  c #141624",
"X  c #161824",
"o  c #191922",
"O  c #1B1E2B",
"+  c #1C1E39",
"@  c #1E212F",
"#  c #2B2A26",
"$  c #2D2C29",
"%  c #333334",
"&  c #252842",
"*  c #323751",
"=  c #373C56",
"-  c #3A3F74",
";  c #3D4276",
":  c #474856",
">  c #404579",
",  c #585A7E",
"<  c #3D4286",
"1  c #3F4589",
"2  c #404587",
"3  c #404588",
"4  c #454B8D",
"5  c #494E8E",
"6  c #4E5584",
"7  c #545B8D",
"8  c #595F8E",
"9  c #474D90",
"0  c #484E90",
"q  c #4D5393",
"w  c #4F5698",
"e  c #535A97",
"r  c #545B9C",
"t  c #5A619F",
"y  c #5F689B",
"u  c #62669D",
"i  c #64699E",
"p  c #565EA0",
"a  c #585FA0",
"s  c #5E66A6",
"d  c #5F68A7",
"f  c #5F68A8",
"g  c #656BA4",
"h  c #686DA2",
"j  c #636BAA",
"k  c #686FAB",
"l  c #6D72A5",
"z  c #6770AF",
"x  c #6D73AB",
"c  c #7276A7",
"v  c #7377A9",
"b  c #747AAC",
"n  c #666FB0",
"m  c #6771B0",
"M  c #6B74B2",
"N  c #6F79B8",
"B  c #747FB3",
"V  c #7A7FB2",
"C  c #727CBB",
"Z  c #7D83B7",
"A  c #7680BE",
"S  c #7982BE",
"D  c #7682C2",
"F  c #7A85C5",
"G  c #7A86C8",
"H  c #7D89C9",
"J  c #959590",
"K  c #8187B9",
"L  c #858CBE",
"P  c #888EBD",
"I  c #8E91BA",
"U  c #9093BA",
"Y  c #9598BD",
"T  c #A5A6AF",
"R  c #ABACBA",
"E  c #818BC6",
"W  c #818ECB",
"Q  c #8F96C4",
"!  c #8390CF",
"~  c #8E97CB",
"^  c #9097C5",
"/  c #9198C6",
"(  c #9B9EC1",
")  c #939BCD",
"_  c #828FD1",
"`  c #8592D2",
"'  c #8996D5",
"]  c #8E9CDA",
"[  c #919FDE",
"{  c #92A0DF",
"}  c #9BA6DA",
"|  c #9EA8DC",
" . c #ADAFCC",
".. c #AEB0CC",
"X. c #B1B3CE",
"o. c #A6ACD1",
"O. c #A1AADA",
"+. c #B3B5D0",
"@. c #B6B8D4",
"#. c #BABDD7",
"$. c #BBBDD9",
"%. c #93A1E1",
"&. c #A5B1E4",
"*. c #ACB7E7",
"=. c #ADB8E7",
"-. c #AEB9E8",
";. c #BFC2DD",
":. c #BDC6EC",
">. c #BFC8ED",
",. c #C8CDE7",
"<. c #C0C8ED",
"1. c #CACFEA",
"2. c #CED4EE",
"3. c #D4D5E4",
"4. c #D7D8E6",
"5. c #D9DAE6",
"6. c #DBDDEB",
"7. c #DEE0EE",
"8. c #E2E3EF",
"9. c #E2E4F2",
"0. c #E7EAF8",
"q. c #EAECF9",
"w. c #F4F4F8",
"e. c #FFFFFF",
"r. c #11498E",
/* pixels */
"r.r.r.r.r.r.r.r.r.r.r.r.r.r.r.r.r.r.r.r.r.r.r.r.r.r.r.r.r.r.r.r.r.r.r.r.r.r.r.r.r.r.r.r.r.r.r.r.r.r.r.r.r.r.r.r.r.r.r.r.r.r.r.r.",
"r.r.r.r.r.r.r.r.r.r.r.r.r.r.r.r.r.r.r.r.r.r.r.r.r.r.r.r.r.r.r.r.r.r.r.r.r.r.r.r.r.r.r.r.r.r.r.r.r.r.r.r.r.r.r.r.r.r.r.r.r.r.r.r.",
"r.r.r.r.r.r.r.r.r.r.r.r.r.r.r.r.r.r.r.r.r.r.r.r.r.r.r.r.r.r.r.r.r.r.r.r.r.r.r.r.r.r.r.r.r.r.r.r.r.r.r.r.r.r.r.r.r.r.r.r.r.r.r.r.",
"r.r.r.r.r.r.r.r.r.r.r.r.r.r.r.r.r.r.r.r.r.r.r.r.r.r.r.r.r.r.r.r.r.r.r.r.r.r.r.r.r.r.r.r.r.r.r.r.r.r.r.r.r.r.r.r.r.r.r.r.r.r.r.r.",
"r.r.r.r.r.r.r.r.r.r.r.r.r.r.r.r.r.r.r.r.r.r.r.r.r.r.r.r.r.r.r.r.r.r.r.r.r.r.r.r.r.r.r.r.r.r.r.r.r.r.r.r.r.r.r.r.r.r.r.r.r.r.r.r.",
"r.r.r.r.r.r.r.r.r.r.r.r.r.r.r.r.r.r.r.r.r.r.r.r.r.r.r.r.r.r.r.r.r.r.r.r.r.r.r.r.r.r.r.r.r.r.r.r.r.r.r.r.r.r.r.r.r.r.r.r.r.r.r.r.",
"r.r.r.r.r.r.r.r.r.r.r.r.r.r.r.r.r.r.r.r.r.r.r.r.r.r.r.r.r.r.r.r.r.r.r.r.r.r.r.r.r.r.r.r.r.r.r.r.r.r.r.r.r.r.r.r.r.r.r.r.r.r.r.r.",
"r.r.r.r.r.r.r.r.r.r.r.r.r.r.r.r.r.r.r.r.r.r.r.r.r.r.r.r.r.r.r.r.r.r.r.r.r.r.r.r.r.r.r.r.r.r.r.r.r.r.r.r.r.r.r.r.r.r.r.r.r.r.r.r.",
"r.r.r.r.r.r.r.r.r.r.r.r.r.r.r.r.r.r.r.r.r.r.r.r.r.r.r.r.r.r.e.e.e.e.e.e.e.e.e.e.e.e.r.r.r.r.r.r.r.r.r.r.r.r.r.r.r.r.r.r.r.r.r.r.",
"r.r.r.r.r.r.r.r.r.r.r.r.r.r.r.r.r.r.r.r.r.r.r.r.r.r.r.r.r.r.4.3.3.3.3.3.3.3.,.5.w.e.r.r.r.r.r.r.r.r.r.r.r.r.r.r.r.r.r.r.r.r.r.r.",
"r.r.r.r.r.r.r.r.r.r.r.r.r.r.r.r.r.r.r.r.e.e.e.e.e.e.e.e.e.5.U v c b c c c l l Y 6.e.r.r.r.r.r.r.r.r.r.r.r.r.r.r.r.r.r.r.r.r.r.r.",
"r.r.r.r.r.r.r.r.r.r.r.r.r.r.r.r.r.r.r.r.e.w.6.3.3.3.3.4.5.X.i 1 4 9 9 e i c c P 4.e.r.r.r.r.r.r.r.r.r.r.r.r.r.r.r.r.r.r.r.r.r.r.",
"r.r.r.r.r.r.r.r.r.r.r.r.r.r.r.r.r.r.r.r.e.6.Y l h c v b b i q 5 r s s B @.3.3.3.r.r.r.r.r.r.r.r.r.r.r.r.r.r.r.r.r.r.r.r.r.r.r.r.",
"r.r.r.r.r.r.r.r.r.r.r.r.r.r.r.r.r.r.r.r.e.4.I h l i q 2 < 4 q u Z Q ^ o.9.e.e.e.r.r.r.r.r.r.r.r.r.r.r.r.r.r.r.r.r.r.r.r.r.r.r.r.",
"r.r.r.r.r.r.r.r.r.r.r.r.r.r.r.r.r.r.r.r.r.r.3.3.3...i 2 < 9 s K ;.7.7.8.r.r.r.r.r.r.r.r.r.r.r.r.r.r.r.r.r.r.r.r.r.r.r.r.r.r.r.r.",
"r.r.r.r.r.r.r.r.r.r.r.r.r.r.r.r.r.r.r.r.r.r.e.e.e.5.V 9 q r f / 9.e.e.e.r.r.r.r.r.r.r.r.r.r.r.r.r.r.r.r.r.r.r.r.r.r.r.r.r.r.r.r.",
"r.r.r.r.r.r.r.r.r.r.r.r.r.r.r.r.r.r.r.r.r.r.r.r.e.6.Q s f j j / 9.e.r.r.r.r.r.r.r.r.r.r.r.r.r.r.r.r.r.r.r.r.r.r.r.r.r.r.r.r.r.r.",
"r.r.r.r.r.r.r.r.r.r.r.r.r.r.r.r.r.r.r.r.r.r.r.r.e.6.Q m M M M L #.5.r.r.r.r.r.r.r.r.r.r.r.r.r.r.r.r.r.r.r.r.r.r.r.r.r.r.r.r.r.r.",
"r.r.r.r.r.r.r.r.r.r.r.r.r.r.r.r.r.r.r.r.r.r.r.r.e.6.^ M m M M z l I 6.e.r.r.r.r.r.r.r.r.r.r.r.r.r.r.r.r.r.r.r.r.r.r.r.r.r.r.r.r.",
"r.r.r.r.r.r.r.r.r.r.r.r.r.r.r.r.r.r.r.r.r.r.r.r.e.7.^ n M M M j w l +.5.r.r.r.r.r.r.r.r.r.r.r.r.r.r.r.r.r.r.r.r.r.r.r.r.r.r.r.r.",
"r.r.r.r.r.r.r.r.r.r.r.r.r.r.r.r.r.r.e.e.r.r.r.r.e.7.^ k M M M M j g l I 4.e.r.r.r.r.r.r.r.r.r.r.r.r.r.r.r.r.r.r.r.r.r.r.r.r.r.r.",
"r.r.r.r.r.r.r.r.r.r.r.r.r.r.r.r.r.r.3.4.r.r.r.r.4.#.L M M M M M M j 9 v 4.e.r.r.r.r.r.r.r.r.r.r.r.r.r.r.r.r.r.r.r.r.r.r.r.r.r.r.",
"r.r.r.r.r.r.r.r.r.r.r.r.r.r.r.r.e.4.I I 5.e.e.4.P c x M M M M M M s 9 v 4.e.r.r.r.r.r.r.r.r.r.r.r.r.r.r.r.r.r.r.r.r.r.r.r.r.r.r.",
"r.r.r.r.r.r.r.r.r.r.r.r.r.r.r.r.e.3.l u  .8.e.3.c 9 s M M M M M M j r x +.5.r.r.r.r.r.r.r.r.r.r.r.r.r.r.r.r.r.r.r.r.r.r.r.r.r.r.",
"r.r.r.r.r.r.r.r.r.r.r.r.r.r.r.r.e.3.l 5 i ( 8.5.c 5 g M M M M M M z j j l U 4.e.r.r.r.r.r.r.r.r.r.r.r.r.r.r.r.r.r.r.r.r.r.r.r.r.",
"r.r.r.r.r.r.r.r.r.r.r.r.r.r.r.r.e.3.c < < i X.@.c r j M M M M M M M M f 9 c 3.e.r.r.r.r.r.r.r.r.r.r.r.r.r.r.r.r.r.r.r.r.r.r.r.r.",
"r.r.r.r.r.r.r.r.r.r.r.r.r.r.r.r.e.3.c < 2 q h v k j n M M M M M M M B s 5 c 4.e.r.r.r.r.r.r.r.r.r.r.r.r.r.r.r.r.r.r.r.r.r.r.r.r.",
"r.r.r.r.r.r.r.r.r.r.r.r.r.r.r.r.e.4.U i q 4 9 r j M M M M M M M M M M j e x +.5.r.r.r.r.r.r.r.r.r.r.r.r.r.r.r.r.r.r.r.r.r.r.r.r.",
"r.r.r.r.r.r.r.r.r.r.r.r.r.r.r.r.r.r.5.X.h 5 r j M M M M M M M M M M M M j j h U 4.e.r.r.r.r.r.r.r.r.r.r.r.r.r.r.r.r.r.r.r.r.r.r.",
"r.r.r.r.r.r.r.r.r.r.r.r.r.r.r.r.r.r.e.4.v 9 j M M M M M M M M M M M M M M j 9 c 4.e.r.r.r.r.r.r.r.r.r.r.r.r.r.r.r.r.r.r.r.r.r.r.",
"r.r.r.r.r.r.r.r.r.r.r.r.r.r.r.r.r.r.e.4.c 9 f M M M M M M M M M M M M M M g 9 c 4.e.r.r.r.r.r.r.r.r.r.r.r.r.r.r.r.r.r.r.r.r.r.r.",
"r.r.r.r.r.r.r.r.r.r.r.r.r.r.r.r.r.r.e.4.U l j j M M M M M k j j j j n M M j r v +.5.r.r.r.r.r.r.r.r.r.r.r.r.r.r.r.r.r.r.r.r.r.r.",
"r.r.r.r.r.r.r.r.r.r.r.r.r.r.r.r.r.r.r.r.5.X.l r j B M M M j e q q r j M M M k g l I 5.e.e.e.e.e.e.e.e.e.e.e.r.r.r.r.r.r.r.r.r.r.",
"r.r.r.r.r.r.r.r.r.r.r.r.r.r.r.r.r.r.r.r.e.4.c 9 d M M M M z r q w r k M M M M j 9 i @.8.7.6.6.6.9.q.e.e.e.e.r.r.r.r.r.r.r.r.r.r.",
"r.r.r.r.r.r.r.r.r.r.r.r.r.r.r.r.r.r.r.r.e.4.c 5 d M M M M z j j j j z M M M M j q e Z / / ^ Q ) O.:.0.e.r.r.r.r.r.r.r.r.r.r.r.r.",
"r.r.r.r.r.r.r.r.r.r.r.r.r.r.r.r.r.r.r.r.e.5.K s j M M M M z k j j j j j n M M j r r j m m m N F } :.0.e.r.r.r.r.r.r.r.r.r.r.r.r.",
"r.r.r.r.r.r.r.r.r.r.r.r.r.r.r.r.r.r.r.r.e.9.O.D N z z M M k r w q w w r j M M z j j z M z N G | 2.0.r.r.r.r.r.r.r.r.r.r.r.r.r.r.",
"r.r.r.r.r.r.r.r.r.r.r.r.r.r.r.r.r.r.r.r.7.,.&.' G N M M M z e q q q q r k M M M M M M M N E | <.q.e.r.r.r.r.r.r.r.r.r.r.r.r.r.r.",
"r.r.r.r.r.r.r.r.r.r.r.r.r.r.r.r.r.r.e.7.o.~ ] { ' E A z M z z j j g k j z M M M M M M N G | 2.q.r.r.r.r.r.r.r.r.r.r.r.r.r.r.r.r.",
"r.r.r.r.r.r.r.r.r.r.r.r.r.r.r.r.r.r.e.6.Q N ! { { ' A M M z M M M M M M M M M M M M N E | <.q.e.r.r.r.r.r.r.r.r.r.r.r.r.r.r.r.r.",
"r.r.r.r.r.r.r.r.r.r.r.r.r.r.r.r.r.r.e.6.Q N ` { { ` A M z M M M M M M M M M M M z N H O.2.q.r.r.r.r.r.r.r.r.r.r.r.r.r.r.r.r.r.r.",
"r.r.r.r.r.r.r.r.r.r.r.r.r.r.r.r.r.r.e.6.Q C ` { { ` A z M M M M M M M M M M M M C E } <.q.e.r.r.r.r.r.r.r.r.r.r.r.r.r.r.r.r.r.r.",
"r.r.r.r.r.r.r.r.r.r.r.r.r.r.r.r.r.r.e.6.~ N ` { { ` A M z M M M M M M M M M M C H O.2.q.r.r.r.r.r.r.r.r.r.r.r.r.r.r.r.r.r.r.r.r.",
"r.r.r.r.r.r.r.r.r.r.r.r.r.r.r.r.r.r.e.6.^ C ` ] { ' F N N M N M N M M M M M M C ` -.0.e.r.r.r.r.r.r.r.r.r.r.r.r.r.r.r.r.r.r.r.r.",
"r.r.r.r.r.r.r.r.r.r.r.r.r.r.r.r.r.r.e.6.Q N ` { ] ] ' ` C M M N N M n M z M z C ` -.0.e.r.r.r.r.r.r.r.r.r.r.r.r.r.r.r.r.r.r.r.r.",
"r.r.r.r.r.r.r.r.r.r.r.r.r.r.r.r.r.r.e.6.Q C ` { { { { H i 6 6 6 6 7 g j z M n C _ *.0.e.r.r.r.r.r.r.r.r.r.r.r.r.r.r.r.r.r.r.r.r.",
"r.r.r.r.r.r.r.r.r.r.r.r.r.r.r.r.r.r.e.6.^ N ` { { { %.Z = X . . X & > a k z M C _ *.0.e.r.r.r.r.r.r.r.r.r.r.r.r.r.r.r.r.r.r.r.r.",
"r.r.r.r.r.r.r.r.r.r.r.r.r.r.r.r.r.r.e.7.Q C ` { { { %.l @   $ % o + ; a k N C E | :.0.e.r.r.r.r.r.r.r.r.r.r.r.r.r.r.r.r.r.r.r.r.",
"r.r.r.r.r.r.r.r.r.r.r.r.r.r.r.r.r.r.e.6.^ C ` %.[ { %.l O # J T , ; e j M C H | 2.0.r.r.r.r.r.r.r.r.r.r.r.r.r.r.r.r.r.r.r.r.r.r.",
"r.r.r.r.r.r.r.r.r.r.r.r.r.r.r.r.r.r.e.6./ M D _ ] %.{ B * : R #.b r j M z C ` *.q.e.r.r.r.r.r.r.r.r.r.r.r.r.r.r.r.r.r.r.r.r.r.r.",
"r.r.r.r.r.r.r.r.r.r.r.r.r.r.r.r.r.r.e.7./ j p j ! %.%.H u 8 l v j j M M z C ` *.0.e.r.r.r.r.r.r.r.r.r.r.r.r.r.r.r.r.r.r.r.r.r.r.",
"r.r.r.r.r.r.r.r.r.r.r.r.r.r.r.r.r.r.e.6.Q j p f A ! ] ' D j w w j M M M C E | :.0.e.r.r.r.r.r.r.r.r.r.r.r.r.r.r.r.r.r.r.r.r.r.r.",
"r.r.r.r.r.r.r.r.r.r.r.r.r.r.r.r.r.r.e.6.Q M D A d j ! ' D m j j M M M C H O.2.0.r.r.r.r.r.r.r.r.r.r.r.r.r.r.r.r.r.r.r.r.r.r.r.r.",
"r.r.r.r.r.r.r.r.r.r.r.r.r.r.r.r.r.r.e.7.o.~ [ H r r H ' C M M M M M M C ` =.0.e.r.r.r.r.r.r.r.r.r.r.r.r.r.r.r.r.r.r.r.r.r.r.r.r.",
"r.r.r.r.r.r.r.r.r.r.r.r.r.r.r.r.r.r.r.r.8.,.&.G r r H ' A M M M M M z C _ *.0.e.r.r.r.r.r.r.r.r.r.r.r.r.r.r.r.r.r.r.r.r.r.r.r.r.",
"r.r.r.r.r.r.r.r.r.r.r.r.r.r.r.r.r.r.r.r.e.q.*.G p t H ' A M M M M M N E | >.0.e.r.r.r.r.r.r.r.r.r.r.r.r.r.r.r.r.r.r.r.r.r.r.r.r.",
"r.r.r.r.r.r.r.r.r.r.r.r.r.r.r.r.r.r.r.r.e.0.=.G r r H ' C z M M z N H | 2.q.r.r.r.r.r.r.r.r.r.r.r.r.r.r.r.r.r.r.r.r.r.r.r.r.r.r.",
"r.r.r.r.r.r.r.r.r.r.r.r.r.r.r.r.r.r.r.r.e.q.>.) s r H ' A M M M N E | <.q.e.r.r.r.r.r.r.r.r.r.r.r.r.r.r.r.r.r.r.r.r.r.r.r.r.r.r.",
"r.r.r.r.r.r.r.r.r.r.r.r.r.r.r.r.r.r.r.r.r.r.q.;.h r H ' A M M C H | 2.q.r.r.r.r.r.r.r.r.r.r.r.r.r.r.r.r.r.r.r.r.r.r.r.r.r.r.r.r.",
"r.r.r.r.r.r.r.r.r.r.r.r.r.r.r.r.r.r.r.r.r.r.e.5.U b F D M M j A } :.q.e.r.r.r.r.r.r.r.r.r.r.r.r.r.r.r.r.r.r.r.r.r.r.r.r.r.r.r.r.",
"r.r.r.r.r.r.r.r.r.r.r.r.r.r.r.r.r.r.r.r.r.r.r.r.6.@.b p j z j Q ,.q.r.r.r.r.r.r.r.r.r.r.r.r.r.r.r.r.r.r.r.r.r.r.r.r.r.r.r.r.r.r.",
"r.r.r.r.r.r.r.r.r.r.r.r.r.r.r.r.r.r.r.r.r.r.r.r.e.5.U b E / / o.9.e.r.r.r.r.r.r.r.r.r.r.r.r.r.r.r.r.r.r.r.r.r.r.r.r.r.r.r.r.r.r.",
"r.r.r.r.r.r.r.r.r.r.r.r.r.r.r.r.r.r.r.r.r.r.r.r.r.r.4.3.5.6.6.7.r.r.r.r.r.r.r.r.r.r.r.r.r.r.r.r.r.r.r.r.r.r.r.r.r.r.r.r.r.r.r.r.",
"r.r.r.r.r.r.r.r.r.r.r.r.r.r.r.r.r.r.r.r.r.r.r.r.r.r.e.e.e.e.e.e.r.r.r.r.r.r.r.r.r.r.r.r.r.r.r.r.r.r.r.r.r.r.r.r.r.r.r.r.r.r.r.r."
};
