/* XPM */
static char *result[] = {
/* columns rows colors chars-per-pixel */
"64 64 125 2 ",
"   c #090804",
".  c #141624",
"X  c #161824",
"o  c #191922",
"O  c #1B1E2B",
"+  c #1C1E39",
"@  c #1E212F",
"#  c #2B2A26",
"$  c #2D2C29",
"%  c #333334",
"&  c #252842",
"*  c #323751",
"=  c #373C56",
"-  c #3A3F74",
";  c #3D4276",
":  c #474856",
">  c #404579",
",  c #585A7E",
"<  c #3D4286",
"1  c #3F4589",
"2  c #404587",
"3  c #404588",
"4  c #454B8D",
"5  c #494E8E",
"6  c #4E5584",
"7  c #545B8D",
"8  c #595F8E",
"9  c #474D90",
"0  c #484E90",
"q  c #4D5393",
"w  c #4F5698",
"e  c #535A97",
"r  c #545B9C",
"t  c #5A619F",
"y  c #5F689B",
"u  c #62669D",
"i  c #64699E",
"p  c #565EA0",
"a  c #585FA0",
"s  c #5E66A6",
"d  c #5F68A7",
"f  c #5F68A8",
"g  c #656BA4",
"h  c #686DA2",
"j  c #636BAA",
"k  c #686FAB",
"l  c #6D72A5",
"z  c #6770AF",
"x  c #6D73AB",
"c  c #7276A7",
"v  c #7377A9",
"b  c #747AAC",
"n  c #666FB0",
"m  c #6771B0",
"M  c #6B74B2",
"N  c #6F79B8",
"B  c #747FB3",
"V  c #7A7FB2",
"C  c #727CBB",
"Z  c #7D83B7",
"A  c #7680BE",
"S  c #7982BE",
"D  c #7682C2",
"F  c #7A85C5",
"G  c #7A86C8",
"H  c #7D89C9",
"J  c #959590",
"K  c #8187B9",
"L  c #858CBE",
"P  c #888EBD",
"I  c #8E91BA",
"U  c #9093BA",
"Y  c #9598BD",
"T  c #A5A6AF",
"R  c #ABACBA",
"E  c #818BC6",
"W  c #818ECB",
"Q  c #8F96C4",
"!  c #8390CF",
"~  c #8E97CB",
"^  c #9097C5",
"/  c #9198C6",
"(  c #9B9EC1",
")  c #939BCD",
"_  c #828FD1",
"`  c #8592D2",
"'  c #8996D5",
"]  c #8E9CDA",
"[  c #919FDE",
"{  c #92A0DF",
"}  c #9BA6DA",
"|  c #9EA8DC",
" . c #ADAFCC",
".. c #AEB0CC",
"X. c #B1B3CE",
"o. c #A6ACD1",
"O. c #A1AADA",
"+. c #B3B5D0",
"@. c #B6B8D4",
"#. c #BABDD7",
"$. c #BBBDD9",
"%. c #93A1E1",
"&. c #A5B1E4",
"*. c #ACB7E7",
"=. c #ADB8E7",
"-. c #AEB9E8",
";. c #BFC2DD",
":. c #BDC6EC",
">. c #BFC8ED",
",. c #C8CDE7",
"<. c #C0C8ED",
"1. c #CACFEA",
"2. c #CED4EE",
"3. c #D4D5E4",
"4. c #D7D8E6",
"5. c #D9DAE6",
"6. c #DBDDEB",
"7. c #DEE0EE",
"8. c #E2E3EF",
"9. c #E2E4F2",
"0. c #E7EAF8",
"q. c #EAECF9",
"w. c #F4F4F8",
"e. c #FFFFFF",
"r. c #11498E",
/* pixels */
"r.r.r.r.r.r.r.r.r.r.r.r.r.r.r.r.r.r.r.r.r.r.r.r.r.r.r.r.r.r.r.r.r.r.r.r.r.r.r.r.r.r.r.r.r.r.r.r.r.r.r.r.r.r.r.r.r.r.r.r.r.r.r.r.",
"r.r.r.r.r.r.r.r.r.r.r.r.r.r.r.r.r.r.r.r.r.r.r.r.r.r.r.r.r.r.r.r.r.r.r.r.r.r.r.r.r.r.r.r.r.r.r.r.r.r.r.r.r.r.r.r.r.r.r.r.r.r.r.r.",
"r.r.r.r.r.r.r.r.r.r.r.r.r.r.r.r.r.r.r.r.r.r.r.r.r.r.r.r.r.r.r.r.r.r.r.r.r.r.r.r.r.r.r.r.r.r.r.r.r.r.r.r.r.r.r.r.r.r.r.r.r.r.r.r.",
"r.r.r.r.r.r.r.r.r.r.r.r.r.r.r.r.r.r.r.r.r.r.r.r.r.r.r.r.r.r.r.r.r.r.r.r.r.r.r.r.r.r.r.r.r.r.r.r.r.r.r.r.r.r.r.r.r.r.r.r.r.r.r.r.",
"r.r.r.r.r.r.r.r.r.r.r.r.r.r.r.r.r.r.r.r.r.r.r.r.r.r.r.r.r.r.r.r.r.r.r.r.r.r.r.r.r.r.r.r.r.r.r.r.r.r.r.r.r.r.r.r.r.r.r.r.r.r.r.r.",
"r.r.r.r.r.r.r.r.r.r.r.r.r.r.r.r.r.r.r.r.r.r.r.r.r.r.r.r.r.r.r.r.r.r.r.r.r.r.r.r.r.r.r.r.r.r.r.r.r.r.r.r.r.r.r.r.r.r.r.r.r.r.r.r.",
"r.r.r.r.r.r.r.r.r.r.r.r.r.r.r.r.r.r.r.r.r.r.r.r.r.r.r.r.r.r.r.r.r.r.r.r.r.r.r.r.r.r.r.r.r.r.r.r.r.r.r.r.r.r.r.r.r.r.r.r.r.r.r.r.",
"r.r.r.r.r.r.r.r.r.r.r.r.r.r.r.r.r.r.r.r.r.r.r.r.r.r.r.r.r.r.r.r.r.r.r.r.r.r.r.r.r.r.r.r.r.r.r.r.r.r.r.r.r.r.r.r.r.r.r.r.r.r.r.r.",
"r.r.r.r.r.r.r.r.r.r.r.r.r.r.r.r.r.r.r.r.r.r.r.r.r.r.r.r.r.r.r.r.r.r.r.r.r.r.r.r.r.r.r.r.r.r.r.r.r.r.r.r.r.r.r.r.r.r.r.r.r.r.r.r.",
"r.r.r.r.r.r.r.r.r.r.r.r.r.r.r.r.r.r.r.r.r.r.r.r.r.r.r.r.r.r.r.r.r.r.r.r.r.r.r.r.r.r.r.r.r.r.r.r.r.r.r.r.r.r.r.r.r.r.r.r.r.r.r.r.",
"r.r.r.r.r.r.r.r.r.r.r.r.r.r.r.r.r.r.r.r.r.r.r.r.r.r.r.r.r.r.e.e.r.r.r.r.r.r.r.r.r.r.r.r.r.r.r.r.r.r.r.r.r.r.r.r.r.r.r.r.r.r.r.r.",
"r.r.r.r.r.r.r.r.r.r.r.r.r.r.r.r.r.r.r.r.r.r.r.r.r.r.r.r.r.r.e.e.r.r.r.r.r.r.r.r.r.r.r.r.r.r.r.r.r.r.r.r.r.r.r.r.r.r.r.r.r.r.r.r.",
"r.r.r.r.r.r.r.r.r.r.r.r.r.r.r.r.r.r.r.r.r.r.r.r.r.r.r.r.e.e.e.e.r.r.r.r.r.r.r.r.r.r.r.r.r.r.r.r.r.r.r.r.r.r.r.r.r.r.r.r.r.r.r.r.",
"r.r.r.r.r.r.r.r.r.r.r.r.r.r.r.r.r.r.r.r.r.r.r.r.r.r.r.r.q.q.w.e.r.r.r.r.r.r.r.r.r.r.r.r.r.r.r.r.r.r.r.r.r.r.r.r.r.r.r.r.r.r.r.r.",
"r.r.r.r.r.r.r.r.r.r.r.r.r.r.r.r.r.r.r.r.r.r.r.r.r.r.e.q.:.:.q.e.r.r.r.r.r.r.r.r.r.r.r.r.r.r.r.r.r.r.r.r.r.r.r.r.r.r.r.r.r.r.r.r.",
"r.r.r.r.r.r.r.r.r.r.r.r.r.r.r.r.r.r.r.r.r.r.r.r.r.r.q.2.} O.9.e.r.r.r.r.r.r.r.r.r.r.r.r.r.r.r.r.r.r.r.r.r.r.r.r.r.r.r.r.r.r.r.r.",
"r.r.r.r.r.r.r.r.r.r.r.r.r.r.r.r.r.r.r.r.r.r.r.r.e.q.<.} F ) 7.e.r.r.r.r.r.r.r.r.r.r.r.r.r.r.r.r.r.r.r.r.r.r.r.r.r.r.r.r.r.r.r.r.",
"r.r.r.r.r.r.r.r.r.r.r.r.r.r.r.r.r.r.r.r.r.r.r.r.q.2.| G N / 6.e.r.r.r.r.r.r.r.r.r.r.r.r.r.r.r.r.r.r.r.r.r.r.r.r.r.r.r.r.r.r.r.r.",
"r.r.r.r.r.r.r.r.r.r.r.r.r.r.r.r.r.r.r.r.r.r.e.q.<.O.E C m / 6.e.r.r.r.r.r.r.r.r.r.r.r.r.r.r.r.r.r.r.r.r.r.r.r.r.r.r.r.r.r.r.r.r.",
"r.r.r.r.r.r.r.r.r.r.r.r.r.r.r.r.r.r.r.r.r.r.q.2.} F N z m / 6.e.r.r.r.r.r.r.r.r.r.r.r.r.r.r.r.r.r.r.r.r.r.r.r.r.r.r.r.r.r.r.r.r.",
"r.r.r.r.r.r.r.r.r.r.r.r.r.r.r.r.e.e.e.e.e.q.>.| E N m z m / 8.e.r.r.r.r.r.r.r.r.r.r.r.r.r.r.r.r.r.r.r.r.r.r.r.r.r.r.r.r.r.r.r.r.",
"r.r.r.r.r.r.r.r.r.r.r.r.r.r.r.r.0.0.0.0.q.2.| H C M M z j Z @.5.r.r.r.r.r.r.r.r.r.r.r.r.r.r.r.r.r.r.r.r.r.r.r.r.r.r.r.r.r.r.r.r.",
"r.r.r.r.r.r.r.r.r.r.r.r.e.e.e.q.:.*.=.=.-.| E N M M M j r e h U 5.e.e.e.r.r.r.r.r.r.r.r.r.r.r.r.r.r.r.r.e.e.e.e.r.r.r.r.r.r.r.r.",
"r.r.r.r.r.r.r.r.r.r.r.r.q.0.q.2.} _ ` ` ` H C m z M N j r 0 0 h +.5.3.3.r.r.r.r.r.r.r.r.r.r.r.r.r.r.r.r.3.7.w.e.r.r.r.r.r.r.r.r.",
"r.r.r.r.r.r.r.r.e.e.e.q.:.=.=.| E C C C C C M M M M M z j j g j x v v I 5.e.e.e.r.r.r.r.r.r.r.r.r.r.e.3.I Y 5.e.r.r.r.r.r.r.r.r.",
"r.r.r.r.r.r.r.r.q.0.0.2.} _ ` H C m M m M z M M M M M M M M M j r 5 9 l @.3.3.3.r.r.r.r.r.r.r.r.r.r.e.3.l l 3.e.r.r.r.r.r.r.r.r.",
"r.r.r.r.r.r.e.q.:.=.=.} E C C C N M m M x N M M M M M M N M N m j g f j c c v U 5.e.e.e.r.r.r.r.r.r.e.3.c l ,.e.r.r.r.r.r.r.r.r.",
"r.r.r.r.r.r.q.2.} _ ` W C M m m k k z M M M M M M z k k k M M M M M M j w 0 0 l +.4.3.3.r.r.r.r.r.r.8.@.i c 3.e.r.r.r.r.r.r.r.r.",
"r.r.r.r.e.q.<.| E C C C M M x j r r k M m M M M M k r r j N N M M M M M j s s j l v c U 5.e.r.r.e.8.o.V e c 3.e.r.r.r.r.r.r.r.r.",
"r.r.r.r.q.2.} H C m M M M z k e ; > s m M M M M M f q q j m j j M M M M N M M k r 5 9 l @.5.r.r.e.7.Q s 0 v 3.e.r.r.r.r.r.r.r.r.",
"r.r.e.q.<.| E N m M M M M j r > + & 7 N M M M M M f q q j j r r j M M M M M M m j s s g l I 4.e.e.7.~ s 9 v 3.e.r.r.r.r.r.r.r.r.",
"r.r.8.,.} H N M m M M z k k b 6 o X 6 N C z M M N g q q j g q q j M M M M M M M M M N j w x #.9.9.;.Z r 4 c 3.e.r.r.r.r.r.r.r.r.",
"e.7.o.E S C N m M M M j e x #.T % . 6 M N M M M M j q q j j q q j M M M M M M M M M M m k z E / / Z s 4 1 c 3.e.r.r.r.r.r.r.r.r.",
"e.7./ m z M z M m M M j w l R J $ X 6 N M M M M M j r r j k r r j M M M M M M M M M M M M M M j j t q q h U 3.e.r.r.r.r.r.r.r.r.",
"e.6./ j z z M M M M M z j 8 : #   X 6 M M M M M M m k k z m k j x M M M M M M M M M M M M M M j r 5 4 i X.5.r.r.r.r.r.r.r.r.r.r.",
"e.6.L g N A A A C A A D D y * @ @ = u C C M z M M M M M M M M M M M M M M M M M M M M m M z M g q 2 2 b 4.e.r.r.r.r.r.r.r.r.r.r.",
"e.3.b s D ' ' ' ' ' ' ' ' W b l l Z H H C x M M m m M M M M M M M M M M M M M M N m m m m m m s 5 2 2 c 5.e.r.r.r.r.r.r.r.r.r.r.",
"e.3.I v D H H H H H H ! ] %.%.%.%.%.{ ] F C C A A C M M M m N m M M M M M M j g s x L / / / / Q Z i q c 3.e.r.r.r.r.r.r.r.r.r.r.",
"r.r.5.@.b r r p t r r j _ %.%.%.{ { { ] ' ! ! ' ' W C M m N M M M M m M N j w 0 4 x $.7.6.6.6.6.5...u c 3.e.r.r.r.r.r.r.r.r.r.r.",
"r.r.e.6.I h s r r r r j C _ ] [ { [ { { { { { { [ ' F N j f g j x M N k j j c v c I 5.e.e.e.e.e.e.3.l l 3.e.r.r.r.r.r.r.r.r.r.r.",
"r.r.r.r.5.;.) G F G H C j j W %.{ { { { { { { { [ ] ' D s 9 0 r j M N j r c @.5.3.4.r.r.r.r.r.r.e.3.c l 3.e.r.r.r.r.r.r.r.r.r.r.",
"r.r.r.r.e.q.>.*.=.&.[ D p p F ` ` ! ` ` ` ` ` ` W ] &.O.K c v l j j j r 5 i X.8.e.e.r.r.r.r.r.r.e.3.P Y 5.e.r.r.r.r.r.r.r.r.r.r.",
"r.r.r.r.r.r.q.0.q.2.~ M j j M C N N N N A N N N N ~ 2.9.5.3.3.@.h 9 9 5 4 q h ( 8.e.r.r.r.r.r.r.r.r.3.6.w.e.r.r.r.r.r.r.r.r.r.r.",
"r.r.r.r.r.r.e.e.e.7.o.Q Q / Q Q ^ ^ ^ ^ Q Q ^ ^ Q o.7.e.e.e.e.5.U c v h q < < u ..5.r.r.r.r.r.r.r.r.e.e.e.e.r.r.r.r.r.r.r.r.r.r.",
"r.r.r.r.r.r.r.r.r.r.7.6.7.6.6.6.6.6.6.6.7.6.6.6.6.7.r.r.r.r.r.r.5.3.3.X.h < < 5 u I 5.e.r.r.r.r.r.r.r.r.r.r.r.r.r.r.r.r.r.r.r.r.",
"r.r.r.r.r.r.r.r.r.r.e.e.e.e.e.e.e.e.e.e.e.e.e.e.e.e.r.r.r.r.r.r.e.e.e.5.I c c c c I 3.e.r.r.r.r.r.r.r.r.r.r.r.r.r.r.r.r.r.r.r.r.",
"r.r.r.r.r.r.r.r.r.r.r.r.r.r.r.r.r.r.r.r.r.r.r.r.r.r.r.r.r.r.r.r.r.r.r.r.5.3.3.3.3.3.r.r.r.r.r.r.r.r.r.r.r.r.r.r.r.r.r.r.r.r.r.r.",
"r.r.r.r.r.r.r.r.r.r.r.r.r.r.r.r.r.r.r.r.r.r.r.r.r.r.r.r.r.r.r.r.r.r.r.r.e.e.e.e.e.e.r.r.r.r.r.r.r.r.r.r.r.r.r.r.r.r.r.r.r.r.r.r.",
"r.r.r.r.r.r.r.r.r.r.r.r.r.r.r.r.r.r.r.r.r.r.r.r.r.r.r.r.r.r.r.r.r.r.r.r.r.r.r.r.r.r.r.r.r.r.r.r.r.r.r.r.r.r.r.r.r.r.r.r.r.r.r.r.",
"r.r.r.r.r.r.r.r.r.r.r.r.r.r.r.r.r.r.r.r.r.r.r.r.r.r.r.r.r.r.r.r.r.r.r.r.r.r.r.r.r.r.r.r.r.r.r.r.r.r.r.r.r.r.r.r.r.r.r.r.r.r.r.r.",
"r.r.r.r.r.r.r.r.r.r.r.r.r.r.r.r.r.r.r.r.r.r.r.r.r.r.r.r.r.r.r.r.r.r.r.r.r.r.r.r.r.r.r.r.r.r.r.r.r.r.r.r.r.r.r.r.r.r.r.r.r.r.r.r.",
"r.r.r.r.r.r.r.r.r.r.r.r.r.r.r.r.r.r.r.r.r.r.r.r.r.r.r.r.r.r.r.r.r.r.r.r.r.r.r.r.r.r.r.r.r.r.r.r.r.r.r.r.r.r.r.r.r.r.r.r.r.r.r.r.",
"r.r.r.r.r.r.r.r.r.r.r.r.r.r.r.r.r.r.r.r.r.r.r.r.r.r.r.r.r.r.r.r.r.r.r.r.r.r.r.r.r.r.r.r.r.r.r.r.r.r.r.r.r.r.r.r.r.r.r.r.r.r.r.r.",
"r.r.r.r.r.r.r.r.r.r.r.r.r.r.r.r.r.r.r.r.r.r.r.r.r.r.r.r.r.r.r.r.r.r.r.r.r.r.r.r.r.r.r.r.r.r.r.r.r.r.r.r.r.r.r.r.r.r.r.r.r.r.r.r.",
"r.r.r.r.r.r.r.r.r.r.r.r.r.r.r.r.r.r.r.r.r.r.r.r.r.r.r.r.r.r.r.r.r.r.r.r.r.r.r.r.r.r.r.r.r.r.r.r.r.r.r.r.r.r.r.r.r.r.r.r.r.r.r.r.",
"r.r.r.r.r.r.r.r.r.r.r.r.r.r.r.r.r.r.r.r.r.r.r.r.r.r.r.r.r.r.r.r.r.r.r.r.r.r.r.r.r.r.r.r.r.r.r.r.r.r.r.r.r.r.r.r.r.r.r.r.r.r.r.r.",
"r.r.r.r.r.r.r.r.r.r.r.r.r.r.r.r.r.r.r.r.r.r.r.r.r.r.r.r.r.r.r.r.r.r.r.r.r.r.r.r.r.r.r.r.r.r.r.r.r.r.r.r.r.r.r.r.r.r.r.r.r.r.r.r.",
"r.r.r.r.r.r.r.r.r.r.r.r.r.r.r.r.r.r.r.r.r.r.r.r.r.r.r.r.r.r.r.r.r.r.r.r.r.r.r.r.r.r.r.r.r.r.r.r.r.r.r.r.r.r.r.r.r.r.r.r.r.r.r.r.",
"r.r.r.r.r.r.r.r.r.r.r.r.r.r.r.r.r.r.r.r.r.r.r.r.r.r.r.r.r.r.r.r.r.r.r.r.r.r.r.r.r.r.r.r.r.r.r.r.r.r.r.r.r.r.r.r.r.r.r.r.r.r.r.r.",
"r.r.r.r.r.r.r.r.r.r.r.r.r.r.r.r.r.r.r.r.r.r.r.r.r.r.r.r.r.r.r.r.r.r.r.r.r.r.r.r.r.r.r.r.r.r.r.r.r.r.r.r.r.r.r.r.r.r.r.r.r.r.r.r.",
"r.r.r.r.r.r.r.r.r.r.r.r.r.r.r.r.r.r.r.r.r.r.r.r.r.r.r.r.r.r.r.r.r.r.r.r.r.r.r.r.r.r.r.r.r.r.r.r.r.r.r.r.r.r.r.r.r.r.r.r.r.r.r.r.",
"r.r.r.r.r.r.r.r.r.r.r.r.r.r.r.r.r.r.r.r.r.r.r.r.r.r.r.r.r.r.r.r.r.r.r.r.r.r.r.r.r.r.r.r.r.r.r.r.r.r.r.r.r.r.r.r.r.r.r.r.r.r.r.r.",
"r.r.r.r.r.r.r.r.r.r.r.r.r.r.r.r.r.r.r.r.r.r.r.r.r.r.r.r.r.r.r.r.r.r.r.r.r.r.r.r.r.r.r.r.r.r.r.r.r.r.r.r.r.r.r.r.r.r.r.r.r.r.r.r.",
"r.r.r.r.r.r.r.r.r.r.r.r.r.r.r.r.r.r.r.r.r.r.r.r.r.r.r.r.r.r.r.r.r.r.r.r.r.r.r.r.r.r.r.r.r.r.r.r.r.r.r.r.r.r.r.r.r.r.r.r.r.r.r.r."
};
