/* XPM */
static char *result[] = {
/* columns rows colors chars-per-pixel */
"64 64 121 2 ",
"   c #090804",
".  c #141624",
"X  c #161824",
"o  c #191922",
"O  c #1B1E2B",
"+  c #1C1E39",
"@  c #1E212F",
"#  c #2B2A26",
"$  c #2D2C29",
"%  c #333334",
"&  c #252842",
"*  c #323751",
"=  c #373C56",
"-  c #3A3F74",
";  c #3D4276",
":  c #474856",
">  c #404579",
",  c #585A7E",
"<  c #3C4286",
"1  c #3F4488",
"2  c #414688",
"3  c #454A8C",
"4  c #494E8F",
"5  c #4E5584",
"6  c #545B8D",
"7  c #595F8E",
"8  c #474D90",
"9  c #494E90",
"0  c #4D5393",
"q  c #4F5698",
"w  c #545B97",
"e  c #545B9C",
"r  c #5A619F",
"t  c #5F689B",
"y  c #62669D",
"u  c #636A9E",
"i  c #565EA0",
"p  c #585FA0",
"a  c #5E66A6",
"s  c #5F68A8",
"d  c #656BA4",
"f  c #696DA2",
"g  c #636BAA",
"h  c #686FAB",
"j  c #6C72A5",
"k  c #6770AF",
"l  c #6D73AB",
"z  c #7276A7",
"x  c #7277A9",
"c  c #747AAD",
"v  c #7B7FAF",
"b  c #666FB0",
"n  c #6770B0",
"m  c #6B74B2",
"M  c #6F79B8",
"N  c #747FB3",
"B  c #727CBB",
"V  c #7C82B4",
"C  c #7680BE",
"Z  c #7982BE",
"A  c #7682C2",
"S  c #7A85C5",
"D  c #7A86C8",
"F  c #7D89C9",
"G  c #959590",
"H  c #8287B8",
"J  c #838ABE",
"K  c #888EBD",
"L  c #8E91BA",
"P  c #9093BA",
"I  c #A5A6AF",
"U  c #ABACBA",
"Y  c #818BC6",
"T  c #818ECB",
"R  c #8D94C4",
"E  c #8390CF",
"W  c #8E97CB",
"Q  c #9097C5",
"!  c #9198C6",
"~  c #9B9EC1",
"^  c #939BCD",
"/  c #828FD1",
"(  c #8592D2",
")  c #8996D5",
"_  c #8E9CDA",
"`  c #919FDE",
"'  c #92A0DF",
"]  c #9BA6DA",
"[  c #9EA8DC",
"{  c #ADAFCC",
"}  c #B1B4CF",
"|  c #A5ABD0",
" . c #AAAFD3",
".. c #A1AADA",
"X. c #B3B5D0",
"o. c #B7B9D5",
"O. c #BABDD8",
"+. c #93A1E1",
"@. c #A5B1E4",
"#. c #ACB7E7",
"$. c #ADB8E7",
"%. c #AEB9E8",
"&. c #BEC1DC",
"*. c #BDC6EC",
"=. c #BFC8ED",
"-. c #C8CDE7",
";. c #C0C8ED",
":. c #CACFEA",
">. c #CED4EE",
",. c #D5D6E5",
"<. c #D7D8E6",
"1. c #D9DAE6",
"2. c #DBDDEC",
"3. c #DEE0EE",
"4. c #E2E4EF",
"5. c #E4E5F2",
"6. c #E7EAF8",
"7. c #EAECF9",
"8. c #F6F7FB",
"9. c #FFFFFF",
"0. c #11498E",
/* pixels */
"0.0.0.0.0.0.0.0.0.0.0.0.0.0.0.0.0.0.0.0.0.0.0.0.0.0.0.0.0.0.0.0.0.0.0.0.0.0.0.0.0.0.0.0.0.0.0.0.0.0.0.0.0.0.0.0.0.0.0.0.0.0.0.0.",
"0.0.0.0.0.0.0.0.0.0.0.0.0.0.0.0.0.0.0.0.0.0.0.0.0.0.0.0.0.0.0.0.0.0.0.0.0.0.0.0.0.0.0.0.0.0.0.0.0.0.0.0.0.0.0.0.0.0.0.0.0.0.0.0.",
"0.0.0.0.0.0.0.0.0.0.0.0.0.0.0.0.0.0.0.0.0.0.0.0.0.0.0.0.0.0.0.0.0.0.0.0.0.0.0.0.0.0.0.0.0.0.0.0.0.0.0.0.0.0.0.0.0.0.0.0.0.0.0.0.",
"0.0.0.0.0.0.0.0.0.0.0.0.0.0.0.0.0.0.0.0.0.0.0.0.0.0.0.0.0.0.0.0.0.0.0.0.0.0.0.0.0.0.0.0.0.0.0.0.0.0.0.0.0.0.0.0.0.0.0.0.0.0.0.0.",
"0.0.0.0.0.0.0.0.0.0.0.0.0.0.0.0.0.0.0.0.0.0.0.0.0.0.0.0.0.0.0.0.0.0.0.0.0.0.0.0.0.0.0.0.0.0.0.0.0.0.0.0.0.0.0.0.0.0.0.0.0.0.0.0.",
"0.0.0.0.0.0.0.0.0.0.0.0.0.0.0.0.0.0.0.0.0.0.0.0.0.0.0.0.0.0.0.0.0.0.0.0.0.0.0.0.0.0.0.0.0.0.0.0.0.0.0.0.0.0.0.0.0.0.0.0.0.0.0.0.",
"0.0.0.0.0.0.0.0.0.0.0.0.0.0.0.0.0.0.0.0.0.0.0.0.0.0.0.0.0.0.0.0.0.0.0.0.0.0.0.0.0.0.0.0.0.0.0.0.0.0.0.0.0.0.0.0.0.0.0.0.0.0.0.0.",
"0.0.0.0.0.0.0.0.0.0.0.0.0.0.0.0.0.0.0.0.0.0.0.0.0.0.0.0.0.0.0.0.0.0.0.0.0.0.0.0.0.0.0.0.0.0.0.0.0.0.0.0.0.0.0.0.0.0.0.0.0.0.0.0.",
"0.0.0.0.0.0.0.0.0.0.0.0.0.0.0.0.0.0.0.0.0.0.0.0.0.0.0.0.0.0.0.0.0.0.0.0.0.0.0.0.0.0.0.0.0.0.0.0.0.0.0.0.0.0.0.0.0.0.0.0.0.0.0.0.",
"0.0.0.0.0.0.0.0.0.0.0.0.0.0.0.0.0.0.0.0.0.0.0.0.0.0.0.0.0.0.0.0.0.0.0.0.0.0.0.0.0.0.0.0.0.0.0.0.0.0.0.0.0.0.0.0.0.0.0.0.0.0.0.0.",
"0.0.0.0.0.0.0.0.0.0.0.0.0.0.0.0.0.0.0.0.0.0.0.0.0.0.0.0.0.0.9.9.0.0.0.0.0.0.0.0.0.0.0.0.0.0.0.0.0.0.0.0.0.0.0.0.0.0.0.0.0.0.0.0.",
"0.0.0.0.0.0.0.0.0.0.0.0.0.0.0.0.0.0.0.0.0.0.0.0.0.0.0.0.0.0.9.9.0.0.0.0.0.0.0.0.0.0.0.0.0.0.0.0.0.0.0.0.0.0.0.0.0.0.0.0.0.0.0.0.",
"0.0.0.0.0.0.0.0.0.0.0.0.0.0.0.0.0.0.0.0.0.0.0.0.0.0.0.0.9.9.9.9.0.0.0.0.0.0.0.0.0.0.0.0.0.0.0.0.0.0.0.0.0.0.0.0.0.0.0.0.0.0.0.0.",
"0.0.0.0.0.0.0.0.0.0.0.0.0.0.0.0.0.0.0.0.0.0.0.0.0.0.0.0.6.7.8.9.0.0.0.0.0.0.0.0.0.0.0.0.0.0.0.0.0.0.0.0.0.0.0.0.0.0.0.0.0.0.0.0.",
"0.0.0.0.0.0.0.0.0.0.0.0.0.0.0.0.0.0.0.0.0.0.0.0.0.0.9.7.*.=.7.9.0.0.0.0.0.0.0.0.0.0.0.0.0.0.0.0.0.0.0.0.0.0.0.0.0.0.0.0.0.0.0.0.",
"0.0.0.0.0.0.0.0.0.0.0.0.0.0.0.0.0.0.0.0.0.0.0.0.0.0.7.>.] ..5.9.0.0.0.0.0.0.0.0.0.0.0.0.0.0.0.0.0.0.0.0.0.0.0.0.0.0.0.0.0.0.0.0.",
"0.0.0.0.0.0.0.0.0.0.0.0.0.0.0.0.0.0.0.0.0.0.0.0.9.7.;.[ S ^ 3.9.0.0.0.0.0.0.0.0.0.0.0.0.0.0.0.0.0.0.0.0.0.0.0.0.0.0.0.0.0.0.0.0.",
"0.0.0.0.0.0.0.0.0.0.0.0.0.0.0.0.0.0.0.0.0.0.0.0.7.>.[ D m Q 2.9.0.0.0.0.0.0.0.0.0.0.0.0.0.0.0.0.0.0.0.0.0.0.0.0.0.0.0.0.0.0.0.0.",
"0.0.0.0.0.0.0.0.0.0.0.0.0.0.0.0.0.0.0.0.0.0.9.7.;...Y M m Q 2.9.0.0.0.0.0.0.0.0.0.0.0.0.0.0.0.0.0.0.0.0.0.0.0.0.0.0.0.0.0.0.0.0.",
"0.0.0.0.0.0.0.0.0.0.0.0.0.0.0.0.0.0.0.0.0.0.7.>.] D M k n ! 3.9.0.0.0.0.0.0.0.0.0.0.0.0.0.0.0.0.0.0.0.0.0.0.0.0.0.0.0.0.0.0.0.0.",
"0.0.0.0.0.0.0.0.0.0.0.0.0.0.0.0.9.9.9.9.9.7.=.[ F M m k m ! 4.9.0.0.0.0.0.0.0.0.0.0.0.0.0.0.0.0.0.0.0.0.0.0.0.0.0.0.0.0.0.0.0.0.",
"0.0.0.0.0.0.0.0.0.0.0.0.0.0.0.0.6.6.6.6.7.>.[ F M m m k g V X.1.0.0.0.0.0.0.0.0.0.0.0.0.0.0.0.0.0.0.0.0.0.0.0.0.0.0.0.0.0.0.0.0.",
"0.0.0.0.0.0.0.0.0.0.0.0.9.9.9.7.*.#.#.%.%.[ Y M m m m g e w d L 2.9.9.9.0.0.0.0.0.0.0.0.0.0.0.0.0.0.9.9.9.9.0.0.0.0.0.0.0.0.0.0.",
"0.0.0.0.0.0.0.0.0.0.0.0.7.6.6.>.] / ( ( ( F M m m m m h e 9 8 j } <.,.,.0.0.0.0.0.0.0.0.0.0.0.0.0.0.3.5.8.9.0.0.0.0.0.0.0.0.0.0.",
"0.0.0.0.0.0.0.0.9.9.9.7.=.#.#.[ Y B B B B B m m m m m k g g a h j z z P 2.9.9.9.0.0.0.0.0.0.0.0.9.2.|  .5.9.0.0.0.0.0.0.0.0.0.0.",
"0.0.0.0.0.0.0.0.7.6.6.>.] T ( F M m m m k m m m m m m m m m m g e 9 9 f } ,.,.,.0.0.0.0.0.0.0.0.9.2.R R 2.9.0.0.0.0.0.0.0.0.0.0.",
"0.0.0.0.0.0.9.7.=.#.#.[ Y B B B m m k m m m m m m m m m m m m m g g a g z z z P 2.9.9.9.0.0.0.0.9.2.R Y 2.9.0.0.0.0.0.0.0.0.0.0.",
"0.0.0.0.0.0.7.>.[ ( ( F B k m b g h k m m m m m m k h h m m m m m m m h q 9 8 j X.,.,.<.0.0.0.0.9.<.R R 2.9.0.0.0.0.0.0.0.0.0.0.",
"0.0.0.0.9.7.=.[ F B B M m m m h i e h m m m m m m h e e h m m m m m m k g g a g j z z P 1.9.0.0.9.2.R R 2.9.0.0.0.0.0.0.0.0.0.0.",
"0.0.0.0.7.>.[ F B k m m m m g w ; > a m m m m m m s 0 0 g m h g m m m m m m m g e 3 9 j } 2.0.0.9.2.R R 2.9.0.0.0.0.0.0.0.0.0.0.",
"0.0.9.7.;.[ Y M k m l m m g e - + & 6 m m m m m m g 0 0 g h e e h m m m m m m m g g a g j P 1.9.9.3.R R 2.9.0.0.0.0.0.0.0.0.0.0.",
"0.0.4.-.] F M m k m m m g h N , o X 5 M M m m m m g 0 0 g a 0 0 g m m m m m m m m m m g q z O.3.2.O.Z R 2.9.0.0.0.0.0.0.0.0.0.0.",
"9.3. .Y Z B m m m m m g w l O.I % . 5 M m m m m m g 0 0 g g 0 q g m m m m m m m m m m k g l Y L V j k Q 2.9.0.0.0.0.0.0.0.0.0.0.",
"9.3.R b g k m m k m m g e j U G $ . 5 m M m m m m h e e h h e e g m m m m m m m m m m M m m g e 4 0 a ! 2.9.0.0.0.0.0.0.0.0.0.0.",
"9.2.! b m k m m m m m k g 6 : #   . 5 M m m m m m m h g k k g g h m m m m m m m m m m m m g e 9 2 0 a ! 3.9.0.0.0.0.0.0.0.0.0.0.",
"9.2.K g m C Z B C C C A C y * O @ = u B N k m m k m m m m m m m m m m m m m m m m m m g g a 4 1 2 0 a ! 2.9.0.0.0.0.0.0.0.0.0.0.",
"9.,.c e A ) ) ) ) ) ) ) ) Y N j j V F F M k k k m m m m m m m m m m m m m m m m m m m g e 9 3 2 1 0 a ! 3.9.0.0.0.0.0.0.0.0.0.0.",
"9.,.P c A D T F F F F T _ +.+.+.+.+.' _ S B C C B B m k m m m m m m m m m k g g a m Y L v z z z z j k ! 2.9.0.0.0.0.0.0.0.0.0.0.",
"0.0.2.o.N e e e a e e g ( +.+.' ' ' ' _ ) ) ) ) ) Y B m m m m m m m m m m g w 8 4 j O.2.,.,.,.,.,.O.Z R 2.9.0.0.0.0.0.0.0.0.0.0.",
"0.0.9.1.L f r e e e e g B / _ ` ' ` ` ` ` ` _ ' ' ) S M g a a g m m m m g g z z z L <.9.9.9.9.9.9.2.R R 2.9.0.0.0.0.0.0.0.0.0.0.",
"0.0.0.0.1.&.^ D S D F B g g T +.' ' ` ` ` ` ' ' ` _ ) A i 9 0 e g m m g e z o.1.,.,.0.0.0.0.0.0.9.2.R R 2.9.0.0.0.0.0.0.0.0.0.0.",
"0.0.0.0.9.7.=.%.#.@.` A i i A ) ( ( E ( ( ( ( ( ( _ @...H z z j d g g p 4 u } 5.9.9.0.0.0.0.0.0.9.2.|  .5.9.0.0.0.0.0.0.0.0.0.0.",
"0.0.0.0.0.0.7.6.7.>.W m g g m B M M M C M M M M M W :.5.2.,.,.} f 9 9 8 3 0 f ~ 4.9.0.0.0.0.0.0.0.0.2.5.8.9.0.0.0.0.0.0.0.0.0.0.",
"0.0.0.0.0.0.9.9.9.5.| R R ! Q R Q Q W Q Q Q Q Q R | 4.9.9.9.9.2.P z z f 0 < < y { 1.0.0.0.0.0.0.0.0.9.9.9.9.0.0.0.0.0.0.0.0.0.0.",
"0.0.0.0.0.0.0.0.0.0.3.2.2.2.2.2.2.2.2.2.3.2.2.2.2.3.0.0.0.0.0.0.<.<.,.} u < < 4 y P <.9.0.0.0.0.0.0.0.0.0.0.0.0.0.0.0.0.0.0.0.0.",
"0.0.0.0.0.0.0.0.0.0.9.9.9.9.9.9.9.9.9.9.9.9.9.9.9.9.0.0.0.0.0.0.9.9.9.2.P z z j z L ,.9.0.0.0.0.0.0.0.0.0.0.0.0.0.0.0.0.0.0.0.0.",
"0.0.0.0.0.0.0.0.0.0.0.0.0.0.0.0.0.0.0.0.0.0.0.0.0.0.0.0.0.0.0.0.0.0.0.0.<.,.,.,.,.,.0.0.0.0.0.0.0.0.0.0.0.0.0.0.0.0.0.0.0.0.0.0.",
"0.0.0.0.0.0.0.0.0.0.0.0.0.0.0.0.0.0.0.0.0.0.0.0.0.0.0.0.0.0.0.0.0.0.0.0.9.9.9.9.9.9.0.0.0.0.0.0.0.0.0.0.0.0.0.0.0.0.0.0.0.0.0.0.",
"0.0.0.0.0.0.0.0.0.0.0.0.0.0.0.0.0.0.0.0.0.0.0.0.0.0.0.0.0.0.0.0.0.0.0.0.0.0.0.0.0.0.0.0.0.0.0.0.0.0.0.0.0.0.0.0.0.0.0.0.0.0.0.0.",
"0.0.0.0.0.0.0.0.0.0.0.0.0.0.0.0.0.0.0.0.0.0.0.0.0.0.0.0.0.0.0.0.0.0.0.0.0.0.0.0.0.0.0.0.0.0.0.0.0.0.0.0.0.0.0.0.0.0.0.0.0.0.0.0.",
"0.0.0.0.0.0.0.0.0.0.0.0.0.0.0.0.0.0.0.0.0.0.0.0.0.0.0.0.0.0.0.0.0.0.0.0.0.0.0.0.0.0.0.0.0.0.0.0.0.0.0.0.0.0.0.0.0.0.0.0.0.0.0.0.",
"0.0.0.0.0.0.0.0.0.0.0.0.0.0.0.0.0.0.0.0.0.0.0.0.0.0.0.0.0.0.0.0.0.0.0.0.0.0.0.0.0.0.0.0.0.0.0.0.0.0.0.0.0.0.0.0.0.0.0.0.0.0.0.0.",
"0.0.0.0.0.0.0.0.0.0.0.0.0.0.0.0.0.0.0.0.0.0.0.0.0.0.0.0.0.0.0.0.0.0.0.0.0.0.0.0.0.0.0.0.0.0.0.0.0.0.0.0.0.0.0.0.0.0.0.0.0.0.0.0.",
"0.0.0.0.0.0.0.0.0.0.0.0.0.0.0.0.0.0.0.0.0.0.0.0.0.0.0.0.0.0.0.0.0.0.0.0.0.0.0.0.0.0.0.0.0.0.0.0.0.0.0.0.0.0.0.0.0.0.0.0.0.0.0.0.",
"0.0.0.0.0.0.0.0.0.0.0.0.0.0.0.0.0.0.0.0.0.0.0.0.0.0.0.0.0.0.0.0.0.0.0.0.0.0.0.0.0.0.0.0.0.0.0.0.0.0.0.0.0.0.0.0.0.0.0.0.0.0.0.0.",
"0.0.0.0.0.0.0.0.0.0.0.0.0.0.0.0.0.0.0.0.0.0.0.0.0.0.0.0.0.0.0.0.0.0.0.0.0.0.0.0.0.0.0.0.0.0.0.0.0.0.0.0.0.0.0.0.0.0.0.0.0.0.0.0.",
"0.0.0.0.0.0.0.0.0.0.0.0.0.0.0.0.0.0.0.0.0.0.0.0.0.0.0.0.0.0.0.0.0.0.0.0.0.0.0.0.0.0.0.0.0.0.0.0.0.0.0.0.0.0.0.0.0.0.0.0.0.0.0.0.",
"0.0.0.0.0.0.0.0.0.0.0.0.0.0.0.0.0.0.0.0.0.0.0.0.0.0.0.0.0.0.0.0.0.0.0.0.0.0.0.0.0.0.0.0.0.0.0.0.0.0.0.0.0.0.0.0.0.0.0.0.0.0.0.0.",
"0.0.0.0.0.0.0.0.0.0.0.0.0.0.0.0.0.0.0.0.0.0.0.0.0.0.0.0.0.0.0.0.0.0.0.0.0.0.0.0.0.0.0.0.0.0.0.0.0.0.0.0.0.0.0.0.0.0.0.0.0.0.0.0.",
"0.0.0.0.0.0.0.0.0.0.0.0.0.0.0.0.0.0.0.0.0.0.0.0.0.0.0.0.0.0.0.0.0.0.0.0.0.0.0.0.0.0.0.0.0.0.0.0.0.0.0.0.0.0.0.0.0.0.0.0.0.0.0.0.",
"0.0.0.0.0.0.0.0.0.0.0.0.0.0.0.0.0.0.0.0.0.0.0.0.0.0.0.0.0.0.0.0.0.0.0.0.0.0.0.0.0.0.0.0.0.0.0.0.0.0.0.0.0.0.0.0.0.0.0.0.0.0.0.0.",
"0.0.0.0.0.0.0.0.0.0.0.0.0.0.0.0.0.0.0.0.0.0.0.0.0.0.0.0.0.0.0.0.0.0.0.0.0.0.0.0.0.0.0.0.0.0.0.0.0.0.0.0.0.0.0.0.0.0.0.0.0.0.0.0.",
"0.0.0.0.0.0.0.0.0.0.0.0.0.0.0.0.0.0.0.0.0.0.0.0.0.0.0.0.0.0.0.0.0.0.0.0.0.0.0.0.0.0.0.0.0.0.0.0.0.0.0.0.0.0.0.0.0.0.0.0.0.0.0.0.",
"0.0.0.0.0.0.0.0.0.0.0.0.0.0.0.0.0.0.0.0.0.0.0.0.0.0.0.0.0.0.0.0.0.0.0.0.0.0.0.0.0.0.0.0.0.0.0.0.0.0.0.0.0.0.0.0.0.0.0.0.0.0.0.0."
};
