/* XPM */
static char *result[] = {
/* columns rows colors chars-per-pixel */
"64 64 126 2 ",
"   c #090804",
".  c #141624",
"X  c #161824",
"o  c #191922",
"O  c #1B1E2B",
"+  c #1C1E39",
"@  c #1E212F",
"#  c #2B2A26",
"$  c #2D2C29",
"%  c #333334",
"&  c #252842",
"*  c #323751",
"=  c #373C56",
"-  c #3A3F74",
";  c #3D4276",
":  c #474856",
">  c #404579",
",  c #585A7E",
"<  c #3C4286",
"1  c #3F4488",
"2  c #41468A",
"3  c #454B8D",
"4  c #4A4F8F",
"5  c #4E5584",
"6  c #545B8D",
"7  c #595F8E",
"8  c #474D90",
"9  c #484E90",
"0  c #4C5293",
"q  c #4F5698",
"w  c #545B97",
"e  c #545B9C",
"r  c #5D629D",
"t  c #5F689B",
"y  c #62669D",
"u  c #64699E",
"i  c #565EA0",
"p  c #585FA0",
"a  c #5E66A6",
"s  c #5F67A8",
"d  c #5F68A8",
"f  c #656BA5",
"g  c #696DA2",
"h  c #636BAA",
"j  c #686FAB",
"k  c #6C72A5",
"l  c #6770AF",
"z  c #6D73AA",
"x  c #7276A7",
"c  c #7377A9",
"v  c #7479AB",
"b  c #787DAE",
"n  c #666FB0",
"m  c #6770B0",
"M  c #6B74B2",
"N  c #6F79B8",
"B  c #737CB6",
"V  c #727CBB",
"C  c #7C82B4",
"Z  c #7680BE",
"A  c #7982BE",
"S  c #7682C2",
"D  c #7A85C5",
"F  c #7A86C8",
"G  c #7D89C9",
"H  c #959590",
"J  c #8287B8",
"K  c #848BBF",
"L  c #888EBD",
"P  c #8E91BA",
"I  c #9193BA",
"U  c #9598BD",
"Y  c #A5A6AF",
"T  c #ABACBA",
"R  c #838CC4",
"E  c #818ECB",
"W  c #8E95C4",
"Q  c #8390CF",
"!  c #8E97CB",
"~  c #9097C5",
"^  c #9299C6",
"/  c #9B9EC1",
"(  c #939BCD",
")  c #828FD1",
"_  c #8592D2",
"`  c #8996D5",
"'  c #8E9CDA",
"]  c #919FDE",
"[  c #92A0DF",
"{  c #9BA6DA",
"}  c #9EA8DC",
"|  c #ADAFCC",
" . c #ADB0CC",
".. c #B1B3CE",
"X. c #A6ACD1",
"o. c #AAAFD3",
"O. c #A1AADA",
"+. c #B3B5D0",
"@. c #B6B9D4",
"#. c #B9BCD7",
"$. c #BBBDD9",
"%. c #93A1E1",
"&. c #A5B1E4",
"*. c #ACB7E7",
"=. c #ADB8E7",
"-. c #AEB9E8",
";. c #BEC2DD",
":. c #BDC6EC",
">. c #BFC8ED",
",. c #C1C5DF",
"<. c #C8CDE7",
"1. c #C0C8ED",
"2. c #CACFEA",
"3. c #CED4EE",
"4. c #D4D6E4",
"5. c #D7D8E6",
"6. c #D9DAE7",
"7. c #DBDDEB",
"8. c #DEE0EE",
"9. c #E2E4EF",
"0. c #E2E4F1",
"q. c #E7EAF8",
"w. c #E9ECF9",
"e. c #F5F6FA",
"r. c #FFFFFF",
"t.  c #11498E",
/* pixels */
"t.t.t.t.t.t.t.t.t.t.t.t.t.t.t.t.t.t.t.t.t.t.t.t.t.t.t.t.t.t.t.t.t.t.t.t.t.t.t.t.t.t.t.t.t.t.t.t.t.t.t.t.t.t.t.t.t.t.t.t.t.t.t.t.",
"t.t.t.t.t.t.t.t.t.t.t.t.t.t.t.t.t.t.t.t.t.t.t.t.t.t.t.t.t.t.t.t.t.t.t.t.t.t.t.t.t.t.t.t.t.t.t.t.t.t.t.t.t.t.t.t.t.t.t.t.t.t.t.t.",
"t.t.t.t.t.t.t.t.t.t.t.t.t.t.t.t.t.t.t.t.t.t.t.t.t.t.t.t.t.t.t.t.t.t.t.t.t.t.t.t.t.t.t.t.t.t.t.t.t.t.t.t.t.t.t.t.t.t.t.t.t.t.t.t.",
"t.t.t.t.t.t.t.t.t.t.t.t.t.t.t.t.t.t.t.t.t.t.t.t.t.t.t.t.t.t.t.t.t.t.t.t.t.t.t.t.t.t.t.t.t.t.t.t.t.t.t.t.t.t.t.t.t.t.t.t.t.t.t.t.",
"t.t.t.t.t.t.t.t.t.t.t.t.t.t.t.t.t.t.t.t.t.t.t.t.t.t.t.t.t.t.t.t.t.t.t.t.t.t.t.t.t.t.t.t.t.t.t.t.t.t.t.t.t.t.t.t.t.t.t.t.t.t.t.t.",
"t.t.t.t.t.t.t.t.t.t.t.t.t.t.t.t.t.t.t.t.t.t.t.t.t.t.t.t.t.t.t.t.t.t.t.t.t.t.t.t.t.t.t.t.t.t.t.t.t.t.t.t.t.t.t.t.t.t.t.t.t.t.t.t.",
"t.t.t.t.t.t.t.t.t.t.t.t.t.t.t.t.t.t.t.t.t.t.t.t.t.t.t.t.t.t.t.t.t.t.t.t.t.t.t.t.t.t.t.t.t.t.t.t.t.t.t.t.t.t.t.t.t.t.t.t.t.t.t.t.",
"t.t.t.t.t.t.t.t.t.t.t.t.t.t.t.t.t.t.t.t.t.t.t.t.t.t.t.t.t.t.t.t.t.t.t.t.t.t.t.t.t.t.t.t.t.t.t.t.t.t.t.t.t.t.t.t.t.t.t.t.t.t.t.t.",
"t.t.t.t.t.t.t.t.t.t.t.t.t.t.t.t.t.t.t.t.t.t.t.t.t.t.t.t.t.t.t.t.t.t.t.t.t.t.t.t.t.t.t.t.t.t.t.t.t.t.t.t.t.t.t.t.t.t.t.t.t.t.t.t.",
"t.t.t.t.t.t.t.t.t.t.t.t.t.t.t.t.t.t.t.t.t.t.t.t.t.t.t.t.t.t.t.t.t.t.t.t.t.t.t.t.t.t.t.t.t.t.t.t.t.t.t.t.t.t.t.t.t.t.t.t.t.t.t.t.",
"t.t.t.t.t.t.t.t.t.t.t.t.t.t.t.t.t.t.t.t.t.t.t.t.t.t.t.t.t.t.t.t.r.r.t.t.t.t.t.t.t.t.t.t.t.t.t.t.t.t.t.t.t.t.t.t.t.t.t.t.t.t.t.t.",
"t.t.t.t.t.t.t.t.t.t.t.t.t.t.t.t.t.t.t.t.t.t.t.t.t.t.t.t.t.t.t.t.r.r.t.t.t.t.t.t.t.t.t.t.t.t.t.t.t.t.t.t.t.t.t.t.t.t.t.t.t.t.t.t.",
"t.t.t.t.t.t.t.t.t.t.t.t.t.t.t.t.t.t.t.t.t.t.t.t.t.t.t.t.t.t.t.t.r.r.r.r.t.t.t.t.t.t.t.t.t.t.t.t.t.t.t.t.t.t.t.t.t.t.t.t.t.t.t.t.",
"t.t.t.t.t.t.t.t.t.t.t.t.t.t.t.t.t.t.t.t.t.t.t.t.t.t.t.t.t.t.t.t.r.e.w.q.t.t.t.t.t.t.t.t.t.t.t.t.t.t.t.t.t.t.t.t.t.t.t.t.t.t.t.t.",
"t.t.t.t.t.t.t.t.t.t.t.t.t.t.t.t.t.t.t.t.t.t.t.t.t.t.t.t.t.t.t.t.r.w.1.:.q.r.t.t.t.t.t.t.t.t.t.t.t.t.t.t.t.t.t.t.t.t.t.t.t.t.t.t.",
"t.t.t.t.t.t.t.t.t.t.t.t.t.t.t.t.t.t.t.t.t.t.t.t.t.t.t.t.t.t.t.t.r.0.O.{ 3.w.t.t.t.t.t.t.t.t.t.t.t.t.t.t.t.t.t.t.t.t.t.t.t.t.t.t.",
"t.t.t.t.t.t.t.t.t.t.t.t.t.t.t.t.t.t.t.t.t.t.t.t.t.t.t.t.t.t.t.t.r.8.( D { 1.w.r.t.t.t.t.t.t.t.t.t.t.t.t.t.t.t.t.t.t.t.t.t.t.t.t.",
"t.t.t.t.t.t.t.t.t.t.t.t.t.t.t.t.t.t.t.t.t.t.t.t.t.t.t.t.t.t.t.t.r.7.~ M F } 3.w.t.t.t.t.t.t.t.t.t.t.t.t.t.t.t.t.t.t.t.t.t.t.t.t.",
"t.t.t.t.t.t.t.t.t.t.t.t.t.t.t.t.t.t.t.t.t.t.t.t.t.t.t.t.t.t.t.t.r.7.~ M M E { 1.w.r.t.t.t.t.t.t.t.t.t.t.t.t.t.t.t.t.t.t.t.t.t.t.",
"t.t.t.t.t.t.t.t.t.t.t.t.t.t.t.t.t.t.t.t.t.t.t.t.t.t.t.t.t.t.t.t.r.8.! j M B G } 3.w.t.t.t.t.t.t.t.t.t.t.t.t.t.t.t.t.t.t.t.t.t.t.",
"t.t.t.t.t.t.t.t.t.t.t.t.t.t.t.t.t.t.t.t.t.t.t.t.t.t.t.t.t.t.t.t.r.0.^ M M M B G } :.w.r.r.r.r.r.t.t.t.t.t.t.t.t.t.t.t.t.t.t.t.t.",
"t.t.t.t.t.t.t.t.t.t.t.t.t.t.t.t.t.t.t.t.t.t.t.t.t.t.t.t.t.t.t.t.6.@.C d l M M N G } 3.q.q.q.q.q.t.t.t.t.t.t.t.t.t.t.t.t.t.t.t.t.",
"t.t.t.t.t.t.r.r.r.r.t.t.t.t.t.t.t.t.t.t.t.t.t.t.t.t.t.t.r.r.r.6.P f w e h M M M N E O.-.=.*.*.:.w.r.r.r.t.t.t.t.t.t.t.t.t.t.t.t.",
"t.t.t.t.t.t.r.e.0.8.t.t.t.t.t.t.t.t.t.t.t.t.t.t.t.t.t.t.5.5.5.+.k 8 0 e h M M M l N G ` _ Q _ } 3.q.q.q.t.t.t.t.t.t.t.t.t.t.t.t.",
"t.t.t.t.t.t.r.0.o.X.7.r.t.t.t.t.t.t.t.t.t.t.t.t.r.r.r.6.I x c x f a h h M M M M M M V Z V V V R } *.*.:.w.r.r.r.t.t.t.t.t.t.t.t.",
"t.t.t.t.t.t.r.6.W W 7.r.t.t.t.t.t.t.t.t.t.t.t.t.5.5.5.+.k 3 8 q j M M M M M M M M M M M l M l V G _ _ { 3.q.q.w.t.t.t.t.t.t.t.t.",
"t.t.t.t.t.t.r.7.W W 7.r.t.t.t.t.t.t.t.t.r.r.r.6.I c x k h h f h M M M M M M M M M M M M M M M M V V N R } =.=.:.w.r.t.t.t.t.t.t.",
"t.t.t.t.t.t.r.7.W R ;.0.t.t.t.t.t.t.t.t.5.5.5.+.j 8 8 w j M M M M M M M j h j M M M M M M l h l m M M B G _ Q } 3.w.t.t.t.t.t.t.",
"t.t.t.t.t.t.r.7.W M K X.0.r.t.t.t.t.r.6.I c c k f h h h l M M M M M M h e e j M M M M M M h e e h M M M N V V G } 1.w.r.t.t.t.t.",
"t.t.t.t.t.t.r.6.L a h R ,.9.t.t.t.t.6.+.k 9 9 w h M M M M M M M j h m h 0 0 h M M M M M M a > ; e h M M M M m N G } 3.w.t.t.t.t.",
"t.t.t.t.t.t.r.5.b 0 s B R X.0.r.r.6.I k h h a h l M M M M M M h e e j h 0 0 h M M M M M M 7 & + ; e j M M m M M N R } 1.w.r.t.t.",
"t.t.t.t.t.t.r.5.P k h h h L ,.0.0.#.k q h M M M M M M M M M M h 0 0 h h 0 0 h M M M M M N 5 . X , v l h j M M M M N G { <.9.t.t.",
"t.t.t.t.t.t.t.t.6.+.k w h B R ~ ^ K l h M M M M M M M M M M M h 0 q h h 0 0 h M M M M N M 5 . % Y #.c e d N M M M M N A W X.8.r.",
"t.t.t.t.t.t.t.t.r.5.v 9 a M M M m M M M M M M M M M M M M M M h e e h h e e j M M M M M M 5 . $ H T k q h M M l M M l l l W 7.r.",
"t.t.t.t.t.t.t.t.r.5.x 0 a M M M M M M M M M M M M M M M M M M j h j M l h j l M M M N M N 5 X   # : 7 h m m m m M l M l m ~ 7.r.",
"t.t.t.t.t.t.t.t.r.4.c 0 a M h s a a a h j M M M M M M M M M M M M M M M M M M M M M l M Z u = @ @ * t S S Z Z Z Z Z Z N d L 6.r.",
"t.t.t.t.t.t.t.t.r.4.x 9 h j e 9 0 0 9 w h M M M M M M M M M M M M M M M M M M M m M l N G G C z g C G ' ` ` ' ` ` ` ` S i b 4.r.",
"t.t.t.t.t.t.t.t.r.4.c 8 e h c c c x c b P R M a a h M M M M M M M M M M M M V V Z Z Z D ' [ [ %.[ ] [ ' G G F F E G G A M I 5.r.",
"t.t.t.t.t.t.t.t.r.5.v 2 3 g ..6.4.4.4.6.7.$.k 9 8 w h M M M M M M M M M M B E ` _ _ _ ` ' [ %.[ ] [ [ _ l e r i e e w B @.6.t.t.",
"t.t.t.t.t.t.t.t.5.| g 4 u I 7.r.r.r.r.r.r.6.P k c c h j M M M M h h s j M D ` [ [ [ [ [ [ [ %.' ] ' G S d r e e w a g I 7.r.t.t.",
"t.t.t.t.t.t.r.5.P r 3 u ..6.t.t.t.t.t.t.t.t.5.4.6.+.x w h N M j w 9 0 p S ` ' %.] [ [ ] [ [ ' [ [ ) h s V G F D F ! ;.6.t.t.t.t.",
"t.t.t.t.t.t.r.7.U j k I 6.r.t.t.t.t.t.t.t.t.r.r.w...u 4 e h s f k c c J O.&.' _ _ _ _ _ _ ` _ ` _ S i i S ] &.*.-.>.w.r.t.t.t.t.",
"t.t.t.t.t.t.r.e.6.4.4.6.t.t.t.t.t.t.t.t.t.t.r.9.U u 0 4 4 9 9 k +.5.4.6.0.2.! N N V N V V N B V V M h h M ( 3.q.q.w.t.t.t.t.t.t.",
"t.t.t.t.t.t.r.r.r.r.r.r.t.t.t.t.t.t.t.t.t.t.6.| y < 2 0 g x x I 6.r.r.r.r.8.X.W W ~ W W W W W ~ ~ ~ ~ ~ W X.9.r.r.r.t.t.t.t.t.t.",
"t.t.t.t.t.t.t.t.t.t.t.t.t.t.t.t.t.t.t.t.r.5.P y 4 < < u  .5.5.5.t.t.t.t.t.t.8.7.7.7.7.7.7.8.7.7.7.7.8.7.7.8.t.t.t.t.t.t.t.t.t.t.",
"t.t.t.t.t.t.t.t.t.t.t.t.t.t.t.t.t.t.t.t.r.5.P k x x x P 6.r.r.r.t.t.t.t.t.t.r.r.r.r.r.r.r.r.r.r.r.r.r.r.r.r.t.t.t.t.t.t.t.t.t.t.",
"t.t.t.t.t.t.t.t.t.t.t.t.t.t.t.t.t.t.t.t.t.t.4.4.4.4.4.5.t.t.t.t.t.t.t.t.t.t.t.t.t.t.t.t.t.t.t.t.t.t.t.t.t.t.t.t.t.t.t.t.t.t.t.t.",
"t.t.t.t.t.t.t.t.t.t.t.t.t.t.t.t.t.t.t.t.t.t.r.r.r.r.r.r.t.t.t.t.t.t.t.t.t.t.t.t.t.t.t.t.t.t.t.t.t.t.t.t.t.t.t.t.t.t.t.t.t.t.t.t.",
"t.t.t.t.t.t.t.t.t.t.t.t.t.t.t.t.t.t.t.t.t.t.t.t.t.t.t.t.t.t.t.t.t.t.t.t.t.t.t.t.t.t.t.t.t.t.t.t.t.t.t.t.t.t.t.t.t.t.t.t.t.t.t.t.",
"t.t.t.t.t.t.t.t.t.t.t.t.t.t.t.t.t.t.t.t.t.t.t.t.t.t.t.t.t.t.t.t.t.t.t.t.t.t.t.t.t.t.t.t.t.t.t.t.t.t.t.t.t.t.t.t.t.t.t.t.t.t.t.t.",
"t.t.t.t.t.t.t.t.t.t.t.t.t.t.t.t.t.t.t.t.t.t.t.t.t.t.t.t.t.t.t.t.t.t.t.t.t.t.t.t.t.t.t.t.t.t.t.t.t.t.t.t.t.t.t.t.t.t.t.t.t.t.t.t.",
"t.t.t.t.t.t.t.t.t.t.t.t.t.t.t.t.t.t.t.t.t.t.t.t.t.t.t.t.t.t.t.t.t.t.t.t.t.t.t.t.t.t.t.t.t.t.t.t.t.t.t.t.t.t.t.t.t.t.t.t.t.t.t.t.",
"t.t.t.t.t.t.t.t.t.t.t.t.t.t.t.t.t.t.t.t.t.t.t.t.t.t.t.t.t.t.t.t.t.t.t.t.t.t.t.t.t.t.t.t.t.t.t.t.t.t.t.t.t.t.t.t.t.t.t.t.t.t.t.t.",
"t.t.t.t.t.t.t.t.t.t.t.t.t.t.t.t.t.t.t.t.t.t.t.t.t.t.t.t.t.t.t.t.t.t.t.t.t.t.t.t.t.t.t.t.t.t.t.t.t.t.t.t.t.t.t.t.t.t.t.t.t.t.t.t.",
"t.t.t.t.t.t.t.t.t.t.t.t.t.t.t.t.t.t.t.t.t.t.t.t.t.t.t.t.t.t.t.t.t.t.t.t.t.t.t.t.t.t.t.t.t.t.t.t.t.t.t.t.t.t.t.t.t.t.t.t.t.t.t.t.",
"t.t.t.t.t.t.t.t.t.t.t.t.t.t.t.t.t.t.t.t.t.t.t.t.t.t.t.t.t.t.t.t.t.t.t.t.t.t.t.t.t.t.t.t.t.t.t.t.t.t.t.t.t.t.t.t.t.t.t.t.t.t.t.t.",
"t.t.t.t.t.t.t.t.t.t.t.t.t.t.t.t.t.t.t.t.t.t.t.t.t.t.t.t.t.t.t.t.t.t.t.t.t.t.t.t.t.t.t.t.t.t.t.t.t.t.t.t.t.t.t.t.t.t.t.t.t.t.t.t.",
"t.t.t.t.t.t.t.t.t.t.t.t.t.t.t.t.t.t.t.t.t.t.t.t.t.t.t.t.t.t.t.t.t.t.t.t.t.t.t.t.t.t.t.t.t.t.t.t.t.t.t.t.t.t.t.t.t.t.t.t.t.t.t.t.",
"t.t.t.t.t.t.t.t.t.t.t.t.t.t.t.t.t.t.t.t.t.t.t.t.t.t.t.t.t.t.t.t.t.t.t.t.t.t.t.t.t.t.t.t.t.t.t.t.t.t.t.t.t.t.t.t.t.t.t.t.t.t.t.t.",
"t.t.t.t.t.t.t.t.t.t.t.t.t.t.t.t.t.t.t.t.t.t.t.t.t.t.t.t.t.t.t.t.t.t.t.t.t.t.t.t.t.t.t.t.t.t.t.t.t.t.t.t.t.t.t.t.t.t.t.t.t.t.t.t.",
"t.t.t.t.t.t.t.t.t.t.t.t.t.t.t.t.t.t.t.t.t.t.t.t.t.t.t.t.t.t.t.t.t.t.t.t.t.t.t.t.t.t.t.t.t.t.t.t.t.t.t.t.t.t.t.t.t.t.t.t.t.t.t.t.",
"t.t.t.t.t.t.t.t.t.t.t.t.t.t.t.t.t.t.t.t.t.t.t.t.t.t.t.t.t.t.t.t.t.t.t.t.t.t.t.t.t.t.t.t.t.t.t.t.t.t.t.t.t.t.t.t.t.t.t.t.t.t.t.t.",
"t.t.t.t.t.t.t.t.t.t.t.t.t.t.t.t.t.t.t.t.t.t.t.t.t.t.t.t.t.t.t.t.t.t.t.t.t.t.t.t.t.t.t.t.t.t.t.t.t.t.t.t.t.t.t.t.t.t.t.t.t.t.t.t.",
"t.t.t.t.t.t.t.t.t.t.t.t.t.t.t.t.t.t.t.t.t.t.t.t.t.t.t.t.t.t.t.t.t.t.t.t.t.t.t.t.t.t.t.t.t.t.t.t.t.t.t.t.t.t.t.t.t.t.t.t.t.t.t.t."
};
