/* XPM */
static char *result[] = {
/* columns rows colors chars-per-pixel */
"64 64 127 2 ",
"   c #090804",
".  c #141624",
"X  c #161824",
"o  c #191922",
"O  c #1B1E2B",
"+  c #1C1E39",
"@  c #1E212F",
"#  c #2B2A26",
"$  c #2D2C29",
"%  c #333334",
"&  c #252842",
"*  c #323751",
"=  c #373C56",
"-  c #3A3F74",
";  c #3D4276",
":  c #474856",
">  c #404579",
",  c #585A7E",
"<  c #3C4286",
"1  c #3F4488",
"2  c #464B8C",
"3  c #494E8E",
"4  c #4E5584",
"5  c #545B8D",
"6  c #595F8E",
"7  c #474D90",
"8  c #484E90",
"9  c #4D5293",
"0  c #4F5698",
"q  c #515696",
"w  c #545B97",
"e  c #545B9C",
"r  c #5A619F",
"t  c #5F689B",
"y  c #62669D",
"u  c #636A9E",
"i  c #565EA0",
"p  c #585FA0",
"a  c #5E66A6",
"s  c #5F67A8",
"d  c #5F68A8",
"f  c #646BA5",
"g  c #696DA2",
"h  c #636BAA",
"j  c #686FAB",
"k  c #6C72A6",
"l  c #6770AF",
"z  c #6D73AA",
"x  c #7276A7",
"c  c #7377A9",
"v  c #747AAC",
"b  c #797DAE",
"n  c #666FB0",
"m  c #6770B0",
"M  c #6B74B2",
"N  c #6F78B5",
"B  c #6F79B8",
"V  c #737CB6",
"C  c #727CBB",
"Z  c #7B81B3",
"A  c #7680BE",
"S  c #7C85BD",
"D  c #7682C2",
"F  c #7A85C5",
"G  c #7A86C8",
"H  c #7D89C9",
"J  c #959590",
"K  c #8287B8",
"L  c #848CBF",
"P  c #898FBE",
"I  c #8E91BA",
"U  c #9194BA",
"Y  c #A5A6AF",
"T  c #ABACBA",
"R  c #838CC3",
"E  c #818ECB",
"W  c #8E95C4",
"Q  c #8390CF",
"!  c #8E97CB",
"~  c #9097C5",
"^  c #9198C6",
"/  c #9B9EC1",
"(  c #939BCD",
")  c #828FD1",
"_  c #8592D2",
"`  c #8996D5",
"'  c #8E9CDA",
"]  c #919FDE",
"[  c #92A0DF",
"{  c #9BA6DA",
"}  c #9EA8DC",
"|  c #A4A9CF",
" . c #ADAFCC",
".. c #B1B4CF",
"X. c #A6ACD1",
"o. c #A9AED2",
"O. c #A1AADA",
"+. c #B3B5D0",
"@. c #B6B8D4",
"#. c #B9BCD7",
"$. c #BBBDD9",
"%. c #93A1E1",
"&. c #A5B1E4",
"*. c #ACB7E7",
"=. c #ADB8E7",
"-. c #AEB9E8",
";. c #BEC2DD",
":. c #BDC6EC",
">. c #BFC8ED",
",. c #C1C5DF",
"<. c #C8CDE7",
"1. c #C0C8ED",
"2. c #CACFEA",
"3. c #CED4EE",
"4. c #D5D6E4",
"5. c #D6D8E6",
"6. c #D9DAE6",
"7. c #DBDDEB",
"8. c #DEE0EE",
"9. c #DFE1F0",
"0. c #E2E3EF",
"q. c #E3E5F1",
"w. c #E7EAF8",
"e. c #EAECF9",
"r. c #F5F6F9",
"t. c #FFFFFF",
"y. c #11498E",
/* pixels */
"y.y.y.y.y.y.y.y.y.y.y.y.y.y.y.y.y.y.y.y.t.t.y.y.y.y.y.y.y.y.y.y.y.y.y.y.y.y.t.t.t.t.y.y.y.y.y.y.y.y.y.y.y.y.y.y.y.y.y.y.y.y.y.y.",
"y.y.y.y.y.y.y.y.y.y.y.y.y.y.y.y.y.y.y.y.t.t.y.y.y.y.y.y.y.y.y.y.y.y.y.y.y.y.8.q.r.t.y.y.y.y.y.y.y.y.y.y.y.y.y.y.y.y.y.y.y.y.y.y.",
"y.y.y.y.y.y.y.y.y.y.y.y.y.y.y.y.y.y.y.y.t.t.t.t.y.y.y.y.y.y.y.y.y.y.t.t.t.0.| o.q.t.y.y.y.y.y.y.y.y.y.y.y.y.y.y.y.y.y.y.y.y.y.y.",
"y.y.y.y.y.y.y.y.y.y.y.y.y.y.y.y.y.y.y.y.t.r.7.5.y.y.y.y.y.y.y.y.y.y.5.5.7.;.S W 7.t.y.y.y.y.y.y.y.y.y.y.y.y.y.y.y.y.y.y.y.y.y.y.",
"y.y.y.y.y.y.y.y.y.y.y.y.y.y.y.y.y.y.y.y.t.6.U I 5.t.y.y.y.y.t.t.t.6.I b P L M W 6.t.y.y.y.y.y.y.y.y.y.y.y.y.y.y.y.y.y.y.y.y.y.y.",
"y.y.y.y.y.y.y.y.y.y.y.y.y.y.y.y.y.y.y.y.t.4.x f @.q.y.y.y.y.5.5.5.+.g 0 s N R X.q.t.y.y.y.y.y.y.y.y.y.y.y.y.y.y.y.y.y.y.y.y.y.y.",
"y.y.y.y.y.y.y.y.y.y.y.y.y.y.y.y.y.y.y.y.t.4.x q Z X.q.t.t.6.U c x x f s h L ,.0.y.y.y.y.y.y.y.y.y.y.y.y.y.y.y.y.y.y.y.y.y.y.y.y.",
"y.y.y.y.y.y.y.y.y.y.y.y.y.y.y.y.y.y.y.y.t.4.c 7 a R ,.7.6.+.k 7 7 0 h V R o.0.t.y.y.y.y.y.y.y.y.y.y.y.y.y.y.y.y.y.y.y.y.y.y.y.y.",
"y.y.y.y.y.y.y.y.y.y.y.y.y.y.y.y.y.y.y.y.t.4.c 7 s C R I Z k h s h s h R ,.q.y.y.y.y.y.y.y.y.y.y.y.y.y.y.y.y.y.y.y.y.y.y.y.y.y.y.",
"y.y.y.y.y.y.y.y.y.y.y.y.y.y.y.y.y.y.y.y.t.5.U k h h m s 0 e h M M V R o.q.t.y.y.y.y.y.y.y.y.y.y.y.y.y.y.y.y.y.y.y.y.y.y.y.y.y.y.",
"y.y.y.y.y.y.y.y.y.y.y.y.y.y.y.y.y.y.y.y.y.y.6.+.g q d M h h M z j R ,.q.y.y.y.y.y.y.y.y.y.y.y.y.y.y.y.y.y.y.y.y.y.y.y.y.y.y.y.y.",
"y.y.y.y.y.y.y.y.y.y.y.y.y.y.y.y.y.y.y.y.y.y.t.6.I k f h M M M V R X.0.t.y.y.y.y.y.y.y.y.y.y.y.y.y.y.y.y.y.y.y.y.y.y.y.y.y.y.y.y.",
"y.y.y.y.y.y.y.y.y.y.y.y.y.y.y.y.y.y.y.y.y.y.y.y.6.+.k e h M M R ,.0.y.y.y.y.y.y.y.y.y.y.y.y.y.y.y.y.y.y.y.y.y.y.y.y.y.y.y.y.y.y.",
"y.y.y.y.y.y.y.y.y.y.y.y.y.y.y.y.y.y.y.y.y.y.y.y.t.5.v 7 s m m W 0.t.y.y.y.y.y.y.y.y.y.y.y.y.y.y.y.y.y.y.y.y.y.y.y.y.y.y.y.y.y.y.",
"y.y.y.y.y.y.y.y.y.y.y.y.y.y.y.y.y.y.y.y.y.y.y.y.t.4.c 9 s M m ^ 7.t.y.y.y.y.y.y.y.y.y.y.y.y.y.y.y.y.y.y.y.y.y.y.y.y.y.y.y.y.y.y.",
"y.y.y.y.y.y.y.y.y.y.y.y.y.y.y.y.y.y.y.y.y.y.y.y.t.4.x 9 s M M ^ 8.t.y.y.y.y.y.y.y.y.y.y.y.y.y.y.y.y.y.y.y.y.y.y.y.y.y.y.y.y.y.y.",
"y.y.y.y.y.y.y.y.y.y.y.y.y.y.y.y.y.y.y.y.y.y.y.y.t.4.x 9 s M m ^ 8.t.y.y.y.y.y.y.y.y.y.y.y.y.y.y.y.y.y.y.y.y.y.y.y.y.y.y.y.y.y.y.",
"y.y.y.y.y.y.y.y.y.y.y.y.y.y.y.y.y.y.y.y.y.y.y.y.t.4.x 7 s M m L #.6.y.y.y.y.y.y.y.y.y.y.y.y.y.y.y.y.y.y.y.y.y.y.y.y.y.y.y.y.y.y.",
"y.y.y.y.y.y.y.y.y.y.y.y.y.y.y.y.y.y.y.y.y.y.y.y.t.4.c 7 s M M z k U 7.t.y.y.y.y.y.y.y.y.y.y.y.y.y.y.y.y.y.y.y.y.y.y.y.y.y.y.y.y.",
"y.y.y.y.y.y.y.y.y.y.y.y.y.y.y.y.y.y.y.y.y.y.y.y.t.6.b 0 h M M h 0 k +.6.y.y.y.y.y.y.y.y.y.y.y.y.y.y.y.y.y.y.y.y.y.y.y.y.y.y.y.y.",
"y.y.y.y.y.y.y.y.y.y.y.y.y.y.y.y.y.y.t.t.y.y.y.y.t.7.W f n M M z h h k U 5.t.y.y.y.y.y.y.y.y.y.y.y.y.y.y.y.y.y.y.y.y.y.y.y.y.y.y.",
"y.y.y.y.y.y.y.y.y.y.y.y.y.y.y.y.y.y.4.4.y.y.y.y.6.#.L M M M M M N s 2 x 5.t.y.y.y.y.y.y.y.y.y.y.y.y.y.y.y.y.y.y.y.y.y.y.y.y.y.y.",
"y.y.y.y.y.y.y.y.y.y.y.y.y.y.y.y.t.5.I I 6.t.t.5.P x M M M M M M M h 7 c 5.t.y.y.y.y.y.y.y.y.y.y.y.y.y.y.y.y.y.y.y.y.y.y.y.y.y.y.",
"y.y.y.y.y.y.y.y.y.y.y.y.y.y.y.y.t.4.k y  .0.t.4.k 7 f M M M M M M h 0 c +.6.y.y.y.y.y.y.y.y.y.y.y.y.y.y.y.y.y.y.y.y.y.y.y.y.y.y.",
"y.y.y.y.y.y.y.y.y.y.y.y.y.y.y.y.t.4.k 2 y U e.6.x 3 f M M M M M M M h h k U 5.t.y.y.y.y.y.y.y.y.y.y.y.y.y.y.y.y.y.y.y.y.y.y.y.y.",
"y.y.y.y.y.y.y.y.y.y.y.y.y.y.y.y.t.4.x < < u +.@.x w h M M M M M M M M s 7 x 5.t.y.y.y.y.y.y.y.y.y.y.y.y.y.y.y.y.y.y.y.y.y.y.y.y.",
"y.y.y.y.y.y.y.y.y.y.y.y.y.y.y.y.t.4.x < < q g k j h n M M M M M M M M f 7 c 5.t.y.y.y.y.y.y.y.y.y.y.y.y.y.y.y.y.y.y.y.y.y.y.y.y.",
"y.y.y.y.y.y.y.y.y.y.y.y.y.y.y.y.t.6.U u q 2 7 e h M M M M M M M M M M h e k ..6.y.y.y.y.y.y.y.y.y.y.y.y.y.y.y.y.y.y.y.y.y.y.y.y.",
"y.y.y.y.y.y.y.y.y.y.y.y.y.y.y.y.y.y.6...g 3 i h M M M M M M M M M M M M h h g U 5.t.y.y.y.y.y.y.y.y.y.y.y.y.y.y.y.y.y.y.y.y.y.y.",
"y.y.y.y.y.y.y.y.y.y.y.y.y.y.y.y.y.y.t.5.c 7 s N M M M M M M M M M M M M M f 7 c 5.t.y.y.y.y.y.y.y.y.y.y.y.y.y.y.y.y.y.y.y.y.y.y.",
"y.y.y.y.y.y.y.y.y.y.y.y.y.y.y.y.y.y.t.5.x 7 s N M M M M M M N M M M M M M s 7 c 5.t.y.y.y.y.y.y.y.y.y.y.y.y.y.y.y.y.y.y.y.y.y.y.",
"y.y.y.y.y.y.y.y.y.y.y.y.y.y.y.y.y.y.t.5.U k f h M M M M z n h h h h M M M h e x +.6.y.y.y.y.y.y.y.y.y.y.y.y.y.y.y.y.y.y.y.y.y.y.",
"y.y.y.y.y.y.y.y.y.y.y.y.y.y.y.y.y.y.y.y.6...k e h N N l M h w 9 9 e h N M M h h k I 6.t.t.t.t.t.t.t.t.t.t.t.y.y.y.y.y.y.y.y.y.y.",
"y.y.y.y.y.y.y.y.y.y.y.y.y.y.y.y.y.y.y.y.t.5.c 3 a M M N N h r 9 q e h M M M M f 7 u @.0.8.7.7.7.q.e.r.t.t.t.y.y.y.y.y.y.y.y.y.y.",
"y.y.y.y.y.y.y.y.y.y.y.y.y.y.y.y.y.y.y.y.t.5.c 9 a M N l M l l d f h n N M M M h 9 e Z ^ ^ ~ W ( O.1.e.t.y.y.y.y.y.y.y.y.y.y.y.y.",
"y.y.y.y.y.y.y.y.y.y.y.y.y.y.y.y.y.y.y.y.t.6.Z a h M M M M l h h h h f h M M M h e e h m M n N G { :.w.t.y.y.y.y.y.y.y.y.y.y.y.y.",
"y.y.y.y.y.y.y.y.y.y.y.y.y.y.y.y.y.y.y.y.t.q.O.A N M M M M h r 9 q q q e h N M l h h l M m B G } 3.w.y.y.y.y.y.y.y.y.y.y.y.y.y.y.",
"y.y.y.y.y.y.y.y.y.y.y.y.y.y.y.y.y.y.y.y.8.3.&.` F B M M M l w 9 8 8 q e h M M M M M M M B R } 1.e.t.y.y.y.y.y.y.y.y.y.y.y.y.y.y.",
"y.y.y.y.y.y.y.y.y.y.y.y.y.y.y.y.y.y.t.8.| ! ' [ ` H A l M l l h f h h h l M M M M M M V G } 3.e.y.y.y.y.y.y.y.y.y.y.y.y.y.y.y.y.",
"y.y.y.y.y.y.y.y.y.y.y.y.y.y.y.y.y.y.t.7.W N Q [ [ ` A l M l M M M M M N M M M M M M B H } >.e.t.y.y.y.y.y.y.y.y.y.y.y.y.y.y.y.y.",
"y.y.y.y.y.y.y.y.y.y.y.y.y.y.y.y.y.y.t.7.W B _ %.[ _ A l M M M M M M M M M M M M j B G } 3.e.y.y.y.y.y.y.y.y.y.y.y.y.y.y.y.y.y.y.",
"y.y.y.y.y.y.y.y.y.y.y.y.y.y.y.y.y.y.t.7.W C _ %.[ ` A l l M M M M M M M M M M N C R } >.e.t.y.y.y.y.y.y.y.y.y.y.y.y.y.y.y.y.y.y.",
"y.y.y.y.y.y.y.y.y.y.y.y.y.y.y.y.y.y.t.7.^ B _ ] %._ B M M M M M M M M M M M M C H O.3.e.y.y.y.y.y.y.y.y.y.y.y.y.y.y.y.y.y.y.y.y.",
"y.y.y.y.y.y.y.y.y.y.y.y.y.y.y.y.y.y.t.7.W B _ ] [ ` F A N N M N N M N M M n M C _ -.w.t.y.y.y.y.y.y.y.y.y.y.y.y.y.y.y.y.y.y.y.y.",
"y.y.y.y.y.y.y.y.y.y.y.y.y.y.y.y.y.y.t.8.^ B ` [ %.' ` H A M N N N M M M M M M C _ -.w.t.y.y.y.y.y.y.y.y.y.y.y.y.y.y.y.y.y.y.y.y.",
"y.y.y.y.y.y.y.y.y.y.y.y.y.y.y.y.y.y.t.7.W B _ [ ' %.%.H t 4 4 4 4 5 a j M l n C ) -.w.t.y.y.y.y.y.y.y.y.y.y.y.y.y.y.y.y.y.y.y.y.",
"y.y.y.y.y.y.y.y.y.y.y.y.y.y.y.y.y.y.t.7.^ B _ ' ' %.%.Z = . . . X & > e j M M C ) *.w.t.y.y.y.y.y.y.y.y.y.y.y.y.y.y.y.y.y.y.y.y.",
"y.y.y.y.y.y.y.y.y.y.y.y.y.y.y.y.y.y.t.7.^ C _ %.%.%.%.z @   $ % o + ; i h M C R } :.w.t.y.y.y.y.y.y.y.y.y.y.y.y.y.y.y.y.y.y.y.y.",
"y.y.y.y.y.y.y.y.y.y.y.y.y.y.y.y.y.y.t.7.~ C _ %.] [ %.k O # J Y , ; w h z C H } 3.w.y.y.y.y.y.y.y.y.y.y.y.y.y.y.y.y.y.y.y.y.y.y.",
"y.y.y.y.y.y.y.y.y.y.y.y.y.y.y.y.y.y.t.7.W N D _ ' %.%.v * : T #.v e h M M C _ *.e.t.y.y.y.y.y.y.y.y.y.y.y.y.y.y.y.y.y.y.y.y.y.y.",
"y.y.y.y.y.y.y.y.y.y.y.y.y.y.y.y.y.y.t.8.^ h i h Q %.%.H t 6 k z h h M M M B _ *.w.t.y.y.y.y.y.y.y.y.y.y.y.y.y.y.y.y.y.y.y.y.y.y.",
"y.y.y.y.y.y.y.y.y.y.y.y.y.y.y.y.y.y.t.7.W h i s A _ ' ` A h w e h N M M C H } :.w.t.y.y.y.y.y.y.y.y.y.y.y.y.y.y.y.y.y.y.y.y.y.y.",
"y.y.y.y.y.y.y.y.y.y.y.y.y.y.y.y.y.y.t.7.W M F C d l Q ` D l h h M M M B H } 3.w.y.y.y.y.y.y.y.y.y.y.y.y.y.y.y.y.y.y.y.y.y.y.y.y.",
"y.y.y.y.y.y.y.y.y.y.y.y.y.y.y.y.y.y.t.8.X.! ] H e e H ` A M M M M M M C _ =.w.t.y.y.y.y.y.y.y.y.y.y.y.y.y.y.y.y.y.y.y.y.y.y.y.y.",
"y.y.y.y.y.y.y.y.y.y.y.y.y.y.y.y.y.y.y.y.0.<.&.G e e H ` A M M M M M l C _ *.w.t.y.y.y.y.y.y.y.y.y.y.y.y.y.y.y.y.y.y.y.y.y.y.y.y.",
"y.y.y.y.y.y.y.y.y.y.y.y.y.y.y.y.y.y.y.y.t.e.*.G e a H _ C M m M M M N H } :.w.t.y.y.y.y.y.y.y.y.y.y.y.y.y.y.y.y.y.y.y.y.y.y.y.y.",
"y.y.y.y.y.y.y.y.y.y.y.y.y.y.y.y.y.y.y.y.t.w.-.G e e E ` C m M M z B H } 3.e.y.y.y.y.y.y.y.y.y.y.y.y.y.y.y.y.y.y.y.y.y.y.y.y.y.y.",
"y.y.y.y.y.y.y.y.y.y.y.y.y.y.y.y.y.y.y.y.t.e.>.( a e H ` A M M M N H } 1.e.t.y.y.y.y.y.y.y.y.y.y.y.y.y.y.y.y.y.y.y.y.y.y.y.y.y.y.",
"y.y.y.y.y.y.y.y.y.y.y.y.y.y.y.y.y.y.y.y.y.y.e.;.g e H ` A M M N H } 3.e.y.y.y.y.y.y.y.y.y.y.y.y.y.y.y.y.y.y.y.y.y.y.y.y.y.y.y.y.",
"y.y.y.y.y.y.y.y.y.y.y.y.y.y.y.y.y.y.y.y.y.y.t.6.U v D D N m M D { >.e.t.y.y.y.y.y.y.y.y.y.y.y.y.y.y.y.y.y.y.y.y.y.y.y.y.y.y.y.y.",
"y.y.y.y.y.y.y.y.y.y.y.y.y.y.y.y.y.y.y.y.y.y.y.y.7.@.v i h z n R <.e.y.y.y.y.y.y.y.y.y.y.y.y.y.y.y.y.y.y.y.y.y.y.y.y.y.y.y.y.y.y.",
"y.y.y.y.y.y.y.y.y.y.y.y.y.y.y.y.y.y.y.y.y.y.y.y.t.6.U v R ^ W X.q.t.y.y.y.y.y.y.y.y.y.y.y.y.y.y.y.y.y.y.y.y.y.y.y.y.y.y.y.y.y.y.",
"y.y.y.y.y.y.y.y.y.y.y.y.y.y.y.y.y.y.y.y.y.y.y.y.y.y.5.5.6.7.7.8.y.y.y.y.y.y.y.y.y.y.y.y.y.y.y.y.y.y.y.y.y.y.y.y.y.y.y.y.y.y.y.y.",
"y.y.y.y.y.y.y.y.y.y.y.y.y.y.y.y.y.y.y.y.y.y.y.y.y.y.t.t.t.t.t.t.y.y.y.y.y.y.y.y.y.y.y.y.y.y.y.y.y.y.y.y.y.y.y.y.y.y.y.y.y.y.y.y."
};
