/* XPM */
static char *result[] = {
/* columns rows colors chars-per-pixel */
"64 64 126 2 ",
"   c #090804",
".  c #141624",
"X  c #161824",
"o  c #191922",
"O  c #1B1E2B",
"+  c #1C1E39",
"@  c #1E212F",
"#  c #2B2A26",
"$  c #2D2C29",
"%  c #333334",
"&  c #252842",
"*  c #323751",
"=  c #373C56",
"-  c #3A3F74",
";  c #3D4276",
":  c #474856",
">  c #404579",
",  c #585A7E",
"<  c #3C4286",
"1  c #3F4488",
"2  c #41468A",
"3  c #454B8D",
"4  c #4A4F8F",
"5  c #4E5584",
"6  c #545B8D",
"7  c #595F8E",
"8  c #474D90",
"9  c #484E90",
"0  c #4C5293",
"q  c #4F5698",
"w  c #545B97",
"e  c #545B9C",
"r  c #5D629D",
"t  c #5F689B",
"y  c #62669D",
"u  c #64699E",
"i  c #565EA0",
"p  c #585FA0",
"a  c #5E66A6",
"s  c #5F67A8",
"d  c #5F68A8",
"f  c #656BA5",
"g  c #696DA2",
"h  c #636BAA",
"j  c #686FAB",
"k  c #6C72A5",
"l  c #6770AF",
"z  c #6D73AA",
"x  c #7276A7",
"c  c #7377A9",
"v  c #7479AB",
"b  c #787DAE",
"n  c #666FB0",
"m  c #6770B0",
"M  c #6B74B2",
"N  c #6F79B8",
"B  c #737CB6",
"V  c #727CBB",
"C  c #7C82B4",
"Z  c #7680BE",
"A  c #7982BE",
"S  c #7682C2",
"D  c #7A85C5",
"F  c #7A86C8",
"G  c #7D89C9",
"H  c #959590",
"J  c #8287B8",
"K  c #848BBF",
"L  c #888EBD",
"P  c #8E91BA",
"I  c #9193BA",
"U  c #9598BD",
"Y  c #A5A6AF",
"T  c #ABACBA",
"R  c #838CC4",
"E  c #818ECB",
"W  c #8E95C4",
"Q  c #8390CF",
"!  c #8E97CB",
"~  c #9097C5",
"^  c #9299C6",
"/  c #9B9EC1",
"(  c #939BCD",
")  c #828FD1",
"_  c #8592D2",
"`  c #8996D5",
"'  c #8E9CDA",
"]  c #919FDE",
"[  c #92A0DF",
"{  c #9BA6DA",
"}  c #9EA8DC",
"|  c #ADAFCC",
" . c #ADB0CC",
".. c #B1B3CE",
"X. c #A6ACD1",
"o. c #AAAFD3",
"O. c #A1AADA",
"+. c #B3B5D0",
"@. c #B6B9D4",
"#. c #B9BCD7",
"$. c #BBBDD9",
"%. c #93A1E1",
"&. c #A5B1E4",
"*. c #ACB7E7",
"=. c #ADB8E7",
"-. c #AEB9E8",
";. c #BEC2DD",
":. c #BDC6EC",
">. c #BFC8ED",
",. c #C1C5DF",
"<. c #C8CDE7",
"1. c #C0C8ED",
"2. c #CACFEA",
"3. c #CED4EE",
"4. c #D5D6E4",
"5. c #D7D8E6",
"6. c #D9DAE6",
"7. c #DBDDEB",
"8. c #DEE0EE",
"9. c #E2E3EF",
"0. c #E2E4F1",
"q. c #E7EAF8",
"w. c #EAECF9",
"e. c #F5F6FA",
"r. c #FFFFFF",
"t. c #11498E",
/* pixels */
"t.t.t.t.t.t.t.t.t.t.t.t.t.t.t.t.t.t.t.t.t.t.t.t.t.t.t.t.t.t.t.t.r.r.r.r.r.r.t.t.t.t.t.t.t.t.t.t.t.t.t.t.t.t.t.t.t.t.t.t.t.t.t.t.",
"t.t.t.t.t.t.t.t.t.t.t.t.t.t.t.t.t.t.t.t.t.t.t.t.t.t.t.t.t.t.t.t.9.7.7.7.4.4.t.t.t.t.t.t.t.t.t.t.t.t.t.t.t.t.t.t.t.t.t.t.t.t.t.t.",
"t.t.t.t.t.t.t.t.t.t.t.t.t.t.t.t.t.t.t.t.t.t.t.t.t.t.t.t.t.t.r.0.X.^ ^ L b P 6.r.t.t.t.t.t.t.t.t.t.t.t.t.t.t.t.t.t.t.t.t.t.t.t.t.",
"t.t.t.t.t.t.t.t.t.t.t.t.t.t.t.t.t.t.t.t.t.t.t.t.t.t.t.t.t.t.w.<.R h m h e v @.7.t.t.t.t.t.t.t.t.t.t.t.t.t.t.t.t.t.t.t.t.t.t.t.t.",
"t.t.t.t.t.t.t.t.t.t.t.t.t.t.t.t.t.t.t.t.t.t.t.t.t.t.t.t.r.w.1.{ A l h N D S B I 6.r.t.t.t.t.t.t.t.t.t.t.t.t.t.t.t.t.t.t.t.t.t.t.",
"t.t.t.t.t.t.t.t.t.t.t.t.t.t.t.t.t.t.t.t.t.t.t.t.t.t.t.t.w.3.} F B M M Z ` G w g ;.w.t.t.t.t.t.t.t.t.t.t.t.t.t.t.t.t.t.t.t.t.t.t.",
"t.t.t.t.t.t.t.t.t.t.t.t.t.t.t.t.t.t.t.t.t.t.t.t.t.t.r.w.1.} R N N M M Z ` G e a ( :.w.r.t.t.t.t.t.t.t.t.t.t.t.t.t.t.t.t.t.t.t.t.",
"t.t.t.t.t.t.t.t.t.t.t.t.t.t.t.t.t.t.t.t.t.t.t.t.t.t.w.3.} G N M M l M V ` G e e F -.q.r.t.t.t.t.t.t.t.t.t.t.t.t.t.t.t.t.t.t.t.t.",
"t.t.t.t.t.t.t.t.t.t.t.t.t.t.t.t.t.t.t.t.t.t.t.t.r.w.:.} R N M M M l M V ` G a e D -.q.r.t.t.t.t.t.t.t.t.t.t.t.t.t.t.t.t.t.t.t.t.",
"t.t.t.t.t.t.t.t.t.t.t.t.t.t.t.t.t.t.t.t.t.t.t.t.r.q.*.) V h M M M M M V ` G e e F &.3.8.t.t.t.t.t.t.t.t.t.t.t.t.t.t.t.t.t.t.t.t.",
"t.t.t.t.t.t.t.t.t.t.t.t.t.t.t.t.t.t.t.t.t.t.t.t.r.q.=._ V M M M M M M Z ` G e r G ' ! X.8.r.t.t.t.t.t.t.t.t.t.t.t.t.t.t.t.t.t.t.",
"t.t.t.t.t.t.t.t.t.t.t.t.t.t.t.t.t.t.t.t.t.t.t.t.w.3.} G N M M M h h M S ` G n d Z S M W 7.r.t.t.t.t.t.t.t.t.t.t.t.t.t.t.t.t.t.t.",
"t.t.t.t.t.t.t.t.t.t.t.t.t.t.t.t.t.t.t.t.t.t.r.q.:.{ R N N M M h q w h S ` ' _ Z d i d ! 7.r.t.t.t.t.t.t.t.t.t.t.t.t.t.t.t.t.t.t.",
"t.t.t.t.t.t.t.t.t.t.t.t.t.t.t.t.t.t.t.t.t.t.r.q.*.) B M M M h j c g 7 y E %.%.G d a h ^ 8.r.t.t.t.t.t.t.t.t.t.t.t.t.t.t.t.t.t.t.",
"t.t.t.t.t.t.t.t.t.t.t.t.t.t.t.t.t.t.t.t.t.t.r.q.=._ V M M h e c $.T : * v %.%.' G S M ~ 7.r.t.t.t.t.t.t.t.t.t.t.t.t.t.t.t.t.t.t.",
"t.t.t.t.t.t.t.t.t.t.t.t.t.t.t.t.t.t.t.t.t.t.w.3.} G V n h w - , Y H # O k %.%.[ %.` N ~ 7.r.t.t.t.t.t.t.t.t.t.t.t.t.t.t.t.t.t.t.",
"t.t.t.t.t.t.t.t.t.t.t.t.t.t.t.t.t.t.t.t.r.q.:.{ E B M h i - + o % $   @ k %.[ ] %._ V ~ 7.r.t.t.t.t.t.t.t.t.t.t.t.t.t.t.t.t.t.t.",
"t.t.t.t.t.t.t.t.t.t.t.t.t.t.t.t.t.t.t.t.r.q.*.) B M M n i > & o X X X = C %.[ ] [ _ N ~ 7.r.t.t.t.t.t.t.t.t.t.t.t.t.t.t.t.t.t.t.",
"t.t.t.t.t.t.t.t.t.t.t.t.t.t.t.t.t.t.t.t.r.q.*._ B M M M h a 6 5 5 5 5 t G [ [ ] [ _ N W 7.r.t.t.t.t.t.t.t.t.t.t.t.t.t.t.t.t.t.t.",
"t.t.t.t.t.t.t.t.t.t.t.t.t.t.t.t.t.t.t.t.r.q.*._ V M l M M N M N N M N Z G ` ' [ [ _ V ~ 7.r.t.t.t.t.t.t.t.t.t.t.t.t.t.t.t.t.t.t.",
"t.t.t.t.t.t.t.t.t.t.t.t.t.t.t.t.t.t.t.t.r.w.-._ V M M M M M M M M M M N V D ` [ ] Q V W 7.r.t.t.t.t.t.t.t.t.t.t.t.t.t.t.t.t.t.t.",
"t.t.t.t.t.t.t.t.t.t.t.t.t.t.t.t.t.t.t.t.w.3.} G B M M M M M M M M M M M l V ` [ [ _ N ~ 7.r.t.t.t.t.t.t.t.t.t.t.t.t.t.t.t.t.t.t.",
"t.t.t.t.t.t.t.t.t.t.t.t.t.t.t.t.t.t.r.w.:.} E B M M M M M M M M M M M M M V _ [ [ _ V ~ 7.r.t.t.t.t.t.t.t.t.t.t.t.t.t.t.t.t.t.t.",
"t.t.t.t.t.t.t.t.t.t.t.t.t.t.t.t.t.t.w.3.} F N M M M M M M M M M M M M M M Z _ [ [ _ N W 7.r.t.t.t.t.t.t.t.t.t.t.t.t.t.t.t.t.t.t.",
"t.t.t.t.t.t.t.t.t.t.t.t.t.t.t.t.r.w.1.} G N M M M M M M N M M M M M M M M Z ! [ [ _ N W 6.r.t.t.t.t.t.t.t.t.t.t.t.t.t.t.t.t.t.t.",
"t.t.t.t.t.t.t.t.t.t.t.t.t.t.t.t.w.3.} G N M M M M M M l h f h h d h l M l Z G ` ' ] ! X.8.r.t.t.t.t.t.t.t.t.t.t.t.t.t.t.t.t.t.t.",
"t.t.t.t.t.t.t.t.t.t.t.t.t.t.r.w.>.} R N M M M N M M M h e 0 0 0 q e h M M M N G ` &.<.8.t.t.t.t.t.t.t.t.t.t.t.t.t.t.t.t.t.t.t.t.",
"t.t.t.t.t.t.t.t.t.t.t.t.t.t.q.3.{ F N m M j h h M M M h e 0 q 0 q e h M M M M M S O.0.r.t.t.t.t.t.t.t.t.t.t.t.t.t.t.t.t.t.t.t.t.",
"t.t.t.t.t.t.t.t.t.t.t.t.r.q.:.{ D N M n m h e w h M N h h h h h h h l M M M M l a J 5.r.t.t.t.t.t.t.t.t.t.t.t.t.t.t.t.t.t.t.t.t.",
"t.t.t.t.t.t.t.t.t.t.t.t.r.w.1.O.( W ~ ^ ^ C w 9 h M M M M M h f d l M M M M M a 9 x 4.r.t.t.t.t.t.t.t.t.t.t.t.t.t.t.t.t.t.t.t.t.",
"t.t.t.t.t.t.t.t.t.t.r.r.r.e.w.0.7.7.7.8.0.@.g 8 h M M M M j e q 0 r h M M M M d 9 c 5.r.t.t.t.t.t.t.t.t.t.t.t.t.t.t.t.t.t.t.t.t.",
"t.t.t.t.t.t.t.t.t.t.r.r.r.r.r.r.r.r.r.r.r.5.P k g h M M M h e 0 0 w l M M M M h w z +.6.t.t.t.t.t.t.t.t.t.t.t.t.t.t.t.t.t.t.t.t.",
"t.t.t.t.t.t.t.t.t.t.t.t.t.t.t.t.t.t.t.t.t.t.6...z e h M N n h f a h l M M M M l h h g I 5.r.t.t.t.t.t.t.t.t.t.t.t.t.t.t.t.t.t.t.",
"t.t.t.t.t.t.t.t.t.t.t.t.t.t.t.t.t.t.t.t.t.t.r.5.x 9 s M M M M M M M M M M M M M M f 9 c 5.r.t.t.t.t.t.t.t.t.t.t.t.t.t.t.t.t.t.t.",
"t.t.t.t.t.t.t.t.t.t.t.t.t.t.t.t.t.t.t.t.t.t.r.5.x 8 f M M M M M N M l M M M M M N h 4 c 5.r.t.t.t.t.t.t.t.t.t.t.t.t.t.t.t.t.t.t.",
"t.t.t.t.t.t.t.t.t.t.t.t.t.t.t.t.t.t.t.t.t.t.r.5.I k h h j M M M M M M M M M M M j e 4 u | 6.t.t.t.t.t.t.t.t.t.t.t.t.t.t.t.t.t.t.",
"t.t.t.t.t.t.t.t.t.t.t.t.t.t.t.t.t.t.t.t.t.t.t.t.6.+.z w h M M M M M M M M M B l w 9 4 0 u I 4.r.t.t.t.t.t.t.t.t.t.t.t.t.t.t.t.t.",
"t.t.t.t.t.t.t.t.t.t.t.t.t.t.t.t.t.t.t.t.t.t.t.t.r.5.x 9 s M N M M M M M M l h f x u 0 2 < k 4.r.t.t.t.t.t.t.t.t.t.t.t.t.t.t.t.t.",
"t.t.t.t.t.t.t.t.t.t.t.t.t.t.t.t.t.t.t.t.t.t.t.t.r.5.x 8 f M M M M M M M M h e x @...u < < x 4.r.t.t.t.t.t.t.t.t.t.t.t.t.t.t.t.t.",
"t.t.t.t.t.t.t.t.t.t.t.t.t.t.t.t.t.t.t.t.t.t.t.t.r.5.I g h h m M l M M M M a 9 x 6.0./ y 4 x 4.r.t.t.t.t.t.t.t.t.t.t.t.t.t.t.t.t.",
"t.t.t.t.t.t.t.t.t.t.t.t.t.t.t.t.t.t.t.t.t.t.t.t.t.t.6.+.z w h M M M M M M a 4 x 4.r.9. .y k 4.r.t.t.t.t.t.t.t.t.t.t.t.t.t.t.t.t.",
"t.t.t.t.t.t.t.t.t.t.t.t.t.t.t.t.t.t.t.t.t.t.t.t.t.t.r.5.x 9 f M M M M M M l z P 4.r.r.6.P P 4.r.t.t.t.t.t.t.t.t.t.t.t.t.t.t.t.t.",
"t.t.t.t.t.t.t.t.t.t.t.t.t.t.t.t.t.t.t.t.t.t.t.t.t.t.r.5.x 9 s M M M M M M R #.5.t.t.t.t.5.5.t.t.t.t.t.t.t.t.t.t.t.t.t.t.t.t.t.t.",
"t.t.t.t.t.t.t.t.t.t.t.t.t.t.t.t.t.t.t.t.t.t.t.t.t.t.r.5.I k h h l M M l d P 8.r.t.t.t.t.r.r.t.t.t.t.t.t.t.t.t.t.t.t.t.t.t.t.t.t.",
"t.t.t.t.t.t.t.t.t.t.t.t.t.t.t.t.t.t.t.t.t.t.t.t.t.t.t.t.6.+.k q h M M h e C 5.r.t.t.t.t.t.t.t.t.t.t.t.t.t.t.t.t.t.t.t.t.t.t.t.t.",
"t.t.t.t.t.t.t.t.t.t.t.t.t.t.t.t.t.t.t.t.t.t.t.t.t.t.t.t.r.6.P z M M M d 4 x 4.r.t.t.t.t.t.t.t.t.t.t.t.t.t.t.t.t.t.t.t.t.t.t.t.t.",
"t.t.t.t.t.t.t.t.t.t.t.t.t.t.t.t.t.t.t.t.t.t.t.t.t.t.t.t.t.t.6.#.L l M a 4 x 4.r.t.t.t.t.t.t.t.t.t.t.t.t.t.t.t.t.t.t.t.t.t.t.t.t.",
"t.t.t.t.t.t.t.t.t.t.t.t.t.t.t.t.t.t.t.t.t.t.t.t.t.t.t.t.t.t.r.0.^ l M d 0 x 5.r.t.t.t.t.t.t.t.t.t.t.t.t.t.t.t.t.t.t.t.t.t.t.t.t.",
"t.t.t.t.t.t.t.t.t.t.t.t.t.t.t.t.t.t.t.t.t.t.t.t.t.t.t.t.t.t.r.9.~ n M s 9 c 5.r.t.t.t.t.t.t.t.t.t.t.t.t.t.t.t.t.t.t.t.t.t.t.t.t.",
"t.t.t.t.t.t.t.t.t.t.t.t.t.t.t.t.t.t.t.t.t.t.t.t.t.t.t.t.t.t.0.,.R M M h e x ..7.t.t.t.t.t.t.t.t.t.t.t.t.t.t.t.t.t.t.t.t.t.t.t.t.",
"t.t.t.t.t.t.t.t.t.t.t.t.t.t.t.t.t.t.t.t.t.t.t.t.t.t.t.t.r.9.X.R B N M m h h k I 7.r.t.t.t.t.t.t.t.t.t.t.t.t.t.t.t.t.t.t.t.t.t.t.",
"t.t.t.t.t.t.t.t.t.t.t.t.t.t.t.t.t.t.t.t.t.t.t.t.t.t.t.t.7.<.L h s f f h h e 3 y ..6.t.t.t.t.t.t.t.t.t.t.t.t.t.t.t.t.t.t.t.t.t.t.",
"t.t.t.t.t.t.t.t.t.t.t.t.t.t.t.t.t.t.t.t.t.t.t.t.r.r.r.0.X.L B h w 9 9 0 0 9 2 4 u I 6.r.t.t.t.t.t.t.t.t.t.t.t.t.t.t.t.t.t.t.t.t.",
"t.t.t.t.t.t.t.t.t.t.t.t.t.t.t.t.t.t.t.t.t.t.t.t.8.7.7.;.R h s f z c c c x x v u 4 k 4.r.t.t.t.t.t.t.t.t.t.t.t.t.t.t.t.t.t.t.t.t.",
"t.t.t.t.t.t.t.t.t.t.t.t.t.t.t.t.t.t.t.t.t.t.r.8.X.W W K M a 0 k ..5.5.4.4.4.5.| r g 4.r.t.t.t.t.t.t.t.t.t.t.t.t.t.t.t.t.t.t.t.t.",
"t.t.t.t.t.t.t.t.t.t.t.t.t.t.t.t.t.t.t.t.t.t.r.0.o.W R W ~ L B I 5.r.r.r.r.r.r.6.P U 6.r.t.t.t.t.t.t.t.t.t.t.t.t.t.t.t.t.t.t.t.t.",
"t.t.t.t.t.t.t.t.t.t.t.t.t.t.t.t.t.t.t.t.t.t.r.e.0.6.7.7.7.6.5.5.t.t.t.t.t.t.t.t.5.7.e.r.t.t.t.t.t.t.t.t.t.t.t.t.t.t.t.t.t.t.t.t.",
"t.t.t.t.t.t.t.t.t.t.t.t.t.t.t.t.t.t.t.t.t.t.r.r.r.r.r.r.r.r.r.r.t.t.t.t.t.t.t.t.r.r.r.r.t.t.t.t.t.t.t.t.t.t.t.t.t.t.t.t.t.t.t.t.",
"t.t.t.t.t.t.t.t.t.t.t.t.t.t.t.t.t.t.t.t.t.t.t.t.t.t.t.t.t.t.t.t.t.t.t.t.t.t.t.t.t.t.t.t.t.t.t.t.t.t.t.t.t.t.t.t.t.t.t.t.t.t.t.t.",
"t.t.t.t.t.t.t.t.t.t.t.t.t.t.t.t.t.t.t.t.t.t.t.t.t.t.t.t.t.t.t.t.t.t.t.t.t.t.t.t.t.t.t.t.t.t.t.t.t.t.t.t.t.t.t.t.t.t.t.t.t.t.t.t.",
"t.t.t.t.t.t.t.t.t.t.t.t.t.t.t.t.t.t.t.t.t.t.t.t.t.t.t.t.t.t.t.t.t.t.t.t.t.t.t.t.t.t.t.t.t.t.t.t.t.t.t.t.t.t.t.t.t.t.t.t.t.t.t.t.",
"t.t.t.t.t.t.t.t.t.t.t.t.t.t.t.t.t.t.t.t.t.t.t.t.t.t.t.t.t.t.t.t.t.t.t.t.t.t.t.t.t.t.t.t.t.t.t.t.t.t.t.t.t.t.t.t.t.t.t.t.t.t.t.t.",
"t.t.t.t.t.t.t.t.t.t.t.t.t.t.t.t.t.t.t.t.t.t.t.t.t.t.t.t.t.t.t.t.t.t.t.t.t.t.t.t.t.t.t.t.t.t.t.t.t.t.t.t.t.t.t.t.t.t.t.t.t.t.t.t.",
"t.t.t.t.t.t.t.t.t.t.t.t.t.t.t.t.t.t.t.t.t.t.t.t.t.t.t.t.t.t.t.t.t.t.t.t.t.t.t.t.t.t.t.t.t.t.t.t.t.t.t.t.t.t.t.t.t.t.t.t.t.t.t.t."
};
