/* XPM */
static char *result[] = {
/* columns rows colors chars-per-pixel */
"64 64 126 2 ",
"   c #090804",
".  c #141624",
"X  c #161824",
"o  c #191922",
"O  c #1B1E2B",
"+  c #1C1E39",
"@  c #1E212F",
"#  c #2B2A26",
"$  c #2D2C29",
"%  c #333334",
"&  c #252842",
"*  c #323751",
"=  c #373C56",
"-  c #3A3F74",
";  c #3D4276",
":  c #474856",
">  c #404579",
",  c #585A7E",
"<  c #3C4286",
"1  c #3F4488",
"2  c #41468A",
"3  c #454B8D",
"4  c #4A4F8F",
"5  c #4E5584",
"6  c #545B8D",
"7  c #595F8E",
"8  c #474D90",
"9  c #484E90",
"0  c #4C5293",
"q  c #4F5698",
"w  c #545B97",
"e  c #545B9C",
"r  c #5D629D",
"t  c #5F689B",
"y  c #62669D",
"u  c #64699E",
"i  c #565EA0",
"p  c #585FA0",
"a  c #5E66A6",
"s  c #5F67A8",
"d  c #5F68A8",
"f  c #656BA5",
"g  c #696DA2",
"h  c #636BAA",
"j  c #686FAB",
"k  c #6C72A5",
"l  c #6770AF",
"z  c #6D73AA",
"x  c #7276A7",
"c  c #7377A9",
"v  c #7479AB",
"b  c #787DAE",
"n  c #666FB0",
"m  c #6770B0",
"M  c #6B74B2",
"N  c #6F79B8",
"B  c #737CB6",
"V  c #727CBB",
"C  c #7C82B4",
"Z  c #7680BE",
"A  c #7982BE",
"S  c #7682C2",
"D  c #7A85C5",
"F  c #7A86C8",
"G  c #7D89C9",
"H  c #959590",
"J  c #8287B8",
"K  c #848BBF",
"L  c #888EBD",
"P  c #8E91BA",
"I  c #9193BA",
"U  c #9598BD",
"Y  c #A5A6AF",
"T  c #ABACBA",
"R  c #838CC4",
"E  c #818ECB",
"W  c #8E95C4",
"Q  c #8390CF",
"!  c #8E97CB",
"~  c #9097C5",
"^  c #9299C6",
"/  c #9B9EC1",
"(  c #939BCD",
")  c #828FD1",
"_  c #8592D2",
"`  c #8996D5",
"'  c #8E9CDA",
"]  c #919FDE",
"[  c #92A0DF",
"{  c #9BA6DA",
"}  c #9EA8DC",
"|  c #ADAFCC",
" . c #ADB0CC",
".. c #B1B3CE",
"X. c #A6ACD1",
"o. c #AAAFD3",
"O. c #A1AADA",
"+. c #B3B5D0",
"@. c #B6B9D4",
"#. c #B9BCD7",
"$. c #BBBDD9",
"%. c #93A1E1",
"&. c #A5B1E4",
"*. c #ACB7E7",
"=. c #ADB8E7",
"-. c #AEB9E8",
";. c #BEC2DD",
":. c #BDC6EC",
">. c #BFC8ED",
",. c #C1C5DF",
"<. c #C8CDE7",
"1. c #C0C8ED",
"2. c #CACFEA",
"3. c #CED4EE",
"4. c #D5D6E4",
"5. c #D7D8E6",
"6. c #D9DAE6",
"7. c #DBDDEB",
"8. c #DEE0EE",
"9. c #E2E3EF",
"0. c #E2E4F1",
"q. c #E7EAF8",
"w. c #EAECF9",
"e. c #F5F6FA",
"r. c #FFFFFF",
"t. c #11498E",
/* pixels */
"t.t.t.t.t.t.t.t.t.t.t.t.t.t.t.t.t.t.t.t.t.t.t.t.t.t.t.t.t.t.t.t.t.t.t.t.t.t.t.t.t.t.t.t.t.t.t.t.t.t.t.t.t.t.t.t.t.t.t.t.t.t.t.t.",
"t.t.t.t.t.t.t.t.t.t.t.t.t.t.t.t.t.t.t.t.t.t.t.t.t.t.t.t.t.t.t.t.t.t.t.t.t.t.t.t.t.t.t.t.t.t.t.t.t.t.t.t.t.t.t.t.t.t.t.t.t.t.t.t.",
"t.t.t.t.t.t.t.t.t.t.t.t.t.t.t.t.t.t.t.t.t.t.t.t.t.t.t.t.t.t.t.t.t.t.t.t.t.t.t.t.t.t.t.t.t.t.t.t.t.t.t.t.t.t.t.t.t.t.t.t.t.t.t.t.",
"t.t.t.t.t.t.t.t.t.t.t.t.t.t.t.t.t.t.t.t.t.t.t.t.t.t.t.t.t.t.t.t.t.t.t.t.t.t.t.t.t.t.t.t.t.t.t.t.t.t.t.t.t.t.t.t.t.t.t.t.t.t.t.t.",
"t.t.t.t.t.t.t.t.t.t.t.t.t.t.t.t.t.t.t.t.t.t.t.t.t.t.t.t.t.t.t.t.t.t.t.t.t.t.t.t.t.t.t.t.t.t.t.t.t.t.t.t.t.t.t.t.t.t.t.t.t.t.t.t.",
"t.t.t.t.t.t.t.t.t.t.t.t.t.t.t.t.t.t.t.t.t.t.t.t.t.t.t.t.t.t.t.t.t.t.t.t.t.t.t.t.t.t.t.t.t.t.t.t.t.t.t.t.t.t.t.t.t.t.t.t.t.t.t.t.",
"t.t.t.t.t.t.t.t.t.t.t.t.t.t.t.t.t.t.t.t.t.t.t.t.t.t.t.t.t.t.t.t.t.t.t.t.t.t.t.t.t.t.t.t.t.t.t.t.t.t.t.t.t.t.t.t.t.t.t.t.t.t.t.t.",
"t.t.t.t.t.t.t.t.t.t.t.t.t.t.t.t.t.t.t.t.t.t.t.t.t.t.t.t.t.t.t.t.t.t.t.t.t.t.t.t.t.t.t.t.t.t.t.t.t.t.t.t.t.t.t.t.t.t.t.t.t.t.t.t.",
"t.t.t.t.t.t.t.t.t.t.t.t.t.t.t.t.t.t.t.t.t.t.t.t.t.t.t.t.t.t.t.t.t.t.t.t.t.t.t.t.t.t.t.t.t.t.t.t.t.t.t.t.t.t.t.t.t.t.t.t.t.t.t.t.",
"t.t.t.t.t.t.t.t.t.t.t.t.t.t.t.t.t.t.t.t.t.t.t.t.t.t.t.t.t.t.t.t.t.t.t.t.t.t.t.t.t.t.t.t.t.t.t.t.t.t.t.t.t.t.t.t.t.t.t.t.t.t.t.t.",
"t.t.t.t.t.t.t.t.t.t.t.t.t.t.t.t.t.t.t.t.t.t.t.t.t.t.t.t.t.t.r.r.t.t.t.t.t.t.t.t.t.t.t.t.t.t.t.t.t.t.t.t.t.t.t.t.t.t.t.t.t.t.t.t.",
"t.t.t.t.t.t.t.t.t.t.t.t.t.t.t.t.t.t.t.t.t.t.t.t.t.t.t.t.t.t.r.r.t.t.t.t.t.t.t.t.t.t.t.t.t.t.t.t.t.t.t.t.t.t.t.t.t.t.t.t.t.t.t.t.",
"t.t.t.t.t.t.t.t.t.t.t.t.t.t.t.t.t.t.t.t.t.t.t.t.t.t.t.t.r.r.r.r.t.t.t.t.t.t.t.t.t.t.t.t.t.t.t.t.t.t.t.t.t.t.t.t.t.t.t.t.t.t.t.t.",
"t.t.t.t.t.t.t.t.t.t.t.t.t.t.t.t.t.t.t.t.t.t.t.t.t.t.t.t.w.w.e.r.t.t.t.t.t.t.t.t.t.t.t.t.t.t.t.t.t.t.t.t.t.t.t.t.t.t.t.t.t.t.t.t.",
"t.t.t.t.t.t.t.t.t.t.t.t.t.t.t.t.t.t.t.t.t.t.t.t.t.t.r.w.:.:.w.r.t.t.t.t.t.t.t.t.t.t.t.t.t.t.t.t.t.t.t.t.t.t.t.t.t.t.t.t.t.t.t.t.",
"t.t.t.t.t.t.t.t.t.t.t.t.t.t.t.t.t.t.t.t.t.t.t.t.t.t.w.3.{ O.0.r.t.t.t.t.t.t.t.t.t.t.t.t.t.t.t.t.t.t.t.t.t.t.t.t.t.t.t.t.t.t.t.t.",
"t.t.t.t.t.t.t.t.t.t.t.t.t.t.t.t.t.t.t.t.t.t.t.t.r.w.1.{ G ( 8.r.t.t.t.t.t.t.t.t.t.t.t.t.t.t.t.t.t.t.t.t.t.t.t.t.t.t.t.t.t.t.t.t.",
"t.t.t.t.t.t.t.t.t.t.t.t.t.t.t.t.t.t.t.t.t.t.t.t.w.3.O.F M ~ 7.r.t.t.t.t.t.t.t.t.t.t.t.t.t.t.t.t.t.t.t.t.t.t.t.t.t.t.t.t.t.t.t.t.",
"t.t.t.t.t.t.t.t.t.t.t.t.t.t.t.t.t.t.t.t.t.t.r.w.1.{ G N M ~ 7.r.t.t.t.t.t.t.t.t.t.t.t.t.t.t.t.t.t.t.t.t.t.t.t.t.t.t.t.t.t.t.t.t.",
"t.t.t.t.t.t.t.t.t.t.t.t.t.t.t.t.t.t.t.t.t.t.w.3.{ G N l n ^ 8.r.t.t.t.t.t.t.t.t.t.t.t.t.t.t.t.t.t.t.t.t.t.t.t.t.t.t.t.t.t.t.t.t.",
"t.t.t.t.t.t.t.t.t.t.t.t.t.t.t.t.r.r.r.r.r.w.>.} R N M m M ^ 9.r.t.t.t.t.t.t.t.t.t.t.t.t.t.t.t.t.t.t.t.t.t.t.t.t.t.t.t.t.t.t.t.t.",
"t.t.t.t.t.t.t.t.t.t.t.t.t.t.t.t.q.q.q.q.w.3.} G N M M l h C @.6.t.t.t.t.t.t.t.t.t.t.t.t.t.t.t.t.t.t.t.t.t.t.t.t.t.t.t.t.t.t.t.t.",
"t.t.t.t.t.t.t.t.t.t.t.t.r.r.r.w.:.*.*.-.-.} R N M M M h e q f I 7.r.r.r.t.t.t.t.t.t.t.t.t.t.t.t.t.t.t.t.t.t.r.r.r.r.t.t.t.t.t.t.",
"t.t.t.t.t.t.t.t.t.t.t.t.w.q.q.3.} G _ _ _ G N M M M M j e 8 8 k ..5.4.4.t.t.t.t.t.t.t.t.t.t.t.t.t.t.t.t.t.t.8.0.e.r.t.t.t.t.t.t.",
"t.t.t.t.t.t.t.t.r.r.r.w.:.*.=.} E N V V V B M M M M M M h h h f z x x P 7.r.r.r.t.t.t.t.t.t.t.t.t.t.t.t.r.7.X.o.0.r.t.t.t.t.t.t.",
"t.t.t.t.t.t.t.t.w.q.q.3.{ _ _ G V M M M M M M M M M M M M M M h e 4 8 k ..4.4.4.t.t.t.t.t.t.t.t.t.t.t.t.r.7.W R 7.r.t.t.t.t.t.t.",
"t.t.t.t.t.t.r.w.:.*.=.} R N V N M M M l l M M M M M M M M M M M h f a j x x x I 6.r.r.r.t.t.t.t.t.t.t.t.r.7.W W 7.r.t.t.t.t.t.t.",
"t.t.t.t.t.t.w.3.{ _ _ G N M M M h j l M M M M M M m h j M M M M M M M h q 8 8 k @.4.4.6.t.t.t.t.t.t.t.t.0.;.R W 7.r.t.t.t.t.t.t.",
"t.t.t.t.r.w.1.} R V V V M M M h i e j M M M M M M j e e j M M M N M M l h h s h k x x I 6.r.t.t.t.t.r.9.X.K M ~ 7.r.t.t.t.t.t.t.",
"t.t.t.t.w.3.} F N M l M M M h w ; > a M M M M N M d 0 q f l j h l M M M M M M h e 8 8 k ..7.t.t.t.t.9.,.K h a L 7.r.t.t.t.t.t.t.",
"t.t.r.w.1.} R N M m M M M j e - + & 6 M M M M M M h 0 0 h j e e j M M M M M M M h h a f k I 6.r.r.0.X.R B h 0 b 4.r.t.t.t.t.t.t.",
"t.t.9.<.{ G N M M M M n h l v , o X 5 V M M M M M h 0 0 h h 0 0 f M M M M M M M M M M h q z #.0.9.,.K j h f l I 4.r.t.t.t.t.t.t.",
"r.8.X.W A V M l M M M d w z #.Y % . 5 N M M M M M h 0 q f h 0 0 h M M M M M M M M M M m h l K ^ ^ R B h e k ..6.t.t.t.t.t.t.t.t.",
"r.7.W h l M M M M M M h e k T H # . 5 M N M M M M j e e h j e e h M M M M M M M M M M M M M M m m M M a 0 c 5.r.t.t.t.t.t.t.t.t.",
"r.7.W l l l M l M M M m h 7 : #   X 5 N M M M M M M h h m m j j M M M M M M M M M M M M M M M M M M M a 0 x 4.r.t.t.t.t.t.t.t.t.",
"r.7.L h N A Z Z Z V Z Z S t * @ @ = y V N M M M l M M M M M M M M M M M M M M M M M M n j a a a a h M h 8 x 4.r.t.t.t.t.t.t.t.t.",
"r.4.b i S ` ` ` ` ` ` ` ` E v k k C G G B l z M M M M M M M M M M M M M l M N M M M M d e 0 8 0 0 e h h 0 x 4.r.t.t.t.t.t.t.t.t.",
"r.4.P v D F G G G G G E ' %.%.%.%.%.[ ' D Z Z V V V M l M M M M M M M M M l h f s z R P b c c x x k j e 8 c 4.r.t.t.t.t.t.t.t.t.",
"t.t.7.+.v e e e a e e m _ %.%.%.[ [ [ ' ` Q ` Q ` E V M M M M M M M M M M h q 4 3 z $.7.5.4.4.4.5.+.k 3 2 v 6.r.t.t.t.t.t.t.t.t.",
"t.t.r.7.P f a e e e e d V E ' ] [ [ [ [ [ [ [ [ [ ` D N h a h h M M M M h h x x x P 6.r.r.r.r.r.r.6.P u 8 f  .6.t.t.t.t.t.t.t.t.",
"t.t.t.t.6.;.( F D F G V h h ) %.[ [ [ [ [ [ [ [ %.' ` S p 8 8 e h M M h w x @.6.4.4.t.t.t.t.t.t.t.t.6...u 3 r P 4.r.t.t.t.t.t.t.",
"t.t.t.t.r.w.:.-.=.&.] S i p S _ _ _ _ _ _ _ _ _ E ' &.O.J c v k f h h p 4 u ..9.r.r.t.t.t.t.t.t.t.t.r.7.I x k I 7.r.t.t.t.t.t.t.",
"t.t.t.t.t.t.w.q.q.3.! M h h M V N N Z N N Z N N N ! 3.0.7.4.4...k 8 8 8 3 0 f / 9.r.t.t.t.t.t.t.t.t.t.t.6.4.4.7.e.r.t.t.t.t.t.t.",
"t.t.t.t.t.t.r.r.r.0.X.W W ^ ~ W W W W W W W W W W X.8.r.r.r.r.7.I x c g 0 2 < y  .6.t.t.t.t.t.t.t.t.t.t.r.r.r.r.r.r.t.t.t.t.t.t.",
"t.t.t.t.t.t.t.t.t.t.8.7.7.7.7.7.7.7.7.7.8.7.7.7.7.8.t.t.t.t.t.t.5.4.4...u < < 3 y I 6.r.t.t.t.t.t.t.t.t.t.t.t.t.t.t.t.t.t.t.t.t.",
"t.t.t.t.t.t.t.t.t.t.r.r.r.r.r.r.r.r.r.r.r.r.r.r.r.r.t.t.t.t.t.t.r.r.r.7.I x x x k P 4.r.t.t.t.t.t.t.t.t.t.t.t.t.t.t.t.t.t.t.t.t.",
"t.t.t.t.t.t.t.t.t.t.t.t.t.t.t.t.t.t.t.t.t.t.t.t.t.t.t.t.t.t.t.t.t.t.t.t.5.4.4.4.4.4.t.t.t.t.t.t.t.t.t.t.t.t.t.t.t.t.t.t.t.t.t.t.",
"t.t.t.t.t.t.t.t.t.t.t.t.t.t.t.t.t.t.t.t.t.t.t.t.t.t.t.t.t.t.t.t.t.t.t.t.r.r.r.r.r.r.t.t.t.t.t.t.t.t.t.t.t.t.t.t.t.t.t.t.t.t.t.t.",
"t.t.t.t.t.t.t.t.t.t.t.t.t.t.t.t.t.t.t.t.t.t.t.t.t.t.t.t.t.t.t.t.t.t.t.t.t.t.t.t.t.t.t.t.t.t.t.t.t.t.t.t.t.t.t.t.t.t.t.t.t.t.t.t.",
"t.t.t.t.t.t.t.t.t.t.t.t.t.t.t.t.t.t.t.t.t.t.t.t.t.t.t.t.t.t.t.t.t.t.t.t.t.t.t.t.t.t.t.t.t.t.t.t.t.t.t.t.t.t.t.t.t.t.t.t.t.t.t.t.",
"t.t.t.t.t.t.t.t.t.t.t.t.t.t.t.t.t.t.t.t.t.t.t.t.t.t.t.t.t.t.t.t.t.t.t.t.t.t.t.t.t.t.t.t.t.t.t.t.t.t.t.t.t.t.t.t.t.t.t.t.t.t.t.t.",
"t.t.t.t.t.t.t.t.t.t.t.t.t.t.t.t.t.t.t.t.t.t.t.t.t.t.t.t.t.t.t.t.t.t.t.t.t.t.t.t.t.t.t.t.t.t.t.t.t.t.t.t.t.t.t.t.t.t.t.t.t.t.t.t.",
"t.t.t.t.t.t.t.t.t.t.t.t.t.t.t.t.t.t.t.t.t.t.t.t.t.t.t.t.t.t.t.t.t.t.t.t.t.t.t.t.t.t.t.t.t.t.t.t.t.t.t.t.t.t.t.t.t.t.t.t.t.t.t.t.",
"t.t.t.t.t.t.t.t.t.t.t.t.t.t.t.t.t.t.t.t.t.t.t.t.t.t.t.t.t.t.t.t.t.t.t.t.t.t.t.t.t.t.t.t.t.t.t.t.t.t.t.t.t.t.t.t.t.t.t.t.t.t.t.t.",
"t.t.t.t.t.t.t.t.t.t.t.t.t.t.t.t.t.t.t.t.t.t.t.t.t.t.t.t.t.t.t.t.t.t.t.t.t.t.t.t.t.t.t.t.t.t.t.t.t.t.t.t.t.t.t.t.t.t.t.t.t.t.t.t.",
"t.t.t.t.t.t.t.t.t.t.t.t.t.t.t.t.t.t.t.t.t.t.t.t.t.t.t.t.t.t.t.t.t.t.t.t.t.t.t.t.t.t.t.t.t.t.t.t.t.t.t.t.t.t.t.t.t.t.t.t.t.t.t.t.",
"t.t.t.t.t.t.t.t.t.t.t.t.t.t.t.t.t.t.t.t.t.t.t.t.t.t.t.t.t.t.t.t.t.t.t.t.t.t.t.t.t.t.t.t.t.t.t.t.t.t.t.t.t.t.t.t.t.t.t.t.t.t.t.t.",
"t.t.t.t.t.t.t.t.t.t.t.t.t.t.t.t.t.t.t.t.t.t.t.t.t.t.t.t.t.t.t.t.t.t.t.t.t.t.t.t.t.t.t.t.t.t.t.t.t.t.t.t.t.t.t.t.t.t.t.t.t.t.t.t.",
"t.t.t.t.t.t.t.t.t.t.t.t.t.t.t.t.t.t.t.t.t.t.t.t.t.t.t.t.t.t.t.t.t.t.t.t.t.t.t.t.t.t.t.t.t.t.t.t.t.t.t.t.t.t.t.t.t.t.t.t.t.t.t.t.",
"t.t.t.t.t.t.t.t.t.t.t.t.t.t.t.t.t.t.t.t.t.t.t.t.t.t.t.t.t.t.t.t.t.t.t.t.t.t.t.t.t.t.t.t.t.t.t.t.t.t.t.t.t.t.t.t.t.t.t.t.t.t.t.t.",
"t.t.t.t.t.t.t.t.t.t.t.t.t.t.t.t.t.t.t.t.t.t.t.t.t.t.t.t.t.t.t.t.t.t.t.t.t.t.t.t.t.t.t.t.t.t.t.t.t.t.t.t.t.t.t.t.t.t.t.t.t.t.t.t.",
"t.t.t.t.t.t.t.t.t.t.t.t.t.t.t.t.t.t.t.t.t.t.t.t.t.t.t.t.t.t.t.t.t.t.t.t.t.t.t.t.t.t.t.t.t.t.t.t.t.t.t.t.t.t.t.t.t.t.t.t.t.t.t.t.",
"t.t.t.t.t.t.t.t.t.t.t.t.t.t.t.t.t.t.t.t.t.t.t.t.t.t.t.t.t.t.t.t.t.t.t.t.t.t.t.t.t.t.t.t.t.t.t.t.t.t.t.t.t.t.t.t.t.t.t.t.t.t.t.t.",
"t.t.t.t.t.t.t.t.t.t.t.t.t.t.t.t.t.t.t.t.t.t.t.t.t.t.t.t.t.t.t.t.t.t.t.t.t.t.t.t.t.t.t.t.t.t.t.t.t.t.t.t.t.t.t.t.t.t.t.t.t.t.t.t."
};
