/* XPM */
static char *result[] = {
/* columns rows colors chars-per-pixel */
"64 64 135 2 ",
"   c #010101",
".  c #030708",
"X  c #050A0B",
"o  c #0A0C0D",
"O  c #060F11",
"+  c #0B0F10",
"@  c #061214",
"#  c #0D1314",
"$  c #081619",
"%  c #0A1A1D",
"&  c #131314",
"*  c #101718",
"=  c #131B1D",
"-  c #1A1A1A",
";  c #0B1E22",
":  c #171F22",
">  c #0D2126",
",  c #0E2429",
"<  c #172021",
"1  c #192325",
"2  c #1C2729",
"3  c #1E2A2C",
"4  c #112C32",
"5  c #133037",
"6  c #14343B",
"7  c #212121",
"8  c #2D2D2D",
"9  c #222F31",
"0  c #243235",
"q  c #27363A",
"w  c #28373A",
"e  c #2A3A3E",
"r  c #333333",
"t  c #3C3C3C",
"y  c #173A43",
"u  c #183E47",
"i  c #2D3E41",
"p  c #19414B",
"a  c #1B4650",
"s  c #1C4954",
"d  c #1F4F5A",
"f  c #2E4044",
"g  c #304346",
"h  c #324549",
"j  c #354A4E",
"k  c #374C50",
"l  c #394E53",
"z  c #3B5156",
"x  c #3E565B",
"c  c #3F585D",
"v  c #215561",
"b  c #245B67",
"n  c #255E6B",
"m  c #26616F",
"M  c #276472",
"N  c #286775",
"B  c #286877",
"V  c #2A6D7C",
"C  c #2C707F",
"Z  c #444444",
"A  c #4A4A4A",
"S  c #41595F",
"D  c #505050",
"F  c gray36",
"G  c #445F64",
"H  c #466166",
"J  c #49656B",
"K  c #4B686F",
"L  c #4D6B71",
"P  c #506F75",
"I  c #517077",
"U  c #55747C",
"Y  c #606060",
"T  c #6A6A6A",
"R  c #777777",
"E  c #7E7E7E",
"W  c #2D7585",
"Q  c #2F7889",
"!  c #307B8D",
"~  c #327F91",
"^  c #597B83",
"/  c #338295",
"(  c #34869A",
")  c #35899D",
"_  c #378EA2",
"`  c #388FA4",
"'  c #3992A6",
"]  c #3A94AA",
"[  c #3C98AE",
"{  c #3D9DB3",
"}  c #3FA0B7",
"|  c #3FA2B9",
" . c #5D8087",
".. c #5E828A",
"X. c #61868E",
"o. c #658B93",
"O. c #688F97",
"+. c #6D969F",
"@. c #6E99A2",
"#. c #719CA5",
"$. c #749FA8",
"%. c #41A5BD",
"&. c #76A2AC",
"*. c #79A7B1",
"=. c #7AA9B3",
"-. c #7FAFB9",
";. c #43AAC2",
":. c #8E8E8E",
">. c gray57",
",. c gray61",
"<. c #81B2BC",
"1. c #A5A5A5",
"2. c #AFAFAF",
"3. c #B2B2B2",
"4. c #BBBBBB",
"5. c #84B6C1",
"6. c #86BAC4",
"7. c #88BBC6",
"8. c #89BEC9",
"9. c #8CC2CD",
"0. c #8FC5D1",
"q. c #90C7D3",
"w. c #93CAD6",
"e. c #96CFDB",
"r. c #97D0DC",
"t. c #98D1DE",
"y. c gray76",
"u. c #CACACA",
"i. c #D6D6D6",
"p. c #DBDBDB",
"a. c #E5E5E5",
"s. c #ECECEC",
"d. c #F4F4F4",
"f. c #FDFDFD",
"g. c None",
/* pixels */
"g.g.g.g.g.g.g.g.g.g.g.g.g.g.g.g.g.g.g.g.g.g.g.g.g.g.g.g.g.g.g.g.g.g.g.g.g.g.g.g.g.g.g.g.g.g.g.g.g.g.g.g.g.g.g.g.g.g.g.g.g.g.g.g.",
"g.g.g.g.g.g.g.g.g.g.g.g.g.g.g.g.g.g.g.g.g.g.g.g.g.g.g.g.g.g.g.g.g.g.g.g.g.g.g.g.g.g.g.g.g.g.g.g.g.g.g.g.g.g.g.g.g.g.g.g.g.g.g.g.",
"g.g.g.g.g.g.g.g.g.g.g.g.g.g.g.g.g.g.g.g.g.g.g.g.g.g.g.g.g.g.g.g.g.g.g.g.g.g.g.g.g.g.g.g.g.g.g.g.g.g.g.g.g.g.g.g.g.g.g.g.g.g.g.g.",
"g.g.g.g.g.g.g.g.g.g.g.g.g.g.g.g.g.g.g.g.g.g.g.g.g.g.g.g.g.g.g.g.g.g.g.g.g.g.g.g.g.g.g.g.g.g.g.g.g.g.g.g.g.g.g.g.g.g.g.g.g.g.g.g.",
"g.g.g.g.g.g.g.g.g.g.g.g.g.g.g.g.g.g.g.g.g.g.g.g.g.g.g.g.g.g.g.g.g.g.g.g.g.g.g.g.g.g.g.g.g.g.g.g.g.g.g.g.g.g.g.g.g.g.g.g.g.g.g.g.",
"g.g.g.g.g.g.g.g.g.g.g.g.g.g.g.g.g.g.g.g.g.g.g.g.g.g.g.g.g.g.g.g.g.g.g.g.g.g.g.g.g.g.g.g.g.g.g.g.g.g.g.g.g.g.g.g.g.g.g.g.g.g.g.g.",
"g.g.g.g.g.g.g.g.g.g.g.g.g.g.g.g.g.g.g.g.g.g.g.g.g.g.g.g.g.g.g.g.g.g.g.g.g.g.g.g.g.g.g.g.g.g.g.g.g.g.g.g.g.g.g.g.g.g.g.g.g.g.g.g.",
"g.g.g.g.g.g.g.g.g.g.g.g.g.                                                                            g.g.g.g.g.g.g.g.g.g.g.g.g.",
"g.g.g.g.g.g.g.g.g.g.g.g.  & t t t t t t t t t t t t t t t t t t t t t t t t t t t t t t t t t t t t     g.g.g.g.g.g.g.g.g.g.g.g.",
"g.g.g.g.g.g.g.g.g.g.g.g.  2.f.f.f.f.f.f.f.f.f.f.f.f.f.f.f.f.f.f.f.f.f.f.f.f.f.f.f.f.f.f.f.f.f.f.f.f.T   g.g.g.g.g.g.g.g.g.g.g.g.",
"g.g.g.g.g.g.g.g.g.g.g.g.  4.f.f.f.f.f.f.f.f.f.f.s.s.s.s.s.s.d.s.s.d.s.s.s.s.s.s.s.f.f.f.f.f.f.f.f.f.R   g.g.g.g.g.g.g.g.g.g.g.g.",
"g.g.g.g.g.g.g.g.g.g.g.g.  4.f.f.f.f.f.f.f.y.F - . . . X                 . . .   . - D 4.f.f.f.f.f.f.R   g.g.g.g.g.g.g.g.g.g.g.g.",
"g.g.g.g.g.g.g.g.g.g.g.g.  y.f.f.f.f.f.a.D     - w e e e i e e i i i i i e e i e e 1     A p.f.f.f.f.R   g.g.g.g.g.g.g.g.g.g.g.g.",
"g.g.g.g.g.g.g.g.g.g.g.g.  4.f.f.f.f.a.8   w =.t.r.r.r.t.r.r.r.r.t.t.r.t.r.r.r.r.r.r.<.g   7 p.f.f.f.R   g.g.g.g.g.g.g.g.g.g.g.g.",
"g.g.g.g.g.g.g.g.g.g.g.g.  4.f.f.f.d.Z   K e.e.e.w.9.0.r.r.q.9.w.e.w.9.0.e.r.0.9.e.e.e.e.U . r d.f.f.R   g.g.g.g.g.g.g.g.g.g.g.g.",
"g.g.g.g.g.g.g.g.g.g.g.g.  4.f.f.f.,.  k t.t.r.t.j . o $.<.o . g e.z   o &.=.+ . w r.r.e.t.H   :.f.f.R   g.g.g.g.g.g.g.g.g.g.g.g.",
"g.g.g.g.g.g.g.g.g.g.g.g.  y.f.f.d.t o <.e.e.t.e.^ e i <.8.h e I r.^ e g 5.6.g e L t.t.e.e.8.& r d.f.R   g.g.g.g.g.g.g.g.g.g.g.g.",
"g.g.g.g.g.g.g.g.g.g.g.g.  4.f.f.p.+ 0 t.e.e.t.e.r.r.r.e.e.r.r.e.e.e.e.e.e.e.e.t.e.e.e.t.e.e.h X p.f.R   g.g.g.g.g.g.g.g.g.g.g.g.",
"g.g.g.g.g.g.g.g.g.g.g.g.  4.s.A 8   2 <.e.e.e.t.r.r.r.r.r.r.r.e.t.e.t.r.t.e.t.e.t.e.t.e.r.e.K   y.f.R   g.g.g.g.g.g.g.g.g.g.g.g.",
"g.g.g.g.g.g.g.g.g.g.g.g.  4.a.8 - &   2 e.e.t.e.r.r.r.r.e.r.e.e.e.e.e.e.e.e.e.t.e.t.e.t.t.e.U   3.f.R   g.g.g.g.g.g.g.g.g.g.g.g.",
"g.g.g.g.g.g.g.g.g.g.g.g.  4.f.f.f.d.T   <.e.e.e.r.e.e.r.w.&.^ H S H U #.q.e.e.e.t.e.t.e.e.e.U   4.f.R   g.g.g.g.g.g.g.g.g.g.g.g.",
"g.g.g.g.g.g.g.g.g.g.g.g.  4.f.f.f.f.:.  $.e.e.e.e.e.9.K #     . .     . # G 9.e.e.t.e.t.t.e.U   3.f.R   g.g.g.g.g.g.g.g.g.g.g.g.",
"g.g.g.g.g.g.g.g.g.g.g.g.  4.f.f.f.f.:.  &.e.t.e.e.o.*   $ a V / ) / V d %   #  .e.t.e.t.t.e.U   4.f.R   g.g.g.g.g.g.g.g.g.g.g.g.",
"g.g.g.g.g.g.g.g.g.g.g.g.  4.f.f.f.f.>.  $.e.e.e.K   X n | ;.} ) / ) { ;.%.N X   S w.e.e.e.e.U   4.f.R   g.g.g.g.g.g.g.g.g.g.g.g.",
"g.g.g.g.g.g.g.g.g.g.g.g.  4.f.f.f.f.E   *.e.e.L   ; _ ;.W 5 X       . 4 V ;.] ,   G w.e.t.e.U   3.f.R   g.g.g.g.g.g.g.g.g.g.g.g.",
"g.g.g.g.g.g.g.g.g.g.g.g.  4.s.F Z t X * w.r.+.  % { | 6   . 9 e   q 0 .   4 { | ,   X.e.e.e.U   4.f.R   g.g.g.g.g.g.g.g.g.g.g.g.",
"g.g.g.g.g.g.g.g.g.g.g.g.  4.a.7 +   * #.r.9.# X _ { ,   e *.r.O.  ^ r.-.h   ; ] [ @ + 7.e.r.U   4.f.R   g.g.g.g.g.g.g.g.g.g.g.g.",
"g.g.g.g.g.g.g.g.g.g.g.g.  4.f.d.4.  G e.r.I   b %.y     e w.r.^   P r.e.j     5 %.N   H e.e.U   3.f.R   g.g.g.g.g.g.g.g.g.g.g.g.",
"g.g.g.g.g.g.g.g.g.g.g.g.  4.f.f.u.  G t.w.2 @ { /   0 h   i 9       3 g   e i   W %.@ = 0.e.U   4.f.R   g.g.g.g.g.g.g.g.g.g.g.g.",
"g.g.g.g.g.g.g.g.g.g.g.g.  y.f.f.u.  G t.<.  y ;.4 . -.q.i     p N p .   9 0.8.X , ;.p   *.e.U   3.f.R   g.g.g.g.g.g.g.g.g.g.g.g.",
"g.g.g.g.g.g.g.g.g.g.g.g.  4.f.f.u.  G e.O.  N { . q e.e.3 X Q ;.;.;.( X = w.e.g   [ W   ^ r.U   3.f.R   g.g.g.g.g.g.g.g.g.g.g.g.",
"g.g.g.g.g.g.g.g.g.g.g.g.  4.f.f.u.  G e.P   ) (   f O.^   p ;.;.;.;.;.d   I O.k   ! '   H t.U   4.f.R   g.g.g.g.g.g.g.g.g.g.g.g.",
"g.g.g.g.g.g.g.g.g.g.g.g.  4.f.f.u.  G t.H   ' ~           m ;.;.;.;.;.V           C {   x r.U   3.f.R   g.g.g.g.g.g.g.g.g.g.g.g.",
"g.g.g.g.g.g.g.g.g.g.g.g.  4.f.f.u.  H r.I   ( (   i o.U . p ;.;.;.;.;.v   K o.j   Q ]   G e.U   4.f.R   g.g.g.g.g.g.g.g.g.g.g.g.",
"g.g.g.g.g.g.g.g.g.g.g.g.  4.f.f.u.  G e.O.  V { . q e.w.: X ( ;.;.;.` @ # 0.e.h   ' Q   ^ e.U   3.f.R   g.g.g.g.g.g.g.g.g.g.g.g.",
"g.g.g.g.g.g.g.g.g.g.g.g.  y.f.f.u.  G e.-.  p ;.4   5.e.i   X a V d X   0 e.9.o > ;.a   *.e.U   4.f.R   g.g.g.g.g.g.g.g.g.g.g.g.",
"g.g.g.g.g.g.g.g.g.g.g.g.  4.f.f.u.  G e.0.1 O { !   f S   3 < .     * 0   j k   V %.# * 0.e.U   4.f.R   g.g.g.g.g.g.g.g.g.g.g.g.",
"g.g.g.g.g.g.g.g.g.g.g.g.  4.f.f.u.  H e.e.K   M %.6     0 9.0.I   K 9.0.i     4 %.V   S e.e.U   3.f.R   g.g.g.g.g.g.g.g.g.g.g.g.",
"g.g.g.g.g.g.g.g.g.g.g.g.  4.a.r &   1 *.e.8.+ @ [ [ %   j 5.e.O.  ^ e.6.S   @ ' { $ o <.e.e.U   4.f.R   g.g.g.g.g.g.g.g.g.g.g.g.",
"g.g.g.g.g.g.g.g.g.g.g.g.  4.s.A r 8   = e.e.o.  , { [ 4   + f g   e h #   , ] | 4   ^ t.e.e.U   3.f.R   g.g.g.g.g.g.g.g.g.g.g.g.",
"g.g.g.g.g.g.g.g.g.g.g.g.  4.f.f.f.f.R   *.e.e.S   4 [ %.M > .       . ; n | { 6   k e.e.e.e.U   3.f.R   g.g.g.g.g.g.g.g.g.g.g.g.",
"g.g.g.g.g.g.g.g.g.g.g.g.  4.f.f.f.f.:.  &.r.e.w.S   $ V ;.| ' Q W Q _ | ;.W %   k w.e.e.t.e.U   4.f.R   g.g.g.g.g.g.g.g.g.g.g.g.",
"g.g.g.g.g.g.g.g.g.g.g.g.  4.f.f.f.f.>.  &.e.r.e.e.U o   > n / ] [ ] / m ,   X L e.e.e.e.e.e.U   4.f.R   g.g.g.g.g.g.g.g.g.g.g.g.",
"g.g.g.g.g.g.g.g.g.g.g.g.  y.f.f.f.f.:.  &.e.r.r.e.e.5.G X     X O X     . x <.e.e.r.r.r.t.e.U   3.f.R   g.g.g.g.g.g.g.g.g.g.g.g.",
"g.g.g.g.g.g.g.g.g.g.g.g.  4.f.f.f.f.R   *.e.e.e.e.e.e.t.q.O.G h i h G o.9.r.r.r.e.r.r.r.e.e.U   4.f.R   g.g.g.g.g.g.g.g.g.g.g.g.",
"g.g.g.g.g.g.g.g.g.g.g.g.  4.s.Z 8 8 X - e.e.r.r.t.e.t.t.e.e.t.r.r.r.r.r.e.r.r.r.r.r.r.r.t.e.U   3.f.R   g.g.g.g.g.g.g.g.g.g.g.g.",
"g.g.g.g.g.g.g.g.g.g.g.g.  4.a.8 -   = =.e.e.r.r.e.t.t.e.r.r.r.r.r.r.r.r.r.r.r.r.r.r.r.r.t.r.L   4.f.R   g.g.g.g.g.g.g.g.g.g.g.g.",
"g.g.g.g.g.g.g.g.g.g.g.g.  4.f.d.i.o q t.e.r.r.e.e.t.t.e.e.t.t.e.e.e.r.r.r.e.r.r.e.e.r.r.e.r.j . i.f.R   g.g.g.g.g.g.g.g.g.g.g.g.",
"g.g.g.g.g.g.g.g.g.g.g.g.  4.f.f.d.t o 5.r.r.r.r.O.z x 6.9.G k X.e.O.k S 8.9.G l X.t.t.e.e.9.* 7 d.f.R   g.g.g.g.g.g.g.g.g.g.g.g.",
"g.g.g.g.g.g.g.g.g.g.g.g.  4.f.f.f.>.  S r.e.r.r.f     @.<..   e e.j     $.*.    9 t.e.e.r.L   :.f.f.R   g.g.g.g.g.g.g.g.g.g.g.g.",
"g.g.g.g.g.g.g.g.g.g.g.g.  4.f.f.f.d.8   ^ e.e.r.e.6.9.r.e.9.6.e.e.w.6.9.r.e.8.6.w.e.e.e.O.  7 s.f.f.R   g.g.g.g.g.g.g.g.g.g.g.g.",
"g.g.g.g.g.g.g.g.g.g.g.g.  4.f.f.f.f.p.7   k <.t.r.r.r.r.r.t.t.t.t.t.t.t.t.t.t.t.t.t.5.S X * u.f.f.f.R   g.g.g.g.g.g.g.g.g.g.g.g.",
"g.g.g.g.g.g.g.g.g.g.g.g.  4.f.f.f.f.f.p.r     3 j z k k l l k k l k l l k k l l k 9 .   8 i.f.f.f.f.R   g.g.g.g.g.g.g.g.g.g.g.g.",
"g.g.g.g.g.g.g.g.g.g.g.g.  y.f.f.f.f.f.f.d.1.A o                                   + Z ,.d.f.f.f.f.f.R   g.g.g.g.g.g.g.g.g.g.g.g.",
"g.g.g.g.g.g.g.g.g.g.g.g.  4.f.f.f.f.f.f.f.f.f.f.s.s.s.a.s.s.s.a.s.a.s.s.a.s.s.s.s.d.f.f.f.f.f.f.f.f.R   g.g.g.g.g.g.g.g.g.g.g.g.",
"g.g.g.g.g.g.g.g.g.g.g.g.  3.f.f.f.f.f.f.f.f.f.f.f.f.f.f.f.f.f.f.f.f.f.f.f.f.f.f.f.f.f.f.f.f.f.f.f.f.T   g.g.g.g.g.g.g.g.g.g.g.g.",
"g.g.g.g.g.g.g.g.g.g.g.g.  - D D D D D A D D D D D D A D D D D D A D D D D A D D D D D A D D D D D A X   g.g.g.g.g.g.g.g.g.g.g.g.",
"g.g.g.g.g.g.g.g.g.g.g.g.g.                                                                            g.g.g.g.g.g.g.g.g.g.g.g.g.",
"g.g.g.g.g.g.g.g.g.g.g.g.g.g.g.g.g.g.g.g.g.g.g.g.g.g.g.g.g.g.g.g.g.g.g.g.g.g.g.g.g.g.g.g.g.g.g.g.g.g.g.g.g.g.g.g.g.g.g.g.g.g.g.g.",
"g.g.g.g.g.g.g.g.g.g.g.g.g.g.g.g.g.g.g.g.g.g.g.g.g.g.g.g.g.g.g.g.g.g.g.g.g.g.g.g.g.g.g.g.g.g.g.g.g.g.g.g.g.g.g.g.g.g.g.g.g.g.g.g.",
"g.g.g.g.g.g.g.g.g.g.g.g.g.g.g.g.g.g.g.g.g.g.g.g.g.g.g.g.g.g.g.g.g.g.g.g.g.g.g.g.g.g.g.g.g.g.g.g.g.g.g.g.g.g.g.g.g.g.g.g.g.g.g.g.",
"g.g.g.g.g.g.g.g.g.g.g.g.g.g.g.g.g.g.g.g.g.g.g.g.g.g.g.g.g.g.g.g.g.g.g.g.g.g.g.g.g.g.g.g.g.g.g.g.g.g.g.g.g.g.g.g.g.g.g.g.g.g.g.g.",
"g.g.g.g.g.g.g.g.g.g.g.g.g.g.g.g.g.g.g.g.g.g.g.g.g.g.g.g.g.g.g.g.g.g.g.g.g.g.g.g.g.g.g.g.g.g.g.g.g.g.g.g.g.g.g.g.g.g.g.g.g.g.g.g.",
"g.g.g.g.g.g.g.g.g.g.g.g.g.g.g.g.g.g.g.g.g.g.g.g.g.g.g.g.g.g.g.g.g.g.g.g.g.g.g.g.g.g.g.g.g.g.g.g.g.g.g.g.g.g.g.g.g.g.g.g.g.g.g.g."
};
