/* XPM */
static char *result[] = {
/* columns rows colors chars-per-pixel */
"64 64 10 1 ",
"  c #252241",
". c #2C3068",
"X c #433986",
"o c #3C5393",
"O c #434097",
"+ c #696DB1",
"@ c #687DBA",
"# c #5CA6E1",
"$ c #90C4EE",
"% c #11498E",
/* pixels */
"%%%%%%%%%%%%%%%%%%%%%%%%%%%%%%%%%%%%%%%%%%%%%%%%%%%%%%%%%%%%%%%%",
"%%%%%%%%%%%%%%%%%%%%%%%%%%%%%%%%%%%%%%%%%%%%%%%%%%%%%%%%%%%%%%%%",
"%%%%%%%%%%%%%%%%%%%%%%%%%%%%%%%%%%%%%%%%%%%%%%%%%%%%%%%%%%%%%%%%",
"%%%%%%%%%%%%%%%%%%%%%%%%%%%%%%%%%%%%%%%%%%%%%%%%%%%%%%%%%%%%%%%%",
"%%%%%%%%%%%%%%%%%%%%%%%%%             %%%%%%%%%%%%%%%%%%%%%%%%%%",
"%%%%%%%%%%%%%%%%%%%%% %  ...... ......  % %%%%%%%%%%%%%%%%%%%%%%",
"%%%%%%%%%%%%%%%%%%%  . ..#####. .#####.. .  %%%%%%%%%%%%%%%%%%%%",
"%%%%%%%%%%%%%%%%%  ... ..ooooo. .ooooo.. ...  %%%%%%%%%%%%%%%%%%",
"%%%%%%%%%%%%%%%% ..##.. .ooooo. .ooooo. ..##.. %%%%%%%%%%%%%%%%%",
"%%%%%%%%%%%%%%% .##oo#. ..oooo. .oooo.. .#oo##. %%%%%%%%%%%%%%%%",
"%%%%%%%%%%%%%  .#ooooo.. ...... ...... ..ooooo#.  %%%%%%%%%%%%%%",
"%%%%%%%%%%%% ..#oooooo..  ....   ..... ..oooooo#.. %%%%%%%%%%%%%",
"%%%%%%%%%%% . ..ooooo..                 ..ooooo.. . %%%%%%%%%%%%",
"%%%%%%%%%%% .. ..ooo..                   ..ooo.. .. %%%%%%%%%%%%",
"%%%%%%%%%% .##. .....    XXXX     XXXX    ..... .##. %%%%%%%%%%%",
"%%%%%%%%%% .oo#. ...     XXXX     XXXX     ... .#oo. %%%%%%%%%%%",
"%%%%%%%%% .#ooo#.        X++X     X++X        .#ooo#. %%%%%%%%%%",
"%%%%%%%%% .ooooo.        ++++     ++++        .ooooo. %%%%%%%%%%",
"%%%%%%%% ...ooo..   X    ++++     ++++    X   ..ooo... %%%%%%%%%",
"%%%%%%%% .......   XX    ++++     ++++    XX   ....... %%%%%%%%%",
"%%%%%%%%%   ...   XXX    ++++     ++++    XXX   ...   %%%%%%%%%%",
"%%%%%%%% ...      X+X    ++++     ++++    X+X      ... %%%%%%%%%",
"%%%%%%%% .....   XX$X    $$$$     $$$$    X$XX   ..... %%%%%%%%%",
"%%%%%%%% .###..  X$$X    $$$$     $$$$    X$$X  ..###. %%%%%%%%%",
"%%%%%%%% .ooo#.  X++X    ++++     ++++    X++X  .#ooo. %%%%%%%%%",
"%%%%%%%% .oooo.  X++X    ++++     ++++    X++X  .oooo. %%%%%%%%%",
"%%%%%%%% .oooo.   X$X    X$$X     X$$X    X$X   .oooo. %%%%%%%%%",
"%%%%%%%% .oooo.                                 .oooo. %%%%%%%%%",
"%%%%%%%% ......  OOOOO  OOOOOO   OOOOOO  OOOOO  ...... %%%%%%%%%",
"%%%%%%%% .....  O$$$$O  O$$$$O   O$$$$O  O$$$$O  ..... %%%%%%%%%",
"%%%%%%%%%       O$$$$O$XO$$$$OX$XO$$$$OX$O$$$$O       %%%%%%%%%%",
"%%%%%%%% .....  O@@@@OXXO@@@@OXXXO@@@@OXXO@@@@O  ..... %%%%%%%%%",
"%%%%%%%% .####. OO@@OOXXOO@@@OXXXO@@@OOXXOO@@OO .####. %%%%%%%%%",
"%%%%%%%% .oooo. OOOOOO  OOOOOO   OOOOOO  OOOOOO .oooo. %%%%%%%%%",
"%%%%%%%% .oooo.  OOOOO  OOOOOO   OOOOOO  OOOOO  .oooo. %%%%%%%%%",
"%%%%%%%% .oooo.                                 .oooo. %%%%%%%%%",
"%%%%%%%% .oooo.   XXX    XXXX     XXXX    XXX   .oooo. %%%%%%%%%",
"%%%%%%%% ......  XXXX    XXXX     XXXX    XXXX  ...... %%%%%%%%%",
"%%%%%%%% .....   XX$X    X$$X     X$$X    X$XX   ..... %%%%%%%%%",
"%%%%%%%%%        X$$X    $$$$     $$$$    X$$X        %%%%%%%%%%",
"%%%%%%%% .....   X$$X    $$$$     $$$$    X$$X   ..... %%%%%%%%%",
"%%%%%%%% .####.  X++X    ++++     ++++    X++X  .####. %%%%%%%%%",
"%%%%%%%% .oooo.  X++X    ++++     ++++    X++X  .oooo. %%%%%%%%%",
"%%%%%%%% .oooo.  X++X    ++++     ++++    X++X  .oooo. %%%%%%%%%",
"%%%%%%%% .oooo.   X+X    X++X     X++X    X+X   .oooo. %%%%%%%%%",
"%%%%%%%% .oooo.                                 .oooo. %%%%%%%%%",
"%%%%%%%% .oooo.  OOOOO  OOOOOO   OOOOOO  OOOOO  .oooo. %%%%%%%%%",
"%%%%%%%% ...... O$$$$O  O$$$$O   O$$$$O  O$$$$O ...... %%%%%%%%%",
"%%%%%%%% .....  O@@@@O+XO@@@@OX+XO@@@@OX+O@@@@O  ..... %%%%%%%%%",
"%%%%%%%%%       O@@@@OXXO@@@@OXXXO@@@@OXXO@@@@O       %%%%%%%%%%",
"%%%%%%%% .....  OO@@OOXXOO@@@OXXXO@@@OOXXOO@@OO  ..... %%%%%%%%%",
"%%%%%%%% .####. OOOOOO  OOOOOO   OOOOOO  OOOOOO .####. %%%%%%%%%",
"%%%%%%%% .oooo.  OOOOO  OOOOOO   OOOOOO  OOOOO  .oooo. %%%%%%%%%",
"%%%%%%%% .oooo.                                 .oooo. %%%%%%%%%",
"%%%%%%%% .....    XXX    XXXX     XXXX    XXX    ..... %%%%%%%%%",
"%%%%%%%%%        XXXX    XXXX     XXXX    XXXX        %%%%%%%%%%",
"%%%%%%%% .....   XX+X    X++X     X++X    X+XX   ..... %%%%%%%%%",
"%%%%%%%% .o##o.   +++    ++++     ++++    +++   .o##o. %%%%%%%%%",
"%%%%%%%  .....                                   .....  %%%%%%%%",
"%%%%%%                                                   %%%%%%%",
"%%%%%%%%%%%%%%%%%%%%%%%%%%%%%%%%%%%%%%%%%%%%%%%%%%%%%%%%%%%%%%%%",
"%%%%%%%%%%%%%%%%%%%%%%%%%%%%%%%%%%%%%%%%%%%%%%%%%%%%%%%%%%%%%%%%",
"%%%%%%%%%%%%%%%%%%%%%%%%%%%%%%%%%%%%%%%%%%%%%%%%%%%%%%%%%%%%%%%%",
"%%%%%%%%%%%%%%%%%%%%%%%%%%%%%%%%%%%%%%%%%%%%%%%%%%%%%%%%%%%%%%%%"
};
