/* XPM */
static char *result[] = {
/* columns rows colors chars-per-pixel */
"64 64 3 1 ",
"  c #11498E",
". c #0B145C",
"X c #179DC2",
/* pixels */
"            ..XX                            ..XX                ",
"              ..XX                            ..XX              ",
"               ..X                             ..X              ",
"                ..X                             ..X             ",
"                 .XX                             .XX            ",
"                 ..XX                            ..XX           ",
"                  ..X                             ..X           ",
"                  ..X                             ..X           ",
"                   .XX                             .XX          ",
"                   ..XX                            ..XX         ",
"                    ..XX                            ..XX        ",
"                    ...X                            ...X        ",
"                     ...XX                           ...XX      ",
"                       ..X                             ..X      ",
"                       ..XX                            ..XX     ",
"                        ..X                             ..X     ",
"                        ..X                             ..X     ",
"                        ..X                             ..X     ",
"                         .X                              .X     ",
"                         ..X                             ..X    ",
"                          .XX                             .XX   ",
"                          .XX                             .XX   ",
"                          ..XXXX                          ..XXXX",
"X                          .....X                          .....",
"XX                             .XX                             .",
"..XX                            ..XX                            ",
" ..XX                            ..XX                           ",
"  ..X                             ..X                           ",
"  ..XXX                           ..XXX                         ",
"    ...XXXX                         ...XXXX                     ",
"      ...XXXXX                        ...XXXXX                  ",
"        .....XX                         .....XX                 ",
"            ..XX                            ..XX                ",
"              ..XX                            ..XX              ",
"               ..X                             ..X              ",
"                ..X                             ..X             ",
"                 .XX                             .XX            ",
"                 ..XX                            ..XX           ",
"                  ..X                             ..X           ",
"                  ..X                             ..X           ",
"                   .XX                             .XX          ",
"                   ..XX                            ..XX         ",
"                    ..XX                            ..XX        ",
"                    ...X                            ...X        ",
"                     ...XX                           ...XX      ",
"                       ..X                             ..X      ",
"                       ..XX                            ..XX     ",
"                        ..X                             ..X     ",
"                        ..X                             ..X     ",
"                        ..X                             ..X     ",
"                         .X                              .X     ",
"                         ..X                             ..X    ",
"                          .XX                             .XX   ",
"                          .XX                             .XX   ",
"                          ..XXXX                          ..XXXX",
"X                          .....X                          .....",
"XX                             .XX                             .",
"..XX                            ..XX                            ",
" ..XX                            ..XX                           ",
"  ..X                             ..X                           ",
"  ..XXX                           ..XXX                         ",
"    ...XXXX                         ...XXXX                     ",
"      ...XXXXX                        ...XXXXX                  ",
"        .....XX                         .....XX                 "
};
