/* XPM */
static char *result[] = {
/* columns rows colors chars-per-pixel */
"64 64 154 2 ",
"   c #3B353D",
".  c #3D3B46",
"X  c #3E3C49",
"o  c #423C44",
"O  c #413E4B",
"+  c #43414E",
"@  c #4B444C",
"#  c #454452",
"$  c #494655",
"%  c #4A4857",
"&  c #4C4C5C",
"*  c #544D53",
"=  c #575055",
"-  c #565158",
";  c #58535A",
":  c #4D4F60",
">  c #4F5162",
",  c #535365",
"<  c #54566A",
"1  c #56596D",
"2  c #595B6E",
"3  c #565770",
"4  c #575A70",
"5  c #5B5D72",
"6  c #605D63",
"7  c #5F616B",
"8  c #5D6076",
"9  c #5E6379",
"0  c #626266",
"q  c #69646B",
"w  c #69686D",
"e  c #606277",
"r  c #6C6C71",
"t  c #62657B",
"y  c #65697E",
"u  c #696C7E",
"i  c #717076",
"p  c #77757A",
"a  c #78767C",
"s  c #656B82",
"d  c #696E84",
"f  c #6E7286",
"g  c #677088",
"h  c #6C738A",
"j  c #717487",
"k  c #7E7E83",
"l  c #71768C",
"z  c #73798D",
"x  c #717790",
"c  c #757B93",
"v  c #797E94",
"b  c #777F98",
"n  c #787F99",
"m  c #7C8195",
"M  c #7C839B",
"N  c #828187",
"B  c #82858B",
"V  c #8A8D94",
"C  c #81879E",
"Z  c #85899C",
"A  c #93959C",
"S  c #97999F",
"D  c #8187A0",
"F  c #848AA2",
"G  c #8A8EA5",
"H  c #8692A3",
"J  c #8C92A6",
"K  c #8E92A9",
"L  c #8B98A9",
"P  c #969BA1",
"I  c #9C9DA3",
"U  c #9194AB",
"Y  c #969AAD",
"T  c #979CB1",
"R  c #9B9EB2",
"E  c #9CA1A7",
"W  c #9FA4A9",
"Q  c #91A1B3",
"!  c #9CA0B3",
"~  c #9CABBC",
"^  c #A3A6AE",
"/  c #A1A4B6",
"(  c #A4A9B3",
")  c #A3A7BA",
"_  c #A6ADBD",
"`  c #A9AEBD",
"'  c #ADB1B7",
"]  c #ADB2BD",
"[  c #B3B9BF",
"{  c #9DB4C7",
"}  c #9EBFDB",
"|  c #AAAFC1",
" . c #A1B5C7",
".. c #ADB3C3",
"X. c #AFB8C6",
"o. c #B3B6C4",
"O. c #B4B8C7",
"+. c #B6BBCB",
"@. c #9FC0DB",
"#. c #BCC3C8",
"$. c #A7C0D5",
"%. c #A4C4DC",
"&. c #A8C6DE",
"*. c #ABC9DF",
"=. c #B0CADF",
"-. c #BACEDF",
";. c #AECBE0",
":. c #B2CDE2",
">. c #B8CEE0",
",. c #B6D1E4",
"<. c #BBD4E5",
"1. c #BED9E7",
"2. c #C1C4CC",
"3. c #C0C8CF",
"4. c #C2C7D4",
"5. c #C5CAD4",
"6. c #C8CED6",
"7. c #C7CDD9",
"8. c #C9CFDA",
"9. c #CDD4DD",
"0. c #D1D9DE",
"q. c #C2D5E3",
"w. c #CFD7E2",
"e. c #C1D8E7",
"r. c #CDDAE4",
"t. c #C2D7E8",
"y. c #C4DBE9",
"u. c #CADEEC",
"i. c #D1D7E1",
"p. c #D5DDE5",
"a. c #D9DEE7",
"s. c #D7DFE8",
"d. c #C6E1EA",
"f. c #CCE1EC",
"g. c #D7E1E7",
"h. c #D8E0E7",
"j. c #D3E3ED",
"k. c #DBE4EC",
"l. c #DFE8EE",
"z. c #D6E5F0",
"x. c #D9E7F1",
"c. c #D4EEF4",
"v. c #DCEAF2",
"b. c #D4F0F6",
"n. c #D8F0F7",
"m. c #E0E7ED",
"M. c #E1EAEF",
"N. c #E3EDF4",
"B. c #E8EFF6",
"V. c #E3F0F7",
"C. c #E9F0F7",
"Z. c #E7F1F8",
"A. c #EAF2F8",
"S. c None",
/* pixels */
"S.S.S.S.S.S.S.S.S.S.S.S.S.S.S.S.S.S.S.S.S.S.S.S.S.S.S.S.S.S.S.S.S.S.S.S.S.S.S.S.S.S.S.S.S.S.S.S.S.S.S.S.S.S.S.S.S.S.S.S.S.S.S.S.",
"S.S.S.S.S.S.S.S.S.S.S.S.S.S.S.S.S.S.S.S.S.S.S.S.S.S.S.S.S.S.S.S.S.S.S.S.S.S.S.S.S.S.S.S.S.S.S.S.S.S.S.S.S.S.S.S.S.S.S.S.S.S.S.S.",
"S.S.S.S.S.S.S.S.S.S.S.S.S.S.S.S.S.S.S.S.S.S.S.S.S.S.S.S.S.S.S.S.S.S.S.S.S.S.S.S.S.S.S.S.S.S.S.S.S.S.S.S.S.S.S.S.S.S.S.S.S.S.S.S.",
"S.S.S.S.S.S.S.S.S.S.S.S.S.S.S.S.S.S.S.S.S.S.S.S.S.S.S.S.S.S.S.S.S.S.S.S.S.S.S.S.S.S.S.S.S.S.S.S.S.x v Z F F F F F G K K U R X.S.",
"S.S.S.S.& & , S.S.S.S.S.S.S.S.S.S.S.S.S.S.S.S.S.S.S.S.S.S.S.S.S.S.S.S.S.S.S.S.S.f h x x c c c c v M C M D D F F F K U R O.7.p.S.",
"S.S.S.S.& ; , , S.S.S.S.S.S.S.S.S.S.S.S.S.S.S.S.S.S.S.S.S.S.S.S.e t s s d d f h x x x v v v v C D Z F C v M F F K U ..9.s.k.x.S.",
"S.S.S.S.& , < , 2 S.S.S.S.S.S.S.S.S.S.S.S.S.S.S.S.S.6 5 e 5 5 e t y s s s h h c c c c n D C C m C C v C v C J T | 4.a.m.m.N.N.S.",
"S.S.S.S.& < , 2 2 8 t S.S.S.S.S.S.S.S.S.S.S.5 5 7 5 5 8 t t t e t s s d h x c m C M C C D D F j Y ( 0 0 F U o.7.s.x.M.M.N.N.S.S.",
"S.S.S.S.S., < 3 8 t y s S.S.S.S.S.S.8 5 5 5 5 5 5 5 5 t g s s t s h h x c v n D F C D D F F G F G ..) G ) 7.m.M.N.N.N.N.N.S.S.S.",
"S.S.S.S.S., 5 8 t t y s 8 S.S.3 8 8 6 5 5 5 5 5 e 5 s d h h h g d l c n n n D F F D F F F G G U U U R +.w.m.B.N.N.N.N.N.S.S.S.S.",
"S.S.S.S.S.< 9 s s s y 5 : , 4 t 5 5 5 5 5 5 e y d h x x x h x x c n n M C C F G G F F G U U U Y R | 4.i.p.m.B.B.B.B.S.S.S.S.S.S.",
"S.S.S.S.S.8 t s d g 1 & , 5 9 t t 8 e 5 e e t d x c c c c x b M n M M M C Z G K G G K U U Y R | +.i.a.a.m.M.N.B.B.S.S.S.S.S.S.S.",
"S.S.S.S.S.5 9 s t , & < 4 9 t t t t 9 t y s d x x n n n b v m M M D C F C G K G G U U T R o.8.9.p.a.m.N.M.N.B.N.S.S.S.S.S.S.S.S.",
"S.S.S.S.S.S.5 5 & $ , 4 5 t y s s s t y s h h c x n b n b b M M M D F F F G U U U T / O.5.4.W W B ^ S [ 5.m.S.S.S.S.S.S.S.S.S.S.",
"S.S.S.S.S.S.1 & % , 3 5 9 t s s d s s s d h x c c M c b m c M C D D D F K U R ) o.4.i.] k r ; r 6 0 B q S.S.S.S.S.S.S.S.S.S.S.S.",
"S.S.S.S.S.S.$ % > 1 < 1 5 t d h d h h h h c l b h M v j M l C C D D F K R ] 4.i.a.4.a * * * @ @ $ * 0 S.S.S.S.S.S.S.S.S.S.S.S.S.",
"S.S.S.S.S.$ $ , < < < 1 5 9 d h h h h h h c c c h v m j M c C Z F G T X.5.p.g.l.0.A N p p q w q = N S.^ S.S.S.S.S.S.S.S.S.S.S.S.",
"S.S.S.S.S.$ , 1 < < 4 4 8 s g h h h h x x n b h c l M l m M z U T ..8.g.v.N.v.N.V.v.k.k.p.0.9.#.S P V A S.S.S.S.S.S.S.S.S.S.S.S.",
"S.S.S.S.S.< 3 1 < 4 5 9 s s g d h g h x n M n f m f M m c H Z ` 8.s.v.v.V.N.n.Z.n.Z.Z.C.Z.Z.A.V.v.c.d.S.S.S.S.S.S.S.S.S.S.S.S.S.",
"S.S.S.S., 4 4 3 4 5 8 9 s g g g g h h c M M n d m h m Z Z o.5.6.l.v.V.n.V.V.V.V.Z.Z.C.C.C.Z.V.n.b.S.S.S.S.S.S.S.S.S.S.S.S.S.S.S.",
"S.S.S.S.4 4 4 3 4 8 9 9 d h h h h g h x b c b j v Z m ` 4.9.l.k.v.n.V.V.n.Z.N.N.N.V.Z.C.S.S.S.S.S.S.S.S.S.S.S.S.S.S.S.S.S.S.S.S.",
"S.S.S.< 1 3 4 4 8 9 9 s g h g g g h x c b b M F m ` [ 5.k.k.v.n.N.N.V.V.N.N.N.N.S.S.S.S.S.S.S.S.S.S.S.S.S.S.S.S.S.S.S.S.S.S.S.S.",
"S.S.< < 1 4 4 4 8 9 9 g f g g h g h f f f z Z ! ] 2.h.h.k.V.Z.N.n.N.N.N.l.0.S.S.S.S.S.S.S.S.S.S.S.S.S.S.S.S.S.S.S.S.S.S.S.S.S.S.",
"S.S.< < 4 8 4 8 8 9 s g h l l g y f l m m v J X.9.h.h.N.N.B.N.N.N.N.s.' i @ S.S.S.S.S.S.S.S.S.S.S.S.S.S.S.S.S.S.S.S.S.S.S.S.S.S.",
"S.2 < < 1 4 8 4 9 9 s g h g y d l l m m m M ..i.V.C.N.C.B.B.N.M.9.S 2 o   o @ S.S.S.S.S.S.S.S.S.S.S.S.S.S.S.S.S.S.S.S.S.S.S.S.S.",
"S., < 1 8 8 4 8 s s s g s 9 g l l l c m M ! k.V.C.C.C.C.B.B.k.I * o o o @ @ $ S.S.S.S.S.S.S.S.S.S.S.S.S.S.S.S.S.S.S.S.S.S.S.S.S.",
"S.: : < 8 8 9 9 s g s s s d f h h l c M _ k.C.C.A.A.C.N.N.m.S.S.S.@ @ @ + o O X S.S.S.S.S.S.S.S.S.S.S.S.S.S.S.S.S.S.S.S.S.S.S.S.",
"S.& % > 8 9 9 9 s 4 s g f h h j z c m W g.N.C.C.B.A.M.m.S.S.S.S.S.S.S.S.O . X X S.S.S.S.S.S.S.S.S.S.S.S.S.S.S.S.S.S.S.S.S.S.S.S.",
"S.% & > 8 9 9 9 < 4 h l j z z z v m J p.N.Z.N.C.A.B.S.S.S.S.S.S.S.S.S.S.S.S.X X S.S.S.S.S.S.S.S.S.S.S.S.S.S.S.S.S.S.S.S.S.S.S.S.",
"S.% % > 4 9 9 > : g u f f l z z m Y u.v.N.Z.Z.C.S.S.S.S.S.S.S.S.S.S.S.S.S.S.S.. S.S.S.S.S.S.S.S.S.S.S.S.S.S.S.S.S.S.S.S.S.S.S.S.",
"S.% % & > 4 % $ 9 y g f f l m m L 7.j.v.N.N.S.S.S.S.S.S.S.S.S.S.S.S.S.S.S.S.S.S.S.S.S.S.S.S.S.S.S.S.S.S.S.S.S.S.S.S.S.S.S.S.S.S.",
"S.# # % > # X 7 y u d f l z m L -.u.f.j.S.S.S.S.S.S.S.S.S.S.S.S.S.S.S.S.S.S.S.S.S.S.S.S.S.S.S.S.S.S.S.S.S.S.S.S.S.S.S.S.S.S.S.S.",
"S.O O + O o < t u d f j f l T :.u.f.u.S.S.S.S.S.S.S.S.S.S.S.S.S.S.S.S.S.S.S.S.S.S.S.S.S.S.S.S.S.S.S.S.S.S.S.S.S.S.S.S.S.S.S.S.S.",
"S.S.O X X ; e t t u j j f Q :.u.f.S.S.S.S.S.S.S.S.S.S.S.S.S.S.S.S.S.S.S.S.S.S.S.S.S.S.S.S.S.S.S.S.S.S.S.S.S.S.S.S.S.S.S.S.S.S.S.",
"S.S.O X $ 2 t e t u d u Q :.y.f.z.S.S.S.S.S.S.S.S.S.S.S.S.S.S.S.S.S.S.S.S.S.S.S.S.S.S.S.S.S.S.S.S.S.S.S.S.S.S.S.S.S.S.S.S.S.S.S.",
"S.S.X O > e u d u u y { :.u.f.z.S.S.S.S.S.S.S.S.S.S.S.S.S.S.S.S.S.S.S.S.S.S.S.S.S.S.S.S.S.S.S.S.S.S.S.S.S.S.S.S.S.S.S.S.S.S.S.S.",
"S.S.X # , t d j u l { ,.u.u.f.S.S.S.S.S.S.S.S.S.S.S.S.S.S.S.S.S.S.S.S.S.S.S.S.S.S.S.S.S.S.S.S.S.S.S.S.S.S.S.S.S.S.S.S.S.S.S.S.S.",
"S.S.O # - 2 s d G X.<.y.u.u.z.S.S.S.S.S.S.S.S.S.S.S.S.S.S.S.S.S.S.S.S.S.S.S.S.S.S.S.S.S.S.S.M.N.M.N.S.S.S.S.S.S.S.S.S.S.S.S.S.S.",
"S.O + % & 2 M  .;.1.u.f.u.z.z.S.S.S.S.S.S.S.S.S.S.S.S.S.S.S.S.S.S.S.S.S.S.S.S.S.S.p.p.g.l.l.l.M.M.N.S.S.S.S.S.S.S.S.S.S.S.S.S.S.",
"S.O # $ 2 ~ :.:.t.u.u.z.z.z.z.S.S.S.S.S.S.S.S.S.S.S.S.S.S.S.S.S.S.S.S.S.S.p.g.k.k.k.g.k.l.l.l.l.S.S.S.S.S.S.S.S.S.S.S.S.S.S.S.S.",
"+ + # S.S.q.e.e.y.u.f.z.z.x.x.S.S.S.S.S.S.S.S.S.S.S.S.S.S.S.S.S.S.S.S.g.s.s.s.k.k.k.l.l.N.S.S.S.S.S.S.S.S.S.S.S.S.S.S.S.S.S.S.S.",
"S.S.S.S.S.S.y.t.y.y.z.z.x.v.V.S.S.S.S.S.S.S.S.S.S.S.S.S.S.S.S.S.g.g.r.<.>.:.>.t.y.f.v.S.S.S.S.S.S.S.S.S.S.S.S.S.S.S.S.S.S.S.S.S.",
"S.S.S.S.S.S.S.1.e.z.v.v.N.N.x.x.S.S.S.S.S.S.S.S.S.S.S.S.S.S.g.g.p.q.*.$.;.;.>.<.t.u.S.S.S.S.S.S.S.S.S.S.S.S.S.S.S.S.S.S.S.S.S.S.",
"S.S.S.S.S.S.S.S.y.z.v.N.V.v.x.v.v.S.S.S.S.S.S.S.S.S.S.S.r.j.j.t.*.%.&.&.;.:.>.<.S.S.S.S.S.S.S.S.S.S.S.S.S.S.S.S.S.S.S.S.S.S.S.S.",
"S.S.S.S.S.S.S.S.S.v.N.N.v.v.v.v.x.v.v.S.S.S.S.S.S.S.q.,.;.;.;.%.%.&.&.;.;.;.,.S.S.S.S.S.S.S.S.S.S.S.S.S.S.S.S.S.S.S.S.S.S.S.S.S.",
"S.S.S.S.S.S.S.S.S.S.S.v.v.v.v.x.z.x.v.z.u.e.1.<.,.y.,.*.%.} @.%.%.&.%.;.;.S.S.S.S.S.S.S.S.S.S.S.S.S.S.S.S.S.S.S.S.S.S.S.S.S.S.S.",
"S.S.S.S.S.S.S.S.S.S.S.S.v.v.v.x.x.x.x.u.u.e.1.1.1.,.;.%.} } %.%.%.%.&.;.S.S.S.S.S.S.S.S.S.S.S.S.S.S.S.S.S.S.S.S.S.S.S.S.S.S.S.S.",
"S.S.S.S.S.S.S.S.S.S.S.S.S.S.x.x.x.x.x.u.y.e.e.t.e.<.*.%.} @.@.%.%.%.&.S.S.S.S.S.S.S.S.S.S.S.S.S.S.S.S.S.S.S.S.S.S.S.S.S.S.S.S.S.",
"S.S.S.S.S.S.S.S.S.S.S.S.S.S.S.S.S.x.z.d.y.y.y.y.d.1.:.&.%.&.*.&.&.&.S.S.S.S.S.S.S.S.S.S.S.S.S.S.S.S.S.S.S.S.S.S.S.S.S.S.S.S.S.S.",
"S.S.S.S.S.S.S.S.S.S.S.S.S.S.S.S.S.S.S.S.S.S.S.S.y.,.:.*.;.;.:.;.;.*.S.S.S.S.S.S.S.S.S.S.S.S.S.S.S.S.S.S.S.S.S.S.S.S.S.S.S.S.S.S.",
"S.S.S.S.S.S.S.S.S.S.S.S.S.S.S.S.S.S.S.S.S.S.S.S.<.,.*.:.:.:.:.,.,.,.S.S.S.S.S.S.S.S.S.S.S.S.S.S.S.S.S.S.S.S.S.S.S.S.S.S.S.S.S.S.",
"S.S.S.S.S.S.S.S.S.S.S.S.S.S.S.S.S.S.S.S.S.S.S.S.S.:.*.;.:.:.,.1.y.y.S.S.S.S.S.S.S.S.S.S.S.S.S.S.S.S.S.S.S.S.S.S.S.S.S.S.S.S.S.S.",
"S.S.S.S.S.S.S.S.S.S.S.S.S.S.S.S.S.S.S.S.S.S.S.S.S.:.;.;.:.,.<.e.d.f.S.S.S.S.S.S.S.S.S.S.S.S.S.S.S.S.S.S.S.S.S.S.S.S.S.S.S.S.S.S.",
"S.S.S.S.S.S.S.S.S.S.S.S.S.S.S.S.S.S.S.S.S.S.S.S.S.S.,.,.,.<.<.1.y.f.S.S.S.S.S.S.S.S.S.S.S.S.S.S.S.S.S.S.S.S.S.S.S.S.S.S.S.S.S.S.",
"S.S.S.S.S.S.S.S.S.S.S.S.S.S.S.S.S.S.S.S.S.S.S.S.S.S.y.1.<.<.<.1.y.f.S.S.S.S.S.S.S.S.S.S.S.S.S.S.S.S.S.S.S.S.S.S.S.S.S.S.S.S.S.S.",
"S.S.S.S.S.S.S.S.S.S.S.S.S.S.S.S.S.S.S.S.S.S.S.S.S.S.S.d.d.d.1.y.u.f.S.S.S.S.S.S.S.S.S.S.S.S.S.S.S.S.S.S.S.S.S.S.S.S.S.S.S.S.S.S.",
"S.S.S.S.S.S.S.S.S.S.S.S.S.S.S.S.S.S.S.S.S.S.S.S.S.S.S.S.f.d.d.d.d.f.f.S.S.S.S.S.S.S.S.S.S.S.S.S.S.S.S.S.S.S.S.S.S.S.S.S.S.S.S.S.",
"S.S.S.S.S.S.S.S.S.S.S.S.S.S.S.S.S.S.S.S.S.S.S.S.S.S.S.S.S.d.f.d.d.f.f.S.S.S.S.S.S.S.S.S.S.S.S.S.S.S.S.S.S.S.S.S.S.S.S.S.S.S.S.S.",
"S.S.S.S.S.S.S.S.S.S.S.S.S.S.S.S.S.S.S.S.S.S.S.S.S.S.S.S.S.S.S.d.d.d.d.S.S.S.S.S.S.S.S.S.S.S.S.S.S.S.S.S.S.S.S.S.S.S.S.S.S.S.S.S.",
"S.S.S.S.S.S.S.S.S.S.S.S.S.S.S.S.S.S.S.S.S.S.S.S.S.S.S.S.S.S.S.S.S.d.d.S.S.S.S.S.S.S.S.S.S.S.S.S.S.S.S.S.S.S.S.S.S.S.S.S.S.S.S.S.",
"S.S.S.S.S.S.S.S.S.S.S.S.S.S.S.S.S.S.S.S.S.S.S.S.S.S.S.S.S.S.S.S.S.S.S.S.S.S.S.S.S.S.S.S.S.S.S.S.S.S.S.S.S.S.S.S.S.S.S.S.S.S.S.S.",
"S.S.S.S.S.S.S.S.S.S.S.S.S.S.S.S.S.S.S.S.S.S.S.S.S.S.S.S.S.S.S.S.S.S.S.S.S.S.S.S.S.S.S.S.S.S.S.S.S.S.S.S.S.S.S.S.S.S.S.S.S.S.S.S.",
"S.S.S.S.S.S.S.S.S.S.S.S.S.S.S.S.S.S.S.S.S.S.S.S.S.S.S.S.S.S.S.S.S.S.S.S.S.S.S.S.S.S.S.S.S.S.S.S.S.S.S.S.S.S.S.S.S.S.S.S.S.S.S.S.",
"S.S.S.S.S.S.S.S.S.S.S.S.S.S.S.S.S.S.S.S.S.S.S.S.S.S.S.S.S.S.S.S.S.S.S.S.S.S.S.S.S.S.S.S.S.S.S.S.S.S.S.S.S.S.S.S.S.S.S.S.S.S.S.S."
};
