/* XPM */
static char *result[] = {
/* columns rows colors chars-per-pixel */
"65 64 5 1 ",
"  c #4FA92D",
". c #88CC36",
"X c #2D8D27",
"o c #4FA92C",
"O c #88CD36",
/* pixels */
"   .  X .   X X X. X X  X X  X     .  X .   X X X. X X  X X  X   ",
".X X. X X   X   XX.      . . X  .X X. X X   X   XX.      . . X  .",
"X  XX   X. . . . XX  X.  X X   .X  XX   X. . . . XX  X.  X X   .X",
"X   X  . X X X X  X .XX. X X.  XX   X  . X X X X  X .XX. X X.  XX",
"X .   .X   X  .    .X XXX   X  XX .   .X   X  .    .X XXX   X  XX",
"  X.  XX X.   X  . XX  X   .X     X.  XX X.   X  . XX  X   .X    ",
". XX  X  XX.  X .X X    X. XX . . XX  X  XX.  X .X X    X. XX . .",
"X       . XX . XXX   .  XX.X .X X       . XX . XXX   .  XX.X .X X",
"  .X  . X  X X  X    X   XX  XX   .X  . X  X X  X    X   XX  XX  ",
" .XX .X   .   .  .X  X .  X  X   .XX .X   .   .  .X  X .  X  X   ",
"XXX  XX . X  .X .XX    X    . . XXX  XX . X  .X .XX    X    . . X",
" X   X  X X  XX XX .  .X  . X X  X   X  X X  XX XX .  .X  . X X  ",
".   . . X    X  X  X .X  .X   X .   . . X    X  X  X .X  .X   X .",
"X  .X X   .      . X XX. XX     X  .X X   .      . X XX. XX     X",
"   XX     X .  . X   X X X  .X .   XX     X .  . X   X X X  .X . ",
" . X  X.  X X. X X .  .    .XX X . X  X.  X X. X X .  .    .XX X ",
" X    XX.   XX X   X  X   XXX  . X    XX.   XX X   X  X   XXX  . ",
" X   . XX    X    X.  XX.  X . X X   . XX    X    X.  XX.  X . X ",
"   . X  X  .X     XX.  XX.   X X   . X  X  .X     XX.  XX.   X X ",
" . X X    .XX .    XX   XX .  .  . X X    .XX .    XX   XX .  .  ",
".X X  X.  XX  X .X  X .  X X  X .X X  X.  XX  X .X  X .  X X  X .",
"XX  .  X. X    .XX    X .  X  X XX  .  X. X    .XX    X .  X  X X",
"XX  X  XX    . XX   . X X   .   XX  X  XX    . XX   . X X   .   X",
"X   X  XX   .X X . .X   X   X.  X   X  XX   .X X . .X   X   X.  X",
"  .         XX   X XX .  .X XX .  .         XX   X XX .  .X XX . ",
"  X X.    . X      X .X .XX  X X  X X.    . X      X .X .XX  X X ",
"  X XX.  .X      .   XX XX .   X  X XX.  .X      .   XX XX .   X ",
" .   XX  XX   . .X   X  X  X .   .   XX  XX   . .X   X  X  X .   ",
" X .  X  X   .X XX  .    . X X.  X .  X  X   .X XX  .    . X X.  ",
" X X.  .  .  XX X . X .  X   XX  X X.  .  .  XX X . X .  X   XX  ",
".  XX  X. X  X    X X.X . .   X .  XX  X. X  X    X X.X . .   X .",
"X   X .XX X . .    . XX X X  .  X   X .XX X . .    . XX X X  .  X",
"   .  X .   X X X. X X  X X  X     .  X .   X X X. X X  X X  X   ",
".X X. X X   X   XX.o     . . X  .X X. X X   X   XX.      . . X  .",
"X  XX   X. . . . XX  X.  X X   .X  XX   X. . . . XX  X.  X X   .X",
"X   X  . X X X X  X .XX. X X.  XX   X  . X X X X  X .XX. X X.  XX",
"X .   .X   X  .    .X XXX   X  XX .   .X   X  .    .X XXX   X  XX",
"  X.  XX X.   X  . XX  X   .X     X.  XX X.   X  . XX  X   .X    ",
". XX  X  XX.  X .X X    X. XX . . XX  X  XX.  X .X X    X. XX . .",
"X       . XX . XXX   .  XX.X .X X       . XX . XXX   .  XX.X .X X",
"  .X  . X  X X  X    X   XX  XX   .X  . X  X X  X    X   XX  XX  ",
" .XX .X   .   .  .X  X .  X  X   .XX .X   .   .  .X  X .  X  X   ",
"XXX  XX . X  .X .XX    X    . . XXX  XX . X  .X .XX    X    . . X",
" X   X  X X  XX XX .  .X  . X X  X   X  X X  XX XX .  .X  . X X  ",
".   . . X    X  X  X .X  .X   X .   . . X    X  X  X .X  .X   X .",
"X  .X X   .      . X XX. XX     X  .X X   .      . X XX. XX     X",
"   XX     X .  . X   X X X  .X .   XX     X .  . X   X X X  .X . ",
" . X  X.  X X. X X .  .    .XX X . X  X.  X X. X X .  .    .XX X ",
" X    XX.   XX X   X  X   XXX  . X    XX.   XX X   X  X   XXX  . ",
" X   . XX    X    X.  XX.  X . X X   . XX    X    X.  XX.  X . X ",
"   . X  X  .X     XX.  XX.   X X   . X  X  .X     XX.  XX.   X X ",
" . X X    .XX .    XX   XX .  .  . X X    .XX .    XX   XX .  .  ",
".X X  X.  XX  X .X  X .  X X  X .X X  X.  XX  X .X  X .  X X  X .",
"XX  .  X. X    .XX    X .  X  X XX  .  X. X    .XX    X .  X  X X",
"XX  X  XX    . XX   . X X   .   XX  X  XX    . XX   . X X   .   X",
"X   X  XX   .X X . .X   X   X.  X   X  XX   .X X . .X   X   X.  X",
"  .         XX   X XX .  .X XX .  .         XX   X XX .  .X XX . ",
"  X X.    . X      X .X .XX  X X  X X.    . X      X .X .XX  X X ",
"  X XX.  OX      .   XX XX .   X  X XX.  .X      .   XX XX .   X ",
" .   XX  XX   . .X   X  X  X .   .   XX  XX   . .X   X  X  X .   ",
" X .  X  X   .X XX  .    . X X.  X .  X  X   .X XX  .    . X X.  ",
" X X.  .  .  XX X . X .  X   XX  X X.  .  .  XX X . X .  X   XX  ",
".  XX  X. X  X    X X.X . .   X .  XX  X. X  X    X X.X . .   X .",
"X   X .XX X . .    . XX X X  .  X   X .XX X . .    . XX X X  .  X"
};
