/* XPM */
static char *result[] = {
/* columns rows colors chars-per-pixel */
"64 64 67 1 ",
"  c black",
". c gray4",
"X c #141413",
"o c #1B1B1B",
"O c #252524",
"+ c #282827",
"@ c #2C2C2A",
"# c #30302F",
"$ c #343432",
"% c #3A3A37",
"& c #3B3B39",
"* c #444442",
"= c #4A4A47",
"- c #4D4D49",
"; c #51514F",
": c #545451",
"> c #5A5A56",
", c #5D5D59",
"< c #60605C",
"1 c #676763",
"2 c #6A6A66",
"3 c #6D6D69",
"4 c #72726D",
"5 c #777772",
"6 c #7E7E79",
"7 c #80807B",
"8 c #868680",
"9 c #8B8B85",
"0 c #8F8F88",
"q c #93938C",
"w c #969691",
"e c #9B9B95",
"r c #A3A39C",
"t c #A7A7A0",
"y c #ADADA6",
"u c #B3B3AC",
"i c #B5B5B0",
"p c #BCBCB4",
"a c #BFBFB8",
"s c #C4C4BC",
"d c #C8C8BF",
"f c #C6C6C0",
"g c #CBCBC2",
"h c #D0D0C7",
"j c #D0D0C9",
"k c #D3D3CC",
"l c #D4D4CC",
"z c #D7D7D1",
"x c #DADAD1",
"c c #DCDCD3",
"v c #DDDDD5",
"b c #DFDFD8",
"n c #E0E0D7",
"m c #E2E2DA",
"M c #E6E6DD",
"N c #E8E8DF",
"B c #EAEAE1",
"V c #ECECE3",
"C c #EEEEE4",
"Z c #F0F0E7",
"A c #F2F2E8",
"S c #F5F5EB",
"D c #F6F6EC",
"F c #F9F9EF",
"G c #FAFAF0",
"H c #FCFCF2",
"J c #11498E",
/* pixels */
"JJJJJJJJJJJJJJJJJJJJJJJJJJJJJJJJJJJJJJJJJJJJJJJJJJJJJJJJJJJJJJJJ",
"JJJJJJJJJJJJJJJJJJJJJJJJJJJJJJJJJJJJJJJJJJJJJJJJJJJJJJJJJJJJJJJJ",
"JJJJJJJJJJJJJJJJJJJJJJJJJJJJJJJJJJJJJJJJJJJJJJJJJJJJJJJJJJJJJJJJ",
"JJJJJJJJJJJJJJJJJJJJJJJJJJJJJJJJJJJJJJJJJJJJJJJJJJJJJJJJJJJJJJJJ",
"JJJJJJJJJJJJJJJJJJJJJJJJJJJJJJJJJJJJJJJJJJJJJJJJJJJJJJJJJJJJJJJJ",
"JJJJJJJJJJJJJJJJJJJJJJJJJJJJJJJJJJJJJJJJJJJJJJJJJJJJJJJJJJJJJJJJ",
"JJJJJJJJJJJJJJJJJJJJJJJJJJJJJJJJJJJJJJJJJJJJJJJJJJJJJJJJJJJJJJJJ",
"JJJJJJJJJJJJJJJJJJJJJJJJJJJJJJJJJJJJJJJJJJJJJJJJJJJJJJJJJJJJJJJJ",
"JJJJJJJJJJJJJJJJJJJJJJJJJJJJJJJJJJJJJJJJJJJJJJJJJJJJJJJJJJJJJJJJ",
"JJJJJJJJJJJJJJJJJJJJJJJJJJJJJJJJJJJJJJJJJJJJJJJJJJJJJJJJJJJJJJJJ",
"JJJJJJJJJJJJJJJJJJJJJJJJJJJJJJJJJJJJJJJJJJJJJJJJJJJJJJJJJJJJJJJJ",
"JJJJJJJJJJJJJJJJJJJJJJJJJJJJJJJJJJJJJJJJJJJJJJJJJJJJJJJJJJJJJJJJ",
"JJJJJJJJJJJJJJJJJJJJJJJJJJJJJJJJJJJJJJJJJJJJJJJJJJJJJJJJJJJJJJJJ",
"JJJJJJJJJJJJJJJJJJJJJJJJJJJJJJJJJJJJJJJJJJJJJJJJJJJJJJJJJJJJJJJJ",
"JJJJJJJJJJJJJJJJJJJJJJJJJJJJJJJJJJJJJJJJJJJJJJJJJJJJJJJJJJJJJJJJ",
"JJJJJJJJJJJJJJJJJJJJJJJJJJJJJJJJJJJJJJJJJJJJJJJJJJJJJJJJJJJJJJJJ",
"JJJJJJJJJJJJJJJJJJJJJJJJJJJJJJJJJJJJJJJJJJJJJJJJJJJJJJJJJJJJJJJJ",
"JJJJJJJJJJJJJJJJJJJJJJJJJJJJJJJJJJJJJJJJJJJJJJJJJJJJJJJJJJJJJJJJ",
"JJJJJJJJJJJJJJJJJJJJJJJJJJJJJJJJJJJJJJJJJJJJJJJJJJJJJJJJJJJJJJJJ",
"JJJJJJJJJJJJJJJJJJJJJJJJJJJJJJJJJJJJJJJJJJJJJJJJJJJJJJJJJJJJJJJJ",
"JJJJJJJJJJJJJJJJJJJJJJJJJJJJJJJJJJJJJJJJJJJJJJJJJJJJJJJJJJJJJJJJ",
"JJJJJJJJJJJJJJJJJJJJJJJJJJJJJJJJJJJJJJJJJJJJJJJJJJJJJJJJJJJJJJJJ",
"JJJJJJJJJJJJJJJJJJJJJJJJJJJJOX.o@oX8JJJJJJJJJJJJJJJJJJJJJJJJJJJJ",
"JJJJJJJJJJJJJJJJJJJJJJJJJoo.      $lMvkJJJJJJJJJJJJJJJJJJJJJJJJJ",
"JJJJJJJJJJJJJJJJJJJJJJJs9@   X@&*&9FFSVmzJJJJJJJJJJJJJJJJJJJJJJJ",
"JJJJJJJJJJJJJJJJJJJJJJgmDl>;wdvVDZgaCGFSVmJJJJJJJJJJJJJJJJJJJJJJ",
"JJJJJJJJJJJJJJJJJJJJJjNDGCaCHHGGFGGxuCGFFSMzJJJJJJJJJJJJJJJJJJJJ",
"JJJJJJJJJJJJJJJJJJJJlCFFGgxGFFFFFFFGvsSGFFDBzJJJJJJJJJJJJJJJJJJJ",
"JJJJJJJJJJJJJJJJJJJkCFFFZdSFFFFFFFFFGjgDHGFDBJJJJJJJJJJJJJJJJJJJ",
"JJJJJJJJJJJJJJJJJJgBFFFGxxGFFFFFFFFFGM,,qgSHSfJJJJJJJJJJJJJJJJJJ",
"JJJJJJJJJJJJJJJJJfmDFFFFgCFFFFFFFFFFHu.  o,ullbJJJJJJJJJJJJJJJJJ",
"JJJJJJJJJJJJJJJJJlAFFGGvaFFFFFFFFFFGA>     .5DCvJJJJJJJJJJJJJJJJ",
"JJJJJJJJJJJJJJJJiMFFGMq$&gHFFFFFFFFHdX      @vFNJJJJJJJJJJJJJJJJ",
"JJJJJJJJJJJJJJJJwBGGg=   $aGFFFFFGGF3       .uHBJJJJJJJJJJJJJJJJ",
"JJJJJJJJJJJJJJJJugms@     @gHGGGSBMsO        9HMdJJJJJJJJJJJJJJJ",
"JJJJJJJJJJJJJJJJmZg&       $gmlgsghl3.       3GxdJJJJJJJJJJJJJJJ",
"JJJJJJJJJJJJJJJjVGxO        <gxCAFGHV2       ,SgsJJJJJJJJJJJJJJJ",
"JJJJJJJJJJJJJJJzCGv+        qHGGFFFFGM:      >ngfJJJJJJJJJJJJJJJ",
"JJJJJJJJJJJJJJJzAGB$       ojGFFFFFFFGx&   X,yudgJJJJJJJJJJJJJJJ",
"JJJJJJJJJJJJJJJxAFD:       >DFFFFFFFFFHaoX,aAmyugJJJJJJJJJJJJJJJ",
"JJJJJJJJJJJJJJJxAFG7      .tHFFFFFFFFFGZedSHVgdypJJJJJJJJJJJJJJJ",
"JJJJJJJJJJJJJJJxZGHu.     @mGFFFFFFFFFGBgHGZjdgy;JJJJJJJJJJJJJJJ",
"JJJJJJJJJJJJJJJJCFGl4:&+X.5GFFFFFFFFFFGllGSlddgeoJJJJJJJJJJJJJJJ",
"JJJJJJJJJJJJJJJJNFDdCDNcjpuAGFFFFFFFFFFgBAldddg5XJJJJJJJJJJJJJJJ",
"JJJJJJJJJJJJJJJJmFBgFFGGHHvdFFFFFFFFFGBsVjddddd-XJJJJJJJJJJJJJJJ",
"JJJJJJJJJJJJJJJJgBvxGFFFFFFglGFFFFFFFGgdgddddgy@JJJJJJJJJJJJJJJJ",
"JJJJJJJJJJJJJJJJJ6yvGFFFFFFSgxGFFFFGGNtddddddg7oJJJJJJJJJJJJJJJJ",
"JJJJJJJJJJJJJJJJJ&@gHFFFFFFGZsvHHGAxy3qgddddgp=JJJJJJJJJJJJJJJJJ",
"JJJJJJJJJJJJJJJJJJ+<CGGGFFFFGSsrq5-+. %pgddda8JJJJJJJJJJJJJJJJJJ",
"JJJJJJJJJJJJJJJJJJJo6mBVZZZVNMe.       2dgsuruJJJJJJJJJJJJJJJJJJ",
"JJJJJJJJJJJJJJJJJJJJo7gggggggg>        XqurusJJJJJJJJJJJJJJJJJJJ",
"JJJJJJJJJJJJJJJJJJJJJ+7dgdddgp@         1usgJJJJJJJJJJJJJJJJJJJJ",
"JJJJJJJJJJJJJJJJJJJJJJ#0uaddd0.       .,aggJJJJJJJJJJJJJJJJJJJJJ",
"JJJJJJJJJJJJJJJJJJJJJJJuuyrreq-X     O6sgJJJJJJJJJJJJJJJJJJJJJJJ",
"JJJJJJJJJJJJJJJJJJJJJJJJJgdddgsr3*$+;tgJJJJJJJJJJJJJJJJJJJJJJJJJ",
"JJJJJJJJJJJJJJJJJJJJJJJJJJJJgggggsprtJJJJJJJJJJJJJJJJJJJJJJJJJJJ",
"JJJJJJJJJJJJJJJJJJJJJJJJJJJJJJJJJJJJJJJJJJJJJJJJJJJJJJJJJJJJJJJJ",
"JJJJJJJJJJJJJJJJJJJJJJJJJJJJJJJJJJJJJJJJJJJJJJJJJJJJJJJJJJJJJJJJ",
"JJJJJJJJJJJJJJJJJJJJJJJJJJJJJJJJJJJJJJJJJJJJJJJJJJJJJJJJJJJJJJJJ",
"JJJJJJJJJJJJJJJJJJJJJJJJJJJJJJJJJJJJJJJJJJJJJJJJJJJJJJJJJJJJJJJJ",
"JJJJJJJJJJJJJJJJJJJJJJJJJJJJJJJJJJJJJJJJJJJJJJJJJJJJJJJJJJJJJJJJ",
"JJJJJJJJJJJJJJJJJJJJJJJJJJJJJJJJJJJJJJJJJJJJJJJJJJJJJJJJJJJJJJJJ",
"JJJJJJJJJJJJJJJJJJJJJJJJJJJJJJJJJJJJJJJJJJJJJJJJJJJJJJJJJJJJJJJJ",
"JJJJJJJJJJJJJJJJJJJJJJJJJJJJJJJJJJJJJJJJJJJJJJJJJJJJJJJJJJJJJJJJ"
};
