/* XPM */
static char *result[] = {
/* columns rows colors chars-per-pixel */
"64 64 70 1 ",
"  c black",
". c #0B0B0A",
"X c #10100F",
"o c #131312",
"O c #1A1A19",
"+ c #20201F",
"@ c #252524",
"# c #282827",
"$ c #2B2B29",
"% c #31312F",
"& c #343432",
"* c #393936",
"= c #3D3D3B",
"- c #41413F",
"; c #444441",
": c #484845",
"> c #4D4D4A",
", c #51514D",
"< c #545451",
"1 c #595956",
"2 c #62625E",
"3 c #646460",
"4 c #6B6B66",
"5 c #6E6E69",
"6 c #72726D",
"7 c #777772",
"8 c #7A7A75",
"9 c #7D7D7A",
"0 c #82827D",
"q c #868681",
"w c #8A8A84",
"e c #8F8F89",
"r c #92928C",
"t c #959590",
"y c #989892",
"u c #A3A39C",
"i c #A7A7A0",
"p c #AAAAA3",
"a c #B3B3AB",
"s c #B7B7B0",
"d c #BCBCB4",
"f c #C4C4BC",
"g c #C8C8BF",
"h c #C7C7C0",
"j c #CBCBC2",
"k c #CECEC8",
"l c #D2D2CA",
"z c #D4D4CC",
"x c #D5D5CD",
"c c #D8D8CF",
"v c #D7D7D0",
"b c #D9D9D1",
"n c #DBDBD4",
"m c #DEDED6",
"M c #E0E0D7",
"N c #E3E3DA",
"B c #E5E5DC",
"V c #E8E8DF",
"C c #E9E9E0",
"Z c #ECECE3",
"A c #EFEFE6",
"S c #F0F0E7",
"D c #F3F3EA",
"F c #F5F5EB",
"G c #F7F7ED",
"H c #F9F9EF",
"J c #FAFAF0",
"K c #FCFCF2",
"L c #FEFEF4",
"P c #11498E",
/* pixels */
"PPPPPPPPPPPPPPPPPPPPPPPPPPPPPPPPPPPPPPPPPPPPPPPPPPPPPPPPPPPPPPPP",
"PPPPPPPPPPPPPPPPPPPPPPPPPPPPPPPPPPPPPPPPPPPPPPPPPPPPPPPPPPPPPPPP",
"PPPPPPPPPPPPPPPPPPPPPPPPPPPPPPPPPPPPPPPPPPPPPPPPPPPPPPPPPPPPPPPP",
"PPPPPPPPPPPPPPPPPPPPPPPPPPPPPPPPPPPPPPPPPPPPPPPPPPPPPPPPPPPPPPPP",
"PPPPPPPPPPPPPPPPPPPPPPPPPPPPPPPPPPPPPPPPPPPPPPPPPPPPPPPPPPPPPPPP",
"PPPPPPPPPPPPPPPPPPPPPPPPPPPPPPPPPPPPPPPPPPPPPPPPPPPPPPPPPPPPPPPP",
"PPPPPPPPPPPPPPPPPPPPPPPPPPPPPPPPPPPPPPPPPPPPPPPPPPPPPPPPPPPPPPPP",
"PPPPPPPPPPPPPPPPPPPPPPPPPPPPPPPPPPPPPPPPPPPPPPPPPPPPPPPPPPPPPPPP",
"PPPPPPPPPPPPPPPPPPPPPPPPPPPPPPPPPPPPPPPPPPPPPPPPPPPPPPPPPPPPPPPP",
"PPPPPPPPPPPPPPPPPPPPPPPPPPPPPPPPPPPPPPPPPPPPPPPPPPPPPPPPPPPPPPPP",
"PPPPPPPPPPPPPPPPPPPPPPPPPPPPPPPPPPPPPPPPPPPPPPPPPPPPPPPPPPPPPPPP",
"PPPPPPPPPPPPPPPPPPPPPPPPPPPPPPPPPPPPPPPPPPPPPPPPPPPPPPPPPPPPPPPP",
"PPPPPPPPPPPPPPPPPPPPPPPPPPPPPPPPPPPPPPPPPPPPPPPPPPPPPPPPPPPPPPPP",
"PPPPPPPPPPPPPPPPPPPPPPPPPPPPPPPPPPPPPPPPPPPPPPPPPPPPPPPPPPPPPPPP",
"PPPPPPPPPPPPPPPPPPPPPPPPPPPPPPPPPPPPPPPPPPPPPPPPPPPPPPPPPPPPPPPP",
"PPPPPPPPPPPPPPPPPPPPPPPPPPPPPPPPPPPPPPPPPPPPPPPPPPPPPPPPPPPPPPPP",
"PPPPPPPPPPPPPPPPPPPPPPPPPPPPPPPPPPPPPPPPPPPPPPPPPPPPPPPPPPPPPPPP",
"PPPPPPPPPPPPPPPPPPPPPPPPPPPPPPPPPPPPPPPPPPPPPPPPPPPPPPPPPPPPPPPP",
"PPPPPPPPPPPPPPPPPPPPPPPPPPPPPPPPPPPPPPPPPPPPPPPPPPPPPPPPPPPPPPPP",
"PPPPPPPPPPPPPPPPPPPPPPPPPPPPPPPPPPPPPPPPPPPPPPPPPPPPPPPPPPPPPPPP",
"PPPPPPPPPPPPPPPPPPPPPPPPPPPPPPPPPPPPPPPPPPPPPPPPPPPPPPPPPPPPPPPP",
"PPPPPPPPPPPPPPPPPPPPPPPPPPPPPPPPPPPPPPPPPPPPPPPPPPPPPPPPPPPPPPPP",
"PPPPPPPPPPPPPPPPPPPPPPPPPPPPPPPPPPPPPPPPPPPPPPPPPPPPPPPPPPPPPPPP",
"PPPPPPPPPPPPPPPPPPPPPPPPPPPPPPPPPPPPPPPPPPPPPPPPPPPPPPPPPPPPPPPP",
"PPPPPPPPPPPPPPPPPPPPPPPPPPPPPPPPPPPPPPPPPPPPPPPPPPPPPPPPPPPPPPPP",
"PPPPPPPPPPPPPPPPPPPPPPPPPPPPPPPPPPPPPPPPPPPPPPPPPPPPPPPPPPPPPPPP",
"PPPPPPPPPPPPPPPPPPPPPPPPPPPPPPPPPPPPPPPPPPPPPPPPPPPPPPPPPPPPPPPP",
"PPPPPPPPPPPPPPPPPPPPPPPPPPPfkxvbvbxbljPPPPPPPPPPPPPPPPPPPPPPPPPP",
"PPPPPPPPPPPPPPPPPPPPPPPP=@pCAFGGGGGFABdjPPPPPPPPPPPPPPPPPPPPPPPP",
"PPPPPPPPPPPPPPPPPPPPPPPO. tSFGJJHJKKJHkBNvPPPPPPPPPPPPPPPPPPPPPP",
"PPPPPPPPPPPPPPPPPPPPP@. .>udfflCHZkpq54lGZmPPPPPPPPPPPPPPPPPPPPP",
"PPPPPPPPPPPPPPPPPPPP#  #uAHGGAmfw=O    %dJDNxPPPPPPPPPPPPPPPPPPP",
"PPPPPPPPPPPPPPPPPPP#  :kKJHHHJJD<       @dJGCvPPPPPPPPPPPPPPPPPP",
"PPPPPPPPPPPPPPPPPPo  >mKHHHHHHHK7        $lKGBPPPPPPPPPPPPPPPPPP",
"PPPPPPPPPPPPPPPPP0552xKHHHHHHHHKr         ,NSFNPPPPPPPPPPPPPPPPP",
"PPPPPPPPPPPPPPPPPbGLfZJHHHHHHHHKa.        :lxbMaPPPPPPPPPPPPPPPP",
"PPPPPPPPPPPPPPPPkCHJjAJHHHHHHHHKko       OfKHAj<PPPPPPPPPPPPPPPP",
"PPPPPPPPPPPPPPPPbDHJlBJHHHHHHHJDfe2%o    wHHHJS1@PPPPPPPPPPPPPPP",
"PPPPPPPPPPPPPPPPNGHJNcJHHHHHHJCfNKGBfw;.1CJHHHKrOPPPPPPPPPPPPPPP",
"PPPPPPPPPPPPPPPkCHHJZlKKJJHHJNfCJHHJKKAafKHHHHHa#PPPPPPPPPPPPPPP",
"PPPPPPPPPPPPPPPvAHHHFrydmSJJbfSJHHHHHHJSjGHHHJCf;PPPPPPPPPPPPPPP",
"PPPPPPPPPPPPPPPvDHHJao .@>0ajDJHHHHHHHHHfCJHHGxf5PPPPPPPPPPPPPPP",
"PPPPPPPPPPPPPPPnFHJV-      @bKHHHHHHHHHJxbJHHNjj8PPPPPPPPPPPPPPP",
"PPPPPPPPPPPPPPPmDHKp.      .aKHHHHHHHHHJNjJJZkgfrPPPPPPPPPPPPPPP",
"PPPPPPPPPPPPPPPhSJH3        0KHHHHHHHHHJCjHSlgjaaPPPPPPPPPPPPPPP",
"PPPPPPPPPPPPPPP9fNx=        <DHHHHHHHHHJDsBxggfufPPPPPPPPPPPPPPP",
"PPPPPPPPPPPPPPPPfZCq        $NJHHHHHHHHJf*>wsguakPPPPPPPPPPPPPPP",
"PPPPPPPPPPPPPPPPxGKV,       ofKJHHHHHJJs#  .%6pjPPPPPPPPPPPPPPPP",
"PPPPPPPPPPPPPPPPPAHJb;     .,akBFJJJJFu+     ;fjPPPPPPPPPPPPPPPP",
"PPPPPPPPPPPPPPPPPBHHJx:  +3aAGNkjkmBc7o      8jPPPPPPPPPPPPPPPPP",
"PPPPPPPPPPPPPPPPPPAHJKM4wlGKJJJJSMfa<       @akPPPPPPPPPPPPPPPPP",
"PPPPPPPPPPPPPPPPPPlmVAFfCHFFSZBmxkjj4       6jPPPPPPPPPPPPPPPPPP",
"PPPPPPPPPPPPPPPPPPPfhjkaazkkkjggfggjy.     &iPPPPPPPPPPPPPPPPPPP",
"PPPPPPPPPPPPPPPPPPPPfhjdugffgggggggjs#  X&7pPPPPPPPPPPPPPPPPPPPP",
"PPPPPPPPPPPPPPPPPPPPPPsprajjjgggggjja66qudjPPPPPPPPPPPPPPPPPPPPP",
"PPPPPPPPPPPPPPPPPPPPPPP;+&7pfjjjgffpufjjjPPPPPPPPPPPPPPPPPPPPPPP",
"PPPPPPPPPPPPPPPPPPPPPPPPPOo+;4euappafjgPPPPPPPPPPPPPPPPPPPPPPPPP",
"PPPPPPPPPPPPPPPPPPPPPPPPPPPP@ o<affjPPPPPPPPPPPPPPPPPPPPPPPPPPPP",
"PPPPPPPPPPPPPPPPPPPPPPPPPPPPPPPPPPPPPPPPPPPPPPPPPPPPPPPPPPPPPPPP",
"PPPPPPPPPPPPPPPPPPPPPPPPPPPPPPPPPPPPPPPPPPPPPPPPPPPPPPPPPPPPPPPP",
"PPPPPPPPPPPPPPPPPPPPPPPPPPPPPPPPPPPPPPPPPPPPPPPPPPPPPPPPPPPPPPPP",
"PPPPPPPPPPPPPPPPPPPPPPPPPPPPPPPPPPPPPPPPPPPPPPPPPPPPPPPPPPPPPPPP",
"PPPPPPPPPPPPPPPPPPPPPPPPPPPPPPPPPPPPPPPPPPPPPPPPPPPPPPPPPPPPPPPP",
"PPPPPPPPPPPPPPPPPPPPPPPPPPPPPPPPPPPPPPPPPPPPPPPPPPPPPPPPPPPPPPPP"
};
