/* XPM */
static char *result[] = {
/* columns rows colors chars-per-pixel */
"64 64 76 1 ",
"  c black",
". c #080807",
"X c #0C0C0C",
"o c #10100F",
"O c #151514",
"+ c #1B1B1A",
"@ c #20201F",
"# c #262625",
"$ c #292927",
"% c #2C2C2A",
"& c #30302E",
"* c #343432",
"= c #383836",
"- c #3D3D3B",
"; c #40403E",
": c #454542",
"> c #494946",
", c #4B4B48",
"< c #52524F",
"1 c #565653",
"2 c #5A5A57",
"3 c #5C5C59",
"4 c #62625D",
"5 c #666663",
"6 c #696965",
"7 c #6E6E6A",
"8 c #71716C",
"9 c #767671",
"0 c #7A7A75",
"q c #7E7E79",
"w c #83837E",
"e c #878781",
"r c #8B8B85",
"t c #8E8E89",
"y c #92928C",
"u c #969691",
"i c #9B9B95",
"p c #9F9F99",
"a c #A3A39C",
"s c #A7A7A0",
"d c #ACACA5",
"f c #AFAFA8",
"g c #B3B3AC",
"h c #B7B7B1",
"j c #BBBBB3",
"k c #BFBFB8",
"l c #C4C4BC",
"z c #C8C8BF",
"x c #C7C7C0",
"c c #CACAC2",
"v c #CFCFC9",
"b c #D0D0C7",
"n c #D2D2CA",
"m c #D6D6CE",
"M c #D8D8CF",
"N c #D7D7D0",
"B c #D9D9D2",
"V c #DCDCD3",
"C c #DBDBD4",
"Z c #DDDDD5",
"A c #E0E0D6",
"S c #E2E2DA",
"D c #E4E4DB",
"F c #E6E6DD",
"G c #E8E8DE",
"H c #EBEBE1",
"J c #ECECE2",
"K c #EFEFE5",
"L c #F2F2E7",
"P c #F3F3EA",
"I c #F4F4EA",
"U c #F7F7ED",
"Y c #F9F9EF",
"T c #FBFBF0",
"R c #FDFDF2",
"E c #11498E",
/* pixels */
"EEEEEEEEEEEEEEEEEEEEEEEEEEEEEEEEEEEEEEEEEEEEEEEEEEEEEEEEEEEEEEEE",
"EEEEEEEEEEEEEEEEEEEEEEEEEEEEEEEEEEEEEEEEEEEEEEEEEEEEEEEEEEEEEEEE",
"EEEEEEEEEEEEEEEEEEEEEEEEEEEEEEEEEEEEEEEEEEEEEEEEEEEEEEEEEEEEEEEE",
"EEEEEEEEEEEEEEEEEEEEEEEEEEEEEEEEEEEEEEEEEEEEEEEEEEEEEEEEEEEEEEEE",
"EEEEEEEEEEEEEEEEEEEEEEEEEEEEEEEEEEEEEEEEEEEEEEEEEEEEEEEEEEEEEEEE",
"EEEEEEEEEEEEEEEEEEEEEEEEEEEEEEEEEEEEEEEEEEEEEEEEEEEEEEEEEEEEEEEE",
"EEEEEEEEEEEEEEEEEEEEEEEEEEEEEEEEEEEEEEEEEEEEEEEEEEEEEEEEEEEEEEEE",
"EEEEEEEEEEEEEEEEEEEEEEEEEEEEEEEEEEEEEEEEEEEEEEEEEEEEEEEEEEEEEEEE",
"EEEEEEEEEEEEEEEEEEEEEEEEEEEEEEEEEEEEEEEEEEEEEEEEEEEEEEEEEEEEEEEE",
"EEEEEEEEEEEEEEEEEEEEEEEEEEEEEEEEEEEEEEEEEEEEEEEEEEEEEEEEEEEEEEEE",
"EEEEEEEEEEEEEEEEEEEEEEEEEEEEEEEEEEEEEEEEEEEEEEEEEEEEEEEEEEEEEEEE",
"EEEEEEEEEEEEEEEEEEEEEEEEEEEEEEEEEEEEEEEEEEEEEEEEEEEEEEEEEEEEEEEE",
"EEEEEEEEEEEEEEEEEEEEEEEEEEEEEEEEEEEEEEEEEEEEEEEEEEEEEEEEEEEEEEEE",
"EEEEEEEEEEEEEEEEEEEEEEEEEEEEEEEEEEEEEEEEEEEEEEEEEEEEEEEEEEEEEEEE",
"EEEEEEEEEEEEEEEEEEEEEEEEEEEEEEEEEEEEEEEEEEEEEEEEEEEEEEEEEEEEEEEE",
"EEEEEEEEEEEEEEEEEEEEEEEEEEEEEEEEEEEEEEEEEEEEEEEEEEEEEEEEEEEEEEEE",
"EEEEEEEEEEEEEEEEEEEEEEEEEEEEEEEEEEEEEEEEEEEEEEEEEEEEEEEEEEEEEEEE",
"EEEEEEEEEEEEEEEEEEEEEEEEEEEEEEEEEEEEEEEEEEEEEEEEEEEEEEEEEEEEEEEE",
"EEEEEEEEEEEEEEEEEEEEEEEEEEEEEEEEEEEEEEEEEEEEEEEEEEEEEEEEEEEEEEEE",
"EEEEEEEEEEEEEEEEEEEEEEEEEEEEEEEEEEEEEEEEEEEEEEEEEEEEEEEEEEEEEEEE",
"EEEEEEEEEEEEEEEEEEEEEEEEEEEEcvnBnuhcvEEEEEEEEEEEEEEEEEEEEEEEEEEE",
"EEEEEEEEEEEEEEEEEEEEEEEEEcNSHLPUJnLKHSBnEEEEEEEEEEEEEEEEEEEEEEEE",
"EEEEEEEEEEEEEEEEEEEEEEExBHIYYTRRZSRYYUPGZEEEEEEEEEEEEEEEEEEEEEEE",
"EEEEEEEEEEEEEEEEEEEEEExFIYYTTDd9<tHTYYYYPSmEEEEEEEEEEEEEEEEEEEEE",
"EEEEEEEEEEEEEEEEEEEEE0FPUTTZt*.  .<nTYYYYUHZEEEEEEEEEEEEEEEEEEEE",
"EEEEEEEEEEEEEEEEEEEE&qclxvu&       *xTYYYYYLlEEEEEEEEEEEEEEEEEEE",
"EEEEEEEEEEEEEEEEEEE%9FLPKZ;         -BYUUTTTr+EEEEEEEEEEEEEEEEEE",
"EEEEEEEEEEEEEEEEEE*3HTYYTP<         .yvlcnmZ, XEEEEEEEEEEEEEEEEE",
"EEEEEEEEEEEEEEEEE1-mTYYYYY5         -SUUPDMd@  EEEEEEEEEEEEEEEEE",
"EEEEEEEEEEEEEEEEE;sTYYYYYRq        .sRYYYTTU0  .EEEEEEEEEEEEEEEE",
"EEEEEEEEEEEEEEEE27PTYYYYYRi        3LTYYYYYTB%  EEEEEEEEEEEEEEEE",
"EEEEEEEEEEEEEEEEplTYYYYYYRh+.     $vRYYYYYYYTw  .EEEEEEEEEEEEEEE",
"EEEEEEEEEEEEEEEEcSTYYYYYTHllgiw71:uTYYYYYYYYRv+ .EEEEEEEEEEEEEEE",
"EEEEEEEEEEEEEEEvlFTYYYYYPlFRRRRYIJlLYYYYYYYYTL>  EEEEEEEEEEEEEEE",
"EEEEEEEEEEEEEEENvSTYYYYYvBTYYYYYYTBnTYYYYYYYYRq  EEEEEEEEEEEEEEE",
"EEEEEEEEEEEEEEEBZnTYYYTZcYYYYYYYYYPlPYYYYYYYYIy1*EEEEEEEEEEEEEEE",
"EEEEEEEEEEEEEEEBHlYRRRPlKYYYYYYYYYTmmTYYYYYYTBazlEEEEEEEEEEEEEEE",
"EEEEEEEEEEEEEEECIcigjljBTYYYYYYYYYYLlIYYYYYYUsgccEEEEEEEEEEEEEEE",
"EEEEEEEEEEEEEEEBUhX.Xo-DTYYYYYYYYYYTnARRTTYTcazzcEEEEEEEEEEEEEEE",
"EEEEEEEEEEEEEEEBIy    XhRYYYYYYYYYYTV6edcDPBplczcEEEEEEEEEEEEEEE",
"EEEEEEEEEEEEEEEEP0     6UYYYYYYYYYYYe  .O%>qjczcxEEEEEEEEEEEEEEE",
"EEEEEEEEEEEEEEEEH9     +vRYYYYYYYYRl+      4czzcnEEEEEEEEEEEEEEE",
"EEEEEEEEEEEEEEEEGw      8YYYYYYYYTD>       4czzcEEEEEEEEEEEEEEEE",
"EEEEEEEEEEEEEEEEEa.     +lTTTTTTTI9        7czzvEEEEEEEEEEEEEEEE",
"EEEEEEEEEEEEEEEEEg-      qcbMBSHGtX       .wczcvEEEEEEEEEEEEEEEE",
"EEEEEEEEEEEEEEEEEEc;    1SLZmmvnv>        .pczcEEEEEEEEEEEEEEEEE",
"EEEEEEEEEEEEEEEEEEFn<. >VRTTRTULGa+       #alcEEEEEEEEEEEEEEEEEE",
"EEEEEEEEEEEEEEEEEEEvl8:lHGFSZBncczqX    .=udagEEEEEEEEEEEEEEEEEE",
"EEEEEEEEEEEEEEEEEEEElxpgcczzllzzzzl6. o-qhcclEEEEEEEEEEEEEEEEEEE",
"EEEEEEEEEEEEEEEEEEEEEllahczzzzzzzzcj47plcczcEEEEEEEEEEEEEEEEEEEE",
"EEEEEEEEEEEEEEEEEEEEEExksjczzzzzzzcfdccczzEEEEEEEEEEEEEEEEEEEEEE",
"EEEEEEEEEEEEEEEEEEEEEEEEkagzcccccchslzzzcEEEEEEEEEEEEEEEEEEEEEEE",
"EEEEEEEEEEEEEEEEEEEEEEEEEg560ryyyyalzzzEEEEEEEEEEEEEEEEEEEEEEEEE",
"EEEEEEEEEEEEEEEEEEEEEEEEEEEE$$XXXOwcEEEEEEEEEEEEEEEEEEEEEEEEEEEE",
"EEEEEEEEEEEEEEEEEEEEEEEEEEEEEEEEEEEEEEEEEEEEEEEEEEEEEEEEEEEEEEEE",
"EEEEEEEEEEEEEEEEEEEEEEEEEEEEEEEEEEEEEEEEEEEEEEEEEEEEEEEEEEEEEEEE",
"EEEEEEEEEEEEEEEEEEEEEEEEEEEEEEEEEEEEEEEEEEEEEEEEEEEEEEEEEEEEEEEE",
"EEEEEEEEEEEEEEEEEEEEEEEEEEEEEEEEEEEEEEEEEEEEEEEEEEEEEEEEEEEEEEEE",
"EEEEEEEEEEEEEEEEEEEEEEEEEEEEEEEEEEEEEEEEEEEEEEEEEEEEEEEEEEEEEEEE",
"EEEEEEEEEEEEEEEEEEEEEEEEEEEEEEEEEEEEEEEEEEEEEEEEEEEEEEEEEEEEEEEE",
"EEEEEEEEEEEEEEEEEEEEEEEEEEEEEEEEEEEEEEEEEEEEEEEEEEEEEEEEEEEEEEEE",
"EEEEEEEEEEEEEEEEEEEEEEEEEEEEEEEEEEEEEEEEEEEEEEEEEEEEEEEEEEEEEEEE",
"EEEEEEEEEEEEEEEEEEEEEEEEEEEEEEEEEEEEEEEEEEEEEEEEEEEEEEEEEEEEEEEE",
"EEEEEEEEEEEEEEEEEEEEEEEEEEEEEEEEEEEEEEEEEEEEEEEEEEEEEEEEEEEEEEEE"
};
