/* XPM */
static char *result[] = {
/* columns rows colors chars-per-pixel */
"64 64 74 1 ",
"  c black",
". c #080807",
"X c #0C0C0C",
"o c #10100F",
"O c #131312",
"+ c #181817",
"@ c #1C1C1B",
"# c #242423",
"$ c #282826",
"% c #2D2D2C",
"& c #353534",
"* c #383836",
"= c #3D3D3B",
"- c #42423F",
"; c #464643",
": c #484846",
"> c #4C4C49",
", c #555553",
"< c #5B5B57",
"1 c #5E5E5A",
"2 c #61615D",
"3 c #656561",
"4 c #6A6A65",
"5 c #6D6D68",
"6 c #70706C",
"7 c #757570",
"8 c #7C7C77",
"9 c #7E7E7A",
"0 c #82827D",
"q c #868681",
"w c #8A8A84",
"e c #8E8E8A",
"r c #93938D",
"t c #979791",
"y c #9B9B95",
"u c #9F9F99",
"i c #A3A39C",
"p c #A6A6A0",
"a c #ABABA4",
"s c #AEAEA9",
"d c #B3B3AB",
"f c #B7B7B1",
"g c #BCBCB4",
"h c #BEBEB9",
"j c #C0C0B7",
"k c #C4C4BC",
"l c #C8C8BF",
"z c #C6C6C0",
"x c #CACAC2",
"c c #CFCFC9",
"v c #D0D0C7",
"b c #D2D2CA",
"n c #D7D7CF",
"m c #D9D9CF",
"M c #DBDBD3",
"N c #DBDBD4",
"B c #DFDFD6",
"V c #E1E1D7",
"C c #E1E1D8",
"Z c #E5E5DB",
"A c #E7E7DF",
"S c #E8E8DF",
"D c #EAEAE1",
"F c #ECECE2",
"G c #EEEEE5",
"H c #F0F0E6",
"J c #F3F3E9",
"K c #F5F5EB",
"L c #F7F7ED",
"P c #FAFAEF",
"I c #FBFBF1",
"U c #FCFCF2",
"Y c #FEFEF4",
"T c #11498E",
/* pixels */
"TTTTTTTTTTTTTTTTTTTTTTTTTTTTTTTTTTTTTTTTTTTTTTTTTTTTTTTTTTTTTTTT",
"TTTTTTTTTTTTTTTTTTTTTTTTTTTTTTTTTTTTTTTTTTTTTTTTTTTTTTTTTTTTTTTT",
"TTTTTTTTTTTTTTTTTTTTTTTTTTTTTTTTTTTTTTTTTTTTTTTTTTTTTTTTTTTTTTTT",
"TTTTTTTTTTTTTTTTTTTTTTTTTTTTTTTTTTTTTTTTTTTTTTTTTTTTTTTTTTTTTTTT",
"TTTTTTTTTTTTTTTTTTTTTTTTTTTTTTTTTTTTTTTTTTTTTTTTTTTTTTTTTTTTTTTT",
"TTTTTTTTTTTTTTTTTTTTTTTTTTTTTTTTTTTTTTTTTTTTTTTTTTTTTTTTTTTTTTTT",
"TTTTTTTTTTTTTTTTTTTTTTTTTTTTTTTTTTTTTTTTTTTTTTTTTTTTTTTTTTTTTTTT",
"TTTTTTTTTTTTTTTTTTTTTTTTTTTTTTTTTTTTTTTTTTTTTTTTTTTTTTTTTTTTTTTT",
"TTTTTTTTTTTTTTTTTTTTTTTTTTTTTTTTTTTTTTTTTTTTTTTTTTTTTTTTTTTTTTTT",
"TTTTTTTTTTTTTTTTTTTTTTTTTTTTTTTTTTTTTTTTTTTTTTTTTTTTTTTTTTTTTTTT",
"TTTTTTTTTTTTTTTTTTTTTTTTTTTTTTTTTTTTTTTTTTTTTTTTTTTTTTTTTTTTTTTT",
"TTTTTTTTTTTTTTTTTTTTTTTTTTTTTTTTTTTTTTTTTTTTTTTTTTTTTTTTTTTTTTTT",
"TTTTTTTTTTTTTTTTTTTTTTTTTTTTTTTTTTTTTTTTTTTTTTTTTTTTTTTTTTTTTTTT",
"TTTTTTTTTTTTTTTTTTTTTTTTTTTTTTTTTTTTTTTTTTTTTTTTTTTTTTTTTTTTTTTT",
"TTTTTTTTTTTTTTTTTTTTTTTTTTTTTTTTTTTTTTTTTTTTTTTTTTTTTTTTTTTTTTTT",
"TTTTTTTTTTTTTTTTTTTTTTTTTTTTTTTTTTTTTTTTTTTTTTTTTTTTTTTTTTTTTTTT",
"TTTTTTTTTTTTTTTTTTTTTTTTTTTTTTTTTTTTTTTTTTTTTTTTTTTTTTTTTTTTTTTT",
"TTTTTTTTTTTTTTTTTTTTTTTTTTTTTTTTTTTTTTTTTTTTTTTTTTTTTTTTTTTTTTTT",
"TTTTTTTTTTTTTTTTTTTTTTTTTTTTTTTTTTTTTTTTTTTTTTTTTTTTTTTTTTTTTTTT",
"TTTTTTTTTTTTTTTTTTTTTTTTTTTTTTTTTTTTTTTTTTTTTTTTTTTTTTTTTTTTTTTT",
"TTTTTTTTTTTTTTTTTTTTTTTTTTTTTTTTTTTTTTTTTTTTTTTTTTTTTTTTTTTTTTTT",
"TTTTTTTTTTTTTTTTTTTTTTTTTTTTTTTTTTTTTTTTTTTTTTTTTTTTTTTTTTTTTTTT",
"TTTTTTTTTTTTTTTTTTTTTTTTTTTTTTTTTTTTTTTTTTTTTTTTTTTTTTTTTTTTTTTT",
"TTTTTTTTTTTTTTTTTTTTTTTTTTTTTTTTTTTTTTTTTTTTTTTTTTTTTTTTTTTTTTTT",
"TTTTTTTTTTTTTTTTTTTTTTTTTTT,*#=pbnMncTTTTTTTTTTTTTTTTTTTTTTTTTTT",
"TTTTTTTTTTTTTTTTTTTTTTTTT:&;6rivJLKHDCMTTTTTTTTTTTTTTTTTTTTTTTTT",
"TTTTTTTTTTTTTTTTTTTTTTT3,qkSIULnxHIPPLJDBTTTTTTTTTTTTTTTTTTTTTTT",
"TTTTTTTTTTTTTTTTTTTTTkhpCIUIPPPIMhHIUUIPJAhTTTTTTTTTTTTTTTTTTTTT",
"TTTTTTTTTTTTTTTTTTTTzckGIPPPPPPPUg17ykAIUKxeTTTTTTTTTTTTTTTTTTTT",
"TTTTTTTTTTTTTTTTTTTzMxSIPPPPPPPIG,   O&9xbMDbTTTTTTTTTTTTTTTTTTT",
"TTTTTTTTTTTTTTTTTTTNMnIPPPPPPPPIi.      $kUPGBTTTTTTTTTTTTTTTTTT",
"TTTTTTTTTTTTTTTTTTbHxFPPPPPPPPIB&        9IPPFTTTTTTTTTTTTTTTTTT",
"TTTTTTTTTTTTTTTTTxSHdJIPPPPPIII0         =FIPLATTTTTTTTTTTTTTTTT",
"TTTTTTTTTTTTTTTTTBHw%iPIPIIJAnk&         @vIPPJBTTTTTTTTTTTTTTTT",
"TTTTTTTTTTTTTTTTcAwX OwGLAxkxMCp@        .gUPPPDTTTTTTTTTTTTTTTT",
"TTTTTTTTTTTTTTTTMuo   .5kxCJIIIIp@        dUPPIDTTTTTTTTTTTTTTTT",
"TTTTTTTTTTTTTTTTx&     -AIIPPPPPId#     @2dFIPPAkTTTTTTTTTTTTTTT",
"TTTTTTTTTTTTTTTk0.     qUPPPPPPPPIg% X&0xLDkAILnkTTTTTTTTTTTTTTT",
"TTTTTTTTTTTTTTTz3     XhUPPPPPPPPPUk7dAIUPIFkAGxkTTTTTTTTTTTTTTT",
"TTTTTTTTTTTTTTTBq     $BIPPPPPPPPPIBnYIPPPPIFhvkeTTTTTTTTTTTTTTT",
"TTTTTTTTTTTTTTTBp.    ;GIPPPPPPPPPInMIPPPPPPIMr3+TTTTTTTTTTTTTTT",
"TTTTTTTTTTTTTTTBx@    2IPPPPPPPPPPPxDPPPPPPPLM4  TTTTTTTTTTTTTTT",
"TTTTTTTTTTTTTTTMD:  .@0PPPPPPPPPPPLkJPPPPPPPCx1  TTTTTTTTTTTTTTT",
"TTTTTTTTTTTTTTTMJy3wdnxxPPPPPPPPPIDxPPPPPPPSxk:  TTTTTTTTTTTTTTT",
"TTTTTTTTTTTTTTTTGkFUUUPxnPPPPPPPPICvIPPPPPFxlg$  TTTTTTTTTTTTTTT",
"TTTTTTTTTTTTTTTTAvGPPPPLxxLPPPIUUHdBIPPPPSxlxtX  TTTTTTTTTTTTTTT",
"TTTTTTTTTTTTTTTTCxDIPPPPLxxJUUHvt>+8KIILCxllx2  TTTTTTTTTTTTTTTT",
"TTTTTTTTTTTTTTTTBnBIPPPPPPMgs0>@   .qLHmxllxp#  TTTTTTTTTTTTTTTT",
"TTTTTTTTTTTTTTTTTvnIPPPPPPUgo       Xwxxxxji0@ .TTTTTTTTTTTTTTTT",
"TTTTTTTTTTTTTTTTTsuKIPPPPPUhX        X0gdirpk0OTTTTTTTTTTTTTTTTT",
"TTTTTTTTTTTTTTTTTT<aLPPPPPUhX         %yidkxlkTTTTTTTTTTTTTTTTTT",
"TTTTTTTTTTTTTTTTTTT:rnBVCZZdo        .0lxxlllTTTTTTTTTTTTTTTTTTT",
"TTTTTTTTTTTTTTTTTTTT=7kxllxiO       .3klllllxTTTTTTTTTTTTTTTTTTT",
"TTTTTTTTTTTTTTTTTTTTT&,skkdy=X     .<jxllllxTTTTTTTTTTTTTTTTTTTT",
"TTTTTTTTTTTTTTTTTTTTTT$-isdght3*@XO4kxllllTTTTTTTTTTTTTTTTTTTTTT",
"TTTTTTTTTTTTTTTTTTTTTTTTfxxllxxhdirdxllllTTTTTTTTTTTTTTTTTTTTTTT",
"TTTTTTTTTTTTTTTTTTTTTTTTTTxxxllxxxkphxxTTTTTTTTTTTTTTTTTTTTTTTTT",
"TTTTTTTTTTTTTTTTTTTTTTTTTTTTTxkxxlxdTTTTTTTTTTTTTTTTTTTTTTTTTTTT",
"TTTTTTTTTTTTTTTTTTTTTTTTTTTTTTTTTTTTTTTTTTTTTTTTTTTTTTTTTTTTTTTT",
"TTTTTTTTTTTTTTTTTTTTTTTTTTTTTTTTTTTTTTTTTTTTTTTTTTTTTTTTTTTTTTTT",
"TTTTTTTTTTTTTTTTTTTTTTTTTTTTTTTTTTTTTTTTTTTTTTTTTTTTTTTTTTTTTTTT",
"TTTTTTTTTTTTTTTTTTTTTTTTTTTTTTTTTTTTTTTTTTTTTTTTTTTTTTTTTTTTTTTT",
"TTTTTTTTTTTTTTTTTTTTTTTTTTTTTTTTTTTTTTTTTTTTTTTTTTTTTTTTTTTTTTTT",
"TTTTTTTTTTTTTTTTTTTTTTTTTTTTTTTTTTTTTTTTTTTTTTTTTTTTTTTTTTTTTTTT"
};
