/* XPM */
static char *result[] = {
/* columns rows colors chars-per-pixel */
"64 64 70 1 ",
"  c black",
". c #080807",
"X c #0C0C0B",
"o c #141413",
"O c #1D1D1C",
"+ c #20201F",
"@ c #232322",
"# c #292927",
"$ c #2C2C2B",
"% c #31312F",
"& c #353534",
"* c #393937",
"= c #3D3D3C",
"- c #41413E",
"; c #434341",
": c #494946",
"> c #4D4D4A",
", c #51514E",
"< c #565653",
"1 c #595956",
"2 c #5D5D5A",
"3 c #61615E",
"4 c #666662",
"5 c #6B6B66",
"6 c #72726D",
"7 c #777772",
"8 c #7A7A76",
"9 c #7F7F7A",
"0 c #84847E",
"q c #878782",
"w c #8E8E89",
"e c #92928C",
"r c #979791",
"t c #9A9A94",
"y c #A3A39C",
"u c #A7A7A0",
"i c #ACACA5",
"p c #B6B6AE",
"a c #B7B7B0",
"s c #BCBCB4",
"d c #BFBFB9",
"f c #C0C0B7",
"g c #C4C4BD",
"h c #C8C8BF",
"j c #C6C6C0",
"k c #CBCBC3",
"l c #D2D2CA",
"z c #D4D4CC",
"x c #D4D4CD",
"c c #D8D8CF",
"v c #D7D7D0",
"b c #D8D8D0",
"n c #DCDCD3",
"m c #DCDCD4",
"M c #E0E0D7",
"N c #E1E1D9",
"B c #E4E4DB",
"V c #E7E7DE",
"C c #E8E8DE",
"Z c #EAEAE1",
"A c #EDEDE3",
"S c #EFEFE5",
"D c #F0F0E6",
"F c #F3F3EA",
"G c #F6F6EB",
"H c #F6F6EC",
"J c #F9F9EF",
"K c #FAFAF0",
"L c #FCFCF2",
"P c #11498E",
/* pixels */
"PPPPPPPPPPPPPPPPPPPPPPPPPPPPPPPPPPPPPPPPPPPPPPPPPPPPPPPPPPPPPPPP",
"PPPPPPPPPPPPPPPPPPPPPPPPPPPPPPPPPPPPPPPPPPPPPPPPPPPPPPPPPPPPPPPP",
"PPPPPPPPPPPPPPPPPPPPPPPPPPPPPPPPPPPPPPPPPPPPPPPPPPPPPPPPPPPPPPPP",
"PPPPPPPPPPPPPPPPPPPPPPPPPPPPPPPPPPPPPPPPPPPPPPPPPPPPPPPPPPPPPPPP",
"PPPPPPPPPPPPPPPPPPPPPPPPPPPPPPPPPPPPPPPPPPPPPPPPPPPPPPPPPPPPPPPP",
"PPPPPPPPPPPPPPPPPPPPPPPPPPPPPPPPPPPPPPPPPPPPPPPPPPPPPPPPPPPPPPPP",
"PPPPPPPPPPPPPPPPPPPPPPPPPPPPPPPPPPPPPPPPPPPPPPPPPPPPPPPPPPPPPPPP",
"PPPPPPPPPPPPPPPPPPPPPPPPPPPPPPPPPPPPPPPPPPPPPPPPPPPPPPPPPPPPPPPP",
"PPPPPPPPPPPPPPPPPPPPPPPPPPPPPPPPPPPPPPPPPPPPPPPPPPPPPPPPPPPPPPPP",
"PPPPPPPPPPPPPPPPPPPPPPPPPPPPPPPPPPPPPPPPPPPPPPPPPPPPPPPPPPPPPPPP",
"PPPPPPPPPPPPPPPPPPPPPPPPPPPPPPPPPPPPPPPPPPPPPPPPPPPPPPPPPPPPPPPP",
"PPPPPPPPPPPPPPPPPPPPPPPPPPPPPPPPPPPPPPPPPPPPPPPPPPPPPPPPPPPPPPPP",
"PPPPPPPPPPPPPPPPPPPPPPPPPPPPPPPPPPPPPPPPPPPPPPPPPPPPPPPPPPPPPPPP",
"PPPPPPPPPPPPPPPPPPPPPPPPPPPPPPPPPPPPPPPPPPPPPPPPPPPPPPPPPPPPPPPP",
"PPPPPPPPPPPPPPPPPPPPPPPPPPPPPPPPPPPPPPPPPPPPPPPPPPPPPPPPPPPPPPPP",
"PPPPPPPPPPPPPPPPPPPPPPPPPPPPPPPPPPPPPPPPPPPPPPPPPPPPPPPPPPPPPPPP",
"PPPPPPPPPPPPPPPPPPPPPPPPPPPPPPPPPPPPPPPPPPPPPPPPPPPPPPPPPPPPPPPP",
"PPPPPPPPPPPPPPPPPPPPPPPPPPPPPPPPPPPPPPPPPPPPPPPPPPPPPPPPPPPPPPPP",
"PPPPPPPPPPPPPPPPPPPPPPPPPPPPPPPPPPPPPPPPPPPPPPPPPPPPPPPPPPPPPPPP",
"PPPPPPPPPPPPPPPPPPPPPPPPPPPPPPPPPPPPPPPPPPPPPPPPPPPPPPPPPPPPPPPP",
"PPPPPPPPPPPPPPPPPPPPPPPPPPPPPPPPPPPPPPPPPPPPPPPPPPPPPPPPPPPPPPPP",
"PPPPPPPPPPPPPPPPPPPPPPPPPPPgkxxbxbqoXoPPPPPPPPPPPPPPPPPPPPPPPPPP",
"PPPPPPPPPPPPPPPPPPPPPPPPPkmVSGGHHJx@  .XPPPPPPPPPPPPPPPPPPPPPPPP",
"PPPPPPPPPPPPPPPPPPPPPPPjNSHJJJJJKJm3o   XXPPPPPPPPPPPPPPPPPPPPPP",
"PPPPPPPPPPPPPPPPPPPPPeyZHJJJJJJKCgkNg0*.  XPPPPPPPPPPPPPPPPPPPPP",
"PPPPPPPPPPPPPPPPPPPPdbxNLLLLLLGlkVKKLKBe$  XPPPPPPPPPPPPPPPPPPPP",
"PPPPPPPPPPPPPPPPPPPgmGDkkayusxkbHKJJJJKLx1$qlPPPPPPPPPPPPPPPPPPP",
"PPPPPPPPPPPPPPPPPPPbFKA4oX..X&kKJJJJJJJJLnpKGmPPPPPPPPPPPPPPPPPP",
"PPPPPPPPPPPPPPPPPPxSJKe.     XpLJJJJJJJJJGsSJSPPPPPPPPPPPPPPPPPP",
"PPPPPPPPPPPPPPPPPkZJKx#       wLJJJJJJJJJKkmKHVPPPPPPPPPPPPPPPPP",
"PPPPPPPPPPPPPPPPPmGJK9        4JJJJJJJJJJKzxKJFmPPPPPPPPPPPPPPPP",
"PPPPPPPPPPPPPPPPkAJKM$        :FJJJJJJJJJKmlKJJZPPPPPPPPPPPPPPPP",
"PPPPPPPPPPPPPPPPbGKLy.        *VLKJJJJJJJLmxKJJZPPPPPPPPPPPPPPPP",
"PPPPPPPPPPPPPPPPNJGv7.        >scDKKJJJKKl4qGKJNgPPPPPPPPPPPPPPP",
"PPPPPPPPPPPPPPPemSjxV8X     X6NSzglZKKLVw# XtKHxgPPPPPPPPPPPPPPP",
"PPPPPPPPPPPPPPP,ukNKKG0X   %uGKKKGmgkNp;.   OgDkgPPPPPPPPPPPPPPP",
"PPPPPPPPPPPPPPP=1BKJJKHroX4bLKJJJJKHVto      >lkkPPPPPPPPPPPPPPP",
"PPPPPPPPPPPPPPP*5KJJJJKJytFKKJJJJJJJLsX      .7siPPPPPPPPPPPPPPP",
"PPPPPPPPPPPPPPP$5KJJJJJLkxLJJJJJJJJJKxO       -idPPPPPPPPPPPPPPP",
"PPPPPPPPPPPPPPP*3KJJJJJLkxKJJJJJJJJJKN$       3kkPPPPPPPPPPPPPPP",
"PPPPPPPPPPPPPPP=<FKJJJJKbnKJJJJJJJJJKZ-      XrkkPPPPPPPPPPPPPPP",
"PPPPPPPPPPPPPPPP>VKJJJJKNkKJJJJJJJJJKF>      =skkPPPPPPPPPPPPPPP",
"PPPPPPPPPPPPPPPP;zLJJJJJSgJJJJJJJJJJKG,     XekkkPPPPPPPPPPPPPPP",
"PPPPPPPPPPPPPPPP1aKKJJJJFhJJJJJJJJJJKm7$o.  ,ghkPPPPPPPPPPPPPPPP",
"PPPPPPPPPPPPPPPPPkmKJJJJJsVLJJJJJJKJxgMgyw73ukhkPPPPPPPPPPPPPPPP",
"PPPPPPPPPPPPPPPPPNkNKJKJi%<gGLKJJKSggbkkkkksikkPPPPPPPPPPPPPPPPP",
"PPPPPPPPPPPPPPPPPPZkbGAqo  o2pZKHxpgkhhhhhhspkkPPPPPPPPPPPPPPPPP",
"PPPPPPPPPPPPPPPPPPmCld2.     X-quigkhhhhhhkfakPPPPPPPPPPPPPPPPPP",
"PPPPPPPPPPPPPPPPPPPklk<        XwkhhhhhhhhkyePPPPPPPPPPPPPPPPPPP",
"PPPPPPPPPPPPPPPPPPPPgku+       Xekhhhhhhhky%@PPPPPPPPPPPPPPPPPPP",
"PPPPPPPPPPPPPPPPPPPPPgk0X      Xekhhhhhkhw$oPPPPPPPPPPPPPPPPPPPP",
"PPPPPPPPPPPPPPPPPPPPPPgg7o     Xrkkkkkks6@PPPPPPPPPPPPPPPPPPPPPP",
"PPPPPPPPPPPPPPPPPPPPPPPPjq&$@@#:euppppe>OPPPPPPPPPPPPPPPPPPPPPPP",
"PPPPPPPPPPPPPPPPPPPPPPPPPPissssggsiiuw*PPPPPPPPPPPPPPPPPPPPPPPPP",
"PPPPPPPPPPPPPPPPPPPPPPPPPPPPPkkkkkkkPPPPPPPPPPPPPPPPPPPPPPPPPPPP",
"PPPPPPPPPPPPPPPPPPPPPPPPPPPPPPPPPPPPPPPPPPPPPPPPPPPPPPPPPPPPPPPP",
"PPPPPPPPPPPPPPPPPPPPPPPPPPPPPPPPPPPPPPPPPPPPPPPPPPPPPPPPPPPPPPPP",
"PPPPPPPPPPPPPPPPPPPPPPPPPPPPPPPPPPPPPPPPPPPPPPPPPPPPPPPPPPPPPPPP",
"PPPPPPPPPPPPPPPPPPPPPPPPPPPPPPPPPPPPPPPPPPPPPPPPPPPPPPPPPPPPPPPP",
"PPPPPPPPPPPPPPPPPPPPPPPPPPPPPPPPPPPPPPPPPPPPPPPPPPPPPPPPPPPPPPPP",
"PPPPPPPPPPPPPPPPPPPPPPPPPPPPPPPPPPPPPPPPPPPPPPPPPPPPPPPPPPPPPPPP",
"PPPPPPPPPPPPPPPPPPPPPPPPPPPPPPPPPPPPPPPPPPPPPPPPPPPPPPPPPPPPPPPP",
"PPPPPPPPPPPPPPPPPPPPPPPPPPPPPPPPPPPPPPPPPPPPPPPPPPPPPPPPPPPPPPPP",
"PPPPPPPPPPPPPPPPPPPPPPPPPPPPPPPPPPPPPPPPPPPPPPPPPPPPPPPPPPPPPPPP"
};
