/* XPM */
static char *result[] = {
/* columns rows colors chars-per-pixel */
"64 64 71 1 ",
"  c black",
". c #0C0C0C",
"X c #10100F",
"o c gray8",
"O c #181817",
"+ c #1C1C1B",
"@ c #20201F",
"# c #232322",
"$ c #282826",
"% c #2D2D2C",
"& c #31312F",
"* c #353533",
"= c #393936",
"- c #3B3B39",
"; c #40403E",
": c #434341",
"> c #494946",
", c #51514D",
"< c #5A5A57",
"1 c #5E5E5A",
"2 c #61615E",
"3 c #666661",
"4 c #6A6A66",
"5 c #6F6F6B",
"6 c #72726E",
"7 c #757571",
"8 c #7E7E79",
"9 c #83837E",
"0 c #868681",
"q c #8A8A84",
"w c #8C8C88",
"e c #93938D",
"r c #979791",
"t c #9B9B94",
"y c #A3A39D",
"u c #A7A7A0",
"i c #ACACA4",
"p c #AEAEA8",
"a c #B3B3AC",
"s c #BDBDB5",
"d c #BFBFB8",
"f c #C4C4BC",
"g c #C8C8BF",
"h c #C6C6C0",
"j c #CBCBC2",
"k c #CECEC8",
"l c #D0D0C7",
"z c #D1D1C9",
"x c #D4D4CB",
"c c #D5D5CD",
"v c #D8D8CF",
"b c #D7D7D0",
"n c #DBDBD3",
"m c #DCDCD3",
"M c #DEDED6",
"N c #E1E1D7",
"B c #E1E1D8",
"V c #E4E4DB",
"C c #E5E5DC",
"Z c #E8E8DE",
"A c #E9E9E1",
"S c #ECECE2",
"D c #EEEEE4",
"F c #F1F1E7",
"G c #F2F2E8",
"H c #F4F4EA",
"J c #F7F7EC",
"K c #F9F9EF",
"L c #FAFAF0",
"P c #FCFCF1",
"I c #11498E",
/* pixels */
"IIIIIIIIIIIIIIIIIIIIIIIIIIIIIIIIIIIIIIIIIIIIIIIIIIIIIIIIIIIIIIII",
"IIIIIIIIIIIIIIIIIIIIIIIIIIIIIIIIIIIIIIIIIIIIIIIIIIIIIIIIIIIIIIII",
"IIIIIIIIIIIIIIIIIIIIIIIIIIIIIIIIIIIIIIIIIIIIIIIIIIIIIIIIIIIIIIII",
"IIIIIIIIIIIIIIIIIIIIIIIIIIIIIIIIIIIIIIIIIIIIIIIIIIIIIIIIIIIIIIII",
"IIIIIIIIIIIIIIIIIIIIIIIIIIIIIIIIIIIIIIIIIIIIIIIIIIIIIIIIIIIIIIII",
"IIIIIIIIIIIIIIIIIIIIIIIIIIIIIIIIIIIIIIIIIIIIIIIIIIIIIIIIIIIIIIII",
"IIIIIIIIIIIIIIIIIIIIIIIIIIIIIIIIIIIIIIIIIIIIIIIIIIIIIIIIIIIIIIII",
"IIIIIIIIIIIIIIIIIIIIIIIIIIIIIIIIIIIIIIIIIIIIIIIIIIIIIIIIIIIIIIII",
"IIIIIIIIIIIIIIIIIIIIIIIIIIIIIIIIIIIIIIIIIIIIIIIIIIIIIIIIIIIIIIII",
"IIIIIIIIIIIIIIIIIIIIIIIIIIIIIIIIIIIIIIIIIIIIIIIIIIIIIIIIIIIIIIII",
"IIIIIIIIIIIIIIIIIIIIIIIIIIIIIIIIIIIIIIIIIIIIIIIIIIIIIIIIIIIIIIII",
"IIIIIIIIIIIIIIIIIIIIIIIIIIIIIIIIIIIIIIIIIIIIIIIIIIIIIIIIIIIIIIII",
"IIIIIIIIIIIIIIIIIIIIIIIIIIIIIIIIIIIIIIIIIIIIIIIIIIIIIIIIIIIIIIII",
"IIIIIIIIIIIIIIIIIIIIIIIIIIIIIIIIIIIIIIIIIIIIIIIIIIIIIIIIIIIIIIII",
"IIIIIIIIIIIIIIIIIIIIIIIIIIIIIIIIIIIIIIIIIIIIIIIIIIIIIIIIIIIIIIII",
"IIIIIIIIIIIIIIIIIIIIIIIIIIIIIIIIIIIIIIIIIIIIIIIIIIIIIIIIIIIIIIII",
"IIIIIIIIIIIIIIIIIIIIIIIIIIIIIIIIIIIIIIIIIIIIIIIIIIIIIIIIIIIIIIII",
"IIIIIIIIIIIIIIIIIIIIIIIIIIIIIIIIIIIIIIIIIIIIIIIIIIIIIIIIIIIIIIII",
"IIIIIIIIIIIIIIIIIIIIIIIIIIIIIIIIIIIIIIIIIIIIIIIIIIIIIIIIIIIIIIII",
"IIIIIIIIIIIIIIIIIIIIIIIIIIIIIIIIIIIIIIIIIIIIIIIIIIIIIIIIIIIIIIII",
"IIIIIIIIIIIIIIIIIIIIIIIIIIIIIIIIIIIIIIIIIIIIIIIIIIIIIIIIIIIIIIII",
"IIIIIIIIIIIIIIIIIIIIIIIIIIIIIIIIIIIIIIIIIIIIIIIIIIIIIIIIIIIIIIII",
"IIIIIIIIIIIIIIIIIIIIIIIIIIIIIIIIIIIIIIIIIIIIIIIIIIIIIIIIIIIIIIII",
"IIIIIIIIIIIIIIIIIIIIIIIIIIII#o+o.ooXIIIIIIIIIIIIIIIIIIIIIIIIIIII",
"IIIIIIIIIIIIIIIIIIIIIIIIIIw#        .7cIIIIIIIIIIIIIIIIIIIIIIIII",
"IIIIIIIIIIIIIIIIIIIIIIIIkMSp#.o+%@o.;MDMcIIIIIIIIIIIIIIIIIIIIIII",
"IIIIIIIIIIIIIIIIIIIIIIjnDJLGtuknBMzpySKHAMIIIIIIIIIIIIIIIIIIIIII",
"IIIIIIIIIIIIIIIIIIIIIkCHKKKjnPPLLLLPMaDLKGBIIIIIIIIIIIIIIIIIIIII",
"IIIIIIIIIIIIIIIIIIIIkAJKKLMjKKKKKKKKLnsJKKHZbIIIIIIIIIIIIIIIIIII",
"IIIIIIIIIIIIIIIIIIIkAKKKKHgDKKKKKKKKKLkcLKKJAIIIIIIIIIIIIIIIIIII",
"IIIIIIIIIIIIIIIIIIjCKKKKPnvLKKKKKKKKKLDsJPLKJCIIIIIIIIIIIIIIIIII",
"IIIIIIIIIIIIIIIIIIMJKKPJMsGKKKKKKKKKKKKw7fGPKHBIIIIIIIIIIIIIIIII",
"IIIIIIIIIIIIIIIIIuAKLHs3#:mLKKKKKKKKKLj@ o2jKLcIIIIIIIIIIIIIIIII",
"IIIIIIIIIIIIIIIIIfkFn4o   1SLKKKKKKKLD<    +0czMIIIIIIIIIIIIIIII",
"IIIIIIIIIIIIIIIIjDAa-     .qKKKKKKKKLt.      7JAIIIIIIIIIIIIIIII",
"IIIIIIIIIIIIIIIIMHPe       OsPLLKKJJc%       >FAfIIIIIIIIIIIIIII",
"IIIIIIIIIIIIIIIICJK6        :jzkkjfk9        %BMhIIIIIIIIIIIIIII",
"IIIIIIIIIIIIIIIzSKK4        &kMBZSFKn*       #czfIIIIIIIIIIIIIII",
"IIIIIIIIIIIIIIIbDKK4        qPLLLLKKPao      #jjhIIIIIIIIIIIIIII",
"IIIIIIIIIIIIIIIbGKK5       &MLKKKKKKKJ6      %sjjIIIIIIIIIIIIIII",
"IIIIIIIIIIIIIIInHKL9      .rPKKKKKKKKLn&     =sjjIIIIIIIIIIIIIII",
"IIIIIIIIIIIIIIInGKPy+     ;ZLKKKKKKKKKPr  .-6epjjIIIIIIIIIIIIIII",
"IIIIIIIIIIIIIIInFLZfkt1%..pPKKKKKKKKKKLM20dVcgysjIIIIIIIIIIIIIII",
"IIIIIIIIIIIIIIIbDKjVPPJBseMLKKKKKKKKKKLxnPKngjsajIIIIIIIIIIIIIII",
"IIIIIIIIIIIIIIIInSjKKKKLPAjKKKKKKKKKKKGfFHngggge8IIIIIIIIIIIIIII",
"IIIIIIIIIIIIIIII6pnLKKKKKKjMLKKKKKKKKLckGcggggf>IIIIIIIIIIIIIIII",
"IIIIIIIIIIIIIIII-*MLKKKKKLSfGKKKKKKKKGsNzggggjy#IIIIIIIIIIIIIIII",
"IIIIIIIIIIIIIIIII#rPKKKKKKLnkKKKKKKLLjsjgggggj3oIIIIIIIIIIIIIIII",
"IIIIIIIIIIIIIIIII*-BLKKKKKKKjNPPPPLGkyfgggggjp%IIIIIIIIIIIIIIIII",
"IIIIIIIIIIIIIIIIII#8KLLKKKKLGyeuye81>ijgggggg4+IIIIIIIIIIIIIIIII",
"IIIIIIIIIIIIIIIIIII%iSDFGGGFN: ..    6jggggjr%IIIIIIIIIIIIIIIIII",
"IIIIIIIIIIIIIIIIIII%*ijkkkkl0.       $ajjgsy1IIIIIIIIIIIIIIIIIII",
"IIIIIIIIIIIIIIIIIIII%8psggjs-         6faiyaIIIIIIIIIIIIIIIIIIII",
"IIIIIIIIIIIIIIIIIIIIIIsuyiaq.         >tpsgIIIIIIIIIIIIIIIIIIIII",
"IIIIIIIIIIIIIIIIIIIIIIIjfaaa6+      o<agjjIIIIIIIIIIIIIIIIIIIIII",
"IIIIIIIIIIIIIIIIIIIIIIIIIjjjgy<#. o,tgjgIIIIIIIIIIIIIIIIIIIIIIII",
"IIIIIIIIIIIIIIIIIIIIIIIIIIIkjkgae7rgjIIIIIIIIIIIIIIIIIIIIIIIIIII",
"IIIIIIIIIIIIIIIIIIIIIIIIIIIIIIIIIIIIIIIIIIIIIIIIIIIIIIIIIIIIIIII",
"IIIIIIIIIIIIIIIIIIIIIIIIIIIIIIIIIIIIIIIIIIIIIIIIIIIIIIIIIIIIIIII",
"IIIIIIIIIIIIIIIIIIIIIIIIIIIIIIIIIIIIIIIIIIIIIIIIIIIIIIIIIIIIIIII",
"IIIIIIIIIIIIIIIIIIIIIIIIIIIIIIIIIIIIIIIIIIIIIIIIIIIIIIIIIIIIIIII",
"IIIIIIIIIIIIIIIIIIIIIIIIIIIIIIIIIIIIIIIIIIIIIIIIIIIIIIIIIIIIIIII",
"IIIIIIIIIIIIIIIIIIIIIIIIIIIIIIIIIIIIIIIIIIIIIIIIIIIIIIIIIIIIIIII",
"IIIIIIIIIIIIIIIIIIIIIIIIIIIIIIIIIIIIIIIIIIIIIIIIIIIIIIIIIIIIIIII"
};
