/* XPM */
static char *result[] = {
/* columns rows colors chars-per-pixel */
"64 64 74 1 ",
"  c black",
". c #080807",
"X c #0C0C0C",
"o c #151514",
"O c #181817",
"+ c gray11",
"@ c #20201F",
"# c #232322",
"$ c #282827",
"% c #2D2D2B",
"& c #31312F",
"* c #353533",
"= c #393937",
"- c #3E3E3B",
"; c #41413F",
": c #434342",
"> c #494946",
", c #4D4D4A",
"< c #51514D",
"1 c #565652",
"2 c #595956",
"3 c #5E5E5A",
"4 c #62625E",
"5 c #666662",
"6 c #6A6A65",
"7 c #6C6C68",
"8 c #71716C",
"9 c #767671",
"0 c #7A7A75",
"q c #7D7D78",
"w c #83837D",
"e c #868681",
"r c #8B8B85",
"t c #8D8D88",
"y c #92928C",
"u c #979790",
"i c #9A9A94",
"p c #9D9D99",
"a c #A4A49D",
"s c #ABABA4",
"d c #AFAFA8",
"f c #B4B4AC",
"g c #B7B7B0",
"h c #BCBCB4",
"j c #BFBFB8",
"k c #C4C4BC",
"l c #C8C8BF",
"z c #C7C7C1",
"x c #CBCBC2",
"c c #CECEC8",
"v c #D3D3CB",
"b c #D4D4CC",
"n c #D5D5CD",
"m c #D8D8CE",
"M c #D7D7D1",
"N c #D9D9D2",
"B c #DCDCD3",
"V c #DEDED6",
"C c #E1E1D7",
"Z c #E1E1D9",
"A c #E5E5DB",
"S c #E7E7DD",
"D c #E8E8DF",
"F c #EAEAE1",
"G c #EDEDE3",
"H c #EEEEE4",
"J c #F0F0E6",
"K c #F3F3E9",
"L c #F4F4EA",
"P c #F7F7ED",
"I c #F9F9EF",
"U c #FBFBF1",
"Y c #FCFCF2",
"T c #11498E",
/* pixels */
"TTTTTTTTTTTTTTTTTTTTTTTTTTTTTTTTTTTTTTTTTTTTTTTTTTTTTTTTTTTTTTTT",
"TTTTTTTTTTTTTTTTTTTTTTTTTTTTTTTTTTTTTTTTTTTTTTTTTTTTTTTTTTTTTTTT",
"TTTTTTTTTTTTTTTTTTTTTTTTTTTTTTTTTTTTTTTTTTTTTTTTTTTTTTTTTTTTTTTT",
"TTTTTTTTTTTTTTTTTTTTTTTTTTTTTTTTTTTTTTTTTTTTTTTTTTTTTTTTTTTTTTTT",
"TTTTTTTTTTTTTTTTTTTTTTTTTTTTTTTTTTTTTTTTTTTTTTTTTTTTTTTTTTTTTTTT",
"TTTTTTTTTTTTTTTTTTTTTTTTTTTTTTTTTTTTTTTTTTTTTTTTTTTTTTTTTTTTTTTT",
"TTTTTTTTTTTTTTTTTTTTTTTTTTTTTTTTTTTTTTTTTTTTTTTTTTTTTTTTTTTTTTTT",
"TTTTTTTTTTTTTTTTTTTTTTTTTTTTTTTTTTTTTTTTTTTTTTTTTTTTTTTTTTTTTTTT",
"TTTTTTTTTTTTTTTTTTTTTTTTTTTTTTTTTTTTTTTTTTTTTTTTTTTTTTTTTTTTTTTT",
"TTTTTTTTTTTTTTTTTTTTTTTTTTTTTTTTTTTTTTTTTTTTTTTTTTTTTTTTTTTTTTTT",
"TTTTTTTTTTTTTTTTTTTTTTTTTTTTTTTTTTTTTTTTTTTTTTTTTTTTTTTTTTTTTTTT",
"TTTTTTTTTTTTTTTTTTTTTTTTTTTTTTTTTTTTTTTTTTTTTTTTTTTTTTTTTTTTTTTT",
"TTTTTTTTTTTTTTTTTTTTTTTTTTTTTTTTTTTTTTTTTTTTTTTTTTTTTTTTTTTTTTTT",
"TTTTTTTTTTTTTTTTTTTTTTTTTTTTTTTTTTTTTTTTTTTTTTTTTTTTTTTTTTTTTTTT",
"TTTTTTTTTTTTTTTTTTTTTTTTTTTTTTTTTTTTTTTTTTTTTTTTTTTTTTTTTTTTTTTT",
"TTTTTTTTTTTTTTTTTTTTTTTTTTTTTTTTTTTTTTTTTTTTTTTTTTTTTTTTTTTTTTTT",
"TTTTTTTTTTTTTTTTTTTTTTTTTTTTTTTTTTTTTTTTTTTTTTTTTTTTTTTTTTTTTTTT",
"TTTTTTTTTTTTTTTTTTTTTTTTTTTTTTTTTTTTTTTTTTTTTTTTTTTTTTTTTTTTTTTT",
"TTTTTTTTTTTTTTTTTTTTTTTTTTTTTTTTTTTTTTTTTTTTTTTTTTTTTTTTTTTTTTTT",
"TTTTTTTTTTTTTTTTTTTTTTTTTTTTTTTTTTTTTTTTTTTTTTTTTTTTTTTTTTTTTTTT",
"TTTTTTTTTTTTTTTTTTTTTTTTTTTTTTTTTTTTTTTTTTTTTTTTTTTTTTTTTTTTTTTT",
"TTTTTTTTTTTTTTTTTTTTTTTTTTTT#oO%fvxxTTTTTTTTTTTTTTTTTTTTTTTTTTTT",
"TTTTTTTTTTTTTTTTTTTTTTTTT$oX   -SHGFZNvTTTTTTTTTTTTTTTTTTTTTTTTT",
"TTTTTTTTTTTTTTTTTTTTTTT$O    O$9AIUIPLGZMTTTTTTTTTTTTTTTTTTTTTTT",
"TTTTTTTTTTTTTTTTTTTTTTO   o<uxSVkkFUIIILGVTTTTTTTTTTTTTTTTTTTTTT",
"TTTTTTTTTTTTTTTTTTTTThe;O4kKYYUUIVgNUUIIIKSxTTTTTTTTTTTTTTTTTTTT",
"TTTTTTTTTTTTTTTTTTTTvJYnsKYUIIIIIUHjNHKIYYKkcTTTTTTTTTTTTTTTTTTT",
"TTTTTTTTTTTTTTTTTTTvGIUvBUIIIIIIIIUG5->5tgxNFNTTTTTTTTTTTTTTTTTT",
"TTTTTTTTTTTTTTTTTTxSIIIkHIIIIIIIIIUV$    X=vISTTTTTTTTTTTTTTTTTT",
"TTTTTTTTTTTTTTTTTzZPIUHxPIIIIIIIIIYjX      7PLZTTTTTTTTTTTTTTTTT",
"TTTTTTTTTTTTTTTTTnKIIUFxUIIIIIIIIIYy       OcUHTTTTTTTTTTTTTTTTT",
"TTTTTTTTTTTTTTTTxSIIIUSnUIIIIIIIIIP4        rYPSTTTTTTTTTTTTTTTT",
"TTTTTTTTTTTTTTTTvKIIUPffIUIIIIIIUYA*        >KUFTTTTTTTTTTTTTTTT",
"TTTTTTTTTTTTTTTTVPIUJeOO0ZYIIIUIFvj2        +nYDkTTTTTTTTTTTTTTT",
"TTTTTTTTTTTTTTTTSIUK0    =fPULVkxVKGrO      @fJVkTTTTTTTTTTTTTTT",
"TTTTTTTTTTTTTTTtVIUuX     OrvkcDIUIUIf*    *gSxkzTTTTTTTTTTTTTTT",
"TTTTTTTTTTTTTTTpzvh#       XdKUUIIIIIYv>  3nYUBsgTTTTTTTTTTTTTTT",
"TTTTTTTTTTTTTTTxGKi        ocYIIIIIIIIYV3yHUILvh4TTTTTTTTTTTTTTT",
"TTTTTTTTTTTTTTTvJYkX       $BUIIIIIIIIIIkGUIIClk-TTTTTTTTTTTTTTT",
"TTTTTTTTTTTTTTTNKUZ%       -HIIIIIIIIIILkJIUGxlj=TTTTTTTTTTTTTTT",
"TTTTTTTTTTTTTTTNJII7       3IIIIIIIIIIIJkPUKvkxf&TTTTTTTTTTTTTTT",
"TTTTTTTTTTTTTTTMHIYgo      eUIIIIIIIIIIGkULmllxs%TTTTTTTTTTTTTTT",
"TTTTTTTTTTTTTTTTFIUH,      sYIIIIIIIIIUZcLmlllxu#TTTTTTTTTTTTTTT",
"TTTTTTTTTTTTTTTTAPIUd>,259rdHUIIIIIIIIUbnnllllxqTTTTTTTTTTTTTTTT",
"TTTTTTTTTTTTTTTTVKIUxZKLIYYVjGUIIIIIIUIjkllllxj2TTTTTTTTTTTTTTTT",
"TTTTTTTTTTTTTTTTTFIIxJUIIIIUAjZUIIIUUZy<dxllxkaiTTTTTTTTTTTTTTTT",
"TTTTTTTTTTTTTTTTTZPLxKIIIIIIUGkbPYPnt=  -fxxjafTTTTTTTTTTTTTTTTT",
"TTTTTTTTTTTTTTTTTTcScLUIIIIUUUPnhi3#     -dfajTTTTTTTTTTTTTTTTTT",
"TTTTTTTTTTTTTTTTTTT,9VGHJJJGFAVmy         >akcTTTTTTTTTTTTTTTTTT",
"TTTTTTTTTTTTTTTTTTT+O8kccccxxlkxq        XexxTTTTTTTTTTTTTTTTTTT",
"TTTTTTTTTTTTTTTTTTTT*O4jxllllllx6        6kxTTTTTTTTTTTTTTTTTTTT",
"TTTTTTTTTTTTTTTTTTTTTTo,sxxxllxx1       5kxTTTTTTTTTTTTTTTTTTTTT",
"TTTTTTTTTTTTTTTTTTTTTTT+&wfjjjgs6%OX.XO7kTTTTTTTTTTTTTTTTTTTTTTT",
"TTTTTTTTTTTTTTTTTTTTTTTTT:adssdfkjayyuiaTTTTTTTTTTTTTTTTTTTTTTTT",
"TTTTTTTTTTTTTTTTTTTTTTTTTTTTxxxxlxxxcTTTTTTTTTTTTTTTTTTTTTTTTTTT",
"TTTTTTTTTTTTTTTTTTTTTTTTTTTTTTTTTTTTTTTTTTTTTTTTTTTTTTTTTTTTTTTT",
"TTTTTTTTTTTTTTTTTTTTTTTTTTTTTTTTTTTTTTTTTTTTTTTTTTTTTTTTTTTTTTTT",
"TTTTTTTTTTTTTTTTTTTTTTTTTTTTTTTTTTTTTTTTTTTTTTTTTTTTTTTTTTTTTTTT",
"TTTTTTTTTTTTTTTTTTTTTTTTTTTTTTTTTTTTTTTTTTTTTTTTTTTTTTTTTTTTTTTT",
"TTTTTTTTTTTTTTTTTTTTTTTTTTTTTTTTTTTTTTTTTTTTTTTTTTTTTTTTTTTTTTTT",
"TTTTTTTTTTTTTTTTTTTTTTTTTTTTTTTTTTTTTTTTTTTTTTTTTTTTTTTTTTTTTTTT",
"TTTTTTTTTTTTTTTTTTTTTTTTTTTTTTTTTTTTTTTTTTTTTTTTTTTTTTTTTTTTTTTT",
"TTTTTTTTTTTTTTTTTTTTTTTTTTTTTTTTTTTTTTTTTTTTTTTTTTTTTTTTTTTTTTTT",
"TTTTTTTTTTTTTTTTTTTTTTTTTTTTTTTTTTTTTTTTTTTTTTTTTTTTTTTTTTTTTTTT"
};
