/* XPM */
static char *result[] = {
/* columns rows colors chars-per-pixel */
"64 64 73 1 ",
"  c black",
". c #0B0B0B",
"X c #10100F",
"o c #131313",
"O c #181817",
"+ c #1D1D1C",
"@ c #20201F",
"# c #242423",
"$ c #292927",
"% c #2D2D2B",
"& c #343432",
"* c #383836",
"= c #3E3E3C",
"- c #41413E",
"; c #444442",
": c #4E4E4B",
"> c #51514E",
", c #555552",
"< c #595956",
"1 c #5E5E5A",
"2 c #62625E",
"3 c #666662",
"4 c #6A6A66",
"5 c #6C6C68",
"6 c #71716D",
"7 c #767671",
"8 c #7A7A75",
"9 c #7F7F79",
"0 c #83837D",
"q c #858580",
"w c #8B8B85",
"e c #8F8F89",
"r c #92928C",
"t c #969691",
"y c #9B9B95",
"u c #9F9F98",
"i c #A3A39C",
"p c #ABABA4",
"a c #AFAFA9",
"s c #B3B3AB",
"d c #B6B6B0",
"f c #BBBBB4",
"g c #BFBFB8",
"h c #C5C5BD",
"j c #C8C8BF",
"k c #C7C7C0",
"l c #CBCBC3",
"z c #CFCFC8",
"x c #D2D2C9",
"c c #D4D4CC",
"v c #D5D5CC",
"b c #D8D8CF",
"n c #D6D6D0",
"m c #D9D9D1",
"M c #DBDBD4",
"N c #DDDDD4",
"B c #DDDDD5",
"V c #E0E0D7",
"C c #E3E3DB",
"Z c #E4E4DB",
"A c #E6E6DD",
"S c #E8E8DE",
"D c #EBEBE1",
"F c #ECECE2",
"G c #EEEEE5",
"H c #F0F0E6",
"J c #F2F2E9",
"K c #F4F4EB",
"L c #F7F7EC",
"P c #F9F9EF",
"I c #FAFAF0",
"U c #FEFEF3",
"Y c #11498E",
/* pixels */
"YYYYYYYYYYYYYYYYYYYYYYYYYYYYYYYYYYYYYYYYYYYYYYYYYYYYYYYYYYYYYYYY",
"YYYYYYYYYYYYYYYYYYYYYYYYYYYYYYYYYYYYYYYYYYYYYYYYYYYYYYYYYYYYYYYY",
"YYYYYYYYYYYYYYYYYYYYYYYYYYYYYYYYYYYYYYYYYYYYYYYYYYYYYYYYYYYYYYYY",
"YYYYYYYYYYYYYYYYYYYYYYYYYYYYYYYYYYYYYYYYYYYYYYYYYYYYYYYYYYYYYYYY",
"YYYYYYYYYYYYYYYYYYYYYYYYYYYYYYYYYYYYYYYYYYYYYYYYYYYYYYYYYYYYYYYY",
"YYYYYYYYYYYYYYYYYYYYYYYYYYYYYYYYYYYYYYYYYYYYYYYYYYYYYYYYYYYYYYYY",
"YYYYYYYYYYYYYYYYYYYYYYYYYYYYYYYYYYYYYYYYYYYYYYYYYYYYYYYYYYYYYYYY",
"YYYYYYYYYYYYYYYYYYYYYYYYYYYYYYYYYYYYYYYYYYYYYYYYYYYYYYYYYYYYYYYY",
"YYYYYYYYYYYYYYYYYYYYYYYYYYYYYYYYYYYYYYYYYYYYYYYYYYYYYYYYYYYYYYYY",
"YYYYYYYYYYYYYYYYYYYYYYYYYYYYYYYYYYYYYYYYYYYYYYYYYYYYYYYYYYYYYYYY",
"YYYYYYYYYYYYYYYYYYYYYYYYYYYYYYYYYYYYYYYYYYYYYYYYYYYYYYYYYYYYYYYY",
"YYYYYYYYYYYYYYYYYYYYYYYYYYYYYYYYYYYYYYYYYYYYYYYYYYYYYYYYYYYYYYYY",
"YYYYYYYYYYYYYYYYYYYYYYYYYYYYYYYYYYYYYYYYYYYYYYYYYYYYYYYYYYYYYYYY",
"YYYYYYYYYYYYYYYYYYYYYYYYYYYYYYYYYYYYYYYYYYYYYYYYYYYYYYYYYYYYYYYY",
"YYYYYYYYYYYYYYYYYYYYYYYYYYYYYYYYYYYYYYYYYYYYYYYYYYYYYYYYYYYYYYYY",
"YYYYYYYYYYYYYYYYYYYYYYYYYYYYYYYYYYYYYYYYYYYYYYYYYYYYYYYYYYYYYYYY",
"YYYYYYYYYYYYYYYYYYYYYYYYYYYYYYYYYYYYYYYYYYYYYYYYYYYYYYYYYYYYYYYY",
"YYYYYYYYYYYYYYYYYYYYYYYYYYYYYYYYYYYYYYYYYYYYYYYYYYYYYYYYYYYYYYYY",
"YYYYYYYYYYYYYYYYYYYYYYYYYYYYYYYYYYYYYYYYYYYYYYYYYYYYYYYYYYYYYYYY",
"YYYYYYYYYYYYYYYYYYYYYYYYYYYYYYYYYYYYYYYYYYYYYYYYYYYYYYYYYYYYYYYY",
"YYYYYYYYYYYYYYYYYYYYYYYYYYYYYYYYYYYYYYYYYYYYYYYYYYYYYYYYYYYYYYYY",
"YYYYYYYYYYYYYYYYYYYYYYYYYYYYYYYYYYYYYYYYYYYYYYYYYYYYYYYYYYYYYYYY",
"YYYYYYYYYYYYYYYYYYYYYYYYYYYYYYYYYYYYYYYYYYYYYYYYYYYYYYYYYYYYYYYY",
"YYYYYYYYYYYYYYYYYYYYYYYYYYYYYYYYYYYYYYYYYYYYYYYYYYYYYYYYYYYYYYYY",
"YYYYYYYYYYYYYYYYYYYYYYYYYYYYYYYYYYYYYYYYYYYYYYYYYYYYYYYYYYYYYYYY",
"YYYYYYYYYYYYYYYYYYYYYYYYYYYYklcmBBclzYYYYYYYYYYYYYYYYYYYYYYYYYYY",
"YYYYYYYYYYYYYYYYYYYYYYYYY&aCDHJLLKJHDCfYYYYYYYYYYYYYYYYYYYYYYYYY",
"YYYYYYYYYYYYYYYYYYYYYYY%o.iUIIIPPPIIIPlBMYYYYYYYYYYYYYYYYYYYYYYY",
"YYYYYYYYYYYYYYYYYYYYY&O  +ylhxSPIUJCldiFJAmYYYYYYYYYYYYYYYYYYYYY",
"YYYYYYYYYYYYYYYYYYYY+. .,hDACchhlr,%O.o6SPFBYYYYYYYYYYYYYYYYYYYY",
"YYYYYYYYYYYYYYYYYYY+. o0FUIIIIPC>       2DIGBYYYYYYYYYYYYYYYYYYY",
"YYYYYYYYYYYYYYYYYYY. oyLIPPPPPPI3        7JPGBYYYYYYYYYYYYYYYYYY",
"YYYYYYYYYYYYYYYYYY+.XrPIPPPPPPPU0        .uIPGMYYYYYYYYYYYYYYYYY",
"YYYYYYYYYYYYYYYYYaagtSIPPPPPPPPUi.        &lCJDYYYYYYYYYYYYYYYYY",
"YYYYYYYYYYYYYYYYYCIUhDIPPPPPPPPUg.        4ZBccyYYYYYYYYYYYYYYYY",
"YYYYYYYYYYYYYYYYlGPIlFIPPPPPPPPUx+       $cUILl;YYYYYYYYYYYYYYYY",
"YYYYYYYYYYYYYYYYmKIIvCIPPPPPPPIFha0:+.  .yIPPIL3+YYYYYYYYYYYYYYY",
"YYYYYYYYYYYYYYYYZPIICcIPPPPPPIAhSUIJvy>o3HIPPPUy+YYYYYYYYYYYYYYY",
"YYYYYYYYYYYYYYYzDPPIFlUUIPPPIVhFIPPPIUJshUPPPPPd%YYYYYYYYYYYYYYY",
"YYYYYYYYYYYYYYYnGPPPKrihALUUVhGIPPPPPPIHhLPPPIDh;YYYYYYYYYYYYYYY",
"YYYYYYYYYYYYYYYnJPPIfO O%1thjJIPPPPPPPPPhFIPPLch4YYYYYYYYYYYYYYY",
"YYYYYYYYYYYYYYYmKPIG>      &NIPPPPPPPPPIxBIPIAll8YYYYYYYYYYYYYYY",
"YYYYYYYYYYYYYYYBKPUf.      .gUPPPPPPPPPIClIPHxjhwYYYYYYYYYYYYYYY",
"YYYYYYYYYYYYYYYzJII8        eUPPPPPPPPPIAlILbjlspYYYYYYYYYYYYYYY",
"YYYYYYYYYYYYYYYtxDV=        2PPPPPPPPPPPHhLBljhigYYYYYYYYYYYYYYY",
"YYYYYYYYYYYYYYYYfVV<        =DIPPPPPPPPIA8ugllsplYYYYYYYYYYYYYYY",
"YYYYYYYYYYYYYYYYzIUh+       +cUPPPPPPPIG6..&8puhYYYYYYYYYYYYYYYY",
"YYYYYYYYYYYYYYYYmJPPt.      opJIIPPPPID5.    ;flYYYYYYYYYYYYYYYY",
"YYYYYYYYYYYYYYYYYDPIKq.   .-yxhlCHPIUm1      <llYYYYYYYYYYYYYYYY",
"YYYYYYYYYYYYYYYYYCKPIJq.O,pDUIKZlllxp*      .elYYYYYYYYYYYYYYYYY",
"YYYYYYYYYYYYYYYYYYSLPIKtgJUIPPPPJClf;       &gYYYYYYYYYYYYYYYYYY",
"YYYYYYYYYYYYYYYYYYYcBAFhZJHFDZNvlljl7      .0xYYYYYYYYYYYYYYYYYY",
"YYYYYYYYYYYYYYYYYYYhhklsslllljhhhjhluX    .;pYYYYYYYYYYYYYYYYYYY",
"YYYYYYYYYYYYYYYYYYYYhhlgihjjjjjjjjjjf% .O=qsYYYYYYYYYYYYYYYYYYYY",
"YYYYYYYYYYYYYYYYYYYYYYfaeslljjjjjjjls77wphlYYYYYYYYYYYYYYYYYYYYY",
"YYYYYYYYYYYYYYYYYYYYYYY;@*0shlllljhpyhlllYYYYYYYYYYYYYYYYYYYYYYY",
"YYYYYYYYYYYYYYYYYYYYYYYYYOo#:9isspishljYYYYYYYYYYYYYYYYYYYYYYYYY",
"YYYYYYYYYYYYYYYYYYYYYYYYYYYY.+#>pghlYYYYYYYYYYYYYYYYYYYYYYYYYYYY",
"YYYYYYYYYYYYYYYYYYYYYYYYYYYYYYYYYYYYYYYYYYYYYYYYYYYYYYYYYYYYYYYY",
"YYYYYYYYYYYYYYYYYYYYYYYYYYYYYYYYYYYYYYYYYYYYYYYYYYYYYYYYYYYYYYYY",
"YYYYYYYYYYYYYYYYYYYYYYYYYYYYYYYYYYYYYYYYYYYYYYYYYYYYYYYYYYYYYYYY",
"YYYYYYYYYYYYYYYYYYYYYYYYYYYYYYYYYYYYYYYYYYYYYYYYYYYYYYYYYYYYYYYY",
"YYYYYYYYYYYYYYYYYYYYYYYYYYYYYYYYYYYYYYYYYYYYYYYYYYYYYYYYYYYYYYYY",
"YYYYYYYYYYYYYYYYYYYYYYYYYYYYYYYYYYYYYYYYYYYYYYYYYYYYYYYYYYYYYYYY"
};
