/* XPM */
static char *result[] = {
/* columns rows colors chars-per-pixel */
"64 64 68 1 ",
"  c black",
". c #080807",
"X c #0B0B0B",
"o c #131313",
"O c #181817",
"+ c #1B1B1A",
"@ c #242422",
"# c #292927",
"$ c #2B2B2A",
"% c #31312F",
"& c #363633",
"* c #383836",
"= c #3D3D3B",
"- c #41413E",
"; c #464643",
": c #494946",
"> c #4D4D4A",
", c #51514D",
"< c #565653",
"1 c #5A5A56",
"2 c #5D5D5A",
"3 c #61615D",
"4 c #676762",
"5 c #6B6B66",
"6 c #70706B",
"7 c #7A7A75",
"8 c #7E7E78",
"9 c #81817C",
"0 c #868680",
"q c #898984",
"w c #93938D",
"e c #9A9A94",
"r c #9F9F99",
"t c #A4A49D",
"y c #A7A7A0",
"u c #ABABA4",
"i c #AFAFA8",
"p c #B3B3AB",
"a c #B7B7B0",
"s c #BBBBB3",
"d c #C4C4BC",
"f c #C8C8BF",
"g c #C7C7C1",
"h c #CBCBC2",
"j c #D0D0C7",
"k c #D4D4CC",
"l c #D7D7D0",
"z c #DBDBD1",
"x c #DCDCD2",
"c c #DBDBD4",
"v c #DFDFD6",
"b c #E0E0D6",
"n c #E0E0D8",
"m c #E5E5DB",
"M c #E7E7DD",
"N c #E9E9DF",
"B c #E9E9E0",
"V c #EDEDE3",
"C c #EEEEE4",
"Z c #F2F2E7",
"A c #F2F2E8",
"S c #F4F4E9",
"D c #F7F7EC",
"F c #F8F8ED",
"G c #FBFBF0",
"H c #FDFDF2",
"J c #FFFFF4",
"K c #11498E",
/* pixels */
"KKKKKKKKKKKKKKKKKKKKKKKKKKKKKKKKKKKKKKKKKKKKKKKKKKKKKKKKKKKKKKKK",
"KKKKKKKKKKKKKKKKKKKKKKKKKKKKKKKKKKKKKKKKKKKKKKKKKKKKKKKKKKKKKKKK",
"KKKKKKKKKKKKKKKKKKKKKKKKKKKKKKKKKKKKKKKKKKKKKKKKKKKKKKKKKKKKKKKK",
"KKKKKKKKKKKKKKKKKKKKKKKKKKKKKKKKKKKKKKKKKKKKKKKKKKKKKKKKKKKKKKKK",
"KKKKKKKKKKKKKKKKKKKKKKKKKKKKKKKKKKKKKKKKKKKKKKKKKKKKKKKKKKKKKKKK",
"KKKKKKKKKKKKKKKKKKKKKKKKKKKKKKKKKKKKKKKKKKKKKKKKKKKKKKKKKKKKKKKK",
"KKKKKKKKKKKKKKKKKKKKKKKKKKKKKKKKKKKKKKKKKKKKKKKKKKKKKKKKKKKKKKKK",
"KKKKKKKKKKKKKKKKKKKKKKKKKKKKKKKKKKKKKKKKKKKKKKKKKKKKKKKKKKKKKKKK",
"KKKKKKKKKKKKKKKKKKKKKKKKKKKKKKKKKKKKKKKKKKKKKKKKKKKKKKKKKKKKKKKK",
"KKKKKKKKKKKKKKKKKKKKKKKKKKKKKKKKKKKKKKKKKKKKKKKKKKKKKKKKKKKKKKKK",
"KKKKKKKKKKKKKKKKKKKKKKKKKKKKKKKKKKKKKKKKKKKKKKKKKKKKKKKKKKKKKKKK",
"KKKKKKKKKKKKKKKKKKKKKKKKKKKKKKKKKKKKKKKKKKKKKKKKKKKKKKKKKKKKKKKK",
"KKKKKKKKKKKKKKKKKKKKKKKKKKKKKKKKKKKKKKKKKKKKKKKKKKKKKKKKKKKKKKKK",
"KKKKKKKKKKKKKKKKKKKKKKKKKKKKKKKKKKKKKKKKKKKKKKKKKKKKKKKKKKKKKKKK",
"KKKKKKKKKKKKKKKKKKKKKKKKKKKKKKKKKKKKKKKKKKKKKKKKKKKKKKKKKKKKKKKK",
"KKKKKKKKKKKKKKKKKKKKKKKKKKKKKKKKKKKKKKKKKKKKKKKKKKKKKKKKKKKKKKKK",
"KKKKKKKKKKKKKKKKKKKKKKKKKKKKKKKKKKKKKKKKKKKKKKKKKKKKKKKKKKKKKKKK",
"KKKKKKKKKKKKKKKKKKKKKKKKKKKKKKKKKKKKKKKKKKKKKKKKKKKKKKKKKKKKKKKK",
"KKKKKKKKKKKKKKKKKKKKKKKKKKKKKKKKKKKKKKKKKKKKKKKKKKKKKKKKKKKKKKKK",
"KKKKKKKKKKKKKKKKKKKKKKKKKKKKKKKKKKKKKKKKKKKKKKKKKKKKKKKKKKKKKKKK",
"KKKKKKKKKKKKKKKKKKKKKKKKKKKKKKKKKKKKKKKKKKKKKKKKKKKKKKKKKKKKKKKK",
"KKKKKKKKKKKKKKKKKKKKKKKKKKKKKKKKKKKKKKKKKKKKKKKKKKKKKKKKKKKKKKKK",
"KKKKKKKKKKKKKKKKKKKKKKKKKKK+O#dvvvvzkKKKKKKKKKKKKKKKKKKKKKKKKKKK",
"KKKKKKKKKKKKKKKKKKKKKKKK%+.  %NGFFFSCMvkKKKKKKKKKKKKKKKKKKKKKKKK",
"KKKKKKKKKKKKKKKKKKKKKKK+.  o-9dkAHGFFFSVnjKKKKKKKKKKKKKKKKKKKKKK",
"KKKKKKKKKKKKKKKKKKKKK@X  +5dCFMhskFGHHHFSksKKKKKKKKKKKKKKKKKKKKK",
"KKKKKKKKKKKKKKKKKKKK>o .,dFHGFGHZhhVmnnVDkvvKKKKKKKKKKKKKKKKKKKK",
"KKKKKKKKKKKKKKKKKKKdsy30VHFFFFFFGHh,&%&=,0ZSnKKKKKKKKKKKKKKKKKKK",
"KKKKKKKKKKKKKKKKKKKvFJhMHFFFFFFFFHdX     XtHAvKKKKKKKKKKKKKKKKKK",
"KKKKKKKKKKKKKKKKKKkZFFfCGFFGFFFFFHp.      #kHCcKKKKKKKKKKKKKKKKK",
"KKKKKKKKKKKKKKKKKhBFGSfFFFGGFGFFFHr        7FFNKKKKKKKKKKKKKKKKK",
"KKKKKKKKKKKKKKKKKvDFGShFFFGGGGGGFHq        #xHSnKKKKKKKKKKKKKKKK",
"KKKKKKKKKKKKKKKKjBFFGShFFFFFFFFFGH6         eHFVKKKKKKKKKKKKKKKK",
"KKKKKKKKKKKKKKKKzSFFGShHHFFFFFFHSk7O        5xSBdKKKKKKKKKKKKKKK",
"KKKKKKKKKKKKKKKKmFFFGs1yNHGFFHDzdkCd<.     <vnkzgKKKKKKKKKKKKKKK",
"KKKKKKKKKKKKKKKhBFFHs@ .-tVHGmdjZHGHZt&   1nHGVp9KKKKKKKKKKKKKKK",
"KKKKKKKKKKKKKKKlCFHz*    .>shhBGGFFFGHv4o5BHFGCp$KKKKKKKKKKKKKKK",
"KKKKKKKKKKKKKKKdCHF6       @dGGFFFFFGGHVtNHFFFxs*KKKKKKKKKKKKKKK",
"KKKKKKKKKKKKKKKqhmsO       +jHFFFFFFGGGGhVGFGVhd-KKKKKKKKKKKKKKK",
"KKKKKKKKKKKKKKKpnme        +jHFFFFFFGGGHjVGGDkfd:KKKKKKKKKKKKKKK",
"KKKKKKKKKKKKKKKkCHj+       @zHFFGGGGFFFGhVGFbhfd,KKKKKKKKKKKKKKK",
"KKKKKKKKKKKKKKKkCGS1       #vHFFGGGGFFFGhVGMhffd;KKKKKKKKKKKKKKK",
"KKKKKKKKKKKKKKKKVFHso      %mHFFGGFFFFFDdCNhffhp-KKKKKKKKKKKKKKK",
"KKKKKKKKKKKKKKKKMFGA1      *VHFFFFGFFFFAdnhffffe>KKKKKKKKKKKKKKK",
"KKKKKKKKKKKKKKKKvSFHf+ .o#>0hSGFFFFFFFHnthfffhptKKKKKKKKKKKKKKKK",
"KKKKKKKKKKKKKKKKKCFFFw8ydbSFkdMGGFFFHFd,@9dhhstgKKKKKKKKKKKKKKKK",
"KKKKKKKKKKKKKKKKKMFFFdDHHHFFGMdjZHHGz8+  .3sstdKKKKKKKKKKKKKKKKK",
"KKKKKKKKKKKKKKKKKKZGFhSFFFFFFHFxdkh9#      :edhKKKKKKKKKKKKKKKKK",
"KKKKKKKKKKKKKKKKKKnBZdSFFFFFFSZBzy$        :dhKKKKKKKKKKKKKKKKKK",
"KKKKKKKKKKKKKKKKKKKssuhxxvxzkjhhhp+       OrhKKKKKKKKKKKKKKKKKKK",
"KKKKKKKKKKKKKKKKKKKK,-whfddddfffhp+      .7hKKKKKKKKKKKKKKKKKKKK",
"KKKKKKKKKKKKKKKKKKKKK@@9dhffffffhp+      2dKKKKKKKKKKKKKKKKKKKKK",
"KKKKKKKKKKKKKKKKKKKKKK+O,thhhhhhft%o..o$<uKKKKKKKKKKKKKKKKKKKKKK",
"KKKKKKKKKKKKKKKKKKKKKKKKO@4tssppttutwwtsaKKKKKKKKKKKKKKKKKKKKKKK",
"KKKKKKKKKKKKKKKKKKKKKKKKKK+-tiupsfhhhhhKKKKKKKKKKKKKKKKKKKKKKKKK",
"KKKKKKKKKKKKKKKKKKKKKKKKKKKKKKKhhKKKKKKKKKKKKKKKKKKKKKKKKKKKKKKK",
"KKKKKKKKKKKKKKKKKKKKKKKKKKKKKKKKKKKKKKKKKKKKKKKKKKKKKKKKKKKKKKKK",
"KKKKKKKKKKKKKKKKKKKKKKKKKKKKKKKKKKKKKKKKKKKKKKKKKKKKKKKKKKKKKKKK",
"KKKKKKKKKKKKKKKKKKKKKKKKKKKKKKKKKKKKKKKKKKKKKKKKKKKKKKKKKKKKKKKK",
"KKKKKKKKKKKKKKKKKKKKKKKKKKKKKKKKKKKKKKKKKKKKKKKKKKKKKKKKKKKKKKKK",
"KKKKKKKKKKKKKKKKKKKKKKKKKKKKKKKKKKKKKKKKKKKKKKKKKKKKKKKKKKKKKKKK",
"KKKKKKKKKKKKKKKKKKKKKKKKKKKKKKKKKKKKKKKKKKKKKKKKKKKKKKKKKKKKKKKK",
"KKKKKKKKKKKKKKKKKKKKKKKKKKKKKKKKKKKKKKKKKKKKKKKKKKKKKKKKKKKKKKKK",
"KKKKKKKKKKKKKKKKKKKKKKKKKKKKKKKKKKKKKKKKKKKKKKKKKKKKKKKKKKKKKKKK"
};
