/* XPM */
static char *result[] = {
/* columns rows colors chars-per-pixel */
"64 64 69 1 ",
"  c black",
". c #080807",
"X c #0C0C0C",
"o c #141413",
"O c #181817",
"+ c #1C1C1B",
"@ c #20201F",
"# c #252524",
"$ c #292927",
"% c #2C2C2A",
"& c #31312F",
"* c #343432",
"= c #383836",
"- c #3C3C3A",
"; c #41413F",
": c #444441",
"> c #494946",
", c #4C4C49",
"< c #51514E",
"1 c #595955",
"2 c #5D5D5A",
"3 c #62625E",
"4 c #696965",
"5 c #6E6E6A",
"6 c #72726E",
"7 c #767672",
"8 c #7A7A75",
"9 c #7E7E79",
"0 c #82827C",
"q c #858580",
"w c #888883",
"e c #8E8E89",
"r c #91918B",
"t c #9A9A94",
"y c #9F9F98",
"u c #A2A29B",
"i c #A7A7A0",
"p c #AAAAA4",
"a c #B4B4AD",
"s c #B7B7B0",
"d c #BCBCB4",
"f c #BFBFB8",
"g c #C5C5BD",
"h c #C8C8BF",
"j c #C7C7C1",
"k c #CACAC2",
"l c #D1D1C9",
"z c #D7D7CE",
"x c #D7D7D1",
"c c #DBDBD3",
"v c #DDDDD3",
"b c #DBDBD4",
"n c #DFDFD6",
"m c #E0E0D7",
"M c #E2E2D9",
"N c #E4E4DB",
"B c #E6E6DD",
"V c #E9E9DF",
"C c #E9E9E0",
"Z c #EDEDE3",
"A c #EDEDE4",
"S c #F0F0E7",
"D c #F3F3E9",
"F c #F5F5EB",
"G c #F6F6EC",
"H c #F9F9EF",
"J c #FBFBF0",
"K c #FDFDF3",
"L c #11498E",
/* pixels */
"LLLLLLLLLLLLLLLLLLLLLLLLLLLLLLLLLLLLLLLLLLLLLLLLLLLLLLLLLLLLLLLL",
"LLLLLLLLLLLLLLLLLLLLLLLLLLLLLLLLLLLLLLLLLLLLLLLLLLLLLLLLLLLLLLLL",
"LLLLLLLLLLLLLLLLLLLLLLLLLLLLLLLLLLLLLLLLLLLLLLLLLLLLLLLLLLLLLLLL",
"LLLLLLLLLLLLLLLLLLLLLLLLLLLLLLLLLLLLLLLLLLLLLLLLLLLLLLLLLLLLLLLL",
"LLLLLLLLLLLLLLLLLLLLLLLLLLLLLLLLLLLLLLLLLLLLLLLLLLLLLLLLLLLLLLLL",
"LLLLLLLLLLLLLLLLLLLLLLLLLLLLLLLLLLLLLLLLLLLLLLLLLLLLLLLLLLLLLLLL",
"LLLLLLLLLLLLLLLLLLLLLLLLLLLLLLLLLLLLLLLLLLLLLLLLLLLLLLLLLLLLLLLL",
"LLLLLLLLLLLLLLLLLLLLLLLLLLLLLLLLLLLLLLLLLLLLLLLLLLLLLLLLLLLLLLLL",
"LLLLLLLLLLLLLLLLLLLLLLLLLLLLLLLLLLLLLLLLLLLLLLLLLLLLLLLLLLLLLLLL",
"LLLLLLLLLLLLLLLLLLLLLLLLLLLLLLLLLLLLLLLLLLLLLLLLLLLLLLLLLLLLLLLL",
"LLLLLLLLLLLLLLLLLLLLLLLLLLLLLLLLLLLLLLLLLLLLLLLLLLLLLLLLLLLLLLLL",
"LLLLLLLLLLLLLLLLLLLLLLLLLLLLLLLLLLLLLLLLLLLLLLLLLLLLLLLLLLLLLLLL",
"LLLLLLLLLLLLLLLLLLLLLLLLLLLLLLLLLLLLLLLLLLLLLLLLLLLLLLLLLLLLLLLL",
"LLLLLLLLLLLLLLLLLLLLLLLLLLLLLLLLLLLLLLLLLLLLLLLLLLLLLLLLLLLLLLLL",
"LLLLLLLLLLLLLLLLLLLLLLLLLLLLLLLLLLLLLLLLLLLLLLLLLLLLLLLLLLLLLLLL",
"LLLLLLLLLLLLLLLLLLLLLLLLLLLLLLLLLLLLLLLLLLLLLLLLLLLLLLLLLLLLLLLL",
"LLLLLLLLLLLLLLLLLLLLLLLLLLLLLLLLLLLLLLLLLLLLLLLLLLLLLLLLLLLLLLLL",
"LLLLLLLLLLLLLLLLLLLLLLLLLLLLLLLLLLLLLLLLLLLLLLLLLLLLLLLLLLLLLLLL",
"LLLLLLLLLLLLLLLLLLLLLLLLLLLLLLLLLLLLLLLLLLLLLLLLLLLLLLLLLLLLLLLL",
"LLLLLLLLLLLLLLLLLLLLLLLLLLLLLLLLLLLLLLLLLLLLLLLLLLLLLLLLLLLLLLLL",
"LLLLLLLLLLLLLLLLLLLLLLLLLLLLLLLLLLLLLLLLLLLLLLLLLLLLLLLLLLLLLLLL",
"LLLLLLLLLLLLLLLLLLLLLLLLLLLLLLLL%LLLLLLLLLLLLLLLLLLLLLLLLLLLLLLL",
"LLLLLLLLLLLLLLLLLLLLLLLLLLL#+XXo.$gnlLLLLLLLLLLLLLLLLLLLLLLLLLLL",
"LLLLLLLLLLLLLLLLLLLLLLLL-+X      4GFABnzLLLLLLLLLLLLLLLLLLLLLLLL",
"LLLLLLLLLLLLLLLLLLLLLLLe=  X%2wuiplGJHFZMzLLLLLLLLLLLLLLLLLLLLLL",
"LLLLLLLLLLLLLLLLLLLLLgcAc63aMGJKKDjfSJHHFCbLLLLLLLLLLLLLLLLLLLLL",
"LLLLLLLLLLLLLLLLLLLLjMDHGgAKJHHHHHJzgDJHHHAnLLLLLLLLLLLLLLLLLLLL",
"LLLLLLLLLLLLLLLLLLLjMFHJnkJHHHHHHHHJcjGKKJHDzLLLLLLLLLLLLLLLLLLL",
"LLLLLLLLLLLLLLLLLLLnFHHHkCJHHHHHHHHHJy3waMHKlhLLLLLLLLLLLLLLLLLL",
"LLLLLLLLLLLLLLLLLLzSHHHSkGHHHHHHHHHHS,  X%5alCbLLLLLLLLLLLLLLLLL",
"LLLLLLLLLLLLLLLLLkCHHHJNzJHHHHHHHHHKho     +fJVLLLLLLLLLLLLLLLLL",
"LLLLLLLLLLLLLLLLLnGHHJHhnKHHHHHHHHHJ0       4HFMLLLLLLLLLLLLLLLL",
"LLLLLLLLLLLLLLLLkCHHJN0%8ZJHHHHHHHJV=       %MJCLLLLLLLLLLLLLLLL",
"LLLLLLLLLLLLLLLLjFJJk:  .2nJHHHJJHFaX       XfKCgLLLLLLLLLLLLLLL",
"LLLLLLLLLLLLLLLLaBHj*     :zKJFBzjji$        tKMhLLLLLLLLLLLLLLL",
"LLLLLLLLLLLLLLLtnzf-       :hkgjcCGJg*       9HzgLLLLLLLLLLLLLLL",
"LLLLLLLLLLLLLLLkAKgo        9NDJJJHHKk=     .8MkhLLLLLLLLLLLLLLL",
"LLLLLLLLLLLLLLLcSKko       XsKHHHHHHHKj$   %tcpfjLLLLLLLLLLLLLLL",
"LLLLLLLLLLLLLLLcFJm$       $nJHHHHHHHHJs++8cKAfpjLLLLLLLLLLLLLLL",
"LLLLLLLLLLLLLLLbDHD,       2GHHHHHHHHHHFyjHJFzhaeLLLLLLLLLLLLLLL",
"LLLLLLLLLLLLLLLcDHJ0       yKHHHHHHHHHHAhJHHnhja=LLLLLLLLLLLLLLL",
"LLLLLLLLLLLLLLLxSHKfX     +lJHHHHHHHHHJBhJHBjhji#LLLLLLLLLLLLLLL",
"LLLLLLLLLLLLLLLLZHJV1%#ooX<SHHHHHHHHHHJlcJVkhhjr+LLLLLLLLLLLLLLL",
"LLLLLLLLLLLLLLLLBHJvjNclkkfcJHHHHHHHHHHhCBkhhhj5oLLLLLLLLLLLLLLL",
"LLLLLLLLLLLLLLLLnFJjBKJJKKDgNJHHHHHHHHAfvjhhhhg,LLLLLLLLLLLLLLLL",
"LLLLLLLLLLLLLLLLLSGjFHHHHHJZhVJHHHHHJKkajhhhhji&LLLLLLLLLLLLLLLL",
"LLLLLLLLLLLLLLLLLacjHHHHHHHJZhBJHJKJVa8fjhhhhh6LLLLLLLLLLLLLLLLL",
"LLLLLLLLLLLLLLLLLL:wJHHHHHHHJZhnScd9;oX9hhhjgu7LLLLLLLLLLLLLLLLL",
"LLLLLLLLLLLLLLLLLL#$hHGHHHHHGGCw-#X    OtjhduaLLLLLLLLLLLLLLLLLL",
"LLLLLLLLLLLLLLLLLLL#-accvnvczlj>        *uiifLLLLLLLLLLLLLLLLLLL",
"LLLLLLLLLLLLLLLLLLLL+=pjhhhhhha#        X9ahLLLLLLLLLLLLLLLLLLLL",
"LLLLLLLLLLLLLLLLLLLLL#-ijjjjhjyX       X6hjLLLLLLLLLLLLLLLLLLLLL",
"LLLLLLLLLLLLLLLLLLLLLL#-tadffd8X      o8hjLLLLLLLLLLLLLLLLLLLLLL",
"LLLLLLLLLLLLLLLLLLLLLLLLpapiiiiq>@X..*tjjLLLLLLLLLLLLLLLLLLLLLLL",
"LLLLLLLLLLLLLLLLLLLLLLLLLLjjjjjjhautetkLLLLLLLLLLLLLLLLLLLLLLLLL",
"LLLLLLLLLLLLLLLLLLLLLLLLLLLLLLLkjLLLLLLLLLLLLLLLLLLLLLLLLLLLLLLL",
"LLLLLLLLLLLLLLLLLLLLLLLLLLLLLLLLLLLLLLLLLLLLLLLLLLLLLLLLLLLLLLLL",
"LLLLLLLLLLLLLLLLLLLLLLLLLLLLLLLLLLLLLLLLLLLLLLLLLLLLLLLLLLLLLLLL",
"LLLLLLLLLLLLLLLLLLLLLLLLLLLLLLLLLLLLLLLLLLLLLLLLLLLLLLLLLLLLLLLL",
"LLLLLLLLLLLLLLLLLLLLLLLLLLLLLLLLLLLLLLLLLLLLLLLLLLLLLLLLLLLLLLLL",
"LLLLLLLLLLLLLLLLLLLLLLLLLLLLLLLLLLLLLLLLLLLLLLLLLLLLLLLLLLLLLLLL",
"LLLLLLLLLLLLLLLLLLLLLLLLLLLLLLLLLLLLLLLLLLLLLLLLLLLLLLLLLLLLLLLL",
"LLLLLLLLLLLLLLLLLLLLLLLLLLLLLLLLLLLLLLLLLLLLLLLLLLLLLLLLLLLLLLLL",
"LLLLLLLLLLLLLLLLLLLLLLLLLLLLLLLLLLLLLLLLLLLLLLLLLLLLLLLLLLLLLLLL"
};
