/* XPM */
static char *result[] = {
/* columns rows colors chars-per-pixel */
"64 64 72 1 ",
"  c black",
". c #080807",
"X c #0B0B0B",
"o c #10100F",
"O c #131313",
"+ c #181817",
"@ c #1C1C1B",
"# c #232322",
"$ c #282827",
"% c #2C2C2A",
"& c #31312F",
"* c #353533",
"= c #3D3D3A",
"- c #41413F",
"; c #444442",
": c #494946",
"> c #4B4B48",
", c #51514E",
"< c #555552",
"1 c #5A5A56",
"2 c #5E5E5A",
"3 c #666662",
"4 c #686864",
"5 c #6D6D69",
"6 c #73736E",
"7 c #767672",
"8 c #787873",
"9 c #7D7D79",
"0 c #84847E",
"q c #878781",
"w c #8C8C86",
"e c #8E8E89",
"r c #93938D",
"t c #969690",
"y c #9C9C96",
"u c #9F9F98",
"i c #A3A39D",
"p c #A6A6A0",
"a c #ABABA3",
"s c #AFAFA8",
"d c #B4B4AC",
"f c #BCBCB4",
"g c #C0C0B7",
"h c #C4C4BC",
"j c #C8C8BF",
"k c #C7C7C0",
"l c #CACAC2",
"z c #D0D0C7",
"x c #D3D3CC",
"c c #D4D4CC",
"v c #D8D8CF",
"b c #D7D7D0",
"n c #DBDBD3",
"m c #DBDBD4",
"M c #DFDFD6",
"N c #E0E0D7",
"B c #E2E2D8",
"V c #E4E4DB",
"C c #E5E5DC",
"Z c #E8E8DF",
"A c #EBEBE2",
"S c #ECECE2",
"D c #EEEEE4",
"F c #F0F0E7",
"G c #F2F2E8",
"H c #F5F5EB",
"J c #F7F7EC",
"K c #F9F9EF",
"L c #FAFAF0",
"P c #FCFCF2",
"I c #FEFEF4",
"U c #11498E",
/* pixels */
"UUUUUUUUUUUUUUUUUUUUUUUUUUUUUUUUUUUUUUUUUUUUUUUUUUUUUUUUUUUUUUUU",
"UUUUUUUUUUUUUUUUUUUUUUUUUUUUUUUUUUUUUUUUUUUUUUUUUUUUUUUUUUUUUUUU",
"UUUUUUUUUUUUUUUUUUUUUUUUUUUUUUUUUUUUUUUUUUUUUUUUUUUUUUUUUUUUUUUU",
"UUUUUUUUUUUUUUUUUUUUUUUUUUUUUUUUUUUUUUUUUUUUUUUUUUUUUUUUUUUUUUUU",
"UUUUUUUUUUUUUUUUUUUUUUUUUUUUUUUUUUUUUUUUUUUUUUUUUUUUUUUUUUUUUUUU",
"UUUUUUUUUUUUUUUUUUUUUUUUUUUUUUUUUUUUUUUUUUUUUUUUUUUUUUUUUUUUUUUU",
"UUUUUUUUUUUUUUUUUUUUUUUUUUUUUUUUUUUUUUUUUUUUUUUUUUUUUUUUUUUUUUUU",
"UUUUUUUUUUUUUUUUUUUUUUUUUUUUUUUUUUUUUUUUUUUUUUUUUUUUUUUUUUUUUUUU",
"UUUUUUUUUUUUUUUUUUUUUUUUUUUUUUUUUUUUUUUUUUUUUUUUUUUUUUUUUUUUUUUU",
"UUUUUUUUUUUUUUUUUUUUUUUUUUUUUUUUUUUUUUUUUUUUUUUUUUUUUUUUUUUUUUUU",
"UUUUUUUUUUUUUUUUUUUUUUUUUUUUUUUUUUUUUUUUUUUUUUUUUUUUUUUUUUUUUUUU",
"UUUUUUUUUUUUUUUUUUUUUUUUUUUUUUUUUUUUUUUUUUUUUUUUUUUUUUUUUUUUUUUU",
"UUUUUUUUUUUUUUUUUUUUUUUUUUUUUUUUUUUUUUUUUUUUUUUUUUUUUUUUUUUUUUUU",
"UUUUUUUUUUUUUUUUUUUUUUUUUUUUUUUUUUUUUUUUUUUUUUUUUUUUUUUUUUUUUUUU",
"UUUUUUUUUUUUUUUUUUUUUUUUUUUUUUUUUUUUUUUUUUUUUUUUUUUUUUUUUUUUUUUU",
"UUUUUUUUUUUUUUUUUUUUUUUUUUUUUUUUUUUUUUUUUUUUUUUUUUUUUUUUUUUUUUUU",
"UUUUUUUUUUUUUUUUUUUUUUUUUUUUUUUUUUUUUUUUUUUUUUUUUUUUUUUUUUUUUUUU",
"UUUUUUUUUUUUUUUUUUUUUUUUUUUUUUUUUUUUUUUUUUUUUUUUUUUUUUUUUUUUUUUU",
"UUUUUUUUUUUUUUUUUUUUUUUUUUUUUUUUUUUUUUUUUUUUUUUUUUUUUUUUUUUUUUUU",
"UUUUUUUUUUUUUUUUUUUUUUUUUUUUUUUUUUUUUUUUUUUUUUUUUUUUUUUUUUUUUUUU",
"UUUUUUUUUUUUUUUUUUUUUUUUUUUUUUUUUUUUUUUUUUUUUUUUUUUUUUUUUUUUUUUU",
"UUUUUUUUUUUUUUUUUUUUUUUUUUUUUUUUUUUUUUUUUUUUUUUUUUUUUUUUUUUUUUUU",
"UUUUUUUUUUUUUUUUUUUUUUUUUUUUUUUUUUUUUUUUUUUUUUUUUUUUUUUUUUUUUUUU",
"UUUUUUUUUUUUUUUUUUUUUUUUUUUhll,...X.OUUUUUUUUUUUUUUUUUUUUUUUUUUU",
"UUUUUUUUUUUUUUUUUUUUUUUUUlbVDJz%     .XOUUUUUUUUUUUUUUUUUUUUUUUU",
"UUUUUUUUUUUUUUUUUUUUUUUlnSHKKLZt63<*O  .4lUUUUUUUUUUUUUUUUUUUUUU",
"UUUUUUUUUUUUUUUUUUUUUUxZHKKKLZhZPLHChe=5AAnUUUUUUUUUUUUUUUUUUUUU",
"UUUUUUUUUUUUUUUUUUUUUnFKKKKLAhALKKKLPPMfJKDMUUUUUUUUUUUUUUUUUUUU",
"UUUUUUUUUUUUUUUUUUUsnGKKKKLFlALKKKKKKKLlzLKFMUUUUUUUUUUUUUUUUUUU",
"UUUUUUUUUUUUUUUUUUUpDKLPLHAlVLKKKKKKKKLFfFLKFmUUUUUUUUUUUUUUUUUU",
"UUUUUUUUUUUUUUUUUUhccKCd7>=eLKKKKKKKKKKLlcLKKDnUUUUUUUUUUUUUUUUU",
"UUUUUUUUUUUUUUUUUlZKcw*.   &MLKKKKKKKKKLClLKKKCUUUUUUUUUUUUUUUUU",
"UUUUUUUUUUUUUUUUUmHPgO      eLKKKKKKKKKLCtMPKKGMUUUUUUUUUUUUUUUU",
"UUUUUUUUUUUUUUUUlAKL9       *VLKKKKKKKLF7.=fKLKCUUUUUUUUUUUUUUUU",
"UUUUUUUUUUUUUUUUnGLD;       .pILLKKKKLF8.  @yJLAUUUUUUUUUUUUUUUU",
"UUUUUUUUUUUUUUUUBJLn#        <vMAHJLPHq.    XrDgiUUUUUUUUUUUUUUU",
"UUUUUUUUUUUUUUUlZKPgO        7xxlhhzcqX      orhhUUUUUUUUUUUUUUU",
"UUUUUUUUUUUUUUUcDKPs.       <APLKJGCM<        8zhUUUUUUUUUUUUUUU",
"UUUUUUUUUUUUUUUbFLLiO      =nLKKKKKLIa.       6llUUUUUUUUUUUUUUU",
"UUUUUUUUUUUUUUUnGKzld>.   $lPKKKKKKKLC=      .0llUUUUUUUUUUUUUUU",
"UUUUUUUUUUUUUUUzGMlKPSp:.@dLKKKKKKKKKLq      XillUUUUUUUUUUUUUUU",
"UUUUUUUUUUUUUUU9lkGLKLPSpuKKKKKKKKKKKPl+     %fllUUUUUUUUUUUUUUU",
"UUUUUUUUUUUUUUU*>cLKKKKLJgHKKKKKKKKKKLD;     1jhlUUUUUUUUUUUUUUU",
"UUUUUUUUUUUUUUUU$xPKKKKKLhVLKKKKKKKKKKK9*=:<4rjllUUUUUUUUUUUUUUU",
"UUUUUUUUUUUUUUUU$iPKKKKKLnlLKKKKKKKKKLMjAMjjlpfllUUUUUUUUUUUUUUU",
"UUUUUUUUUUUUUUUU%4KKKKKKLGgHKKKKKKKKLAgDVljjlddlUUUUUUUUUUUUUUUU",
"UUUUUUUUUUUUUUUUU*vLKKKKKLzMLKKKKKKLHgnnljjjjgalUUUUUUUUUUUUUUUU",
"UUUUUUUUUUUUUUUUU*rPKKKKKLSlKPLLKKLJhfljjjjjlf2UUUUUUUUUUUUUUUUU",
"UUUUUUUUUUUUUUUUUU:MLKKKKKKuqfNDHKDdaljjjjjjl7OUUUUUUUUUUUUUUUUU",
"UUUUUUUUUUUUUUUUUU<pZKLKLPh# O$;245ihjjjjjjli#UUUUUUUUUUUUUUUUUU",
"UUUUUUUUUUUUUUUUUUUfsfvBVz-       Xiljjjjjlf-@UUUUUUUUUUUUUUUUUU",
"UUUUUUUUUUUUUUUUUUUUgaupa<         8ljjjjlg1@UUUUUUUUUUUUUUUUUUU",
"UUUUUUUUUUUUUUUUUUUUUhgda>         ,jlljhd3$UUUUUUUUUUUUUUUUUUUU",
"UUUUUUUUUUUUUUUUUUUUUUhlld>        $iddpiwUUUUUUUUUUUUUUUUUUUUUU",
"UUUUUUUUUUUUUUUUUUUUUUUUllf4O    .%6iddfgUUUUUUUUUUUUUUUUUUUUUUU",
"UUUUUUUUUUUUUUUUUUUUUUUUUUlhi2%>5rfllllUUUUUUUUUUUUUUUUUUUUUUUUU",
"UUUUUUUUUUUUUUUUUUUUUUUUUUUUUkuglllUUUUUUUUUUUUUUUUUUUUUUUUUUUUU",
"UUUUUUUUUUUUUUUUUUUUUUUUUUUUUUUUUUUUUUUUUUUUUUUUUUUUUUUUUUUUUUUU",
"UUUUUUUUUUUUUUUUUUUUUUUUUUUUUUUUUUUUUUUUUUUUUUUUUUUUUUUUUUUUUUUU",
"UUUUUUUUUUUUUUUUUUUUUUUUUUUUUUUUUUUUUUUUUUUUUUUUUUUUUUUUUUUUUUUU",
"UUUUUUUUUUUUUUUUUUUUUUUUUUUUUUUUUUUUUUUUUUUUUUUUUUUUUUUUUUUUUUUU",
"UUUUUUUUUUUUUUUUUUUUUUUUUUUUUUUUUUUUUUUUUUUUUUUUUUUUUUUUUUUUUUUU",
"UUUUUUUUUUUUUUUUUUUUUUUUUUUUUUUUUUUUUUUUUUUUUUUUUUUUUUUUUUUUUUUU",
"UUUUUUUUUUUUUUUUUUUUUUUUUUUUUUUUUUUUUUUUUUUUUUUUUUUUUUUUUUUUUUUU"
};
