/* XPM */
static char *result[] = {
/* columns rows colors chars-per-pixel */
"64 64 71 1 ",
"  c black",
". c #0C0C0C",
"X c #10100F",
"o c #141413",
"O c #181817",
"+ c #1C1C1B",
"@ c #242422",
"# c #282827",
"$ c #2E2E2C",
"% c #31312F",
"& c #353533",
"* c #393936",
"= c #3E3E3C",
"- c #41413E",
"; c #464644",
": c #494946",
"> c #4C4C4A",
", c #52524F",
"< c #5B5B57",
"1 c #5E5E5B",
"2 c #61615D",
"3 c #666663",
"4 c #6A6A65",
"5 c #6F6F6B",
"6 c #71716D",
"7 c #7B7B75",
"8 c #7E7E78",
"9 c #83837D",
"0 c #878781",
"q c #898984",
"w c #8E8E89",
"e c #92928C",
"r c #979790",
"t c #9B9B95",
"y c #9F9F9B",
"u c #A4A49D",
"i c #A6A6A0",
"p c #ACACA5",
"a c #AFAFA8",
"s c #B3B3AB",
"d c #BCBCB4",
"f c #BFBFB8",
"g c #C4C4BC",
"h c #C8C8BF",
"j c #C7C7C0",
"k c #CACAC2",
"l c #CECEC8",
"z c #D0D0C7",
"x c #D2D2CA",
"c c #D4D4CC",
"v c #D7D7CF",
"b c #D7D7D0",
"n c #D9D9D1",
"m c #DBDBD4",
"M c #DDDDD4",
"N c #E2E2D9",
"B c #E4E4DB",
"V c #E7E7DE",
"C c #E8E8DF",
"Z c #EAEAE0",
"A c #ECECE2",
"S c #EFEFE6",
"D c #F1F1E7",
"F c #F3F3E9",
"G c #F5F5EB",
"H c #F7F7ED",
"J c #F9F9EF",
"K c #FBFBF0",
"L c #FCFCF2",
"P c #FEFEF4",
"I c #11498E",
/* pixels */
"IIIIIIIIIIIIIIIIIIIIIIIIIIIIIIIIIIIIIIIIIIIIIIIIIIIIIIIIIIIIIIII",
"IIIIIIIIIIIIIIIIIIIIIIIIIIIIIIIIIIIIIIIIIIIIIIIIIIIIIIIIIIIIIIII",
"IIIIIIIIIIIIIIIIIIIIIIIIIIIIIIIIIIIIIIIIIIIIIIIIIIIIIIIIIIIIIIII",
"IIIIIIIIIIIIIIIIIIIIIIIIIIIIIIIIIIIIIIIIIIIIIIIIIIIIIIIIIIIIIIII",
"IIIIIIIIIIIIIIIIIIIIIIIIIIIIIIIIIIIIIIIIIIIIIIIIIIIIIIIIIIIIIIII",
"IIIIIIIIIIIIIIIIIIIIIIIIIIIIIIIIIIIIIIIIIIIIIIIIIIIIIIIIIIIIIIII",
"IIIIIIIIIIIIIIIIIIIIIIIIIIIIIIIIIIIIIIIIIIIIIIIIIIIIIIIIIIIIIIII",
"IIIIIIIIIIIIIIIIIIIIIIIIIIIIIIIIIIIIIIIIIIIIIIIIIIIIIIIIIIIIIIII",
"IIIIIIIIIIIIIIIIIIIIIIIIIIIIIIIIIIIIIIIIIIIIIIIIIIIIIIIIIIIIIIII",
"IIIIIIIIIIIIIIIIIIIIIIIIIIIIIIIIIIIIIIIIIIIIIIIIIIIIIIIIIIIIIIII",
"IIIIIIIIIIIIIIIIIIIIIIIIIIIIIIIIIIIIIIIIIIIIIIIIIIIIIIIIIIIIIIII",
"IIIIIIIIIIIIIIIIIIIIIIIIIIIIIIIIIIIIIIIIIIIIIIIIIIIIIIIIIIIIIIII",
"IIIIIIIIIIIIIIIIIIIIIIIIIIIIIIIIIIIIIIIIIIIIIIIIIIIIIIIIIIIIIIII",
"IIIIIIIIIIIIIIIIIIIIIIIIIIIIIIIIIIIIIIIIIIIIIIIIIIIIIIIIIIIIIIII",
"IIIIIIIIIIIIIIIIIIIIIIIIIIIIIIIIIIIIIIIIIIIIIIIIIIIIIIIIIIIIIIII",
"IIIIIIIIIIIIIIIIIIIIIIIIIIIIIIIIIIIIIIIIIIIIIIIIIIIIIIIIIIIIIIII",
"IIIIIIIIIIIIIIIIIIIIIIIIIIIIIIIIIIIIIIIIIIIIIIIIIIIIIIIIIIIIIIII",
"IIIIIIIIIIIIIIIIIIIIIIIIIIIIIIIIIIIIIIIIIIIIIIIIIIIIIIIIIIIIIIII",
"IIIIIIIIIIIIIIIIIIIIIIIIIIIIIIIIIIIIIIIIIIIIIIIIIIIIIIIIIIIIIIII",
"IIIIIIIIIIIIIIIIIIIIIIIIIIIIIIIIIIIIIIIIIIIIIIIIIIIIIIIIIIIIIIII",
"IIIIIIIIIIIIIIIIIIIIIIIIIIIIIIIIIIIIIIIIIIIIIIIIIIIIIIIIIIIIIIII",
"IIIIIIIIIIIIIIIIIIIIIIIIIIIIIIIIIIIIIIIIIIIIIIIIIIIIIIIIIIIIIIII",
"IIIIIIIIIIIIIIIIIIIIIIIIIIIIIIIIIIIIIIIIIIIIIIIIIIIIIIIIIIIIIIII",
"IIIIIIIIIIIIIIIIIIIIIIIIIIIIIIIIIIIIIIIIIIIIIIIIIIIIIIIIIIIIIIII",
"IIIIIIIIIIIIIIIIIIIIIIIIIIIp;..o.o...IIIIIIIIIIIIIIIIIIIIIIIIIII",
"IIIIIIIIIIIIIIIIIIIIIIIIIjvVd$        *dIIIIIIIIIIIIIIIIIIIIIIII",
"IIIIIIIIIIIIIIIIIIIIIIIjnZGJKu<565<*+@sAMIIIIIIIIIIIIIIIIIIIIIII",
"IIIIIIIIIIIIIIIIIIIIIfvCGJJKnhFJJJGAxiVKGVnIIIIIIIIIIIIIIIIIIIII",
"IIIIIIIIIIIIIIIIIIIIhMDJJJKVgFKJJJJKLZdSKHAnIIIIIIIIIIIIIIIIIIII",
"IIIIIIIIIIIIIIIIIIIhMGJJJJFhZKJJJJJJJKngJJJDMIIIIIIIIIIIIIIIIIII",
"IIIIIIIIIIIIIIIIIIInGJJJKLvMKJJJJJJJJJJgNKJJSMIIIIIIIIIIIIIIIIII",
"IIIIIIIIIIIIIIIIIIsFJJLJVjdHJJJJJJJJJJKNjLJJJAIIIIIIIIIIIIIIIIII",
"IIIIIIIIIIIIIIIIItdALGg6&o5GKJJJJJJJJJKSejHKJHVIIIIIIIIIIIIIIIII",
"IIIIIIIIIIIIIIIIIcZcj3o   .pLJJJJJJJJJKuoO6nKKGnIIIIIIIIIIIIIIII",
"IIIIIIIIIIIIIIIIlCJV;      *NKJJJJJJJLj#   %pHZfIIIIIIIIIIIIIIII",
"IIIIIIIIIIIIIIIIbFLlO       9KKJKJJJKB:     o9lnIIIIIIIIIIIIIIII",
"IIIIIIIIIIIIIIIINHLp.       @jAZADSSA6       OvVgIIIIIIIIIIIIIII",
"IIIIIIIIIIIIIIIlZJPt        .qdsdlhjpO       .fnhIIIIIIIIIIIIIII",
"IIIIIIIIIIIIIIIvSJLq        >AKJJJJKA<       .slgIIIIIIIIIIIIIII",
"IIIIIIIIIIIIIIInDJK9       +gLJJJJJJLhO      .ijjIIIIIIIIIIIIIII",
"IIIIIIIIIIIIIIInFJLw      .qJJJJJJJJJH6      opjjIIIIIIIIIIIIIII",
"IIIIIIIIIIIIIIImGKSp3@    >CKJJJJJJJJLz+     #djjIIIIIIIIIIIIIII",
"IIIIIIIIIIIIIIInFJjBJve:o@gLJJJJJJJJJJH4   .X,gjjIIIIIIIIIIIIIII",
"IIIIIIIIIIIIIIIdAVxJJKLShuDKJJJJJJJJJJLs$:6wuusjjIIIIIIIIIIIIIII",
"IIIIIIIIIIIIIII3ujAKJJJJLxnKJJJJJJJJJJJhnDAxjhihjIIIIIIIIIIIIIII",
"IIIIIIIIIIIIIIII$eKJJJJJJAhHJJJJJJJJJKNjKZlhhjsdlIIIIIIIIIIIIIII",
"IIIIIIIIIIIIIIII#1HJJJJJJJlMKJJJJJJJJGgVBkhhhjs6IIIIIIIIIIIIIIII",
"IIIIIIIIIIIIIIII;$lLJJJJJKAhHJJJJJJJKzhnjhhhhjqoIIIIIIIIIIIIIIII",
"IIIIIIIIIIIIIIIII#6JJJJJJJKcvLKKKKKKMajhhhhhjd-IIIIIIIIIIIIIIIII",
"IIIIIIIIIIIIIIIII>$jLJJJJJJGdlNZDSCzydhhhhhhj9OIIIIIIIIIIIIIIIII",
"IIIIIIIIIIIIIIIIII$3SJJJJKKH6o%-:;=*rjhhhhhjs&IIIIIIIIIIIIIIIIII",
"IIIIIIIIIIIIIIIIIII&wxMNNBBpo       2jhhhhjg2+IIIIIIIIIIIIIIIIII",
"IIIIIIIIIIIIIIIIIIIIyupghjd-        #sjhjhd7+IIIIIIIIIIIIIIIIIII",
"IIIIIIIIIIIIIIIIIIIIIgpuis8.        .0hdsuu4IIIIIIIIIIIIIIIIIIII",
"IIIIIIIIIIIIIIIIIIIIIIjhdsu=        .2uusdIIIIIIIIIIIIIIIIIIIIII",
"IIIIIIIIIIIIIIIIIIIIIIIIjjjd3O    .$7dhhjIIIIIIIIIIIIIIIIIIIIIII",
"IIIIIIIIIIIIIIIIIIIIIIIIIIjjhu4&@,qdjjjIIIIIIIIIIIIIIIIIIIIIIIII",
"IIIIIIIIIIIIIIIIIIIIIIIIIIIIIljsthkjIIIIIIIIIIIIIIIIIIIIIIIIIIII",
"IIIIIIIIIIIIIIIIIIIIIIIIIIIIIIIIIIIIIIIIIIIIIIIIIIIIIIIIIIIIIIII",
"IIIIIIIIIIIIIIIIIIIIIIIIIIIIIIIIIIIIIIIIIIIIIIIIIIIIIIIIIIIIIIII",
"IIIIIIIIIIIIIIIIIIIIIIIIIIIIIIIIIIIIIIIIIIIIIIIIIIIIIIIIIIIIIIII",
"IIIIIIIIIIIIIIIIIIIIIIIIIIIIIIIIIIIIIIIIIIIIIIIIIIIIIIIIIIIIIIII",
"IIIIIIIIIIIIIIIIIIIIIIIIIIIIIIIIIIIIIIIIIIIIIIIIIIIIIIIIIIIIIIII",
"IIIIIIIIIIIIIIIIIIIIIIIIIIIIIIIIIIIIIIIIIIIIIIIIIIIIIIIIIIIIIIII"
};
