/* XPM */
static char *result[] = {
/* columns rows colors chars-per-pixel */
"64 64 65 1 ",
"  c black",
". c #0B0B0A",
"X c #141413",
"o c #1C1C1B",
"O c #20201E",
"+ c #232321",
"@ c #2C2C2A",
"# c #31312F",
"$ c #353533",
"% c #383836",
"& c #3C3C3A",
"* c #40403D",
"= c #454542",
"- c #4D4D4A",
"; c #52524E",
": c #545451",
"> c #5A5A56",
", c #5C5C59",
"< c #62625E",
"1 c #6A6A66",
"2 c #6F6F6A",
"3 c #73736E",
"4 c #797974",
"5 c #7D7D79",
"6 c #82827C",
"7 c #878781",
"8 c #898984",
"9 c #94948E",
"0 c #9B9B95",
"q c #9D9D99",
"w c #A4A49C",
"e c #A7A7A1",
"r c #ABABA4",
"t c #AEAEA9",
"y c #B2B2AB",
"u c #B6B6B0",
"i c #BCBCB3",
"p c #C5C5BD",
"a c #C8C8BF",
"s c #C7C7C0",
"d c #CACAC2",
"f c #D0D0C7",
"g c #D3D3CA",
"h c #D6D6CD",
"j c #D9D9CF",
"k c #D8D8D0",
"l c #DDDDD3",
"z c #DCDCD4",
"x c #E1E1D7",
"c c #E2E2D8",
"v c #E3E3D8",
"b c #E7E7DE",
"n c #E9E9DE",
"m c #EAEAE0",
"M c #EEEEE3",
"N c #EFEFE5",
"B c #F0F0E6",
"V c #F3F3E8",
"C c #F7F7EB",
"Z c #F7F7EC",
"A c #FBFBEF",
"S c #FCFCEF",
"D c #FCFCF0",
"F c #FFFFF2",
"G c #11498E",
/* pixels */
"GGGGGGGGGGGGGGGGGGGGGGGGGGGGGGGGGGGGGGGGGGGGGGGGGGGGGGGGGGGGGGGG",
"GGGGGGGGGGGGGGGGGGGGGGGGGGGGGGGGGGGGGGGGGGGGGGGGGGGGGGGGGGGGGGGG",
"GGGGGGGGGGGGGGGGGGGGGGGGGGGGGGGGGGGGGGGGGGGGGGGGGGGGGGGGGGGGGGGG",
"GGGGGGGGGGGGGGGGGGGGGGGGGGGGGGGGGGGGGGGGGGGGGGGGGGGGGGGGGGGGGGGG",
"GGGGGGGGGGGGGGGGGGGGGGGGGGGGGGGGGGGGGGGGGGGGGGGGGGGGGGGGGGGGGGGG",
"GGGGGGGGGGGGGGGGGGGGGGGGGGGGGGGGGGGGGGGGGGGGGGGGGGGGGGGGGGGGGGGG",
"GGGGGGGGGGGGGGGGGGGGGGGGGGGGGGGGGGGGGGGGGGGGGGGGGGGGGGGGGGGGGGGG",
"GGGGGGGGGGGGGGGGGGGGGGGGGGGGGGGGGGGGGGGGGGGGGGGGGGGGGGGGGGGGGGGG",
"GGGGGGGGGGGGGGGGGGGGGGGGGGGGGGGGGGGGGGGGGGGGGGGGGGGGGGGGGGGGGGGG",
"GGGGGGGGGGGGGGGGGGGGGGGGGGGGGGGGGGGGGGGGGGGGGGGGGGGGGGGGGGGGGGGG",
"GGGGGGGGGGGGGGGGGGGGGGGGGGGGGGGGGGGGGGGGGGGGGGGGGGGGGGGGGGGGGGGG",
"GGGGGGGGGGGGGGGGGGGGGGGGGGGGGGGGGGGGGGGGGGGGGGGGGGGGGGGGGGGGGGGG",
"GGGGGGGGGGGGGGGGGGGGGGGGGGGGGGGGGGGGGGGGGGGGGGGGGGGGGGGGGGGGGGGG",
"GGGGGGGGGGGGGGGGGGGGGGGGGGGGGGGGGGGGGGGGGGGGGGGGGGGGGGGGGGGGGGGG",
"GGGGGGGGGGGGGGGGGGGGGGGGGGGGGGGGGGGGGGGGGGGGGGGGGGGGGGGGGGGGGGGG",
"GGGGGGGGGGGGGGGGGGGGGGGGGGGGGGGGGGGGGGGGGGGGGGGGGGGGGGGGGGGGGGGG",
"GGGGGGGGGGGGGGGGGGGGGGGGGGGGGGGGGGGGGGGGGGGGGGGGGGGGGGGGGGGGGGGG",
"GGGGGGGGGGGGGGGGGGGGGGGGGGGGGGGGGGGGGGGGGGGGGGGGGGGGGGGGGGGGGGGG",
"GGGGGGGGGGGGGGGGGGGGGGGGGGGGGGGGGGGGGGGGGGGGGGGGGGGGGGGGGGGGGGGG",
"GGGGGGGGGGGGGGGGGGGGGGGGGGGGGGGGGGGGGGGGGGGGGGGGGGGGGGGGGGGGGGGG",
"GGGGGGGGGGGGGGGGGGGGGGGGGGGGGGGGGGGGGGGGGGGGGGGGGGGGGGGGGGGGGGGG",
"GGGGGGGGGGGGGGGGGGGGGGGGGGGpdhhkhkge8GGGGGGGGGGGGGGGGGGGGGGGGGGG",
"GGGGGGGGGGGGGGGGGGGGGGGGGdzbNCCZZCCfxvkhGGGGGGGGGGGGGGGGGGGGGGGG",
"GGGGGGGGGGGGGGGGGGGGGGG1hBAAAFFFFFmhAACMzGGGGGGGGGGGGGGGGGGGGGGG",
"GGGGGGGGGGGGGGGGGGGGG,O4lmCFFCgw4,;rAFAACbkGGGGGGGGGGGGGGGGGGGGG",
"GGGGGGGGGGGGGGGGGGGG<@4hzdsd0-o    X0ASAAANcGGGGGGGGGGGGGGGGGGGG",
"GGGGGGGGGGGGGGGGGGG<#9AFFAAiX       XeFAAAAVcGGGGGGGGGGGGGGGGGGG",
"GGGGGGGGGGGGGGGGGG<$9AFAAAFi.        @gFDAAABzGGGGGGGGGGGGGGGGGG",
"GGGGGGGGGGGGGGGGGG&9AFAAAAFy          1nVAFFAb5GGGGGGGGGGGGGGGGG",
"GGGGGGGGGGGGGGGGG35CFAAAAAFy          2fddzBFp+GGGGGGGGGGGGGGGGG",
"GGGGGGGGGGGGGGGGGpjFAAAAAAFq         -vFCMjpd< .GGGGGGGGGGGGGGGG",
"GGGGGGGGGGGGGGGGddMFAAAAAAFq        #gFAAFFAh$  GGGGGGGGGGGGGGGG",
"GGGGGGGGGGGGGGGGkdBFAAAAAAjiq<@.   +iFAAAAAAF7   GGGGGGGGGGGGGGG",
"GGGGGGGGGGGGGGGGzdCSAAAAAdaCFAvi7;%yFAAAAAAAFdo  GGGGGGGGGGGGGGG",
"GGGGGGGGGGGGGGGdbdBADAAAfpAAAAFFFAdxFAAAAAAAFB=  GGGGGGGGGGGGGGG",
"GGGGGGGGGGGGGGGhBdnFFFFldAFAAAAAAFmdAAAAAAAAAF3  GGGGGGGGGGGGGGG",
"GGGGGGGGGGGGGGGkCd2wpbcdCFAAAAAAAAApBAAAAAAAAF7  .GGGGGGGGGGGGGG",
"GGGGGGGGGGGGGGGkC9  X@3MFAAAAAAAAAFgzFAAAAAAFB7  GGGGGGGGGGGGGGG",
"GGGGGGGGGGGGGGGzm-    &MFAAAAAAAAAFvfSAAAAAAAg6*XGGGGGGGGGGGGGGG",
"GGGGGGGGGGGGGGGzh+    ohFAAAAAAAAAACpAAAAAAAvewpqGGGGGGGGGGGGGGG",
"GGGGGGGGGGGGGGGziX     eFAAAAAAAAAAApkFFFAAni9pdpGGGGGGGGGGGGGGG",
"GGGGGGGGGGGGGGGGuX     1AAAAAAAAAAFN<#4inFMi9udadGGGGGGGGGGGGGGG",
"GGGGGGGGGGGGGGGGto     @xFAAAAAAAFC4   .$300idadgGGGGGGGGGGGGGGG",
"GGGGGGGGGGGGGGGGd1      0AFFAAAAFC6.      &idaadGGGGGGGGGGGGGGGG",
"GGGGGGGGGGGGGGGGGh&    OqpgbCAFFC6.       -daaadGGGGGGGGGGGGGGGG",
"GGGGGGGGGGGGGGGGGmd#  $iABzdpdfg3.        2daadGGGGGGGGGGGGGGGGG",
"GGGGGGGGGGGGGGGGGGCd&;gFAAFACnvio        .0daadGGGGGGGGGGGGGGGGG",
"GGGGGGGGGGGGGGGGGGzBdaFAAAAAAACm<        @idadGGGGGGGGGGGGGGGGGG",
"GGGGGGGGGGGGGGGGGGGddrgzccxljgddeO       <dddGGGGGGGGGGGGGGGGGGG",
"GGGGGGGGGGGGGGGGGGGGpuepaappppaad4     o>0ypdGGGGGGGGGGGGGGGGGGG",
"GGGGGGGGGGGGGGGGGGGGGprydaaaaaaadi=+$:6rppywGGGGGGGGGGGGGGGGGGGG",
"GGGGGGGGGGGGGGGGGGGGGGpqrdddaaaadywypaddaaGGGGGGGGGGGGGGGGGGGGGG",
"GGGGGGGGGGGGGGGGGGGGGGGG>29ypddayrpdaaaadGGGGGGGGGGGGGGGGGGGGGGG",
"GGGGGGGGGGGGGGGGGGGGGGGGGG$&=>28ypaaaadGGGGGGGGGGGGGGGGGGGGGGGGG",
"GGGGGGGGGGGGGGGGGGGGGGGGGGGGGo &idadGGGGGGGGGGGGGGGGGGGGGGGGGGGG",
"GGGGGGGGGGGGGGGGGGGGGGGGGGGGGGGGGGGGGGGGGGGGGGGGGGGGGGGGGGGGGGGG",
"GGGGGGGGGGGGGGGGGGGGGGGGGGGGGGGGGGGGGGGGGGGGGGGGGGGGGGGGGGGGGGGG",
"GGGGGGGGGGGGGGGGGGGGGGGGGGGGGGGGGGGGGGGGGGGGGGGGGGGGGGGGGGGGGGGG",
"GGGGGGGGGGGGGGGGGGGGGGGGGGGGGGGGGGGGGGGGGGGGGGGGGGGGGGGGGGGGGGGG",
"GGGGGGGGGGGGGGGGGGGGGGGGGGGGGGGGGGGGGGGGGGGGGGGGGGGGGGGGGGGGGGGG",
"GGGGGGGGGGGGGGGGGGGGGGGGGGGGGGGGGGGGGGGGGGGGGGGGGGGGGGGGGGGGGGGG",
"GGGGGGGGGGGGGGGGGGGGGGGGGGGGGGGGGGGGGGGGGGGGGGGGGGGGGGGGGGGGGGGG",
"GGGGGGGGGGGGGGGGGGGGGGGGGGGGGGGGGGGGGGGGGGGGGGGGGGGGGGGGGGGGGGGG",
"GGGGGGGGGGGGGGGGGGGGGGGGGGGGGGGGGGGGGGGGGGGGGGGGGGGGGGGGGGGGGGGG"
};
