/* XPM */
static char *result[] = {
/* columns rows colors chars-per-pixel */
"64 64 67 1 ",
"  c black",
". c #0C0C0C",
"X c #131313",
"o c #1C1C1B",
"O c #20201F",
"+ c #232321",
"@ c #2C2C2A",
"# c #343432",
"$ c #393937",
"% c #3D3D3A",
"& c #454542",
"* c #4E4E4B",
"= c #53534F",
"- c #565653",
"; c #5B5B57",
": c #5D5D5A",
"> c #666662",
", c #6A6A66",
"< c #6E6E69",
"1 c #72726F",
"2 c #767671",
"3 c #7B7B76",
"4 c #80807B",
"5 c #868681",
"6 c #8B8B85",
"7 c #8F8F89",
"8 c #93938C",
"9 c #9B9B95",
"0 c #9E9E99",
"q c #A3A39D",
"w c #A7A7A0",
"e c #AAAAA3",
"r c #B4B4AC",
"t c #B7B7B0",
"y c #BCBCB4",
"u c #BFBFB8",
"i c #C4C4BC",
"p c #C8C8BF",
"a c #C6C6C0",
"s c #C9C9C1",
"d c #CBCBC4",
"f c #CCCCC4",
"g c #CDCDC6",
"h c #CECEC8",
"j c #D1D1C8",
"k c #D4D4CB",
"l c #D4D4CD",
"z c #D8D8CF",
"x c #DADAD2",
"c c #DBDBD2",
"v c #DBDBD4",
"b c #DCDCD4",
"n c #E2E2DA",
"m c #E4E4DB",
"M c #E7E7DD",
"N c #E8E8DF",
"B c #E9E9E0",
"V c #ECECE2",
"C c #EFEFE5",
"Z c #F0F0E6",
"A c #F3F3E9",
"S c #F5F5EA",
"D c #F6F6EC",
"F c #FAFAEF",
"G c #FBFBF1",
"H c #FDFDF3",
"J c #11498E",
/* pixels */
"JJJJJJJJJJJJJJJJJJJJJJJJJJJJJJJJJJJJJJJJJJJJJJJJJJJJJJJJJJJJJJJJ",
"JJJJJJJJJJJJJJJJJJJJJJJJJJJJJJJJJJJJJJJJJJJJJJJJJJJJJJJJJJJJJJJJ",
"JJJJJJJJJJJJJJJJJJJJJJJJJJJJJJJJJJJJJJJJJJJJJJJJJJJJJJJJJJJJJJJJ",
"JJJJJJJJJJJJJJJJJJJJJJJJJJJJJJJJJJJJJJJJJJJJJJJJJJJJJJJJJJJJJJJJ",
"JJJJJJJJJJJJJJJJJJJJJJJJJJJJJJJJJJJJJJJJJJJJJJJJJJJJJJJJJJJJJJJJ",
"JJJJJJJJJJJJJJJJJJJJJJJJJJJJJJJJJJJJJJJJJJJJJJJJJJJJJJJJJJJJJJJJ",
"JJJJJJJJJJJJJJJJJJJJJJJJJJJJJJJJJJJJJJJJJJJJJJJJJJJJJJJJJJJJJJJJ",
"JJJJJJJJJJJJJJJJJJJJJJJJJJJJJJJJJJJJJJJJJJJJJJJJJJJJJJJJJJJJJJJJ",
"JJJJJJJJJJJJJJJJJJJJJJJJJJJJJJJJJJJJJJJJJJJJJJJJJJJJJJJJJJJJJJJJ",
"JJJJJJJJJJJJJJJJJJJJJJJJJJJJJJJJJJJJJJJJJJJJJJJJJJJJJJJJJJJJJJJJ",
"JJJJJJJJJJJJJJJJJJJJJJJJJJJJJJJJJJJJJJJJJJJJJJJJJJJJJJJJJJJJJJJJ",
"JJJJJJJJJJJJJJJJJJJJJJJJJJJJJJJJJJJJJJJJJJJJJJJJJJJJJJJJJJJJJJJJ",
"JJJJJJJJJJJJJJJJJJJJJJJJJJJJJJJJJJJJJJJJJJJJJJJJJJJJJJJJJJJJJJJJ",
"JJJJJJJJJJJJJJJJJJJJJJJJJJJJJJJJJJJJJJJJJJJJJJJJJJJJJJJJJJJJJJJJ",
"JJJJJJJJJJJJJJJJJJJJJJJJJJJJJJJJJJJJJJJJJJJJJJJJJJJJJJJJJJJJJJJJ",
"JJJJJJJJJJJJJJJJJJJJJJJJJJJJJJJJJJJJJJJJJJJJJJJJJJJJJJJJJJJJJJJJ",
"JJJJJJJJJJJJJJJJJJJJJJJJJJJJJJJJJJJJJJJJJJJJJJJJJJJJJJJJJJJJJJJJ",
"JJJJJJJJJJJJJJJJJJJJJJJJJJJJJJJJJJJJJJJJJJJJJJJJJJJJJJJJJJJJJJJJ",
"JJJJJJJJJJJJJJJJJJJJJJJJJJJJJJJJJJJJJJJJJJJJJJJJJJJJJJJJJJJJJJJJ",
"JJJJJJJJJJJJJJJJJJJJJJJJJJJJJJJJJJJJJJJJJJJJJJJJJJJJJJJJJJJJJJJJ",
"JJJJJJJJJJJJJJJJJJJJJJJJJJJJJJJJJJJJJJJJJJJJJJJJJJJJJJJJJJJJJJJJ",
"JJJJJJJJJJJJJJJJJJJJJJJJJJJJJJJJJJJJJJJJJJJJJJJJJJJJJJJJJJJJJJJJ",
"JJJJJJJJJJJJJJJJJJJJJJJJJJJiglxb3  ..XJJJJJJJJJJJJJJJJJJJJJJJJJJ",
"JJJJJJJJJJJJJJJJJJJJJJJJJgvNCADFx@    ..JJJJJJJJJJJJJJJJJJJJJJJJ",
"JJJJJJJJJJJJJJJJJJJJJJJgbCDFFFGFl5;$X    .JJJJJJJJJJJJJJJJJJJJJJ",
"JJJJJJJJJJJJJJJJJJJJJJlVDFFFFGAdgAFBs7%. X2JJJJJJJJJJJJJJJJJJJJJ",
"JJJJJJJJJJJJJJJJJJJJ>gAFFFFFGCsbFFFGHHNq&9BvJJJJJJJJJJJJJJJJJJJJ",
"JJJJJJJJJJJJJJJJJJJ0ilGHHGDFCiMGFFFFFFGHicGZbJJJJJJJJJJJJJJJJJJJ",
"JJJJJJJJJJJJJJJJJJJbSlngq4>,8MGFFFFFFFFGByDFZbJJJJJJJJJJJJJJJJJJ",
"JJJJJJJJJJJJJJJJJJlZGn:o    #MGFFFFFFFFFFinGFCvJJJJJJJJJJJJJJJJJ",
"JJJJJJJJJJJJJJJJJgBFG9      .rHFFFFFFFFFGzjHFFMJJJJJJJJJJJJJJJJJ",
"JJJJJJJJJJJJJJJJJbDGN%       1FFFFFFFFFFGmsGFFAnJJJJJJJJJJJJJJJJ",
"JJJJJJJJJJJJJJJJhBFHt.       #BGFFFFFFFFGbwDGFFNJJJJJJJJJJJJJJJJ",
"JJJJJJJJJJJJJJJJxSGG3        XsHGGFFFFFGx;o8DGGBJJJJJJJJJJJJJJJJ",
"JJJJJJJJJJJJJJJJmFGC&        .9jnCFGFFGi%  .8DGnaJJJJJJJJJJJJJJJ",
"JJJJJJJJJJJJJJJhBFGl+        3mngisxCAq+    XqFlyJJJJJJJJJJJJJJJ",
"JJJJJJJJJJJJJJJlCGny3X     .3ZGGGSBls6X      orr0JJJJJJJJJJJJJJJ",
"JJJJJJJJJJJJJJJiCniZDr#   X6SGFFFFGGG9        &riJJJJJJJJJJJJJJJ",
"JJJJJJJJJJJJJJJ1iiZGFHx,.o9DGFFFFFFFGko       =idJJJJJJJJJJJJJJJ",
"JJJJJJJJJJJJJJJ#>NGFFFGSqqFGFFFFFFFFGC&       <ssJJJJJJJJJJJJJJJ",
"JJJJJJJJJJJJJJJ#;DFFFFFGMgGFFFFFFFFFFG2      .9ssJJJJJJJJJJJJJJJ",
"JJJJJJJJJJJJJJJ#&BGFFFFFCiFFFFFFFFFFFHq      #yssJJJJJJJJJJJJJJJ",
"JJJJJJJJJJJJJJJJ@xGFFFFFAiAFFFFFFFFFFHi.     2ssdJJJJJJJJJJJJJJJ",
"JJJJJJJJJJJJJJJJ@rHFFFFFGsMGFFFFFFFFFGf*#ooo#rssgJJJJJJJJJJJJJJJ",
"JJJJJJJJJJJJJJJJ@4GFFFFFGzlGFFFFFFFFGniNjtrrqtssJJJJJJJJJJJJJJJJ",
"JJJJJJJJJJJJJJJJJ-BGFFFFGVsGFFFFFFFGmimzssssrrssJJJJJJJJJJJJJJJJ",
"JJJJJJJJJJJJJJJJJ:iFFFFFFDegDHGGFFGxrkgpppppirsJJJJJJJJJJJJJJJJJ",
"JJJJJJJJJJJJJJJJJJlxDGFFHr+O>exAGDgeisppppppieiJJJJJJJJJJJJJJJJJ",
"JJJJJJJJJJJJJJJJJJvgsBFGi@    +*28eippppppps8$JJJJJJJJJJJJJJJJJJ",
"JJJJJJJJJJJJJJJJJJJsuerq@        &ipppppppsq@JJJJJJJJJJJJJJJJJJJ",
"JJJJJJJJJJJJJJJJJJJJiiy5.        #yppppppse#JJJJJJJJJJJJJJJJJJJJ",
"JJJJJJJJJJJJJJJJJJJJJisi,        +rspppssq$JJJJJJJJJJJJJJJJJJJJJ",
"JJJJJJJJJJJJJJJJJJJJJJaau:       Xepiiit6%JJJJJJJJJJJJJJJJJJJJJJ",
"JJJJJJJJJJJJJJJJJJJJJJJJdi3O   .O*8qqqq8#JJJJJJJJJJJJJJJJJJJJJJJ",
"JJJJJJJJJJJJJJJJJJJJJJJJJJsq>369riiiiiiJJJJJJJJJJJJJJJJJJJJJJJJJ",
"JJJJJJJJJJJJJJJJJJJJJJJJJJJJJJjgsspJJJJJJJJJJJJJJJJJJJJJJJJJJJJJ",
"JJJJJJJJJJJJJJJJJJJJJJJJJJJJJJJJJJJJJJJJJJJJJJJJJJJJJJJJJJJJJJJJ",
"JJJJJJJJJJJJJJJJJJJJJJJJJJJJJJJJJJJJJJJJJJJJJJJJJJJJJJJJJJJJJJJJ",
"JJJJJJJJJJJJJJJJJJJJJJJJJJJJJJJJJJJJJJJJJJJJJJJJJJJJJJJJJJJJJJJJ",
"JJJJJJJJJJJJJJJJJJJJJJJJJJJJJJJJJJJJJJJJJJJJJJJJJJJJJJJJJJJJJJJJ",
"JJJJJJJJJJJJJJJJJJJJJJJJJJJJJJJJJJJJJJJJJJJJJJJJJJJJJJJJJJJJJJJJ",
"JJJJJJJJJJJJJJJJJJJJJJJJJJJJJJJJJJJJJJJJJJJJJJJJJJJJJJJJJJJJJJJJ",
"JJJJJJJJJJJJJJJJJJJJJJJJJJJJJJJJJJJJJJJJJJJJJJJJJJJJJJJJJJJJJJJJ",
"JJJJJJJJJJJJJJJJJJJJJJJJJJJJJJJJJJJJJJJJJJJJJJJJJJJJJJJJJJJJJJJJ"
};
