/* XPM */
static char *result[] = {
/* columns rows colors chars-per-pixel */
"64 64 72 1 ",
"  c #010101",
". c #080807",
"X c #0C0C0B",
"o c #141413",
"O c #181817",
"+ c #1C1C1B",
"@ c #20201F",
"# c #262625",
"$ c #282826",
"% c #2C2C2A",
"& c #30302E",
"* c #353533",
"= c #393937",
"- c #3C3C3A",
"; c #42423F",
": c #454543",
"> c #494946",
", c #4C4C49",
"< c #51514D",
"1 c #5A5A56",
"2 c #62625E",
"3 c #646461",
"4 c #6A6A65",
"5 c #6B6B69",
"6 c #73736E",
"7 c #757571",
"8 c #7A7A75",
"9 c #7E7E7A",
"0 c #82827D",
"q c #8A8A85",
"w c #95958F",
"e c #969690",
"r c #9D9D96",
"t c #9F9F99",
"y c #A2A29C",
"u c #A7A7A0",
"i c #ABABA4",
"p c #AEAEA9",
"a c #B3B3AB",
"s c #B7B7B1",
"d c #BBBBB4",
"f c #BEBEB8",
"g c #C0C0B7",
"h c #C4C4BC",
"j c #C8C8BF",
"k c #C7C7C0",
"l c #CACAC2",
"z c #D1D1CA",
"x c #D3D3CC",
"c c #D5D5CC",
"v c #D8D8CF",
"b c #D7D7D1",
"n c #DADAD3",
"m c #DCDCD4",
"M c #DEDED6",
"N c #E0E0D7",
"B c #E0E0D8",
"V c #E4E4DB",
"C c #E6E6DD",
"Z c #E8E8DF",
"A c #EAEAE0",
"S c #EDEDE3",
"D c #EFEFE5",
"F c #F1F1E7",
"G c #F3F3E9",
"H c #F4F4EA",
"J c #F6F6EC",
"K c #FAFAEF",
"L c #FAFAF0",
"P c #FCFCF2",
"I c #FEFEF4",
"U c #11498E",
/* pixels */
"UUUUUUUUUUUUUUUUUUUUUUUUUUUUUUUUUUUUUUUUUUUUUUUUUUUUUUUUUUUUUUUU",
"UUUUUUUUUUUUUUUUUUUUUUUUUUUUUUUUUUUUUUUUUUUUUUUUUUUUUUUUUUUUUUUU",
"UUUUUUUUUUUUUUUUUUUUUUUUUUUUUUUUUUUUUUUUUUUUUUUUUUUUUUUUUUUUUUUU",
"UUUUUUUUUUUUUUUUUUUUUUUUUUUUUUUUUUUUUUUUUUUUUUUUUUUUUUUUUUUUUUUU",
"UUUUUUUUUUUUUUUUUUUUUUUUUUUUUUUUUUUUUUUUUUUUUUUUUUUUUUUUUUUUUUUU",
"UUUUUUUUUUUUUUUUUUUUUUUUUUUUUUUUUUUUUUUUUUUUUUUUUUUUUUUUUUUUUUUU",
"UUUUUUUUUUUUUUUUUUUUUUUUUUUUUUUUUUUUUUUUUUUUUUUUUUUUUUUUUUUUUUUU",
"UUUUUUUUUUUUUUUUUUUUUUUUUUUUUUUUUUUUUUUUUUUUUUUUUUUUUUUUUUUUUUUU",
"UUUUUUUUUUUUUUUUUUUUUUUUUUUUUUUUUUUUUUUUUUUUUUUUUUUUUUUUUUUUUUUU",
"UUUUUUUUUUUUUUUUUUUUUUUUUUUUUUUUUUUUUUUUUUUUUUUUUUUUUUUUUUUUUUUU",
"UUUUUUUUUUUUUUUUUUUUUUUUUUUUUUUUUUUUUUUUUUUUUUUUUUUUUUUUUUUUUUUU",
"UUUUUUUUUUUUUUUUUUUUUUUUUUUUUUUUUUUUUUUUUUUUUUUUUUUUUUUUUUUUUUUU",
"UUUUUUUUUUUUUUUUUUUUUUUUUUUUUUUUUUUUUUUUUUUUUUUUUUUUUUUUUUUUUUUU",
"UUUUUUUUUUUUUUUUUUUUUUUUUUUUUUUUUUUUUUUUUUUUUUUUUUUUUUUUUUUUUUUU",
"UUUUUUUUUUUUUUUUUUUUUUUUUUUUUUUUUUUUUUUUUUUUUUUUUUUUUUUUUUUUUUUU",
"UUUUUUUUUUUUUUUUUUUUUUUUUUUUUUUUUUUUUUUUUUUUUUUUUUUUUUUUUUUUUUUU",
"UUUUUUUUUUUUUUUUUUUUUUUUUUUUUUUUUUUUUUUUUUUUUUUUUUUUUUUUUUUUUUUU",
"UUUUUUUUUUUUUUUUUUUUUUUUUUUUUUUUUUUUUUUUUUUUUUUUUUUUUUUUUUUUUUUU",
"UUUUUUUUUUUUUUUUUUUUUUUUUUUUUUUUUUUUUUUUUUUUUUUUUUUUUUUUUUUUUUUU",
"UUUUUUUUUUUUUUUUUUUUUUUUUUUUUUUUUUUUUUUUUUUUUUUUUUUUUUUUUUUUUUUU",
"UUUUUUUUUUUUUUUUUUUUUUUUUUUlxnlhBBBMczUUUUUUUUUUUUUUUUUUUUUUUUUU",
"UUUUUUUUUUUUUUUUUUUUUUUUgzBSGJHlAJPJGABnUUUUUUUUUUUUUUUUUUUUUUUU",
"UUUUUUUUUUUUUUUUUUUUUUUzBFKKLLh<=3yNLLJFCnUUUUUUUUUUUUUUUUUUUUUU",
"UUUUUUUUUUUUUUUUUUUUUhnDJKKLGe+   .&0nHZBnqUUUUUUUUUUUUUUUUUUUUU",
"UUUUUUUUUUUUUUUUUUUUlBGKLLLF8.       *annnt*UUUUUUUUUUUUUUUUUUUU",
"UUUUUUUUUUUUUUUUUUU5mKLJACB8.        XdPLLJi-UUUUUUUUUUUUUUUUUUU",
"UUUUUUUUUUUUUUUUUU%oeAldhgs*         olPKKKLt*UUUUUUUUUUUUUUUUUU",
"UUUUUUUUUUUUUUUUUUo -dnDKLPiX        +vLKKKLJw-UUUUUUUUUUUUUUUUU",
"UUUUUUUUUUUUUUUUU$ .wKLKKKKH6        %VLKKKKLD9UUUUUUUUUUUUUUUUU",
"UUUUUUUUUUUUUUUUUo :ALKKKKKLN-      .,SLKKKKKPl3UUUUUUUUUUUUUUUU",
"UUUUUUUUUUUUUUUU$..yPKKKKKKKPd+o*10yadzKKKKKKLZfUUUUUUUUUUUUUUUU",
"UUUUUUUUUUUUUUUUo %BLKKKKKKKLDylCJLPPKzzKKKKKLDhgUUUUUUUUUUUUUUU",
"UUUUUUUUUUUUUUUU. 4KKKKKKKKKLnnPLKKKKKJhcLKKKLDdhUUUUUUUUUUUUUUU",
"UUUUUUUUUUUUUUU+  tPKKKKKKKKJhDKKKKKKKKGgVLKKLAahUUUUUUUUUUUUUUU",
"UUUUUUUUUUUUUUU+o<dLKKKKKKKLZlKKKKKKKKKLZdHPPIMihUUUUUUUUUUUUUUU",
"UUUUUUUUUUUUUUU5aDgALKKKKKKLzMLKKKKKKKKKLcdgau0ylUUUUUUUUUUUUUUU",
"UUUUUUUUUUUUUUUxJLChJKKKKKKJhFKKKKKKKKKKLC-....0lUUUUUUUUUUUUUUU",
"UUUUUUUUUUUUUUUnHKLccLKLLPPZlKKKKKKKKKKKPho    2lUUUUUUUUUUUUUUU",
"UUUUUUUUUUUUUUUnGKKJlMLDzu8<wKKKKKKKKKKKLq     ,lUUUUUUUUUUUUUUU",
"UUUUUUUUUUUUUUUbFKKLHd9:+.  oiLKKKKKKKKLS:     :kUUUUUUUUUUUUUUU",
"UUUUUUUUUUUUUUUUSKKKPi       $lLKKKKKKKPdo     :kUUUUUUUUUUUUUUU",
"UUUUUUUUUUUUUUUUCKKKPr        :NLKKKKLPH3      ,uUUUUUUUUUUUUUUU",
"UUUUUUUUUUUUUUUUMHKKPr         3FLLJDCca@     +yUUUUUUUUUUUUUUUU",
"UUUUUUUUUUUUUUUUUDKKPi         .0ljhhllg7.   X0lUUUUUUUUUUUUUUUU",
"UUUUUUUUUUUUUUUUUVJKPlo        oiSASAvllh4. O0hUUUUUUUUUUUUUUUUU",
"UUUUUUUUUUUUUUUUUUDLLB-       .0JGCcljjjlg1-rllUUUUUUUUUUUUUUUUU",
"UUUUUUUUUUUUUUUUUUszzld,.     <cnllhjjjjjlyillUUUUUUUUUUUUUUUUUU",
"UUUUUUUUUUUUUUUUUUU7plclq;o  &alhjjjjjjjjgthlUUUUUUUUUUUUUUUUUUU",
"UUUUUUUUUUUUUUUUUUUUakhjlgy7>wljjjjjjjjjjialUUUUUUUUUUUUUUUUUUUU",
"UUUUUUUUUUUUUUUUUUUUUhkljjlldrgljjjjjjjhiijUUUUUUUUUUUUUUUUUUUUU",
"UUUUUUUUUUUUUUUUUUUUUUUkljjjlayhllllllgiahUUUUUUUUUUUUUUUUUUUUUU",
"UUUUUUUUUUUUUUUUUUUUUUUUllljjjaydgdiw6>6UUUUUUUUUUUUUUUUUUUUUUUU",
"UUUUUUUUUUUUUUUUUUUUUUUUUUlllja3*=$+ooUUUUUUUUUUUUUUUUUUUUUUUUUU",
"UUUUUUUUUUUUUUUUUUUUUUUUUUUUUU1%#+UUUUUUUUUUUUUUUUUUUUUUUUUUUUUU",
"UUUUUUUUUUUUUUUUUUUUUUUUUUUUUUUUUUUUUUUUUUUUUUUUUUUUUUUUUUUUUUUU",
"UUUUUUUUUUUUUUUUUUUUUUUUUUUUUUUUUUUUUUUUUUUUUUUUUUUUUUUUUUUUUUUU",
"UUUUUUUUUUUUUUUUUUUUUUUUUUUUUUUUUUUUUUUUUUUUUUUUUUUUUUUUUUUUUUUU",
"UUUUUUUUUUUUUUUUUUUUUUUUUUUUUUUUUUUUUUUUUUUUUUUUUUUUUUUUUUUUUUUU",
"UUUUUUUUUUUUUUUUUUUUUUUUUUUUUUUUUUUUUUUUUUUUUUUUUUUUUUUUUUUUUUUU",
"UUUUUUUUUUUUUUUUUUUUUUUUUUUUUUUUUUUUUUUUUUUUUUUUUUUUUUUUUUUUUUUU",
"UUUUUUUUUUUUUUUUUUUUUUUUUUUUUUUUUUUUUUUUUUUUUUUUUUUUUUUUUUUUUUUU",
"UUUUUUUUUUUUUUUUUUUUUUUUUUUUUUUUUUUUUUUUUUUUUUUUUUUUUUUUUUUUUUUU",
"UUUUUUUUUUUUUUUUUUUUUUUUUUUUUUUUUUUUUUUUUUUUUUUUUUUUUUUUUUUUUUUU",
"UUUUUUUUUUUUUUUUUUUUUUUUUUUUUUUUUUUUUUUUUUUUUUUUUUUUUUUUUUUUUUUU"
};
