/* XPM */
static char *result[] = {
/* columns rows colors chars-per-pixel */
"64 64 69 1 ",
"  c black",
". c #0C0C0B",
"X c #10100F",
"o c #141413",
"O c #181817",
"+ c #1B1B1A",
"@ c #252524",
"# c #2C2C2B",
"$ c #353533",
"% c #393937",
"& c #3C3C3A",
"* c #42423F",
"= c #464643",
"- c #4D4D4A",
"; c #545451",
": c #595956",
"> c #5D5D59",
", c #61615D",
"< c #646460",
"1 c #6A6A66",
"2 c #6E6E69",
"3 c #72726D",
"4 c #777772",
"5 c #7A7A76",
"6 c #7F7F7A",
"7 c #82827D",
"8 c #868681",
"9 c #898984",
"0 c #8E8E89",
"q c #93938C",
"w c #959590",
"e c #9B9B95",
"r c #9E9E98",
"t c #A3A39D",
"y c #A7A7A0",
"u c #ACACA4",
"i c #AFAFA9",
"p c #B4B4AD",
"a c #BCBCB4",
"s c #C5C5BD",
"d c #C8C8BF",
"f c #C7C7C1",
"g c #CACAC2",
"h c #CFCFC8",
"j c #D2D2CA",
"k c #D4D4CB",
"l c #D3D3CD",
"z c #D5D5CD",
"x c #D8D8CF",
"c c #D7D7D0",
"v c #D8D8D0",
"b c #DCDCD2",
"n c #DBDBD4",
"m c #DDDDD4",
"M c #E3E3DA",
"N c #E4E4DB",
"B c #E6E6DC",
"V c #E8E8DE",
"C c #EBEBE1",
"Z c #ECECE3",
"A c #EDEDE4",
"S c #F1F1E7",
"D c #F2F2E8",
"F c #F5F5EB",
"G c #F6F6EC",
"H c #F9F9EF",
"J c #FBFBF1",
"K c #FCFCF2",
"L c #11498E",
/* pixels */
"LLLLLLLLLLLLLLLLLLLLLLLLLLLLLLLLLLLLLLLLLLLLLLLLLLLLLLLLLLLLLLLL",
"LLLLLLLLLLLLLLLLLLLLLLLLLLLLLLLLLLLLLLLLLLLLLLLLLLLLLLLLLLLLLLLL",
"LLLLLLLLLLLLLLLLLLLLLLLLLLLLLLLLLLLLLLLLLLLLLLLLLLLLLLLLLLLLLLLL",
"LLLLLLLLLLLLLLLLLLLLLLLLLLLLLLLLLLLLLLLLLLLLLLLLLLLLLLLLLLLLLLLL",
"LLLLLLLLLLLLLLLLLLLLLLLLLLLLLLLLLLLLLLLLLLLLLLLLLLLLLLLLLLLLLLLL",
"LLLLLLLLLLLLLLLLLLLLLLLLLLLLLLLLLLLLLLLLLLLLLLLLLLLLLLLLLLLLLLLL",
"LLLLLLLLLLLLLLLLLLLLLLLLLLLLLLLLLLLLLLLLLLLLLLLLLLLLLLLLLLLLLLLL",
"LLLLLLLLLLLLLLLLLLLLLLLLLLLLLLLLLLLLLLLLLLLLLLLLLLLLLLLLLLLLLLLL",
"LLLLLLLLLLLLLLLLLLLLLLLLLLLLLLLLLLLLLLLLLLLLLLLLLLLLLLLLLLLLLLLL",
"LLLLLLLLLLLLLLLLLLLLLLLLLLLLLLLLLLLLLLLLLLLLLLLLLLLLLLLLLLLLLLLL",
"LLLLLLLLLLLLLLLLLLLLLLLLLLLLLLLLLLLLLLLLLLLLLLLLLLLLLLLLLLLLLLLL",
"LLLLLLLLLLLLLLLLLLLLLLLLLLLLLLLLLLLLLLLLLLLLLLLLLLLLLLLLLLLLLLLL",
"LLLLLLLLLLLLLLLLLLLLLLLLLLLLLLLLLLLLLLLLLLLLLLLLLLLLLLLLLLLLLLLL",
"LLLLLLLLLLLLLLLLLLLLLLLLLLLLLLLLLLLLLLLLLLLLLLLLLLLLLLLLLLLLLLLL",
"LLLLLLLLLLLLLLLLLLLLLLLLLLLLgjswtszjjLLLLLLLLLLLLLLLLLLLLLLLLLLL",
"LLLLLLLLLLLLLLLLLLLLLLLLLgvMg7*OO%6jAMvlLLLLLLLLLLLLLLLLLLLLLLLL",
"LLLLLLLLLLLLLLLLLLLLLLLgvMm8@      #tSFCmLLLLLLLLLLLLLLLLLLLLLLL",
"LLLLLLLLLLLLLLLLLLLLLLgggg9.        .8hgjccLLLLLLLLLLLLLLLLLLLLL",
"LLLLLLLLLLLLLLLLLLLLLpsvAHg+        .uSAMjfgLLLLLLLLLLLLLLLLLLLL",
"LLLLLLLLLLLLLLLLLLLL0vDJJJG,        >DJJJHBp-LLLLLLLLLLLLLLLLLLL",
"LLLLLLLLLLLLLLLLLLL1mJHHHHKp.      OsKHHHHJA4#LLLLLLLLLLLLLLLLLL",
"LLLLLLLLLLLLLLLLLL;pKHHHHHJM125973>4DHHHHHHJv%LLLLLLLLLLLLLLLLLL",
"LLLLLLLLLLLLLLLLL,2DHHHHHHDsBJJJJHHkzJHHHHHHKw+LLLLLLLLLLLLLLLLL",
"LLLLLLLLLLLLLLLLL-aKHHHHHJgvJHHHHHHFsCJHHHHHJB&OLLLLLLLLLLLLLLLL",
"LLLLLLLLLLLLLLLL;<SJHHHHJBsGHHHHHHHJMsHHHHHHHKwoLLLLLLLLLLLLLLLL",
"LLLLLLLLLLLLLLLL5iKHHHHHGsBJHHHHHHHHHsmJHHHHHJj@OLLLLLLLLLLLLLLL",
"LLLLLLLLLLLLLLLLczFHHHHJMgJHHHHHHHHHJBsHHHHHHJjr&LLLLLLLLLLLLLLL",
"LLLLLLLLLLLLLLLgCvBJKKGVaCJHHHHHHHHHHHgMJKJHJSsztLLLLLLLLLLLLLLL",
"LLLLLLLLLLLLLLLzAAgBsq>#>DHHHHHHHHHHHKt*5aVJKjjgsLLLLLLLLLLLLLLL",
"LLLLLLLLLLLLLLLcSKs&o   oaKHHHHHHHHHJm$  .%6agbdgLLLLLLLLLLLLLLL",
"LLLLLLLLLLLLLLLvDKu      >DJHHHHHHHHG4      #ggdgLLLLLLLLLLLLLLL",
"LLLLLLLLLLLLLLLnFK0      opKHHHHHHHKaO      +pgggLLLLLLLLLLLLLLL",
"LLLLLLLLLLLLLLLvDJ5       =CJHJJJHJZ-       XtgggLLLLLLLLLLLLLLL",
"LLLLLLLLLLLLLLLcAJ3        9SAZZZADr        otgggLLLLLLLLLLLLLLL",
"LLLLLLLLLLLLLLLLAJ6        =gspppsg<        +ugggLLLLLLLLLLLLLLL",
"LLLLLLLLLLLLLLLLVKr       OpJHHHHHJg+       #adggLLLLLLLLLLLLLLL",
"LLLLLLLLLLLLLLLLMBa-      7HHHHHHHHH8       -ssgLLLLLLLLLLLLLLLL",
"LLLLLLLLLLLLLLLLLsAV7+   -VJHHHHHHHJB=     $9pdsLLLLLLLLLLLLLLLL",
"LLLLLLLLLLLLLLLLLnHJHs:o@gJHHHHHHHJHGp+  @2pdut7LLLLLLLLLLLLLLLL",
"LLLLLLLLLLLLLLLLLLSJJKDarGHHHHHJJHSMjd4>9pggds7LLLLLLLLLLLLLLLLL",
"LLLLLLLLLLLLLLLLLLMSGHJKsVJHHHFABxgddatdggdddsLLLLLLLLLLLLLLLLLL",
"LLLLLLLLLLLLLLLLLLLgkvmNgpNMmxjgdssdstadddddgLLLLLLLLLLLLLLLLLLL",
"LLLLLLLLLLLLLLLLLLLLssdddeugsssddddguuddddddgLLLLLLLLLLLLLLLLLLL",
"LLLLLLLLLLLLLLLLLLLLLsgggsqpgggggggprsdddddgLLLLLLLLLLLLLLLLLLLL",
"LLLLLLLLLLLLLLLLLLLLLLsggga3qupaapyqagdddgLLLLLLLLLLLLLLLLLLLLLL",
"LLLLLLLLLLLLLLLLLLLLLLLLgg0o O@##@O:sgddgLLLLLLLLLLLLLLLLLLLLLLL",
"LLLLLLLLLLLLLLLLLLLLLLLLLL%         ;pgLLLLLLLLLLLLLLLLLLLLLLLLL",
"LLLLLLLLLLLLLLLLLLLLLLLLLLLL..     .LLLLLLLLLLLLLLLLLLLLLLLLLLLL",
"LLLLLLLLLLLLLLLLLLLLLLLLLLLLLLLLLLLLLLLLLLLLLLLLLLLLLLLLLLLLLLLL",
"LLLLLLLLLLLLLLLLLLLLLLLLLLLLLLLLLLLLLLLLLLLLLLLLLLLLLLLLLLLLLLLL",
"LLLLLLLLLLLLLLLLLLLLLLLLLLLLLLLLLLLLLLLLLLLLLLLLLLLLLLLLLLLLLLLL",
"LLLLLLLLLLLLLLLLLLLLLLLLLLLLLLLLLLLLLLLLLLLLLLLLLLLLLLLLLLLLLLLL",
"LLLLLLLLLLLLLLLLLLLLLLLLLLLLLLLLLLLLLLLLLLLLLLLLLLLLLLLLLLLLLLLL",
"LLLLLLLLLLLLLLLLLLLLLLLLLLLLLLLLLLLLLLLLLLLLLLLLLLLLLLLLLLLLLLLL",
"LLLLLLLLLLLLLLLLLLLLLLLLLLLLLLLLLLLLLLLLLLLLLLLLLLLLLLLLLLLLLLLL",
"LLLLLLLLLLLLLLLLLLLLLLLLLLLLLLLLLLLLLLLLLLLLLLLLLLLLLLLLLLLLLLLL",
"LLLLLLLLLLLLLLLLLLLLLLLLLLLLLLLLLLLLLLLLLLLLLLLLLLLLLLLLLLLLLLLL",
"LLLLLLLLLLLLLLLLLLLLLLLLLLLLLLLLLLLLLLLLLLLLLLLLLLLLLLLLLLLLLLLL",
"LLLLLLLLLLLLLLLLLLLLLLLLLLLLLLLLLLLLLLLLLLLLLLLLLLLLLLLLLLLLLLLL",
"LLLLLLLLLLLLLLLLLLLLLLLLLLLLLLLLLLLLLLLLLLLLLLLLLLLLLLLLLLLLLLLL",
"LLLLLLLLLLLLLLLLLLLLLLLLLLLLLLLLLLLLLLLLLLLLLLLLLLLLLLLLLLLLLLLL",
"LLLLLLLLLLLLLLLLLLLLLLLLLLLLLLLLLLLLLLLLLLLLLLLLLLLLLLLLLLLLLLLL",
"LLLLLLLLLLLLLLLLLLLLLLLLLLLLLLLLLLLLLLLLLLLLLLLLLLLLLLLLLLLLLLLL",
"LLLLLLLLLLLLLLLLLLLLLLLLLLLLLLLLLLLLLLLLLLLLLLLLLLLLLLLLLLLLLLLL"
};
