/* XPM */
static char *result[] = {
/* columns rows colors chars-per-pixel */
"64 64 73 1 ",
"  c black",
". c #080807",
"X c #0B0B0B",
"o c #141413",
"O c #181817",
"+ c #1B1B1A",
"@ c #252523",
"# c #282827",
"$ c #2B2B2A",
"% c #31312F",
"& c #343432",
"* c #3C3C3A",
"= c #40403E",
"- c #464643",
"; c #494946",
": c #4F4F4C",
"> c #53534F",
", c #555552",
"< c #595956",
"1 c #5D5D59",
"2 c #63635E",
"3 c #656561",
"4 c #6B6B66",
"5 c #6D6D68",
"6 c #72726D",
"7 c #757571",
"8 c #797974",
"9 c #7F7F7A",
"0 c #82827D",
"q c #878782",
"w c #8B8B85",
"e c #8E8E88",
"r c #91918B",
"t c #979790",
"y c #999994",
"u c #9E9E98",
"i c #A4A49D",
"p c #A7A7A0",
"a c #ACACA5",
"s c #AFAFA8",
"d c #B5B5AD",
"f c #B6B6B0",
"g c #BBBBB4",
"h c #BFBFB9",
"j c #C5C5BD",
"k c #C8C8BF",
"l c #CBCBC2",
"z c #CFCFC9",
"x c #D0D0C7",
"c c #D3D3CA",
"v c #D4D4CC",
"b c #D7D7CF",
"n c #D7D7D1",
"m c #DADAD3",
"M c #DCDCD3",
"N c #DCDCD4",
"B c #DFDFD7",
"V c #E0E0D7",
"C c #E1E1D9",
"Z c #E4E4DB",
"A c #E7E7DD",
"S c #E8E8DF",
"D c #EBEBE1",
"F c #ECECE3",
"G c #EDEDE4",
"H c #F1F1E7",
"J c #F2F2E8",
"K c #F4F4E9",
"L c #F7F7ED",
"P c #FAFAEF",
"I c #FBFBF1",
"U c #FCFCF2",
"Y c #11498E",
/* pixels */
"YYYYYYYYYYYYYYYYYYYYYYYYYYYYYYYYYYYYYYYYYYYYYYYYYYYYYYYYYYYYYYYY",
"YYYYYYYYYYYYYYYYYYYYYYYYYYYYYYYYYYYYYYYYYYYYYYYYYYYYYYYYYYYYYYYY",
"YYYYYYYYYYYYYYYYYYYYYYYYYYYYYYYYYYYYYYYYYYYYYYYYYYYYYYYYYYYYYYYY",
"YYYYYYYYYYYYYYYYYYYYYYYYYYYYYYYYYYYYYYYYYYYYYYYYYYYYYYYYYYYYYYYY",
"YYYYYYYYYYYYYYYYYYYYYYYYYYYYYYYYYYYYYYYYYYYYYYYYYYYYYYYYYYYYYYYY",
"YYYYYYYYYYYYYYYYYYYYYYYYYYYYYYYYYYYYYYYYYYYYYYYYYYYYYYYYYYYYYYYY",
"YYYYYYYYYYYYYYYYYYYYYYYYYYYYYYYYYYYYYYYYYYYYYYYYYYYYYYYYYYYYYYYY",
"YYYYYYYYYYYYYYYYYYYYYYYYYYYYYYYYYYYYYYYYYYYYYYYYYYYYYYYYYYYYYYYY",
"YYYYYYYYYYYYYYYYYYYYYYYYYYYYYYYYYYYYYYYYYYYYYYYYYYYYYYYYYYYYYYYY",
"YYYYYYYYYYYYYYYYYYYYYYYYYYYYYYYYYYYYYYYYYYYYYYYYYYYYYYYYYYYYYYYY",
"YYYYYYYYYYYYYYYYYYYYYYYYYYYYYYYYYYYYYYYYYYYYYYYYYYYYYYYYYYYYYYYY",
"YYYYYYYYYYYYYYYYYYYYYYYYYYYYYYYYYYYYYYYYYYYYYYYYYYYYYYYYYYYYYYYY",
"YYYYYYYYYYYYYYYYYYYYYYYYYYYYYYYYYYYYYYYYYYYYYYYYYYYYYYYYYYYYYYYY",
"YYYYYYYYYYYYYYYYYYYYYYYYYYYYYYYYYYYYYYYYYYYYYYYYYYYYYYYYYYYYYYYY",
"YYYYYYYYYYYYYYYYYYYYYYYYYYYYYYYYYYYYYYYYYYYYYYYYYYYYYYYYYYYYYYYY",
"YYYYYYYYYYYYYYYYYYYYYYYYYYYYYYYYYYYYYYYYYYYYYYYYYYYYYYYYYYYYYYYY",
"YYYYYYYYYYYYYYYYYYYYYYYYYYYYYYYYYYYYYYYYYYYYYYYYYYYYYYYYYYYYYYYY",
"YYYYYYYYYYYYYYYYYYYYYYYYYYYYYYYYYYYYYYYYYYYYYYYYYYYYYYYYYYYYYYYY",
"YYYYYYYYYYYYYYYYYYYYYYYYYYYYYYYYYYYYYYYYYYYYYYYYYYYYYYYYYYYYYYYY",
"YYYYYYYYYYYYYYYYYYYYYYYYYYYYYYYYYYYYYYYYYYYYYYYYYYYYYYYYYYYYYYYY",
"YYYYYYYYYYYYYYYYYYYYYYYYYYYYYYYYYYYYYYYYYYYYYYYYYYYYYYYYYYYYYYYY",
"YYYYYYYYYYYYYYYYYYYYYYYYYYYYYYYYYYYYYYYYYYYYYYYYYYYYYYYYYYYYYYYY",
"YYYYYYYYYYYYYYYYYYYYYYYYYYYYYYYYYYYYYYYYYYYYYYYYYYYYYYYYYYYYYYYY",
"YYYYYYYYYYYYYYYYYYYYYYYYYYYYYYYYYYYYYYYYYYYYYYYYYYYYYYYYYYYYYYYY",
"YYYYYYYYYYYYYYYYYYYYYYYYYYYYYYYYYYYYYYYYYYYYYYYYYYYYYYYYYYYYYYYY",
"YYYYYYYYYYYYYYYYYYYYYYYYYYYYYYYYYYYYYYYYYYYYYYYYYYYYYYYYYYYYYYYY",
"YYYYYYYYYYYYYYYYYYYYYYYYYYYYjlzcbcczjYYYYYYYYYYYYYYYYYYYYYYYYYYY",
"YYYYYYYYYYYYYYYYYYYYYYYYY&aCADHKKKGDABgYYYYYYYYYYYYYYYYYYYYYYYYY",
"YYYYYYYYYYYYYYYYYYYYYYY@oXiIPIIPPPPIIPlBmYYYYYYYYYYYYYYYYYYYYYYY",
"YYYYYYYYYYYYYYYYYYYYY&o  O0jlbAPUUKCcgiFJCbYYYYYYYYYYYYYYYYYYYYY",
"YYYYYYYYYYYYYYYYYYYY%o .,jFFCcjjlr,%oXo6APFBYYYYYYYYYYYYYYYYYYYY",
"YYYYYYYYYYYYYYYYYYY$X owGUIIIIPZ>       <AIHBYYYYYYYYYYYYYYYYYYY",
"YYYYYYYYYYYYYYYYYY=o oiPIPPPPPPI3        4HPHBYYYYYYYYYYYYYYYYYY",
"YYYYYYYYYYYYYYYYYY$++uPPPPPPPPPUq        .rLIGNYYYYYYYYYYYYYYYYY",
"YYYYYYYYYYYYYYYYYhlciDIPPPPPPPPUp.        %jMFDYYYYYYYYYYYYYYYYY",
"YYYYYYYYYYYYYYYYYCIUjFIPPPPPPPPUjX        9GAmzqYYYYYYYYYYYYYYYY",
"YYYYYYYYYYYYYYYYcGPIlFPPPPPPPPPUx%X      =ZIIIm-YYYYYYYYYYYYYYYY",
"YYYYYYYYYYYYYYYYBKPImBIPPPPPPPPBlvd0;+  +gUPPPP6+YYYYYYYYYYYYYYY",
"YYYYYYYYYYYYYYYYAPPICvIPPPPPPPblJUUIGze*wPPPPPIp@YYYYYYYYYYYYYYY",
"YYYYYYYYYYYYYYYvFPPPJlJUUIIPLzzLPPPPIIUmzIPPPPKg&YYYYYYYYYYYYYYY",
"YYYYYYYYYYYYYYYnGPPID2<0acGKlvPPPPPPPPPJjJPPPPZj:YYYYYYYYYYYYYYY",
"YYYYYYYYYYYYYYYnJPPPe.  .+-0zPPPPPPPPPPIjAIPIJxj7YYYYYYYYYYYYYYY",
"YYYYYYYYYYYYYYYmJPIm$      +vIPPPPPPPPPImcIPPMkl9YYYYYYYYYYYYYYY",
"YYYYYYYYYYYYYYYmJPUy       .pUPPPPPPPPPIZlIPAlkgyYYYYYYYYYYYYYYY",
"YYYYYYYYYYYYYYYgDLJ,        8IPPPPPPPPPIFlPFzklafYYYYYYYYYYYYYYY",
"YYYYYYYYYYYYYYYYgbc*        :HIPPPPPPPPIJamcllgilYYYYYYYYYYYYYYY",
"YYYYYYYYYYYYYYYYlJLy.       #VIPPPPPPPPIa@&7ajigzYYYYYYYYYYYYYYY",
"YYYYYYYYYYYYYYYYbLIG3       XgIIPPPPPIPa+   +2plYYYYYYYYYYYYYYYY",
"YYYYYYYYYYYYYYYYYGPIC,     o1dlVHIIIUJro     ;jzYYYYYYYYYYYYYYYY",
"YYYYYYYYYYYYYYYYYCLPIC,  @6jJPAcjlmCz4X      9zYYYYYYYYYYYYYYYYY",
"YYYYYYYYYYYYYYYYYYDPIUC6rmPUIIIIJCjs:       @dcYYYYYYYYYYYYYYYYY",
"YYYYYYYYYYYYYYYYYYcBSGKjDPLKHFABvzll4       6lYYYYYYYYYYYYYYYYYY",
"YYYYYYYYYYYYYYYYYYYjllzddvxzzlkkjkkltX     %iYYYYYYYYYYYYYYYYYYY",
"YYYYYYYYYYYYYYYYYYYYjjlgikjkkkkkkkklg@  X$6iYYYYYYYYYYYYYYYYYYYY",
"YYYYYYYYYYYYYYYYYYYYYYjdrdllkkkkkkkld528yglYYYYYYYYYYYYYYYYYYYYY",
"YYYYYYYYYYYYYYYYYYYYYYY-@=wdkllllkjaiglllYYYYYYYYYYYYYYYYYYYYYYY",
"YYYYYYYYYYYYYYYYYYYYYYYYYoo$,0iddaidjlkYYYYYYYYYYYYYYYYYYYYYYYYY",
"YYYYYYYYYYYYYYYYYYYYYYYYYYYYX+@<agjlYYYYYYYYYYYYYYYYYYYYYYYYYYYY",
"YYYYYYYYYYYYYYYYYYYYYYYYYYYYYYYYYYYYYYYYYYYYYYYYYYYYYYYYYYYYYYYY",
"YYYYYYYYYYYYYYYYYYYYYYYYYYYYYYYYYYYYYYYYYYYYYYYYYYYYYYYYYYYYYYYY",
"YYYYYYYYYYYYYYYYYYYYYYYYYYYYYYYYYYYYYYYYYYYYYYYYYYYYYYYYYYYYYYYY",
"YYYYYYYYYYYYYYYYYYYYYYYYYYYYYYYYYYYYYYYYYYYYYYYYYYYYYYYYYYYYYYYY",
"YYYYYYYYYYYYYYYYYYYYYYYYYYYYYYYYYYYYYYYYYYYYYYYYYYYYYYYYYYYYYYYY",
"YYYYYYYYYYYYYYYYYYYYYYYYYYYYYYYYYYYYYYYYYYYYYYYYYYYYYYYYYYYYYYYY"
};
