/* XPM */
static char *result[] = {
/* columns rows colors chars-per-pixel */
"64 64 71 1 ",
"  c black",
". c #080807",
"X c #0C0C0C",
"o c #10100F",
"O c #131313",
"+ c #181817",
"@ c #1D1D1B",
"# c #20201F",
"$ c #242423",
"% c #2A2A29",
"& c #30302E",
"* c #343432",
"= c #383836",
"- c #3C3C39",
"; c #40403E",
": c #444442",
"> c #4A4A46",
", c #4C4C49",
"< c #565653",
"1 c #595956",
"2 c #5E5E5A",
"3 c #61615D",
"4 c #6A6A66",
"5 c #6E6E6A",
"6 c #72726E",
"7 c #757570",
"8 c #797974",
"9 c #7E7E79",
"0 c #83837E",
"q c #868681",
"w c #8B8B86",
"e c #8D8D89",
"r c #92928C",
"t c #969691",
"y c #9B9B95",
"u c #A4A49D",
"i c #ABABA4",
"p c #AFAFAA",
"a c #B3B3AC",
"s c #B8B8AF",
"d c #B7B7B0",
"f c #BCBCB4",
"g c #BFBFB8",
"h c #C5C5BD",
"j c #C8C8BF",
"k c #C7C7C1",
"l c #CACAC2",
"z c #D1D1C7",
"x c #D0D0C9",
"c c #D3D3CB",
"v c #D4D4CD",
"b c #D8D8CF",
"n c #D7D7D0",
"m c #DBDBD3",
"M c #DEDED5",
"N c #E0E0D7",
"B c #E2E2DA",
"V c #E4E4DB",
"C c #E7E7DE",
"Z c #E8E8DF",
"A c #EBEBE2",
"S c #ECECE3",
"D c #EDEDE4",
"F c #F0F0E6",
"G c #F1F1E8",
"H c #F4F4EA",
"J c #F6F6EC",
"K c #F9F9EF",
"L c #FBFBF1",
"P c #FDFDF2",
"I c #11498E",
/* pixels */
"IIIIIIIIIIIIIIIIIIIIIIIIIIIIIIIIIIIIIIIIIIIIIIIIIIIIIIIIIIIIIIII",
"IIIIIIIIIIIIIIIIIIIIIIIIIIIIIIIIIIIIIIIIIIIIIIIIIIIIIIIIIIIIIIII",
"IIIIIIIIIIIIIIIIIIIIIIIIIIIIIIIIIIIIIIIIIIIIIIIIIIIIIIIIIIIIIIII",
"IIIIIIIIIIIIIIIIIIIIIIIIIIIIIIIIIIIIIIIIIIIIIIIIIIIIIIIIIIIIIIII",
"IIIIIIIIIIIIIIIIIIIIIIIIIIIIIIIIIIIIIIIIIIIIIIIIIIIIIIIIIIIIIIII",
"IIIIIIIIIIIIIIIIIIIIIIIIIIIIIIIIIIIIIIIIIIIIIIIIIIIIIIIIIIIIIIII",
"IIIIIIIIIIIIIIIIIIIIIIIIIIIIIIIIIIIIIIIIIIIIIIIIIIIIIIIIIIIIIIII",
"IIIIIIIIIIIIIIIIIIIIIIIIIIIIIIIIIIIIIIIIIIIIIIIIIIIIIIIIIIIIIIII",
"IIIIIIIIIIIIIIIIIIIIIIIIIIIIIIIIIIIIIIIIIIIIIIIIIIIIIIIIIIIIIIII",
"IIIIIIIIIIIIIIIIIIIIIIIIIIIIIIIIIIIIIIIIIIIIIIIIIIIIIIIIIIIIIIII",
"IIIIIIIIIIIIIIIIIIIIIIIIIIIIIIIIIIIIIIIIIIIIIIIIIIIIIIIIIIIIIIII",
"IIIIIIIIIIIIIIIIIIIIIIIIIIIIIIIIIIIIIIIIIIIIIIIIIIIIIIIIIIIIIIII",
"IIIIIIIIIIIIIIIIIIIIIIIIIIIIIIIIIIIIIIIIIIIIIIIIIIIIIIIIIIIIIIII",
"IIIIIIIIIIIIIIIIIIIIIIIIIIIIIIIIIIIIIIIIIIIIIIIIIIIIIIIIIIIIIIII",
"IIIIIIIIIIIIIIIIIIIIIIIIIIIIlxv8-::::IIIIIIIIIIIIIIIIIIIIIIIIIII",
"IIIIIIIIIIIIIIIIIIIIIIIIIlvBDFmmVmlfie6eIIIIIIIIIIIIIIIIIIIIIIII",
"IIIIIIIIIIIIIIIIIIIIIIIkmAHKKvBLLLLPPKVfkIIIIIIIIIIIIIIIIIIIIIII",
"IIIIIIIIIIIIIIIIIIIIIIxCJPKClvLKKKKKKKLSjvnIIIIIIIIIIIIIIIIIIIII",
"IIIIIIIIIIIIIIIIIIIIImFKBi4=$uLKKKKKKKKLDjBMIIIIIIIIIIIIIIIIIIII",
"IIIIIIIIIIIIIIIIIIIIfxBr*.   $lPKKKKKKKKLBlFMIIIIIIIIIIIIIIIIIII",
"IIIIIIIIIIIIIIIIIIInAM2.      ,CLKKKKKKKLHrfFMIIIIIIIIIIIIIIIIII",
"IIIIIIIIIIIIIIIIIIcDLm$        0GJLLLLKLHr+@tAIIIIIIIIIIIIIIIIII",
"IIIIIIIIIIIIIIIIIlCKPs.        *dlllmZHHwX  XrBIIIIIIIIIIIIIIIII",
"IIIIIIIIIIIIIIIIImHKPe        @aGDCBvjlrX    otlIIIIIIIIIIIIIIII",
"IIIIIIIIIIIIIIIIlAKKL5       OiLLLLLLLHi.     #uIIIIIIIIIIIIIIII",
"IIIIIIIIIIIIIIIImGKKL1      .wKKKKKKKKLA:     .yIIIIIIIIIIIIIIII",
"IIIIIIIIIIIIIIIIBJKLZ6$X    3DLKKKKKKKKPy.     wlIIIIIIIIIIIIIII",
"IIIIIIIIIIIIIIIlZKLBgCMsw<%=bLKKKKKKKKKLM%     0lIIIIIIIIIIIIIII",
"IIIIIIIIIIIIIIIvDLFdCLLPLJMdGKKKKKKKKKKKK4    .elIIIIIIIIIIIIIII",
"IIIIIIIIIIIIIIImGLjvLKKKKKPmmLKKKKKKKKKKPu    +ilIIIIIIIIIIIIIII",
"IIIIIIIIIIIIIIIaBAfJKKKKKKLSjKKKKKKKKKKKLh73>&:flIIIIIIIIIIIIIII",
"IIIIIIIIIIIIIII:=6nLKKKKKKKKlZLKKKKKKKKLBlKKGlyslIIIIIIIIIIIIIII",
"IIIIIIIIIIIIIII$ @MLKKKKKKKLMlLKKKKKKKLDhDLKVlsilIIIIIIIIIIIIIII",
"IIIIIIIIIIIIIII+ ofPKKKKKKKKHjGLLKKKKKJjNLKAljfikIIIIIIIIIIIIIII",
"IIIIIIIIIIIIIII%. wPKKKKKKKKLvfBAKPPPJjvLKSljjhijIIIIIIIIIIIIIII",
"IIIIIIIIIIIIIIIIX >FLKKKKKKKLu@$;3qilhlKKAljjjfilIIIIIIIIIIIIIII",
"IIIIIIIIIIIIIIII+ OfPKKKKKKPj$     .+rLJCljjjldaIIIIIIIIIIIIIIII",
"IIIIIIIIIIIIIIII$. 2GLKKKKLC>        8Hmljjjjly1IIIIIIIIIIIIIIII",
"IIIIIIIIIIIIIIIIIO +iNFJLLL0         2zjjjjjlf:OIIIIIIIIIIIIIIII",
"IIIIIIIIIIIIIIIII+ :bxjlvma+         >jjjjjjj4XIIIIIIIIIIIIIIIII",
"IIIIIIIIIIIIIIIIIIOqKLKDVCuX         >jjjjjlqOIIIIIIIIIIIIIIIIII",
"IIIIIIIIIIIIIIIIIIIuvmMBCCM3         -fjlllr@XIIIIIIIIIIIIIIIIII",
"IIIIIIIIIIIIIIIIIIIIhjjjjjld,       $6yuii9@.IIIIIIIIIIIIIIIIIII",
"IIIIIIIIIIIIIIIIIIIIIjljjjjlf3X .+-8ajjfsi*.IIIIIIIIIIIIIIIIIIII",
"IIIIIIIIIIIIIIIIIIIIIIjkljjjlj030uhlljjjluIIIIIIIIIIIIIIIIIIIIII",
"IIIIIIIIIIIIIIIIIIIIIIIIlljjjjihlljjjjjjjIIIIIIIIIIIIIIIIIIIIIII",
"IIIIIIIIIIIIIIIIIIIIIIIIIIllldijjjjjjjlIIIIIIIIIIIIIIIIIIIIIIIII",
"IIIIIIIIIIIIIIIIIIIIIIIIIIIIp60hjjljIIIIIIIIIIIIIIIIIIIIIIIIIIII",
"IIIIIIIIIIIIIIIIIIIIIIIIIIIIIIIIIIIIIIIIIIIIIIIIIIIIIIIIIIIIIIII",
"IIIIIIIIIIIIIIIIIIIIIIIIIIIIIIIIIIIIIIIIIIIIIIIIIIIIIIIIIIIIIIII",
"IIIIIIIIIIIIIIIIIIIIIIIIIIIIIIIIIIIIIIIIIIIIIIIIIIIIIIIIIIIIIIII",
"IIIIIIIIIIIIIIIIIIIIIIIIIIIIIIIIIIIIIIIIIIIIIIIIIIIIIIIIIIIIIIII",
"IIIIIIIIIIIIIIIIIIIIIIIIIIIIIIIIIIIIIIIIIIIIIIIIIIIIIIIIIIIIIIII",
"IIIIIIIIIIIIIIIIIIIIIIIIIIIIIIIIIIIIIIIIIIIIIIIIIIIIIIIIIIIIIIII",
"IIIIIIIIIIIIIIIIIIIIIIIIIIIIIIIIIIIIIIIIIIIIIIIIIIIIIIIIIIIIIIII",
"IIIIIIIIIIIIIIIIIIIIIIIIIIIIIIIIIIIIIIIIIIIIIIIIIIIIIIIIIIIIIIII",
"IIIIIIIIIIIIIIIIIIIIIIIIIIIIIIIIIIIIIIIIIIIIIIIIIIIIIIIIIIIIIIII",
"IIIIIIIIIIIIIIIIIIIIIIIIIIIIIIIIIIIIIIIIIIIIIIIIIIIIIIIIIIIIIIII",
"IIIIIIIIIIIIIIIIIIIIIIIIIIIIIIIIIIIIIIIIIIIIIIIIIIIIIIIIIIIIIIII",
"IIIIIIIIIIIIIIIIIIIIIIIIIIIIIIIIIIIIIIIIIIIIIIIIIIIIIIIIIIIIIIII",
"IIIIIIIIIIIIIIIIIIIIIIIIIIIIIIIIIIIIIIIIIIIIIIIIIIIIIIIIIIIIIIII",
"IIIIIIIIIIIIIIIIIIIIIIIIIIIIIIIIIIIIIIIIIIIIIIIIIIIIIIIIIIIIIIII",
"IIIIIIIIIIIIIIIIIIIIIIIIIIIIIIIIIIIIIIIIIIIIIIIIIIIIIIIIIIIIIIII",
"IIIIIIIIIIIIIIIIIIIIIIIIIIIIIIIIIIIIIIIIIIIIIIIIIIIIIIIIIIIIIIII"
};
