/* XPM */
static char *result[] = {
/* columns rows colors chars-per-pixel */
"64 64 74 1 ",
"  c black",
". c #080807",
"X c #0B0B0B",
"o c #141413",
"O c #181817",
"+ c #1B1B1A",
"@ c #20201F",
"# c #232322",
"$ c #282826",
"% c #2D2D2C",
"& c #30302E",
"* c #333331",
"= c #393937",
"- c #3F3F3D",
"; c #444441",
": c #494946",
"> c #4E4E4B",
", c #51514E",
"< c #545451",
"1 c #585855",
"2 c #5F5F5C",
"3 c #61615D",
"4 c #656561",
"5 c #6B6B67",
"6 c #6E6E6A",
"7 c #72726E",
"8 c #767672",
"9 c #797975",
"0 c #7D7D79",
"q c #84847F",
"w c #8A8A84",
"e c #8D8D89",
"r c #91918C",
"t c #969690",
"y c #9B9B95",
"u c #9F9F98",
"i c #A4A49D",
"p c #A7A7A0",
"a c #ABABA4",
"s c #B3B3AC",
"d c #B7B7B1",
"f c #BBBBB4",
"g c #BFBFB8",
"h c #C4C4BC",
"j c #C8C8BF",
"k c #C7C7C1",
"l c #CACAC2",
"z c #CFCFC8",
"x c #D2D2CA",
"c c #D3D3CD",
"v c #D4D4CC",
"b c #D7D7CF",
"n c #D7D7D0",
"m c #D8D8D1",
"M c #DCDCD3",
"N c #DDDDD4",
"B c #DFDFD8",
"V c #E0E0D7",
"C c #E1E1D8",
"Z c #E5E5DB",
"A c #E7E7DE",
"S c #E8E8DF",
"D c #EBEBE2",
"F c #ECECE3",
"G c #EDEDE4",
"H c #F1F1E7",
"J c #F2F2E8",
"K c #F5F5EB",
"L c #F5F5EC",
"P c #F9F9EF",
"I c #FBFBF1",
"U c #FCFCF1",
"Y c #FEFEF4",
"T c #11498E",
/* pixels */
"TTTTTTTTTTTTTTTTTTTTTTTTTTTTTTTTTTTTTTTTTTTTTTTTTTTTTTTTTTTTTTTT",
"TTTTTTTTTTTTTTTTTTTTTTTTTTTTTTTTTTTTTTTTTTTTTTTTTTTTTTTTTTTTTTTT",
"TTTTTTTTTTTTTTTTTTTTTTTTTTTTTTTTTTTTTTTTTTTTTTTTTTTTTTTTTTTTTTTT",
"TTTTTTTTTTTTTTTTTTTTTTTTTTTTTTTTTTTTTTTTTTTTTTTTTTTTTTTTTTTTTTTT",
"TTTTTTTTTTTTTTTTTTTTTTTTTTTTTTTTTTTTTTTTTTTTTTTTTTTTTTTTTTTTTTTT",
"TTTTTTTTTTTTTTTTTTTTTTTTTTTTTTTTTTTTTTTTTTTTTTTTTTTTTTTTTTTTTTTT",
"TTTTTTTTTTTTTTTTTTTTTTTTTTTTTTTTTTTTTTTTTTTTTTTTTTTTTTTTTTTTTTTT",
"TTTTTTTTTTTTTTTTTTTTTTTTTTTTTTTTTTTTTTTTTTTTTTTTTTTTTTTTTTTTTTTT",
"TTTTTTTTTTTTTTTTTTTTTTTTTTTTTTTTTTTTTTTTTTTTTTTTTTTTTTTTTTTTTTTT",
"TTTTTTTTTTTTTTTTTTTTTTTTTTTTTTTTTTTTTTTTTTTTTTTTTTTTTTTTTTTTTTTT",
"TTTTTTTTTTTTTTTTTTTTTTTTTTTTTTTTTTTTTTTTTTTTTTTTTTTTTTTTTTTTTTTT",
"TTTTTTTTTTTTTTTTTTTTTTTTTTTTTTTTTTTTTTTTTTTTTTTTTTTTTTTTTTTTTTTT",
"TTTTTTTTTTTTTTTTTTTTTTTTTTTTTTTTTTTTTTTTTTTTTTTTTTTTTTTTTTTTTTTT",
"TTTTTTTTTTTTTTTTTTTTTTTTTTTTTTTTTTTTTTTTTTTTTTTTTTTTTTTTTTTTTTTT",
"TTTTTTTTTTTTTTTTTTTTTTTTTTTT;-;>260ejTTTTTTTTTTTTTTTTTTTTTTTTTTT",
"TTTTTTTTTTTTTTTTTTTTTTTTTknarsvAFGDmhkncTTTTTTTTTTTTTTTTTTTTTTTT",
"TTTTTTTTTTTTTTTTTTTTTTTkmDNmUUIIIPIPHxkZNTTTTTTTTTTTTTTTTTTTTTTT",
"TTTTTTTTTTTTTTTTTTTTTTxAKJzJIPPPPPPPPPNkGDmTTTTTTTTTTTTTTTTTTTTT",
"TTTTTTTTTTTTTTTTTTTTTmGPUNNIPPPPPPPPPPUa6sCBTTTTTTTTTTTTTTTTTTTT",
"TTTTTTTTTTTTTTTTTTTTmJUGi:rJIPPPPPPPPIA; X1hNTTTTTTTTTTTTTTTTTTT",
"TTTTTTTTTTTTTTTTTTTnJPh,X X7AIPPPPPIIPw    #edTTTTTTTTTTTTTTTTTT",
"TTTTTTTTTTTTTTTTTTxHJt+     1NIKHHDZDj@     XeTTTTTTTTTTTTTTTTTT",
"TTTTTTTTTTTTTTTTTdkbwX       >hjhhhjjtX      ,NTTTTTTTTTTTTTTTTT",
"TTTTTTTTTTTTTTTTTxAb%        ,NJPPPIIJ0      +xCTTTTTTTTTTTTTTTT",
"TTTTTTTTTTTTTTTTzSPZ#       ohUPPPPPPID<     XfDTTTTTTTTTTTTTTTT",
"TTTTTTTTTTTTTTTTmJIA$       4LPPPPPPPPUz$     pGTTTTTTTTTTTTTTTT",
"TTTTTTTTTTTTTTTTCLID=      ogUPPPPPPPPPIt     pDhTTTTTTTTTTTTTTT",
"TTTTTTTTTTTTTTTlSPIH>      <JPPPPPPPPPPID:o%-<sbjTTTTTTTTTTTTTTT",
"TTTTTTTTTTTTTTTcGPPI7      iUPPPPPPPPPPPJfzVGLjsjTTTTTTTTTTTTTTT",
"TTTTTTTTTTTTTTTnHPPJiwwwwwwjIPPPPPPPPPPINbUIPPbikTTTTTTTTTTTTTTT",
"TTTTTTTTTTTTTTTmJPIzmYYYYYIkZIPPPPPPPPPPjDIPPGzpgTTTTTTTTTTTTTTT",
"TTTTTTTTTTTTTTTmKIGgLPPPPPIDhJIPPPPPPPICjPPPLmkssTTTTTTTTTTTTTTT",
"TTTTTTTTTTTTTTTmJIbxIPPPPPPImzPPPPPPPPPhCIPPZkkssTTTTTTTTTTTTTTT",
"TTTTTTTTTTTTTTTnJUhAIPPPPPPPPkNIIIIUUUVjPPPDzjka9TTTTTTTTTTTTTTT",
"TTTTTTTTTTTTTTTTjksKPPPPPPPPIJhCANbkhspFPPFzjjky#TTTTTTTTTTTTTTT",
"TTTTTTTTTTTTTTTT%o3LPPPPPPPPPIm<*@OooX>HPDzjjjj3XTTTTTTTTTTTTTTT",
"TTTTTTTTTTTTTTTTO +zUPPPPPPPPUu       ojSzjjjks#TTTTTTTTTTTTTTTT",
"TTTTTTTTTTTTTTTT%X 6LPPPPPPPIF;        0ljjjjk6XTTTTTTTTTTTTTTTT",
"TTTTTTTTTTTTTTTTTO osUPPPPPPUfX        ;hjjjka#.TTTTTTTTTTTTTTTT",
"TTTTTTTTTTTTTTTTT#  =mUIPPPII7         +akjhs> TTTTTTTTTTTTTTTTT",
"TTTTTTTTTTTTTTTTTTo  ,MJPPLHb&         owpiirOTTTTTTTTTTTTTTTTTT",
"TTTTTTTTTTTTTTTTTTTX  0sffffa-        o8fghku#TTTTTTTTTTTTTTTTTT",
"TTTTTTTTTTTTTTTTTTTT Xyjhhhjks>X     *tjkjjkiTTTTTTTTTTTTTTTTTTT",
"TTTTTTTTTTTTTTTTTTTTTOikjjjjjkhq*X #5skjjjjkTTTTTTTTTTTTTTTTTTTT",
"TTTTTTTTTTTTTTTTTTTTTTskjjjjjjkkgr9akkjjjjTTTTTTTTTTTTTTTTTTTTTT",
"TTTTTTTTTTTTTTTTTTTTTTTTkkjjjjjjkgskjjjjkTTTTTTTTTTTTTTTTTTTTTTT",
"TTTTTTTTTTTTTTTTTTTTTTTTTTkkkjjjkssjjjkTTTTTTTTTTTTTTTTTTTTTTTTT",
"TTTTTTTTTTTTTTTTTTTTTTTTTTTTTljjje7iTTTTTTTTTTTTTTTTTTTTTTTTTTTT",
"TTTTTTTTTTTTTTTTTTTTTTTTTTTTTTTTTTTTTTTTTTTTTTTTTTTTTTTTTTTTTTTT",
"TTTTTTTTTTTTTTTTTTTTTTTTTTTTTTTTTTTTTTTTTTTTTTTTTTTTTTTTTTTTTTTT",
"TTTTTTTTTTTTTTTTTTTTTTTTTTTTTTTTTTTTTTTTTTTTTTTTTTTTTTTTTTTTTTTT",
"TTTTTTTTTTTTTTTTTTTTTTTTTTTTTTTTTTTTTTTTTTTTTTTTTTTTTTTTTTTTTTTT",
"TTTTTTTTTTTTTTTTTTTTTTTTTTTTTTTTTTTTTTTTTTTTTTTTTTTTTTTTTTTTTTTT",
"TTTTTTTTTTTTTTTTTTTTTTTTTTTTTTTTTTTTTTTTTTTTTTTTTTTTTTTTTTTTTTTT",
"TTTTTTTTTTTTTTTTTTTTTTTTTTTTTTTTTTTTTTTTTTTTTTTTTTTTTTTTTTTTTTTT",
"TTTTTTTTTTTTTTTTTTTTTTTTTTTTTTTTTTTTTTTTTTTTTTTTTTTTTTTTTTTTTTTT",
"TTTTTTTTTTTTTTTTTTTTTTTTTTTTTTTTTTTTTTTTTTTTTTTTTTTTTTTTTTTTTTTT",
"TTTTTTTTTTTTTTTTTTTTTTTTTTTTTTTTTTTTTTTTTTTTTTTTTTTTTTTTTTTTTTTT",
"TTTTTTTTTTTTTTTTTTTTTTTTTTTTTTTTTTTTTTTTTTTTTTTTTTTTTTTTTTTTTTTT",
"TTTTTTTTTTTTTTTTTTTTTTTTTTTTTTTTTTTTTTTTTTTTTTTTTTTTTTTTTTTTTTTT",
"TTTTTTTTTTTTTTTTTTTTTTTTTTTTTTTTTTTTTTTTTTTTTTTTTTTTTTTTTTTTTTTT",
"TTTTTTTTTTTTTTTTTTTTTTTTTTTTTTTTTTTTTTTTTTTTTTTTTTTTTTTTTTTTTTTT",
"TTTTTTTTTTTTTTTTTTTTTTTTTTTTTTTTTTTTTTTTTTTTTTTTTTTTTTTTTTTTTTTT",
"TTTTTTTTTTTTTTTTTTTTTTTTTTTTTTTTTTTTTTTTTTTTTTTTTTTTTTTTTTTTTTTT"
};
