/* XPM */
static char *result[] = {
/* columns rows colors chars-per-pixel */
"64 64 70 1 ",
"  c black",
". c #0B0B0A",
"X c #131312",
"o c #1C1C1B",
"O c #20201E",
"+ c #242423",
"@ c #2C2C2A",
"# c #31312F",
"$ c #333331",
"% c #3A3A37",
"& c #3B3B39",
"* c #41413E",
"= c #444441",
"- c #494947",
"; c #4E4E4B",
": c #52524F",
"> c #555552",
", c #585855",
"< c #5D5D5A",
"1 c #63635F",
"2 c #676763",
"3 c #6A6A66",
"4 c #6D6D69",
"5 c #72726D",
"6 c #767671",
"7 c #7A7A75",
"8 c #81817B",
"9 c #878781",
"0 c #8A8A84",
"q c #8F8F8A",
"w c #92928C",
"e c #969690",
"r c #9C9C95",
"t c #9F9F9A",
"y c #A3A39C",
"u c #A7A7A0",
"i c #AAAAA3",
"p c #AFAFA8",
"a c #B4B4AC",
"s c #B7B7B0",
"d c #BABAB3",
"f c #BFBFB8",
"g c #C5C5BD",
"h c #C8C8BF",
"j c #C7C7C0",
"k c #CACAC2",
"l c #CECEC8",
"z c #D0D0C7",
"x c #D8D8CF",
"c c #D7D7D0",
"v c #D8D8D0",
"b c #DBDBD4",
"n c #DDDDD4",
"m c #E0E0D6",
"M c #E1E1D8",
"N c #E4E4DB",
"B c #E6E6DE",
"V c #E8E8DE",
"C c #E9E9E0",
"Z c #ECECE2",
"A c #EEEEE4",
"S c #F1F1E7",
"D c #F2F2E8",
"F c #F6F6EB",
"G c #F7F7ED",
"H c #F9F9EF",
"J c #FBFBF1",
"K c #FCFCF2",
"L c #FEFEF4",
"P c #11498E",
/* pixels */
"PPPPPPPPPPPPPPPPPPPPPPPPPPPPPPPPPPPPPPPPPPPPPPPPPPPPPPPPPPPPPPPP",
"PPPPPPPPPPPPPPPPPPPPPPPPPPPPPPPPPPPPPPPPPPPPPPPPPPPPPPPPPPPPPPPP",
"PPPPPPPPPPPPPPPPPPPPPPPPPPPPPPPPPPPPPPPPPPPPPPPPPPPPPPPPPPPPPPPP",
"PPPPPPPPPPPPPPPPPPPPPPPPPPPPPPPPPPPPPPPPPPPPPPPPPPPPPPPPPPPPPPPP",
"PPPPPPPPPPPPPPPPPPPPPPPPPPPPPPPPPPPPPPPPPPPPPPPPPPPPPPPPPPPPPPPP",
"PPPPPPPPPPPPPPPPPPPPPPPPPPPPPPPPPPPPPPPPPPPPPPPPPPPPPPPPPPPPPPPP",
"PPPPPPPPPPPPPPPPPPPPPPPPPPPPPPPPPPPPPPPPPPPPPPPPPPPPPPPPPPPPPPPP",
"PPPPPPPPPPPPPPPPPPPPPPPPPPPPPPPPPPPPPPPPPPPPPPPPPPPPPPPPPPPPPPPP",
"PPPPPPPPPPPPPPPPPPPPPPPPPPPPPPPPPPPPPPPPPPPPPPPPPPPPPPPPPPPPPPPP",
"PPPPPPPPPPPPPPPPPPPPPPPPPPPPPPPPPPPPPPPPPPPPPPPPPPPPPPPPPPPPPPPP",
"PPPPPPPPPPPPPPPPPPPPPPPPPPPPPPPPPPPPPPPPPPPPPPPPPPPPPPPPPPPPPPPP",
"PPPPPPPPPPPPPPPPPPPPPPPPPPPPPPPPPPPPPPPPPPPPPPPPPPPPPPPPPPPPPPPP",
"PPPPPPPPPPPPPPPPPPPPPPPPPPPPPPPPPPPPPPPPPPPPPPPPPPPPPPPPPPPPPPPP",
"PPPPPPPPPPPPPPPPPPPPPPPPPPPPPPPPPPPPPPPPPPPPPPPPPPPPPPPPPPPPPPPP",
"PPPPPPPPPPPPPPPPPPPPPPPPPPPPPPPPPPPPPPPPPPPPPPPPPPPPPPPPPPPPPPPP",
"PPPPPPPPPPPPPPPPPPPPPPPPPPPPPPPPPPPPPPPPPPPPPPPPPPPPPPPPPPPPPPPP",
"PPPPPPPPPPPPPPPPPPPPPPPPPPPPPPPPPPPPPPPPPPPPPPPPPPPPPPPPPPPPPPPP",
"PPPPPPPPPPPPPPPPPPPPPPPPPPPPPPPPPPPPPPPPPPPPPPPPPPPPPPPPPPPPPPPP",
"PPPPPPPPPPPPPPPPPPPPPPPPPPPPPPPPPPPPPPPPPPPPPPPPPPPPPPPPPPPPPPPP",
"PPPPPPPPPPPPPPPPPPPPPPPPPPPPPPPPPPPPPPPPPPPPPPPPPPPPPPPPPPPPPPPP",
"PPPPPPPPPPPPPPPPPPPPPPPPPPPPPPPPPPPPPPPPPPPPPPPPPPPPPPPPPPPPPPPP",
"PPPPPPPPPPPPPPPPPPPPPPPPPPPPPPPPPPPPPPPPPPPPPPPPPPPPPPPPPPPPPPPP",
"PPPPPPPPPPPPPPPPPPPPPPPPPPPPPPPPPPPPPPPPPPPPPPPPPPPPPPPPPPPPPPPP",
"PPPPPPPPPPPPPPPPPPPPPPPPPPPPPPPPPPPPPPPPPPPPPPPPPPPPPPPPPPPPPPPP",
"PPPPPPPPPPPPPPPPPPPPPPPPPPPgkzxvxvxxlPPPPPPPPPPPPPPPPPPPPPPPPPPP",
"PPPPPPPPPPPPPPPPPPPPPPPPP$iBZDFFGGFSZMdjPPPPPPPPPPPPPPPPPPPPPPPP",
"PPPPPPPPPPPPPPPPPPPPPPP+..yJJJJHHHHJKJlMnPPPPPPPPPPPPPPPPPPPPPPP",
"PPPPPPPPPPPPPPPPPPPPP+X  o9gjzCHJKFBlsyAFBvPPPPPPPPPPPPPPPPPPPPP",
"PPPPPPPPPPPPPPPPPPPP$.  ;gCVnzgglw,@o.X6CHZvPPPPPPPPPPPPPPPPPPPP",
"PPPPPPPPPPPPPPPPPPP%X .7VKJJJJHM>       2ZHSnPPPPPPPPPPPPPPPPPPP",
"PPPPPPPPPPPPPPPPPP$. .qFJHHHHHHJ1       .8GHAnPPPPPPPPPPPPPPPPPP",
"PPPPPPPPPPPPPPPPPPX..7FJHHHHHHHK8        XpKHZPPPPPPPPPPPPPPPPPP",
"PPPPPPPPPPPPPPPPPtey9BJHHHHHHHHKt.        %zCFVPPPPPPPPPPPPPPPPP",
"PPPPPPPPPPPPPPPPPMJLgCJHHHHHHHHKd.        ,vxxniPPPPPPPPPPPPPPPP",
"PPPPPPPPPPPPPPPPlCHJhAJHHHHHHHHKlX       ogKJDj-PPPPPPPPPPPPPPPP",
"PPPPPPPPPPPPPPPPcDHJzBJHHHHHHHJFg9,+.    8HHHJS,PPPPPPPPPPPPPPPP",
"PPPPPPPPPPPPPPPPMGHJMxJHHHHHHJSgvJFnp3@ =BJHHHKwoPPPPPPPPPPPPPPP",
"PPPPPPPPPPPPPPPlCHHJVzJHHHHHJAgnJHHJKHn0dKHHHHHa@PPPPPPPPPPPPPPP",
"PPPPPPPPPPPPPPPxAHHHGsxAHKJJCsMJHHHHHHKZjHHHHJAg%PPPPPPPPPPPPPPP",
"PPPPPPPPPPPPPPPcSHHJv%+*4tzBanJHHHHHHHHGgAHHHHng<PPPPPPPPPPPPPPP",
"PPPPPPPPPPPPPPPvDHHG5     o,xJHHHHHHHHHJjMJHJAlh7PPPPPPPPPPPPPPP",
"PPPPPPPPPPPPPPPbFHJzO      XlKHHHHHHHHHJnzJJGxhj8PPPPPPPPPPPPPPP",
"PPPPPPPPPPPPPPPvDHKw       .yKHHHHHHHHHJNjJHMjhfyPPPPPPPPPPPPPPP",
"PPPPPPPPPPPPPPPsAHF,        6JHHHHHHHHHHZjHCkhjuaPPPPPPPPPPPPPPP",
"PPPPPPPPPPPPPPP6snz%        ;DJHHHHHHHHHDpnzhjfyjPPPPPPPPPPPPPPP",
"PPPPPPPPPPPPPPPPjGGw.       @MJHHHHHHHHKs@&8sgyslPPPPPPPPPPPPPPP",
"PPPPPPPPPPPPPPPPvFJV:       XgKHHHHHHHKg@  .@5ujPPPPPPPPPPPPPPPP",
"PPPPPPPPPPPPPPPPvAHJz$      &uzAHJJHJJs@     =glPPPPPPPPPPPPPPPP",
"PPPPPPPPPPPPPPPPPBHHJg#  .&wMSxgjxCDAro      5jPPPPPPPPPPPPPPPPP",
"PPPPPPPPPPPPPPPPPbSJHKg&;uBKJHJHCxga3.      XylPPPPPPPPPPPPPPPPP",
"PPPPPPPPPPPPPPPPPPMAFHJfBKJHHHFZNxlg,       :gPPPPPPPPPPPPPPPPPP",
"PPPPPPPPPPPPPPPPPPPkzxnflBMmvxzjhghj9.     XrPPPPPPPPPPPPPPPPPPP",
"PPPPPPPPPPPPPPPPPPPPgjjaujhhhhhhhhhjuX    +3yPPPPPPPPPPPPPPPPPPP",
"PPPPPPPPPPPPPPPPPPPPPgjgygjhhhhhhhhjf$.o&5pgPPPPPPPPPPPPPPPPPPPP",
"PPPPPPPPPPPPPPPPPPPPPPaq4rhjjhhhhhjhuwyagjPPPPPPPPPPPPPPPPPPPPPP",
"PPPPPPPPPPPPPPPPPPPPPPPPXo,wshjjhgsyugjjjPPPPPPPPPPPPPPPPPPPPPPP",
"PPPPPPPPPPPPPPPPPPPPPPPPPPXX@,8tpyudhjjPPPPPPPPPPPPPPPPPPPPPPPPP",
"PPPPPPPPPPPPPPPPPPPPPPPPPPPPo. ;agjjPPPPPPPPPPPPPPPPPPPPPPPPPPPP",
"PPPPPPPPPPPPPPPPPPPPPPPPPPPPPPPPPPPPPPPPPPPPPPPPPPPPPPPPPPPPPPPP",
"PPPPPPPPPPPPPPPPPPPPPPPPPPPPPPPPPPPPPPPPPPPPPPPPPPPPPPPPPPPPPPPP",
"PPPPPPPPPPPPPPPPPPPPPPPPPPPPPPPPPPPPPPPPPPPPPPPPPPPPPPPPPPPPPPPP",
"PPPPPPPPPPPPPPPPPPPPPPPPPPPPPPPPPPPPPPPPPPPPPPPPPPPPPPPPPPPPPPPP",
"PPPPPPPPPPPPPPPPPPPPPPPPPPPPPPPPPPPPPPPPPPPPPPPPPPPPPPPPPPPPPPPP",
"PPPPPPPPPPPPPPPPPPPPPPPPPPPPPPPPPPPPPPPPPPPPPPPPPPPPPPPPPPPPPPPP"
};
