/* XPM */
static char *result[] = {
/* columns rows colors chars-per-pixel */
"64 64 72 1 ",
"  c #010101",
". c #0C0C0C",
"X c #141413",
"o c gray11",
"O c #20201F",
"+ c #232322",
"@ c #292927",
"# c #2B2B29",
"$ c #30302E",
"% c #333331",
"& c #3D3D3B",
"* c #40403E",
"= c #434341",
"- c #494946",
"; c #4C4C49",
": c #51514E",
"> c #555551",
", c #5A5A57",
"< c #5E5E5B",
"1 c #62625D",
"2 c #656561",
"3 c #6A6A65",
"4 c #6F6F6A",
"5 c #72726D",
"6 c #767671",
"7 c #797974",
"8 c #7E7E79",
"9 c #82827D",
"0 c #878781",
"q c #8C8C86",
"w c #93938D",
"e c #969692",
"r c #9B9B95",
"t c #9E9E98",
"y c #A3A39C",
"u c #A7A7A0",
"i c #ABABA4",
"p c #AFAFA8",
"a c #B3B3AB",
"s c #B7B7B0",
"d c #BCBCB4",
"f c #BFBFB8",
"g c #C0C0B7",
"h c #C4C4BC",
"j c #C8C8BF",
"k c #C6C6C0",
"l c #CBCBC2",
"z c #CECEC8",
"x c #D1D1C7",
"c c #D2D2CA",
"v c #D4D4CD",
"b c #D8D8CF",
"n c #D7D7D1",
"m c #DBDBD3",
"M c #DCDCD3",
"N c #DEDED5",
"B c #E0E0D7",
"V c #E1E1D9",
"C c #E4E4DB",
"Z c #E5E5DC",
"A c #E9E9DF",
"S c #EAEAE0",
"D c #ECECE2",
"F c #EEEEE5",
"G c #F0F0E6",
"H c #F3F3EA",
"J c #F4F4E9",
"K c #F7F7ED",
"L c #F9F9EF",
"P c #FBFBF0",
"I c #FCFCF2",
"U c #11498E",
/* pixels */
"UUUUUUUUUUUUUUUUUUUUUUUUUUUUUUUUUUUUUUUUUUUUUUUUUUUUUUUUUUUUUUUU",
"UUUUUUUUUUUUUUUUUUUUUUUUUUUUUUUUUUUUUUUUUUUUUUUUUUUUUUUUUUUUUUUU",
"UUUUUUUUUUUUUUUUUUUUUUUUUUUUUUUUUUUUUUUUUUUUUUUUUUUUUUUUUUUUUUUU",
"UUUUUUUUUUUUUUUUUUUUUUUUUUUUUUUUUUUUUUUUUUUUUUUUUUUUUUUUUUUUUUUU",
"UUUUUUUUUUUUUUUUUUUUUUUUUUUUUUUUUUUUUUUUUUUUUUUUUUUUUUUUUUUUUUUU",
"UUUUUUUUUUUUUUUUUUUUUUUUUUUUUUUUUUUUUUUUUUUUUUUUUUUUUUUUUUUUUUUU",
"UUUUUUUUUUUUUUUUUUUUUUUUUUUUUUUUUUUUUUUUUUUUUUUUUUUUUUUUUUUUUUUU",
"UUUUUUUUUUUUUUUUUUUUUUUUUUUUUUUUUUUUUUUUUUUUUUUUUUUUUUUUUUUUUUUU",
"UUUUUUUUUUUUUUUUUUUUUUUUUUUUUUUUUUUUUUUUUUUUUUUUUUUUUUUUUUUUUUUU",
"UUUUUUUUUUUUUUUUUUUUUUUUUUUUUUUUUUUUUUUUUUUUUUUUUUUUUUUUUUUUUUUU",
"UUUUUUUUUUUUUUUUUUUUUUUUUUUUUUUUUUUUUUUUUUUUUUUUUUUUUUUUUUUUUUUU",
"UUUUUUUUUUUUUUUUUUUUUUUUUUUUUUUUUUUUUUUUUUUUUUUUUUUUUUUUUUUUUUUU",
"UUUUUUUUUUUUUUUUUUUUUUUUUUUUUUUUUUUUUUUUUUUUUUUUUUUUUUUUUUUUUUUU",
"UUUUUUUUUUUUUUUUUUUUUUUUUUUUUUUUUUUUUUUUUUUUUUUUUUUUUUUUUUUUUUUU",
"UUUUUUUUUUUUUUUUUUUUUUUUUUUUUUUUUUUUUUUUUUUUUUUUUUUUUUUUUUUUUUUU",
"UUUUUUUUUUUUUUUUUUUUUUUUUUUUUUUUUUUUUUUUUUUUUUUUUUUUUUUUUUUUUUUU",
"UUUUUUUUUUUUUUUUUUUUUUUUUUUUUUUUUUUUUUUUUUUUUUUUUUUUUUUUUUUUUUUU",
"UUUUUUUUUUUUUUUUUUUUUUUUUUUUUUUUUUUUUUUUUUUUUUUUUUUUUUUUUUUUUUUU",
"UUUUUUUUUUUUUUUUUUUUUUUUUUUUUUUUUUUUUUUUUUUUUUUUUUUUUUUUUUUUUUUU",
"UUUUUUUUUUUUUUUUUUUUUUUUUUUUUUUUUUUUUUUUUUUUUUUUUUUUUUUUUUUUUUUU",
"UUUUUUUUUUUUUUUUUUUUUUUUUUUUUUUUUUUUUUUUUUUUUUUUUUUUUUUUUUUUUUUU",
"UUUUUUUUUUUUUUUUUUUUUUUUUUUUUUUUUUUUUUUUUUUUUUUUUUUUUUUUUUUUUUUU",
"UUUUUUUUUUUUUUUUUUUUUUUUUUUUUUUUUUUUUUUUUUUUUUUUUUUUUUUUUUUUUUUU",
"UUUUUUUUUUUUUUUUUUUUUUUUUUUUUUUUUUUUUUUUUUUUUUUUUUUUUUUUUUUUUUUU",
"UUUUUUUUUUUUUUUUUUUUUUUUUUUUUUUUUUUUUUUUUUUUUUUUUUUUUUUUUUUUUUUU",
"UUUUUUUUUUUUUUUUUUUUUUUUUUUUUUUUUUUUUUUUUUUUUUUUUUUUUUUUUUUUUUUU",
"UUUUUUUUUUUUUUUUUUUUUUUUUUUflzcvcvcvzUUUUUUUUUUUUUUUUUUUUUUUUUUU",
"UUUUUUUUUUUUUUUUUUUUUUUUU$iZSGHJJJJFSVdkUUUUUUUUUUUUUUUUUUUUUUUU",
"UUUUUUUUUUUUUUUUUUUUUUU+..yILPPLLLLIILzVNUUUUUUUUUUUUUUUUUUUUUUU",
"UUUUUUUUUUUUUUUUUUUUU#X  +qghcVJIPDvfyeSJZmUUUUUUUUUUUUUUUUUUUUU",
"UUUUUUUUUUUUUUUUUUUU+. .3vFFDmlhs6*o...<NPFNUUUUUUUUUUUUUUUUUUUU",
"UUUUUUUUUUUUUUUUUUUo. otJPLLLPPS;       -NPGVUUUUUUUUUUUUUUUUUUU",
"UUUUUUUUUUUUUUUUUU@. oaPPLLLLLLP3        ,SPGNUUUUUUUUUUUUUUUUUU",
"UUUUUUUUUUUUUUUUUU%@@pPLLLLLLLLIq         8HPGNUUUUUUUUUUUUUUUUU",
"UUUUUUUUUUUUUUUUUhcNpSPLLLLLLLLIu.        $gbASUUUUUUUUUUUUUUUUU",
"UUUUUUUUUUUUUUUUUVLIhDPLLLLLLLLIh.       .qJSMl6UUUUUUUUUUUUUUUU",
"UUUUUUUUUUUUUUUUvFLPlSLLLLLLLLLPz*X      ;SPPPN-UUUUUUUUUUUUUUUU",
"UUUUUUUUUUUUUUUUNJLPMNPLLLLLLLLmzNlr1@. +hILLLP8+UUUUUUUUUUUUUUU",
"UUUUUUUUUUUUUUUUZLLPCcPLLLLLPKzzKPIIKNy:rPLLLLPu+UUUUUUUUUUUUUUU",
"UUUUUUUUUUUUUUUvFLLLHhDLIIPPJlcLLLLLLPIVzPLLLPHd%UUUUUUUUUUUUUUU",
"UUUUUUUUUUUUUUUnGLLPC>=3wgCGhmLLLLLLLLLJhHLLLLVh>UUUUUUUUUUUUUUU",
"UUUUUUUUUUUUUUUmHLLL9    X$5vPLLLLLLLLLPlZPLLGzj6UUUUUUUUUUUUUUU",
"UUUUUUUUUUUUUUUmJLPv+      XcILLLLLLLLLPmcPLKmjj8UUUUUUUUUUUUUUU",
"UUUUUUUUUUUUUUUmHLPw       .yILLLLLLLLLPZlPLVljdyUUUUUUUUUUUUUUU",
"UUUUUUUUUUUUUUUsAKH:        5PLLLLLLLLLPDlLAljjusUUUUUUUUUUUUUUU",
"UUUUUUUUUUUUUUUUavc&        -FPLLLLLLLLPGyzzllsulUUUUUUUUUUUUUUU",
"UUUUUUUUUUUUUUUUzLPy.       +NPLLLLLLLPLro+1ydydzUUUUUUUUUUUUUUU",
"UUUUUUUUUUUUUUUUmHPH5       .sLPPLLLLPJrX   X,alUUUUUUUUUUUUUUUU",
"UUUUUUUUUUUUUUUUUSLPS2     +6ghbDKPPID9.     ;jzUUUUUUUUUUUUUUUU",
"UUUUUUUUUUUUUUUUUVJLPA2..%0cLPDmllcBg>.     .9zUUUUUUUUUUUUUUUUU",
"UUUUUUUUUUUUUUUUUUSLPID9yZPIPPPPJVla;       @acUUUUUUUUUUUUUUUUU",
"UUUUUUUUUUUUUUUUUUUmCSGhAKHGDAVmcljl5      .7zUUUUUUUUUUUUUUUUUU",
"UUUUUUUUUUUUUUUUUUUgklzaaxzzlljjhjhlr.    .&uUUUUUUUUUUUUUUUUUUU",
"UUUUUUUUUUUUUUUUUUUUhkldyhjjjjjjjjjjs@ .X&9aUUUUUUUUUUUUUUUUUUUU",
"UUUUUUUUUUUUUUUUUUUUUUsu0plljjjjjjjla76qudlUUUUUUUUUUUUUUUUUUUUU",
"UUUUUUUUUUUUUUUUUUUUUUU*o%7uhllllhgpyglllUUUUUUUUUUUUUUUUUUUUUUU",
"UUUUUUUUUUUUUUUUUUUUUUUUUo.O=4wuauyahllUUUUUUUUUUUUUUUUUUUUUUUUU",
"UUUUUUUUUUUUUUUUUUUUUUUUUUUUX +>pghlUUUUUUUUUUUUUUUUUUUUUUUUUUUU",
"UUUUUUUUUUUUUUUUUUUUUUUUUUUUUUUUUUUUUUUUUUUUUUUUUUUUUUUUUUUUUUUU",
"UUUUUUUUUUUUUUUUUUUUUUUUUUUUUUUUUUUUUUUUUUUUUUUUUUUUUUUUUUUUUUUU",
"UUUUUUUUUUUUUUUUUUUUUUUUUUUUUUUUUUUUUUUUUUUUUUUUUUUUUUUUUUUUUUUU",
"UUUUUUUUUUUUUUUUUUUUUUUUUUUUUUUUUUUUUUUUUUUUUUUUUUUUUUUUUUUUUUUU",
"UUUUUUUUUUUUUUUUUUUUUUUUUUUUUUUUUUUUUUUUUUUUUUUUUUUUUUUUUUUUUUUU",
"UUUUUUUUUUUUUUUUUUUUUUUUUUUUUUUUUUUUUUUUUUUUUUUUUUUUUUUUUUUUUUUU"
};
