/* XPM */
static char *result[] = {
/* columns rows colors chars-per-pixel */
"64 64 69 1 ",
"  c #010101",
". c #0C0C0C",
"X c #10100F",
"o c #131313",
"O c #1C1C1B",
"+ c #20201F",
"@ c #232322",
"# c #2E2E2C",
"$ c #31312F",
"% c #353533",
"& c #393937",
"* c #3C3C3A",
"= c #42423F",
"- c #434341",
"; c #4A4A47",
": c #4D4D4A",
"> c #52524F",
", c #545451",
"< c #5E5E5A",
"1 c #656561",
"2 c #696965",
"3 c #6D6D69",
"4 c #71716D",
"5 c #767673",
"6 c #7B7B76",
"7 c #7F7F7A",
"8 c #83837D",
"9 c #8A8A84",
"0 c #8E8E89",
"q c #93938D",
"w c #969690",
"e c #999993",
"r c #9F9F98",
"t c #A3A39C",
"y c #A6A6A1",
"u c #AFAFA9",
"i c #B4B4AC",
"p c #BBBBB4",
"a c #BFBFB9",
"s c #C0C0B7",
"d c #C5C5BD",
"f c #C8C8BF",
"g c #C6C6C0",
"h c #CACAC2",
"j c #D2D2CA",
"k c #D4D4CC",
"l c #D4D4CD",
"z c #D8D8CF",
"x c #D7D7D0",
"c c #D9D9D1",
"v c #DCDCD3",
"b c #DBDBD4",
"n c #DDDDD5",
"m c #E0E0D7",
"M c #E3E3DA",
"N c #E5E5DB",
"B c #E5E5DD",
"V c #E9E9DF",
"C c #EBEBE1",
"Z c #ECECE3",
"A c #EDEDE4",
"S c #F1F1E7",
"D c #F3F3E9",
"F c #F4F4EA",
"G c #F6F6ED",
"H c #FAFAEF",
"J c #FBFBF1",
"K c #FCFCF1",
"L c #11498E",
/* pixels */
"LLLLLLLLLLLLLLLLLLLLLLLLLLLLLLLLLLLLLLLLLLLLLLLLLLLLLLLLLLLLLLLL",
"LLLLLLLLLLLLLLLLLLLLLLLLLLLLLLLLLLLLLLLLLLLLLLLLLLLLLLLLLLLLLLLL",
"LLLLLLLLLLLLLLLLLLLLLLLLLLLLLLLLLLLLLLLLLLLLLLLLLLLLLLLLLLLLLLLL",
"LLLLLLLLLLLLLLLLLLLLLLLLLLLLLLLLLLLLLLLLLLLLLLLLLLLLLLLLLLLLLLLL",
"LLLLLLLLLLLLLLLLLLLLLLLLLLLLLLLLLLLLLLLLLLLLLLLLLLLLLLLLLLLLLLLL",
"LLLLLLLLLLLLLLLLLLLLLLLLLLLLLLLLLLLLLLLLLLLLLLLLLLLLLLLLLLLLLLLL",
"LLLLLLLLLLLLLLLLLLLLLLLLLLLLLLLLLLLLLLLLLLLLLLLLLLLLLLLLLLLLLLLL",
"LLLLLLLLLLLLLLLLLLLLLLLLLLLLLLLLLLLLLLLLLLLLLLLLLLLLLLLLLLLLLLLL",
"LLLLLLLLLLLLLLLLLLLLLLLLLLLLLLLLLLLLLLLLLLLLLLLLLLLLLLLLLLLLLLLL",
"LLLLLLLLLLLLLLLLLLLLLLLLLLLLLLLLLLLLLLLLLLLLLLLLLLLLLLLLLLLLLLLL",
"LLLLLLLLLLLLLLLLLLLLLLLLLLLLLLLLLLLLLLLLLLLLLLLLLLLLLLLLLLLLLLLL",
"LLLLLLLLLLLLLLLLLLLLLLLLLLLLLLLLLLLLLLLLLLLLLLLLLLLLLLLLLLLLLLLL",
"LLLLLLLLLLLLLLLLLLLLLLLLLLLLLLLLLLLLLLLLLLLLLLLLLLLLLLLLLLLLLLLL",
"LLLLLLLLLLLLLLLLLLLLLLLLLLLLLLLLLLLLLLLLLLLLLLLLLLLLLLLLLLLLLLLL",
"LLLLLLLLLLLLLLLLLLLLLLLLLLLLhjkcxhayhLLLLLLLLLLLLLLLLLLLLLLLLLLL",
"LLLLLLLLLLLLLLLLLLLLLLLLLdjkvMjr3>*%5gnlLLLLLLLLLLLLLLLLLLLLLLLL",
"LLLLLLLLLLLLLLLLLLLLLLL5uagjku#      %iVnLLLLLLLLLLLLLLLLLLLLLLL",
"LLLLLLLLLLLLLLLLLLLLLL3pNDGHKkO       OuFBcLLLLLLLLLLLLLLLLLLLLL",
"LLLLLLLLLLLLLLLLLLLLL<hJJHHHJB%        @sDZnLLLLLLLLLLLLLLLLLLLL",
"LLLLLLLLLLLLLLLLLLLL,dJHHHHHHG,         8dhMnLLLLLLLLLLLLLLLLLLL",
"LLLLLLLLLLLLLLLLLLL-iJHHHHHHJH6o       5AGBhjbLLLLLLLLLLLLLLLLLL",
"LLLLLLLLLLLLLLLLLL>0HHHHHHHJFhddy6;+  2ZJHJGkhLLLLLLLLLLLLLLLLLL",
"LLLLLLLLLLLLLLLLLdpBJHHHHHJDscJKKJDkw3MJHHHJHk3LLLLLLLLLLLLLLLLL",
"LLLLLLLLLLLLLLLLLnMBJHHHHJSdmJHHHHJJKhBJHHHHHG5@LLLLLLLLLLLLLLLL",
"LLLLLLLLLLLLLLLLhCBnJJJJJFdcJHHHHHHHJMhJHHHHHKa@LLLLLLLLLLLLLLLL",
"LLLLLLLLLLLLLLLLcDDhCVBBVhjJHHHHHHHHHDdDHHHHHJB&OLLLLLLLLLLLLLLL",
"LLLLLLLLLLLLLLLLMGH0*%%%%0HHHHHHHHHHHHhNJHHHHHH1 LLLLLLLLLLLLLLL",
"LLLLLLLLLLLLLLLhVHM$     2JHHHHHHHHHHJckJHHHHHJ9.LLLLLLLLLLLLLLL",
"LLLLLLLLLLLLLLLlAKu.     =ZJHHHHHHHHHJBhHHHHHHDe LLLLLLLLLLLLLLL",
"LLLLLLLLLLLLLLLxSJ2      OhJHHHHHHHHHJSuZJHHHHnq@LLLLLLLLLLLLLLL",
"LLLLLLLLLLLLLLLxFC*       eKHHHHHHHHJGeO,sHJJSit7#LLLLLLLLLLLLLL",
"LLLLLLLLLLLLLLLcGc+       <FHHHHHHHHGeo  O8MJfrsaLLLLLLLLLLLLLLL",
"LLLLLLLLLLLLLLLcDdo       OhHJJHHHJGeo     =ttshhLLLLLLLLLLLLLLL",
"LLLLLLLLLLLLLLLhhj2       &ihhcAFJGeo       =shfhLLLLLLLLLLLLLLL",
"LLLLLLLLLLLLLLLLnJB>     ;jJDMjddhwo        <ffhhLLLLLLLLLLLLLLL",
"LLLLLLLLLLLLLLLLBHJv:   <mJHHJJHDC7         8hfhhLLLLLLLLLLLLLLL",
"LLLLLLLLLLLLLLLLMGHJM1o4CJHHHHHHHKaX       othfhLLLLLLLLLLLLLLLL",
"LLLLLLLLLLLLLLLLLSHHJZrVJHHHHHHHHJV*       &sffhLLLLLLLLLLLLLLLL",
"LLLLLLLLLLLLLLLLLVHHHHfCJHHHHHHHHHJ8       6hfhLLLLLLLLLLLLLLLLL",
"LLLLLLLLLLLLLLLLLLSJHJhnJHHHHHHHJHDpo     %ihfhLLLLLLLLLLLLLLLLL",
"LLLLLLLLLLLLLLLLLLMSGJMsJHHHHHFABzhs;oO#,9tufhLLLLLLLLLLLLLLLLLL",
"LLLLLLLLLLLLLLLLLLLhjccukNNMnzjhfffyyiiadhhuyqLLLLLLLLLLLLLLLLLL",
"LLLLLLLLLLLLLLLLLLLLddhiefhfddfffdyyfhhhffhi<LLLLLLLLLLLLLLLLLLL",
"LLLLLLLLLLLLLLLLLLLLLdd0%3udhhhhdtydfffffffiLLLLLLLLLLLLLLLLLLLL",
"LLLLLLLLLLLLLLLLLLLLLL9O  O>8tiieuffffffffLLLLLLLLLLLLLLLLLLLLLL",
"LLLLLLLLLLLLLLLLLLLLLLLo     XO*uhffffffhLLLLLLLLLLLLLLLLLLLLLLL",
"LLLLLLLLLLLLLLLLLLLLLLLLL.      4dffffhLLLLLLLLLLLLLLLLLLLLLLLLL",
"LLLLLLLLLLLLLLLLLLLLLLLLLLLL.   OwhfLLLLLLLLLLLLLLLLLLLLLLLLLLLL",
"LLLLLLLLLLLLLLLLLLLLLLLLLLLLLLLLLLLLLLLLLLLLLLLLLLLLLLLLLLLLLLLL",
"LLLLLLLLLLLLLLLLLLLLLLLLLLLLLLLLLLLLLLLLLLLLLLLLLLLLLLLLLLLLLLLL",
"LLLLLLLLLLLLLLLLLLLLLLLLLLLLLLLLLLLLLLLLLLLLLLLLLLLLLLLLLLLLLLLL",
"LLLLLLLLLLLLLLLLLLLLLLLLLLLLLLLLLLLLLLLLLLLLLLLLLLLLLLLLLLLLLLLL",
"LLLLLLLLLLLLLLLLLLLLLLLLLLLLLLLLLLLLLLLLLLLLLLLLLLLLLLLLLLLLLLLL",
"LLLLLLLLLLLLLLLLLLLLLLLLLLLLLLLLLLLLLLLLLLLLLLLLLLLLLLLLLLLLLLLL",
"LLLLLLLLLLLLLLLLLLLLLLLLLLLLLLLLLLLLLLLLLLLLLLLLLLLLLLLLLLLLLLLL",
"LLLLLLLLLLLLLLLLLLLLLLLLLLLLLLLLLLLLLLLLLLLLLLLLLLLLLLLLLLLLLLLL",
"LLLLLLLLLLLLLLLLLLLLLLLLLLLLLLLLLLLLLLLLLLLLLLLLLLLLLLLLLLLLLLLL",
"LLLLLLLLLLLLLLLLLLLLLLLLLLLLLLLLLLLLLLLLLLLLLLLLLLLLLLLLLLLLLLLL",
"LLLLLLLLLLLLLLLLLLLLLLLLLLLLLLLLLLLLLLLLLLLLLLLLLLLLLLLLLLLLLLLL",
"LLLLLLLLLLLLLLLLLLLLLLLLLLLLLLLLLLLLLLLLLLLLLLLLLLLLLLLLLLLLLLLL",
"LLLLLLLLLLLLLLLLLLLLLLLLLLLLLLLLLLLLLLLLLLLLLLLLLLLLLLLLLLLLLLLL",
"LLLLLLLLLLLLLLLLLLLLLLLLLLLLLLLLLLLLLLLLLLLLLLLLLLLLLLLLLLLLLLLL",
"LLLLLLLLLLLLLLLLLLLLLLLLLLLLLLLLLLLLLLLLLLLLLLLLLLLLLLLLLLLLLLLL",
"LLLLLLLLLLLLLLLLLLLLLLLLLLLLLLLLLLLLLLLLLLLLLLLLLLLLLLLLLLLLLLLL"
};
