/* XPM */
static char *result[] = {
/* columns rows colors chars-per-pixel */
"64 64 76 1 ",
"  c black",
". c #080807",
"X c #0C0C0B",
"o c gray8",
"O c #181817",
"+ c #1C1C1B",
"@ c #21211F",
"# c #242423",
"$ c #282827",
"% c #2C2C2B",
"& c #30302E",
"* c #353533",
"= c #393937",
"- c #3D3D3B",
"; c #41413E",
": c #464644",
"> c #4E4E4C",
", c #50504D",
"< c #545452",
"1 c #5A5A56",
"2 c #5E5E5A",
"3 c #62625E",
"4 c #656561",
"5 c #696965",
"6 c #6E6E69",
"7 c #72726D",
"8 c #717170",
"9 c #7A7A75",
"0 c #7F7F7A",
"q c #81817D",
"w c #858580",
"e c #8C8C86",
"r c #8D8D89",
"t c #94948E",
"y c #979790",
"u c #9A9A94",
"i c #A2A29B",
"p c #A6A6A1",
"a c #ABABA3",
"s c #AEAEA8",
"d c #B2B2AB",
"f c #B7B7B1",
"g c #BDBDB5",
"h c #BFBFB9",
"j c #C0C0B7",
"k c #C4C4BD",
"l c #C8C8BF",
"z c #C7C7C0",
"x c #CACAC2",
"c c #CFCFC9",
"v c #D0D0C7",
"b c #D3D3CB",
"n c #D4D4CB",
"m c #D3D3CD",
"M c #D7D7CF",
"N c #D9D9CF",
"B c #D7D7D0",
"V c #DADAD1",
"C c #DCDCD4",
"Z c #DFDFD7",
"A c #E0E0D7",
"S c #E2E2D9",
"D c #E5E5DB",
"F c #E7E7DE",
"G c #E8E8DF",
"H c #EAEAE1",
"J c #ECECE2",
"K c #EEEEE4",
"L c #F1F1E7",
"P c #F2F2E8",
"I c #F5F5EB",
"U c #F7F7ED",
"Y c #F9F9EF",
"T c #FAFAF0",
"R c #FCFCF2",
"E c #11498E",
/* pixels */
"EEEEEEEEEEEEEEEEEEEEEEEEEEEEEEEEEEEEEEEEEEEEEEEEEEEEEEEEEEEEEEEE",
"EEEEEEEEEEEEEEEEEEEEEEEEEEEEEEEEEEEEEEEEEEEEEEEEEEEEEEEEEEEEEEEE",
"EEEEEEEEEEEEEEEEEEEEEEEEEEEEEEEEEEEEEEEEEEEEEEEEEEEEEEEEEEEEEEEE",
"EEEEEEEEEEEEEEEEEEEEEEEEEEEEEEEEEEEEEEEEEEEEEEEEEEEEEEEEEEEEEEEE",
"EEEEEEEEEEEEEEEEEEEEEEEEEEEEEEEEEEEEEEEEEEEEEEEEEEEEEEEEEEEEEEEE",
"EEEEEEEEEEEEEEEEEEEEEEEEEEEEEEEEEEEEEEEEEEEEEEEEEEEEEEEEEEEEEEEE",
"EEEEEEEEEEEEEEEEEEEEEEEEEEEEEEEEEEEEEEEEEEEEEEEEEEEEEEEEEEEEEEEE",
"EEEEEEEEEEEEEEEEEEEEEEEEEEEEEEEEEEEEEEEEEEEEEEEEEEEEEEEEEEEEEEEE",
"EEEEEEEEEEEEEEEEEEEEEEEEEEEEEEEEEEEEEEEEEEEEEEEEEEEEEEEEEEEEEEEE",
"EEEEEEEEEEEEEEEEEEEEEEEEEEEEEEEEEEEEEEEEEEEEEEEEEEEEEEEEEEEEEEEE",
"EEEEEEEEEEEEEEEEEEEEEEEEEEEEEEEEEEEEEEEEEEEEEEEEEEEEEEEEEEEEEEEE",
"EEEEEEEEEEEEEEEEEEEEEEEEEEEEEEEEEEEEEEEEEEEEEEEEEEEEEEEEEEEEEEEE",
"EEEEEEEEEEEEEEEEEEEEEEEEEEEEEEEEEEEEEEEEEEEEEEEEEEEEEEEEEEEEEEEE",
"EEEEEEEEEEEEEEEEEEEEEEEEEEEEEEEEEEEEEEEEEEEEEEEEEEEEEEEEEEEEEEEE",
"EEEEEEEEEEEEEEEEEEEEEEEEEEEEEEEEEEEEEEEEEEEEEEEEEEEEEEEEEEEEEEEE",
"EEEEEEEEEEEEEEEEEEEEEEEEEEEEEEEEEEEEEEEEEEEEEEEEEEEEEEEEEEEEEEEE",
"EEEEEEEEEEEEEEEEEEEEEEEEEEEEEEEEEEEEEEEEEEEEEEEEEEEEEEEEEEEEEEEE",
"EEEEEEEEEEEEEEEEEEEEEEEEEEEEEEklzr*EEEEEEEEEEEEEEEEEEEEEEEEEEEEE",
"EEEEEEEEEEEEEEEEEEEEEEEEEEkcMCbxla4:%$EEEEEEEEEEEEEEEEEEEEEEEEEE",
"EEEEEEEEEEEEEEEEEEEEEEEEzBGPSxmSLIUCp3%+EEEEEEEEEEEEEEEEEEEEEEEE",
"EEEEEEEEEEEEEEEEEEEEEEEmCVnlgHTTYYYTRIx6%-EEEEEEEEEEEEEEEEEEEEEE",
"EEEEEEEEEEEEEEEEEEEEEhfq>%O%bRYYYYYYYTRKdlkEEEEEEEEEEEEEEEEEEEEE",
"EEEEEEEEEEEEEEEEEEEEk9$    XgRYYYYYYYYYTbGPZEEEEEEEEEEEEEEEEEEEE",
"EEEEEEEEEEEEEEEEEEEcd+      tRYYYYYYYYYTSbTIDEEEEEEEEEEEEEEEEEEE",
"EEEEEEEEEEEEEEEEEEzV1       4YTTYYYYYYYTGcTYPSEEEEEEEEEEEEEEEEEE",
"EEEEEEEEEEEEEEEEEECfo      .5cMHUTTYYTRYbsUYYPCEEEEEEEEEEEEEEEEE",
"EEEEEEEEEEEEEEEEEbH6      +tHJCxlVPTRHf5$@sTYYHEEEEEEEEEEEEEEEEE",
"EEEEEEEEEEEEEEEEESA-     *gTTTTYKblxy;X   #gRYICEEEEEEEEEEEEEEEE",
"EEEEEEEEEEEEEEEEbDkf2o  ;bRYYYYYTTIu.      =VTYGEEEEEEEEEEEEEEEE",
"EEEEEEEEEEEEEEEEVcSRPg1:bRYYYYYYYYRgX       4PTHkEEEEEEEEEEEEEEE",
"EEEEEEEEEEEEEEEEbbYYYRFlRYYYYYYYYYTbO       XdICiEEEEEEEEEEEEEEE",
"EEEEEEEEEEEEEEEckJTYYTJcTYYYYYYYYYTS%        4xdqEEEEEEEEEEEEEEE",
"EEEEEEEEEEEEEEEplYYYYTKlIYYYYYYYYYYP:        tJxdEEEEEEEEEEEEEEE",
"EEEEEEEEEEEEEEE8cTYYYYUlKYYYYYYYYYYY5       +cVlxEEEEEEEEEEEEEEE",
"EEEEEEEEEEEEEEE4xTYYYYTlHTYYYYYYYYYRt       4FxlxEEEEEEEEEEEEEEE",
"EEEEEEEEEEEEEEE,gRYYYYTMVTYYYYYYYYTFd0=X   #knllxEEEEEEEEEEEEEEE",
"EEEEEEEEEEEEEEE<uTYYYYTDbRYYYYYYYTCkHTGgw>%yVlllxEEEEEEEEEEEEEEE",
"EEEEEEEEEEEEEEE>7YYYYYTS9gIRTYYYYVlKTYTRTIlxxlllxEEEEEEEEEEEEEEE",
"EEEEEEEEEEEEEEEE>FTYYTI9 o1aSYRUcxITYYYYYYMalllxcEEEEEEEEEEEEEEE",
"EEEEEEEEEEEEEEEE=gRTYRaX   .&6skMYYYYYYYUAkilllxEEEEEEEEEEEEEEEE",
"EEEEEEEEEEEEEEEE4dCLTV&       XiRYYYYYYLNljilllxEEEEEEEEEEEEEEEE",
"EEEEEEEEEEEEEEEEEGScM5         yRYYYTUFvllkikllcEEEEEEEEEEEEEEEE",
"EEEEEEEEEEEEEEEEESUUF3         qRYYUHMxllllalxcEEEEEEEEEEEEEEEEE",
"EEEEEEEEEEEEEEEEEEKYRb$        7TLDnxllllxg679tEEEEEEEEEEEEEEEEE",
"EEEEEEEEEEEEEEEEEEbSJPuX       <Mcllllllxk3.  EEEEEEEEEEEEEEEEEE",
"EEEEEEEEEEEEEEEEEEEkxcx4.      -gxlllllxf2.  EEEEEEEEEEEEEEEEEEE",
"EEEEEEEEEEEEEEEEEEEEkzxk3X.Xo$,qudklxxli;   .EEEEEEEEEEEEEEEEEEE",
"EEEEEEEEEEEEEEEEEEEEEkzxg0eyaflxgitypi4O   XEEEEEEEEEEEEEEEEEEEE",
"EEEEEEEEEEEEEEEEEEEEEEEzkaxxxxlllxkfd2   .EEEEEEEEEEEEEEEEEEEEEE",
"EEEEEEEEEEEEEEEEEEEEEEEEgsxlllllllllc6 ..EEEEEEEEEEEEEEEEEEEEEEE",
"EEEEEEEEEEEEEEEEEEEEEEEEEExxxxllllllx7.EEEEEEEEEEEEEEEEEEEEEEEEE",
"EEEEEEEEEEEEEEEEEEEEEEEEEEEEEEExxxEEEEEEEEEEEEEEEEEEEEEEEEEEEEEE",
"EEEEEEEEEEEEEEEEEEEEEEEEEEEEEEEEEEEEEEEEEEEEEEEEEEEEEEEEEEEEEEEE",
"EEEEEEEEEEEEEEEEEEEEEEEEEEEEEEEEEEEEEEEEEEEEEEEEEEEEEEEEEEEEEEEE",
"EEEEEEEEEEEEEEEEEEEEEEEEEEEEEEEEEEEEEEEEEEEEEEEEEEEEEEEEEEEEEEEE",
"EEEEEEEEEEEEEEEEEEEEEEEEEEEEEEEEEEEEEEEEEEEEEEEEEEEEEEEEEEEEEEEE",
"EEEEEEEEEEEEEEEEEEEEEEEEEEEEEEEEEEEEEEEEEEEEEEEEEEEEEEEEEEEEEEEE",
"EEEEEEEEEEEEEEEEEEEEEEEEEEEEEEEEEEEEEEEEEEEEEEEEEEEEEEEEEEEEEEEE",
"EEEEEEEEEEEEEEEEEEEEEEEEEEEEEEEEEEEEEEEEEEEEEEEEEEEEEEEEEEEEEEEE",
"EEEEEEEEEEEEEEEEEEEEEEEEEEEEEEEEEEEEEEEEEEEEEEEEEEEEEEEEEEEEEEEE",
"EEEEEEEEEEEEEEEEEEEEEEEEEEEEEEEEEEEEEEEEEEEEEEEEEEEEEEEEEEEEEEEE",
"EEEEEEEEEEEEEEEEEEEEEEEEEEEEEEEEEEEEEEEEEEEEEEEEEEEEEEEEEEEEEEEE",
"EEEEEEEEEEEEEEEEEEEEEEEEEEEEEEEEEEEEEEEEEEEEEEEEEEEEEEEEEEEEEEEE",
"EEEEEEEEEEEEEEEEEEEEEEEEEEEEEEEEEEEEEEEEEEEEEEEEEEEEEEEEEEEEEEEE"
};
