/* XPM */
static char *result[] = {
/* columns rows colors chars-per-pixel */
"64 64 76 1 ",
"  c black",
". c gray4",
"X c #10100F",
"o c #141413",
"O c #1A1A19",
"+ c #20201F",
"@ c #252524",
"# c #282827",
"$ c #2D2D2B",
"% c #30302D",
"& c #353533",
"* c #3E3E3C",
"= c #41413F",
"- c #454542",
"; c #484845",
": c #4D4D4A",
"> c #545452",
", c #5A5A57",
"< c #5B5B59",
"1 c #63635F",
"2 c #676763",
"3 c #686864",
"4 c #6D6D69",
"5 c #72726F",
"6 c #757571",
"7 c #7B7B76",
"8 c #7F7F7A",
"9 c #84847F",
"0 c #868682",
"q c #8C8C86",
"w c #8E8E88",
"e c #93938D",
"r c #969691",
"t c #9B9B94",
"y c #9F9F98",
"u c #A2A29C",
"i c #A7A7A1",
"p c #AAAAA3",
"a c #AEAEA8",
"s c #B4B4AC",
"d c #B7B7B0",
"f c #BBBBB3",
"g c #BFBFB8",
"h c #C0C0B7",
"j c #C4C4BD",
"k c #C8C8BF",
"l c #C7C7C1",
"z c #CACAC2",
"x c #CFCFC8",
"c c #D0D0C7",
"v c #D1D1C9",
"b c #D3D3CC",
"n c #D4D4CC",
"m c #D6D6CD",
"M c #D7D7CF",
"N c #D8D8CF",
"B c #D9D9D2",
"V c #DCDCD3",
"C c #DBDBD4",
"Z c #DEDED7",
"A c #E0E0D7",
"S c #E1E1D9",
"D c #E4E4DB",
"F c #E5E5DC",
"G c #E9E9DF",
"H c #EBEBE1",
"J c #ECECE3",
"K c #EEEEE5",
"L c #F1F1E7",
"P c #F3F3EA",
"I c #F5F5EB",
"U c #F7F7ED",
"Y c #F8F8EE",
"T c #FBFBF1",
"R c #FDFDF2",
"E c #11498E",
/* pixels */
"EEEEEEEEEEEEEEEEEEEEEEEEEEEEEEEEEEEEEEEEEEEEEEEEEEEEEEEEEEEEEEEE",
"EEEEEEEEEEEEEEEEEEEEEEEEEEEEEEEEEEEEEEEEEEEEEEEEEEEEEEEEEEEEEEEE",
"EEEEEEEEEEEEEEEEEEEEEEEEEEEEEEEEEEEEEEEEEEEEEEEEEEEEEEEEEEEEEEEE",
"EEEEEEEEEEEEEEEEEEEEEEEEEEEEEEEEEEEEEEEEEEEEEEEEEEEEEEEEEEEEEEEE",
"EEEEEEEEEEEEEEEEEEEEEEEEEEEEEEEEEEEEEEEEEEEEEEEEEEEEEEEEEEEEEEEE",
"EEEEEEEEEEEEEEEEEEEEEEEEEEEEEEEEEEEEEEEEEEEEEEEEEEEEEEEEEEEEEEEE",
"EEEEEEEEEEEEEEEEEEEEEEEEEEEEEEEEEEEEEEEEEEEEEEEEEEEEEEEEEEEEEEEE",
"EEEEEEEEEEEEEEEEEEEEEEEEEEEEEEEEEEEEEEEEEEEEEEEEEEEEEEEEEEEEEEEE",
"EEEEEEEEEEEEEEEEEEEEEEEEEEEEEEEEEEEEEEEEEEEEEEEEEEEEEEEEEEEEEEEE",
"EEEEEEEEEEEEEEEEEEEEEEEEEEEEEEEEEEEEEEEEEEEEEEEEEEEEEEEEEEEEEEEE",
"EEEEEEEEEEEEEEEEEEEEEEEEEEEEEEEEEEEEEEEEEEEEEEEEEEEEEEEEEEEEEEEE",
"EEEEEEEEEEEEEEEEEEEEEEEEEEEEEEEEEEEEEEEEEEEEEEEEEEEEEEEEEEEEEEEE",
"EEEEEEEEEEEEEEEEEEEEEEEEEEEEEEEEEEEEEEEEEEEEEEEEEEEEEEEEEEEEEEEE",
"EEEEEEEEEEEEEEEEEEEEEEEEEEEEEEEEEEEEEEEEEEEEEEEEEEEEEEEEEEEEEEEE",
"EEEEEEEEEEEEEEEEEEEEEEEEEEEEEEEEEEEEEEEEEEEEEEEEEEEEEEEEEEEEEEEE",
"EEEEEEEEEEEEEEEEEEEEEEEEEEEEEEEEEEEEEEEEEEEEEEEEEEEEEEEEEEEEEEEE",
"EEEEEEEEEEEEEEEEEEEEEEEEEEExMZZZBvxxz0EEEEEEEEEEEEEEEEEEEEEEEEEE",
"EEEEEEEEEEEEEEEEEEEEEEEEgjhjxBHBzzxxxu>$EEEEEEEEEEEEEEEEEEEEEEEE",
"EEEEEEEEEEEEEEEEEEEEEEEh5=+oo#:dKYTTYTZ8$#EEEEEEEEEEEEEEEEEEEEEE",
"EEEEEEEEEEEEEEEEEEEEEjb6.     ovRYYYYYTYf-OEEEEEEEEEEEEEEEEEEEEE",
"EEEEEEEEEEEEEEEEEEEElZq.      OvRYYYYYYYRV<OEEEEEEEEEEEEEEEEEEEE",
"EEEEEEEEEEEEEEEEEEElSdO       OvRYYYYYYYYRV75EEEEEEEEEEEEEEEEEEE",
"EEEEEEEEEEEEEEEEEElSS:        #vRTYYYYYYYTKzKvEEEEEEEEEEEEEEEEEE",
"EEEEEEEEEEEEEEEEEEBVg4.     @4szvLTYYYYYYTKzTKBEEEEEEEEEEEEEEEEE",
"EEEEEEEEEEEEEEEEEvvzLK9.  +8mYRUZhBYTYYYYTJjTYHEEEEEEEEEEEEEEEEE",
"EEEEEEEEEEEEEEEEExzPTTIt#2xTTYYYTPzzPRRRRISzTYISEEEEEEEEEEEEEEEE",
"EEEEEEEEEEEEEEEEsgKTYYTUaKTYYYYYYTYBhvse6,=eTYYHEEEEEEEEEEEEEEEE",
"EEEEEEEEEEEEEEEE8AYYYYTHxYYYYYYYYYYRz$.    #vTTHjEEEEEEEEEEEEEEE",
"EEEEEEEEEEEEEEEEqUYYYYTAvRYYYYYYYYYRjo      5YTSjEEEEEEEEEEEEEEE",
"EEEEEEEEEEEEEEE<eTYYYYTZxRYYYYYYYYYRs.      +vYmjEEEEEEEEEEEEEEE",
"EEEEEEEEEEEEEEE>uTYYYYTAmTYYYYYYYYYRi        wKzjEEEEEEEEEEEEEEE",
"EEEEEEEEEEEEEEE:pRYYYYTvvTYYYYYYYYYRe        :vzlEEEEEEEEEEEEEEE",
"EEEEEEEEEEEEEEE;uRYYYYTNmTYYYYYYYYYT9        #udsEEEEEEEEEEEEEEE",
"EEEEEEEEEEEEEEE-eRYYYTTgdRYYYYYYYYTT6        >dse=EEEEEEEEEEEEEE",
"EEEEEEEEEEEEEEE>rUTYTUu+#aUTYYYYTTKxt#      @pzzgEEEEEEEEEEEEEEE",
"EEEEEEEEEEEEEEEsnmPTPqo  o7DRYTTLvhBUv2o   oqzkkjEEEEEEEEEEEEEEE",
"EEEEEEEEEEEEEEEEKFxZ8.     *sPLmjBITYRIs:.o8kkkkzEEEEEEEEEEEEEEE",
"EEEEEEEEEEEEEEEEFYPpo       .2hVPTYYYYTRKe0kkkkzEEEEEEEEEEEEEEEE",
"EEEEEEEEEEEEEEEESIRB#        #SRYYYYYYTPZsszkkkzEEEEEEEEEEEEEEEE",
"EEEEEEEEEEEEEEEEEKYU3        ;PYYYYYTYGvzsszkkkxEEEEEEEEEEEEEEEE",
"EEEEEEEEEEEEEEEEEFURdX       2UYYYTUJNzkkpszkkzEEEEEEEEEEEEEEEEE",
"EEEEEEEEEEEEEEEEEEKTP,       0RTYPFmzkkkkuhkkkxEEEEEEEEEEEEEEEEE",
"EEEEEEEEEEEEEEEEEECFLj@      tPFBczjkkkkjthkkzEEEEEEEEEEEEEEEEEE",
"EEEEEEEEEEEEEEEEEEEjzx9:&@OO#exkjkkkkkkzsekzzEEEEEEEEEEEEEEEEEEE",
"EEEEEEEEEEEEEEEEEEEEjgpjgdsssepjzkkkkzzu-@>8EEEEEEEEEEEEEEEEEEEE",
"EEEEEEEEEEEEEEEEEEEEEadzzzzzzhytsjzzju1O   EEEEEEEEEEEEEEEEEEEEE",
"EEEEEEEEEEEEEEEEEEEEEEhzjkkkkkkstrt7;o    EEEEEEEEEEEEEEEEEEEEEE",
"EEEEEEEEEEEEEEEEEEEEEEEEzzkkkkkzks%     .EEEEEEEEEEEEEEEEEEEEEEE",
"EEEEEEEEEEEEEEEEEEEEEEEEEEzzzzkkzuo  ..EEEEEEEEEEEEEEEEEEEEEEEEE",
"EEEEEEEEEEEEEEEEEEEEEEEEEEEEEEEEEEEEEEEEEEEEEEEEEEEEEEEEEEEEEEEE",
"EEEEEEEEEEEEEEEEEEEEEEEEEEEEEEEEEEEEEEEEEEEEEEEEEEEEEEEEEEEEEEEE",
"EEEEEEEEEEEEEEEEEEEEEEEEEEEEEEEEEEEEEEEEEEEEEEEEEEEEEEEEEEEEEEEE",
"EEEEEEEEEEEEEEEEEEEEEEEEEEEEEEEEEEEEEEEEEEEEEEEEEEEEEEEEEEEEEEEE",
"EEEEEEEEEEEEEEEEEEEEEEEEEEEEEEEEEEEEEEEEEEEEEEEEEEEEEEEEEEEEEEEE",
"EEEEEEEEEEEEEEEEEEEEEEEEEEEEEEEEEEEEEEEEEEEEEEEEEEEEEEEEEEEEEEEE",
"EEEEEEEEEEEEEEEEEEEEEEEEEEEEEEEEEEEEEEEEEEEEEEEEEEEEEEEEEEEEEEEE",
"EEEEEEEEEEEEEEEEEEEEEEEEEEEEEEEEEEEEEEEEEEEEEEEEEEEEEEEEEEEEEEEE",
"EEEEEEEEEEEEEEEEEEEEEEEEEEEEEEEEEEEEEEEEEEEEEEEEEEEEEEEEEEEEEEEE",
"EEEEEEEEEEEEEEEEEEEEEEEEEEEEEEEEEEEEEEEEEEEEEEEEEEEEEEEEEEEEEEEE",
"EEEEEEEEEEEEEEEEEEEEEEEEEEEEEEEEEEEEEEEEEEEEEEEEEEEEEEEEEEEEEEEE",
"EEEEEEEEEEEEEEEEEEEEEEEEEEEEEEEEEEEEEEEEEEEEEEEEEEEEEEEEEEEEEEEE",
"EEEEEEEEEEEEEEEEEEEEEEEEEEEEEEEEEEEEEEEEEEEEEEEEEEEEEEEEEEEEEEEE",
"EEEEEEEEEEEEEEEEEEEEEEEEEEEEEEEEEEEEEEEEEEEEEEEEEEEEEEEEEEEEEEEE",
"EEEEEEEEEEEEEEEEEEEEEEEEEEEEEEEEEEEEEEEEEEEEEEEEEEEEEEEEEEEEEEEE"
};
