/* XPM */
static char *result[] = {
/* columns rows colors chars-per-pixel */
"64 64 75 1 ",
"  c black",
". c #080807",
"X c #0C0C0B",
"o c #10100F",
"O c #141413",
"+ c #181817",
"@ c #1C1C1B",
"# c #20201E",
"$ c #252524",
"% c #282826",
"& c #2C2C2B",
"* c #30302E",
"= c #353533",
"- c #383836",
"; c #3B3B39",
": c #42423F",
"> c #444442",
", c #494946",
"< c #4E4E4A",
"1 c #51514F",
"2 c #555552",
"3 c #585855",
"4 c #5F5F5B",
"5 c #60605C",
"6 c #646460",
"7 c #6A6A65",
"8 c #6D6D68",
"9 c #73736E",
"0 c #757571",
"q c #797974",
"w c #7E7E78",
"e c #83837D",
"r c #868681",
"t c #8A8A84",
"y c #8E8E88",
"u c #93938D",
"i c #969690",
"p c #9A9A94",
"a c #9E9E99",
"s c #A3A39C",
"d c #A7A7A0",
"f c #ACACA5",
"g c #AFAFA8",
"h c #B2B2AB",
"j c #BCBCB4",
"k c #BFBFB8",
"l c #C4C4BC",
"z c #C8C8BF",
"x c #C7C7C0",
"c c #CACAC2",
"v c #CFCFC8",
"b c #D0D0C7",
"n c #D1D1CA",
"m c #D4D4CC",
"M c #D7D7CF",
"N c #D7D7D0",
"B c #D9D9D1",
"V c #DCDCD3",
"C c #DFDFD7",
"Z c #E0E0D7",
"A c #E2E2D9",
"S c #E4E4DA",
"D c #E6E6DE",
"F c #E8E8DF",
"G c #EBEBE1",
"H c #EDEDE3",
"J c #EFEFE5",
"K c #F2F2E7",
"L c #F3F3EA",
"P c #F4F4EA",
"I c #F7F7ED",
"U c #F9F9EF",
"Y c #FAFAF0",
"T c #FCFCF2",
"R c #11498E",
/* pixels */
"RRRRRRRRRRRRRRRRRRRRRRRRRRRRRRRRRRRRRRRRRRRRRRRRRRRRRRRRRRRRRRRR",
"RRRRRRRRRRRRRRRRRRRRRRRRRRRRRRRRRRRRRRRRRRRRRRRRRRRRRRRRRRRRRRRR",
"RRRRRRRRRRRRRRRRRRRRRRRRRRRRRRRRRRRRRRRRRRRRRRRRRRRRRRRRRRRRRRRR",
"RRRRRRRRRRRRRRRRRRRRRRRRRRRRRRRRRRRRRRRRRRRRRRRRRRRRRRRRRRRRRRRR",
"RRRRRRRRRRRRRRRRRRRRRRRRRRRRRRRRRRRRRRRRRRRRRRRRRRRRRRRRRRRRRRRR",
"RRRRRRRRRRRRRRRRRRRRRRRRRRRRRRRRRRRRRRRRRRRRRRRRRRRRRRRRRRRRRRRR",
"RRRRRRRRRRRRRRRRRRRRRRRRRRRRRRRRRRRRRRRRRRRRRRRRRRRRRRRRRRRRRRRR",
"RRRRRRRRRRRRRRRRRRRRRRRRRRRRRRRRRRRRRRRRRRRRRRRRRRRRRRRRRRRRRRRR",
"RRRRRRRRRRRRRRRRRRRRRRRRRRRRRRRRRRRRRRRRRRRRRRRRRRRRRRRRRRRRRRRR",
"RRRRRRRRRRRRRRRRRRRRRRRRRRRRRRRRRRRRRRRRRRRRRRRRRRRRRRRRRRRRRRRR",
"RRRRRRRRRRRRRRRRRRRRRRRRRRRRRRRRRRRRRRRRRRRRRRRRRRRRRRRRRRRRRRRR",
"RRRRRRRRRRRRRRRRRRRRRRRRRRRRRRRRRRRRRRRRRRRRRRRRRRRRRRRRRRRRRRRR",
"RRRRRRRRRRRRRRRRRRRRRRRRRRRRRRRRRRRRRRRRRRRRRRRRRRRRRRRRRRRRRRRR",
"RRRRRRRRRRRRRRRRRRRRRRRRRRRRRRRRRRRRRRRRRRRRRRRRRRRRRRRRRRRRRRRR",
"RRRRRRRRRRRRRRRRRRRRRRRRRRRRRRRRRRRRRRRRRRRRRRRRRRRRRRRRRRRRRRRR",
"RRRRRRRRRRRRRRRRRRRRRRRRRRRRRRRRRRRRRRRRRRRRRRRRRRRRRRRRRRRRRRRR",
"RRRRRRRRRRRRRRRRRRRRRRRRRRRRRRRRRRRRRRRRRRRRRRRRRRRRRRRRRRRRRRRR",
"RRRRRRRRRRRRRRRRRRRRRRRRRRRRRRRRRRRRRRRRRRRRRRRRRRRRRRRRRRRRRRRR",
"RRRRRRRRRRRRRRRRRRRRRRRRRRRRRRRRRRRRRRRRRRRRRRRRRRRRRRRRRRRRRRRR",
"RRRRRRRRRRRRRRRRRRRRRRRRRRRRRRRRRRRRRRRRRRRRRRRRRRRRRRRRRRRRRRRR",
"RRRRRRRRRRRRRRRRRRRRRRRRRRRRcvnmnmnmuRRRRRRRRRRRRRRRRRRRRRRRRRRR",
"RRRRRRRRRRRRRRRRRRRRRRRRRlNAGKLLPLLLj@.XRRRRRRRRRRRRRRRRRRRRRRRR",
"RRRRRRRRRRRRRRRRRRRRRRRpdFPUUUUUUUYTG=  .XRRRRRRRRRRRRRRRRRRRRRR",
"RRRRRRRRRRRRRRRRRRRRRRnDnJYYUUUUUYLCl0@   .RRRRRRRRRRRRRRRRRRRRR",
"RRRRRRRRRRRRRRRRRRRRRNJUAMADLUTYKMlMGLv8O  .RRRRRRRRRRRRRRRRRRRR",
"RRRRRRRRRRRRRRRRRRRRBLUYh;&&:7dbcCPYYYYIh=  .RRRRRRRRRRRRRRRRRRR",
"RRRRRRRRRRRRRRRRRRRMKUYk$     .ePYUUUUUUYM< .&RRRRRRRRRRRRRRRRRR",
"RRRRRRRRRRRRRRRRRRnHUYC;       qTUUUUUUUUTB5yvRRRRRRRRRRRRRRRRRR",
"RRRRRRRRRRRRRRRRRcDUUI0        8TUUUUUUUUUUlKYDRRRRRRRRRRRRRRRRR",
"RRRRRRRRRRRRRRRRRBPUTkO        8TUUUUUUUUUYlDYLCRRRRRRRRRRRRRRRR",
"RRRRRRRRRRRRRRRRcGUUD3         8TUUUUUUUUUYcVYUFRRRRRRRRRRRRRRRR",
"RRRRRRRRRRRRRRRRgLFcc0         7TUUUUUUUUUYvVYYHRRRRRRRRRRRRRRRR",
"RRRRRRRRRRRRRRRR0nlDYG2       @tnLYUUUUUUUYcSYUDlRRRRRRRRRRRRRRR",
"RRRRRRRRRRRRRRR1-kIYUYB;    +8cLMlBIYUUUYTGhHYUBlRRRRRRRRRRRRRRR",
"RRRRRRRRRRRRRRR=,JYUUUYl% @8lITUYJccGYTUCp>&lTKvlRRRRRRRRRRRRRRR",
"RRRRRRRRRRRRRRR=6YUUUUUYh9cITUUUUYUSlMcq&.  <HZlcRRRRRRRRRRRRRRR",
"RRRRRRRRRRRRRRR;9YUUUUUYMBTUUUUUUUUYId@     .anlcRRRRRRRRRRRRRRR",
"RRRRRRRRRRRRRRR=0YUUUUUYnVYUUUUUUUUUTkX      -kccRRRRRRRRRRRRRRR",
"RRRRRRRRRRRRRRR;qYUUUUUUvDYUUUUUUUUUTlO      .uljRRRRRRRRRRRRRRR",
"RRRRRRRRRRRRRRR>qYUUUUUUcGYUUUUUUUUUThX       4fhRRRRRRRRRRRRRRR",
"RRRRRRRRRRRRRRRRtLUUUUUUlFYUUUUUUUUUTg.      XiccRRRRRRRRRRRRRRR",
"RRRRRRRRRRRRRRRRcBYUUUUUvGYUUUUUUUUUTs.      ,lcvRRRRRRRRRRRRRRR",
"RRRRRRRRRRRRRRRRCvGYUUYTvDYUUUUUUUUUTr      @sccRRRRRRRRRRRRRRRR",
"RRRRRRRRRRRRRRRRRAcKYYLg,rJYUUUUUUYIVt%.   .wczvRRRRRRRRRRRRRRRR",
"RRRRRRRRRRRRRRRRRGAlAl4X .5mYYUUYUSlcBjr2%o4lzcvRRRRRRRRRRRRRRRR",
"RRRRRRRRRRRRRRRRRRLJh$     %uDTISlkbncccljyhczcRRRRRRRRRRRRRRRRR",
"RRRRRRRRRRRRRRRRRRDLS=      .;pkjlvclzzzzchjccRRRRRRRRRRRRRRRRRR",
"RRRRRRRRRRRRRRRRRRRvM0        ;kcczzzzzzzzgjcbRRRRRRRRRRRRRRRRRR",
"RRRRRRRRRRRRRRRRRRRRlh*       1zzzzzzzzzzlglcRRRRRRRRRRRRRRRRRRR",
"RRRRRRRRRRRRRRRRRRRRRxuO      8czzzzzzzccp5sRRRRRRRRRRRRRRRRRRRR",
"RRRRRRRRRRRRRRRRRRRRRRxr@.    tczzzzzccj8#@RRRRRRRRRRRRRRRRRRRRR",
"RRRRRRRRRRRRRRRRRRRRRRRRau93<2yhllzcckr;@RRRRRRRRRRRRRRRRRRRRRRR",
"RRRRRRRRRRRRRRRRRRRRRRRRRvvccckgdsssw,$RRRRRRRRRRRRRRRRRRRRRRRRR",
"RRRRRRRRRRRRRRRRRRRRRRRRRRRRcccclkktRRRRRRRRRRRRRRRRRRRRRRRRRRRR",
"RRRRRRRRRRRRRRRRRRRRRRRRRRRRRRRRRRRRRRRRRRRRRRRRRRRRRRRRRRRRRRRR",
"RRRRRRRRRRRRRRRRRRRRRRRRRRRRRRRRRRRRRRRRRRRRRRRRRRRRRRRRRRRRRRRR",
"RRRRRRRRRRRRRRRRRRRRRRRRRRRRRRRRRRRRRRRRRRRRRRRRRRRRRRRRRRRRRRRR",
"RRRRRRRRRRRRRRRRRRRRRRRRRRRRRRRRRRRRRRRRRRRRRRRRRRRRRRRRRRRRRRRR",
"RRRRRRRRRRRRRRRRRRRRRRRRRRRRRRRRRRRRRRRRRRRRRRRRRRRRRRRRRRRRRRRR",
"RRRRRRRRRRRRRRRRRRRRRRRRRRRRRRRRRRRRRRRRRRRRRRRRRRRRRRRRRRRRRRRR",
"RRRRRRRRRRRRRRRRRRRRRRRRRRRRRRRRRRRRRRRRRRRRRRRRRRRRRRRRRRRRRRRR",
"RRRRRRRRRRRRRRRRRRRRRRRRRRRRRRRRRRRRRRRRRRRRRRRRRRRRRRRRRRRRRRRR",
"RRRRRRRRRRRRRRRRRRRRRRRRRRRRRRRRRRRRRRRRRRRRRRRRRRRRRRRRRRRRRRRR",
"RRRRRRRRRRRRRRRRRRRRRRRRRRRRRRRRRRRRRRRRRRRRRRRRRRRRRRRRRRRRRRRR"
};
