/* XPM */
static char *result[] = {
/* columns rows colors chars-per-pixel */
"64 64 71 1 ",
"  c #010101",
". c #0C0C0B",
"X c #171716",
"o c #181817",
"O c #1B1B1A",
"+ c #20201F",
"@ c #262625",
"# c #2C2C2B",
"$ c #30302E",
"% c #343433",
"& c #383836",
"* c #3D3D3A",
"= c #42423F",
"- c #444442",
"; c #484845",
": c #4E4E4B",
"> c #51514D",
", c #565652",
"< c #5C5C58",
"1 c #61615E",
"2 c #666662",
"3 c #6B6B68",
"4 c #71716C",
"5 c #767671",
"6 c #7A7A76",
"7 c #7E7E79",
"8 c #83837D",
"9 c #868680",
"0 c #8A8A83",
"q c #8E8E89",
"w c #92928C",
"e c #969690",
"r c #9B9B95",
"t c #9E9E98",
"y c #A2A29C",
"u c #ADADA6",
"i c #AFAFA8",
"p c #B3B3AC",
"a c #B7B7B2",
"s c #BDBDB5",
"d c #BFBFB8",
"f c #C4C4BC",
"g c #C8C8BF",
"h c #C7C7C0",
"j c #CBCBC2",
"k c #CECEC8",
"l c #D0D0C7",
"z c #D4D4CC",
"x c #D8D8CF",
"c c #D6D6D0",
"v c #DADAD2",
"b c #DCDCD3",
"n c #DBDBD4",
"m c #DCDCD4",
"M c #E0E0D7",
"N c #E0E0D8",
"B c #E4E4DB",
"V c #E5E5DC",
"C c #E9E9DF",
"Z c #EAEAE0",
"A c #ECECE2",
"S c #EFEFE5",
"D c #F1F1E7",
"F c #F3F3E9",
"G c #F4F4EA",
"H c #F7F7ED",
"J c #F9F9EF",
"K c #FBFBF1",
"L c #FCFCF2",
"P c #FEFEF4",
"I c #11498E",
/* pixels */
"IIIIIIIIIIIIIIIIIIIIIIIIIIIIIIIIIIIIIIIIIIIIIIIIIIIIIIIIIIIIIIII",
"IIIIIIIIIIIIIIIIIIIIIIIIIIIIIIIIIIIIIIIIIIIIIIIIIIIIIIIIIIIIIIII",
"IIIIIIIIIIIIIIIIIIIIIIIIIIIIIIIIIIIIIIIIIIIIIIIIIIIIIIIIIIIIIIII",
"IIIIIIIIIIIIIIIIIIIIIIIIIIIIIIIIIIIIIIIIIIIIIIIIIIIIIIIIIIIIIIII",
"IIIIIIIIIIIIIIIIIIIIIIIIIIIIIIIIIIIIIIIIIIIIIIIIIIIIIIIIIIIIIIII",
"IIIIIIIIIIIIIIIIIIIIIIIIIIIIIIIIIIIIIIIIIIIIIIIIIIIIIIIIIIIIIIII",
"IIIIIIIIIIIIIIIIIIIIIIIIIIIIIIIIIIIIIIIIIIIIIIIIIIIIIIIIIIIIIIII",
"IIIIIIIIIIIIIIIIIIIIIIIIIIIIIIIIIIIIIIIIIIIIIIIIIIIIIIIIIIIIIIII",
"IIIIIIIIIIIIIIIIIIIIIIIIIIIIIIIIIIIIIIIIIIIIIIIIIIIIIIIIIIIIIIII",
"IIIIIIIIIIIIIIIIIIIIIIIIIIIIIIIIIIIIIIIIIIIIIIIIIIIIIIIIIIIIIIII",
"IIIIIIIIIIIIIIIIIIIIIIIIIIIIIIIIIIIIIIIIIIIIIIIIIIIIIIIIIIIIIIII",
"IIIIIIIIIIIIIIIIIIIIIIIIIIIIIIIIIIIIIIIIIIIIIIIIIIIIIIIIIIIIIIII",
"IIIIIIIIIIIIIIIIIIIIIIIIIIIIIIIIIIIIIIIIIIIIIIIIIIIIIIIIIIIIIIII",
"IIIIIIIIIIIIIIIIIIIIIIIIIIIIIIIIIIIIIIIIIIIIIIIIIIIIIIIIIIIIIIII",
"IIIIIIIIIIIIIIIIIIIIIIIIIIIIIIIIIIIIIIIIIIIIIIIIIIIIIIIIIIIIIIII",
"IIIIIIIIIIIIIIIIIIIIIIIIIIIIIIIIIIIIIIIIIIIIIIIIIIIIIIIIIIIIIIII",
"IIIIIIIIIIIIIIIIIIIIIIIIIIIIIIIIIIIIIIIIIIIIIIIIIIIIIIIIIIIIIIII",
"IIIIIIIIIIIIIIIIIIIIIIIIIIIIIIIIIIIIIIIIIIIIIIIIIIIIIIIIIIIIIIII",
"IIIIIIIIIIIIIIIIIIIIIIIIIIIIIIIIIIIIIIIIIIIIIIIIIIIIIIIIIIIIIIII",
"IIIIIIIIIIIIIIIIIIIIIIIIIIIIIIIIIIIIIIIIIIIIIIIIIIIIIIIIIIIIIIII",
"IIIIIIIIIIIIIIIIIIIIIIIIIIIIIIIIIIIIIIIIIIIIIIIIIIIIIIIIIIIIIIII",
"IIIIIIIIIIIIIIIIIIIIIIIIIIIIIIIIIIIIIIIIIIIIIIIIIIIIIIIIIIIIIIII",
"IIIIIIIIIIIIIIIIIIIIIIIIIIIfkzvmmmmckyIIIIIIIIIIIIIIIIIIIIIIIIII",
"IIIIIIIIIIIIIIIIIIIIIIIII:dZSFHHJJGFDmryIIIIIIIIIIIIIIIIIIIIIIII",
"IIIIIIIIIIIIIIIIIIIIIII%@6zAJKKKLLPPKzVSmzIIIIIIIIIIIIIIIIIIIIII",
"IIIIIIIIIIIIIIIIIIIIII%,dNvhhNZzsuyyizKJGZnIIIIIIIIIIIIIIIIIIIII",
"IIIIIIIIIIIIIIIIIIII%#qALKKJZy*O.   .6FKJJSmIIIIIIIIIIIIIIIIIIII",
"IIIIIIIIIIIIIIIIIII-*pJKJJJJL8       .rKJJJDmIIIIIIIIIIIIIIIIIII",
"IIIIIIIIIIIIIIIIIII3fLJJJJJJF,        @zKJJJDmIIIIIIIIIIIIIIIIII",
"IIIIIIIIIIIIIIIIIIfhJJJJJJJKV#         5JJJJJAvIIIIIIIIIIIIIIIII",
"IIIIIIIIIIIIIIIIIkhBKJJJJJJKkX         #vKKJJJVIIIIIIIIIIIIIIIII",
"IIIIIIIIIIIIIIIIIvhGJJJJJJJPi.         :fkBHKJFaIIIIIIIIIIIIIIII",
"IIIIIIIIIIIIIIIIzmzJJJJJJKJmy&        ,mJZlfNKN;IIIIIIIIIIIIIIII",
"IIIIIIIIIIIIIIIIvmzKJJJJKSfhSVt-.    2VKJKKZff4 .IIIIIIIIIIIIIII",
"IIIIIIIIIIIIIIIIVZhKLJJKBdmJKKLAp<Oo0SKJJJJKKfO  IIIIIIIIIIIIIII",
"IIIIIIIIIIIIIIIkAV18kGLmfZKJJJJKLGfyHKJJJJJJKA*  IIIIIIIIIIIIIII",
"IIIIIIIIIIIIIIIcDr  O,yhFKJJJJJJJKHfFJJJJJJJKJ3  IIIIIIIIIIIIIII",
"IIIIIIIIIIIIIIIvm*    *CKJJJJJJJJJJfDJJJJJJJJL7  IIIIIIIIIIIIIII",
"IIIIIIIIIIIIIIImp.    *CKJJJJJJJJJJkVKJJJJJJJD6  IIIIIIIIIIIIIII",
"IIIIIIIIIIIIIIIm9     #NKJJJJJJJJJKvzKJJJJJJHv5  IIIIIIIIIIIIIII",
"IIIIIIIIIIIIIIIv3     OzKJJJJJJJJJKbzKJJJJJJNj4  IIIIIIIIIIIIIII",
"IIIIIIIIIIIIIIIa1     .sLJJJJJJJJJKNzKJJJJJVjd2. IIIIIIIIIIIIIII",
"IIIIIIIIIIIIIIIIpo     wPJJJJJJJJJLvrVLKJJZkfei0%IIIIIIIIIIIIIII",
"IIIIIIIIIIIIIIIIN4     3AKJJJJJJJLx,.*yAKCkdwuhhpIIIIIIIIIIIIIII",
"IIIIIIIIIIIIIIIINz$  .1ffzSKKJJKKd&   .;yfpeihghIIIIIIIIIIIIIIII",
"IIIIIIIIIIIIIIIIIDp+-iFLGvfkVHLAwO      .>ydhgghIIIIIIIIIIIIIIII",
"IIIIIIIIIIIIIIIIIVGivLJJJKGmghp:         >fhgghIIIIIIIIIIIIIIIII",
"IIIIIIIIIIIIIIIIIIFvmKJJJJJKJFw          8hgggkIIIIIIIIIIIIIIIII",
"IIIIIIIIIIIIIIIIIImNhGJJKKKJJJhO        #phgghIIIIIIIIIIIIIIIIII",
"IIIIIIIIIIIIIIIIIIIhpfvmMMMmxzh:        4hgggIIIIIIIIIIIIIIIIIII",
"IIIIIIIIIIIIIIIIIIIIayfgffffgghq.      #phggIIIIIIIIIIIIIIIIIIII",
"IIIIIIIIIIIIIIIIIIIIIeqfhggggghd%  ..O-8dggIIIIIIIIIIIIIIIIIIIII",
"IIIIIIIIIIIIIIIIIIIIII-2efhhghfiw00wrpffypIIIIIIIIIIIIIIIIIIIIII",
"IIIIIIIIIIIIIIIIIIIIIIII%;5ydduifhhhhhghfIIIIIIIIIIIIIIIIIIIIIII",
"IIIIIIIIIIIIIIIIIIIIIIIIII@@=rfggggggggIIIIIIIIIIIIIIIIIIIIIIIII",
"IIIIIIIIIIIIIIIIIIIIIIIIIIIIIIkhhhgIIIIIIIIIIIIIIIIIIIIIIIIIIIII",
"IIIIIIIIIIIIIIIIIIIIIIIIIIIIIIIIIIIIIIIIIIIIIIIIIIIIIIIIIIIIIIII",
"IIIIIIIIIIIIIIIIIIIIIIIIIIIIIIIIIIIIIIIIIIIIIIIIIIIIIIIIIIIIIIII",
"IIIIIIIIIIIIIIIIIIIIIIIIIIIIIIIIIIIIIIIIIIIIIIIIIIIIIIIIIIIIIIII",
"IIIIIIIIIIIIIIIIIIIIIIIIIIIIIIIIIIIIIIIIIIIIIIIIIIIIIIIIIIIIIIII",
"IIIIIIIIIIIIIIIIIIIIIIIIIIIIIIIIIIIIIIIIIIIIIIIIIIIIIIIIIIIIIIII",
"IIIIIIIIIIIIIIIIIIIIIIIIIIIIIIIIIIIIIIIIIIIIIIIIIIIIIIIIIIIIIIII",
"IIIIIIIIIIIIIIIIIIIIIIIIIIIIIIIIIIIIIIIIIIIIIIIIIIIIIIIIIIIIIIII",
"IIIIIIIIIIIIIIIIIIIIIIIIIIIIIIIIIIIIIIIIIIIIIIIIIIIIIIIIIIIIIIII"
};
