/* XPM */
static char *result[] = {
/* columns rows colors chars-per-pixel */
"64 64 72 1 ",
"  c black",
". c #080807",
"X c #0B0B0A",
"o c #10100F",
"O c #151515",
"+ c #1D1D1C",
"@ c #242423",
"# c #282827",
"$ c #2B2B29",
"% c #31312F",
"& c #353533",
"* c #3D3D3A",
"= c #464643",
"- c #4C4C4A",
"; c #52524E",
": c #555552",
"> c #5A5A56",
", c #5E5E5A",
"< c #62625E",
"1 c #666661",
"2 c #6C6C67",
"3 c #6E6E6A",
"4 c #70706C",
"5 c #747470",
"6 c #7B7B76",
"7 c #7D7D78",
"8 c #81817C",
"9 c #868680",
"0 c #8A8A85",
"q c #8E8E89",
"w c #92928B",
"e c #969690",
"r c #9B9B95",
"t c #9F9F98",
"y c #A2A29B",
"u c #A7A7A0",
"i c #ABABA4",
"p c #AFAFA8",
"a c #B5B5AE",
"s c #B8B8AF",
"d c #B7B7B1",
"f c #BCBCB4",
"g c #BFBFB8",
"h c #C4C4BC",
"j c #C8C8BF",
"k c #C7C7C1",
"l c #CBCBC2",
"z c #D0D0C7",
"x c #D2D2C9",
"c c #D5D5CD",
"v c #D8D8CF",
"b c #D7D7D0",
"n c #DADAD3",
"m c #DCDCD3",
"M c #DFDFD7",
"N c #E0E0D7",
"B c #E3E3D9",
"V c #E4E4DB",
"C c #E7E7DE",
"Z c #E8E8DF",
"A c #EBEBE1",
"S c #ECECE2",
"D c #EFEFE6",
"F c #F0F0E7",
"G c #F3F3E9",
"H c #F4F4EA",
"J c #F7F7ED",
"K c #FAFAEF",
"L c #FBFBF1",
"P c #FCFCF2",
"I c #FEFEF4",
"U c #11498E",
/* pixels */
"UUUUUUUUUUUUUUUUUUUUUUUUUUUUUUUUUUUUUUUUUUUUUUUUUUUUUUUUUUUUUUUU",
"UUUUUUUUUUUUUUUUUUUUUUUUUUUUUUUUUUUUUUUUUUUUUUUUUUUUUUUUUUUUUUUU",
"UUUUUUUUUUUUUUUUUUUUUUUUUUUUUUUUUUUUUUUUUUUUUUUUUUUUUUUUUUUUUUUU",
"UUUUUUUUUUUUUUUUUUUUUUUUUUUUUUUUUUUUUUUUUUUUUUUUUUUUUUUUUUUUUUUU",
"UUUUUUUUUUUUUUUUUUUUUUUUUUUUUUUUUUUUUUUUUUUUUUUUUUUUUUUUUUUUUUUU",
"UUUUUUUUUUUUUUUUUUUUUUUUUUUUUUUUUUUUUUUUUUUUUUUUUUUUUUUUUUUUUUUU",
"UUUUUUUUUUUUUUUUUUUUUUUUUUUUUUUUUUUUUUUUUUUUUUUUUUUUUUUUUUUUUUUU",
"UUUUUUUUUUUUUUUUUUUUUUUUUUUUUUUUUUUUUUUUUUUUUUUUUUUUUUUUUUUUUUUU",
"UUUUUUUUUUUUUUUUUUUUUUUUUUUUUUUUUUUUUUUUUUUUUUUUUUUUUUUUUUUUUUUU",
"UUUUUUUUUUUUUUUUUUUUUUUUUUUUUUUUUUUUUUUUUUUUUUUUUUUUUUUUUUUUUUUU",
"UUUUUUUUUUUUUUUUUUUUUUUUUUUUUUUUUUUUUUUUUUUUUUUUUUUUUUUUUUUUUUUU",
"UUUUUUUUUUUUUUUUUUUUUUUUUUUUUUUUUUUUUUUUUUUUUUUUUUUUUUUUUUUUUUUU",
"UUUUUUUUUUUUUUUUUUUUUUUUUUUUUUUUUUUUUUUUUUUUUUUUUUUUUUUUUUUUUUUU",
"UUUUUUUUUUUUUUUUUUUUUUUUUUUUUUUUUUUUUUUUUUUUUUUUUUUUUUUUUUUUUUUU",
"UUUUUUUUUUUUUUUUUUUUUUUUUUUqahlcbccccUUUUUUUUUUUUUUUUUUUUUUUUUUU",
"UUUUUUUUUUUUUUUUUUUUUUUUU,8alllhlclhhkldUUUUUUUUUUUUUUUUUUUUUUUU",
"UUUUUUUUUUUUUUUUUUUUUUU:<aFLKJHGm,+O+$*4lUUUUUUUUUUUUUUUUUUUUUUU",
"UUUUUUUUUUUUUUUUUUUUUU=7MPKKKKKLF*     .3nnUUUUUUUUUUUUUUUUUUUUU",
"UUUUUUUUUUUUUUUUUUUUU-rGLKKKKKKLB%      .8AMUUUUUUUUUUUUUUUUUUUU",
"UUUUUUUUUUUUUUUUUUUUffKLKKKKKKKLM#       OgGMUUUUUUUUUUUUUUUUUUU",
"UUUUUUUUUUUUUUUUUUUnBNLKKKKKKKLJh$        >FGMUUUUUUUUUUUUUUUUUU",
"UUUUUUUUUUUUUUUUUUxFCcLKKKKKLJnhlh6#      &fZSUUUUUUUUUUUUUUUUUU",
"UUUUUUUUUUUUUUUUUlCKCnIPLKKLChlDLPLn8@  X>lClcCUUUUUUUUUUUUUUUUU",
"UUUUUUUUUUUUUUUUUnHPl4yhBJKchCLKKKKLKl>#eDLLJlxMUUUUUUUUUUUUUUUU",
"UUUUUUUUUUUUUUUUlAKA: .o%,tlHLKKKKKKKPCfKLKKKHxnUUUUUUUUUUUUUUUU",
"UUUUUUUUUUUUUUUUnGLq.     <JLKKKKKKKKKHhJKKKKLDgUUUUUUUUUUUUUUUU",
"UUUUUUUUUUUUUUUUBKc#      4KKKKKKKKKKKHhJKKKKKPi$UUUUUUUUUUUUUUU",
"UUUUUUUUUUUUUUUlZK8       4KKKKKKKKKKKJhDKKKKKLi+UUUUUUUUUUUUUUU",
"UUUUUUUUUUUUUUUcDC&       3KKKKKKKKKKKKlSKKKKLGi+UUUUUUUUUUUUUUU",
"UUUUUUUUUUUUUUUlxa+       <JKKKKKKKKKKJhSKKKKKNi@UUUUUUUUUUUUUUU",
"UUUUUUUUUUUUUUUgMS,       ;GKKKKKKKKKKJhHKKKKDli+UUUUUUUUUUUUUUU",
"UUUUUUUUUUUUUUUcGPhO      *BLLKKKKKKLPc9CLKKJnli+UUUUUUUUUUUUUUU",
"UUUUUUUUUUUUUUUnGKJ5    X:alzDLKKKKPSr%.<ZLKVllrOUUUUUUUUUUUUUUU",
"UUUUUUUUUUUUUUUbDKLM* X-pDPJMhxDKLJg-.   <ZSlla9+UUUUUUUUUUUUUUU",
"UUUUUUUUUUUUUUUUDKKLh:yDPKKKLHnhzn6O      <hhuyf>UUUUUUUUUUUUUUU",
"UUUUUUUUUUUUUUUUZKKLBlPLKKKKKKLHM1        .>tihjuUUUUUUUUUUUUUUU",
"UUUUUUUUUUUUUUUUBJKLVcLKKKKKKKKKL1         =gljlUUUUUUUUUUUUUUUU",
"UUUUUUUUUUUUUUUUUFKLNxLKKKKKKKKKL6        XqljjlUUUUUUUUUUUUUUUU",
"UUUUUUUUUUUUUUUUUZKLBhKKKKKKKKKKL0        *gjjlUUUUUUUUUUUUUUUUU",
"UUUUUUUUUUUUUUUUUUFLHgHKKKKKKKKKPy       XwljjlUUUUUUUUUUUUUUUUU",
"UUUUUUUUUUUUUUUUUUBGHaBPKKKKKKHDZiX      ,hjjlUUUUUUUUUUUUUUUUUU",
"UUUUUUUUUUUUUUUUUUUp3$2cCVVBMvxlhr*O.  X=fljlUUUUUUUUUUUUUUUUUUU",
"UUUUUUUUUUUUUUUUUUUUX  *tjljjjhstiguewwrthjjlUUUUUUUUUUUUUUUUUUU",
"UUUUUUUUUUUUUUUUUUUUUX  O,yhhayyfjjlllllifhhUUUUUUUUUUUUUUUUUUUU",
"UUUUUUUUUUUUUUUUUUUUUUX   O=8yshjjjjjjjlf96UUUUUUUUUUUUUUUUUUUUU",
"UUUUUUUUUUUUUUUUUUUUUUUO.   ,lljjjjjjjjhtUUUUUUUUUUUUUUUUUUUUUUU",
"UUUUUUUUUUUUUUUUUUUUUUUUUX. #aljjjjjjjlUUUUUUUUUUUUUUUUUUUUUUUUU",
"UUUUUUUUUUUUUUUUUUUUUUUUUUUUOqljjjllUUUUUUUUUUUUUUUUUUUUUUUUUUUU",
"UUUUUUUUUUUUUUUUUUUUUUUUUUUUUUUUUUUUUUUUUUUUUUUUUUUUUUUUUUUUUUUU",
"UUUUUUUUUUUUUUUUUUUUUUUUUUUUUUUUUUUUUUUUUUUUUUUUUUUUUUUUUUUUUUUU",
"UUUUUUUUUUUUUUUUUUUUUUUUUUUUUUUUUUUUUUUUUUUUUUUUUUUUUUUUUUUUUUUU",
"UUUUUUUUUUUUUUUUUUUUUUUUUUUUUUUUUUUUUUUUUUUUUUUUUUUUUUUUUUUUUUUU",
"UUUUUUUUUUUUUUUUUUUUUUUUUUUUUUUUUUUUUUUUUUUUUUUUUUUUUUUUUUUUUUUU",
"UUUUUUUUUUUUUUUUUUUUUUUUUUUUUUUUUUUUUUUUUUUUUUUUUUUUUUUUUUUUUUUU",
"UUUUUUUUUUUUUUUUUUUUUUUUUUUUUUUUUUUUUUUUUUUUUUUUUUUUUUUUUUUUUUUU",
"UUUUUUUUUUUUUUUUUUUUUUUUUUUUUUUUUUUUUUUUUUUUUUUUUUUUUUUUUUUUUUUU",
"UUUUUUUUUUUUUUUUUUUUUUUUUUUUUUUUUUUUUUUUUUUUUUUUUUUUUUUUUUUUUUUU",
"UUUUUUUUUUUUUUUUUUUUUUUUUUUUUUUUUUUUUUUUUUUUUUUUUUUUUUUUUUUUUUUU",
"UUUUUUUUUUUUUUUUUUUUUUUUUUUUUUUUUUUUUUUUUUUUUUUUUUUUUUUUUUUUUUUU",
"UUUUUUUUUUUUUUUUUUUUUUUUUUUUUUUUUUUUUUUUUUUUUUUUUUUUUUUUUUUUUUUU",
"UUUUUUUUUUUUUUUUUUUUUUUUUUUUUUUUUUUUUUUUUUUUUUUUUUUUUUUUUUUUUUUU",
"UUUUUUUUUUUUUUUUUUUUUUUUUUUUUUUUUUUUUUUUUUUUUUUUUUUUUUUUUUUUUUUU",
"UUUUUUUUUUUUUUUUUUUUUUUUUUUUUUUUUUUUUUUUUUUUUUUUUUUUUUUUUUUUUUUU",
"UUUUUUUUUUUUUUUUUUUUUUUUUUUUUUUUUUUUUUUUUUUUUUUUUUUUUUUUUUUUUUUU"
};
