/* XPM */
static char *result[] = {
/* columns rows colors chars-per-pixel */
"64 64 71 1 ",
"  c black",
". c #0A0A09",
"X c #10100F",
"o c #131313",
"O c #1B1B1A",
"+ c #20201F",
"@ c #242423",
"# c #282826",
"$ c #2D2D2C",
"% c #353533",
"& c #3C3C3A",
"* c #41413F",
"= c #444442",
"- c #494945",
"; c #4C4C49",
": c #51514F",
"> c #545451",
", c #5A5A56",
"< c #5D5D5A",
"1 c #62625E",
"2 c #666662",
"3 c #6B6B67",
"4 c #6C6C68",
"5 c #72726E",
"6 c #777773",
"7 c #7B7B75",
"8 c #7E7E79",
"9 c #82827D",
"0 c #8A8A85",
"q c #8E8E89",
"w c #92928C",
"e c #979790",
"r c #9C9C95",
"t c #9F9F9A",
"y c #A4A49E",
"u c #A6A6A0",
"i c #ABABA3",
"p c #AFAFA8",
"a c #B3B3AC",
"s c #BBBBB3",
"d c #BEBEB9",
"f c #C0C0B7",
"g c #C4C4BC",
"h c #C8C8BF",
"j c #C7C7C0",
"k c #CACAC2",
"l c #CFCFC9",
"z c #D2D2C9",
"x c #D5D5CC",
"c c #D7D7CE",
"v c #D8D8CF",
"b c #D7D7D0",
"n c #D8D8D0",
"m c #DCDCD3",
"M c #DBDBD4",
"N c #DEDED6",
"B c #E1E1D8",
"V c #E4E4DB",
"C c #E5E5DD",
"Z c #E8E8DF",
"A c #EAEAE0",
"S c #EDEDE3",
"D c #EFEFE5",
"F c #F0F0E6",
"G c #F1F1E8",
"H c #F4F4EB",
"J c #F6F6EC",
"K c #F9F9EF",
"L c #FBFBF0",
"P c #FDFDF2",
"I c #11498E",
/* pixels */
"IIIIIIIIIIIIIIIIIIIIIIIIIIIIIIIIIIIIIIIIIIIIIIIIIIIIIIIIIIIIIIII",
"IIIIIIIIIIIIIIIIIIIIIIIIIIIIIIIIIIIIIIIIIIIIIIIIIIIIIIIIIIIIIIII",
"IIIIIIIIIIIIIIIIIIIIIIIIIIIIIIIIIIIIIIIIIIIIIIIIIIIIIIIIIIIIIIII",
"IIIIIIIIIIIIIIIIIIIIIIIIIIIIIIIIIIIIIIIIIIIIIIIIIIIIIIIIIIIIIIII",
"IIIIIIIIIIIIIIIIIIIIIIIIIIIIIIIIIIIIIIIIIIIIIIIIIIIIIIIIIIIIIIII",
"IIIIIIIIIIIIIIIIIIIIIIIIIIIIIIIIIIIIIIIIIIIIIIIIIIIIIIIIIIIIIIII",
"IIIIIIIIIIIIIIIIIIIIIIIIIIIIIIIIIIIIIIIIIIIIIIIIIIIIIIIIIIIIIIII",
"IIIIIIIIIIIIIIIIIIIIIIIIIIIIIIIIIIIIIIIIIIIIIIIIIIIIIIIIIIIIIIII",
"IIIIIIIIIIIIIIIIIIIIIIIIIIIIIIIIIIIIIIIIIIIIIIIIIIIIIIIIIIIIIIII",
"IIIIIIIIIIIIIIIIIIIIIIIIIIIIIIIIIIIIIIIIIIIIIIIIIIIIIIIIIIIIIIII",
"IIIIIIIIIIIIIIIIIIIIIIIIIIIIIIIIIIIIIIIIIIIIIIIIIIIIIIIIIIIIIIII",
"IIIIIIIIIIIIIIIIIIIIIIIIIIIIIIIIIIIIIIIIIIIIIIIIIIIIIIIIIIIIIIII",
"IIIIIIIIIIIIIIIIIIIIIIIIIIIIIIIIIIIIIIIIIIIIIIIIIIIIIIIIIIIIIIII",
"IIIIIIIIIIIIIIIIIIIIIIIIIIIIIIIIIIIIIIIIIIIIIIIIIIIIIIIIIIIIIIII",
"IIIIIIIIIIIIIIIIIIIIIIIIIIIIIIIIIIIIIIIIIIIIIIIIIIIIIIIIIIIIIIII",
"IIIIIIIIIIIIIIIIIIIIIIIIIIIIIIIIIIIIIIIIIIIIIIIIIIIIIIIIIIIIIIII",
"IIIIIIIIIIIIIIIIIIIIIIIIIIIIIIIIIIIIIIIIIIIIIIIIIIIIIIIIIIIIIIII",
"IIIIIIIIIIIIIIIIIIIIIIIIIIIIIIIIIIIIIIIIIIIIIIIIIIIIIIIIIIIIIIII",
"IIIIIIIIIIIIIIIIIIIIIIIIIIIIIIIIIIIIIIIIIIIIIIIIIIIIIIIIIIIIIIII",
"IIIIIIIIIIIIIIIIIIIIIIIIIIIIIIIIIIIIIIIIIIIIIIIIIIIIIIIIIIIIIIII",
"IIIIIIIIIIIIIIIIIIIIIIIIIIIIIIIIIIIIIIIIIIIIIIIIIIIIIIIIIIIIIIII",
"IIIIIIIIIIIIIIIIIIIIIIIIIIIIIIIIIIIIIIIIIIIIIIIIIIIIIIIIIIIIIIII",
"IIIIIIIIIIIIIIIIIIIIIIIIIII&$$%%%%3azIIIIIIIIIIIIIIIIIIIIIIIIIII",
"IIIIIIIIIIIIIIIIIIIIIIIIIgq0ugxcvskHFZNcIIIIIIIIIIIIIIIIIIIIIIII",
"IIIIIIIIIIIIIIIIIIIIIIIkkjCLPPLLLLczKKHSBcIIIIIIIIIIIIIIIIIIIIII",
"IIIIIIIIIIIIIIIIIIIIIIbczFKKKKKKKKJkBPKKHAMIIIIIIIIIIIIIIIIIIIII",
"IIIIIIIIIIIIIIIIIIIIjNBkHLKKKKKKKKKDaNLLKKDNIIIIIIIIIIIIIIIIIIII",
"IIIIIIIIIIIIIIIIIIIjBJkCLKKKKKKKKKLk%$6kJLKGcIIIIIIIIIIIIIIIIIII",
"IIIIIIIIIIIIIIIIIIINFaqHKKKKKKKKKLk%   O4zLLAwIIIIIIIIIIIIIIIIII",
"IIIIIIIIIIIIIIIIIInc5oopLKKKKKKKLc&      #yczkyIIIIIIIIIIIIIIIII",
"IIIIIIIIIIIIIIIIIlg=   $kPLLHGDDN;        OgKLCIIIIIIIIIIIIIIIII",
"IIIIIIIIIIIIIIIIIg=     ;czkkkgdq.        .aPKHBIIIIIIIIIIIIIIII",
"IIIIIIIIIIIIIIIIa2      #gCAFJKLB=         rPKKAIIIIIIIIIIIIIIII",
"IIIIIIIIIIIIIIIIk=     .wLLLLKKKPdo        wPKLAjIIIIIIIIIIIIIII",
"IIIIIIIIIIIIIIIIc&     %BLKKKKKKKK9       .yPKLBgIIIIIIIIIIIIIII",
"IIIIIIIIIIIIIIIlN&     0LKKKKKKKKLC=      .gPKJcgIIIIIIIIIIIIIII",
"IIIIIIIIIIIIIIIbB&    +cLKKKKKKKKKPg@..O%,9lLLDkgIIIIIIIIIIIIIII",
"IIIIIIIIIIIIIIInA:    1JKKKKKKKKKKKHrygcCKKkBKngkIIIIIIIIIIIIIII",
"IIIIIIIIIIIIIIInSw5221yLKKKKKKKKKKLBkPPLLKLFkVkjkIIIIIIIIIIIIIII",
"IIIIIIIIIIIIIIINCkLJJJjCLKKKKKKKKKLkVLKKKKKLnahkkIIIIIIIIIIIIIII",
"IIIIIIIIIIIIIIInNNLKKLCgJKKKKKKKKLSgJKKKKKKKNrdkpIIIIIIIIIIIIIII",
"IIIIIIIIIIIIIIInkCLKKKLkzLKKKKKKKLzmLKKKKKKCka9<#IIIIIIIIIIIIIII",
"IIIIIIIIIIIIIIIIkCLKKKKHdVLKKKKKLFgHKKKKKKZkka@ .IIIIIIIIIIIIIII",
"IIIIIIIIIIIIIIIIdCLKKKKLAgDPPPLLFknLKKKKKVkhk0. .IIIIIIIIIIIIIII",
"IIIIIIIIIIIIIIII9kPKKKKKLByyyw82-*zPKKKHNkhhg;  IIIIIIIIIIIIIIII",
"IIIIIIIIIIIIIIIIIqJKKKKKLF;       4HLKSxhhhkro  IIIIIIIIIIIIIIII",
"IIIIIIIIIIIIIIIII<sPKKKKLN@       oaGmkghhkg-  .IIIIIIIIIIIIIIII",
"IIIIIIIIIIIIIIIIII:vPKKKPgo        &gkhhhkg7.  IIIIIIIIIIIIIIIII",
"IIIIIIIIIIIIIIIIII=<BKKKPy.         5gggsuw@  IIIIIIIIIIIIIIIIII",
"IIIIIIIIIIIIIIIIIII%<gvnN6          =rerrus; IIIIIIIIIIIIIIIIIII",
"IIIIIIIIIIIIIIIIIIII&0ppu9+        &igfgkkkroIIIIIIIIIIIIIIIIIII",
"IIIIIIIIIIIIIIIIIIIIIaggghu>o    X1skhhhhhhIIIIIIIIIIIIIIIIIIIII",
"IIIIIIIIIIIIIIIIIIIIIIgjjhkgr,@o&wgkhhhhhhIIIIIIIIIIIIIIIIIIIIII",
"IIIIIIIIIIIIIIIIIIIIIIIIkkhhkgaqakhhhhhhkIIIIIIIIIIIIIIIIIIIIIII",
"IIIIIIIIIIIIIIIIIIIIIIIIIIkkkkksphhhhhhIIIIIIIIIIIIIIIIIIIIIIIII",
"IIIIIIIIIIIIIIIIIIIIIIIIIIIIIIIktgIIIIIIIIIIIIIIIIIIIIIIIIIIIIII",
"IIIIIIIIIIIIIIIIIIIIIIIIIIIIIIIIIIIIIIIIIIIIIIIIIIIIIIIIIIIIIIII",
"IIIIIIIIIIIIIIIIIIIIIIIIIIIIIIIIIIIIIIIIIIIIIIIIIIIIIIIIIIIIIIII",
"IIIIIIIIIIIIIIIIIIIIIIIIIIIIIIIIIIIIIIIIIIIIIIIIIIIIIIIIIIIIIIII",
"IIIIIIIIIIIIIIIIIIIIIIIIIIIIIIIIIIIIIIIIIIIIIIIIIIIIIIIIIIIIIIII",
"IIIIIIIIIIIIIIIIIIIIIIIIIIIIIIIIIIIIIIIIIIIIIIIIIIIIIIIIIIIIIIII",
"IIIIIIIIIIIIIIIIIIIIIIIIIIIIIIIIIIIIIIIIIIIIIIIIIIIIIIIIIIIIIIII",
"IIIIIIIIIIIIIIIIIIIIIIIIIIIIIIIIIIIIIIIIIIIIIIIIIIIIIIIIIIIIIIII",
"IIIIIIIIIIIIIIIIIIIIIIIIIIIIIIIIIIIIIIIIIIIIIIIIIIIIIIIIIIIIIIII"
};
