/* XPM */
static char *result[] = {
/* columns rows colors chars-per-pixel */
"64 64 74 1 ",
"  c black",
". c #0C0C0B",
"X c #10100F",
"o c #131312",
"O c #181817",
"+ c #1D1D1C",
"@ c #20201F",
"# c #252523",
"$ c #2C2C2A",
"% c #30302F",
"& c #323231",
"* c #383836",
"= c #3D3D3C",
"- c #41413F",
"; c #454542",
": c #4A4A47",
"> c #4E4E4B",
", c #51514E",
"< c #555551",
"1 c #5A5A56",
"2 c #5E5E5B",
"3 c #60605C",
"4 c #656562",
"5 c #696965",
"6 c #6D6D69",
"7 c #74746F",
"8 c #797974",
"9 c #7E7E79",
"0 c #82827C",
"q c #878782",
"w c #8A8A85",
"e c #8E8E88",
"r c #91918B",
"t c #969691",
"y c #9B9B95",
"u c #9F9F98",
"i c #A3A39D",
"p c #A7A7A0",
"a c #ACACA5",
"s c #AEAEA8",
"d c #B2B2AB",
"f c #B7B7B0",
"g c #BCBCB4",
"h c #C0C0B7",
"j c #C4C4BC",
"k c #C8C8BF",
"l c #C7C7C0",
"z c #CBCBC3",
"x c #D0D0C7",
"c c #D0D0C8",
"v c #D3D3CB",
"b c #D4D4CB",
"n c #D7D7CF",
"m c #D8D8CE",
"M c #D7D7D1",
"N c #DBDBD3",
"B c #DEDED7",
"V c #E0E0D7",
"C c #E3E3DB",
"Z c #E4E4DB",
"A c #E5E5DC",
"S c #E8E8DE",
"D c #EBEBE2",
"F c #EDEDE3",
"G c #EFEFE5",
"H c #F0F0E6",
"J c #F1F1E8",
"K c #F4F4EA",
"L c #F7F7ED",
"P c #F8F8ED",
"I c #FAFAF0",
"U c #FCFCF2",
"Y c #FEFEF4",
"T c #11498E",
/* pixels */
"TTTTTTTTTTTTTTTTTTTTTTTTTTTTTTTTTTTTTTTTTTTTTTTTTTTTTTTTTTTTTTTT",
"TTTTTTTTTTTTTTTTTTTTTTTTTTTTTTTTTTTTTTTTTTTTTTTTTTTTTTTTTTTTTTTT",
"TTTTTTTTTTTTTTTTTTTTTTTTTTTTTTTTTTTTTTTTTTTTTTTTTTTTTTTTTTTTTTTT",
"TTTTTTTTTTTTTTTTTTTTTTTTTTTTTTTTTTTTTTTTTTTTTTTTTTTTTTTTTTTTTTTT",
"TTTTTTTTTTTTTTTTTTTTTTTTTTTTTTTTTTTTTTTTTTTTTTTTTTTTTTTTTTTTTTTT",
"TTTTTTTTTTTTTTTTTTTTTTTTTTTTTTTTTTTTTTTTTTTTTTTTTTTTTTTTTTTTTTTT",
"TTTTTTTTTTTTTTTTTTTTTTTTTTTTTTTTTTTTTTTTTTTTTTTTTTTTTTTTTTTTTTTT",
"TTTTTTTTTTTTTTTTTTTTTTTTTTTTTTTTTTTTTTTTTTTTTTTTTTTTTTTTTTTTTTTT",
"TTTTTTTTTTTTTTTTTTTTTTTTTTTTTTTTTTTTTTTTTTTTTTTTTTTTTTTTTTTTTTTT",
"TTTTTTTTTTTTTTTTTTTTTTTTTTTTTTTTTTTTTTTTTTTTTTTTTTTTTTTTTTTTTTTT",
"TTTTTTTTTTTTTTTTTTTTTTTTTTTTTTTTTTTTTTTTTTTTTTTTTTTTTTTTTTTTTTTT",
"TTTTTTTTTTTTTTTTTTTTTTTTTTTTTTTTTTTTTTTTTTTTTTTTTTTTTTTTTTTTTTTT",
"TTTTTTTTTTTTTTTTTTTTTTTTTTTTTTTTTTTTTTTTTTTTTTTTTTTTTTTTTTTTTTTT",
"TTTTTTTTTTTTTTTTTTTTTTTTTTTTTTTTTTTTTTTTTTTTTTTTTTTTTTTTTTTTTTTT",
"TTTTTTTTTTTTTTTTTTTTTTTTTTTTTTTTTTTTTTTTTTTTTTTTTTTTTTTTTTTTTTTT",
"TTTTTTTTTTTTTTTTTTTTTTTTTTTTTTTTTTTTTTTTTTTTTTTTTTTTTTTTTTTTTTTT",
"TTTTTTTTTTTTTTTTTTTTTTTTTTTTTTTTTTTTTTTTTTTTTTTTTTTTTTTTTTTTTTTT",
"TTTTTTTTTTTTTTTTTTTTTTTTTTTTTTTTTTTTTTTTTTTTTTTTTTTTTTTTTTTTTTTT",
"TTTTTTTTTTTTTTTTTTTTTTTTTTTTTTTTTTTTTTTTTTTTTTTTTTTTTTTTTTTTTTTT",
"TTTTTTTTTTTTTTTTTTTTTTTTTTTTTTlzczzTTTTTTTTTTTTTTTTTTTTTTTTTTTTT",
"TTTTTTTTTTTTTTTTTTTTTTTTTTqzCAFHHHDABNdTTTTTTTTTTTTTTTTTTTTTTTTT",
"TTTTTTTTTTTTTTTTTTTTTTTTzNzGPPPPPPPPLJl$oTTTTTTTTTTTTTTTTTTTTTTT",
"TTTTTTTTTTTTTTTTTTTTTTjNGLvJUIIPPPPPIUA& .TTTTTTTTTTTTTTTTTTTTTT",
"TTTTTTTTTTTTTTTTTTTTTzCKPIgygnJUIIIKZNg;   XTTTTTTTTTTTTTTTTTTTT",
"TTTTTTTTTTTTTTTTTTTTzALIPi# .@>yCAxjvNDn5.  .TTTTTTTTTTTTTTTTTTT",
"TTTTTTTTTTTTTTTTTTTzALPPyo      :lAKIIIUJto  .TTTTTTTTTTTTTTTTTT",
"TTTTTTTTTTTTTTTTTTzALPIdO       %GIPPPPPIPp+  TTTTTTTTTTTTTTTTTT",
"TTTTTTTTTTTTTTTTTTBLIUz$        =HIPPPPPPIIy.  TTTTTTTTTTTTTTTTT",
"TTTTTTTTTTTTTTTTTgHPDN<         ,KIPIIIIPPIK72wTTTTTTTTTTTTTTTTT",
"TTTTTTTTTTTTTTTTTyAlln5         6PPPIIIPPPPPgGIATTTTTTTTTTTTTTTT",
"TTTTTTTTTTTTTTTT=2zDPUv#        eUPPIIPPPPPPhAIDTTTTTTTTTTTTTTTT",
"TTTTTTTTTTTTTTTT#yIIPPIr       +iPIPPIPPPPPPhGIDjTTTTTTTTTTTTTTT",
"TTTTTTTTTTTTTTTT$vUPPPID:   o;wzvjGIPPPPPPPLgJPBjTTTTTTTTTTTTTTT",
"TTTTTTTTTTTTTTT&;FIPPPIUh$;wjGUUIVhAIPPPPPUGhLKvjTTTTTTTTTTTTTTT",
"TTTTTTTTTTTTTTT&6PPPPPPISgHUUIIIPIDhBIIUUPAfvUAllTTTTTTTTTTTTTTT",
"TTTTTTTTTTTTTTT;eUPPPPPIbNUPPPPIPPIJlNFzy4&OiPvjlTTTTTTTTTTTTTTT",
"TTTTTTTTTTTTTTT=iUPPPPPPjDIPPPPIPPIIPs-o    ;mljlTTTTTTTTTTTTTTT",
"TTTTTTTTTTTTTTT4dUPPPPPKjKPPPPPPPPIIYi      .ylklTTTTTTTTTTTTTTT",
"TTTTTTTTTTTTTTTzlLIPPPIDlPPPPIIPPIPPUw       4lllTTTTTTTTTTTTTTT",
"TTTTTTTTTTTTTTTMcCIPPPICvIPPPPIIPPIIP5       *hllTTTTTTTTTTTTTTT",
"TTTTTTTTTTTTTTTTBzLPPIUAnIIIPPPPPPPPH;       +uasTTTTTTTTTTTTTTT",
"TTTTTTTTTTTTTTTTAnvIUJj7iUIIPPPPPPPIN#       ;ggTTTTTTTTTTTTTTTT",
"TTTTTTTTTTTTTTTTBHzhi,o +dIIPIPPPIPUs       +ilzTTTTTTTTTTTTTTTT",
"TTTTTTTTTTTTTTTTTDIsX    +uLIIPPIIGnwo     oqllzTTTTTTTTTTTTTTTT",
"TTTTTTTTTTTTTTTTTBLn+     .9DUPJBlhxby>o  o8jkzTTTTTTTTTTTTTTTTT",
"TTTTTTTTTTTTTTTTTTDH,       >gzhjvmxlljy1$qkklTTTTTTTTTTTTTTTTTT",
"TTTTTTTTTTTTTTTTTTTNr        ebnxlkkkkkljujkkzTTTTTTTTTTTTTTTTTT",
"TTTTTTTTTTTTTTTTTTTTg=      +slkkkkkkkkkhakkkTTTTTTTTTTTTTTTTTTT",
"TTTTTTTTTTTTTTTTTTTTTy+     ;hkkkkkkkkklgdlkTTTTTTTTTTTTTTTTTTTT",
"TTTTTTTTTTTTTTTTTTTTTTt5%o  8lkkkkkkkkljiglTTTTTTTTTTTTTTTTTTTTT",
"TTTTTTTTTTTTTTTTTTTTTTTlgi06rgjllkkllji2*wTTTTTTTTTTTTTTTTTTTTTT",
"TTTTTTTTTTTTTTTTTTTTTTTTlzzlgiidgkjfr<#oTTTTTTTTTTTTTTTTTTTTTTTT",
"TTTTTTTTTTTTTTTTTTTTTTTTTTTzzlhsi03*$@TTTTTTTTTTTTTTTTTTTTTTTTTT",
"TTTTTTTTTTTTTTTTTTTTTTTTTTTTTTTTTTTTTTTTTTTTTTTTTTTTTTTTTTTTTTTT",
"TTTTTTTTTTTTTTTTTTTTTTTTTTTTTTTTTTTTTTTTTTTTTTTTTTTTTTTTTTTTTTTT",
"TTTTTTTTTTTTTTTTTTTTTTTTTTTTTTTTTTTTTTTTTTTTTTTTTTTTTTTTTTTTTTTT",
"TTTTTTTTTTTTTTTTTTTTTTTTTTTTTTTTTTTTTTTTTTTTTTTTTTTTTTTTTTTTTTTT",
"TTTTTTTTTTTTTTTTTTTTTTTTTTTTTTTTTTTTTTTTTTTTTTTTTTTTTTTTTTTTTTTT",
"TTTTTTTTTTTTTTTTTTTTTTTTTTTTTTTTTTTTTTTTTTTTTTTTTTTTTTTTTTTTTTTT",
"TTTTTTTTTTTTTTTTTTTTTTTTTTTTTTTTTTTTTTTTTTTTTTTTTTTTTTTTTTTTTTTT",
"TTTTTTTTTTTTTTTTTTTTTTTTTTTTTTTTTTTTTTTTTTTTTTTTTTTTTTTTTTTTTTTT",
"TTTTTTTTTTTTTTTTTTTTTTTTTTTTTTTTTTTTTTTTTTTTTTTTTTTTTTTTTTTTTTTT",
"TTTTTTTTTTTTTTTTTTTTTTTTTTTTTTTTTTTTTTTTTTTTTTTTTTTTTTTTTTTTTTTT",
"TTTTTTTTTTTTTTTTTTTTTTTTTTTTTTTTTTTTTTTTTTTTTTTTTTTTTTTTTTTTTTTT"
};
