/* XPM */
static char *result[] = {
/* columns rows colors chars-per-pixel */
"64 64 67 1 ",
"  c #010101",
". c #0C0C0C",
"X c #131312",
"o c #181817",
"O c #1B1B1A",
"+ c #20201F",
"@ c #252523",
"# c #2B2B29",
"$ c #343433",
"% c #3B3B39",
"& c #41413F",
"* c #444442",
"= c #494946",
"- c #4D4D4A",
"; c #51514D",
": c #555551",
"> c #5C5C58",
", c #61615E",
"< c #666662",
"1 c #696965",
"2 c #6E6E69",
"3 c #72726D",
"4 c #757571",
"5 c #7B7B76",
"6 c #7E7E79",
"7 c #83837E",
"8 c #8A8A84",
"9 c #8E8E89",
"0 c #94948E",
"q c #969691",
"w c #9C9C95",
"e c #9F9F99",
"r c #A3A39D",
"t c #A7A7A0",
"y c #ABABA4",
"u c #AEAEA8",
"i c #B4B4AD",
"p c #B7B7B0",
"a c #BBBBB4",
"s c #C4C4BC",
"d c #C8C8BF",
"f c #C7C7C0",
"g c #CBCBC2",
"h c #D2D2CB",
"j c #D2D2CC",
"k c #D4D4CD",
"l c #D8D8CF",
"z c #D6D6D0",
"x c #DBDBD3",
"c c #DCDCD3",
"v c #DEDED6",
"b c #E0E0D7",
"n c #E3E3DB",
"m c #E4E4DB",
"M c #E7E7DE",
"N c #E8E8DF",
"B c #EBEBE1",
"V c #ECECE2",
"C c #EEEEE4",
"Z c #F0F0E6",
"A c #F3F3E9",
"S c #F4F4EA",
"D c #F7F7ED",
"F c #F9F9EE",
"G c #FAFAF1",
"H c #FCFCF2",
"J c #11498E",
/* pixels */
"JJJJJJJJJJJJJJJJJJJJJJJJJJJJJJJJJJJJJJJJJJJJJJJJJJJJJJJJJJJJJJJJ",
"JJJJJJJJJJJJJJJJJJJJJJJJJJJJJJJJJJJJJJJJJJJJJJJJJJJJJJJJJJJJJJJJ",
"JJJJJJJJJJJJJJJJJJJJJJJJJJJJJJJJJJJJJJJJJJJJJJJJJJJJJJJJJJJJJJJJ",
"JJJJJJJJJJJJJJJJJJJJJJJJJJJJJJJJJJJJJJJJJJJJJJJJJJJJJJJJJJJJJJJJ",
"JJJJJJJJJJJJJJJJJJJJJJJJJJJJJJJJJJJJJJJJJJJJJJJJJJJJJJJJJJJJJJJJ",
"JJJJJJJJJJJJJJJJJJJJJJJJJJJJJJJJJJJJJJJJJJJJJJJJJJJJJJJJJJJJJJJJ",
"JJJJJJJJJJJJJJJJJJJJJJJJJJJJJJJJJJJJJJJJJJJJJJJJJJJJJJJJJJJJJJJJ",
"JJJJJJJJJJJJJJJJJJJJJJJJJJJJJJJJJJJJJJJJJJJJJJJJJJJJJJJJJJJJJJJJ",
"JJJJJJJJJJJJJJJJJJJJJJJJJJJJJJJJJJJJJJJJJJJJJJJJJJJJJJJJJJJJJJJJ",
"JJJJJJJJJJJJJJJJJJJJJJJJJJJJJJJJJJJJJJJJJJJJJJJJJJJJJJJJJJJJJJJJ",
"JJJJJJJJJJJJJJJJJJJJJJJJJJJJJJJJJJJJJJJJJJJJJJJJJJJJJJJJJJJJJJJJ",
"JJJJJJJJJJJJJJJJJJJJJJJJJJJJJJJJJJJJJJJJJJJJJJJJJJJJJJJJJJJJJJJJ",
"JJJJJJJJJJJJJJJJJJJJJJJJJJJJJJJJJJJJJJJJJJJJJJJJJJJJJJJJJJJJJJJJ",
"JJJJJJJJJJJJJJJJJJJJJJJJJJJJJJJJJJJJJJJJJJJJJJJJJJJJJJJJJJJJJJJJ",
"JJJJJJJJJJJJJJJJJJJJJJJJJJJJJJJJJJJJJJJJJJJJJJJJJJJJJJJJJJJJJJJJ",
"JJJJJJJJJJJJJJJJJJJJJJJJJJJJJJJJJJJJJJJJJJJJJJJJJJJJJJJJJJJJJJJJ",
"JJJJJJJJJJJJJJJJJJJJJJJJJJJJJJJJJJJJJJJJJJJJJJJJJJJJJJJJJJJJJJJJ",
"JJJJJJJJJJJJJJJJJJJJJJJJJJJJJJJJJJJJJJJJJJJJJJJJJJJJJJJJJJJJJJJJ",
"JJJJJJJJJJJJJJJJJJJJJJJJJJJJJJJJJJJJJJJJJJJJJJJJJJJJJJJJJJJJJJJJ",
"JJJJJJJJJJJJJJJJJJJJJJJJJJJJJa96pggJJJJJJJJJJJJJJJJJJJJJJJJJJJJJ",
"JJJJJJJJJJJJJJJJJJJJJJJJJJfkvVvxAZBmvxhJJJJJJJJJJJJJJJJJJJJJJJJJ",
"JJJJJJJJJJJJJJJJJJJJJJJJgvBADHvmGFFFDZBnzJJJJJJJJJJJJJJJJJJJJJJJ",
"JJJJJJJJJJJJJJJJJJJJJJdxCDFGGnrsDHFFFFFSBvJJJJJJJJJJJJJJJJJJJJJJ",
"JJJJJJJJJJJJJJJJJJJJJgnSFGHn8$.O1fFGFFFFFSs*JJJJJJJJJJJJJJJJJJJJ",
"JJJJJJJJJJJJJJJJJJJJsNDGGDi%     O0AGGGGGHao.JJJJJJJJJJJJJJJJJJJ",
"JJJJJJJJJJJJJJJJJJJ1hCBBn6X       .7vkhhhx0  .JJJJJJJJJJJJJJJJJJ",
"JJJJJJJJJJJJJJJJJJ**agghq.         $hNNNmk0X  JJJJJJJJJJJJJJJJJJ",
"JJJJJJJJJJJJJJJJJJ@wCFGHdX         7HGGGGGD7. .JJJJJJJJJJJJJJJJJ",
"JJJJJJJJJJJJJJJJJ$<AGFFGM$        OfHFFFFFGB:  .JJJJJJJJJJJJJJJJ",
"JJJJJJJJJJJJJJJJJ$fHFFFFF<        >SGFFFFFFHdO  JJJJJJJJJJJJJJJJ",
"JJJJJJJJJJJJJJJJ=4FFFFFFHe.      .aHFFFFFFFFF2  JJJJJJJJJJJJJJJJ",
"JJJJJJJJJJJJJJJJ%dHFFFFFGk@...XXO>ZGFFFFFFFFHsX  JJJJJJJJJJJJJJJ",
"JJJJJJJJJJJJJJJJ1ZGFFFFFGxtiiaffxfxGFFFFFFFFGM<&$JJJJJJJJJJJJJJJ",
"JJJJJJJJJJJJJJJiiFFFFFFGCsSHHHHHHSsNGFFFFFFFGkfgaJJJJJJJJJJJJJJJ",
"JJJJJJJJJJJJJJJjfDFFFFFGfvGFFFFFFGNdSFFFFFFFGdgfdJJJJJJJJJJJJJJJ",
"JJJJJJJJJJJJJJJkgVGFFFGBdDFFFFFFFFGkkGFFFFFGCpgdfJJJJJJJJJJJJJJJ",
"JJJJJJJJJJJJJJJvhnGFFFGgbGFFFFFFFFFDdBHGGGGHgsfffJJJJJJJJJJJJJJJ",
"JJJJJJJJJJJJJJJvngFGGHAdSFFFFFFFFFFGMsxxvnnlifdffJJJJJJJJJJJJJJJ",
"JJJJJJJJJJJJJJJxZghchdthGFFFFFFFFFFGA,Xo+##&afdffJJJJJJJJJJJJJJJ",
"JJJJJJJJJJJJJJJzZB>@O..eHFFFFFFFFFFHfo     .efdffJJJJJJJJJJJJJJJ",
"JJJJJJJJJJJJJJJJBM$    %nGFFFFFFFFFF3      .8fdfgJJJJJJJJJJJJJJJ",
"JJJJJJJJJJJJJJJJMm$     7FFFFFFFFFGgO      .8fdfJJJJJJJJJJJJJJJJ",
"JJJJJJJJJJJJJJJJvM*     oaHFFFFFFGS1       .8fdfJJJJJJJJJJJJJJJJ",
"JJJJJJJJJJJJJJJJJB<      %xGGGFFFFyX       .8gfgJJJJJJJJJJJJJJJJ",
"JJJJJJJJJJJJJJJJJMe.      <ggfhdsd1        o8iiJJJJJJJJJJJJJJJJJ",
"JJJJJJJJJJJJJJJJJJs$     .wVnxMNVms*      O8saJJJJJJJJJJJJJJJJJJ",
"JJJJJJJJJJJJJJJJJJJy=    >BACBnlgffa;   .&eddgJJJJJJJJJJJJJJJJJJ",
"JJJJJJJJJJJJJJJJJJJJa4@ +yhgffdddddfa,X$7afddJJJJJJJJJJJJJJJJJJJ",
"JJJJJJJJJJJJJJJJJJJJJfu23dddddddddddfa8affddJJJJJJJJJJJJJJJJJJJJ",
"JJJJJJJJJJJJJJJJJJJJJJfftydddddddddddyafdddJJJJJJJJJJJJJJJJJJJJJ",
"JJJJJJJJJJJJJJJJJJJJJJJdfursfdddddffaydddfJJJJJJJJJJJJJJJJJJJJJJ",
"JJJJJJJJJJJJJJJJJJJJJJJJgfirisddsaiwqsffJJJJJJJJJJJJJJJJJJJJJJJJ",
"JJJJJJJJJJJJJJJJJJJJJJJJJJJs5>>:-%#X-iJJJJJJJJJJJJJJJJJJJJJJJJJJ",
"JJJJJJJJJJJJJJJJJJJJJJJJJJJJJJJJJJJJJJJJJJJJJJJJJJJJJJJJJJJJJJJJ",
"JJJJJJJJJJJJJJJJJJJJJJJJJJJJJJJJJJJJJJJJJJJJJJJJJJJJJJJJJJJJJJJJ",
"JJJJJJJJJJJJJJJJJJJJJJJJJJJJJJJJJJJJJJJJJJJJJJJJJJJJJJJJJJJJJJJJ",
"JJJJJJJJJJJJJJJJJJJJJJJJJJJJJJJJJJJJJJJJJJJJJJJJJJJJJJJJJJJJJJJJ",
"JJJJJJJJJJJJJJJJJJJJJJJJJJJJJJJJJJJJJJJJJJJJJJJJJJJJJJJJJJJJJJJJ",
"JJJJJJJJJJJJJJJJJJJJJJJJJJJJJJJJJJJJJJJJJJJJJJJJJJJJJJJJJJJJJJJJ",
"JJJJJJJJJJJJJJJJJJJJJJJJJJJJJJJJJJJJJJJJJJJJJJJJJJJJJJJJJJJJJJJJ",
"JJJJJJJJJJJJJJJJJJJJJJJJJJJJJJJJJJJJJJJJJJJJJJJJJJJJJJJJJJJJJJJJ",
"JJJJJJJJJJJJJJJJJJJJJJJJJJJJJJJJJJJJJJJJJJJJJJJJJJJJJJJJJJJJJJJJ",
"JJJJJJJJJJJJJJJJJJJJJJJJJJJJJJJJJJJJJJJJJJJJJJJJJJJJJJJJJJJJJJJJ",
"JJJJJJJJJJJJJJJJJJJJJJJJJJJJJJJJJJJJJJJJJJJJJJJJJJJJJJJJJJJJJJJJ"
};
