/* XPM */
static char *result[] = {
/* columns rows colors chars-per-pixel */
"64 64 70 1 ",
"  c black",
". c #0C0C0B",
"X c #141413",
"o c #1C1C1B",
"O c #20201E",
"+ c #252524",
"@ c #2D2D2B",
"# c #30302E",
"$ c #353533",
"% c #383835",
"& c #3E3E3B",
"* c #41413E",
"= c #454542",
"- c #4C4C49",
"; c #565652",
": c #595956",
"> c #5E5E5B",
", c #63635E",
"< c #666662",
"1 c #696966",
"2 c #6D6D69",
"3 c #72726D",
"4 c #767671",
"5 c #797975",
"6 c #7D7D78",
"7 c #83837D",
"8 c #878782",
"9 c #8B8B86",
"0 c #8F8F89",
"q c #94948E",
"w c #9B9B94",
"e c #9E9E98",
"r c #A2A29C",
"t c #A7A7A0",
"y c #ACACA5",
"u c #B3B3AC",
"i c #B6B6B0",
"p c #BABAB3",
"a c #BFBFB8",
"s c #C0C0B7",
"d c #C5C5BD",
"f c #C8C8BF",
"g c #C7C7C0",
"h c #CACAC2",
"j c #CFCFC8",
"k c #D0D0C7",
"l c #D1D1C9",
"z c #D4D4CC",
"x c #D4D4CD",
"c c #D8D8CF",
"v c #D9D9D1",
"b c #DCDCD3",
"n c #DBDBD4",
"m c #DFDFD7",
"M c #E1E1D7",
"N c #E0E0D8",
"B c #E4E4DB",
"V c #E7E7DE",
"C c #E8E8DF",
"Z c #EAEAE1",
"A c #ECECE2",
"S c #EFEFE6",
"D c #F0F0E7",
"F c #F3F3E9",
"G c #F5F5EB",
"H c #F6F6ED",
"J c #F9F9EF",
"K c #FAFAF0",
"L c #FCFCF2",
"P c #11498E",
/* pixels */
"PPPPPPPPPPPPPPPPPPPPPPPPPPPPPPPPPPPPPPPPPPPPPPPPPPPPPPPPPPPPPPPP",
"PPPPPPPPPPPPPPPPPPPPPPPPPPPPPPPPPPPPPPPPPPPPPPPPPPPPPPPPPPPPPPPP",
"PPPPPPPPPPPPPPPPPPPPPPPPPPPPPPPPPPPPPPPPPPPPPPPPPPPPPPPPPPPPPPPP",
"PPPPPPPPPPPPPPPPPPPPPPPPPPPPPPPPPPPPPPPPPPPPPPPPPPPPPPPPPPPPPPPP",
"PPPPPPPPPPPPPPPPPPPPPPPPPPPPPPPPPPPPPPPPPPPPPPPPPPPPPPPPPPPPPPPP",
"PPPPPPPPPPPPPPPPPPPPPPPPPPPPPPPPPPPPPPPPPPPPPPPPPPPPPPPPPPPPPPPP",
"PPPPPPPPPPPPPPPPPPPPPPPPPPPPPPPPPPPPPPPPPPPPPPPPPPPPPPPPPPPPPPPP",
"PPPPPPPPPPPPPPPPPPPPPPPPPPPPPPPPPPPPPPPPPPPPPPPPPPPPPPPPPPPPPPPP",
"PPPPPPPPPPPPPPPPPPPPPPPPPPPPPPPPPPPPPPPPPPPPPPPPPPPPPPPPPPPPPPPP",
"PPPPPPPPPPPPPPPPPPPPPPPPPPPPPPPPPPPPPPPPPPPPPPPPPPPPPPPPPPPPPPPP",
"PPPPPPPPPPPPPPPPPPPPPPPPPPPPPPPPPPPPPPPPPPPPPPPPPPPPPPPPPPPPPPPP",
"PPPPPPPPPPPPPPPPPPPPPPPPPPPPPPPPPPPPPPPPPPPPPPPPPPPPPPPPPPPPPPPP",
"PPPPPPPPPPPPPPPPPPPPPPPPPPPPPPPPPPPPPPPPPPPPPPPPPPPPPPPPPPPPPPPP",
"PPPPPPPPPPPPPPPPPPPPPPPPPPPPPPPPPPPPPPPPPPPPPPPPPPPPPPPPPPPPPPPP",
"PPPPPPPPPPPPPPPPPPPPPPPPPPPPPPPPPPPPPPPPPPPPPPPPPPPPPPPPPPPPPPPP",
"PPPPPPPPPPPPPPPPPPPPPPPPPPPPPPPPPPPPPPPPPPPPPPPPPPPPPPPPPPPPPPPP",
"PPPPPPPPPPPPPPPPPPPPPPPPPPPhxvmvmmx4$%PPPPPPPPPPPPPPPPPPPPPPPPPP",
"PPPPPPPPPPPPPPPPPPPPPPPPdlNAGJJJGvxxy6:-PPPPPPPPPPPPPPPPPPPPPPPP",
"PPPPPPPPPPPPPPPPPPPPPPPivGJHFVBBhbHKLJNu4>PPPPPPPPPPPPPPPPPPPPPP",
"PPPPPPPPPPPPPPPPPPPPPdvmha9:&$@%pLJJJJKLSp5PPPPPPPPPPPPPPPPPPPPP",
"PPPPPPPPPPPPPPPPPPPPgmFKpo      2HJJJJJJKKhfPPPPPPPPPPPPPPPPPPPP",
"PPPPPPPPPPPPPPPPPPPgNGKD;       +xKJJJJJJKFfvPPPPPPPPPPPPPPPPPPP",
"PPPPPPPPPPPPPPPPPPgmGJLp.        9LJJJJJJJKvxNPPPPPPPPPPPPPPPPPP",
"PPPPPPPPPPPPPPPPPPvFJJH<         *ZKKJJJJJJFhZvPPPPPPPPPPPPPPPPP",
"PPPPPPPPPPPPPPPPPjAJJKm+         -ihVHKKJJKLgmZPPPPPPPPPPPPPPPPP",
"PPPPPPPPPPPPPPPPPmHJKGyX       o8VFvfsmHKKFu=6DNPPPPPPPPPPPPPPPP",
"PPPPPPPPPPPPPPPPlAJJmahw%     %pJKJKJZldml<X .rZPPPPPPPPPPPPPPPP",
"PPPPPPPPPPPPPPPPmGKvaAKLN0#  ;xLJJJJJKKAp#    @hhPPPPPPPPPPPPPPP",
"PPPPPPPPPPPPPPPPuHvsGKJJKKm82VKJJJJJJJJKB#     1fPPPPPPPPPPPPPPP",
"PPPPPPPPPPPPPPP@o4iSKJJJJJKFhKJJJJJJJJJJG:     o9PPPPPPPPPPPPPPP",
"PPPPPPPPPPPPPPPo olLJJJJJJJFhJJJJJJJJJJJK5     .qPPPPPPPPPPPPPPP",
"PPPPPPPPPPPPPPP# +VKJJJJJJJGfDJJJJJJJJJJLq     XtPPPPPPPPPPPPPPP",
"PPPPPPPPPPPPPPP+ +VKJJJJJJJKhCKJJJJJJJJJLt     @pPPPPPPPPPPPPPPP",
"PPPPPPPPPPPPPPPo OvKKJJJJJJKhBKJJJJJJJJJLy     ,hPPPPPPPPPPPPPPP",
"PPPPPPPPPPPPPPP+ XfLKJJJJJJKvxKJJJJJJJJKDu-X  XrhPPPPPPPPPPPPPPP",
"PPPPPPPPPPPPPPPo  tLJJJJJJJKCsKLKJJJJJKAfBSu,+>fhPPPPPPPPPPPPPPP",
"PPPPPPPPPPPPPPP+  2JKJJJJJKFq$3sFLKJKKMaVJVhhyehhPPPPPPPPPPPPPPP",
"PPPPPPPPPPPPPPPP. 2fAKJJJKC3.  X;yZLFkfSJNhffsrhPPPPPPPPPPPPPPPP",
"PPPPPPPPPPPPPPPPX-VmsxDKLN>      .=wavHGvhfffsthPPPPPPPPPPPPPPPP",
"PPPPPPPPPPPPPPPPPaLKGmhlh-         @NJClffffhptjPPPPPPPPPPPPPPPP",
"PPPPPPPPPPPPPPPPPVJJJKHV9          =VvhfffffhypPPPPPPPPPPPPPPPPP",
"PPPPPPPPPPPPPPPPPPSKKJJLho         :hfffffffdtfPPPPPPPPPPPPPPPPP",
"PPPPPPPPPPPPPPPPPPnVSGHJG2         4hffffffhq3PPPPPPPPPPPPPPPPPP",
"PPPPPPPPPPPPPPPPPPPfhhzcvp+       .qhffffhf0+PPPPPPPPPPPPPPPPPPP",
"PPPPPPPPPPPPPPPPPPPPsffffh9X      +thhffhs4oPPPPPPPPPPPPPPPPPPPP",
"PPPPPPPPPPPPPPPPPPPPPfgffff5-&*-<7rerusft-.PPPPPPPPPPPPPPPPPPPPP",
"PPPPPPPPPPPPPPPPPPPPPPdhhhuyfsfhhhhfpte,o.PPPPPPPPPPPPPPPPPPPPPP",
"PPPPPPPPPPPPPPPPPPPPPPPParefffffffffhh9X.PPPPPPPPPPPPPPPPPPPPPPP",
"PPPPPPPPPPPPPPPPPPPPPPPPPP2uhhffffffhp-PPPPPPPPPPPPPPPPPPPPPPPPP",
"PPPPPPPPPPPPPPPPPPPPPPPPPPPPPPPPPPPPPPPPPPPPPPPPPPPPPPPPPPPPPPPP",
"PPPPPPPPPPPPPPPPPPPPPPPPPPPPPPPPPPPPPPPPPPPPPPPPPPPPPPPPPPPPPPPP",
"PPPPPPPPPPPPPPPPPPPPPPPPPPPPPPPPPPPPPPPPPPPPPPPPPPPPPPPPPPPPPPPP",
"PPPPPPPPPPPPPPPPPPPPPPPPPPPPPPPPPPPPPPPPPPPPPPPPPPPPPPPPPPPPPPPP",
"PPPPPPPPPPPPPPPPPPPPPPPPPPPPPPPPPPPPPPPPPPPPPPPPPPPPPPPPPPPPPPPP",
"PPPPPPPPPPPPPPPPPPPPPPPPPPPPPPPPPPPPPPPPPPPPPPPPPPPPPPPPPPPPPPPP",
"PPPPPPPPPPPPPPPPPPPPPPPPPPPPPPPPPPPPPPPPPPPPPPPPPPPPPPPPPPPPPPPP",
"PPPPPPPPPPPPPPPPPPPPPPPPPPPPPPPPPPPPPPPPPPPPPPPPPPPPPPPPPPPPPPPP",
"PPPPPPPPPPPPPPPPPPPPPPPPPPPPPPPPPPPPPPPPPPPPPPPPPPPPPPPPPPPPPPPP",
"PPPPPPPPPPPPPPPPPPPPPPPPPPPPPPPPPPPPPPPPPPPPPPPPPPPPPPPPPPPPPPPP",
"PPPPPPPPPPPPPPPPPPPPPPPPPPPPPPPPPPPPPPPPPPPPPPPPPPPPPPPPPPPPPPPP",
"PPPPPPPPPPPPPPPPPPPPPPPPPPPPPPPPPPPPPPPPPPPPPPPPPPPPPPPPPPPPPPPP",
"PPPPPPPPPPPPPPPPPPPPPPPPPPPPPPPPPPPPPPPPPPPPPPPPPPPPPPPPPPPPPPPP",
"PPPPPPPPPPPPPPPPPPPPPPPPPPPPPPPPPPPPPPPPPPPPPPPPPPPPPPPPPPPPPPPP",
"PPPPPPPPPPPPPPPPPPPPPPPPPPPPPPPPPPPPPPPPPPPPPPPPPPPPPPPPPPPPPPPP"
};
