/* XPM */
static char *result[] = {
/* columns rows colors chars-per-pixel */
"64 64 72 1 ",
"  c black",
". c #080807",
"X c #0B0B0A",
"o c #141413",
"O c #1C1C1B",
"+ c #20201F",
"@ c #242423",
"# c #282826",
"$ c #2F2F2D",
"% c #30302E",
"& c #343433",
"* c #383836",
"= c #3C3C3A",
"- c #42423F",
"; c #454543",
": c #484845",
"> c #4D4D4A",
", c #50504D",
"< c #545452",
"1 c #595955",
"2 c #5D5D5A",
"3 c #676763",
"4 c #6B6B66",
"5 c #6F6F6B",
"6 c #72726D",
"7 c #747470",
"8 c #7B7B76",
"9 c #7C7C78",
"0 c #81817C",
"q c #858581",
"w c #8A8A84",
"e c #8D8D88",
"r c #91918B",
"t c #969690",
"y c #9F9F98",
"u c #A3A39D",
"i c #A7A7A1",
"p c #AAAAA3",
"a c #AFAFA8",
"s c #B2B2AB",
"d c #B8B8AF",
"f c #B7B7B1",
"g c #BCBCB4",
"h c #BFBFB8",
"j c #C4C4BC",
"k c #C8C8BF",
"l c #C7C7C0",
"z c #CACAC2",
"x c #D0D0C7",
"c c #D2D2CB",
"v c #D4D4CB",
"b c #D6D6CE",
"n c #D8D8CF",
"m c #D9D9D1",
"M c #DCDCD3",
"N c #DEDED5",
"B c #E0E0D7",
"V c #E2E2DA",
"C c #E5E5DB",
"Z c #E7E7DE",
"A c #E8E8DF",
"S c #EAEAE1",
"D c #ECECE2",
"F c #EDEDE4",
"G c #F0F0E7",
"H c #F2F2E8",
"J c #F5F5EB",
"K c #F6F6ED",
"L c #F8F8EE",
"P c #FAFAF0",
"I c #FCFCF2",
"U c #11498E",
/* pixels */
"UUUUUUUUUUUUUUUUUUUUUUUUUUUUUUUUUUUUUUUUUUUUUUUUUUUUUUUUUUUUUUUU",
"UUUUUUUUUUUUUUUUUUUUUUUUUUUUUUUUUUUUUUUUUUUUUUUUUUUUUUUUUUUUUUUU",
"UUUUUUUUUUUUUUUUUUUUUUUUUUUUUUUUUUUUUUUUUUUUUUUUUUUUUUUUUUUUUUUU",
"UUUUUUUUUUUUUUUUUUUUUUUUUUUUUUUUUUUUUUUUUUUUUUUUUUUUUUUUUUUUUUUU",
"UUUUUUUUUUUUUUUUUUUUUUUUUUUUUUUUUUUUUUUUUUUUUUUUUUUUUUUUUUUUUUUU",
"UUUUUUUUUUUUUUUUUUUUUUUUUUUUUUUUUUUUUUUUUUUUUUUUUUUUUUUUUUUUUUUU",
"UUUUUUUUUUUUUUUUUUUUUUUUUUUUUUUUUUUUUUUUUUUUUUUUUUUUUUUUUUUUUUUU",
"UUUUUUUUUUUUUUUUUUUUUUUUUUUUUUUUUUUUUUUUUUUUUUUUUUUUUUUUUUUUUUUU",
"UUUUUUUUUUUUUUUUUUUUUUUUUUUUUUUUUUUUUUUUUUUUUUUUUUUUUUUUUUUUUUUU",
"UUUUUUUUUUUUUUUUUUUUUUUUUUUUUUUUUUUUUUUUUUUUUUUUUUUUUUUUUUUUUUUU",
"UUUUUUUUUUUUUUUUUUUUUUUUUUUUUUUUUUUUUUUUUUUUUUUUUUUUUUUUUUUUUUUU",
"UUUUUUUUUUUUUUUUUUUUUUUUUUUUUUUUUUUUUUUUUUUUUUUUUUUUUUUUUUUUUUUU",
"UUUUUUUUUUUUUUUUUUUUUUUUUUUUUUUUUUUUUUUUUUUUUUUUUUUUUUUUUUUUUUUU",
"UUUUUUUUUUUUUUUUUUUUUUUUUUUUUUUUUUUUUUUUUUUUUUUUUUUUUUUUUUUUUUUU",
"UUUUUUUUUUUUUUUUUUUUUUUUUUUUUUUUUUUUUUUUUUUUUUUUUUUUUUUUUUUUUUUU",
"UUUUUUUUUUUUUUUUUUUUUUUUUUUUUUUUUUUUUUUUUUUUUUUUUUUUUUUUUUUUUUUU",
"UUUUUUUUUUUUUUUUUUUUUUUUUUUUUUUUUUUUUUUUUUUUUUUUUUUUUUUUUUUUUUUU",
"UUUUUUUUUUUUUUUUUUUUUUUUUUUUUUUUUUUUUUUUUUUUUUUUUUUUUUUUUUUUUUUU",
"UUUUUUUUUUUUUUUUUUUUUUUUUUUUUUUUUUUUUUUUUUUUUUUUUUUUUUUUUUUUUUUU",
"UUUUUUUUUUUUUUUUUUUUUUUUUUUU9izzzzzzcUUUUUUUUUUUUUUUUUUUUUUUUUUU",
"UUUUUUUUUUUUUUUUUUUUUUUUUjcmjVGGGGGFANbUUUUUUUUUUUUUUUUUUUUUUUUU",
"UUUUUUUUUUUUUUUUUUUUUUUjbZHLBGPPLLLLLKGZjUUUUUUUUUUUUUUUUUUUUUUU",
"UUUUUUUUUUUUUUUUUUUUUUzVHLPLfjDPPLLLLLLLb#XUUUUUUUUUUUUUUUUUUUUU",
"UUUUUUUUUUUUUUUUUUUUUcSKLIN7Oo=qbPPPPLKLm@ XUUUUUUUUUUUUUUUUUUUU",
"UUUUUUUUUUUUUUUUUUUUbFLPPj=     #rSVbzjlp#  XUUUUUUUUUUUUUUUUUUU",
"UUUUUUUUUUUUUUUUUUUbFLPPs#       XwmNSJJJg$  XUUUUUUUUUUUUUUUUUU",
"UUUUUUUUUUUUUUUUUUuSLJFaO        XsIPPLLLIj#  XUUUUUUUUUUUUUUUUU",
"UUUUUUUUUUUUUUUUU29mzjz2         ObPLLLLLLIao  UUUUUUUUUUUUUUUUU",
"UUUUUUUUUUUUUUUUU&5bSKPpX        ;FPLLLLLLPL0   UUUUUUUUUUUUUUUU",
"UUUUUUUUUUUUUUUU<&cIPLPZ*        9PLLLLLLLLPV=  UUUUUUUUUUUUUUUU",
"UUUUUUUUUUUUUUUU$5LLLLLPw       XgILLLLLLLLLKupuUUUUUUUUUUUUUUUU",
"UUUUUUUUUUUUUUUU$fILLLLPm#   XO*3zPPLLLLLLLLHfISjUUUUUUUUUUUUUUU",
"UUUUUUUUUUUUUUU<;APLLLLPL0-4escAHjmPLLLLLLLPFgKmjUUUUUUUUUUUUUUU",
"UUUUUUUUUUUUUUU*7PLLLLLPHjDLIIIPPJzMPLLLLLLPNzHzjUUUUUUUUUUUUUUU",
"UUUUUUUUUUUUUUU,uILLLLLPbbPLLLLLLPHjVPLLLLLPjBVzzUUUUUUUUUUUUUUU",
"UUUUUUUUUUUUUUUsjLLLLLLKjFPLLLLLLLPFjSIIIPLZgFxjzUUUUUUUUUUUUUUU",
"UUUUUUUUUUUUUUUczKLLLLPZjLLLLLLLLLLPAgfuw6<;gBkzzUUUUUUUUUUUUUUU",
"UUUUUUUUUUUUUUUmzSPLLLPbmPLLLLLLLLLLIrX     7zkzzUUUUUUUUUUUUUUU",
"UUUUUUUUUUUUUUUmmbPLLPPzFPLLLLLLLLLPJ1      =jkzzUUUUUUUUUUUUUUU",
"UUUUUUUUUUUUUUUUSzAIPGvfKLLLLLLLLLLPN#      @szzlUUUUUUUUUUUUUUU",
"UUUUUUUUUUUUUUUUSSdu8:O=NPLLLLLLLPLIp       ouzzzUUUUUUUUUUUUUUU",
"UUUUUUUUUUUUUUUUVPjo    3GPLLLLLLLPK2        rkzUUUUUUUUUUUUUUUU",
"UUUUUUUUUUUUUUUUUJcO     0JPLLLLLPIzO       owaaUUUUUUUUUUUUUUUU",
"UUUUUUUUUUUUUUUUUSZ%     XrKIPPLKSN9        3jjzUUUUUUUUUUUUUUUU",
"UUUUUUUUUUUUUUUUUVG2      Xwmmbzjjxg>     .2gzzUUUUUUUUUUUUUUUUU",
"UUUUUUUUUUUUUUUUUUAuX      %znnVCNczj9+  O8jzzUUUUUUUUUUUUUUUUUU",
"UUUUUUUUUUUUUUUUUUUj=      6CBnxzkkkkzp>;ykkzUUUUUUUUUUUUUUUUUUU",
"UUUUUUUUUUUUUUUUUUUUw;X   OpzjjjkkkkkkzaszkkzUUUUUUUUUUUUUUUUUUU",
"UUUUUUUUUUUUUUUUUUUUUhr;o 1jkkkkkkkkkkjpjkkzUUUUUUUUUUUUUUUUUUUU",
"UUUUUUUUUUUUUUUUUUUUUUzju0rjzkkkkkkkkzgskkUUUUUUUUUUUUUUUUUUUUUU",
"UUUUUUUUUUUUUUUUUUUUUUUzzzdudjzkzzzzjsrgzUUUUUUUUUUUUUUUUUUUUUUU",
"UUUUUUUUUUUUUUUUUUUUUUUUUzzjpusjgdu9,#%UUUUUUUUUUUUUUUUUUUUUUUUU",
"UUUUUUUUUUUUUUUUUUUUUUUUUUUUzht1:$@+oUUUUUUUUUUUUUUUUUUUUUUUUUUU",
"UUUUUUUUUUUUUUUUUUUUUUUUUUUUUUUUUUUUUUUUUUUUUUUUUUUUUUUUUUUUUUUU",
"UUUUUUUUUUUUUUUUUUUUUUUUUUUUUUUUUUUUUUUUUUUUUUUUUUUUUUUUUUUUUUUU",
"UUUUUUUUUUUUUUUUUUUUUUUUUUUUUUUUUUUUUUUUUUUUUUUUUUUUUUUUUUUUUUUU",
"UUUUUUUUUUUUUUUUUUUUUUUUUUUUUUUUUUUUUUUUUUUUUUUUUUUUUUUUUUUUUUUU",
"UUUUUUUUUUUUUUUUUUUUUUUUUUUUUUUUUUUUUUUUUUUUUUUUUUUUUUUUUUUUUUUU",
"UUUUUUUUUUUUUUUUUUUUUUUUUUUUUUUUUUUUUUUUUUUUUUUUUUUUUUUUUUUUUUUU",
"UUUUUUUUUUUUUUUUUUUUUUUUUUUUUUUUUUUUUUUUUUUUUUUUUUUUUUUUUUUUUUUU",
"UUUUUUUUUUUUUUUUUUUUUUUUUUUUUUUUUUUUUUUUUUUUUUUUUUUUUUUUUUUUUUUU",
"UUUUUUUUUUUUUUUUUUUUUUUUUUUUUUUUUUUUUUUUUUUUUUUUUUUUUUUUUUUUUUUU",
"UUUUUUUUUUUUUUUUUUUUUUUUUUUUUUUUUUUUUUUUUUUUUUUUUUUUUUUUUUUUUUUU",
"UUUUUUUUUUUUUUUUUUUUUUUUUUUUUUUUUUUUUUUUUUUUUUUUUUUUUUUUUUUUUUUU"
};
