/* XPM */
static char *result[] = {
/* columns rows colors chars-per-pixel */
"64 64 69 1 ",
"  c black",
". c #080807",
"X c #0B0B0B",
"o c #10100F",
"O c #141413",
"+ c #181817",
"@ c #1D1D1C",
"# c #242423",
"$ c #282827",
"% c #2C2C2B",
"& c #363635",
"* c #393936",
"= c #3C3C3A",
"- c #41413F",
"; c #454543",
": c #4A4A47",
"> c #4D4D4B",
", c #52524E",
"< c #555552",
"1 c #5A5A56",
"2 c #5E5E5A",
"3 c #62625E",
"4 c #686863",
"5 c #6E6E69",
"6 c #71716D",
"7 c #767671",
"8 c #797975",
"9 c #7D7D78",
"0 c #858580",
"q c #8A8A85",
"w c #8E8E89",
"e c #91918C",
"r c #9C9C96",
"t c #A2A29C",
"y c #ACACA5",
"u c #AEAEA8",
"i c #B4B4AC",
"p c #B6B6B1",
"a c #BABAB3",
"s c #C5C5BD",
"d c #C8C8BF",
"f c #C7C7C0",
"g c #CBCBC2",
"h c #CECEC8",
"j c #D2D2C9",
"k c #D6D6CF",
"l c #D9D9CF",
"z c #D7D7D0",
"x c #D9D9D0",
"c c #DCDCD3",
"v c #DBDBD4",
"b c #DCDCD4",
"n c #E0E0D7",
"m c #E2E2DA",
"M c #E4E4DA",
"N c #E5E5DC",
"B c #E8E8DF",
"V c #E9E9E0",
"C c #EDEDE3",
"Z c #EDEDE4",
"A c #F0F0E6",
"S c #F2F2E8",
"D c #F5F5EB",
"F c #F7F7ED",
"G c #FAFAEF",
"H c #FBFBF1",
"J c #FEFEF3",
"K c #FFFFF5",
"L c #11498E",
/* pixels */
"LLLLLLLLLLLLLLLLLLLLLLLLLLLLLLLLLLLLLLLLLLLLLLLLLLLLLLLLLLLLLLLL",
"LLLLLLLLLLLLLLLLLLLLLLLLLLLLLLLLLLLLLLLLLLLLLLLLLLLLLLLLLLLLLLLL",
"LLLLLLLLLLLLLLLLLLLLLLLLLLLLLLLLLLLLLLLLLLLLLLLLLLLLLLLLLLLLLLLL",
"LLLLLLLLLLLLLLLLLLLLLLLLLLLLLLLLLLLLLLLLLLLLLLLLLLLLLLLLLLLLLLLL",
"LLLLLLLLLLLLLLLLLLLLLLLLLLLLLLLLLLLLLLLLLLLLLLLLLLLLLLLLLLLLLLLL",
"LLLLLLLLLLLLLLLLLLLLLLLLLLLLLLLLLLLLLLLLLLLLLLLLLLLLLLLLLLLLLLLL",
"LLLLLLLLLLLLLLLLLLLLLLLLLLLLLLLLLLLLLLLLLLLLLLLLLLLLLLLLLLLLLLLL",
"LLLLLLLLLLLLLLLLLLLLLLLLLLLLLLLLLLLLLLLLLLLLLLLLLLLLLLLLLLLLLLLL",
"LLLLLLLLLLLLLLLLLLLLLLLLLLLLLLLLLLLLLLLLLLLLLLLLLLLLLLLLLLLLLLLL",
"LLLLLLLLLLLLLLLLLLLLLLLLLLLLLLLLLLLLLLLLLLLLLLLLLLLLLLLLLLLLLLLL",
"LLLLLLLLLLLLLLLLLLLLLLLLLLLLLLLLLLLLLLLLLLLLLLLLLLLLLLLLLLLLLLLL",
"LLLLLLLLLLLLLLLLLLLLLLLLLLLLLLLLLLLLLLLLLLLLLLLLLLLLLLLLLLLLLLLL",
"LLLLLLLLLLLLLLLLLLLLLLLLLLLLLLLLLLLLLLLLLLLLLLLLLLLLLLLLLLLLLLLL",
"LLLLLLLLLLLLLLLLLLLLLLLLLLLLLLLLLLLLLLLLLLLLLLLLLLLLLLLLLLLLLLLL",
"LLLLLLLLLLLLLLLLLLLLLLLLLLLLLLLLLLLLLLLLLLLLLLLLLLLLLLLLLLLLLLLL",
"LLLLLLLLLLLLLLLLLLLLLLLLLLLLLLLLLLLLLLLLLLLLLLLLLLLLLLLLLLLLLLLL",
"LLLLLLLLLLLLLLLLLLLLLLLLLLLLLLLLLLLLLLLLLLLLLLLLLLLLLLLLLLLLLLLL",
"LLLLLLLLLLLLLLLLLLLLLLLLLLLLLLLLLLLLLLLLLLLLLLLLLLLLLLLLLLLLLLLL",
"LLLLLLLLLLLLLLLLLLLLLLLLLLLLLLLLLLLLLLLLLLLLLLLLLLLLLLLLLLLLLLLL",
"LLLLLLLLLLLLLLLLLLLLLLLLLLLLLLLLLLLLLLLLLLLLLLLLLLLLLLLLLLLLLLLL",
"LLLLLLLLLLLLLLLLLLLLLLLLLLLLLLLLLLLLLLLLLLLLLLLLLLLLLLLLLLLLLLLL",
"LLLLLLLLLLLLLLLLLLLLLLLLLLLLLLLLLLLLLLLLLLLLLLLLLLLLLLLLLLLLLLLL",
"LLLLLLLLLLLLLLLLLLLLLLLLLLLshkbbbbsgjLLLLLLLLLLLLLLLLLLLLLLLLLLL",
"LLLLLLLLLLLLLLLLLLLLLLLLLhvBADFFGGNkSBbkLLLLLLLLLLLLLLLLLLLLLLLL",
"LLLLLLLLLLLLLLLLLLLLLLLgbZFGGGGHHMywxGFCmkLLLLLLLLLLLLLLLLLLLLLL",
"LLLLLLLLLLLLLLLLLLLLL#;bGHHHHHHk0&. $wCHDVvLLLLLLLLLLLLLLLLLLLLL",
"LLLLLLLLLLLLLLLLLLLL%.Xybjhjbme$     .<kJGZbLLLLLLLLLLLLLLLLLLLL",
"LLLLLLLLLLLLLLLLLLL#. #thjkkjq.        &sSSAmLLLLLLLLLLLLLLLLLLL",
"LLLLLLLLLLLLLLLLLLLX @iHJHHHJsO         ;fkxj5LLLLLLLLLLLLLLLLLL",
"LLLLLLLLLLLLLLLLLLO XtHGGGGGGS<         5GGSN3$LLLLLLLLLLLLLLLLL",
"LLLLLLLLLLLLLLLLL$. 6DHGGGGGGJt.       .yJGGJs=LLLLLLLLLLLLLLLLL",
"LLLLLLLLLLLLLLLLLO %xHGGGGGGGHb%       %nHGGGGq&LLLLLLLLLLLLLLLL",
"LLLLLLLLLLLLLLLL#  qHGGGGGGGGGG7.X.    6GGGGGHb>LLLLLLLLLLLLLLLL",
"LLLLLLLLLLLLLLLL:6whHGGGGGGGGGSaaaiyr9<aJGGGGGHe&LLLLLLLLLLLLLLL",
"LLLLLLLLLLLLLLLLxHZsGGGGGGGGGGhbKJJJJHZsAGGGGGHs-LLLLLLLLLLLLLLL",
"LLLLLLLLLLLLLLLjZHFsCHGGGGGGHbgGGGGGGGHkjHGGGGFh3LLLLLLLLLLLLLLL",
"LLLLLLLLLLLLLLLzZGHxkHGGGGGGZsAHGGGGGGGDsZGGGHZsrLLLLLLLLLLLLLLL",
"LLLLLLLLLLLLLLLzAGGSsSGHHHGGgcHGGGGGGGGHxjHGGGciuLLLLLLLLLLLLLLL",
"LLLLLLLLLLLLLLLxSGGHkkFVBVSmsGGGGGGGGGGGSsSGGCgypLLLLLLLLLLLLLLL",
"LLLLLLLLLLLLLLLvSGGHC4;*&*-<jHGGGGGGGGGGHjmKGkstsLLLLLLLLLLLLLLL",
"LLLLLLLLLLLLLLLxSGGHfO      0GGGGGGGGGGGHk8ryiytgLLLLLLLLLLLLLLL",
"LLLLLLLLLLLLLLLzAGGJe       $bHGGGGGGGGGHw  X@:ifLLLLLLLLLLLLLLL",
"LLLLLLLLLLLLLLLLCGGH5        wHGGGGGGGGJj#    @ahLLLLLLLLLLLLLLL",
"LLLLLLLLLLLLLLLLNGGD1        &MHGGGGGGGS4     %ahLLLLLLLLLLLLLLL",
"LLLLLLLLLLLLLLLLbDJS,        .tJHGHGHHHr.     ;sLLLLLLLLLLLLLLLL",
"LLLLLLLLLLLLLLLLLhbk7         ;hbVVCZZa#      4hLLLLLLLLLLLLLLLL",
"LLLLLLLLLLLLLLLLLtmZM2       #tnjssssi>      .qLLLLLLLLLLLLLLLLL",
"LLLLLLLLLLLLLLLLLLNHHV8o    =sHJHFCchfeX     >tLLLLLLLLLLLLLLLLL",
"LLLLLLLLLLLLLLLLLLkVSGDy= .2xGABbjfddds:   X2aLLLLLLLLLLLLLLLLLL",
"LLLLLLLLLLLLLLLLLLLfhjlbd65jljhfsdddddfrOO-wsLLLLLLLLLLLLLLLLLLL",
"LLLLLLLLLLLLLLLLLLLLsfssfstsdsddddddddfa7rsfLLLLLLLLLLLLLLLLLLLL",
"LLLLLLLLLLLLLLLLLLLLLsfsdftifddddddddfstaffLLLLLLLLLLLLLLLLLLLLL",
"LLLLLLLLLLLLLLLLLLLLLLsfffatsfddddddfstiddLLLLLLLLLLLLLLLLLLLLLL",
"LLLLLLLLLLLLLLLLLLLLLLLLfssteassfffsitpffLLLLLLLLLLLLLLLLLLLLLLL",
"LLLLLLLLLLLLLLLLLLLLLLLLLL7*+$-<3437ysfLLLLLLLLLLLLLLLLLLLLLLLLL",
"LLLLLLLLLLLLLLLLLLLLLLLLLLLLLLO@@OLLLLLLLLLLLLLLLLLLLLLLLLLLLLLL",
"LLLLLLLLLLLLLLLLLLLLLLLLLLLLLLLLLLLLLLLLLLLLLLLLLLLLLLLLLLLLLLLL",
"LLLLLLLLLLLLLLLLLLLLLLLLLLLLLLLLLLLLLLLLLLLLLLLLLLLLLLLLLLLLLLLL",
"LLLLLLLLLLLLLLLLLLLLLLLLLLLLLLLLLLLLLLLLLLLLLLLLLLLLLLLLLLLLLLLL",
"LLLLLLLLLLLLLLLLLLLLLLLLLLLLLLLLLLLLLLLLLLLLLLLLLLLLLLLLLLLLLLLL",
"LLLLLLLLLLLLLLLLLLLLLLLLLLLLLLLLLLLLLLLLLLLLLLLLLLLLLLLLLLLLLLLL",
"LLLLLLLLLLLLLLLLLLLLLLLLLLLLLLLLLLLLLLLLLLLLLLLLLLLLLLLLLLLLLLLL",
"LLLLLLLLLLLLLLLLLLLLLLLLLLLLLLLLLLLLLLLLLLLLLLLLLLLLLLLLLLLLLLLL",
"LLLLLLLLLLLLLLLLLLLLLLLLLLLLLLLLLLLLLLLLLLLLLLLLLLLLLLLLLLLLLLLL"
};
