/* XPM */
static char *result[] = {
/* columns rows colors chars-per-pixel */
"64 64 70 1 ",
"  c black",
". c #080807",
"X c gray4",
"o c #141413",
"O c #181817",
"+ c #1D1D1C",
"@ c #232322",
"# c #282827",
"$ c #2D2D2C",
"% c #30302E",
"& c #343432",
"* c #383836",
"= c #3D3D3A",
"- c #40403E",
"; c #454542",
": c #494946",
"> c #4D4D4A",
", c #51514E",
"< c #555552",
"1 c #5A5A56",
"2 c #5C5C59",
"3 c #666662",
"4 c #6A6A65",
"5 c #72726D",
"6 c #767670",
"7 c #797974",
"8 c #7D7D78",
"9 c #81817C",
"0 c #868681",
"q c #8A8A84",
"w c #8E8E89",
"e c #93938D",
"r c #9B9B95",
"t c #A3A39C",
"y c #A7A7A0",
"u c #AAAAA3",
"i c #AFAFA9",
"p c #B3B3AC",
"a c #B7B7B0",
"s c #BCBCB5",
"d c #C0C0B7",
"f c #C4C4BC",
"g c #C8C8BF",
"h c #C7C7C0",
"j c #CBCBC2",
"k c #CFCFC9",
"l c #D0D0C6",
"z c #D2D2C9",
"x c #D2D2CC",
"c c #D4D4CD",
"v c #D6D6D0",
"b c #DBDBD3",
"n c #DCDCD3",
"m c #DDDDD5",
"M c #E0E0D7",
"N c #E2E2D9",
"B c #E4E4DB",
"V c #E6E6DD",
"C c #E8E8DE",
"Z c #EBEBE2",
"A c #ECECE2",
"S c #EEEEE4",
"D c #F0F0E7",
"F c #F3F3E9",
"G c #F5F5EB",
"H c #F6F6ED",
"J c #F9F9EF",
"K c #FBFBF0",
"L c #FCFCF2",
"P c #11498E",
/* pixels */
"PPPPPPPPPPPPPPPPPPPPPPPPPPPPPPPPPPPPPPPPPPPPPPPPPPPPPPPPPPPPPPPP",
"PPPPPPPPPPPPPPPPPPPPPPPPPPPPPPPPPPPPPPPPPPPPPPPPPPPPPPPPPPPPPPPP",
"PPPPPPPPPPPPPPPPPPPPPPPPPPPPPPPPPPPPPPPPPPPPPPPPPPPPPPPPPPPPPPPP",
"PPPPPPPPPPPPPPPPPPPPPPPPPPPPPPPPPPPPPPPPPPPPPPPPPPPPPPPPPPPPPPPP",
"PPPPPPPPPPPPPPPPPPPPPPPPPPPPPPPPPPPPPPPPPPPPPPPPPPPPPPPPPPPPPPPP",
"PPPPPPPPPPPPPPPPPPPPPPPPPPPPPPPPPPPPPPPPPPPPPPPPPPPPPPPPPPPPPPPP",
"PPPPPPPPPPPPPPPPPPPPPPPPPPPPPPPPPPPPPPPPPPPPPPPPPPPPPPPPPPPPPPPP",
"PPPPPPPPPPPPPPPPPPPPPPPPPPPPPPPPPPPPPPPPPPPPPPPPPPPPPPPPPPPPPPPP",
"PPPPPPPPPPPPPPPPPPPPPPPPPPPPPPPPPPPPPPPPPPPPPPPPPPPPPPPPPPPPPPPP",
"PPPPPPPPPPPPPPPPPPPPPPPPPPPPPPPPPPPPPPPPPPPPPPPPPPPPPPPPPPPPPPPP",
"PPPPPPPPPPPPPPPPPPPPPPPPPPPPPPPPPPPPPPPPPPPPPPPPPPPPPPPPPPPPPPPP",
"PPPPPPPPPPPPPPPPPPPPPPPPPPPPPPPPPPPPPPPPPPPPPPPPPPPPPPPPPPPPPPPP",
"PPPPPPPPPPPPPPPPPPPPPPPPPPPPPPPPPPPPPPPPPPPPPPPPPPPPPPPPPPPPPPPP",
"PPPPPPPPPPPPPPPPPPPPPPPPPPPPPPPPPPPPPPPPPPPPPPPPPPPPPPPPPPPPPPPP",
"PPPPPPPPPPPPPPPPPPPPPPPPPPPPPPPPPPPPPPPPPPPPPPPPPPPPPPPPPPPPPPPP",
"PPPPPPPPPPPPPPPPPPPPPPPPPPPPPPPPPPPPPPPPPPPPPPPPPPPPPPPPPPPPPPPP",
"PPPPPPPPPPPPPPPPPPPPPPPPPPPPPPPPPPPPPPPPPPPPPPPPPPPPPPPPPPPPPPPP",
"PPPPPPPPPPPPPPPPPPPPPPPPPPPPPPPPPPPPPPPPPPPPPPPPPPPPPPPPPPPPPPPP",
"PPPPPPPPPPPPPPPPPPPPPPPPPPPPPPPPPPPPPPPPPPPPPPPPPPPPPPPPPPPPPPPP",
"PPPPPPPPPPPPPPPPPPPPPPPPPPPPPPPPPPPPPPPPPPPPPPPPPPPPPPPPPPPPPPPP",
"PPPPPPPPPPPPPPPPPPPPPPPPPPPPPPPPPPPPPPPPPPPPPPPPPPPPPPPPPPPPPPPP",
"PPPPPPPPPPPPPPPPPPPPPPPPPPPPP+OpjjhPPPPPPPPPPPPPPPPPPPPPPPPPPPPP",
"PPPPPPPPPPPPPPPPPPPPPPPPPPOX. $bSAZNmvkPPPPPPPPPPPPPPPPPPPPPPPPP",
"PPPPPPPPPPPPPPPPPPPPPPPPO.   .<CKKJJHDCmcPPPPPPPPPPPPPPPPPPPPPPP",
"PPPPPPPPPPPPPPPPPPPPPP+.  .=9pfsfVKJJJJFCbPPPPPPPPPPPPPPPPPPPPPP",
"PPPPPPPPPPPPPPPPPPPPP#. .:uZKLLHmszHKKKKJDjPPPPPPPPPPPPPPPPPPPPP",
"PPPPPPPPPPPPPPPPPPPPjsw;eZLKJJJJKGjfNMNAJHjbcPPPPPPPPPPPPPPPPPPP",
"PPPPPPPPPPPPPPPPPPPzSLFsGKJJJJJJJJKe$$&-18fHVPPPPPPPPPPPPPPPPPPP",
"PPPPPPPPPPPPPPPPPPjVHKCjKJJJJJJJJJK5      1ZGVPPPPPPPPPPPPPPPPPP",
"PPPPPPPPPPPPPPPPPPmGJKbnKJJJJJJJJKF,      .rKFNPPPPPPPPPPPPPPPPP",
"PPPPPPPPPPPPPPPPPcDJJKzVKJJJJJJJJKV%       =ZKAPPPPPPPPPPPPPPPPP",
"PPPPPPPPPPPPPPPPPBJJJKzVKJJJJJJJJKzO       .pLHVPPPPPPPPPPPPPPPP",
"PPPPPPPPPPPPPPPPxSJJJLcZKJJJJJJJKLp.        4JJZPPPPPPPPPPPPPPPP",
"PPPPPPPPPPPPPPPPmHJJKb5tALJJJJKJZzu=        &mKZfPPPPPPPPPPPPPPP",
"PPPPPPPPPPPPPPPPVJJKc; .>sGKKJCjfNHV9O     oezbmhPPPPPPPPPPPPPPP",
"PPPPPPPPPPPPPPPhZJKN:    o5mZjjBJKJKJs-   @yJJbasPPPPPPPPPPPPPPP",
"PPPPPPPPPPPPPPPiNJH5       =pNJKJJJJJLN3.*sKJJCp2PPPPPPPPPPPPPPP",
"PPPPPPPPPPPPPPPufziO       ojLJJJJJJJJKAezLJJGcf=PPPPPPPPPPPPPPP",
"PPPPPPPPPPPPPPPfZSr        +zKJJJJJJJJJKzAKJJBjf*PPPPPPPPPPPPPPP",
"PPPPPPPPPPPPPPPvDLjO       $mKJJJJJJJJJHsAKJDjff=PPPPPPPPPPPPPPP",
"PPPPPPPPPPPPPPPvDKS;       =AKJJJJJJJJJGfDKGcggs=PPPPPPPPPPPPPPP",
"PPPPPPPPPPPPPPPvSJLe       >HJJJJJJJJJJDfHHbggjp*PPPPPPPPPPPPPPP",
"PPPPPPPPPPPPPPPPZJKm%      3JJJJJJJJJJKSfHbgggjy%PPPPPPPPPPPPPPP",
"PPPPPPPPPPPPPPPPBHJKe.  .o@8FKJJJJJJJJKVfbggggjq$PPPPPPPPPPPPPPP",
"PPPPPPPPPPPPPPPPmFJKM59rifmcfZKJJJJJJKLfpjgggjpqPPPPPPPPPPPPPPPP",
"PPPPPPPPPPPPPPPPPZJKNzLLLLKKBsmJKJJKLCr&<sjgjstfPPPPPPPPPPPPPPPP",
"PPPPPPPPPPPPPPPPPNGKNzKJJJJJKDjjSLKVy;.  ;pjptfPPPPPPPPPPPPPPPPP",
"PPPPPPPPPPPPPPPPPPAKVcLJJJJJJKJmfs0=.     *etfzPPPPPPPPPPPPPPPPP",
"PPPPPPPPPPPPPPPPPPPsjjFGGGGFSZBbj,        .0fjPPPPPPPPPPPPPPPPPP",
"PPPPPPPPPPPPPPPPPPP:*7jllljjjjggf>        ,fjPPPPPPPPPPPPPPPPPPP",
"PPPPPPPPPPPPPPPPPPPP+O6fjgggggggf=       &pjPPPPPPPPPPPPPPPPPPPP",
"PPPPPPPPPPPPPPPPPPPPP&O<pjjggggjf*      %yjPPPPPPPPPPPPPPPPPPPPP",
"PPPPPPPPPPPPPPPPPPPPPPPO%0dffffft<@Ooo+=rjPPPPPPPPPPPPPPPPPPPPPP",
"PPPPPPPPPPPPPPPPPPPPPPPP@+,tuuttidstrtppPPPPPPPPPPPPPPPPPPPPPPPP",
"PPPPPPPPPPPPPPPPPPPPPPPPPPPsjfffjjjjjPPPPPPPPPPPPPPPPPPPPPPPPPPP",
"PPPPPPPPPPPPPPPPPPPPPPPPPPPPPPPPPPPPPPPPPPPPPPPPPPPPPPPPPPPPPPPP",
"PPPPPPPPPPPPPPPPPPPPPPPPPPPPPPPPPPPPPPPPPPPPPPPPPPPPPPPPPPPPPPPP",
"PPPPPPPPPPPPPPPPPPPPPPPPPPPPPPPPPPPPPPPPPPPPPPPPPPPPPPPPPPPPPPPP",
"PPPPPPPPPPPPPPPPPPPPPPPPPPPPPPPPPPPPPPPPPPPPPPPPPPPPPPPPPPPPPPPP",
"PPPPPPPPPPPPPPPPPPPPPPPPPPPPPPPPPPPPPPPPPPPPPPPPPPPPPPPPPPPPPPPP",
"PPPPPPPPPPPPPPPPPPPPPPPPPPPPPPPPPPPPPPPPPPPPPPPPPPPPPPPPPPPPPPPP",
"PPPPPPPPPPPPPPPPPPPPPPPPPPPPPPPPPPPPPPPPPPPPPPPPPPPPPPPPPPPPPPPP",
"PPPPPPPPPPPPPPPPPPPPPPPPPPPPPPPPPPPPPPPPPPPPPPPPPPPPPPPPPPPPPPPP",
"PPPPPPPPPPPPPPPPPPPPPPPPPPPPPPPPPPPPPPPPPPPPPPPPPPPPPPPPPPPPPPPP"
};
