/* XPM */
static char *result[] = {
/* columns rows colors chars-per-pixel */
"64 64 72 1 ",
"  c black",
". c #080807",
"X c #0C0C0B",
"o c #131313",
"O c #1C1C1B",
"+ c #232322",
"@ c #282827",
"# c #2C2C2B",
"$ c #31312E",
"% c #333331",
"& c #393937",
"* c #3D3D3B",
"= c #454542",
"- c #484844",
"; c #4E4E4B",
": c #565652",
"> c #5A5A56",
", c #5E5E5A",
"< c #61615D",
"1 c #666662",
"2 c #6B6B67",
"3 c #6D6D69",
"4 c #71716C",
"5 c #767671",
"6 c #7B7B77",
"7 c #7D7D78",
"8 c #82827D",
"9 c #878781",
"0 c #8A8A84",
"q c #8F8F89",
"w c #93938D",
"e c #969690",
"r c #9B9B95",
"t c #9E9E99",
"y c #A4A49D",
"u c #A7A7A0",
"i c #ACACA4",
"p c #AFAFA8",
"a c #B4B4AC",
"s c #B7B7B0",
"d c #BCBCB4",
"f c #BFBFB9",
"g c #C0C0B7",
"h c #C4C4BC",
"j c #C8C8BF",
"k c #C6C6C0",
"l c #CBCBC3",
"z c #CECEC8",
"x c #D0D0C6",
"c c #D4D4CB",
"v c #D6D6D0",
"b c #DBDBD3",
"n c #DDDDD3",
"m c #DBDBD4",
"M c #DDDDD5",
"N c #E1E1D7",
"B c #E2E2D9",
"V c #E4E4DA",
"C c #E6E6DC",
"Z c #E9E9DF",
"A c #EAEAE0",
"S c #ECECE2",
"D c #EEEEE5",
"F c #F0F0E5",
"G c #F3F3E9",
"H c #F5F5EB",
"J c #F6F6EC",
"K c #F9F9EE",
"L c #FBFBF0",
"P c #FDFDF1",
"I c #FFFFF4",
"U c #11498E",
/* pixels */
"UUUUUUUUUUUUUUUUUUUUUUUUUUUUUUUUUUUUUUUUUUUUUUUUUUUUUUUUUUUUUUUU",
"UUUUUUUUUUUUUUUUUUUUUUUUUUUUUUUUUUUUUUUUUUUUUUUUUUUUUUUUUUUUUUUU",
"UUUUUUUUUUUUUUUUUUUUUUUUUUUUUUUUUUUUUUUUUUUUUUUUUUUUUUUUUUUUUUUU",
"UUUUUUUUUUUUUUUUUUUUUUUUUUUUUUUUUUUUUUUUUUUUUUUUUUUUUUUUUUUUUUUU",
"UUUUUUUUUUUUUUUUUUUUUUUUUUUUUUUUUUUUUUUUUUUUUUUUUUUUUUUUUUUUUUUU",
"UUUUUUUUUUUUUUUUUUUUUUUUUUUUUUUUUUUUUUUUUUUUUUUUUUUUUUUUUUUUUUUU",
"UUUUUUUUUUUUUUUUUUUUUUUUUUUUUUUUUUUUUUUUUUUUUUUUUUUUUUUUUUUUUUUU",
"UUUUUUUUUUUUUUUUUUUUUUUUUUUUUUUUUUUUUUUUUUUUUUUUUUUUUUUUUUUUUUUU",
"UUUUUUUUUUUUUUUUUUUUUUUUUUUUUUUUUUUUUUUUUUUUUUUUUUUUUUUUUUUUUUUU",
"UUUUUUUUUUUUUUUUUUUUUUUUUUUUUUUUUUUUUUUUUUUUUUUUUUUUUUUUUUUUUUUU",
"UUUUUUUUUUUUUUUUUUUUUUUUUUUUUUUUUUUUUUUUUUUUUUUUUUUUUUUUUUUUUUUU",
"UUUUUUUUUUUUUUUUUUUUUUUUUUUUUUUUUUUUUUUUUUUUUUUUUUUUUUUUUUUUUUUU",
"UUUUUUUUUUUUUUUUUUUUUUUUUUUUUUUUUUUUUUUUUUUUUUUUUUUUUUUUUUUUUUUU",
"UUUUUUUUUUUUUUUUUUUUUUUUUUUUUUUUUUUUUUUUUUUUUUUUUUUUUUUUUUUUUUUU",
"UUUUUUUUUUUUUUUUUUUUUUUUUUUUUUUUUUUUUUUUUUUUUUUUUUUUUUUUUUUUUUUU",
"UUUUUUUUUUUUUUUUUUUUUUUUUUUUUUUUUUUUUUUUUUUUUUUUUUUUUUUUUUUUUUUU",
"UUUUUUUUUUUUUUUUUUUUUUUUUUUUUUUUUUUUUUUUUUUUUUUUUUUUUUUUUUUUUUUU",
"UUUUUUUUUUUUUUUUUUUUUUUUUUUUUUUUUUUUUUUUUUUUUUUUUUUUUUUUUUUUUUUU",
"UUUUUUUUUUUUUUUUUUUUUUUUUUUUUUUUUUUUUUUUUUUUUUUUUUUUUUUUUUUUUUUU",
"UUUUUUUUUUUUUUUUUUUUUUUUUUUUUUUUUUUUUUUUUUUUUUUUUUUUUUUUUUUUUUUU",
"UUUUUUUUUUUUUUUUUUUUUUUUUUUUUUUUUUUUUUUUUUUUUUUUUUUUUUUUUUUUUUUU",
"UUUUUUUUUUUUUUUUUUUUUUUUUUUUUUUUUUUUUUUUUUUUUUUUUUUUUUUUUUUUUUUU",
"UUUUUUUUUUUUUUUUUUUUUUUUUUUUUUUUUUUUUUUUUUUUUUUUUUUUUUUUUUUUUUUU",
"UUUUUUUUUUUUUUUUUUUUUUUUUUU#abMBBBMvxUUUUUUUUUUUUUUUUUUUUUUUUUUU",
"UUUUUUUUUUUUUUUUUUUUUUUU@O.olKKKKKJHFZMcUUUUUUUUUUUUUUUUUUUUUUUU",
"UUUUUUUUUUUUUUUUUUUUUUUO.  @sCFLLKKKKKJCdcUUUUUUUUUUUUUUUUUUUUUU",
"UUUUUUUUUUUUUUUUUUUUU#o  O5lchdhCLPPPLPDxAmUUUUUUUUUUUUUUUUUUUUU",
"UUUUUUUUUUUUUUUUUUUUO. .>lKPPPHNglgr722<pLFMUUUUUUUUUUUUUUUUUUUU",
"UUUUUUUUUUUUUUUUUUU+  o0FPLKKKKPKwX     +sLFMUUUUUUUUUUUUUUUUUUU",
"UUUUUUUUUUUUUUUUUUU2:%rKPKKKKKKKPw       $cLFMUUUUUUUUUUUUUUUUUU",
"UUUUUUUUUUUUUUUUUUcFGdFLKKKKKKKKPy        1HKDmUUUUUUUUUUUUUUUUU",
"UUUUUUUUUUUUUUUUUlAKKdHKKKKKKKKKPi        XaPKZUUUUUUUUUUUUUUUUU",
"UUUUUUUUUUUUUUUUUmHKKjHKKKKKKKKKIi         ;VKHMUUUUUUUUUUUUUUUU",
"UUUUUUUUUUUUUUUUlAKKKlHKKKKKKKKKIi         <lxSAUUUUUUUUUUUUUUUU",
"UUUUUUUUUUUUUUUUbHKKKlHKKKKKKKKKBi<+      &nPSbg6UUUUUUUUUUUUUUU",
"UUUUUUUUUUUUUUUUBKKKLcZPLKKKKLHllFJc9%.  +gPKLKwOUUUUUUUUUUUUUUU",
"UUUUUUUUUUUUUUUzAKKKLu9lGPPKLZgbKLKPPVw#OiPKKKKi+UUUUUUUUUUUUUUU",
"UUUUUUUUUUUUUUUvDKKPg+ O;rMKbgZLKKKKKPPxyKKKKLDa@UUUUUUUUUUUUUUU",
"UUUUUUUUUUUUUUUvFKLC=    .#8hGLKKKKKKKLJlGLKKKbg=UUUUUUUUUUUUUUU",
"UUUUUUUUUUUUUUUcHKPe.      +bPKKKKKKKKKLhALKLSlh,UUUUUUUUUUUUUUU",
"UUUUUUUUUUUUUUUlDLA*       olPKKKKKKKKKPjZLKHcjh1UUUUUUUUUUUUUUU",
"UUUUUUUUUUUUUUUtlcao       .dPKKKKKKKKKPxMPKNjjh1UUUUUUUUUUUUUUU",
"UUUUUUUUUUUUUUUtCJc@       .iPKKKKKKKKKLbMPCljjg3UUUUUUUUUUUUUUU",
"UUUUUUUUUUUUUUUUSKK5        rPKKKKKKKKKLnNAljjliiUUUUUUUUUUUUUUU",
"UUUUUUUUUUUUUUUUCKPc#       qPKKKKKKKKKPldxljldylUUUUUUUUUUUUUUU",
"UUUUUUUUUUUUUUUUMHKPyX     .7GPKKKKLKKPl=@8glgygUUUUUUUUUUUUUUUU",
"UUUUUUUUUUUUUUUUUDKLH5  .@,yxgcGPLKLPJi#  .=ryalUUUUUUUUUUUUUUUU",
"UUUUUUUUUUUUUUUUUBKKPZ12iMHPPGxgcDLPM5o     $ilUUUUUUUUUUUUUUUUU",
"UUUUUUUUUUUUUUUUUUFLKKlFPPKKKLPHbhhe%       :jlUUUUUUUUUUUUUUUUU",
"UUUUUUUUUUUUUUUUUUbAGHlSLKKKKHFZMxa$       otlUUUUUUUUUUUUUUUUUU",
"UUUUUUUUUUUUUUUUUUUklcalMMMbcxlljjh-       ,hUUUUUUUUUUUUUUUUUUU",
"UUUUUUUUUUUUUUUUUUUUhhaalhhhhjjjjjl,      #aUUUUUUUUUUUUUUUUUUUU",
"UUUUUUUUUUUUUUUUUUUUU9,3gljjjjjjjjl4    X*8UUUUUUUUUUUUUUUUUUUUU",
"UUUUUUUUUUUUUUUUUUUUUUOo-rhlljjjllg9;;,5rdUUUUUUUUUUUUUUUUUUUUUU",
"UUUUUUUUUUUUUUUUUUUUUUUUoO;wdljgdiyahhjlUUUUUUUUUUUUUUUUUUUUUUUU",
"UUUUUUUUUUUUUUUUUUUUUUUUUUoo&3iiiahljjlUUUUUUUUUUUUUUUUUUUUUUUUU",
"UUUUUUUUUUUUUUUUUUUUUUUUUUUUUUfhlllUUUUUUUUUUUUUUUUUUUUUUUUUUUUU",
"UUUUUUUUUUUUUUUUUUUUUUUUUUUUUUUUUUUUUUUUUUUUUUUUUUUUUUUUUUUUUUUU",
"UUUUUUUUUUUUUUUUUUUUUUUUUUUUUUUUUUUUUUUUUUUUUUUUUUUUUUUUUUUUUUUU",
"UUUUUUUUUUUUUUUUUUUUUUUUUUUUUUUUUUUUUUUUUUUUUUUUUUUUUUUUUUUUUUUU",
"UUUUUUUUUUUUUUUUUUUUUUUUUUUUUUUUUUUUUUUUUUUUUUUUUUUUUUUUUUUUUUUU",
"UUUUUUUUUUUUUUUUUUUUUUUUUUUUUUUUUUUUUUUUUUUUUUUUUUUUUUUUUUUUUUUU",
"UUUUUUUUUUUUUUUUUUUUUUUUUUUUUUUUUUUUUUUUUUUUUUUUUUUUUUUUUUUUUUUU",
"UUUUUUUUUUUUUUUUUUUUUUUUUUUUUUUUUUUUUUUUUUUUUUUUUUUUUUUUUUUUUUUU"
};
