/* XPM */
static char *result[] = {
/* columns rows colors chars-per-pixel */
"64 64 71 1 ",
"  c black",
". c #0C0C0B",
"X c #10100F",
"o c #131313",
"O c #1C1C1B",
"+ c #20201F",
"@ c #252524",
"# c #282827",
"$ c #2B2B29",
"% c #31312F",
"& c #333331",
"* c #393936",
"= c #3C3C3A",
"- c #454542",
"; c #484846",
": c #4E4E4B",
"> c #52524F",
", c #575753",
"< c #595955",
"1 c #5C5C58",
"2 c #60605C",
"3 c #656561",
"4 c #6A6A66",
"5 c #6E6E6A",
"6 c #757570",
"7 c #797975",
"8 c #7E7E79",
"9 c #82827D",
"0 c #868681",
"q c #8A8A85",
"w c #8F8F89",
"e c #94948E",
"r c #969691",
"t c #9B9B95",
"y c #9F9F99",
"u c #A4A49D",
"i c #A7A7A0",
"p c #AAAAA3",
"a c #AFAFA8",
"s c #B3B3AC",
"d c #B7B7B0",
"f c #BBBBB3",
"g c #C4C4BC",
"h c #C8C8BF",
"j c #C7C7C0",
"k c #CBCBC2",
"l c #CFCFC8",
"z c #D2D2C9",
"x c #D5D5CC",
"c c #D6D6CF",
"v c #D9D9CF",
"b c #D6D6D0",
"n c #DADAD2",
"m c #DCDCD3",
"M c #DEDED5",
"N c #E0E0D7",
"B c #E3E3DA",
"V c #E4E4DB",
"C c #E7E7DD",
"Z c #E9E9DF",
"A c #EBEBE2",
"S c #EDEDE3",
"D c #EFEFE6",
"F c #F1F1E7",
"G c #F3F3E9",
"H c #F4F4EA",
"J c #F7F7ED",
"K c #FAFAEF",
"L c #FBFBF0",
"P c #FCFCF1",
"I c #11498E",
/* pixels */
"IIIIIIIIIIIIIIIIIIIIIIIIIIIIIIIIIIIIIIIIIIIIIIIIIIIIIIIIIIIIIIII",
"IIIIIIIIIIIIIIIIIIIIIIIIIIIIIIIIIIIIIIIIIIIIIIIIIIIIIIIIIIIIIIII",
"IIIIIIIIIIIIIIIIIIIIIIIIIIIIIIIIIIIIIIIIIIIIIIIIIIIIIIIIIIIIIIII",
"IIIIIIIIIIIIIIIIIIIIIIIIIIIIIIIIIIIIIIIIIIIIIIIIIIIIIIIIIIIIIIII",
"IIIIIIIIIIIIIIIIIIIIIIIIIIIIIIIIIIIIIIIIIIIIIIIIIIIIIIIIIIIIIIII",
"IIIIIIIIIIIIIIIIIIIIIIIIIIIIIIIIIIIIIIIIIIIIIIIIIIIIIIIIIIIIIIII",
"IIIIIIIIIIIIIIIIIIIIIIIIIIIIIIIIIIIIIIIIIIIIIIIIIIIIIIIIIIIIIIII",
"IIIIIIIIIIIIIIIIIIIIIIIIIIIIIIIIIIIIIIIIIIIIIIIIIIIIIIIIIIIIIIII",
"IIIIIIIIIIIIIIIIIIIIIIIIIIIIIIIIIIIIIIIIIIIIIIIIIIIIIIIIIIIIIIII",
"IIIIIIIIIIIIIIIIIIIIIIIIIIIIIIIIIIIIIIIIIIIIIIIIIIIIIIIIIIIIIIII",
"IIIIIIIIIIIIIIIIIIIIIIIIIIIIIIIIIIIIIIIIIIIIIIIIIIIIIIIIIIIIIIII",
"IIIIIIIIIIIIIIIIIIIIIIIIIIIIIIIIIIIIIIIIIIIIIIIIIIIIIIIIIIIIIIII",
"IIIIIIIIIIIIIIIIIIIIIIIIIIIIIIIIIIIIIIIIIIIIIIIIIIIIIIIIIIIIIIII",
"IIIIIIIIIIIIIIIIIIIIIIIIIIIIIIIIIIIIIIIIIIIIIIIIIIIIIIIIIIIIIIII",
"IIIIIIIIIIIIIIIIIIIIIIIIIIIIIIIIIIIIIIIIIIIIIIIIIIIIIIIIIIIIIIII",
"IIIIIIIIIIIIIIIIIIIIIIIIIIIIIIIIIIIIIIIIIIIIIIIIIIIIIIIIIIIIIIII",
"IIIIIIIIIIIIIIIIIIIIIIIIIIIIIIIIIIIIIIIIIIIIIIIIIIIIIIIIIIIIIIII",
"IIIIIIIIIIIIIIIIIIIIIIIIIIIIIIIIIIIIIIIIIIIIIIIIIIIIIIIIIIIIIIII",
"IIIIIIIIIIIIIIIIIIIIIIIIIIIIIIIIIIIIIIIIIIIIIIIIIIIIIIIIIIIIIIII",
"IIIIIIIIIIIIIIIIIIIIIIIIIIIIIIIIIIIIIIIIIIIIIIIIIIIIIIIIIIIIIIII",
"IIIIIIIIIIIIIIIIIIIIIIIIIIIIIIIIIIIIIIIIIIIIIIIIIIIIIIIIIIIIIIII",
"IIIIIIIIIIIIIIIIIIIIIIIIIIIIIIIIIIIIIIIIIIIIIIIIIIIIIIIIIIIIIIII",
"IIIIIIIIIIIIIIIIIIIIIIIIIIIIIIIIIIIIIIIIIIIIIIIIIIIIIIIIIIIIIIII",
"IIIIIIIIIIIIIIIIIIIIIIIIIIIO..    .o0IIIIIIIIIIIIIIIIIIIIIIIIIII",
"IIIIIIIIIIIIIIIIIIIIIIIIge#        -BAMcIIIIIIIIIIIIIIIIIIIIIIII",
"IIIIIIIIIIIIIIIIIIIIIIIlBFg=#,7eee9tGKHDBcIIIIIIIIIIIIIIIIIIIIII",
"IIIIIIIIIIIIIIIIIIIIIIcSJLSsMHPPPPLnfSLKHAMIIIIIIIIIIIIIIIIIIIII",
"IIIIIIIIIIIIIIIIIIIIgMFKKKjBPKKKKKKLmfFLKKFMIIIIIIIIIIIIIIIIIIII",
"IIIIIIIIIIIIIIIIIIIgMGKKLBkKKKKKKKKKLngKKKKFMIIIIIIIIIIIIIIIIIII",
"IIIIIIIIIIIIIIIIIIInGKKKKkZLKKKKKKKKKKgBPPKKFMIIIIIIIIIIIIIIIIII",
"IIIIIIIIIIIIIIIIIIcGKKKLAlKKKKKKKKKKKPd;8gGPKAgIIIIIIIIIIIIIIIII",
"IIIIIIIIIIIIIIIIIjAKKLPDfnLKKKKKKKKKLG<  o<fGckIIIIIIIIIIIIIIIII",
"IIIIIIIIIIIIIIIIIlKKLDu;OqJLKKKKKKKKPs.    o3lFMIIIIIIIIIIIIIIII",
"IIIIIIIIIIIIIIII9gFPz,.  .tKKKKKKKKLS:       sPCIIIIIIIIIIIIIIII",
"IIIIIIIIIIIIIIIIkNzs%     oaLKKLLLLLi.       7PAIIIIIIIIIIIIIIII",
"IIIIIIIIIIIIIIIIBKF,       #kJGCMnxk:        ,JBgIIIIIIIIIIIIIII",
"IIIIIIIIIIIIIIIlAKG=        >fglccBDpO       ;DcgIIIIIIIIIIIIIII",
"IIIIIIIIIIIIIIIbDKG=        3GJKLLLLKe.      ;BkgIIIIIIIIIIIIIII",
"IIIIIIIIIIIIIIIbFKH;       .fPKKKKKKLG5      -zjkIIIIIIIIIIIIIII",
"IIIIIIIIIIIIIIInHKJ2       ;DLKKKKKKKLN=    O4fkkIIIIIIIIIIIIIII",
"IIIIIIIIIIIIIIIMGKL9       uPKKKKKKKKKPsX.*0lkugkIIIIIIIIIIIIIII",
"IIIIIIIIIIIIIIInGKPi      =CLKKKKKKKKKLS0sCLBkfpkIIIIIIIIIIIIIII",
"IIIIIIIIIIIIIIIbDKKgu6:#X.ePKKKKKKKKKKLNzPLCkhhprIIIIIIIIIIIIIII",
"IIIIIIIIIIIIIIIISLBkPLGMkugLKKKKKKKKKKKgVLZkghkq+IIIIIIIIIIIIIII",
"IIIIIIIIIIIIIIIICKlBLKKLPKgCLKKKKKKKKKSgHCkghhh1oIIIIIIIIIIIIIII",
"IIIIIIIIIIIIIIIIiMjHKKKKKLAgHKKKKKKKKLzzNkghhkf%IIIIIIIIIIIIIIII",
"IIIIIIIIIIIIIIIII>pKKKKKKKLckKKKKKKKLFslkhhhhkwOIIIIIIIIIIIIIIII",
"IIIIIIIIIIIIIIIIIO<GKKKKKKKKknLLLLPLFfskhhhhhg>OIIIIIIIIIIIIIIII",
"IIIIIIIIIIIIIIIIII@uPKKKKKKKHknSCngt43ghhhhhkt#IIIIIIIIIIIIIIIII",
"IIIIIIIIIIIIIIIIII&&lKKKLKKKKB,*$+o  oekhhhhs,IIIIIIIIIIIIIIIIII",
"IIIIIIIIIIIIIIIIIII#:gvnMMMnvy.       =fkkgptIIIIIIIIIIIIIIIIIII",
"IIIIIIIIIIIIIIIIIIII#1fhhhggg<         8fpusIIIIIIIIIIIIIIIIIIII",
"IIIIIIIIIIIIIIIIIIIII$9sfggkp+         >usgIIIIIIIIIIIIIIIIIIIII",
"IIIIIIIIIIIIIIIIIIIIIIsdpuiu9O       .,skkIIIIIIIIIIIIIIIIIIIIII",
"IIIIIIIIIIIIIIIIIIIIIIIIkggfgu<O    &qgkIIIIIIIIIIIIIIIIIIIIIIII",
"IIIIIIIIIIIIIIIIIIIIIIIIIIkkkkgp93:6fkkIIIIIIIIIIIIIIIIIIIIIIIII",
"IIIIIIIIIIIIIIIIIIIIIIIIIIIIIIlkllfIIIIIIIIIIIIIIIIIIIIIIIIIIIII",
"IIIIIIIIIIIIIIIIIIIIIIIIIIIIIIIIIIIIIIIIIIIIIIIIIIIIIIIIIIIIIIII",
"IIIIIIIIIIIIIIIIIIIIIIIIIIIIIIIIIIIIIIIIIIIIIIIIIIIIIIIIIIIIIIII",
"IIIIIIIIIIIIIIIIIIIIIIIIIIIIIIIIIIIIIIIIIIIIIIIIIIIIIIIIIIIIIIII",
"IIIIIIIIIIIIIIIIIIIIIIIIIIIIIIIIIIIIIIIIIIIIIIIIIIIIIIIIIIIIIIII",
"IIIIIIIIIIIIIIIIIIIIIIIIIIIIIIIIIIIIIIIIIIIIIIIIIIIIIIIIIIIIIIII",
"IIIIIIIIIIIIIIIIIIIIIIIIIIIIIIIIIIIIIIIIIIIIIIIIIIIIIIIIIIIIIIII",
"IIIIIIIIIIIIIIIIIIIIIIIIIIIIIIIIIIIIIIIIIIIIIIIIIIIIIIIIIIIIIIII"
};
