/* XPM */
static char *result[] = {
/* columns rows colors chars-per-pixel */
"64 64 69 1 ",
"  c black",
". c #0C0C0B",
"X c #10100F",
"o c gray8",
"O c #181817",
"+ c #1D1D1C",
"@ c #242423",
"# c #2B2B2A",
"$ c #31312F",
"% c #343432",
"& c #3D3D3B",
"* c #444441",
"= c #4D4D4A",
"- c #50504D",
"; c #555552",
": c #585855",
"> c #5D5D5A",
", c #62625E",
"< c #656561",
"1 c #696964",
"2 c #6D6D69",
"3 c #73736E",
"4 c #757571",
"5 c #7A7A75",
"6 c #7E7E79",
"7 c #82827C",
"8 c #878783",
"9 c #8B8B85",
"0 c #8E8E88",
"q c #92928D",
"w c #969691",
"e c #9B9B94",
"r c #A2A29B",
"t c #A7A7A2",
"y c #ABABA4",
"u c #AFAFA8",
"i c #B2B2AB",
"p c #B7B7B1",
"a c #BFBFB8",
"s c #C5C5BD",
"d c #C8C8BF",
"f c #C7C7C0",
"g c #CACAC2",
"h c #CECEC8",
"j c #D0D0C7",
"k c #D0D0C8",
"l c #D4D4CB",
"z c #D3D3CC",
"x c #D7D7CF",
"c c #D7D7D1",
"v c #D8D8D0",
"b c #DCDCD3",
"n c #DCDCD4",
"m c #E1E1D7",
"M c #E3E3DB",
"N c #E4E4DA",
"B c #E5E5DC",
"V c #E8E8DF",
"C c #E9E9E0",
"Z c #ECECE2",
"A c #EEEEE5",
"S c #F0F0E6",
"D c #F2F2E9",
"F c #F4F4EB",
"G c #F7F7ED",
"H c #FAFAEF",
"J c #FAFAF0",
"K c #FCFCF2",
"L c #11498E",
/* pixels */
"LLLLLLLLLLLLLLLLLLLLLLLLLLLLLLLLLLLLLLLLLLLLLLLLLLLLLLLLLLLLLLLL",
"LLLLLLLLLLLLLLLLLLLLLLLLLLLLLLLLLLLLLLLLLLLLLLLLLLLLLLLLLLLLLLLL",
"LLLLLLLLLLLLLLLLLLLLLLLLLLLLLLLLLLLLLLLLLLLLLLLLLLLLLLLLLLLLLLLL",
"LLLLLLLLLLLLLLLLLLLLLLLLLLLLLLLLLLLLLLLLLLLLLLLLLLLLLLLLLLLLLLLL",
"LLLLLLLLLLLLLLLLLLLLLLLLLLLLLLLLLLLLLLLLLLLLLLLLLLLLLLLLLLLLLLLL",
"LLLLLLLLLLLLLLLLLLLLLLLLLLLLLLLLLLLLLLLLLLLLLLLLLLLLLLLLLLLLLLLL",
"LLLLLLLLLLLLLLLLLLLLLLLLLLLLLLLLLLLLLLLLLLLLLLLLLLLLLLLLLLLLLLLL",
"LLLLLLLLLLLLLLLLLLLLLLLLLLLLLLLLLLLLLLLLLLLLLLLLLLLLLLLLLLLLLLLL",
"LLLLLLLLLLLLLLLLLLLLLLLLLLLLLLLLLLLLLLLLLLLLLLLLLLLLLLLLLLLLLLLL",
"LLLLLLLLLLLLLLLLLLLLLLLLLLLLLLLLLLLLLLLLLLLLLLLLLLLLLLLLLLLLLLLL",
"LLLLLLLLLLLLLLLLLLLLLLLLLLLLLLLLLLLLLLLLLLLLLLLLLLLLLLLLLLLLLLLL",
"LLLLLLLLLLLLLLLLLLLLLLLLLLLLLLLLLLLLLLLLLLLLLLLLLLLLLLLLLLLLLLLL",
"LLLLLLLLLLLLLLLLLLLLLLLLLLLLLLLLLLLLLLLLLLLLLLLLLLLLLLLLLLLLLLLL",
"LLLLLLLLLLLLLLLLLLLLLLLLLLLLLLLLLLLLLLLLLLLLLLLLLLLLLLLLLLLLLLLL",
"LLLLLLLLLLLLLLLLLLLLLLLLLLLLLLLLLLLLLLLLLLLLLLLLLLLLLLLLLLLLLLLL",
"LLLLLLLLLLLLLLLLLLLLLLLLLLLLLLLLLLLLLLLLLLLLLLLLLLLLLLLLLLLLLLLL",
"LLLLLLLLLLLLLLLLLLLLLLLLLLLLLLLLLLLLLLLLLLLLLLLLLLLLLLLLLLLLLLLL",
"LLLLLLLLLLLLLLLLLLLLLLLLLLLLLLLLLLLLLLLLLLLLLLLLLLLLLLLLLLLLLLLL",
"LLLLLLLLLLLLLLLLLLLLLLLLLLLLLLLLLLLLLLLLLLLLLLLLLLLLLLLLLLLLLLLL",
"LLLLLLLLLLLLLLLLLLLLLLLLLLLLLLLLLLLLLLLLLLLLLLLLLLLLLLLLLLLLLLLL",
"LLLLLLLLLLLLLLLLLLLLLLLLLLLgsu64<=$@o#LLLLLLLLLLLLLLLLLLLLLLLLLL",
"LLLLLLLLLLLLLLLLLLLLLLLLskvshNDFSCvp61ugLLLLLLLLLLLLLLLLLLLLLLLL",
"LLLLLLLLLLLLLLLLLLLLLLLkMngBHJHHJJJKGgADMcLLLLLLLLLLLLLLLLLLLLLL",
"LLLLLLLLLLLLLLLLLLLLLsnDAfAJHHHHHHHHJBkHGAnLLLLLLLLLLLLLLLLLLLLL",
"LLLLLLLLLLLLLLLLLLLLhMxr2gKHHHHHHHHHHGsAJHSMLLLLLLLLLLLLLLLLLLLL",
"LLLLLLLLLLLLLLLLLLLhg7#  9JHHHHHHHHHHKxjKHHFMLLLLLLLLLLLLLLLLLLL",
"LLLLLLLLLLLLLLLLLLpy&    %MJHHHHHHHHJk>&uFJHDMLLLLLLLLLLLLLLLLLL",
"LLLLLLLLLLLLLLLLLLt#      qHGJJJJJJDr#  o5VJHSnLLLLLLLLLLLLLLLLL",
"LLLLLLLLLLLLLLLLLzw       :hghgkMAn1.     :nJHBLLLLLLLLLLLLLLLLL",
"LLLLLLLLLLLLLLLLLn,      %gDZBBngs;        ;NDn9LLLLLLLLLLLLLLLL",
"LLLLLLLLLLLLLLLLkv%     +aKHJJJJJG2         4xbpLLLLLLLLLLLLLLLL",
"LLLLLLLLLLLLLLLLnk+    .eJHHHHHHHKaX        1GJCaLLLLLLLLLLLLLLL",
"LLLLLLLLLLLLLLLLBgo    ,DJHHHHHHHJC*        5JHMsLLLLLLLLLLLLLLL",
"LLLLLLLLLLLLLLLhCay4*+#lJHHHHHHHHHKq        eKGxsLLLLLLLLLLLLLLL",
"LLLLLLLLLLLLLLLvnhKJAkuAJHHHHHHHHHJv@      ogKCgsLLLLLLLLLLLLLLL",
"LLLLLLLLLLLLLLLvhMJHJKkMJHHHHHHHHHHH4      -SHvfgLLLLLLLLLLLLLLL",
"LLLLLLLLLLLLLLLxgFHHHJBhJHHHHHHHHHHFpr9511,yKVgsgLLLLLLLLLLLLLLL",
"LLLLLLLLLLLLLLLghHHHHHFsSHHHHHHHHHHhxKJJHJFgCkdsgLLLLLLLLLLLLLLL",
"LLLLLLLLLLLLLLLqhJHHHHJxxJHHHHHHHJmsGHHHHHJvagdggLLLLLLLLLLLLLLL",
"LLLLLLLLLLLLLLL>iKHHHHHAaDHHHHHHJAaAJHHHHHHvrsddgLLLLLLLLLLLLLLL",
"LLLLLLLLLLLLLLLL8GHHHHHJkkJKKKJJGdMJHHHHHHMgraddgLLLLLLLLLLLLLLL",
"LLLLLLLLLLLLLLLL:xJHHHHJv=,0iskbgxJHHHHJGmggyugggLLLLLLLLLLLLLLL",
"LLLLLLLLLLLLLLLL=qJHHHHJ0    .+@1DHHHHHDvgdgi65;LLLLLLLLLLLLLLLL",
"LLLLLLLLLLLLLLLLL=vJHHJB&       @vJHHGVjdddg9.  LLLLLLLLLLLLLLLL",
"LLLLLLLLLLLLLLLLL&6GJHKi.        yKGCxgdddgi%   LLLLLLLLLLLLLLLL",
"LLLLLLLLLLLLLLLLLL=gMAZ,         ,Bxgsdddgs>   LLLLLLLLLLLLLLLLL",
"LLLLLLLLLLLLLLLLLLLcbkh:         @igddddgs3.  LLLLLLLLLLLLLLLLLL",
"LLLLLLLLLLLLLLLLLLLfghxp&         7sssssa3.  LLLLLLLLLLLLLLLLLLL",
"LLLLLLLLLLLLLLLLLLLLsssgi*      .=eeeeee<.   LLLLLLLLLLLLLLLLLLL",
"LLLLLLLLLLLLLLLLLLLLLsfsgp1O  +;qsgsspps7  LLLLLLLLLLLLLLLLLLLLL",
"LLLLLLLLLLLLLLLLLLLLLLLfggsr<7isgddddgggy+LLLLLLLLLLLLLLLLLLLLLL",
"LLLLLLLLLLLLLLLLLLLLLLLLgggdysgddddddddgLLLLLLLLLLLLLLLLLLLLLLLL",
"LLLLLLLLLLLLLLLLLLLLLLLLLLggyagdddddddLLLLLLLLLLLLLLLLLLLLLLLLLL",
"LLLLLLLLLLLLLLLLLLLLLLLLLLLLLLLhgLLLLLLLLLLLLLLLLLLLLLLLLLLLLLLL",
"LLLLLLLLLLLLLLLLLLLLLLLLLLLLLLLLLLLLLLLLLLLLLLLLLLLLLLLLLLLLLLLL",
"LLLLLLLLLLLLLLLLLLLLLLLLLLLLLLLLLLLLLLLLLLLLLLLLLLLLLLLLLLLLLLLL",
"LLLLLLLLLLLLLLLLLLLLLLLLLLLLLLLLLLLLLLLLLLLLLLLLLLLLLLLLLLLLLLLL",
"LLLLLLLLLLLLLLLLLLLLLLLLLLLLLLLLLLLLLLLLLLLLLLLLLLLLLLLLLLLLLLLL",
"LLLLLLLLLLLLLLLLLLLLLLLLLLLLLLLLLLLLLLLLLLLLLLLLLLLLLLLLLLLLLLLL",
"LLLLLLLLLLLLLLLLLLLLLLLLLLLLLLLLLLLLLLLLLLLLLLLLLLLLLLLLLLLLLLLL",
"LLLLLLLLLLLLLLLLLLLLLLLLLLLLLLLLLLLLLLLLLLLLLLLLLLLLLLLLLLLLLLLL",
"LLLLLLLLLLLLLLLLLLLLLLLLLLLLLLLLLLLLLLLLLLLLLLLLLLLLLLLLLLLLLLLL",
"LLLLLLLLLLLLLLLLLLLLLLLLLLLLLLLLLLLLLLLLLLLLLLLLLLLLLLLLLLLLLLLL",
"LLLLLLLLLLLLLLLLLLLLLLLLLLLLLLLLLLLLLLLLLLLLLLLLLLLLLLLLLLLLLLLL"
};
