/* XPM */
static char *result[] = {
/* columns rows colors chars-per-pixel */
"64 64 66 1 ",
"  c black",
". c #080807",
"X c #0C0C0C",
"o c #10100F",
"O c gray8",
"+ c #181817",
"@ c #1C1C1B",
"# c #20201F",
"$ c #242423",
"% c #282826",
"& c #2C2C2B",
"* c #343432",
"= c #3D3D3B",
"- c #41413F",
"; c #454543",
": c #4D4D4A",
"> c #50504D",
", c #565653",
"< c #5B5B57",
"1 c #61615D",
"2 c #666662",
"3 c #6A6A65",
"4 c #6D6D68",
"5 c #73736F",
"6 c #757570",
"7 c #787873",
"8 c #7E7E79",
"9 c #81817C",
"0 c #868680",
"q c #8B8B86",
"w c #92928C",
"e c #969692",
"r c #9B9B95",
"t c #9E9E98",
"y c #A3A39C",
"u c #A7A7A0",
"i c #ACACA4",
"p c #B4B4AC",
"a c #B7B7B0",
"s c #BCBCB4",
"d c #C5C5BC",
"f c #C8C8BF",
"g c #C7C7C0",
"h c #CBCBC2",
"j c #D0D0C7",
"k c #D4D4CC",
"l c #D8D8CF",
"z c #D7D7D0",
"x c #DADAD2",
"c c #DEDED7",
"v c #E0E0D7",
"b c #E3E3D9",
"n c #E4E4DA",
"m c #E5E5DD",
"M c #E8E8DF",
"N c #EAEAE1",
"B c #ECECE3",
"V c #EDEDE4",
"C c #F1F1E7",
"Z c #F2F2E8",
"A c #F5F5EB",
"S c #F7F7ED",
"D c #F9F9EF",
"F c #FBFBF0",
"G c #FDFDF3",
"H c #11498E",
/* pixels */
"HHHHHHHHHHHHHHHHHHHHHHHHHHHHHHHHHHHHHHHHHHHHHHHHHHHHHHHHHHHHHHHH",
"HHHHHHHHHHHHHHHHHHHHHHHHHHHHHHHHHHHHHHHHHHHHHHHHHHHHHHHHHHHHHHHH",
"HHHHHHHHHHHHHHHHHHHHHHHHHHHHHHHHHHHHHHHHHHHHHHHHHHHHHHHHHHHHHHHH",
"HHHHHHHHHHHHHHHHHHHHHHHHHHHHHHHHHHHHHHHHHHHHHHHHHHHHHHHHHHHHHHHH",
"HHHHHHHHHHHHHHHHHHHHHHHHHHHHHHHHHHHHHHHHHHHHHHHHHHHHHHHHHHHHHHHH",
"HHHHHHHHHHHHHHHHHHHHHHHHHHHHHHHHHHHHHHHHHHHHHHHHHHHHHHHHHHHHHHHH",
"HHHHHHHHHHHHHHHHHHHHHHHHHHHHHHHHHHHHHHHHHHHHHHHHHHHHHHHHHHHHHHHH",
"HHHHHHHHHHHHHHHHHHHHHHHHHHHHHHHHHHHHHHHHHHHHHHHHHHHHHHHHHHHHHHHH",
"HHHHHHHHHHHHHHHHHHHHHHHHHHHHHHHHHHHHHHHHHHHHHHHHHHHHHHHHHHHHHHHH",
"HHHHHHHHHHHHHHHHHHHHHHHHHHHHHHHHHHHHHHHHHHHHHHHHHHHHHHHHHHHHHHHH",
"HHHHHHHHHHHHHHHHHHHHHHHHHHHHHHHHHHHHHHHHHHHHHHHHHHHHHHHHHHHHHHHH",
"HHHHHHHHHHHHHHHHHHHHHHHHHHHHHHHHHHHHHHHHHHHHHHHHHHHHHHHHHHHHHHHH",
"HHHHHHHHHHHHHHHHHHHHHHHHHHHHHHHHHHHHHHHHHHHHHHHHHHHHHHHHHHHHHHHH",
"HHHHHHHHHHHHHHHHHHHHHHHHHHHHHHHHHHHHHHHHHHHHHHHHHHHHHHHHHHHHHHHH",
"HHHHHHHHHHHHHHHHHHHHHHHHHHHHHHHHHHHHHHHHHHHHHHHHHHHHHHHHHHHHHHHH",
"HHHHHHHHHHHHHHHHHHHHHHHHHHHHHHHHHHHHHHHHHHHHHHHHHHHHHHHHHHHHHHHH",
"HHHHHHHHHHHHHHHHHHHHHHHHHHHHHHHHHHHHHHHHHHHHHHHHHHHHHHHHHHHHHHHH",
"HHHHHHHHHHHHHHHHHHHHHHHHHHHHHHHHHHHHHHHHHHHHHHHHHHHHHHHHHHHHHHHH",
"HHHHHHHHHHHHHHHHHHHHHHHHHHHHHHHHHHHHHHHHHHHHHHHHHHHHHHHHHHHHHHHH",
"HHHHHHHHHHHHHHHHHHHHHHHHHHHHHHHHHHHHHHHHHHHHHHHHHHHHHHHHHHHHHHHH",
"HHHHHHHHHHHHHHHHHHHHHHHHHHHHHHHHHHHHHHHHHHHHHHHHHHHHHHHHHHHHHHHH",
"HHHHHHHHHHHHHHHHHHHHHHHHHHHHHHHHHHHHHHHHHHHHHHHHHHHHHHHHHHHHHHHH",
"HHHHHHHHHHHHHHHHHHHHHHHHHHHHHHHHHHHHHHHHHHHHHHHHHHHHHHHHHHHHHHHH",
"HHHHHHHHHHHHHHHHHHHHHHHHHHHHHfgffgfhHHHHHHHHHHHHHHHHHHHHHHHHHHHH",
"HHHHHHHHHHHHHHHHHHHHHHHHHH*immMMMMMmbxhHHHHHHHHHHHHHHHHHHHHHHHHH",
"HHHHHHHHHHHHHHHHHHHHHHHH+.XaGFDDDDDDSCmdhHHHHHHHHHHHHHHHHHHHHHHH",
"HHHHHHHHHHHHHHHHHHHHHH$X  @tkxBDFDFGGGShmcHHHHHHHHHHHHHHHHHHHHHH",
"HHHHHHHHHHHHHHHHHHHHH$  X2hblhsfmSmhptwyAZbHHHHHHHHHHHHHHHHHHHHH",
"HHHHHHHHHHHHHHHHHHHH$  &iAGFFFSbs3&+   +wSSMzHHHHHHHHHHHHHHHHHHH",
"HHHHHHHHHHHHHHHHHHH$  -hGDDDDDDGk@      XtFSNHHHHHHHHHHHHHHHHHHH",
"HHHHHHHHHHHHHHHHHH;$+-xGDDDDDDDFc&       $fGSmHHHHHHHHHHHHHHHHHH",
"HHHHHHHHHHHHHHHHHHhxsfGDDDDDDDDFm*        >BFAbHHHHHHHHHHHHHHHHH",
"HHHHHHHHHHHHHHHHHkZGmkFDDDDDDDDDC;        .eBDVHHHHHHHHHHHHHHHHH",
"HHHHHHHHHHHHHHHHHbDFbkFDDDDDDDDDD:        OukjMcHHHHHHHHHHHHHHHH",
"HHHHHHHHHHHHHHHHkCDFnjFDDDDDDDDFC3.       6SFBxqHHHHHHHHHHHHHHHH",
"HHHHHHHHHHHHHHHHcADFVhDDDDDDDDFmfks6*.   ;nFDFF6+HHHHHHHHHHHHHHH",
"HHHHHHHHHHHHHHHHmDDDShSFDDDDFDxfBFGFmi,X%hGDDDGy#HHHHHHHHHHHHHHH",
"HHHHHHHHHHHHHHHjBDDDDipbSGFFDjhZFDDDFGZiyFDDDFAp$HHHHHHHHHHHHHHH",
"HHHHHHHHHHHHHHHzCFDFh&X&<yxZhhSFDDDDDDFZfSDDDDmd-HHHHHHHHHHHHHHH",
"HHHHHHHHHHHHHHHxZDFZ<     $3hFFDDDDDDDDDfBDDDAkf2HHHHHHHHHHHHHHH",
"HHHHHHHHHHHHHHHxADGao      @kFDDDDDDDDDFhnFDDbhf5HHHHHHHHHHHHHHH",
"HHHHHHHHHHHHHHHkCFD2       .sGDDDDDDDDDFxkFDVhff7HHHHHHHHHHHHHHH",
"HHHHHHHHHHHHHHHexVx&        tGDDDDDDDDDFnhFZkfhdqHHHHHHHHHHHHHHH",
"HHHHHHHHHHHHHHH6hjs%        9GDDDDDDDDDFmkSlffhipHHHHHHHHHHHHHHH",
"HHHHHHHHHHHHHHHHvDF9        2FDDDDDDDDDFnsxhffsyhHHHHHHHHHHHHHHH",
"HHHHHHHHHHHHHHHHbSFv=       :ZFDDDDDDDFZ9$<ihfysHHHHHHHHHHHHHHHH",
"HHHHHHHHHHHHHHHHcZDFs@      >hZFFDDDDFN7.  @3eihHHHHHHHHHHHHHHHH",
"HHHHHHHHHHHHHHHHHNDDDtX  +:yvjskBDFFGx<      9hhHHHHHHHHHHHHHHHH",
"HHHHHHHHHHHHHHHHHbADDSw=9hCGFFZxfhlnu*      +ihHHHHHHHHHHHHHHHHH",
"HHHHHHHHHHHHHHHHHHmDDFNfGGFFFFFDZxd0O       >fhHHHHHHHHHHHHHHHHH",
"HHHHHHHHHHHHHHHHHHHxbNvfZZZCVMvkhhhyX      +thHHHHHHHHHHHHHHHHHH",
"HHHHHHHHHHHHHHHHHHHdfhdyhhhhhfffffhp$      1hHHHHHHHHHHHHHHHHHHH",
"HHHHHHHHHHHHHHHHHHHHdfhusfffffffffff=    O:rHHHHHHHHHHHHHHHHHHHH",
"HHHHHHHHHHHHHHHHHHHHHt94qfhfffffffff1$&=3tsHHHHHHHHHHHHHHHHHHHHH",
"HHHHHHHHHHHHHHHHHHHHHHH+@<tdhhhhhhsyyasfhhHHHHHHHHHHHHHHHHHHHHHH",
"HHHHHHHHHHHHHHHHHHHHHHHH@X@;8isspiypfhhhHHHHHHHHHHHHHHHHHHHHHHHH",
"HHHHHHHHHHHHHHHHHHHHHHHHHHH@O%<ipsfhhHHHHHHHHHHHHHHHHHHHHHHHHHHH",
"HHHHHHHHHHHHHHHHHHHHHHHHHHHHHHHHHHHHHHHHHHHHHHHHHHHHHHHHHHHHHHHH",
"HHHHHHHHHHHHHHHHHHHHHHHHHHHHHHHHHHHHHHHHHHHHHHHHHHHHHHHHHHHHHHHH",
"HHHHHHHHHHHHHHHHHHHHHHHHHHHHHHHHHHHHHHHHHHHHHHHHHHHHHHHHHHHHHHHH",
"HHHHHHHHHHHHHHHHHHHHHHHHHHHHHHHHHHHHHHHHHHHHHHHHHHHHHHHHHHHHHHHH",
"HHHHHHHHHHHHHHHHHHHHHHHHHHHHHHHHHHHHHHHHHHHHHHHHHHHHHHHHHHHHHHHH",
"HHHHHHHHHHHHHHHHHHHHHHHHHHHHHHHHHHHHHHHHHHHHHHHHHHHHHHHHHHHHHHHH",
"HHHHHHHHHHHHHHHHHHHHHHHHHHHHHHHHHHHHHHHHHHHHHHHHHHHHHHHHHHHHHHHH"
};
