/* XPM */
static char *result[] = {
/* columns rows colors chars-per-pixel */
"64 64 68 1 ",
"  c black",
". c #0C0C0B",
"X c #131312",
"o c #181817",
"O c #1E1E1D",
"+ c #252523",
"@ c #282827",
"# c #2D2D2B",
"$ c #343431",
"% c #393936",
"& c #3E3E3C",
"* c #454542",
"= c #4A4A47",
"- c #4D4D4A",
"; c #52524F",
": c #555552",
"> c #595956",
", c #5D5D5A",
"< c #61615E",
"1 c #646460",
"2 c #6A6A65",
"3 c #71716E",
"4 c #747470",
"5 c #7A7A75",
"6 c #82827D",
"7 c #898983",
"8 c #8D8D88",
"9 c #93938D",
"0 c #949490",
"q c #989891",
"w c #9E9E98",
"e c #A3A39D",
"r c #A7A7A0",
"t c #ABABA3",
"y c #AFAFA8",
"u c #B3B3AC",
"i c #B7B7B0",
"p c #BBBBB3",
"a c #C4C4BC",
"s c #C8C8BF",
"d c #C7C7C0",
"f c #CACAC2",
"g c #D0D0C7",
"h c #D2D2CB",
"j c #D3D3CC",
"k c #D7D7CE",
"l c #D8D8CF",
"z c #D7D7D1",
"x c #D8D8D1",
"c c #DCDCD3",
"v c #DCDCD4",
"b c #E0E0D7",
"n c #E0E0D8",
"m c #E4E4DB",
"M c #E5E5DC",
"N c #E8E8DF",
"B c #EAEAE1",
"V c #ECECE2",
"C c #EFEFE6",
"Z c #F1F1E7",
"A c #F3F3E9",
"S c #F4F4EA",
"D c #F6F6EC",
"F c #F9F9EF",
"G c #FBFBF0",
"H c #FCFCF2",
"J c #FEFEF4",
"K c #11498E",
/* pixels */
"KKKKKKKKKKKKKKKKKKKKKKKKKKKKKKKKKKKKKKKKKKKKKKKKKKKKKKKKKKKKKKKK",
"KKKKKKKKKKKKKKKKKKKKKKKKKKKKKKKKKKKKKKKKKKKKKKKKKKKKKKKKKKKKKKKK",
"KKKKKKKKKKKKKKKKKKKKKKKKKKKKKKKKKKKKKKKKKKKKKKKKKKKKKKKKKKKKKKKK",
"KKKKKKKKKKKKKKKKKKKKKKKKKKKKKKKKKKKKKKKKKKKKKKKKKKKKKKKKKKKKKKKK",
"KKKKKKKKKKKKKKKKKKKKKKKKKKKKKKKKKKKKKKKKKKKKKKKKKKKKKKKKKKKKKKKK",
"KKKKKKKKKKKKKKKKKKKKKKKKKKKKKKKKKKKKKKKKKKKKKKKKKKKKKKKKKKKKKKKK",
"KKKKKKKKKKKKKKKKKKKKKKKKKKKKKKKKKKKKKKKKKKKKKKKKKKKKKKKKKKKKKKKK",
"KKKKKKKKKKKKKKKKKKKKKKKKKKKKKKKKKKKKKKKKKKKKKKKKKKKKKKKKKKKKKKKK",
"KKKKKKKKKKKKKKKKKKKKKKKKKKKKKKKKKKKKKKKKKKKKKKKKKKKKKKKKKKKKKKKK",
"KKKKKKKKKKKKKKKKKKKKKKKKKKKKKKKKKKKKKKKKKKKKKKKKKKKKKKKKKKKKKKKK",
"KKKKKKKKKKKKKKKKKKKKKKKKKKKKKKKKKKKKKKKKKKKKKKKKKKKKKKKKKKKKKKKK",
"KKKKKKKKKKKKKKKKKKKKKKKKKKKKKKKKKKKKKKKKKKKKKKKKKKKKKKKKKKKKKKKK",
"KKKKKKKKKKKKKKKKKKKKKKKKKKKKKKKKKKKKKKKKKKKKKKKKKKKKKKKKKKKKKKKK",
"KKKKKKKKKKKKKKKKKKKKKKKKKKKKKKKKKKKKKKKKKKKKKKKKKKKKKKKKKKKKKKKK",
"KKKKKKKKKKKKKKKKKKKKKKKKKKKKpfhxxhhhhKKKKKKKKKKKKKKKKKKKKKKKKKKK",
"KKKKKKKKKKKKKKKKKKKKKKKKKff6-:<8aVAVMvjkKKKKKKKKKKKKKKKKKKKKKKKK",
"KKKKKKKKKKKKKKKKKKKKKKKdva;.    o:yadffdiKKKKKKKKKKKKKKKKKKKKKKK",
"KKKKKKKKKKKKKKKKKKKKKKjNu#       .tFFFDNf<@KKKKKKKKKKKKKKKKKKKKK",
"KKKKKKKKKKKKKKKKKKKKKxMu+        +vGFFFGGv>+KKKKKKKKKKKKKKKKKKKK",
"KKKKKKKKKKKKKKKKKKKKhhfeX        ;SGFFFFFGb:+KKKKKKKKKKKKKKKKKKK",
"KKKKKKKKKKKKKKKKKKKdacDD5        7HFFFFFFFHk*OKKKKKKKKKKKKKKKKKK",
"KKKKKKKKKKKKKKKKKKeaVGFGN-  X$,6wiNGFFFFFFFHp+KKKKKKKKKKKKKKKKKK",
"KKKKKKKKKKKKKKKKK3tSFFFFHf:7aMDGJVpnGFFFFFFFD6&KKKKKKKKKKKKKKKKK",
"KKKKKKKKKKKKKKKKK4MGFFFFGkkHHGFFFGVpmGFFFFFFSfhwKKKKKKKKKKKKKKKK",
"KKKKKKKKKKKKKKKK,8GFFFFFSaAGFFFFFFGBaBGFFFFGMfGMKKKKKKKKKKKKKKKK",
"KKKKKKKKKKKKKKKK=pHFFFFGvfGFFFFFFFFGMaDHHHHHkxHBKKKKKKKKKKKKKKKK",
"KKKKKKKKKKKKKKKK;vGFFFFGfnGFFFFFFFFFGh7qepfkaZGMaKKKKKKKKKKKKKKK",
"KKKKKKKKKKKKKKK:<AFFFFFDaAFFFFFFFFFFHaX ..XO6FFkaKKKKKKKKKKKKKKK",
"KKKKKKKKKKKKKKK*5GFFFFGBfFFFFFFFFFFFG6      %BZfaKKKKKKKKKKKKKKK",
"KKKKKKKKKKKKKKK0uSGFFGGhfHFFFFFFFFFGV&      ofnafKKKKKKKKKKKKKKK",
"KKKKKKKKKKKKKKKxnlFGGv7$6DFFFFFFFFFHaX       9hafKKKKKKKKKKKKKKK",
"KKKKKKKKKKKKKKKxAkxm9#  XrGFFFFFFFFG6        1fffKKKKKKKKKKKKKKK",
"KKKKKKKKKKKKKKKxAFf*.    OiHFFFFFGHC*        -fafKKKKKKKKKKKKKKK",
"KKKKKKKKKKKKKKKzZHkO      #aHGGFZMkp$        =afaKKKKKKKKKKKKKKK",
"KKKKKKKKKKKKKKKKCGn#       #uMhfafvCp+      .5rpeKKKKKKKKKKKKKKK",
"KKKKKKKKKKKKKKKKNFA*        *fnBSGGGGp+    .5aat<KKKKKKKKKKKKKKK",
"KKKKKKKKKKKKKKKKnDF2        7HGGFFFFFGa$  +7affaKKKKKKKKKKKKKKKK",
"KKKKKKKKKKKKKKKKKZHr.      OhGFFFFFFFFSu*<yfsssfKKKKKKKKKKKKKKKK",
"KKKKKKKKKKKKKKKKKMGb$      <DFFFFFFFSngaeafsssffKKKKKKKKKKKKKKKK",
"KKKKKKKKKKKKKKKKKKANe:o   .uHFFFGFZnhssptfssssfKKKKKKKKKKKKKKKKK",
"KKKKKKKKKKKKKKKKKKvfCAf7-+*NGFSCMlfsasftifsssfKKKKKKKKKKKKKKKKKK",
"KKKKKKKKKKKKKKKKKKKphxnMcftfvlhfssssssawasssfKKKKKKKKKKKKKKKKKKK",
"KKKKKKKKKKKKKKKKKKKKaaasffa9ussssssssfytfsssfKKKKKKKKKKKKKKKKKKK",
"KKKKKKKKKKKKKKKKKKKKKadfssfp9ufsssfffu9afsssKKKKKKKKKKKKKKKKKKKK",
"KKKKKKKKKKKKKKKKKKKKKKafsssfpqeaapy92##6psKKKKKKKKKKKKKKKKKKKKKK",
"KKKKKKKKKKKKKKKKKKKKKKKKffssfa6&%#O.   .*KKKKKKKKKKKKKKKKKKKKKKK",
"KKKKKKKKKKKKKKKKKKKKKKKKKKfffa*       .KKKKKKKKKKKKKKKKKKKKKKKKK",
"KKKKKKKKKKKKKKKKKKKKKKKKKKKKKeo .  .KKKKKKKKKKKKKKKKKKKKKKKKKKKK",
"KKKKKKKKKKKKKKKKKKKKKKKKKKKKKKKKKKKKKKKKKKKKKKKKKKKKKKKKKKKKKKKK",
"KKKKKKKKKKKKKKKKKKKKKKKKKKKKKKKKKKKKKKKKKKKKKKKKKKKKKKKKKKKKKKKK",
"KKKKKKKKKKKKKKKKKKKKKKKKKKKKKKKKKKKKKKKKKKKKKKKKKKKKKKKKKKKKKKKK",
"KKKKKKKKKKKKKKKKKKKKKKKKKKKKKKKKKKKKKKKKKKKKKKKKKKKKKKKKKKKKKKKK",
"KKKKKKKKKKKKKKKKKKKKKKKKKKKKKKKKKKKKKKKKKKKKKKKKKKKKKKKKKKKKKKKK",
"KKKKKKKKKKKKKKKKKKKKKKKKKKKKKKKKKKKKKKKKKKKKKKKKKKKKKKKKKKKKKKKK",
"KKKKKKKKKKKKKKKKKKKKKKKKKKKKKKKKKKKKKKKKKKKKKKKKKKKKKKKKKKKKKKKK",
"KKKKKKKKKKKKKKKKKKKKKKKKKKKKKKKKKKKKKKKKKKKKKKKKKKKKKKKKKKKKKKKK",
"KKKKKKKKKKKKKKKKKKKKKKKKKKKKKKKKKKKKKKKKKKKKKKKKKKKKKKKKKKKKKKKK",
"KKKKKKKKKKKKKKKKKKKKKKKKKKKKKKKKKKKKKKKKKKKKKKKKKKKKKKKKKKKKKKKK",
"KKKKKKKKKKKKKKKKKKKKKKKKKKKKKKKKKKKKKKKKKKKKKKKKKKKKKKKKKKKKKKKK",
"KKKKKKKKKKKKKKKKKKKKKKKKKKKKKKKKKKKKKKKKKKKKKKKKKKKKKKKKKKKKKKKK",
"KKKKKKKKKKKKKKKKKKKKKKKKKKKKKKKKKKKKKKKKKKKKKKKKKKKKKKKKKKKKKKKK",
"KKKKKKKKKKKKKKKKKKKKKKKKKKKKKKKKKKKKKKKKKKKKKKKKKKKKKKKKKKKKKKKK",
"KKKKKKKKKKKKKKKKKKKKKKKKKKKKKKKKKKKKKKKKKKKKKKKKKKKKKKKKKKKKKKKK",
"KKKKKKKKKKKKKKKKKKKKKKKKKKKKKKKKKKKKKKKKKKKKKKKKKKKKKKKKKKKKKKKK"
};
