/* XPM */
static char *result[] = {
/* columns rows colors chars-per-pixel */
"64 64 70 1 ",
"  c black",
". c #0B0B0B",
"X c #10100F",
"o c #141413",
"O c #1D1D1C",
"+ c #20201F",
"@ c #242422",
"# c #282827",
"$ c #2D2D2B",
"% c #30302E",
"& c #343433",
"* c #393937",
"= c #3E3E3B",
"- c #40403E",
"; c #444442",
": c #494946",
"> c #4D4D4A",
", c #51514E",
"< c #535351",
"1 c #5A5A56",
"2 c #5E5E5A",
"3 c #62625F",
"4 c #666662",
"5 c #6A6A66",
"6 c #72726D",
"7 c #767671",
"8 c #797974",
"9 c #7D7D78",
"0 c #82827D",
"q c #868680",
"w c #898983",
"e c #93938C",
"r c #979790",
"t c #9A9A93",
"y c #9E9E98",
"u c #A3A39C",
"i c #ACACA5",
"p c #B3B3AC",
"a c #BBBBB3",
"s c #BFBFB9",
"d c #C5C5BD",
"f c #C8C8BF",
"g c #CBCBC2",
"h c #CFCFC8",
"j c #D0D0C7",
"k c #D4D4CB",
"l c #D3D3CC",
"z c #D5D5CC",
"x c #D8D8CF",
"c c #D9D9D1",
"v c #DCDCD3",
"b c #DBDBD4",
"n c #DDDDD5",
"m c #DFDFD8",
"M c #E1E1D7",
"N c #E3E3DA",
"B c #E4E4DB",
"V c #E7E7DE",
"C c #E9E9DF",
"Z c #EAEAE1",
"A c #ECECE2",
"S c #EEEEE5",
"D c #F0F0E6",
"F c #F2F2E8",
"G c #F5F5EA",
"H c #F6F6EC",
"J c #FAFAEF",
"K c #FBFBF1",
"L c #FCFCF2",
"P c #11498E",
/* pixels */
"PPPPPPPPPPPPPPPPPPPPPPPPPPPPPPPPPPPPPPPPPPPPPPPPPPPPPPPPPPPPPPPP",
"PPPPPPPPPPPPPPPPPPPPPPPPPPPPPPPPPPPPPPPPPPPPPPPPPPPPPPPPPPPPPPPP",
"PPPPPPPPPPPPPPPPPPPPPPPPPPPPPPPPPPPPPPPPPPPPPPPPPPPPPPPPPPPPPPPP",
"PPPPPPPPPPPPPPPPPPPPPPPPPPPPPPPPPPPPPPPPPPPPPPPPPPPPPPPPPPPPPPPP",
"PPPPPPPPPPPPPPPPPPPPPPPPPPPPPPPPPPPPPPPPPPPPPPPPPPPPPPPPPPPPPPPP",
"PPPPPPPPPPPPPPPPPPPPPPPPPPPPPPPPPPPPPPPPPPPPPPPPPPPPPPPPPPPPPPPP",
"PPPPPPPPPPPPPPPPPPPPPPPPPPPPPPPPPPPPPPPPPPPPPPPPPPPPPPPPPPPPPPPP",
"PPPPPPPPPPPPPPPPPPPPPPPPPPPPPPPPPPPPPPPPPPPPPPPPPPPPPPPPPPPPPPPP",
"PPPPPPPPPPPPPPPPPPPPPPPPPPPPPPPPPPPPPPPPPPPPPPPPPPPPPPPPPPPPPPPP",
"PPPPPPPPPPPPPPPPPPPPPPPPPPPPPPPPPPPPPPPPPPPPPPPPPPPPPPPPPPPPPPPP",
"PPPPPPPPPPPPPPPPPPPPPPPPPPPPPPPPPPPPPPPPPPPPPPPPPPPPPPPPPPPPPPPP",
"PPPPPPPPPPPPPPPPPPPPPPPPPPPPPPPPPPPPPPPPPPPPPPPPPPPPPPPPPPPPPPPP",
"PPPPPPPPPPPPPPPPPPPPPPPPPPPPPPPPPPPPPPPPPPPPPPPPPPPPPPPPPPPPPPPP",
"PPPPPPPPPPPPPPPPPPPPPPPPPPPPPPPPPPPPPPPPPPPPPPPPPPPPPPPPPPPPPPPP",
"PPPPPPPPPPPPPPPPPPPPPPPPPPPPPPPPPPPPPPPPPPPPPPPPPPPPPPPPPPPPPPPP",
"PPPPPPPPPPPPPPPPPPPPPPPPPPPPPPPPPPPPPPPPPPPPPPPPPPPPPPPPPPPPPPPP",
"PPPPPPPPPPPPPPPPPPPPPPPPPPPPPPPPPPPPPPPPPPPPPPPPPPPPPPPPPPPPPPPP",
"PPPPPPPPPPPPPPPPPPPPPPPPPPPPPPPPPPPPPPPPPPPPPPPPPPPPPPPPPPPPPPPP",
"PPPPPPPPPPPPPPPPPPPPPPPPPPPPPPPPPPPPPPPPPPPPPPPPPPPPPPPPPPPPPPPP",
"PPPPPPPPPPPPPPPPPPPPPPPPPPPPPPPPPPPPPPPPPPPPPPPPPPPPPPPPPPPPPPPP",
"PPPPPPPPPPPPPPPPPPPPPPPPPPPPPPPPPPPPPPPPPPPPPPPPPPPPPPPPPPPPPPPP",
"PPPPPPPPPPPPPPPPPPPPPPPPPPPPPPPPPPPPPPPPPPPPPPPPPPPPPPPPPPPPPPPP",
"PPPPPPPPPPPPPPPPPPPPPPPPPPPPPPPPPPPPPPPPPPPPPPPPPPPPPPPPPPPPPPPP",
"PPPPPPPPPPPPPPPPPPPPPPPPPPP:5dzcnckzlPPPPPPPPPPPPPPPPPPPPPPPPPPP",
"PPPPPPPPPPPPPPPPPPPPPPPPP*#=aGGGHGGFABcsPPPPPPPPPPPPPPPPPPPPPPPP",
"PPPPPPPPPPPPPPPPPPPPPPP;%3pzjdNKKKKKJHFZu6PPPPPPPPPPPPPPPPPPPPPP",
"PPPPPPPPPPPPPPPPPPPPPP-4dGLKKZgjBNNVFKLnhcgPPPPPPPPPPPPPPPPPPPPP",
"PPPPPPPPPPPPPPPPPPPPP4iFLJJJJKKt&$$*:5uhHJDnPPPPPPPPPPPPPPPPPPPP",
"PPPPPPPPPPPPPPPPPPPdsjLJJJJJJJF,      .eKJJDnPPPPPPPPPPPPPPPPPPP",
"PPPPPPPPPPPPPPPPPPPhgGJJJJJJJLgo       #xKJJScPPPPPPPPPPPPPPPPPP",
"PPPPPPPPPPPPPPPPPPzhNKJJJJJJJK0         wKJJJAcPPPPPPPPPPPPPPPPP",
"PPPPPPPPPPPPPPPPPhBgGJJJJJJJKC*         =ZKJJHVPPPPPPPPPPPPPPPPP",
"PPPPPPPPPPPPPPPPPvChJJJJJJJKHp.         ohLJJJFnPPPPPPPPPPPPPPPP",
"PPPPPPPPPPPPPPPPhZVjLKJJJKSjdd6X        +pSKJJJVPPPPPPPPPPPPPPPP",
"PPPPPPPPPPPPPPPPcGi>pFLKFjazFKHi*      -aNgzHKKAPPPPPPPPPPPPPPPP",
"PPPPPPPPPPPPPPPPNj$ X3gNdzFKJJJLn6o  +wVLKGzgSLc6PPPPPPPPPPPPPPP",
"PPPPPPPPPPPPPPPhN3    @iSKJJJJJJKHp:5hJKJJJKMan7.PPPPPPPPPPPPPPP",
"PPPPPPPPPPPPPPPcpo    ohLJJJJJJJJJLjBLJJJJJJKV6. PPPPPPPPPPPPPPP",
"PPPPPPPPPPPPPPPb8     @nKJJJJJJJJJJzVKJJJJJJJL7  PPPPPPPPPPPPPPP",
"PPPPPPPPPPPPPPPa=     $NKJJJJJJJJJJzVKJJJJJJKF7  PPPPPPPPPPPPPPP",
"PPPPPPPPPPPPPPPd<     =CKJJJJJJJJJJhBKJJJJJJHc6  PPPPPPPPPPPPPPP",
"PPPPPPPPPPPPPPPmt     *CKJJJJJJJJJJdZJJJJJJJNg4  PPPPPPPPPPPPPPP",
"PPPPPPPPPPPPPPPbj@    #NKJJJJJJJJJJgDJJJJJJCgd,  PPPPPPPPPPPPPPP",
"PPPPPPPPPPPPPPPPS7   o1gHKJJJJJJJJKdFJJJJJZhfa&  PPPPPPPPPPPPPPP",
"PPPPPPPPPPPPPPPPZk%%8dSjdSKJJJJJKJd4aJKJJZhfgyo  PPPPPPPPPPPPPPP",
"PPPPPPPPPPPPPPPPNGinKLKJMdcHKJKKc9O OeSJNgfdut2.PPPPPPPPPPPPPPPP",
"PPPPPPPPPPPPPPPPPShSKJJJKDgdBHz0#    .3dgfarudd7PPPPPPPPPPPPPPPP",
"PPPPPPPPPPPPPPPPPCcnKJJJJJJVd7@        %eutpffgPPPPPPPPPPPPPPPPP",
"PPPPPPPPPPPPPPPPPPNjJJJJJJJKF>          4adgffhPPPPPPPPPPPPPPPPP",
"PPPPPPPPPPPPPPPPPPndAJJJJJJJK7         OigfffgPPPPPPPPPPPPPPPPPP",
"PPPPPPPPPPPPPPPPPPPyicvMNNNnnw         6gffffPPPPPPPPPPPPPPPPPPP",
"PPPPPPPPPPPPPPPPPPPP>tdgfffdguo       -agfffjPPPPPPPPPPPPPPPPPPP",
"PPPPPPPPPPPPPPPPPPPPP*6agfdfga&      @ugfffPPPPPPPPPPPPPPPPPPPPP",
"PPPPPPPPPPPPPPPPPPPPPP*=qafdpue82:=;10dgffPPPPPPPPPPPPPPPPPPPPPP",
"PPPPPPPPPPPPPPPPPPPPPPPP@=wipdggfdddfpidgPPPPPPPPPPPPPPPPPPPPPPP",
"PPPPPPPPPPPPPPPPPPPPPPPPPP3dggfffffffgiPPPPPPPPPPPPPPPPPPPPPPPPP",
"PPPPPPPPPPPPPPPPPPPPPPPPPPPPPhgfffgPPPPPPPPPPPPPPPPPPPPPPPPPPPPP",
"PPPPPPPPPPPPPPPPPPPPPPPPPPPPPPPPPPPPPPPPPPPPPPPPPPPPPPPPPPPPPPPP",
"PPPPPPPPPPPPPPPPPPPPPPPPPPPPPPPPPPPPPPPPPPPPPPPPPPPPPPPPPPPPPPPP",
"PPPPPPPPPPPPPPPPPPPPPPPPPPPPPPPPPPPPPPPPPPPPPPPPPPPPPPPPPPPPPPPP",
"PPPPPPPPPPPPPPPPPPPPPPPPPPPPPPPPPPPPPPPPPPPPPPPPPPPPPPPPPPPPPPPP",
"PPPPPPPPPPPPPPPPPPPPPPPPPPPPPPPPPPPPPPPPPPPPPPPPPPPPPPPPPPPPPPPP",
"PPPPPPPPPPPPPPPPPPPPPPPPPPPPPPPPPPPPPPPPPPPPPPPPPPPPPPPPPPPPPPPP",
"PPPPPPPPPPPPPPPPPPPPPPPPPPPPPPPPPPPPPPPPPPPPPPPPPPPPPPPPPPPPPPPP"
};
