/* XPM */
static char *result[] = {
/* columns rows colors chars-per-pixel */
"64 64 74 1 ",
"  c black",
". c #080807",
"X c #0C0C0C",
"o c #10100F",
"O c #161615",
"+ c #1C1C1B",
"@ c #20201F",
"# c #242423",
"$ c #282827",
"% c #2C2C2B",
"& c #353533",
"* c #383836",
"= c #3D3D3B",
"- c #464643",
"; c #484845",
": c #4E4E4B",
"> c #51514E",
", c #555551",
"< c #5A5A56",
"1 c #62625E",
"2 c #666662",
"3 c #686864",
"4 c #6E6E6A",
"5 c #71716D",
"6 c #767672",
"7 c #7B7B77",
"8 c #7D7D78",
"9 c #82827D",
"0 c #878782",
"q c #8A8A84",
"w c #8D8D88",
"e c #92928C",
"r c #979791",
"t c #9B9B95",
"y c #9F9F98",
"u c #A3A39D",
"i c #A7A7A0",
"p c #ABABA4",
"a c #AFAFA9",
"s c #B3B3AC",
"d c #B8B8AF",
"f c #B7B7B0",
"g c #BCBCB5",
"h c #BFBFB8",
"j c #C0C0B7",
"k c #C5C5BD",
"l c #C8C8BF",
"z c #C7C7C0",
"x c #CBCBC3",
"c c #CFCFC8",
"v c #D2D2CA",
"b c #D5D5CD",
"n c #D8D8CF",
"m c #D7D7D1",
"M c #DADAD2",
"N c #DCDCD3",
"B c #DBDBD4",
"V c #DEDED5",
"C c #E0E0D6",
"Z c #E0E0D8",
"A c #E5E5DB",
"S c #E5E5DC",
"D c #E9E9DF",
"F c #EBEBE2",
"G c #EDEDE3",
"H c #EFEFE6",
"J c #F1F1E7",
"K c #F3F3E9",
"L c #F4F4EA",
"P c #F7F7ED",
"I c #F8F8ED",
"U c #FAFAF0",
"Y c #FCFCF1",
"T c #11498E",
/* pixels */
"TTTTTTTTTTTTTTTTTTTTTTTTTTTTTTTTTTTTTTTTTTTTTTTTTTTTTTTTTTTTTTTT",
"TTTTTTTTTTTTTTTTTTTTTTTTTTTTTTTTTTTTTTTTTTTTTTTTTTTTTTTTTTTTTTTT",
"TTTTTTTTTTTTTTTTTTTTTTTTTTTTTTTTTTTTTTTTTTTTTTTTTTTTTTTTTTTTTTTT",
"TTTTTTTTTTTTTTTTTTTTTTTTTTTTTTTTTTTTTTTTTTTTTTTTTTTTTTTTTTTTTTTT",
"TTTTTTTTTTTTTTTTTTTTTTTTTTTTTTTTTTTTTTTTTTTTTTTTTTTTTTTTTTTTTTTT",
"TTTTTTTTTTTTTTTTTTTTTTTTTTTTTTTTTTTTTTTTTTTTTTTTTTTTTTTTTTTTTTTT",
"TTTTTTTTTTTTTTTTTTTTTTTTTTTTTTTTTTTTTTTTTTTTTTTTTTTTTTTTTTTTTTTT",
"TTTTTTTTTTTTTTTTTTTTTTTTTTTTTTTTTTTTTTTTTTTTTTTTTTTTTTTTTTTTTTTT",
"TTTTTTTTTTTTTTTTTTTTTTTTTTTTTTTTTTTTTTTTTTTTTTTTTTTTTTTTTTTTTTTT",
"TTTTTTTTTTTTTTTTTTTTTTTTTTTTTTTTTTTTTTTTTTTTTTTTTTTTTTTTTTTTTTTT",
"TTTTTTTTTTTTTTTTTTTTTTTTTTTTTTTTTTTTTTTTTTTTTTTTTTTTTTTTTTTTTTTT",
"TTTTTTTTTTTTTTTTTTTTTTTTTTTTTTTTTTTTTTTTTTTTTTTTTTTTTTTTTTTTTTTT",
"TTTTTTTTTTTTTTTTTTTTTTTTTTTTTTTTTTTTTTTTTTTTTTTTTTTTTTTTTTTTTTTT",
"TTTTTTTTTTTTTTTTTTTTTTTTTTTTTTTTTTTTTTTTTTTTTTTTTTTTTTTTTTTTTTTT",
"TTTTTTTTTTTTTTTTTTTTTTTTTTTTTTTTTTTTTTTTTTTTTTTTTTTTTTTTTTTTTTTT",
"TTTTTTTTTTTTTTTTTTTTTTTTTTTTTTTTTTTTTTTTTTTTTTTTTTTTTTTTTTTTTTTT",
"TTTTTTTTTTTTTTTTTTTTTTTTTTTTTTTTTTTTTTTTTTTTTTTTTTTTTTTTTTTTTTTT",
"TTTTTTTTTTTTTTTTTTTTTTTTTTTTTTTTTTTTTTTTTTTTTTTTTTTTTTTTTTTTTTTT",
"TTTTTTTTTTTTTTTTTTTTTTTTTTTTTTTTTTTTTTTTTTTTTTTTTTTTTTTTTTTTTTTT",
"TTTTTTTTTTTTTTTTTTTTTTTTTTTTTTTTTTTTTTTTTTTTTTTTTTTTTTTTTTTTTTTT",
"TTTTTTTTTTTTTTTTTTTTTTTTTTTTTTTTTTTTTTTTTTTTTTTTTTTTTTTTTTTTTTTT",
"TTTTTTTTTTTTTTTTTTTTTTTTTTTTTTTTTTTTTTTTTTTTTTTTTTTTTTTTTTTTTTTT",
"TTTTTTTTTTTTTTTTTTTTTTTTTTTTTTTTTTTTTTTTTTTTTTTTTTTTTTTTTTTTTTTT",
"TTTTTTTTTTTTTTTTTTTTTTTTTTTTTTTTTTTTTTTTTTTTTTTTTTTTTTTTTTTTTTTT",
"TTTTTTTTTTTTTTTTTTTTTTTTTTTTTTTTTTTTTTTTTTTTTTTTTTTTTTTTTTTTTTTT",
"TTTTTTTTTTTTTTTTTTTTTTTTTTTxvMVVVVVVbcTTTTTTTTTTTTTTTTTTTTTTTTTT",
"TTTTTTTTTTTTTTTTTTTTTTTT$#pHKPPIIIILJFhxTTTTTTTTTTTTTTTTTTTTTTTT",
"TTTTTTTTTTTTTTTTTTTTTTT+. rKLUUUIUUYYUcFZbTTTTTTTTTTTTTTTTTTTTTT",
"TTTTTTTTTTTTTTTTTTTTT$X  =rgjkbHYLVgt97VIGVTTTTTTTTTTTTTTTTTTTTT",
"TTTTTTTTTTTTTTTTTTTT%X O9SUIJSvku<$X   -vUJZTTTTTTTTTTTTTTTTTTTT",
"TTTTTTTTTTTTTTTTTTT&X $aIUIIUUUH>       =bYLATTTTTTTTTTTTTTTTTTT",
"TTTTTTTTTTTTTTTTTT%X $gYUIIIIIIU4        >SULZTTTTTTTTTTTTTTTTTT",
"TTTTTTTTTTTTTTTTTT&#%sUIIIIIIIIYq         8LUKVTTTTTTTTTTTTTTTTT",
"TTTTTTTTTTTTTTTTTjbVaFUIIIIIIIIYp.        %jMFFTTTTTTTTTTTTTTTTT",
"TTTTTTTTTTTTTTTTTVIYkGUIUIIIIIIYkX        0PFMx7TTTTTTTTTTTTTTTT",
"TTTTTTTTTTTTTTTTvHIUxGUIUIIUIIIYv&X      -SUUUN-TTTTTTTTTTTTTTTT",
"TTTTTTTTTTTTTTTTVLIUMVUIUUIIIIUVkbf9;O  OgYIIIU5@TTTTTTTTTTTTTTT",
"TTTTTTTTTTTTTTTTSIIUAvUIUUIIIIbxKUYUJx0&0IUIIIYu+TTTTTTTTTTTTTTT",
"TTTTTTTTTTTTTTTvGIIUJxPYYUUUIvxLUIIIUYYbxUIIIILg%TTTTTTTTTTTTTTT",
"TTTTTTTTTTTTTTTmJIIUJ64tjZPUxxPUIIIIIIUKkLUIIUSk:TTTTTTTTTTTTTTT",
"TTTTTTTTTTTTTTTmKIIUuX  o%1tvIUIUUIIIIUUkDUIULvk5TTTTTTTTTTTTTTT",
"TTTTTTTTTTTTTTTMLIUA&      #nYUIUUUIIIUUbbUIIZxx7TTTTTTTTTTTTTTT",
"TTTTTTTTTTTTTTTMKIYi.      XsYIIUUIIIIIUAxUUGxljeTTTTTTTTTTTTTTT",
"TTTTTTTTTTTTTTTzHUU2        0YIIUUIIIIIUFxIKvlxsaTTTTTTTTTTTTTTT",
"TTTTTTTTTTTTTTT9xVM*        <PUIUIIIIIIUKjHblljujTTTTTTTTTTTTTTT",
"TTTTTTTTTTTTTTTTgVV5        &SUIIIIIIIIYb,4ukxpsxTTTTTTTTTTTTTTT",
"TTTTTTTTTTTTTTTTvIYM&       OxYIIIIIIIYM;  O>wuxTTTTTTTTTTTTTTTT",
"TTTTTTTTTTTTTTTTbJIUg+      #uALUUUIIYv-     =jxTTTTTTTTTTTTTTTT",
"TTTTTTTTTTTTTTTTTSIIUp+   #5xSxkvSJUPd&      2xTTTTTTTTTTTTTTTTT",
"TTTTTTTTTTTTTTTTTBKUIIp$*qbIYUUKZxkg9+      XtxTTTTTTTTTTTTTTTTT",
"TTTTTTTTTTTTTTTTTTZKIIUdVYYUIIPJFVxg>       ;kTTTTTTTTTTTTTTTTTT",
"TTTTTTTTTTTTTTTTTTTvbNZgvDSACMvxxllx9      XevTTTTTTTTTTTTTTTTTT",
"TTTTTTTTTTTTTTTTTTTTkzxsuxlllkkllllxuO    +1uTTTTTTTTTTTTTTTTTTT",
"TTTTTTTTTTTTTTTTTTTTTkxkukllllllllllg&X+&3ukTTTTTTTTTTTTTTTTTTTT",
"TTTTTTTTTTTTTTTTTTTTTTsw5tlxxlllllxkaeyajxTTTTTTTTTTTTTTTTTTTTTT",
"TTTTTTTTTTTTTTTTTTTTTTTTO+,edlxxlkdupkxxxTTTTTTTTTTTTTTTTTTTTTTT",
"TTTTTTTTTTTTTTTTTTTTTTTTTTXO%,7tpupglxTTTTTTTTTTTTTTTTTTTTTTTTTT",
"TTTTTTTTTTTTTTTTTTTTTTTTTTTT$o &skxxTTTTTTTTTTTTTTTTTTTTTTTTTTTT",
"TTTTTTTTTTTTTTTTTTTTTTTTTTTTTTTTTTTTTTTTTTTTTTTTTTTTTTTTTTTTTTTT",
"TTTTTTTTTTTTTTTTTTTTTTTTTTTTTTTTTTTTTTTTTTTTTTTTTTTTTTTTTTTTTTTT",
"TTTTTTTTTTTTTTTTTTTTTTTTTTTTTTTTTTTTTTTTTTTTTTTTTTTTTTTTTTTTTTTT",
"TTTTTTTTTTTTTTTTTTTTTTTTTTTTTTTTTTTTTTTTTTTTTTTTTTTTTTTTTTTTTTTT",
"TTTTTTTTTTTTTTTTTTTTTTTTTTTTTTTTTTTTTTTTTTTTTTTTTTTTTTTTTTTTTTTT",
"TTTTTTTTTTTTTTTTTTTTTTTTTTTTTTTTTTTTTTTTTTTTTTTTTTTTTTTTTTTTTTTT"
};
