/* XPM */
static char *result[] = {
/* columns rows colors chars-per-pixel */
"64 64 71 1 ",
"  c #010101",
". c #0B0B0A",
"X c #10100F",
"o c gray8",
"O c #181817",
"+ c #1C1C1B",
"@ c #20201F",
"# c #232322",
"$ c #2D2D2B",
"% c #353533",
"& c #3C3C3A",
"* c #424240",
"= c #494946",
"- c #4E4E4A",
"; c #51514E",
": c #565652",
"> c #5A5A55",
", c #5E5E5B",
"< c #62625E",
"1 c #666662",
"2 c #686865",
"3 c #6E6E69",
"4 c #71716D",
"5 c #767672",
"6 c #7B7B76",
"7 c #7F7F7A",
"8 c #83837D",
"9 c #868682",
"0 c #8B8B86",
"q c #8F8F89",
"w c #93938D",
"e c #9A9A94",
"r c #A3A39C",
"t c #A7A7A0",
"y c #ABABA4",
"u c #AFAFA8",
"i c #B2B2AB",
"p c #B8B8AF",
"a c #B7B7B0",
"s c #BBBBB3",
"d c #C0C0B7",
"f c #C5C5BD",
"g c #C8C8BF",
"h c #C7C7C0",
"j c #CBCBC2",
"k c #CFCFC8",
"l c #D0D0C7",
"z c #D2D2CA",
"x c #D4D4CE",
"c c #D8D8CF",
"v c #D7D7D1",
"b c #DBDBD2",
"n c #DCDCD3",
"m c #DDDDD5",
"M c #E0E0D7",
"N c #E1E1D8",
"B c #E5E5DB",
"V c #E5E5DC",
"C c #E8E8DF",
"Z c #EAEAE1",
"A c #EDEDE3",
"S c #EEEEE5",
"D c #F0F0E7",
"F c #F3F3E9",
"G c #F5F5EB",
"H c #F5F5EC",
"J c #F9F9EF",
"K c #FAFAF0",
"L c #FEFEF3",
"P c #FEFEF4",
"I c #11498E",
/* pixels */
"IIIIIIIIIIIIIIIIIIIIIIIIIIIIIIIIIIIIIIIIIIIIIIIIIIIIIIIIIIIIIIII",
"IIIIIIIIIIIIIIIIIIIIIIIIIIIIIIIIIIIIIIIIIIIIIIIIIIIIIIIIIIIIIIII",
"IIIIIIIIIIIIIIIIIIIIIIIIIIIIIIIIIIIIIIIIIIIIIIIIIIIIIIIIIIIIIIII",
"IIIIIIIIIIIIIIIIIIIIIIIIIIIIIIIIIIIIIIIIIIIIIIIIIIIIIIIIIIIIIIII",
"IIIIIIIIIIIIIIIIIIIIIIIIIIIIIIIIIIIIIIIIIIIIIIIIIIIIIIIIIIIIIIII",
"IIIIIIIIIIIIIIIIIIIIIIIIIIIIIIIIIIIIIIIIIIIIIIIIIIIIIIIIIIIIIIII",
"IIIIIIIIIIIIIIIIIIIIIIIIIIIIIIIIIIIIIIIIIIIIIIIIIIIIIIIIIIIIIIII",
"IIIIIIIIIIIIIIIIIIIIIIIIIIIIIIIIIIIIIIIIIIIIIIIIIIIIIIIIIIIIIIII",
"IIIIIIIIIIIIIIIIIIIIIIIIIIIIIIIIIIIIIIIIIIIIIIIIIIIIIIIIIIIIIIII",
"IIIIIIIIIIIIIIIIIIIIIIIIIIIIIIIIIIIIIIIIIIIIIIIIIIIIIIIIIIIIIIII",
"IIIIIIIIIIIIIIIIIIIIIIIIIIIIIIIIIIIIIIIIIIIIIIIIIIIIIIIIIIIIIIII",
"IIIIIIIIIIIIIIIIIIIIIIIIIIIIIIIIIIIIIIIIIIIIIIIIIIIIIIIIIIIIIIII",
"IIIIIIIIIIIIIIIIIIIIIIIIIIIIIIIIIIIIIIIIIIIIIIIIIIIIIIIIIIIIIIII",
"IIIIIIIIIIIIIIIIIIIIIIIIIIIIIIIIIIIIIIIIIIIIIIIIIIIIIIIIIIIIIIII",
"IIIIIIIIIIIIIIIIIIIIIIIIIIIIIIIIIIIIIIIIIIIIIIIIIIIIIIIIIIIIIIII",
"IIIIIIIIIIIIIIIIIIIIIIIIIIIIIIIIIIIIIIIIIIIIIIIIIIIIIIIIIIIIIIII",
"IIIIIIIIIIIIIIIIIIIIIIIIIIIIIIIIIIIIIIIIIIIIIIIIIIIIIIIIIIIIIIII",
"IIIIIIIIIIIIIIIIIIIIIIIIIIIIIIIIIIIIIIIIIIIIIIIIIIIIIIIIIIIIIIII",
"IIIIIIIIIIIIIIIIIIIIIIIIIIIIIIIIIIIIIIIIIIIIIIIIIIIIIIIIIIIIIIII",
"IIIIIIIIIIIIIIIIIIIIIIIIIIIIIIIIIIIIIIIIIIIIIIIIIIIIIIIIIIIIIIII",
"IIIIIIIIIIIIIIIIIIIIIIIIIIIIIIIIIIIIIIIIIIIIIIIIIIIIIIIIIIIIIIII",
"IIIIIIIIIIIIIIIIIIIIIIIIIIIII#  +yjIIIIIIIIIIIIIIIIIIIIIIIIIIIII",
"IIIIIIIIIIIIIIIIIIIIIIIIIIO.    &NZNmvkIIIIIIIIIIIIIIIIIIIIIIIII",
"IIIIIIIIIIIIIIIIIIIIIIIIo.    O#6FKJHDCmxIIIIIIIIIIIIIIIIIIIIIII",
"IIIIIIIIIIIIIIIIIIIIII5#  .%4yjNlsxJKJJFCbIIIIIIIIIIIIIIIIIIIIII",
"IIIIIIIIIIIIIIIIIIIIIjNj3-tBKLKKKSdjHJJJJDNIIIIIIIIIIIIIIIIIIIII",
"IIIIIIIIIIIIIIIIIIIIzCHLjbLKJJJJJKJzjJLLKJGNiIIIIIIIIIIIIIIIIIII",
"IIIIIIIIIIIIIIIIIIIkZJJFfGJJJJJJJJJKfeifVHLNfIIIIIIIIIIIIIIIIIII",
"IIIIIIIIIIIIIIIIIIjVHJKNzKJJJJJJJJJLi. o$,edAVIIIIIIIIIIIIIIIIII",
"IIIIIIIIIIIIIIIIIImGJJKzNKJJJJJJJJJK5      <FGNIIIIIIIIIIIIIIIII",
"IIIIIIIIIIIIIIIIIxDJJJJjSJJJJJJJJJKZ&      osLAIIIIIIIIIIIIIIIII",
"IIIIIIIIIIIIIIIIIBJJJKGjHJJJJJJJJJLfo       4JHVIIIIIIIIIIIIIIII",
"IIIIIIIIIIIIIIIIxSJJKZ0;fKKJJJJJJKL0        %VKZIIIIIIIIIIIIIIII",
"IIIIIIIIIIIIIIIIbGJKb:  @eFKJJKKGVx<        ojLZfIIIIIIIIIIIIIII",
"IIIIIIIIIIIIIIIIjJLn=    .4VLHVlfjmx<        yLmfIIIIIIIIIIIIIII",
"IIIIIIIIIIIIIII6fcm,       :gfjmFKKLS7.     oeCzfIIIIIIIIIIIIIII",
"IIIIIIIIIIIIIIIaZZy.        eDJKKJJJKGwo   &sAsshIIIIIIIIIIIIIII",
"IIIIIIIIIIIIIIIxDPs.       XfLJJJJJJJKJeoO6NLHjydIIIIIIIIIIIIIII",
"IIIIIIIIIIIIIIIbFKz+       $MKJJJJJJJJKGwsJKKBjs2IIIIIIIIIIIIIII",
"IIIIIIIIIIIIIIIbFKS*       ;GJJJJJJJJJJGjGKJDjgs%IIIIIIIIIIIIIII",
"IIIIIIIIIIIIIIIbDJK8       8KJJJJJJJJJJSfJJGxfji$IIIIIIIIIIIIIII",
"IIIIIIIIIIIIIIIvSJLfo     .iLJJJJJJJJJKZjKHbggjr#IIIIIIIIIIIIIII",
"IIIIIIIIIIIIIIIIZJKD: . ..$bKJJJJJJJJJKxbHbgggjwoIIIIIIIIIIIIIII",
"IIIIIIIIIIIIIIIIBHJGiiurysafHJJJJJJJJJKjmbggggj4+IIIIIIIIIIIIIII",
"IIIIIIIIIIIIIIIImFKZjLLLLLKxjHKJJJJJJKFijgggggd-IIIIIIIIIIIIIIII",
"IIIIIIIIIIIIIIIIIZKmbKJJJJJJxjGKJJJKLFsrjggggje%IIIIIIIIIIIIIIII",
"IIIIIIIIIIIIIIIIIxDxVKJJJJJJJbfZLLKVi<+=sjgggieIIIIIIIIIIIIIIIII",
"IIIIIIIIIIIIIIIIII9eNKJJJJJJJKVfgu5%.   :djfyyjIIIIIIIIIIIIIIIII",
"IIIIIIIIIIIIIIIIIIIOqADGGGGFDZVf%        1irijIIIIIIIIIIIIIIIIII",
"IIIIIIIIIIIIIIIIIII#+0jjjjjjjjjyo        #esjIIIIIIIIIIIIIIIIIII",
"IIIIIIIIIIIIIIIIIIII#@8fgffgggjw.       .6jjIIIIIIIIIIIIIIIIIIII",
"IIIIIIIIIIIIIIIIIIIII%#3djjjjjj6       .4fjIIIIIIIIIIIIIIIIIIIII",
"IIIIIIIIIIIIIIIIIIIIIII+;rssspi3+     +8fjIIIIIIIIIIIIIIIIIIIIII",
"IIIIIIIIIIIIIIIIIIIIIIII=tuyiyisy81-->9jIIIIIIIIIIIIIIIIIIIIIIII",
"IIIIIIIIIIIIIIIIIIIIIIIIIIIjjjjjjjjffIIIIIIIIIIIIIIIIIIIIIIIIIII",
"IIIIIIIIIIIIIIIIIIIIIIIIIIIIIIIIIIIIIIIIIIIIIIIIIIIIIIIIIIIIIIII",
"IIIIIIIIIIIIIIIIIIIIIIIIIIIIIIIIIIIIIIIIIIIIIIIIIIIIIIIIIIIIIIII",
"IIIIIIIIIIIIIIIIIIIIIIIIIIIIIIIIIIIIIIIIIIIIIIIIIIIIIIIIIIIIIIII",
"IIIIIIIIIIIIIIIIIIIIIIIIIIIIIIIIIIIIIIIIIIIIIIIIIIIIIIIIIIIIIIII",
"IIIIIIIIIIIIIIIIIIIIIIIIIIIIIIIIIIIIIIIIIIIIIIIIIIIIIIIIIIIIIIII",
"IIIIIIIIIIIIIIIIIIIIIIIIIIIIIIIIIIIIIIIIIIIIIIIIIIIIIIIIIIIIIIII",
"IIIIIIIIIIIIIIIIIIIIIIIIIIIIIIIIIIIIIIIIIIIIIIIIIIIIIIIIIIIIIIII",
"IIIIIIIIIIIIIIIIIIIIIIIIIIIIIIIIIIIIIIIIIIIIIIIIIIIIIIIIIIIIIIII",
"IIIIIIIIIIIIIIIIIIIIIIIIIIIIIIIIIIIIIIIIIIIIIIIIIIIIIIIIIIIIIIII"
};
