/* XPM */
static char *result[] = {
/* columns rows colors chars-per-pixel */
"64 64 70 1 ",
"  c black",
". c #080807",
"X c #0B0B0B",
"o c #131313",
"O c #1D1D1C",
"+ c #232322",
"@ c #292927",
"# c #2C2C2B",
"$ c #30302E",
"% c #353533",
"& c #41413E",
"* c #454543",
"= c #494946",
"- c #4C4C49",
"; c #52524F",
": c #555552",
"> c #595955",
", c #5D5D5A",
"< c #62625E",
"1 c #646462",
"2 c #686864",
"3 c #6D6D69",
"4 c #72726D",
"5 c #777773",
"6 c #7A7A75",
"7 c #7E7E79",
"8 c #82827D",
"9 c #878781",
"0 c #8A8A85",
"q c #8D8D88",
"w c #93938D",
"e c #979791",
"r c #9D9D97",
"t c #9F9F98",
"y c #A4A49D",
"u c #A5A5A1",
"i c #ACACA5",
"p c #AFAFAA",
"a c #B2B2AB",
"s c #BBBBB4",
"d c #BEBEB8",
"f c #C4C4BD",
"g c #C8C8BF",
"h c #C7C7C0",
"j c #CACAC2",
"k c #CFCFC8",
"l c #D0D0C7",
"z c #D2D2CA",
"x c #D7D7CE",
"c c #D7D7D0",
"v c #DADAD3",
"b c #DBDBD4",
"n c #DEDED5",
"m c #E0E0D7",
"M c #E2E2D9",
"N c #E4E4DA",
"B c #E7E7DE",
"V c #E8E8DF",
"C c #E9E9E1",
"Z c #ECECE2",
"A c #EFEFE5",
"S c #F0F0E7",
"D c #F1F1E8",
"F c #F5F5EB",
"G c #F6F6EC",
"H c #FAFAEF",
"J c #FBFBF0",
"K c #FCFCF2",
"L c #FEFEF4",
"P c #11498E",
/* pixels */
"PPPPPPPPPPPPPPPPPPPPPPPPPPPPPPPPPPPPPPPPPPPPPPPPPPPPPPPPPPPPPPPP",
"PPPPPPPPPPPPPPPPPPPPPPPPPPPPPPPPPPPPPPPPPPPPPPPPPPPPPPPPPPPPPPPP",
"PPPPPPPPPPPPPPPPPPPPPPPPPPPPPPPPPPPPPPPPPPPPPPPPPPPPPPPPPPPPPPPP",
"PPPPPPPPPPPPPPPPPPPPPPPPPPPPPPPPPPPPPPPPPPPPPPPPPPPPPPPPPPPPPPPP",
"PPPPPPPPPPPPPPPPPPPPPPPPPPPPPPPPPPPPPPPPPPPPPPPPPPPPPPPPPPPPPPPP",
"PPPPPPPPPPPPPPPPPPPPPPPPPPPPPPPPPPPPPPPPPPPPPPPPPPPPPPPPPPPPPPPP",
"PPPPPPPPPPPPPPPPPPPPPPPPPPPPPPPPPPPPPPPPPPPPPPPPPPPPPPPPPPPPPPPP",
"PPPPPPPPPPPPPPPPPPPPPPPPPPPPPPPPPPPPPPPPPPPPPPPPPPPPPPPPPPPPPPPP",
"PPPPPPPPPPPPPPPPPPPPPPPPPPPPPPPPPPPPPPPPPPPPPPPPPPPPPPPPPPPPPPPP",
"PPPPPPPPPPPPPPPPPPPPPPPPPPPPPPPPPPPPPPPPPPPPPPPPPPPPPPPPPPPPPPPP",
"PPPPPPPPPPPPPPPPPPPPPPPPPPPPPPPPPPPPPPPPPPPPPPPPPPPPPPPPPPPPPPPP",
"PPPPPPPPPPPPPPPPPPPPPPPPPPPPPPPPPPPPPPPPPPPPPPPPPPPPPPPPPPPPPPPP",
"PPPPPPPPPPPPPPPPPPPPPPPPPPPPPPPPPPPPPPPPPPPPPPPPPPPPPPPPPPPPPPPP",
"PPPPPPPPPPPPPPPPPPPPPPPPPPPPPPPPPPPPPPPPPPPPPPPPPPPPPPPPPPPPPPPP",
"PPPPPPPPPPPPPPPPPPPPPPPPPPP1;16esfkzzPPPPPPPPPPPPPPPPPPPPPPPPPPP",
"PPPPPPPPPPPPPPPPPPPPPPPPP==5anSAMkhxVBbxPPPPPPPPPPPPPPPPPPPPPPPP",
"PPPPPPPPPPPPPPPPPPPPPPPu,8zGKJHHHHSvssznnPPPPPPPPPPPPPPPPPPPPPPP",
"PPPPPPPPPPPPPPPPPPPPPPxxkHJHHHHHHHHK8o+=9sdPPPPPPPPPPPPPPPPPPPPP",
"PPPPPPPPPPPPPPPPPPPPPvSxAJHHHHHHHHJZ&    O2kPPPPPPPPPPPPPPPPPPPP",
"PPPPPPPPPPPPPPPPPPPPvDDzGHHHHHHHHHKfo     XeMPPPPPPPPPPPPPPPPPPP",
"PPPPPPPPPPPPPPPPPPPcDJCfJJHHHHHJJHH8       %xnPPPPPPPPPPPPPPPPPP",
"PPPPPPPPPPPPPPPPPPzAJA7%9vJJHJGBxff0o       tAPPPPPPPPPPPPPPPPPP",
"PPPPPPPPPPPPPPPPPjBHZ3   @8nSxffvAFGa$      ,FBPPPPPPPPPPPPPPPPP",
"PPPPPPPPPPPPPPPPPvFA3      %axZHJHHHKk*     $BFnPPPPPPPPPPPPPPPP",
"PPPPPPPPPPPPPPPPkCHq       +xKJHHHHHHJn;   @2sDVPPPPPPPPPPPPPPPP",
"PPPPPPPPPPPPPPPPjVfO       :FHHHHHHHHHKn-=rvGnhBPPPPPPPPPPPPPPPP",
"PPPPPPPPPPPPPPPPdxw        9JHHHHHHHHHHHfBKJHJvhfPPPPPPPPPPPPPPP",
"PPPPPPPPPPPPPPPkCKho      .aKHHHHHHHHHHDhFHHHJDadPPPPPPPPPPPPPPP",
"PPPPPPPPPPPPPPPxAJC%      OkJHHHHHHHHHHAfJHHHJSapPPPPPPPPPPPPPPP",
"PPPPPPPPPPPPPPPcSJH4      @BJHHHHHHHHHJBhJHHHHns0PPPPPPPPPPPPPPP",
"PPPPPPPPPPPPPPPvDHKsX   .O<MJHHHHHHHHHJzbJHHJAkf-#PPPPPPPPPPPPPP",
"PPPPPPPPPPPPPPPbFHJS>O-7axVfmJHHHHHHHHHfCJHHGvgs%PPPPPPPPPPPPPPP",
"PPPPPPPPPPPPPPPvDHHDaxSKKJJSfvHHHHHHJKAfGHHHNhhi+PPPPPPPPPPPPPPP",
"PPPPPPPPPPPPPPPcAHJnhKJHHHHJFhlGJJKDzy>qHHHCkgheXPPPPPPPPPPPPPPP",
"PPPPPPPPPPPPPPPPAHJknJHHHHHHJHzfCkw;O  OfKZkggh4.PPPPPPPPPPPPPPP",
"PPPPPPPPPPPPPPPPVHKfmJHHHHHHHHJv2O      >Mkfghf& PPPPPPPPPPPPPPP",
"PPPPPPPPPPPPPPPPMGKlNJHHHHHHHHJM@       .0hhhfwoPPPPPPPPPPPPPPPP",
"PPPPPPPPPPPPPPPPPDJfMJHJHHHHHHJho        $asytwOPPPPPPPPPPPPPPPP",
"PPPPPPPPPPPPPPPPPr<*fKHHHHHHHHKi.        .7yafa&PPPPPPPPPPPPPPPP",
"PPPPPPPPPPPPPPPPP#  -NJHHHHHHHLe         =shhhfPPPPPPPPPPPPPPPPP",
"PPPPPPPPPPPPPPPPPPo  <VKHHHHHHH8        %ahgghPPPPPPPPPPPPPPPPPP",
"PPPPPPPPPPPPPPPPPPPX  >kBNNNnzs,       #yhgghPPPPPPPPPPPPPPPPPPP",
"PPPPPPPPPPPPPPPPPPPP   $wssiyyia6%X   %yhggghPPPPPPPPPPPPPPPPPPP",
"PPPPPPPPPPPPPPPPPPPPP   o8yasfhhhst6,<ahggghPPPPPPPPPPPPPPPPPPPP",
"PPPPPPPPPPPPPPPPPPPPPPX  ejhhgggghhhgifgggPPPPPPPPPPPPPPPPPPPPPP",
"PPPPPPPPPPPPPPPPPPPPPPPo 6hggggggggghisfhPPPPPPPPPPPPPPPPPPPPPPP",
"PPPPPPPPPPPPPPPPPPPPPPPPP4hhhgggggggf94PPPPPPPPPPPPPPPPPPPPPPPPP",
"PPPPPPPPPPPPPPPPPPPPPPPPPPPPPjfggghhPPPPPPPPPPPPPPPPPPPPPPPPPPPP",
"PPPPPPPPPPPPPPPPPPPPPPPPPPPPPPPPPPPPPPPPPPPPPPPPPPPPPPPPPPPPPPPP",
"PPPPPPPPPPPPPPPPPPPPPPPPPPPPPPPPPPPPPPPPPPPPPPPPPPPPPPPPPPPPPPPP",
"PPPPPPPPPPPPPPPPPPPPPPPPPPPPPPPPPPPPPPPPPPPPPPPPPPPPPPPPPPPPPPPP",
"PPPPPPPPPPPPPPPPPPPPPPPPPPPPPPPPPPPPPPPPPPPPPPPPPPPPPPPPPPPPPPPP",
"PPPPPPPPPPPPPPPPPPPPPPPPPPPPPPPPPPPPPPPPPPPPPPPPPPPPPPPPPPPPPPPP",
"PPPPPPPPPPPPPPPPPPPPPPPPPPPPPPPPPPPPPPPPPPPPPPPPPPPPPPPPPPPPPPPP",
"PPPPPPPPPPPPPPPPPPPPPPPPPPPPPPPPPPPPPPPPPPPPPPPPPPPPPPPPPPPPPPPP",
"PPPPPPPPPPPPPPPPPPPPPPPPPPPPPPPPPPPPPPPPPPPPPPPPPPPPPPPPPPPPPPPP",
"PPPPPPPPPPPPPPPPPPPPPPPPPPPPPPPPPPPPPPPPPPPPPPPPPPPPPPPPPPPPPPPP",
"PPPPPPPPPPPPPPPPPPPPPPPPPPPPPPPPPPPPPPPPPPPPPPPPPPPPPPPPPPPPPPPP",
"PPPPPPPPPPPPPPPPPPPPPPPPPPPPPPPPPPPPPPPPPPPPPPPPPPPPPPPPPPPPPPPP",
"PPPPPPPPPPPPPPPPPPPPPPPPPPPPPPPPPPPPPPPPPPPPPPPPPPPPPPPPPPPPPPPP",
"PPPPPPPPPPPPPPPPPPPPPPPPPPPPPPPPPPPPPPPPPPPPPPPPPPPPPPPPPPPPPPPP",
"PPPPPPPPPPPPPPPPPPPPPPPPPPPPPPPPPPPPPPPPPPPPPPPPPPPPPPPPPPPPPPPP",
"PPPPPPPPPPPPPPPPPPPPPPPPPPPPPPPPPPPPPPPPPPPPPPPPPPPPPPPPPPPPPPPP",
"PPPPPPPPPPPPPPPPPPPPPPPPPPPPPPPPPPPPPPPPPPPPPPPPPPPPPPPPPPPPPPPP"
};
