/* XPM */
static char *result[] = {
/* columns rows colors chars-per-pixel */
"64 64 72 1 ",
"  c #010101",
". c #080807",
"X c #0D0D0C",
"o c #141413",
"O c #1C1C1B",
"+ c #20201F",
"@ c #242423",
"# c #282827",
"$ c #2C2C2A",
"% c #30302E",
"& c #343432",
"* c #383836",
"= c #3D3D3C",
"- c #434341",
"; c #494946",
": c #4C4C49",
"> c #51514E",
", c #545451",
"< c #595956",
"1 c #5C5C5A",
"2 c #666662",
"3 c #6C6C69",
"4 c #72726D",
"5 c #777772",
"6 c #797974",
"7 c #7E7E79",
"8 c #83837E",
"9 c #868681",
"0 c #8A8A85",
"q c #92928C",
"w c #979790",
"e c #9A9A94",
"r c #9E9E98",
"t c #A3A39D",
"y c #A7A7A1",
"u c #AAAAA3",
"i c #AEAEA8",
"p c #B2B2AB",
"a c #B7B7B0",
"s c #BBBBB3",
"d c #BFBFB9",
"f c #C4C4BC",
"g c #C8C8BF",
"h c #C7C7C0",
"j c #CACAC2",
"k c #CFCFC8",
"l c #D0D0C7",
"z c #D2D2CA",
"x c #D4D4CB",
"c c #D3D3CD",
"v c #D6D6CE",
"b c #D7D7D0",
"n c #DADAD3",
"m c #DCDCD3",
"M c #DFDFD7",
"N c #E0E0D7",
"B c #E3E3DA",
"V c #E4E4DB",
"C c #E7E7DE",
"Z c #E8E8DF",
"A c #EBEBE1",
"S c #ECECE3",
"D c #EEEEE4",
"F c #F0F0E6",
"G c #F3F3E9",
"H c #F4F4EA",
"J c #F6F6ED",
"K c #F9F9EF",
"L c #FAFAF0",
"P c #FDFDF2",
"I c #FEFEF4",
"U c #11498E",
/* pixels */
"UUUUUUUUUUUUUUUUUUUUUUUUUUUUUUUUUUUUUUUUUUUUUUUUUUUUUUUUUUUUUUUU",
"UUUUUUUUUUUUUUUUUUUUUUUUUUUUUUUUUUUUUUUUUUUUUUUUUUUUUUUUUUUUUUUU",
"UUUUUUUUUUUUUUUUUUUUUUUUUUUUUUUUUUUUUUUUUUUUUUUUUUUUUUUUUUUUUUUU",
"UUUUUUUUUUUUUUUUUUUUUUUUUUUUUUUUUUUUUUUUUUUUUUUUUUUUUUUUUUUUUUUU",
"UUUUUUUUUUUUUUUUUUUUUUUUUUUUUUUUUUUUUUUUUUUUUUUUUUUUUUUUUUUUUUUU",
"UUUUUUUUUUUUUUUUUUUUUUUUUUUUUUUUUUUUUUUUUUUUUUUUUUUUUUUUUUUUUUUU",
"UUUUUUUUUUUUUUUUUUUUUUUUUUUUUUUUUUUUUUUUUUUUUUUUUUUUUUUUUUUUUUUU",
"UUUUUUUUUUUUUUUUUUUUUUUUUUUUUUUUUUUUUUUUUUUUUUUUUUUUUUUUUUUUUUUU",
"UUUUUUUUUUUUUUUUUUUUUUUUUUUUUUUUUUUUUUUUUUUUUUUUUUUUUUUUUUUUUUUU",
"UUUUUUUUUUUUUUUUUUUUUUUUUUUUUUUUUUUUUUUUUUUUUUUUUUUUUUUUUUUUUUUU",
"UUUUUUUUUUUUUUUUUUUUUUUUUUUUUUUUUUUUUUUUUUUUUUUUUUUUUUUUUUUUUUUU",
"UUUUUUUUUUUUUUUUUUUUUUUUUUUUUUUUUUUUUUUUUUUUUUUUUUUUUUUUUUUUUUUU",
"UUUUUUUUUUUUUUUUUUUUUUUUUUUUUUUUUUUUUUUUUUUUUUUUUUUUUUUUUUUUUUUU",
"UUUUUUUUUUUUUUUUUUUUUUUUUUUUUUUUUUUUUUUUUUUUUUUUUUUUUUUUUUUUUUUU",
"UUUUUUUUUUUUUUUUUUUUUUUUUUUUUUUUUUUUUUUUUUUUUUUUUUUUUUUUUUUUUUUU",
"UUUUUUUUUUUUUUUUUUUUUUUUUUUUUUUUUUUUUUUUUUUUUUUUUUUUUUUUUUUUUUUU",
"UUUUUUUUUUUUUUUUUUUUUUUUUUUUUUUUUUUUUUUUUUUUUUUUUUUUUUUUUUUUUUUU",
"UUUUUUUUUUUUUUUUUUUUUUUUUUUUUUffffUUUUUUUUUUUUUUUUUUUUUUUUUUUUUU",
"UUUUUUUUUUUUUUUUUUUUUUUUUUpfvMCCCCCMbvUUUUUUUUUUUUUUUUUUUUUUUUUU",
"UUUUUUUUUUUUUUUUUUUUUUUUfvMhAPPPPPKJHZj1UUUUUUUUUUUUUUUUUUUUUUUU",
"UUUUUUUUUUUUUUUUUUUUUUUzCGKn9669yjAAzvvt>*UUUUUUUUUUUUUUUUUUUUUU",
"UUUUUUUUUUUUUUUUUUUUUhnFKLG5.   .o-uAJLLN8-UUUUUUUUUUUUUUUUUUUUU",
"UUUUUUUUUUUUUUUUUUUUjBHKKKq.       qIKKKLKs,UUUUUUUUUUUUUUUUUUUU",
"UUUUUUUUUUUUUUUUUUUjCJKKLsO        4KKKKKKPv2UUUUUUUUUUUUUUUUUUU",
"UUUUUUUUUUUUUUUUUUhBJKLPZ-         :GKKKKKKPvrUUUUUUUUUUUUUUUUUU",
"UUUUUUUUUUUUUUUUUUnGLLSve.         &SLKKKKKKJfcUUUUUUUUUUUUUUUUU",
"UUUUUUUUUUUUUUUUUpALSffnn3.        $vLKKKKKKLcvUUUUUUUUUUUUUUUUU",
"UUUUUUUUUUUUUUUUU&ynsnJLLF8X    .&7afjHLKKKKLBzBUUUUUUUUUUUUUUUU",
"UUUUUUUUUUUUUUUU@ #pDLKKKLHeo X:tVLPJzfZLKKKLDjAUUUUUUUUUUUUUUUU",
"UUUUUUUUUUUUUUUUo -DLKKKKKLKy,pDPLKKKLCfMKKLPShAUUUUUUUUUUUUUUUU",
"UUUUUUUUUUUUUUU=. 7LKKKKKKKLAjPLKKKKKKLGfnGzr<4nfUUUUUUUUUUUUUUU",
"UUUUUUUUUUUUUUUO .yPKKKKKKKLNxLKKKKKKKKLJs>O  orfUUUUUUUUUUUUUUU",
"UUUUUUUUUUUUUUUo ofPKKKKKKKLzBLKKKKKKKKKPf.    <fUUUUUUUUUUUUUUU",
"UUUUUUUUUUUUUUU# OzLKKKKKKKLjCLKKKKKKKKKPs.    #sUUUUUUUUUUUUUUU",
"UUUUUUUUUUUUUUUO OvLKKKKKKKLjCLKKKKKKKKKPi.    XeUUUUUUUUUUUUUUU",
"UUUUUUUUUUUUUUUO #jPKKKKKKKKhZLKKKKKKKKKPe      3UUUUUUUUUUUUUUU",
"UUUUUUUUUUUUUUUO$ufCLKKKKKLKfFLKKKKKKKKKP6     XeUUUUUUUUUUUUUUU",
"UUUUUUUUUUUUUUU-sPDfBLKKLLmq:tJLKKKKKKKLH,     =dUUUUUUUUUUUUUUU",
"UUUUUUUUUUUUUUUUDKLFhnKPB0$  X6CPKKKKLLFh;    XqkUUUUUUUUUUUUUUU",
"UUUUUUUUUUUUUUUUCKKLHvht*      :jPLLLDzfmf<X  2fUUUUUUUUUUUUUUUU",
"UUUUUUUUUUUUUUUUMHKKKLfO        $pSMhfnSnhf9#>shUUUUUUUUUUUUUUUU",
"UUUUUUUUUUUUUUUUUDKKKLM@         OtjCGClggghtyhjUUUUUUUUUUUUUUUU",
"UUUUUUUUUUUUUUUUUBJKKLD;         @vLAvhgggghysjUUUUUUUUUUUUUUUUU",
"UUUUUUUUUUUUUUUUUUDKLKP0         2BxhggggggftfjUUUUUUUUUUUUUUUUU",
"UUUUUUUUUUUUUUUUUUzBSGKz+       orhfgggggghpyjUUUUUUUUUUUUUUUUUU",
"UUUUUUUUUUUUUUUUUUUfhjzz2.      ;fggggggggftfUUUUUUUUUUUUUUUUUUU",
"UUUUUUUUUUUUUUUUUUUUfhhay0,%OoXoqhgggggghgtpUUUUUUUUUUUUUUUUUUUU",
"UUUUUUUUUUUUUUUUUUUUUptyfhfsptewrshggghhp3-UUUUUUUUUUUUUUUUUUUUU",
"UUUUUUUUUUUUUUUUUUUUUU1yhgghhhhhprpfjfy3#XUUUUUUUUUUUUUUUUUUUUUU",
"UUUUUUUUUUUUUUUUUUUUUUUUfhhggggghfy04;O.oUUUUUUUUUUUUUUUUUUUUUUU",
"UUUUUUUUUUUUUUUUUUUUUUUUUUjhhhhgggt%..UUUUUUUUUUUUUUUUUUUUUUUUUU",
"UUUUUUUUUUUUUUUUUUUUUUUUUUUUUUUhhs,UUUUUUUUUUUUUUUUUUUUUUUUUUUUU",
"UUUUUUUUUUUUUUUUUUUUUUUUUUUUUUUUUUUUUUUUUUUUUUUUUUUUUUUUUUUUUUUU",
"UUUUUUUUUUUUUUUUUUUUUUUUUUUUUUUUUUUUUUUUUUUUUUUUUUUUUUUUUUUUUUUU",
"UUUUUUUUUUUUUUUUUUUUUUUUUUUUUUUUUUUUUUUUUUUUUUUUUUUUUUUUUUUUUUUU",
"UUUUUUUUUUUUUUUUUUUUUUUUUUUUUUUUUUUUUUUUUUUUUUUUUUUUUUUUUUUUUUUU",
"UUUUUUUUUUUUUUUUUUUUUUUUUUUUUUUUUUUUUUUUUUUUUUUUUUUUUUUUUUUUUUUU",
"UUUUUUUUUUUUUUUUUUUUUUUUUUUUUUUUUUUUUUUUUUUUUUUUUUUUUUUUUUUUUUUU",
"UUUUUUUUUUUUUUUUUUUUUUUUUUUUUUUUUUUUUUUUUUUUUUUUUUUUUUUUUUUUUUUU",
"UUUUUUUUUUUUUUUUUUUUUUUUUUUUUUUUUUUUUUUUUUUUUUUUUUUUUUUUUUUUUUUU",
"UUUUUUUUUUUUUUUUUUUUUUUUUUUUUUUUUUUUUUUUUUUUUUUUUUUUUUUUUUUUUUUU",
"UUUUUUUUUUUUUUUUUUUUUUUUUUUUUUUUUUUUUUUUUUUUUUUUUUUUUUUUUUUUUUUU",
"UUUUUUUUUUUUUUUUUUUUUUUUUUUUUUUUUUUUUUUUUUUUUUUUUUUUUUUUUUUUUUUU",
"UUUUUUUUUUUUUUUUUUUUUUUUUUUUUUUUUUUUUUUUUUUUUUUUUUUUUUUUUUUUUUUU"
};
