/* XPM */
static char *result[] = {
/* columns rows colors chars-per-pixel */
"64 64 71 1 ",
"  c black",
". c #0B0B0B",
"X c #131313",
"o c #181817",
"O c #1C1C1B",
"+ c #20201F",
"@ c #242422",
"# c #2C2C2A",
"$ c #30302E",
"% c #343432",
"& c #393937",
"* c #3A3A38",
"= c #41413F",
"- c #444442",
"; c #494946",
": c #4E4E4A",
"> c #51514E",
", c #555552",
"< c #585855",
"1 c #5E5E5A",
"2 c #61615D",
"3 c #676762",
"4 c #696964",
"5 c #6E6E69",
"6 c #73736E",
"7 c #777772",
"8 c #7A7A75",
"9 c #7D7D78",
"0 c #82827D",
"q c #8A8A84",
"w c #8D8D89",
"e c #93938D",
"r c #969690",
"t c #9C9C95",
"y c #9F9F99",
"u c #A3A39C",
"i c #ABABA4",
"p c #AFAFA8",
"a c #B3B3AC",
"s c #BDBDB5",
"d c #BFBFB9",
"f c #C4C4BC",
"g c #C8C8BF",
"h c #C7C7C0",
"j c #CBCBC2",
"k c #CFCFC8",
"l c #D0D0C7",
"z c #D3D3CA",
"x c #D8D8CF",
"c c #D7D7D0",
"v c #DBDBD2",
"b c #DCDCD2",
"n c #DBDBD4",
"m c #DFDFD5",
"M c #E0E0D7",
"N c #E1E1D9",
"B c #E4E4DB",
"V c #E7E7DD",
"C c #E8E8DF",
"Z c #EAEAE1",
"A c #EDEDE3",
"S c #EEEEE4",
"D c #F1F1E7",
"F c #F3F3E9",
"G c #F5F5EB",
"H c #F7F7EC",
"J c #F8F8ED",
"K c #FBFBF0",
"L c #FDFDF1",
"P c #FFFFF4",
"I c #11498E",
/* pixels */
"IIIIIIIIIIIIIIIIIIIIIIIIIIIIIIIIIIIIIIIIIIIIIIIIIIIIIIIIIIIIIIII",
"IIIIIIIIIIIIIIIIIIIIIIIIIIIIIIIIIIIIIIIIIIIIIIIIIIIIIIIIIIIIIIII",
"IIIIIIIIIIIIIIIIIIIIIIIIIIIIIIIIIIIIIIIIIIIIIIIIIIIIIIIIIIIIIIII",
"IIIIIIIIIIIIIIIIIIIIIIIIIIIIIIIIIIIIIIIIIIIIIIIIIIIIIIIIIIIIIIII",
"IIIIIIIIIIIIIIIIIIIIIIIIIIIIIIIIIIIIIIIIIIIIIIIIIIIIIIIIIIIIIIII",
"IIIIIIIIIIIIIIIIIIIIIIIIIIIIIIIIIIIIIIIIIIIIIIIIIIIIIIIIIIIIIIII",
"IIIIIIIIIIIIIIIIIIIIIIIIIIIIIIIIIIIIIIIIIIIIIIIIIIIIIIIIIIIIIIII",
"IIIIIIIIIIIIIIIIIIIIIIIIIIIIIIIIIIIIIIIIIIIIIIIIIIIIIIIIIIIIIIII",
"IIIIIIIIIIIIIIIIIIIIIIIIIIIIIIIIIIIIIIIIIIIIIIIIIIIIIIIIIIIIIIII",
"IIIIIIIIIIIIIIIIIIIIIIIIIIIIIIIIIIIIIIIIIIIIIIIIIIIIIIIIIIIIIIII",
"IIIIIIIIIIIIIIIIIIIIIIIIIIIIIIIIIIIIIIIIIIIIIIIIIIIIIIIIIIIIIIII",
"IIIIIIIIIIIIIIIIIIIIIIIIIIIIIIIIIIIIIIIIIIIIIIIIIIIIIIIIIIIIIIII",
"IIIIIIIIIIIIIIIIIIIIIIIIIIIIIIIIIIIIIIIIIIIIIIIIIIIIIIIIIIIIIIII",
"IIIIIIIIIIIIIIIIIIIIIIIIIIIIIIIIIIIIIIIIIIIIIIIIIIIIIIIIIIIIIIII",
"IIIIIIIIIIIIIIIIIIIIIIIIIIIIIIIIIIIIIIIIIIIIIIIIIIIIIIIIIIIIIIII",
"IIIIIIIIIIIIIIIIIIIIIIIIIIIIIIIIIIIIIIIIIIIIIIIIIIIIIIIIIIIIIIII",
"IIIIIIIIIIIIIIIIIIIIIIIIIIIIIIIIIIIIIIIIIIIIIIIIIIIIIIIIIIIIIIII",
"IIIIIIIIIIIIIIIIIIIIIIIIIIIIIIIIIIIIIIIIIIIIIIIIIIIIIIIIIIIIIIII",
"IIIIIIIIIIIIIIIIIIIIIIIIIIIIIIIIIIIIIIIIIIIIIIIIIIIIIIIIIIIIIIII",
"IIIIIIIIIIIIIIIIIIIIIIIIIIIIIIIIIIIIIIIIIIIIIIIIIIIIIIIIIIIIIIII",
"IIIIIIIIIIIIIIIIIIIIIIIIIIIIIIIIIIIIIIIIIIIIIIIIIIIIIIIIIIIIIIII",
"IIIIIIIIIIIIIIIIIIIIIIIIIIIIIIIIIIIIIIIIIIIIIIIIIIIIIIIIIIIIIIII",
"IIIIIIIIIIIIIIIIIIIIIIIIIIII&alklklkIIIIIIIIIIIIIIIIIIIIIIIIIIII",
"IIIIIIIIIIIIIIIIIIIIIIIIIOX.OzFDDDDZNmzIIIIIIIIIIIIIIIIIIIIIIIII",
"IIIIIIIIIIIIIIIIIIIIIII@.   #xHLKJJJJGANzIIIIIIIIIIIIIIIIIIIIIII",
"IIIIIIIIIIIIIIIIIIIIII@.  @5pssjAKJJKKJHmdIIIIIIIIIIIIIIIIIIIIII",
"IIIIIIIIIIIIIIIIIIIIIX  X6zJLJDvflHKHSSHNbVcIIIIIIIIIIIIIIIIIIII",
"IIIIIIIIIIIIIIIIIIIIO  &sJLJJJJLHle3:==:1lJCcIIIIIIIIIIIIIIIIIII",
"IIIIIIIIIIIIIIIIIIIpr51xLKJKJJJJKF;      :VJZIIIIIIIIIIIIIIIIIII",
"IIIIIIIIIIIIIIIIIIkSLVjLJJJKJJJJJD-       8JHVIIIIIIIIIIIIIIIIII",
"IIIIIIIIIIIIIIIIIhNHLvxLJJKKKKJJKS&       OfLGNIIIIIIIIIIIIIIIII",
"IIIIIIIIIIIIIIIIIcFJLxbLJJKKKKKJKA$        2GKDmIIIIIIIIIIIIIIII",
"IIIIIIIIIIIIIIIIIVJJLbmLJJJJJJJJKC#        OfLJZIIIIIIIIIIIIIIII",
"IIIIIIIIIIIIIIIIzDJJLbMLJJJJJJJKKl#        @pzDAIIIIIIIIIIIIIIII",
"IIIIIIIIIIIIIIIINJJJLmmPKJJJJJLSkjf6O     XuJCzliIIIIIIIIIIIIIII",
"IIIIIIIIIIIIIIIICJJJKp4aALLJKJvfMJLJk6O  .rJKKHi-IIIIIIIIIIIIIII",
"IIIIIIIIIIIIIIIzSJJLs+ .-tBLAjlFLJJKLJf:XqGKJJGa@IIIIIIIIIIIIIII",
"IIIIIIIIIIIIIIIcDJLM*    .*efNJKJJJJKKLVuDKJJKBs%IIIIIIIIIIIIIII",
"IIIIIIIIIIIIIIIzDKK9       +zLJJJJJJKKKJjSKJKGlf-IIIIIIIIIIIIIII",
"IIIIIIIIIIIIIIIimFz@       OlLJJJJJJKKKLfCKJJMgf:IIIIIIIIIIIIIII",
"IIIIIIIIIIIIIIIikzy.       olLJJKKKKJJJKjZKKAjgf>IIIIIIIIIIIIIII",
"IIIIIIIIIIIIIIIdZLzO       .gLJJKKKJJJJLsVLDlggf<IIIIIIIIIIIIIII",
"IIIIIIIIIIIIIIIIAJJ3       .fLJJKKJJJJJLfCGzggjs,IIIIIIIIIIIIIII",
"IIIIIIIIIIIIIIIIVJLjO      .fLJJKKJJJJJKlBxgggguwIIIIIIIIIIIIIII",
"IIIIIIIIIIIIIIIINHJJ0      .sLKJJJJJJJKJpfjggjaiIIIIIIIIIIIIIIII",
"IIIIIIIIIIIIIIIInFJLV;  X%2uszGLKJJJJLSqO;ijjsufIIIIIIIIIIIIIIII",
"IIIIIIIIIIIIIIIIIZJJLf3efBJLGlfmJLJLJj,.  @0ayslIIIIIIIIIIIIIIII",
"IIIIIIIIIIIIIIIIImGKLbmPLKJJKKAjfMGv0+     .5skIIIIIIIIIIIIIIIII",
"IIIIIIIIIIIIIIIIIICHLbbLJKKKKKJHNfq#       XtjIIIIIIIIIIIIIIIIII",
"IIIIIIIIIIIIIIIIIIIzMlfSDDDACNblkk7        ,fkIIIIIIIIIIIIIIIIII",
"IIIIIIIIIIIIIIIIIIIIssujjjjjjgffgj0.      @pjIIIIIIIIIIIIIIIIIII",
"IIIIIIIIIIIIIIIIIIIII,,ajggggggggje.     XqjIIIIIIIIIIIIIIIIIIII",
"IIIIIIIIIIIIIIIIIIIIIIX&efjggggggjt.   X%5fIIIIIIIIIIIIIIIIIIIII",
"IIIIIIIIIIIIIIIIIIIIIIIOX>tfjjjgfarq00qusIIIIIIIIIIIIIIIIIIIIIII",
"IIIIIIIIIIIIIIIIIIIIIIIIIX+:qiiiuifjjjjIIIIIIIIIIIIIIIIIIIIIIIII",
"IIIIIIIIIIIIIIIIIIIIIIIIIIII-pssfjgjjIIIIIIIIIIIIIIIIIIIIIIIIIII",
"IIIIIIIIIIIIIIIIIIIIIIIIIIIIIIIIIIIIIIIIIIIIIIIIIIIIIIIIIIIIIIII",
"IIIIIIIIIIIIIIIIIIIIIIIIIIIIIIIIIIIIIIIIIIIIIIIIIIIIIIIIIIIIIIII",
"IIIIIIIIIIIIIIIIIIIIIIIIIIIIIIIIIIIIIIIIIIIIIIIIIIIIIIIIIIIIIIII",
"IIIIIIIIIIIIIIIIIIIIIIIIIIIIIIIIIIIIIIIIIIIIIIIIIIIIIIIIIIIIIIII",
"IIIIIIIIIIIIIIIIIIIIIIIIIIIIIIIIIIIIIIIIIIIIIIIIIIIIIIIIIIIIIIII",
"IIIIIIIIIIIIIIIIIIIIIIIIIIIIIIIIIIIIIIIIIIIIIIIIIIIIIIIIIIIIIIII",
"IIIIIIIIIIIIIIIIIIIIIIIIIIIIIIIIIIIIIIIIIIIIIIIIIIIIIIIIIIIIIIII",
"IIIIIIIIIIIIIIIIIIIIIIIIIIIIIIIIIIIIIIIIIIIIIIIIIIIIIIIIIIIIIIII"
};
